<?xml version="1.0" encoding="UTF-8" standalone="no"?>
<!-- Created with Inkscape (http://www.inkscape.org/) -->

<svg
   xmlns:dc="http://purl.org/dc/elements/1.1/"
   xmlns:cc="http://creativecommons.org/ns#"
   xmlns:rdf="http://www.w3.org/1999/02/22-rdf-syntax-ns#"
   xmlns:svg="http://www.w3.org/2000/svg"
   xmlns="http://www.w3.org/2000/svg"
   xmlns:sodipodi="http://sodipodi.sourceforge.net/DTD/sodipodi-0.dtd"
   xmlns:inkscape="http://www.inkscape.org/namespaces/inkscape"
   width="210mm"
   height="297mm"
   viewBox="0 0 210 297"
   version="1.1"
   id="svg8"
   sodipodi:docname="all_togheter.svg"
   inkscape:version="0.92.2 2405546, 2018-03-11">
  <defs
     id="defs2">
    <filter
       inkscape:collect="always"
       style="color-interpolation-filters:sRGB"
       id="filter907"
       x="-0.011698973"
       width="1.0233979"
       y="-0.012316928"
       height="1.0246339">
      <feGaussianBlur
         inkscape:collect="always"
         stdDeviation="0.329283"
         id="feGaussianBlur909" />
    </filter>
  </defs>
  <sodipodi:namedview
     id="base"
     pagecolor="#ffffff"
     bordercolor="#666666"
     borderopacity="1.0"
     inkscape:pageopacity="0.0"
     inkscape:pageshadow="2"
     inkscape:zoom="2.4289257"
     inkscape:cx="450.74247"
     inkscape:cy="614.09766"
     inkscape:document-units="mm"
     inkscape:current-layer="layer1"
     showgrid="false"
     inkscape:snap-nodes="false"
     inkscape:window-width="1920"
     inkscape:window-height="1039"
     inkscape:window-x="0"
     inkscape:window-y="0"
     inkscape:window-maximized="1" />
  <metadata
     id="metadata5">
    <rdf:RDF>
      <cc:Work
         rdf:about="">
        <dc:format>image/svg+xml</dc:format>
        <dc:type
           rdf:resource="http://purl.org/dc/dcmitype/StillImage" />
      </cc:Work>
    </rdf:RDF>
  </metadata>
  <g
     inkscape:label="Layer 1"
     inkscape:groupmode="layer"
     id="layer1">
    <path
       d="m 103.17535,152.34653 0.77026,-4.583 1.57901,2.27224 -1.11686,-3.42762 2.15671,2.4263 -1.11687,-3.88978 2.11819,2.61886 1.57902,-9.32006 5.39177,8.01063 -4.85259,3.19655 -0.19256,21.25897 -1.92564,-20.14211 -1.73306,20.14211 -1.07836,-18.06242 -1.38645,18.13945 0.50066,-18.02391 -1.57902,18.06242 -4.814077,-21.22046 5.006647,-2.38778 -18.293506,-5.69988 10.359898,29.42366 32.697228,-15.40505 -16.79151,15.17397 -42.754129,-4.95264 36.546079,-15.08683 m -38.23553,19.96245 36.89511,-17.63879 18.71714,17.63879 9.62816,-10.39841 -15.17398,-13.86455 -25.649419,24.26296 -17.176636,-13.24835 -5.160692,13.17132 -0.924304,-3.23506 25.033213,-23.03056 3.389112,5.62285 -4.159364,2.54183 37.51131,4.15937 -59.463514,5.62284 63.160724,4.8526 -66.010659,1.8486 66.934959,1.77158 -24.87916,-20.56574 13.4024,-0.46216 -20.64277,21.0279 -19.94955,-18.71714 -7.548478,18.71714 16.63746,-18.71714 -3.92829,-16.48341 4.313415,-2.92696 8.241705,10.93759 -6.316073,5.62285 14.403731,21.72112 18.02391,-18.94821 0.077,18.71714 -18.56309,-28.3453 7.54848,-4.23639 -5.54582,8.70385 1.38646,0.23108 -0.15405,1.15538 1.07835,0.23107 -14.865877,22.26031 -19.179293,-15.25101 3.003984,-2.38778 19.641446,17.94689 20.95088,-22.49138 8.01062,22.2603 3.62019,-6.23904 -20.79682,-16.79151 3.15803,-1.61753 -7.16335,-7.47146 -0.69323,2.15671 -21.952199,0.6162 -2.079683,5.7769 -0.847278,-1.23241 2.618859,0.38513 9.628161,-6.31607 -6.470123,-7.0093 -1.540505,1.5405 9.397082,-0.3081 0.231076,-3.62019 -1.463479,0.84728 3.08101,1.15538 -1.078355,1.38646 3.389114,9.166 -1.386456,-9.78221 2.233736,0.077 0.38512,2.38779 -3.389108,-2.00266 0.154051,-0.69323 -4.390441,0.53918 -9.011957,14.3267 0.616202,22.72245 17.715813,-22.18328 -16.637459,-10.78353 11.245689,-5.1607 -2.849933,-0.6162 0.693226,-1.92563 -1.155379,-0.23108 0.154051,-1.00133 -1.078355,-0.11553 -0.192563,-1.27092 -1.116865,-0.19256 -0.192564,-1.34795 -1.116867,-0.23107 -0.115538,-1.23241 -1.116867,-0.19256 -0.115536,-1.2324 -1.116867,-0.23108 0.03851,-1.07835 -1.001329,-0.15405 -0.231076,-14.48076 -7.664014,3.69722 20.950876,2.11819 -15.135469,4.85259 5.276231,-9.55113 -10.359898,-1.30943 -3.350601,2.27225 6.43161,-2.27225 -3.9668,3.73573 9.358569,-3.27358 -5.391769,7.54848 9.512623,-4.89111 -6.816738,8.58832 5.045157,-1.69455 4.467465,-6.00797 -11.168665,5.58433 5.199205,-8.85791 -8.087653,5.23772 3.389114,-5.96946 -5.969461,3.15804 2.926961,-3.15804 -5.507307,1.54051 0.07703,-0.57769 -0.654715,-0.0385 0.192564,-0.65471 -0.385127,0.38513 0.693227,-0.0385 -0.154051,0.69323 0.847277,-0.11554 -0.346612,0.73174 9.281546,-1.77158 11.168663,7.39443 -16.329358,-2.54184 -1.61753,-4.583 13.132808,2.19522 0.346615,7.16335 4.351927,-5.08367 1.15538,2.31076 1.232405,-1.38645 0.500663,0.65471 0.731744,-0.19256 -18.100943,1.11687 4.005315,-7.00931 -2.580346,8.58832 10.783538,0.38513 1.694556,-4.89111 -11.39974,6.04649 5.045154,-9.35857 -7.972115,5.73838 3.350599,-6.66269 -6.816736,2.69589 1.733069,-2.81142 -2.888449,3.00398 0.962816,0.077 -0.07703,0.88579 0.885791,0.077 v 0.92431 l 0.847277,0.0385 -0.115538,0.80876 0.770253,-0.0385 -0.115539,0.84728 0.808768,-0.0385 -0.115538,0.77025 0.693227,-0.0385 -0.154051,0.69323 0.731739,0.11553 -0.192564,0.57769 0.808768,0.11554 -0.154051,0.69323 0.808765,-0.077 -0.03851,0.9243 0.731739,-0.11553 -0.192564,0.77025 0.616204,-0.077 -0.03851,0.77026 0.654714,-0.15405 -0.07703,0.88579 0.693227,-0.15405 -0.03851,0.84727 2.426298,-0.34661 5.314744,-9.20452 -7.317401,8.97345 3.389111,-0.84728 1.386456,-9.78221 -14.057114,0.69323 0.308102,-1.46349 12.863219,9.85924 -4.621514,0.50066 5.083667,-9.85923 -9.743696,3.88977 2.464808,-5.1992 -7.124838,1.46348 0.269589,-0.53918 0.616202,1.502 0.770252,0.0385 -0.154051,0.73174 0.847278,0.0385 v 0.92431 h 0.847278 l -0.115536,0.96281 0.847278,-0.077 -0.115538,0.88579 0.693227,-0.077 -0.07703,0.80877 0.73174,-0.0385 -0.115539,0.73174 0.770253,0.0385 -0.192561,0.69322 0.731739,-0.077 -0.07703,0.77025 0.693227,-0.0385 v 1.00133 l 0.770252,-0.11554 -0.192561,0.73174 0.654714,-0.0385 -0.03851,0.69322 0.577689,-0.077 -0.07703,0.77025 0.770253,-0.11554 -0.154049,0.77026 0.808765,0.15405 0.07703,1.03984 1.232403,0.077 0.03851,1.30943 0.924304,0.15405 0.154051,1.23241 1.116867,0.3081 0.03851,1.07835 1.232403,0.34662 0.07703,1.19389 1.193892,0.3081 0.346615,1.42497 0.924303,0.077 0.115536,1.19389 h 0.924303 l 0.192564,1.34795 1.61753,0.38512 -1.733068,-0.0385 1.57902,0.42364 1.039839,2.65737 -1.386454,0.26959 3.466137,2.65737 1.733067,-2.38778 -1.617529,-1.73307 -1.810094,1.07835 2.734393,1.92563 -2.965469,-1.38645 3.312089,6.7012 1.30942,-2.1182 1.27092,2.19522 1.23241,-1.38645 0.11553,1.96414 0.61621,-1.77158 2.50332,0.11554 1.46348,-2.15671 4.81408,2.65737 0.53917,-0.34661 -2.11819,-2.88845 1.15538,-0.077 0.96281,1.50199 -3.23506,-0.38513 3.0425,2.04117 -1.38645,-3.15803 1.61753,2.04117 -6.66269,0.96281 6.54715,2.81143 -9.24303,2.00265 9.24303,1.46348 -32.201311,24.01301 -11.655531,-9.85818 15.903808,-8.1153 -3.594696,-1.52502 8.496554,-1.30717 1.252699,-0.98037 -0.816978,-5.11972 -6.045626,-4.46613 9.585857,-4.62954 -0.76251,1.68842 5.228648,1.03484 -5.065252,1.0893 6.263478,-0.0545 -6.590271,1.57949 5.392045,3.15898 -16.829715,7.62511 21.786031,19.87976 18.02795,-19.38957 10.13051,16.99311 -2.28754,2.39646 -24.12803,-19.71636 -0.32679,19.6619 17.75562,-19.38958 1.74288,1.68842 0.38126,17.64669 -6.91707,-22.71194 -21.513709,22.76641 -19.55297,-16.61186 0.490188,16.66632 8.224229,-17.97348 4.248277,-1.90628 -3.758092,-3.64916 4.901859,-3.48577 -2.55986,-8.00637 -3.158976,16.06721 -2.668789,-10.02158 -0.21786,5.39204 -1.143768,-2.55986 11.274274,-7.46171 -4.248277,-4.684 1.579489,-0.76251 -0.490186,-1.14377 1.361628,-0.32679 -0.490188,-1.41609 0.582358,0.0168 -0.07703,-0.25034 0.231076,-0.077 -0.05777,0.19256 -0.365868,0.0193 0.67397,0.86654 -1.193893,-0.23108 0.558433,0.92431 -0.750996,-0.28885 0.365871,0.57769 -0.673971,-0.11554 0.51992,0.55844 -0.828022,0.077 0.73174,0.4429 h -1.193893 l 0.982073,0.67397 -1.347941,-0.077 4.794824,4.23639 2.541834,-1.71381 -1.521251,-4.19788 0.308102,-0.0385 0.519922,0.94356 -2.002658,5.21846 -4.428953,-1.38645 0.365869,-3.87052 1.136123,-0.59695 -0.154051,-1.02058 0.982072,-0.82802 0.500666,0.53917 -0.134794,-0.40438 -0.211821,-0.15405 0.288846,0.69323 -1.290174,-0.42364 0.866534,0.73174 -1.270918,0.36587 0.269589,1.00133 -1.309428,0.57769 1.059095,0.57768 -1.61753,0.34662 0.173307,2.58035 -3.485393,0.84727 3.081009,-0.15405 5.237721,4.8526 -0.621535,29.85097 1.960742,-19.87976 1.307164,19.93423 1.252696,-21.62265 2.287535,21.62265 2.5054,-21.89497 1.57948,1.63395 -0.32679,-3.64916 2.66879,1.2527 -0.81697,-4.13935 4.95632,2.72325 4.08488,-1.68841 v -1.14377 l -0.65358,-0.43572 -7.026,-1.96074 7.78851,3.2679 -8.71441,-1.79735 8.49655,2.61433 -9.53139,-0.87144 2.61433,2.39646 -3.32238,-1.0893 1.19824,3.15897 -2.28754,-0.76251 v 3.15898 l -5.01079,-2.88665 3.64917,-2.72326 -4.357216,2.28754 2.450936,-3.5947 -3.594703,2.55986 2.450931,-2.83218 -6.590276,0.38125 6.481344,-0.70804 -6.535809,0.21786 7.189391,-1.30717 -7.352787,0.92591 7.189393,-1.74288 -16.938646,1.47056 0.599117,-1.52503 20.533345,-2.55986 0.16339,2.12414 1.52503,0.27233 0.76251,-2.94112 8.27869,2.99558 -2.77772,-3.97595 2.01521,-0.21786 -1.96074,8.82335 -0.65358,-7.89744 -5.06526,5.01078 -0.10893,-1.19823 -0.81698,0.27233 0.43573,-2.94112 5.11972,-1.52502 -0.38126,8.49655 4.19381,-4.13934 -4.57507,-4.73846 -1.41609,8.82334 -2.1786,-3.81256 -0.81698,0.1634 v -1.2527 l -0.81698,0.21786 -0.59911,-2.28753 -1.96075,1.52502 0.59912,0.21786 0.59912,-2.50539 -1.68842,2.39646 -0.38126,-2.39646 -6.372414,0.43572 5.283114,-1.57949 -14.215392,-0.81698 5.555441,-4.5206 2.23307,4.30274 -0.381257,-3.4313 2.614324,-2.61432 -8.986739,16.01273 -2.614324,0.21786 2.396463,0.54466 -3.267905,1.68841 3.54023,1.79735 4.030417,-0.59911 -4.084881,1.03483 3.921487,0.76252 1.0893,18.35473 0.217861,-20.7512 3.975952,-2.01521 -3.540231,-2.94111 1.416092,-7.84298 0.435722,1.57949 1.089302,-3.97595 4.248277,6.75367 2.995581,-2.94111 -1.2527,0.21786 v -1.08931 l -0.87144,0.21786 -0.0545,-1.25269 -0.816981,0.10893 v -3.4313 l -2.77772,0.38125 -0.381257,-1.57948 -2.614324,0.21785 1.797349,1.52503 -2.178605,-0.87144 1.633953,1.85181 -6.372416,-1.57949 4.084884,0.1634 -0.971267,-0.80665 1.078354,0.44289 -0.808765,-0.80877 1.039842,0.55844 -0.712486,-0.78951 0.962816,0.50066 -0.770252,-0.75099 0.750996,0.42364 -0.577689,-0.63546 0.46215,0.25033 -0.03851,-0.23108 0.154049,0.0963 h -0.654715 l 0.750996,0.42364 v -0.25034 l -0.173307,0.4429 -0.770252,-0.38513 0.750996,0.77025 -1.078352,-0.67397 0.808765,0.94356 -1.001329,-0.50066 0.808765,0.78951 -1.09761,-0.50067 -5.565077,2.77291 2.407042,-2.11819 -2.715141,1.61753 0.25033,-1.25166 2.09894,-0.65471 -2.195219,2.21447 5.06441,-2.7344 1.559762,1.03984 0.866534,3.46614 -8.723112,3.6587 7.201863,3.06176 1.88712,-3.36986 -4.313415,-4.73705 4.255646,3.19655 0.481406,-1.88712 4.968132,0.0193 1.290171,-2.84994 -3.427623,0.23108 2.156708,2.63811 -2.580346,-2.11819 3.196551,1.15538 0.11554,1.17463 h 1.00133 l -0.0193,1.07836 0.80876,-0.15405 0.077,3.13878 1.86786,-1.59828 -0.32736,1.6753 2.15671,0.11554 1.09761,-2.69588 7.18261,8.81939 -27.035877,23.14609 -11.014615,-14.48075 -5.160695,14.40373 -2.695885,-6.3931 61.312122,-6.54715 -14.09563,13.0943 -18.563088,-20.64277 -16.714486,20.64277 -8.78088,-11.01461 19.102268,-7.85658 -3.851264,0.23107 12.401068,-7.77955 -1.694556,3.23506 4.005318,-2.61886 -2.772912,25.57239 -7.086325,-19.02524 4.39044,-2.54183 -11.168666,-7.62551 1.309431,10.32139 -3.697213,0.46215 50.143455,13.94158 -8.85791,4.77557 -48.834023,-14.09563 -5.54582,6.16202 7.471452,7.85658 20.026572,-23.87784 -14.480752,-1.8486 17.407713,-3.62019 -4.236392,-6.54715 -9.705184,3.85127 6.084996,11.16866 -1.771581,-18.25499 6.084999,16.79151 -12.940247,1.69456 15.713157,-6.3931 -3.543165,-8.85791 -8.164677,12.01594 -2.31076,-5.54582 1.232406,29.26961 4.621516,-18.17797 4.159364,18.17797 22.568406,-23.56973 4.46747,23.56973 9.47411,-8.54981 -19.87252,8.70386 -15.096961,-20.1036 6.162021,2.00266 -4.005312,-3.38911 5.237722,1.92563 -17.869867,-12.63215 3.003986,31.96549 27.652071,-23.87783 2.46481,24.10891 11.16867,-11.78487 -18.25499,-12.24702 3.08101,-3.08101 -8.31873,-1.61753 7.85658,0.15405 -6.7012,-3.92829 -2.92696,3.92829 -2.07968,-3.38911 -1.46348,2.46481 -0.92431,-3.15804 -0.53918,2.84994 -17.022584,2.00266"
       style="fill:none;stroke:#000000;stroke-width:0.5;stroke-linecap:round;stroke-linejoin:round;stroke-opacity:1;stroke-miterlimit:4;stroke-dasharray:none;filter:url(#filter907)"
       id="path905"
       inkscape:export-filename="/home/siqueira/Documents/Repositories/TA/OS/slides/vkms1/images/together.png"
       inkscape:export-xdpi="144.75999"
       inkscape:export-ydpi="144.75999" />
    <path
       id="path901"
       style="fill:none;stroke:#000000;stroke-width:0.5;stroke-linecap:round;stroke-linejoin:round;stroke-opacity:1;stroke-miterlimit:4;stroke-dasharray:none"
       d="m 103.17535,152.34653 0.77026,-4.583 1.57901,2.27224 -1.11686,-3.42762 2.15671,2.4263 -1.11687,-3.88978 2.11819,2.61886 1.57902,-9.32006 5.39177,8.01063 -4.85259,3.19655 -0.19256,21.25897 -1.92564,-20.14211 -1.73306,20.14211 -1.07836,-18.06242 -1.38645,18.13945 0.50066,-18.02391 -1.57902,18.06242 -4.814077,-21.22046 5.006647,-2.38778 -18.293506,-5.69988 10.359898,29.42366 32.697228,-15.40505 -16.79151,15.17397 -42.754129,-4.95264 36.546079,-15.08683 m -38.23553,19.96245 36.89511,-17.63879 18.71714,17.63879 9.62816,-10.39841 -15.17398,-13.86455 -25.649419,24.26296 -17.176636,-13.24835 -5.160692,13.17132 -0.924304,-3.23506 25.033213,-23.03056 3.389112,5.62285 -4.159364,2.54183 37.51131,4.15937 -59.463514,5.62284 63.160724,4.8526 -66.010659,1.8486 66.934959,1.77158 -24.87916,-20.56574 13.4024,-0.46216 -20.64277,21.0279 -19.94955,-18.71714 -7.548478,18.71714 16.63746,-18.71714 -3.92829,-16.48341 4.313415,-2.92696 8.241705,10.93759 -6.316073,5.62285 14.403731,21.72112 18.02391,-18.94821 0.077,18.71714 -18.56309,-28.3453 7.54848,-4.23639 -5.54582,8.70385 1.38646,0.23108 -0.15405,1.15538 1.07835,0.23107 -14.865877,22.26031 -19.179293,-15.25101 3.003984,-2.38778 19.641446,17.94689 20.95088,-22.49138 8.01062,22.2603 3.62019,-6.23904 -20.79682,-16.79151 3.15803,-1.61753 -7.16335,-7.47146 -0.69323,2.15671 -21.952199,0.6162 -2.079683,5.7769 -0.847278,-1.23241 2.618859,0.38513 9.628161,-6.31607 -6.470123,-7.0093 -1.540505,1.5405 9.397082,-0.3081 0.231076,-3.62019 -1.463479,0.84728 3.08101,1.15538 -1.078355,1.38646 3.389114,9.166 -1.386456,-9.78221 2.233736,0.077 0.38512,2.38779 -3.389108,-2.00266 0.154051,-0.69323 -4.390441,0.53918 -9.011957,14.3267 0.616202,22.72245 17.715813,-22.18328 -16.637459,-10.78353 11.245689,-5.1607 -2.849933,-0.6162 0.693226,-1.92563 -1.155379,-0.23108 0.154051,-1.00133 -1.078355,-0.11553 -0.192563,-1.27092 -1.116865,-0.19256 -0.192564,-1.34795 -1.116867,-0.23107 -0.115538,-1.23241 -1.116867,-0.19256 -0.115536,-1.2324 -1.116867,-0.23108 0.03851,-1.07835 -1.001329,-0.15405 -0.231076,-14.48076 -7.664014,3.69722 20.950876,2.11819 -15.135469,4.85259 5.276231,-9.55113 -10.359898,-1.30943 -3.350601,2.27225 6.43161,-2.27225 -3.9668,3.73573 9.358569,-3.27358 -5.391769,7.54848 9.512623,-4.89111 -6.816738,8.58832 5.045157,-1.69455 4.467465,-6.00797 -11.168665,5.58433 5.199205,-8.85791 -8.087653,5.23772 3.389114,-5.96946 -5.969461,3.15804 2.926961,-3.15804 -5.507307,1.54051 0.07703,-0.57769 -0.654715,-0.0385 0.192564,-0.65471 -0.385127,0.38513 0.693227,-0.0385 -0.154051,0.69323 0.847277,-0.11554 -0.346612,0.73174 9.281546,-1.77158 11.168663,7.39443 -16.329358,-2.54184 -1.61753,-4.583 13.132808,2.19522 0.346615,7.16335 4.351927,-5.08367 1.15538,2.31076 1.232405,-1.38645 0.500663,0.65471 0.731744,-0.19256 -18.100943,1.11687 4.005315,-7.00931 -2.580346,8.58832 10.783538,0.38513 1.694556,-4.89111 -11.39974,6.04649 5.045154,-9.35857 -7.972115,5.73838 3.350599,-6.66269 -6.816736,2.69589 1.733069,-2.81142 -2.888449,3.00398 0.962816,0.077 -0.07703,0.88579 0.885791,0.077 v 0.92431 l 0.847277,0.0385 -0.115538,0.80876 0.770253,-0.0385 -0.115539,0.84728 0.808768,-0.0385 -0.115538,0.77025 0.693227,-0.0385 -0.154051,0.69323 0.731739,0.11553 -0.192564,0.57769 0.808768,0.11554 -0.154051,0.69323 0.808765,-0.077 -0.03851,0.9243 0.731739,-0.11553 -0.192564,0.77025 0.616204,-0.077 -0.03851,0.77026 0.654714,-0.15405 -0.07703,0.88579 0.693227,-0.15405 -0.03851,0.84727 2.426298,-0.34661 5.314744,-9.20452 -7.317401,8.97345 3.389111,-0.84728 1.386456,-9.78221 -14.057114,0.69323 0.308102,-1.46349 12.863219,9.85924 -4.621514,0.50066 5.083667,-9.85923 -9.743696,3.88977 2.464808,-5.1992 -7.124838,1.46348 0.269589,-0.53918 0.616202,1.502 0.770252,0.0385 -0.154051,0.73174 0.847278,0.0385 v 0.92431 h 0.847278 l -0.115536,0.96281 0.847278,-0.077 -0.115538,0.88579 0.693227,-0.077 -0.07703,0.80877 0.73174,-0.0385 -0.115539,0.73174 0.770253,0.0385 -0.192561,0.69322 0.731739,-0.077 -0.07703,0.77025 0.693227,-0.0385 v 1.00133 l 0.770252,-0.11554 -0.192561,0.73174 0.654714,-0.0385 -0.03851,0.69322 0.577689,-0.077 -0.07703,0.77025 0.770253,-0.11554 -0.154049,0.77026 0.808765,0.15405 0.07703,1.03984 1.232403,0.077 0.03851,1.30943 0.924304,0.15405 0.154051,1.23241 1.116867,0.3081 0.03851,1.07835 1.232403,0.34662 0.07703,1.19389 1.193892,0.3081 0.346615,1.42497 0.924303,0.077 0.115536,1.19389 h 0.924303 l 0.192564,1.34795 1.61753,0.38512 -1.733068,-0.0385 1.57902,0.42364 1.039839,2.65737 -1.386454,0.26959 3.466137,2.65737 1.733067,-2.38778 -1.617529,-1.73307 -1.810094,1.07835 2.734393,1.92563 -2.965469,-1.38645 3.312089,6.7012 1.30942,-2.1182 1.27092,2.19522 1.23241,-1.38645 0.11553,1.96414 0.61621,-1.77158 2.50332,0.11554 1.46348,-2.15671 4.81408,2.65737 0.53917,-0.34661 -2.11819,-2.88845 1.15538,-0.077 0.96281,1.50199 -3.23506,-0.38513 3.0425,2.04117 -1.38645,-3.15803 1.61753,2.04117 -6.66269,0.96281 6.54715,2.81143 -9.24303,2.00265 9.24303,1.46348 -32.201311,24.01301 -11.655531,-9.85818 15.903808,-8.1153 -3.594696,-1.52502 8.496554,-1.30717 1.252699,-0.98037 -0.816978,-5.11972 -6.045626,-4.46613 9.585857,-4.62954 -0.76251,1.68842 5.228648,1.03484 -5.065252,1.0893 6.263478,-0.0545 -6.590271,1.57949 5.392045,3.15898 -16.829715,7.62511 21.786031,19.87976 18.02795,-19.38957 10.13051,16.99311 -2.28754,2.39646 -24.12803,-19.71636 -0.32679,19.6619 17.75562,-19.38958 1.74288,1.68842 0.38126,17.64669 -6.91707,-22.71194 -21.513709,22.76641 -19.55297,-16.61186 0.490188,16.66632 8.224229,-17.97348 4.248277,-1.90628 -3.758092,-3.64916 4.901859,-3.48577 -2.55986,-8.00637 -3.158976,16.06721 -2.668789,-10.02158 -0.21786,5.39204 -1.143768,-2.55986 11.274274,-7.46171 -4.248277,-4.684 1.579489,-0.76251 -0.490186,-1.14377 1.361628,-0.32679 -0.490188,-1.41609 0.582358,0.0168 -0.07703,-0.25034 0.231076,-0.077 -0.05777,0.19256 -0.365868,0.0193 0.67397,0.86654 -1.193893,-0.23108 0.558433,0.92431 -0.750996,-0.28885 0.365871,0.57769 -0.673971,-0.11554 0.51992,0.55844 -0.828022,0.077 0.73174,0.4429 h -1.193893 l 0.982073,0.67397 -1.347941,-0.077 4.794824,4.23639 2.541834,-1.71381 -1.521251,-4.19788 0.308102,-0.0385 0.519922,0.94356 -2.002658,5.21846 -4.428953,-1.38645 0.365869,-3.87052 1.136123,-0.59695 -0.154051,-1.02058 0.982072,-0.82802 0.500666,0.53917 -0.134794,-0.40438 -0.211821,-0.15405 0.288846,0.69323 -1.290174,-0.42364 0.866534,0.73174 -1.270918,0.36587 0.269589,1.00133 -1.309428,0.57769 1.059095,0.57768 -1.61753,0.34662 0.173307,2.58035 -3.485393,0.84727 3.081009,-0.15405 5.237721,4.8526 -0.621535,29.85097 1.960742,-19.87976 1.307164,19.93423 1.252696,-21.62265 2.287535,21.62265 2.5054,-21.89497 1.57948,1.63395 -0.32679,-3.64916 2.66879,1.2527 -0.81697,-4.13935 4.95632,2.72325 4.08488,-1.68841 v -1.14377 l -0.65358,-0.43572 -7.026,-1.96074 7.78851,3.2679 -8.71441,-1.79735 8.49655,2.61433 -9.53139,-0.87144 2.61433,2.39646 -3.32238,-1.0893 1.19824,3.15897 -2.28754,-0.76251 v 3.15898 l -5.01079,-2.88665 3.64917,-2.72326 -4.357216,2.28754 2.450936,-3.5947 -3.594703,2.55986 2.450931,-2.83218 -6.590276,0.38125 6.481344,-0.70804 -6.535809,0.21786 7.189391,-1.30717 -7.352787,0.92591 7.189393,-1.74288 -16.938646,1.47056 0.599117,-1.52503 20.533345,-2.55986 0.16339,2.12414 1.52503,0.27233 0.76251,-2.94112 8.27869,2.99558 -2.77772,-3.97595 2.01521,-0.21786 -1.96074,8.82335 -0.65358,-7.89744 -5.06526,5.01078 -0.10893,-1.19823 -0.81698,0.27233 0.43573,-2.94112 5.11972,-1.52502 -0.38126,8.49655 4.19381,-4.13934 -4.57507,-4.73846 -1.41609,8.82334 -2.1786,-3.81256 -0.81698,0.1634 v -1.2527 l -0.81698,0.21786 -0.59911,-2.28753 -1.96075,1.52502 0.59912,0.21786 0.59912,-2.50539 -1.68842,2.39646 -0.38126,-2.39646 -6.372414,0.43572 5.283114,-1.57949 -14.215392,-0.81698 5.555441,-4.5206 2.23307,4.30274 -0.381257,-3.4313 2.614324,-2.61432 -8.986739,16.01273 -2.614324,0.21786 2.396463,0.54466 -3.267905,1.68841 3.54023,1.79735 4.030417,-0.59911 -4.084881,1.03483 3.921487,0.76252 1.0893,18.35473 0.217861,-20.7512 3.975952,-2.01521 -3.540231,-2.94111 1.416092,-7.84298 0.435722,1.57949 1.089302,-3.97595 4.248277,6.75367 2.995581,-2.94111 -1.2527,0.21786 v -1.08931 l -0.87144,0.21786 -0.0545,-1.25269 -0.816981,0.10893 v -3.4313 l -2.77772,0.38125 -0.381257,-1.57948 -2.614324,0.21785 1.797349,1.52503 -2.178605,-0.87144 1.633953,1.85181 -6.372416,-1.57949 4.084884,0.1634 -0.971267,-0.80665 1.078354,0.44289 -0.808765,-0.80877 1.039842,0.55844 -0.712486,-0.78951 0.962816,0.50066 -0.770252,-0.75099 0.750996,0.42364 -0.577689,-0.63546 0.46215,0.25033 -0.03851,-0.23108 0.154049,0.0963 h -0.654715 l 0.750996,0.42364 v -0.25034 l -0.173307,0.4429 -0.770252,-0.38513 0.750996,0.77025 -1.078352,-0.67397 0.808765,0.94356 -1.001329,-0.50066 0.808765,0.78951 -1.09761,-0.50067 -5.565077,2.77291 2.407042,-2.11819 -2.715141,1.61753 0.25033,-1.25166 2.09894,-0.65471 -2.195219,2.21447 5.06441,-2.7344 1.559762,1.03984 0.866534,3.46614 -8.723112,3.6587 7.201863,3.06176 1.88712,-3.36986 -4.313415,-4.73705 4.255646,3.19655 0.481406,-1.88712 4.968132,0.0193 1.290171,-2.84994 -3.427623,0.23108 2.156708,2.63811 -2.580346,-2.11819 3.196551,1.15538 0.11554,1.17463 h 1.00133 l -0.0193,1.07836 0.80876,-0.15405 0.077,3.13878 1.86786,-1.59828 -0.32736,1.6753 2.15671,0.11554 1.09761,-2.69588 7.18261,8.81939 -27.035877,23.14609 -11.014615,-14.48075 -5.160695,14.40373 -2.695885,-6.3931 61.312122,-6.54715 -14.09563,13.0943 -18.563088,-20.64277 -16.714486,20.64277 -8.78088,-11.01461 19.102268,-7.85658 -3.851264,0.23107 12.401068,-7.77955 -1.694556,3.23506 4.005318,-2.61886 -2.772912,25.57239 -7.086325,-19.02524 4.39044,-2.54183 -11.168666,-7.62551 1.309431,10.32139 -3.697213,0.46215 50.143455,13.94158 -8.85791,4.77557 -48.834023,-14.09563 -5.54582,6.16202 7.471452,7.85658 20.026572,-23.87784 -14.480752,-1.8486 17.407713,-3.62019 -4.236392,-6.54715 -9.705184,3.85127 6.084996,11.16866 -1.771581,-18.25499 6.084999,16.79151 -12.940247,1.69456 15.713157,-6.3931 -3.543165,-8.85791 -8.164677,12.01594 -2.31076,-5.54582 1.232406,29.26961 4.621516,-18.17797 4.159364,18.17797 22.568406,-23.56973 4.46747,23.56973 9.47411,-8.54981 -19.87252,8.70386 -15.096961,-20.1036 6.162021,2.00266 -4.005312,-3.38911 5.237722,1.92563 -17.869867,-12.63215 3.003986,31.96549 27.652071,-23.87783 2.46481,24.10891 11.16867,-11.78487 -18.25499,-12.24702 3.08101,-3.08101 -8.31873,-1.61753 7.85658,0.15405 -6.7012,-3.92829 -2.92696,3.92829 -2.07968,-3.38911 -1.46348,2.46481 -0.92431,-3.15804 -0.53918,2.84994 -17.022584,2.00266"
       inkscape:export-filename="/home/siqueira/Documents/Repositories/TA/OS/slides/vkms1/images/together.png"
       inkscape:export-xdpi="144.75999"
       inkscape:export-ydpi="144.75999" />
  </g>
</svg>
