<?xml version="1.0" encoding="UTF-8" standalone="no"?>
<!-- Created with Inkscape (http://www.inkscape.org/) -->

<svg
   xmlns:dc="http://purl.org/dc/elements/1.1/"
   xmlns:cc="http://creativecommons.org/ns#"
   xmlns:rdf="http://www.w3.org/1999/02/22-rdf-syntax-ns#"
   xmlns:svg="http://www.w3.org/2000/svg"
   xmlns="http://www.w3.org/2000/svg"
   xmlns:sodipodi="http://sodipodi.sourceforge.net/DTD/sodipodi-0.dtd"
   xmlns:inkscape="http://www.inkscape.org/namespaces/inkscape"
   width="210mm"
   height="297mm"
   viewBox="0 0 210 297"
   version="1.1"
   id="svg8"
   inkscape:version="0.92.2 2405546, 2018-03-11"
   sodipodi:docname="drm_subsystem_tux.svg">
  <defs
     id="defs2">
    <filter
       inkscape:collect="always"
       style="color-interpolation-filters:sRGB"
       id="filter1762"
       x="-0.011515385"
       width="1.0230308"
       y="-0.012527196"
       height="1.0250544">
      <feGaussianBlur
         inkscape:collect="always"
         stdDeviation="0.74877248"
         id="feGaussianBlur1764" />
    </filter>
    <filter
       inkscape:collect="always"
       style="color-interpolation-filters:sRGB"
       id="filter1766"
       x="-0.011607756"
       width="1.0232155"
       y="-0.012599923"
       height="1.0251998">
      <feGaussianBlur
         inkscape:collect="always"
         stdDeviation="0.74877248"
         id="feGaussianBlur1768" />
    </filter>
    <filter
       inkscape:collect="always"
       style="color-interpolation-filters:sRGB"
       id="filter1799"
       x="-0.052799987"
       width="1.1056"
       y="-0.006769231"
       height="1.0135385">
      <feGaussianBlur
         inkscape:collect="always"
         stdDeviation="0.29104167"
         id="feGaussianBlur1801" />
    </filter>
    <filter
       inkscape:collect="always"
       style="color-interpolation-filters:sRGB"
       id="filter9140"
       x="-0.010992633"
       width="1.0219853"
       y="-0.013210625"
       height="1.0264212">
      <feGaussianBlur
         inkscape:collect="always"
         stdDeviation="1.393155"
         id="feGaussianBlur9142" />
    </filter>
    <filter
       inkscape:collect="always"
       style="color-interpolation-filters:sRGB"
       id="filter9160"
       x="-0.069732276"
       width="1.1394646"
       y="-0.014494272"
       height="1.0289885">
      <feGaussianBlur
         inkscape:collect="always"
         stdDeviation="0.69736605"
         id="feGaussianBlur9162" />
    </filter>
    <filter
       inkscape:collect="always"
       style="color-interpolation-filters:sRGB"
       id="filter9174"
       x="-0.069732276"
       width="1.1394646"
       y="-0.014494272"
       height="1.0289885">
      <feGaussianBlur
         inkscape:collect="always"
         stdDeviation="0.69736605"
         id="feGaussianBlur9176" />
    </filter>
    <filter
       inkscape:collect="always"
       style="color-interpolation-filters:sRGB"
       id="filter9184"
       x="-0.13050006"
       width="1.2610001"
       y="-0.0062891565"
       height="1.0125783">
      <feGaussianBlur
         inkscape:collect="always"
         stdDeviation="0.20552455"
         id="feGaussianBlur9186" />
    </filter>
    <filter
       inkscape:collect="always"
       style="color-interpolation-filters:sRGB"
       id="filter9190"
       x="-0.052799988"
       width="1.1056"
       y="-0.006769231"
       height="1.0135385">
      <feGaussianBlur
         inkscape:collect="always"
         stdDeviation="0.29104168"
         id="feGaussianBlur9192" />
    </filter>
    <filter
       inkscape:collect="always"
       style="color-interpolation-filters:sRGB"
       id="filter9196"
       x="-0.056722787"
       width="1.1134456"
       y="-0.0067097402"
       height="1.0134195">
      <feGaussianBlur
         inkscape:collect="always"
         stdDeviation="0.29371438"
         id="feGaussianBlur9198" />
    </filter>
  </defs>
  <sodipodi:namedview
     id="base"
     pagecolor="#ffffff"
     bordercolor="#666666"
     borderopacity="1.0"
     inkscape:pageopacity="0.0"
     inkscape:pageshadow="2"
     inkscape:zoom="0.35"
     inkscape:cx="1984.2251"
     inkscape:cy="60.032751"
     inkscape:document-units="mm"
     inkscape:current-layer="layer1"
     showgrid="false"
     inkscape:window-width="1920"
     inkscape:window-height="1039"
     inkscape:window-x="1920"
     inkscape:window-y="0"
     inkscape:window-maximized="1"
     inkscape:object-nodes="false"
     showguides="false">
    <sodipodi:guide
       position="318.06696,204.29614"
       orientation="-0.70710678,0.70710678"
       id="guide1823"
       inkscape:locked="false" />
  </sodipodi:namedview>
  <metadata
     id="metadata5">
    <rdf:RDF>
      <cc:Work
         rdf:about="">
        <dc:format>image/svg+xml</dc:format>
        <dc:type
           rdf:resource="http://purl.org/dc/dcmitype/StillImage" />
        <dc:title></dc:title>
      </cc:Work>
    </rdf:RDF>
  </metadata>
  <g
     inkscape:label="Layer 1"
     inkscape:groupmode="layer"
     id="layer1">
    <path
       sodipodi:nodetypes="cccccc"
       inkscape:connector-curvature="0"
       id="path9194"
       d="m 432.21576,169.62202 0.189,9.07143 4.72469,21.54464 2.45686,30.61608 4.5357,23.43452 0.52111,20.39172"
       style="fill:none;stroke:#000000;stroke-width:2;stroke-linecap:butt;stroke-linejoin:miter;stroke-miterlimit:4;stroke-dasharray:none;stroke-opacity:1;filter:url(#filter9196)"
       inkscape:export-filename="/home/siqueira/Documents/Repositories/siqueira.xyz/images/icons/drm_a2c2.png"
       inkscape:export-xdpi="144.75999"
       inkscape:export-ydpi="144.75999" />
    <path
       inkscape:export-ydpi="144.75999"
       inkscape:export-xdpi="144.75999"
       inkscape:export-filename="/home/siqueira/Documents/Repositories/siqueira.xyz/images/icons/drm_a2c2.png"
       inkscape:connector-curvature="0"
       id="path9188"
       d="m 454.89433,186.25297 0.189,9.07143 4.72469,21.54464 2.45686,30.61608 4.5357,23.43452 1.32292,18.52083"
       style="fill:none;stroke:#000000;stroke-width:2;stroke-linecap:butt;stroke-linejoin:miter;stroke-opacity:1;stroke-miterlimit:4;stroke-dasharray:none;filter:url(#filter9190)" />
    <path
       inkscape:export-ydpi="144.75999"
       inkscape:export-xdpi="144.75999"
       inkscape:export-filename="/home/siqueira/Documents/Repositories/siqueira.xyz/images/icons/drm_a2c2.png"
       inkscape:connector-curvature="0"
       id="path9178"
       d="m 475.49404,206.85267 0.75594,18.70982 1.51191,20.41071 0.37798,23.05655 1.13393,11.33929 -0.37799,4.91369"
       style="fill:none;stroke:#000000;stroke-width:2;stroke-linecap:butt;stroke-linejoin:miter;stroke-opacity:1;stroke-miterlimit:4;stroke-dasharray:none;filter:url(#filter9184)" />
    <path
       inkscape:export-ydpi="144.75999"
       inkscape:export-xdpi="144.75999"
       inkscape:export-filename="/home/siqueira/Documents/Repositories/siqueira.xyz/images/icons/drm_a2c2.png"
       inkscape:connector-curvature="0"
       id="path9164"
       d="m 514.04762,182.09524 -8.88244,43.65625 -5.10267,27.40327 -6.04764,27.78125 -3.96874,16.63095"
       style="fill:none;stroke:#000000;stroke-width:2;stroke-linecap:butt;stroke-linejoin:miter;stroke-opacity:1;stroke-miterlimit:4;stroke-dasharray:none;filter:url(#filter9174)" />
    <path
       sodipodi:nodetypes="cccccccccccccccccccccccccsccccccccccccccccccccccccccccccccccccccccccccccccccccccccccccccccccccccccccccccccscccccccccccccccccccccccccccccccccccccccccccccccccccccccccccccccccccccc"
       inkscape:connector-curvature="0"
       id="path9138"
       d="m 327.48402,386.19016 2.33485,-8.76484 9.63128,7.15797 2.04301,-18.8444 18.38694,9.93347 3.94009,-26.87884 29.62344,33.45248 -19.70032,20.59735 18.38697,15.33848 -4.66971,11.83252 68.2945,50.68997 15.4684,-16.50711 -24.95376,-25.56412 -50.19934,42.07123 -36.62805,-18.55225 51.95051,-28.19353 52.68016,45.72321 -1.16744,-33.01421 -43.1948,33.89069 -60.70621,-6.7197 74.71535,-38.41918 5.39934,45.86927 -60.85215,-39.00349 -2.04298,39.14961 -8.46386,-31.99167 c 0,0 63.33294,32.86812 63.04107,31.11516 -0.29185,-1.75296 26.41305,-37.83485 26.41305,-37.83485 l 12.69576,31.11515 -102.58766,6.28146 -3.94006,-25.27194 105.3603,-0.87649 -22.47299,26.58667 -56.91207,-44.11634 4.96156,-9.34917 -13.86317,-7.59617 10.21496,-15.63063 -19.26254,-10.37171 25.53748,-23.22682 -8.7557,-46.01539 31.9583,-22.6425 -17.07362,-35.49759 34.87691,0.87648 10.3609,-33.59854 36.77395,49.66741 15.46843,-52.29685 20.13811,45.57715 24.60143,-21.36018 -5.59231,37.58551 27.59944,25.48586 -14.02076,34.354 32.73499,40.34206 -19.39809,22.12173 6.90138,12.51836 -72.13872,53.68676 -13.564,-25.15522 104.96526,-3.69784 1.18513,26.27678 -69.18776,-44.0986 -37.35767,40.02608 111.05884,-4.24066 -31.19326,10.42617 -74.74772,-31.50023 105.49587,10.41449 -53.20342,21.068 -37.73199,-40.52177 70.56409,1.61119 -48.95201,39.09946 -44.20898,-15.41367 56.91209,-31.84554 44.04657,13.07634 -30.01973,34.59603 9.37481,-56.49344 15.41529,-11.33808 -14.41884,-24.35267 34.84883,-34.6639 1.16741,23.66507 14.30099,-12.27076 1.16744,18.99046 9.05919,-7.99468 1.5655,9.71222 -17.50837,-6.37743 -2.16387,-21.05029 -19.81088,13.05863 -8.62014,-31.70073 -44.61868,-28.77358 -8.96207,12.94066 45.2024,4.69232 -11.96312,36.19253 27.46693,16.67091 -19.60448,18.40615 8.66719,21.67007 -15.08804,10.63879 6.76279,4.2113 15.4684,44.49408 7.58826,-31.93117 -76.12151,31.37922 -15.5215,-37.22243 89.0664,36.55256 9.87305,-16.39345 -44.94596,-30.38473 -61.51399,45.1994 79.0254,-47.24454 4.5635,-96.48104 -37.45479,-0.96208 27.08653,-38.34399 -27.53468,-46.6896 c 0,0 -33.01218,26.14969 -33.59591,24.68888 -0.58372,-1.46078 -20.32982,-45.26421 -20.32982,-45.26421 l -18.09513,40.61041 51.91512,-32.49773 16.87759,47.32707 27.26053,-4.50041 -139.68583,-31.80279 5.69122,28.19356 -33.12575,10.5178 28.45604,26.4406 -2.62671,21.32775 -41.29773,4.38243 -10.94465,34.62111 -16.78175,-14.90023 -0.14594,22.20425 -15.90618,-8.61874 -1.60523,14.75414 -7.58826,-4.38243 76.6124,-24.10328 -18.24104,-26.73276 49.32377,-7.30402 -42.61108,-14.02375 30.20717,-22.49641 -9.48534,-31.40734 37.35768,8.03445 16.63584,-34.18287 16.34397,56.3871 -9.92312,24.2494 -9.76684,-9.00383 33.97322,-5.68982 -11.65656,-9.55575 -19.45122,21.23916 30.24993,-4.00164 -31.52051,-16.36101 24.03238,22.33994 4.05362,-22.13336 -14.36874,24.62712 12.8417,26.58666 -23.64042,1.75296 -10.79868,-22.49641 35.45325,-2.14537 11.24382,10.91021 -41.15179,9.05699 -10.21499,-14.60805 52.53419,-0.87648 -28.60194,27.75529 -9.92314,-33.89069 16.92771,34.18287 -9.04758,-36.52016 23.34854,22.49641 1.45929,-16.6532 -42.31924,11.68646 38.23325,6.7197 -8.17199,-22.78856 -15.17655,30.38476 15.4684,-1.16863 -7.88014,-53.4655 -16.49723,7.32174 35.07289,3.57378 -34.62778,-8.26608 33.25396,0.13566 -26.49117,18.54488 -0.0501,-25.40029 6.71272,25.12585 -0.8756,-24.24937 17.51141,22.49641 -13.71729,-23.66507 51.4346,-41.05599 36.46439,64.65016 -33.49271,20.469 97.11749,53.89337"
       style="fill:none;fill-rule:evenodd;stroke:#000000;stroke-width:3;stroke-linecap:round;stroke-linejoin:round;stroke-miterlimit:4;stroke-dasharray:none;stroke-opacity:1;filter:url(#filter9140)"
       inkscape:export-filename="/home/siqueira/Documents/Repositories/siqueira.xyz/images/icons/drm_a2c2.png"
       inkscape:export-xdpi="144.75999"
       inkscape:export-ydpi="144.75999" />
    <path
       inkscape:connector-curvature="0"
       id="path1839"
       d="m 550.33333,156.39286 -8.88244,43.65625 -5.10267,27.40327 -6.04764,27.78125 -3.96874,16.63095"
       style="fill:none;stroke:#000000;stroke-width:3;stroke-linecap:butt;stroke-linejoin:miter;stroke-opacity:1;stroke-miterlimit:4;stroke-dasharray:none;filter:url(#filter9160)"
       inkscape:export-filename="/home/siqueira/Documents/Repositories/siqueira.xyz/images/icons/drm_a2c2.png"
       inkscape:export-xdpi="144.75999"
       inkscape:export-ydpi="144.75999" />
    <path
       inkscape:connector-curvature="0"
       id="path1797"
       d="m 432.21576,169.62202 0.189,9.07143 4.72469,21.54464 2.45686,30.61608 4.5357,23.43452 1.32292,18.52083"
       style="fill:none;stroke:#000000;stroke-width:0.26458332px;stroke-linecap:butt;stroke-linejoin:miter;stroke-opacity:1;filter:url(#filter1799)"
       inkscape:export-filename="/home/siqueira/Documents/Repositories/siqueira.xyz/images/icons/drm_a2c2.png"
       inkscape:export-xdpi="144.75999"
       inkscape:export-ydpi="144.75999" />
    <path
       inkscape:connector-curvature="0"
       id="path1750"
       d="m 431.57752,171.79055 3.31154,-7.03805 -10.55556,4.55404 3.72549,-16.14615 6.62311,16.56014 -6.83008,1.44902 -12.62528,-41.81436 81.33993,-55.476471 -10.14161,-6.210053 -46.98261,25.047214 44.91288,28.56625 -17.59261,24.8402 18.4205,24.84021 -19.04141,14.69712 15.52289,17.59514 -9.93465,6.41706 -7.45098,-9.93609 19.24837,-15.11112 -16.35076,-16.35313 19.66232,-13.66212 -22.35297,-24.84021 19.66234,-22.35618 -38.70373,-23.598213 19.45534,-13.455108 40.77345,21.735177 -18.42049,45.126384 27.73423,-11.38509 -11.79741,27.32423 14.0741,23.80521 -8.69282,7.65905 -9.10676,-9.31507 22.7669,-14.90412 -20.69718,-16.97415 4.34641,-30.22226 -51.12205,-37.881319 -11.17648,12.834102 40.56649,26.703237 -18.21352,23.59819 20.49021,7.03806 -19.45536,14.49013 16.97169,16.97415 -18.83443,16.56013 12.21133,15.31812 5.38127,-13.04111 -17.5926,-61.68651 24.00873,-66.447564 10.14161,13.041106 -55.67542,39.330338 21.3181,15.11112 -21.52507,18.63016 21.3181,18.42317 -12.00437,13.24809 11.17648,6.83106 -1.65577,-33.94827 -16.14381,7.03805 19.66233,11.7991 -8.0719,13.0411 4.55338,3.31204 2.48366,-7.45206 -15.93683,-8.07308 14.695,-14.49011 -19.45536,-18.21615 19.24839,-14.90413 -29.59698,-25.04721 64.36824,-27.324238 h -46.77563 l 60.2288,44.712378 -8.27888,25.04722 20.07629,7.45206 -21.73205,9.52209 13.86712,15.73212 -11.38347,4.14003 -3.72548,-4.76105 21.3181,-11.59208 -19.45536,-8.69407 21.11114,-15.11113 -31.04579,-6.62405 17.38564,-38.709332 -1.03486,18.423152 11.38345,-3.31204 -6.00219,9.31509 12.21134,-0.82801 -5.79521,8.48708 13.45317,-0.62101 -10.14161,9.31509 19.0414,-2.48403 20.07628,18.21616 4.34641,-7.65907 -9.31375,-7.45206 -13.45317,17.38814 -7.244,-24.0122 -11.59043,15.11112 -2.06972,-6.62405 11.79739,-9.72908 -0.62091,21.73518 15.52288,-14.28312 17.38565,10.97109 -11.38346,6.62405 -8.27888,-18.21614 -8.48583,16.35313 -1.24184,-20.70018 -9.10676,15.93914 -0.20696,-25.87521 -11.79741,2.07002 4.55339,-9.10809 -14.0741,-3.10503 -13.03921,-44.919374 -4.96733,-3.519027 -52.98479,33.120278 26.07845,21.942193 -18.42049,14.90412 20.69718,16.35313 -18.21353,14.49013 19.2484,11.59209 -5.79523,13.86913 4.55339,-1.86303 -13.66015,-8.07307 13.45317,-15.11111 -20.69717,-18.21616 20.28323,-16.76715 -21.73204,-15.93912 6.83007,-37.053326 53.19176,5.796059 -38.49676,38.088317 21.3181,12.83411 -18.4205,17.80215 19.8693,11.3851 -19.66232,13.66212 16.55774,10.55708 -18.21352,15.52513 3.93247,4.55404 13.03922,-10.3501 -17.17865,-9.93608 21.73204,-29.80824 -21.11113,-17.18115 18.83443,-15.11113 -22.55992,-13.8691 14.28104,-45.540397 13.24621,70.380597 6.20915,-66.033562 1.03487,69.138592 10.9695,-26.08222 15.5229,34.56928 -22.76692,19.45817 12.00438,14.28312 9.5207,-20.28617 -1.4488,-32.49927 -34.77128,-1.65601 24.42269,-9.10808 -25.25056,-2.69102 26.69936,-14.49014 -76.37261,-1.035 8.27887,22.35618 -8.69282,12.00611 -22.76689,-1.44902 15.10894,9.52208 -15.10894,13.04111 20.90415,2.27703 -3.51852,11.59209 5.1743,-3.72602 v -5.79606 l -14.48804,4.14004 6.62311,-13.66211 -15.31593,-4.34703 16.14382,-8.69408 -6.41613,-18.00916 18.21352,13.24812 4.13943,-3.72604 -16.97169,-14.69712 65.81705,-46.9894"
       style="fill:none;stroke:#000000;stroke-width:2;stroke-linecap:round;stroke-linejoin:round;stroke-miterlimit:4;stroke-dasharray:none;stroke-opacity:1;filter:url(#filter1762)"
       inkscape:export-filename="/home/siqueira/Documents/Repositories/siqueira.xyz/images/icons/drm_a2c2.png"
       inkscape:export-xdpi="144.75999"
       inkscape:export-ydpi="144.75999" />
    <path
       inkscape:connector-curvature="0"
       id="path1752"
       d="m 473.59279,68.910677 -61.47062,70.794603 23.59478,25.25421 -18.62747,-1.86301 11.17649,-20.28618 -15.31592,-10.97109 30.42486,3.10503 -13.03922,-24.63322 52.1569,-42.228351 17.79958,14.28312 -37.25494,36.639321 22.14599,13.4551 -18.00654,18.42317 17.5926,23.59819 -9.93465,35.39729 -10.14162,-13.24811 21.11112,-56.92547 -32.49457,-62.721535 6.41612,-3.933034 57.3312,37.674319 -4.34641,11.3851 11.17648,-1.86302 -4.55337,8.69407 11.79739,-1.656 -7.86492,8.48706 16.35076,0.621 9.93465,21.32118 13.24621,-16.35313 4.13943,4.34704 -7.65797,11.5921 -4.96732,-16.76714 -6.83007,16.56013 -2.27669,-18.42315 -7.45098,16.56014 -1.24183,-22.14919 h -14.48803 l 9.72767,19.45817 27.32029,3.93304 -91.68853,-86.733747 -29.18302,26.289231 23.59478,20.907176 -17.38563,12.8341 20.90415,16.14613 -20.69719,16.35315 20.28325,12.2131 -8.0719,13.6621 7.03704,2.07002 -15.72985,-16.56013 17.17865,-34.36229 -21.3181,-52.578444 35.3922,-19.458162 16.55774,72.864616 27.11331,12.8341 -15.72986,32.08527 -6.20915,-18.42314 18.00654,-36.63931 -20.28324,12.00609 -0.20697,-64.37754 -51.12205,4.554045 36.42705,36.639305 -17.17867,45.9544 15.52289,33.12026"
       style="fill:none;stroke:#000000;stroke-width:2;stroke-linecap:round;stroke-linejoin:round;stroke-miterlimit:4;stroke-dasharray:none;stroke-opacity:1;filter:url(#filter1766)"
       inkscape:export-filename="/home/siqueira/Documents/Repositories/siqueira.xyz/images/icons/drm_a2c2.png"
       inkscape:export-xdpi="144.75999"
       inkscape:export-ydpi="144.75999" />
    <path
       style="fill:none;stroke:#000000;stroke-width:2;stroke-linecap:round;stroke-linejoin:round;stroke-miterlimit:4;stroke-dasharray:none;stroke-opacity:1"
       d="m 431.57752,171.79055 3.31154,-7.03805 -10.55556,4.55404 3.72549,-16.14615 6.62311,16.56014 -6.83008,1.44902 -12.62528,-41.81436 81.33993,-55.476471 -10.14161,-6.210053 -46.98261,25.047214 44.91288,28.56625 -17.59261,24.8402 18.4205,24.84021 -19.04141,14.69712 15.52289,17.59514 -9.93465,6.41706 -7.45098,-9.93609 19.24837,-15.11112 -16.35076,-16.35313 19.66232,-13.66212 -22.35297,-24.84021 19.66234,-22.35618 -38.70373,-23.598213 19.45534,-13.455108 40.77345,21.735177 -18.42049,45.126384 27.73423,-11.38509 -11.79741,27.32423 14.0741,23.80521 -8.69282,7.65905 -9.10676,-9.31507 22.7669,-14.90412 -20.69718,-16.97415 4.34641,-30.22226 -51.12205,-37.881319 -11.17648,12.834102 40.56649,26.703237 -18.21352,23.59819 20.49021,7.03806 -19.45536,14.49013 16.97169,16.97415 -18.83443,16.56013 12.21133,15.31812 5.38127,-13.04111 -17.5926,-61.68651 24.00873,-66.447564 10.14161,13.041106 -55.67542,39.330338 21.3181,15.11112 -21.52507,18.63016 21.3181,18.42317 -12.00437,13.24809 11.17648,6.83106 -1.65577,-33.94827 -16.14381,7.03805 19.66233,11.7991 -8.0719,13.0411 4.55338,3.31204 2.48366,-7.45206 -15.93683,-8.07308 14.695,-14.49011 -19.45536,-18.21615 19.24839,-14.90413 -29.59698,-25.04721 64.36824,-27.324238 h -46.77563 l 60.2288,44.712378 -8.27888,25.04722 20.07629,7.45206 -21.73205,9.52209 13.86712,15.73212 -11.38347,4.14003 -3.72548,-4.76105 21.3181,-11.59208 -19.45536,-8.69407 21.11114,-15.11113 -31.04579,-6.62405 17.38564,-38.709332 -1.03486,18.423152 11.38345,-3.31204 -6.00219,9.31509 12.21134,-0.82801 -5.79521,8.48708 13.45317,-0.62101 -10.14161,9.31509 19.0414,-2.48403 20.07628,18.21616 4.34641,-7.65907 -9.31375,-7.45206 -13.45317,17.38814 -7.244,-24.0122 -11.59043,15.11112 -2.06972,-6.62405 11.79739,-9.72908 -0.62091,21.73518 15.52288,-14.28312 17.38565,10.97109 -11.38346,6.62405 -8.27888,-18.21614 -8.48583,16.35313 -1.24184,-20.70018 -9.10676,15.93914 -0.20696,-25.87521 -11.79741,2.07002 4.55339,-9.10809 -14.0741,-3.10503 -13.03921,-44.919374 -4.96733,-3.519027 -52.98479,33.120278 26.07845,21.942193 -18.42049,14.90412 20.69718,16.35313 -18.21353,14.49013 19.2484,11.59209 -5.79523,13.86913 4.55339,-1.86303 -13.66015,-8.07307 13.45317,-15.11111 -20.69717,-18.21616 20.28323,-16.76715 -21.73204,-15.93912 6.83007,-37.053326 53.19176,5.796059 -38.49676,38.088317 21.3181,12.83411 -18.4205,17.80215 19.8693,11.3851 -19.66232,13.66212 16.55774,10.55708 -18.21352,15.52513 3.93247,4.55404 13.03922,-10.3501 -17.17865,-9.93608 21.73204,-29.80824 -21.11113,-17.18115 18.83443,-15.11113 -22.55992,-13.8691 14.28104,-45.540397 13.24621,70.380597 6.20915,-66.033562 1.03487,69.138592 10.9695,-26.08222 15.5229,34.56928 -22.76692,19.45817 12.00438,14.28312 9.5207,-20.28617 -1.4488,-32.49927 -34.77128,-1.65601 24.42269,-9.10808 -25.25056,-2.69102 26.69936,-14.49014 -76.37261,-1.035 8.27887,22.35618 -8.69282,12.00611 -22.76689,-1.44902 15.10894,9.52208 -15.10894,13.04111 20.90415,2.27703 -3.51852,11.59209 5.1743,-3.72602 v -5.79606 l -14.48804,4.14004 6.62311,-13.66211 -15.31593,-4.34703 16.14382,-8.69408 -6.41613,-18.00916 18.21352,13.24812 4.13943,-3.72604 -16.97169,-14.69712 65.81705,-46.9894"
       id="path1746"
       inkscape:connector-curvature="0"
       inkscape:export-filename="/home/siqueira/Documents/Repositories/siqueira.xyz/images/icons/drm_a2c2.png"
       inkscape:export-xdpi="144.75999"
       inkscape:export-ydpi="144.75999" />
    <path
       style="fill:none;stroke:#000000;stroke-width:2;stroke-linecap:round;stroke-linejoin:round;stroke-miterlimit:4;stroke-dasharray:none;stroke-opacity:1"
       d="m 473.59279,68.910677 -61.47062,70.794603 23.59478,25.25421 -18.62747,-1.86301 11.17649,-20.28618 -15.31592,-10.97109 30.42486,3.10503 -13.03922,-24.63322 52.1569,-42.228351 17.79958,14.28312 -37.25494,36.639321 22.14599,13.4551 -18.00654,18.42317 17.5926,23.59819 -9.93465,35.39729 -10.14162,-13.24811 21.11112,-56.92547 -32.49457,-62.721535 6.41612,-3.933034 57.3312,37.674319 -4.34641,11.3851 11.17648,-1.86302 -4.55337,8.69407 11.79739,-1.656 -7.86492,8.48706 16.35076,0.621 9.93465,21.32118 13.24621,-16.35313 4.13943,4.34704 -7.65797,11.5921 -4.96732,-16.76714 -6.83007,16.56013 -2.27669,-18.42315 -7.45098,16.56014 -1.24183,-22.14919 h -14.48803 l 9.72767,19.45817 27.32029,3.93304 -91.68853,-86.733747 -29.18302,26.289231 23.59478,20.907176 -17.38563,12.8341 20.90415,16.14613 -20.69719,16.35315 20.28325,12.2131 -8.0719,13.6621 7.03704,2.07002 -15.72985,-16.56013 17.17865,-34.36229 -21.3181,-52.578444 35.3922,-19.458162 16.55774,72.864616 27.11331,12.8341 -15.72986,32.08527 -6.20915,-18.42314 18.00654,-36.63931 -20.28324,12.00609 -0.20697,-64.37754 -51.12205,4.554045 36.42705,36.639305 -17.17867,45.9544 15.52289,33.12026"
       id="path1748"
       inkscape:connector-curvature="0"
       inkscape:export-filename="/home/siqueira/Documents/Repositories/siqueira.xyz/images/icons/drm_a2c2.png"
       inkscape:export-xdpi="144.75999"
       inkscape:export-ydpi="144.75999" />
    <path
       style="fill:none;stroke:#000000;stroke-width:2;stroke-linecap:butt;stroke-linejoin:miter;stroke-opacity:1;stroke-miterlimit:4;stroke-dasharray:none"
       d="m 454.89433,186.25297 0.189,9.07143 4.72469,21.54464 2.45686,30.61608 4.5357,23.43452 1.32292,18.52083"
       id="path1795"
       inkscape:connector-curvature="0"
       inkscape:export-filename="/home/siqueira/Documents/Repositories/siqueira.xyz/images/icons/drm_a2c2.png"
       inkscape:export-xdpi="144.75999"
       inkscape:export-ydpi="144.75999" />
    <path
       style="fill:none;stroke:#000000;stroke-width:2;stroke-linecap:butt;stroke-linejoin:miter;stroke-opacity:1;stroke-miterlimit:4;stroke-dasharray:none"
       d="m 475.49404,206.85267 0.75594,18.70982 1.51191,20.41071 0.37798,23.05655 1.13393,11.33929 -0.37799,4.91369"
       id="path1811"
       inkscape:connector-curvature="0"
       inkscape:export-filename="/home/siqueira/Documents/Repositories/siqueira.xyz/images/icons/drm_a2c2.png"
       inkscape:export-xdpi="144.75999"
       inkscape:export-ydpi="144.75999" />
    <path
       style="fill:none;stroke:#000000;stroke-width:2;stroke-linecap:butt;stroke-linejoin:miter;stroke-opacity:1;stroke-miterlimit:4;stroke-dasharray:none"
       d="m 514.04762,182.09524 -8.88244,43.65625 -5.10267,27.40327 -6.04764,27.78125 -3.96874,16.63095"
       id="path1837"
       inkscape:connector-curvature="0"
       inkscape:export-filename="/home/siqueira/Documents/Repositories/siqueira.xyz/images/icons/drm_a2c2.png"
       inkscape:export-xdpi="144.75999"
       inkscape:export-ydpi="144.75999" />
    <path
       style="fill:none;fill-rule:evenodd;stroke:#000000;stroke-width:3;stroke-linecap:round;stroke-linejoin:round;stroke-miterlimit:4;stroke-dasharray:none;stroke-opacity:1"
       d="m 327.48402,386.19016 2.33485,-8.76484 9.63128,7.15797 2.04301,-18.8444 18.38694,9.93347 3.94009,-26.87884 29.62344,33.45248 -19.70032,20.59735 18.38697,15.33848 -4.66971,11.83252 68.2945,50.68997 15.4684,-16.50711 -24.95376,-25.56412 -50.19934,42.07123 -36.62805,-18.55225 51.95051,-28.19353 52.68016,45.72321 -1.16744,-33.01421 -43.1948,33.89069 -60.70621,-6.7197 74.71535,-38.41918 5.39934,45.86927 -60.85215,-39.00349 -2.04298,39.14961 -8.46386,-31.99167 c 0,0 63.33294,32.86812 63.04107,31.11516 -0.29185,-1.75296 26.41305,-37.83485 26.41305,-37.83485 l 12.69576,31.11515 -102.58766,6.28146 -3.94006,-25.27194 105.3603,-0.87649 -22.47299,26.58667 -56.91207,-44.11634 4.96156,-9.34917 -13.86317,-7.59617 10.21496,-15.63063 -19.26254,-10.37171 25.53748,-23.22682 -8.7557,-46.01539 31.9583,-22.6425 -17.07362,-35.49759 34.87691,0.87648 10.3609,-33.59854 36.77395,49.66741 15.46843,-52.29685 20.13811,45.57715 24.60143,-21.36018 -5.59231,37.58551 27.59944,25.48586 -14.02076,34.354 32.73499,40.34206 -19.39809,22.12173 6.90138,12.51836 -72.13872,53.68676 -13.564,-25.15522 104.96526,-3.69784 1.18513,26.27678 -69.18776,-44.0986 -37.35767,40.02608 111.05884,-4.24066 -31.19326,10.42617 -74.74772,-31.50023 105.49587,10.41449 -53.20342,21.068 -37.73199,-40.52177 70.56409,1.61119 -48.95201,39.09946 -44.20898,-15.41367 56.91209,-31.84554 44.04657,13.07634 -30.01973,34.59603 9.37481,-56.49344 15.41529,-11.33808 -14.41884,-24.35267 34.84883,-34.6639 1.16741,23.66507 14.30099,-12.27076 1.16744,18.99046 9.05919,-7.99468 1.5655,9.71222 -17.50837,-6.37743 -2.16387,-21.05029 -19.81088,13.05863 -8.62014,-31.70073 -44.61868,-28.77358 -8.96207,12.94066 45.2024,4.69232 -11.96312,36.19253 27.46693,16.67091 -19.60448,18.40615 8.66719,21.67007 -15.08804,10.63879 6.76279,4.2113 15.4684,44.49408 7.58826,-31.93117 -76.12151,31.37922 -15.5215,-37.22243 89.0664,36.55256 9.87305,-16.39345 -44.94596,-30.38473 -61.51399,45.1994 79.0254,-47.24454 4.5635,-96.48104 -37.45479,-0.96208 27.08653,-38.34399 -27.53468,-46.6896 c 0,0 -33.01218,26.14969 -33.59591,24.68888 -0.58372,-1.46078 -20.32982,-45.26421 -20.32982,-45.26421 l -18.09513,40.61041 51.91512,-32.49773 16.87759,47.32707 27.26053,-4.50041 -139.68583,-31.80279 5.69122,28.19356 -33.12575,10.5178 28.45604,26.4406 -2.62671,21.32775 -41.29773,4.38243 -10.94465,34.62111 -16.78175,-14.90023 -0.14594,22.20425 -15.90618,-8.61874 -1.60523,14.75414 -7.58826,-4.38243 76.6124,-24.10328 -18.24104,-26.73276 49.32377,-7.30402 -42.61108,-14.02375 30.20717,-22.49641 -9.48534,-31.40734 37.35768,8.03445 16.63584,-34.18287 16.34397,56.3871 -9.92312,24.2494 -9.76684,-9.00383 33.97322,-5.68982 -11.65656,-9.55575 -19.45122,21.23916 30.24993,-4.00164 -31.52051,-16.36101 24.03238,22.33994 4.05362,-22.13336 -14.36874,24.62712 12.8417,26.58666 -23.64042,1.75296 -10.79868,-22.49641 35.45325,-2.14537 11.24382,10.91021 -41.15179,9.05699 -10.21499,-14.60805 52.53419,-0.87648 -28.60194,27.75529 -9.92314,-33.89069 16.92771,34.18287 -9.04758,-36.52016 23.34854,22.49641 1.45929,-16.6532 -42.31924,11.68646 38.23325,6.7197 -8.17199,-22.78856 -15.17655,30.38476 15.4684,-1.16863 -7.88014,-53.4655 -16.49723,7.32174 35.07289,3.57378 -34.62778,-8.26608 33.25396,0.13566 -26.49117,18.54488 -0.0501,-25.40029 6.71272,25.12585 -0.8756,-24.24937 17.51141,22.49641 -13.71729,-23.66507 51.4346,-41.05599 36.46439,64.65016 -33.49271,20.469 97.11749,53.89337"
       id="path4281"
       inkscape:connector-curvature="0"
       sodipodi:nodetypes="cccccccccccccccccccccccccsccccccccccccccccccccccccccccccccccccccccccccccccccccccccccccccccccccccccccccccccscccccccccccccccccccccccccccccccccccccccccccccccccccccccccccccccccccccc"
       inkscape:export-filename="/home/siqueira/Documents/Repositories/siqueira.xyz/images/icons/drm_a2c2.png"
       inkscape:export-xdpi="144.75999"
       inkscape:export-ydpi="144.75999" />
    <path
       inkscape:export-ydpi="144.75999"
       inkscape:export-xdpi="144.75999"
       inkscape:export-filename="/home/siqueira/Documents/Repositories/siqueira.xyz/images/icons/drm_a2c2.png"
       style="fill:none;stroke:#000000;stroke-width:2;stroke-linecap:butt;stroke-linejoin:miter;stroke-miterlimit:4;stroke-dasharray:none;stroke-opacity:1"
       d="m 432.21576,169.62202 0.189,9.07143 4.72469,21.54464 2.45686,30.61608 4.5357,23.43452 0.52111,20.39172"
       id="path9144"
       inkscape:connector-curvature="0"
       sodipodi:nodetypes="cccccc" />
    <path
       inkscape:export-ydpi="144.75999"
       inkscape:export-xdpi="144.75999"
       inkscape:export-filename="/home/siqueira/Documents/Repositories/siqueira.xyz/images/icons/drm_a2c2.png"
       style="fill:none;stroke:#000000;stroke-width:2;stroke-linecap:butt;stroke-linejoin:miter;stroke-opacity:1;stroke-miterlimit:4;stroke-dasharray:none"
       d="m 550.33333,156.39286 -8.88244,43.65625 -5.10267,27.40327 -6.04764,27.78125 -3.96874,16.63095"
       id="path9146"
       inkscape:connector-curvature="0" />
  </g>
</svg>
