<?xml version="1.0" encoding="UTF-8" standalone="no"?>
<!-- Created with Inkscape (http://www.inkscape.org/) -->

<svg
   xmlns:dc="http://purl.org/dc/elements/1.1/"
   xmlns:cc="http://creativecommons.org/ns#"
   xmlns:rdf="http://www.w3.org/1999/02/22-rdf-syntax-ns#"
   xmlns:svg="http://www.w3.org/2000/svg"
   xmlns="http://www.w3.org/2000/svg"
   xmlns:sodipodi="http://sodipodi.sourceforge.net/DTD/sodipodi-0.dtd"
   xmlns:inkscape="http://www.inkscape.org/namespaces/inkscape"
   width="210mm"
   height="297mm"
   viewBox="0 0 210 297"
   version="1.1"
   id="svg8"
   inkscape:version="0.92.3 (2405546, 2018-03-11)"
   sodipodi:docname="subsystem_others.svg">
  <defs
     id="defs2">
    <filter
       inkscape:collect="always"
       style="color-interpolation-filters:sRGB"
       id="filter1762"
       x="-0.011515385"
       width="1.0230308"
       y="-0.012527196"
       height="1.0250544">
      <feGaussianBlur
         inkscape:collect="always"
         stdDeviation="0.74877248"
         id="feGaussianBlur1764" />
    </filter>
    <filter
       inkscape:collect="always"
       style="color-interpolation-filters:sRGB"
       id="filter1766"
       x="-0.011607756"
       width="1.0232155"
       y="-0.012599923"
       height="1.0251998">
      <feGaussianBlur
         inkscape:collect="always"
         stdDeviation="0.74877248"
         id="feGaussianBlur1768" />
    </filter>
    <filter
       inkscape:collect="always"
       style="color-interpolation-filters:sRGB"
       id="filter1799"
       x="-0.052799987"
       width="1.1056"
       y="-0.006769231"
       height="1.0135385">
      <feGaussianBlur
         inkscape:collect="always"
         stdDeviation="0.29104167"
         id="feGaussianBlur1801" />
    </filter>
    <filter
       inkscape:collect="always"
       style="color-interpolation-filters:sRGB"
       id="filter9160"
       x="-0.069732276"
       width="1.1394646"
       y="-0.014494272"
       height="1.0289885">
      <feGaussianBlur
         inkscape:collect="always"
         stdDeviation="0.69736605"
         id="feGaussianBlur9162" />
    </filter>
    <filter
       inkscape:collect="always"
       style="color-interpolation-filters:sRGB"
       id="filter9174"
       x="-0.069732276"
       width="1.1394646"
       y="-0.014494272"
       height="1.0289885">
      <feGaussianBlur
         inkscape:collect="always"
         stdDeviation="0.69736605"
         id="feGaussianBlur9176" />
    </filter>
    <filter
       inkscape:collect="always"
       style="color-interpolation-filters:sRGB"
       id="filter9184"
       x="-0.13050006"
       width="1.2610001"
       y="-0.0062891565"
       height="1.0125783">
      <feGaussianBlur
         inkscape:collect="always"
         stdDeviation="0.20552455"
         id="feGaussianBlur9186" />
    </filter>
    <filter
       inkscape:collect="always"
       style="color-interpolation-filters:sRGB"
       id="filter9190"
       x="-0.052799988"
       width="1.1056"
       y="-0.006769231"
       height="1.0135385">
      <feGaussianBlur
         inkscape:collect="always"
         stdDeviation="0.29104168"
         id="feGaussianBlur9192" />
    </filter>
    <filter
       inkscape:collect="always"
       style="color-interpolation-filters:sRGB"
       id="filter9196"
       x="-0.056722787"
       width="1.1134456"
       y="-0.0067097402"
       height="1.0134195">
      <feGaussianBlur
         inkscape:collect="always"
         stdDeviation="0.29371438"
         id="feGaussianBlur9198" />
    </filter>
    <filter
       height="1.0669654"
       y="-0.033482691"
       width="1.0682259"
       x="-0.034112938"
       id="filter2608"
       style="color-interpolation-filters:sRGB"
       inkscape:collect="always">
      <feGaussianBlur
         id="feGaussianBlur2610"
         stdDeviation="0.38748733"
         inkscape:collect="always" />
    </filter>
    <filter
       height="1.0691701"
       y="-0.034585035"
       width="1.0678931"
       x="-0.033946535"
       id="filter2612"
       style="color-interpolation-filters:sRGB"
       inkscape:collect="always">
      <feGaussianBlur
         id="feGaussianBlur2614"
         stdDeviation="0.38748733"
         inkscape:collect="always" />
    </filter>
    <filter
       height="1.068562"
       y="-0.034280992"
       width="1.0689014"
       x="-0.034450681"
       id="filter2616"
       style="color-interpolation-filters:sRGB"
       inkscape:collect="always">
      <feGaussianBlur
         id="feGaussianBlur2618"
         stdDeviation="0.38748733"
         inkscape:collect="always" />
    </filter>
  </defs>
  <sodipodi:namedview
     id="base"
     pagecolor="#ffffff"
     bordercolor="#666666"
     borderopacity="1.0"
     inkscape:pageopacity="0.0"
     inkscape:pageshadow="2"
     inkscape:zoom="0.24748737"
     inkscape:cx="888.22312"
     inkscape:cy="-156.1221"
     inkscape:document-units="mm"
     inkscape:current-layer="layer1"
     showgrid="false"
     inkscape:window-width="1920"
     inkscape:window-height="1039"
     inkscape:window-x="0"
     inkscape:window-y="0"
     inkscape:window-maximized="1"
     inkscape:object-nodes="false"
     showguides="false">
    <sodipodi:guide
       position="318.06696,204.29614"
       orientation="-0.70710678,0.70710678"
       id="guide1823"
       inkscape:locked="false" />
  </sodipodi:namedview>
  <metadata
     id="metadata5">
    <rdf:RDF>
      <cc:Work
         rdf:about="">
        <dc:format>image/svg+xml</dc:format>
        <dc:type
           rdf:resource="http://purl.org/dc/dcmitype/StillImage" />
        <dc:title />
      </cc:Work>
    </rdf:RDF>
  </metadata>
  <g
     inkscape:label="Layer 1"
     inkscape:groupmode="layer"
     id="layer1">
    <path
       sodipodi:nodetypes="cccccc"
       inkscape:connector-curvature="0"
       id="path9194"
       d="m 53.762109,131.13521 0.189,9.07143 4.72469,21.54464 2.45686,30.61608 4.5357,23.43452 0.52111,20.39172"
       style="fill:none;stroke:#000000;stroke-width:2;stroke-linecap:butt;stroke-linejoin:miter;stroke-miterlimit:4;stroke-dasharray:none;stroke-opacity:1;filter:url(#filter9196)"
       inkscape:export-filename="/home/siqueira/Documents/Repositories/siqueira.tech/images/icons/subsystem_other_a2c.png"
       inkscape:export-xdpi="144.75999"
       inkscape:export-ydpi="144.75999" />
    <path
       inkscape:export-ydpi="144.75999"
       inkscape:export-xdpi="144.75999"
       inkscape:export-filename="/home/siqueira/Documents/Repositories/siqueira.tech/images/icons/subsystem_other_a2c.png"
       inkscape:connector-curvature="0"
       id="path9188"
       d="m 76.440679,147.76616 0.189,9.07143 4.72469,21.54464 2.45686,30.61608 4.5357,23.43452 1.32292,18.52083"
       style="fill:none;stroke:#000000;stroke-width:2;stroke-linecap:butt;stroke-linejoin:miter;stroke-miterlimit:4;stroke-dasharray:none;stroke-opacity:1;filter:url(#filter9190)" />
    <path
       inkscape:export-ydpi="144.75999"
       inkscape:export-xdpi="144.75999"
       inkscape:export-filename="/home/siqueira/Documents/Repositories/siqueira.tech/images/icons/subsystem_other_a2c.png"
       inkscape:connector-curvature="0"
       id="path9178"
       d="m 97.040389,168.36586 0.75594,18.70982 1.51191,20.41071 0.37798,23.05655 1.133931,11.33929 -0.37799,4.91369"
       style="fill:none;stroke:#000000;stroke-width:2;stroke-linecap:butt;stroke-linejoin:miter;stroke-miterlimit:4;stroke-dasharray:none;stroke-opacity:1;filter:url(#filter9184)" />
    <path
       inkscape:export-ydpi="144.75999"
       inkscape:export-xdpi="144.75999"
       inkscape:export-filename="/home/siqueira/Documents/Repositories/siqueira.tech/images/icons/subsystem_other_a2c.png"
       inkscape:connector-curvature="0"
       id="path9164"
       d="m 135.59397,143.60843 -8.88244,43.65625 -5.10267,27.40327 -6.04764,27.78125 -3.96874,16.63095"
       style="fill:none;stroke:#000000;stroke-width:2;stroke-linecap:butt;stroke-linejoin:miter;stroke-miterlimit:4;stroke-dasharray:none;stroke-opacity:1;filter:url(#filter9174)" />
    <path
       inkscape:connector-curvature="0"
       id="path1839"
       d="m 171.87968,117.90605 -8.88244,43.65625 -5.10267,27.40327 -6.04764,27.78125 -3.96874,16.63095"
       style="fill:none;stroke:#000000;stroke-width:3;stroke-linecap:butt;stroke-linejoin:miter;stroke-miterlimit:4;stroke-dasharray:none;stroke-opacity:1;filter:url(#filter9160)"
       inkscape:export-filename="/home/siqueira/Documents/Repositories/siqueira.tech/images/icons/subsystem_other_a2c.png"
       inkscape:export-xdpi="144.75999"
       inkscape:export-ydpi="144.75999" />
    <path
       inkscape:connector-curvature="0"
       id="path1797"
       d="m 53.762109,131.13521 0.189,9.07143 4.72469,21.54464 2.45686,30.61608 4.5357,23.43452 1.32292,18.52083"
       style="fill:none;stroke:#000000;stroke-width:0.26458332px;stroke-linecap:butt;stroke-linejoin:miter;stroke-opacity:1;filter:url(#filter1799)"
       inkscape:export-filename="/home/siqueira/Documents/Repositories/siqueira.tech/images/icons/subsystem_other_a2c.png"
       inkscape:export-xdpi="144.75999"
       inkscape:export-ydpi="144.75999" />
    <path
       inkscape:connector-curvature="0"
       id="path1750"
       d="m 53.123869,133.30374 3.31154,-7.03805 -10.55556,4.55404 3.72549,-16.14615 6.62311,16.56014 -6.83008,1.44902 -12.62528,-41.814362 81.339931,-55.476471 -10.14161,-6.210053 -46.982611,25.047214 44.912881,28.56625 -17.592611,24.840202 18.420501,24.84021 -19.041411,14.69712 15.522891,17.59514 -9.934651,6.41706 -7.45098,-9.93609 L 105.07379,146.13784 88.723029,129.78471 108.38535,116.12259 86.032379,91.282378 105.69472,68.926198 66.990989,45.327985 l 19.45534,-13.455108 40.773451,21.735177 -18.42049,45.126384 27.73423,-11.38509 -11.79741,27.324232 14.0741,23.80521 -8.69282,7.65905 -9.10676,-9.31507 22.7669,-14.90412 -20.69718,-16.97415 4.34641,-30.222262 -51.122051,-37.881319 -11.17648,12.834102 40.566491,26.703237 -18.213521,23.59819 20.490211,7.038062 -19.455361,14.49013 16.971691,16.97415 -18.834431,16.56013 12.21133,15.31812 5.381271,-13.04111 -17.592601,-61.686512 24.008731,-66.447564 10.14161,13.041106 -55.675421,39.330338 21.3181,15.11112 -21.52507,18.630162 21.3181,18.42317 -12.00437,13.24809 11.17648,6.83106 -1.65577,-33.94827 -16.14381,7.03805 19.66233,11.7991 -8.0719,13.0411 4.55338,3.31204 2.48366,-7.45206 -15.93683,-8.07308 14.695,-14.49011 L 65.542169,106.80752 84.790559,91.903388 55.193579,66.856178 119.56182,39.53194 H 72.786189 l 60.228801,44.712378 -8.27888,25.047222 20.07629,7.45206 -21.73205,9.52209 13.86712,15.73212 -11.38347,4.14003 -3.72548,-4.76105 21.3181,-11.59208 -19.45536,-8.69407 21.11114,-15.11113 -31.04579,-6.624052 17.38564,-38.709332 -1.03486,18.423152 11.38345,-3.31204 -6.00219,9.31509 12.21134,-0.82801 -5.79521,8.48708 13.45317,-0.62101 -10.14161,9.315092 19.0414,-2.484032 20.07628,18.216162 4.34641,-7.65907 -9.31375,-7.45206 -13.45317,17.38814 -7.244,-24.012202 -11.59043,15.111122 -2.06972,-6.62405 11.79739,-9.729082 -0.62091,21.735182 15.52288,-14.28312 17.38565,10.97109 -11.38346,6.62405 -8.27888,-18.21614 -8.48583,16.35313 -1.24184,-20.700182 -9.10676,15.939142 -0.20696,-25.875212 -11.79741,2.07002 4.55339,-9.10809 -14.0741,-3.10503 -13.03921,-44.919374 -4.96733,-3.519027 -52.984791,33.120278 26.07845,21.942193 -18.42049,14.90412 20.69718,16.353132 -18.21353,14.49013 19.2484,11.59209 -5.79523,13.86913 4.55339,-1.86303 -13.66015,-8.07307 13.45317,-15.11111 -20.69717,-18.21616 20.28323,-16.767152 -21.73204,-15.93912 6.83007,-37.053326 53.191761,5.796059 -38.496761,38.088317 21.318101,12.83411 -18.420501,17.802152 19.869301,11.3851 -19.662321,13.66212 16.557741,10.55708 -18.213521,15.52513 3.93247,4.55404 13.039221,-10.3501 -17.178651,-9.93608 21.732041,-29.80824 -21.111131,-17.18115 18.834431,-15.111132 -22.559921,-13.8691 14.28104,-45.540397 13.246211,70.380599 6.20915,-66.033564 1.03487,69.138594 10.9695,-26.082222 15.5229,34.569282 -22.76692,19.45817 12.00438,14.28312 9.5207,-20.28617 -1.4488,-32.499272 -34.77128,-1.65601 24.42269,-9.10808 -25.25056,-2.69102 26.69936,-14.49014 -76.372611,-1.035 8.27887,22.35618 -8.69282,12.00611 -22.76689,-1.44902 15.10894,9.522082 -15.10894,13.04111 20.90415,2.27703 -3.51852,11.59209 5.1743,-3.72602 v -5.79606 l -14.48804,4.14004 6.62311,-13.66211 -15.31593,-4.34703 16.14382,-8.69408 -6.41613,-18.009162 18.21352,13.24812 4.13943,-3.72604 -16.97169,-14.69712 65.817051,-46.9894"
       style="fill:none;stroke:#000000;stroke-width:2;stroke-linecap:round;stroke-linejoin:round;stroke-miterlimit:4;stroke-dasharray:none;stroke-opacity:1;filter:url(#filter1762)"
       inkscape:export-filename="/home/siqueira/Documents/Repositories/siqueira.tech/images/icons/subsystem_other_a2c.png"
       inkscape:export-xdpi="144.75999"
       inkscape:export-ydpi="144.75999" />
    <path
       inkscape:connector-curvature="0"
       id="path1752"
       d="m 95.139139,30.423865 -61.47062,70.794605 23.59478,25.25421 -18.62747,-1.86301 11.17649,-20.28618 -15.31592,-10.971092 30.42486,3.10503 -13.03922,-24.63322 52.156901,-42.228351 17.79958,14.28312 -37.254941,36.639321 22.145991,13.4551 -18.006541,18.423172 17.592601,23.59819 -9.934651,35.39729 -10.14162,-13.24811 21.111121,-56.92547 -32.494571,-62.721537 6.41612,-3.933034 57.331201,37.674319 -4.34641,11.3851 11.17648,-1.86302 -4.55337,8.69407 11.79739,-1.656 -7.86492,8.48706 16.35076,0.621 9.93465,21.321182 13.24621,-16.35313 4.13943,4.34704 -7.65797,11.5921 -4.96732,-16.76714 -6.83007,16.56013 -2.27669,-18.42315 -7.45098,16.56014 -1.24183,-22.149192 h -14.48803 l 9.72767,19.458172 27.32029,3.93304 -91.688531,-86.733749 -29.18302,26.289231 23.59478,20.907176 -17.38563,12.8341 20.90415,16.146132 -20.69719,16.35315 20.28325,12.2131 -8.0719,13.6621 7.03704,2.07002 -15.72985,-16.56013 17.17865,-34.36229 -21.3181,-52.578446 35.392201,-19.458162 16.55774,72.864618 27.11331,12.8341 -15.72986,32.08527 -6.20915,-18.42314 18.00654,-36.639312 -20.28324,12.006092 -0.20697,-64.377542 -51.122051,4.554045 36.427051,36.639305 -17.178671,45.954402 15.522891,33.12026"
       style="fill:none;stroke:#000000;stroke-width:2;stroke-linecap:round;stroke-linejoin:round;stroke-miterlimit:4;stroke-dasharray:none;stroke-opacity:1;filter:url(#filter1766)"
       inkscape:export-filename="/home/siqueira/Documents/Repositories/siqueira.tech/images/icons/subsystem_other_a2c.png"
       inkscape:export-xdpi="144.75999"
       inkscape:export-ydpi="144.75999" />
    <path
       style="fill:none;stroke:#000000;stroke-width:2;stroke-linecap:round;stroke-linejoin:round;stroke-miterlimit:4;stroke-dasharray:none;stroke-opacity:1"
       d="m 53.123869,133.30374 3.31154,-7.03805 -10.55556,4.55404 3.72549,-16.14615 6.62311,16.56014 -6.83008,1.44902 -12.62528,-41.814362 81.339931,-55.476471 -10.14161,-6.210053 -46.982611,25.047214 44.912881,28.56625 -17.592611,24.840202 18.420501,24.84021 -19.041411,14.69712 15.522891,17.59514 -9.934651,6.41706 -7.45098,-9.93609 L 105.07379,146.13784 88.723029,129.78471 108.38535,116.12259 86.032379,91.282378 105.69472,68.926198 66.990989,45.327985 l 19.45534,-13.455108 40.773451,21.735177 -18.42049,45.126384 27.73423,-11.38509 -11.79741,27.324232 14.0741,23.80521 -8.69282,7.65905 -9.10676,-9.31507 22.7669,-14.90412 -20.69718,-16.97415 4.34641,-30.222262 -51.122051,-37.881319 -11.17648,12.834102 40.566491,26.703237 -18.213521,23.59819 20.490211,7.038062 -19.455361,14.49013 16.971691,16.97415 -18.834431,16.56013 12.21133,15.31812 5.381271,-13.04111 -17.592601,-61.686512 24.008731,-66.447564 10.14161,13.041106 -55.675421,39.330338 21.3181,15.11112 -21.52507,18.630162 21.3181,18.42317 -12.00437,13.24809 11.17648,6.83106 -1.65577,-33.94827 -16.14381,7.03805 19.66233,11.7991 -8.0719,13.0411 4.55338,3.31204 2.48366,-7.45206 -15.93683,-8.07308 14.695,-14.49011 L 65.542169,106.80752 84.790559,91.903388 55.193579,66.856178 119.56182,39.53194 H 72.786189 l 60.228801,44.712378 -8.27888,25.047222 20.07629,7.45206 -21.73205,9.52209 13.86712,15.73212 -11.38347,4.14003 -3.72548,-4.76105 21.3181,-11.59208 -19.45536,-8.69407 21.11114,-15.11113 -31.04579,-6.624052 17.38564,-38.709332 -1.03486,18.423152 11.38345,-3.31204 -6.00219,9.31509 12.21134,-0.82801 -5.79521,8.48708 13.45317,-0.62101 -10.14161,9.315092 19.0414,-2.484032 20.07628,18.216162 4.34641,-7.65907 -9.31375,-7.45206 -13.45317,17.38814 -7.244,-24.012202 -11.59043,15.111122 -2.06972,-6.62405 11.79739,-9.729082 -0.62091,21.735182 15.52288,-14.28312 17.38565,10.97109 -11.38346,6.62405 -8.27888,-18.21614 -8.48583,16.35313 -1.24184,-20.700182 -9.10676,15.939142 -0.20696,-25.875212 -11.79741,2.07002 4.55339,-9.10809 -14.0741,-3.10503 -13.03921,-44.919374 -4.96733,-3.519027 -52.984791,33.120278 26.07845,21.942193 -18.42049,14.90412 20.69718,16.353132 -18.21353,14.49013 19.2484,11.59209 -5.79523,13.86913 4.55339,-1.86303 -13.66015,-8.07307 13.45317,-15.11111 -20.69717,-18.21616 20.28323,-16.767152 -21.73204,-15.93912 6.83007,-37.053326 53.191761,5.796059 -38.496761,38.088317 21.318101,12.83411 -18.420501,17.802152 19.869301,11.3851 -19.662321,13.66212 16.557741,10.55708 -18.213521,15.52513 3.93247,4.55404 13.039221,-10.3501 -17.178651,-9.93608 21.732041,-29.80824 -21.111131,-17.18115 18.834431,-15.111132 -22.559921,-13.8691 14.28104,-45.540397 13.246211,70.380599 6.20915,-66.033564 1.03487,69.138594 10.9695,-26.082222 15.5229,34.569282 -22.76692,19.45817 12.00438,14.28312 9.5207,-20.28617 -1.4488,-32.499272 -34.77128,-1.65601 24.42269,-9.10808 -25.25056,-2.69102 26.69936,-14.49014 -76.372611,-1.035 8.27887,22.35618 -8.69282,12.00611 -22.76689,-1.44902 15.10894,9.522082 -15.10894,13.04111 20.90415,2.27703 -3.51852,11.59209 5.1743,-3.72602 v -5.79606 l -14.48804,4.14004 6.62311,-13.66211 -15.31593,-4.34703 16.14382,-8.69408 -6.41613,-18.009162 18.21352,13.24812 4.13943,-3.72604 -16.97169,-14.69712 65.817051,-46.9894"
       id="path1746"
       inkscape:connector-curvature="0"
       inkscape:export-filename="/home/siqueira/Documents/Repositories/siqueira.tech/images/icons/subsystem_other_a2c.png"
       inkscape:export-xdpi="144.75999"
       inkscape:export-ydpi="144.75999" />
    <path
       style="fill:none;stroke:#000000;stroke-width:2;stroke-linecap:round;stroke-linejoin:round;stroke-miterlimit:4;stroke-dasharray:none;stroke-opacity:1"
       d="m 95.139139,30.423865 -61.47062,70.794605 23.59478,25.25421 -18.62747,-1.86301 11.17649,-20.28618 -15.31592,-10.971092 30.42486,3.10503 -13.03922,-24.63322 52.156901,-42.228351 17.79958,14.28312 -37.254941,36.639321 22.145991,13.4551 -18.006541,18.423172 17.592601,23.59819 -9.934651,35.39729 -10.14162,-13.24811 21.111121,-56.92547 -32.494571,-62.721537 6.41612,-3.933034 57.331201,37.674319 -4.34641,11.3851 11.17648,-1.86302 -4.55337,8.69407 11.79739,-1.656 -7.86492,8.48706 16.35076,0.621 9.93465,21.321182 13.24621,-16.35313 4.13943,4.34704 -7.65797,11.5921 -4.96732,-16.76714 -6.83007,16.56013 -2.27669,-18.42315 -7.45098,16.56014 -1.24183,-22.149192 h -14.48803 l 9.72767,19.458172 27.32029,3.93304 -91.688531,-86.733749 -29.18302,26.289231 23.59478,20.907176 -17.38563,12.8341 20.90415,16.146132 -20.69719,16.35315 20.28325,12.2131 -8.0719,13.6621 7.03704,2.07002 -15.72985,-16.56013 17.17865,-34.36229 -21.3181,-52.578446 35.392201,-19.458162 16.55774,72.864618 27.11331,12.8341 -15.72986,32.08527 -6.20915,-18.42314 18.00654,-36.639312 -20.28324,12.006092 -0.20697,-64.377542 -51.122051,4.554045 36.427051,36.639305 -17.178671,45.954402 15.522891,33.12026"
       id="path1748"
       inkscape:connector-curvature="0"
       inkscape:export-filename="/home/siqueira/Documents/Repositories/siqueira.tech/images/icons/subsystem_other_a2c.png"
       inkscape:export-xdpi="144.75999"
       inkscape:export-ydpi="144.75999" />
    <path
       style="fill:none;stroke:#000000;stroke-width:2;stroke-linecap:butt;stroke-linejoin:miter;stroke-miterlimit:4;stroke-dasharray:none;stroke-opacity:1"
       d="m 76.440679,147.76616 0.189,9.07143 4.72469,21.54464 2.45686,30.61608 4.5357,23.43452 1.32292,18.52083"
       id="path1795"
       inkscape:connector-curvature="0"
       inkscape:export-filename="/home/siqueira/Documents/Repositories/siqueira.tech/images/icons/subsystem_other_a2c.png"
       inkscape:export-xdpi="144.75999"
       inkscape:export-ydpi="144.75999" />
    <path
       style="fill:none;stroke:#000000;stroke-width:2;stroke-linecap:butt;stroke-linejoin:miter;stroke-miterlimit:4;stroke-dasharray:none;stroke-opacity:1"
       d="m 97.040389,168.36586 0.75594,18.70982 1.51191,20.41071 0.37798,23.05655 1.133931,11.33929 -0.37799,4.91369"
       id="path1811"
       inkscape:connector-curvature="0"
       inkscape:export-filename="/home/siqueira/Documents/Repositories/siqueira.tech/images/icons/subsystem_other_a2c.png"
       inkscape:export-xdpi="144.75999"
       inkscape:export-ydpi="144.75999" />
    <path
       style="fill:none;stroke:#000000;stroke-width:2;stroke-linecap:butt;stroke-linejoin:miter;stroke-miterlimit:4;stroke-dasharray:none;stroke-opacity:1"
       d="m 135.59397,143.60843 -8.88244,43.65625 -5.10267,27.40327 -6.04764,27.78125 -3.96874,16.63095"
       id="path1837"
       inkscape:connector-curvature="0"
       inkscape:export-filename="/home/siqueira/Documents/Repositories/siqueira.tech/images/icons/subsystem_other_a2c.png"
       inkscape:export-xdpi="144.75999"
       inkscape:export-ydpi="144.75999" />
    <path
       inkscape:export-ydpi="144.75999"
       inkscape:export-xdpi="144.75999"
       inkscape:export-filename="/home/siqueira/Documents/Repositories/siqueira.tech/images/icons/subsystem_other_a2c.png"
       style="fill:none;stroke:#000000;stroke-width:2;stroke-linecap:butt;stroke-linejoin:miter;stroke-miterlimit:4;stroke-dasharray:none;stroke-opacity:1"
       d="m 53.762109,131.13521 0.189,9.07143 4.72469,21.54464 2.45686,30.61608 4.5357,23.43452 0.52111,20.39172"
       id="path9144"
       inkscape:connector-curvature="0"
       sodipodi:nodetypes="cccccc" />
    <path
       inkscape:export-ydpi="144.75999"
       inkscape:export-xdpi="144.75999"
       inkscape:export-filename="/home/siqueira/Documents/Repositories/siqueira.tech/images/icons/subsystem_other_a2c.png"
       style="fill:none;stroke:#000000;stroke-width:2;stroke-linecap:butt;stroke-linejoin:miter;stroke-miterlimit:4;stroke-dasharray:none;stroke-opacity:1"
       d="m 171.87968,117.90605 -8.88244,43.65625 -5.10267,27.40327 -6.04764,27.78125 -3.96874,16.63095"
       id="path9146"
       inkscape:connector-curvature="0" />
    <path
       inkscape:connector-curvature="0"
       id="path2602"
       d="m 55.283429,259.97947 20.57975,-17.10525 -17.37251,-4.81085 -8.8199,12.02713 c 0,0 13.09621,16.03617 13.36348,13.63074 0.26727,-2.40542 2.40543,-27.52876 2.40543,-27.52876 l 9.35443,21.64883 -22.98518,-14.69982 25.12334,6.94901 -25.39061,6.68173 20.04521,5.07813 4.81085,-17.37252"
       style="fill:none;stroke:#000000;stroke-width:2;stroke-linecap:round;stroke-linejoin:miter;stroke-miterlimit:4;stroke-dasharray:none;stroke-opacity:1;filter:url(#filter2608)"
       inkscape:export-filename="/home/siqueira/Documents/Repositories/siqueira.tech/images/icons/subsystem_other_a2c.png"
       inkscape:export-xdpi="144.75999"
       inkscape:export-ydpi="144.75999" />
    <path
       inkscape:connector-curvature="0"
       id="path2604"
       d="m 114.68279,253.68683 -22.851541,13.36348 4.81085,-23.11881 17.907061,17.63978 -8.28536,8.28536 -18.708871,-12.2944 16.437081,-14.29892 8.68626,5.61266 c 0,0 -13.898021,22.18337 -14.298921,21.24793 -0.40091,-0.93545 -8.55263,-20.71339 -8.55263,-20.71339 l 25.123341,8.41899 -19.644311,10.95805 13.363481,-23.78699"
       style="fill:none;stroke:#000000;stroke-width:2;stroke-linecap:round;stroke-linejoin:miter;stroke-miterlimit:4;stroke-dasharray:none;stroke-opacity:1;filter:url(#filter2612)"
       inkscape:export-filename="/home/siqueira/Documents/Repositories/siqueira.tech/images/icons/subsystem_other_a2c.png"
       inkscape:export-xdpi="144.75999"
       inkscape:export-ydpi="144.75999" />
    <path
       inkscape:connector-curvature="0"
       id="path2606"
       d="m 142.17356,234.01634 15.23437,2.40542 -19.77795,19.37704 14.03165,3.47451 9.35444,-10.69078 -16.83798,-15.368 -10.15625,13.09621 11.75986,13.63074 14.69983,-17.63979 -10.95805,-9.48806 -13.49712,5.74629 22.04974,17.10525 -22.317,-2.6727 17.77342,-18.8425"
       style="fill:none;stroke:#000000;stroke-width:2;stroke-linecap:round;stroke-linejoin:miter;stroke-miterlimit:4;stroke-dasharray:none;stroke-opacity:1;filter:url(#filter2616)"
       inkscape:export-filename="/home/siqueira/Documents/Repositories/siqueira.tech/images/icons/subsystem_other_a2c.png"
       inkscape:export-xdpi="144.75999"
       inkscape:export-ydpi="144.75999" />
    <path
       style="fill:none;stroke:#000000;stroke-width:2;stroke-linecap:round;stroke-linejoin:miter;stroke-miterlimit:4;stroke-dasharray:none;stroke-opacity:1"
       d="m 55.283429,259.97947 20.57975,-17.10525 -17.37251,-4.81085 -8.8199,12.02713 c 0,0 13.09621,16.03617 13.36348,13.63074 0.26727,-2.40542 2.40543,-27.52876 2.40543,-27.52876 l 9.35443,21.64883 -22.98518,-14.69982 25.12334,6.94901 -25.39061,6.68173 20.04521,5.07813 4.81085,-17.37252"
       id="path2596"
       inkscape:connector-curvature="0"
       inkscape:export-filename="/home/siqueira/Documents/Repositories/siqueira.tech/images/icons/subsystem_other_a2c.png"
       inkscape:export-xdpi="144.75999"
       inkscape:export-ydpi="144.75999" />
    <path
       style="fill:none;stroke:#000000;stroke-width:2;stroke-linecap:round;stroke-linejoin:miter;stroke-miterlimit:4;stroke-dasharray:none;stroke-opacity:1"
       d="m 114.68279,253.68683 -22.851541,13.36348 4.81085,-23.11881 17.907061,17.63978 -8.28536,8.28536 -18.708871,-12.2944 16.437081,-14.29892 8.68626,5.61266 c 0,0 -13.898021,22.18337 -14.298921,21.24793 -0.40091,-0.93545 -8.55263,-20.71339 -8.55263,-20.71339 l 25.123341,8.41899 -19.644311,10.95805 13.363481,-23.78699"
       id="path2598"
       inkscape:connector-curvature="0"
       inkscape:export-filename="/home/siqueira/Documents/Repositories/siqueira.tech/images/icons/subsystem_other_a2c.png"
       inkscape:export-xdpi="144.75999"
       inkscape:export-ydpi="144.75999" />
    <path
       style="fill:none;stroke:#000000;stroke-width:2;stroke-linecap:round;stroke-linejoin:miter;stroke-miterlimit:4;stroke-dasharray:none;stroke-opacity:1"
       d="m 142.17356,234.01634 15.23437,2.40542 -19.77795,19.37704 14.03165,3.47451 9.35444,-10.69078 -16.83798,-15.368 -10.15625,13.09621 11.75986,13.63074 14.69983,-17.63979 -10.95805,-9.48806 -13.49712,5.74629 22.04974,17.10525 -22.317,-2.6727 17.77342,-18.8425"
       id="path2600"
       inkscape:connector-curvature="0"
       inkscape:export-filename="/home/siqueira/Documents/Repositories/siqueira.tech/images/icons/subsystem_other_a2c.png"
       inkscape:export-xdpi="144.75999"
       inkscape:export-ydpi="144.75999" />
  </g>
</svg>
