<?xml version="1.0" encoding="UTF-8" standalone="no"?>
<!-- Created with Inkscape (http://www.inkscape.org/) -->

<svg
   xmlns:dc="http://purl.org/dc/elements/1.1/"
   xmlns:cc="http://creativecommons.org/ns#"
   xmlns:rdf="http://www.w3.org/1999/02/22-rdf-syntax-ns#"
   xmlns:svg="http://www.w3.org/2000/svg"
   xmlns="http://www.w3.org/2000/svg"
   xmlns:sodipodi="http://sodipodi.sourceforge.net/DTD/sodipodi-0.dtd"
   xmlns:inkscape="http://www.inkscape.org/namespaces/inkscape"
   width="210mm"
   height="297mm"
   viewBox="0 0 210 297"
   version="1.1"
   id="svg1012"
   inkscape:version="0.92.3 (2405546, 2018-03-11)"
   sodipodi:docname="custom_ellipse.svg">
  <defs
     id="defs1006">
    <filter
       inkscape:collect="always"
       style="color-interpolation-filters:sRGB"
       id="filter1645"
       x="-0.0084305004"
       width="1.016861"
       y="-0.020811765"
       height="1.0416235">
      <feGaussianBlur
         inkscape:collect="always"
         stdDeviation="0.59099974"
         id="feGaussianBlur1647" />
    </filter>
  </defs>
  <sodipodi:namedview
     id="base"
     pagecolor="#ffffff"
     bordercolor="#666666"
     borderopacity="1.0"
     inkscape:pageopacity="0.0"
     inkscape:pageshadow="2"
     inkscape:zoom="0.12374369"
     inkscape:cx="-3339.3779"
     inkscape:cy="-924.00022"
     inkscape:document-units="mm"
     inkscape:current-layer="layer1"
     showgrid="false"
     inkscape:window-width="1920"
     inkscape:window-height="1039"
     inkscape:window-x="0"
     inkscape:window-y="0"
     inkscape:window-maximized="1" />
  <metadata
     id="metadata1009">
    <rdf:RDF>
      <cc:Work
         rdf:about="">
        <dc:format>image/svg+xml</dc:format>
        <dc:type
           rdf:resource="http://purl.org/dc/dcmitype/StillImage" />
        <dc:title />
      </cc:Work>
    </rdf:RDF>
  </metadata>
  <g
     inkscape:label="Layer 1"
     inkscape:groupmode="layer"
     id="layer1">
    <g
       id="g1651"
       transform="translate(245.88796,113.32228)">
      <path
         style="fill:none;stroke:#000000;stroke-width:1;stroke-linecap:round;stroke-linejoin:round;stroke-miterlimit:4;stroke-dasharray:none;stroke-opacity:1;filter:url(#filter1645)"
         d="m -182.94599,7.9480057 19.37704,0.8018084 18.70887,-5.6126599 16.57071,3.2072342 8.55262,-3.7417733 14.69983,4.4099473 16.169804,-1.6036174 24.989699,11.626224 4.409948,13.898017 6.280833,9.621702 -8.819893,5.078122 -5.879931,10.958049 -11.225318,0.133636 -11.358957,10.022607 -22.450635,0.400904 -11.35896,3.207235 -17.10525,-4.009044 -13.49711,3.875408 -13.22984,-6.1472 -22.85154,2.405425 -10.55715,-10.557144 -15.90254,-5.879931 1.87089,-12.962572 -3.87541,-7.61718 9.48807,-5.345391 4.27631,-6.548104 14.83346,-3.474503 13.89801,-7.6171817 14.29893,-2.1381563 16.97161,2.271791 16.30344,-4.2763124 15.90254,4.5435818 10.69078,-3.6081385 22.985178,9.8889721 5.879928,-2.672695 4.276312,8.151721 11.49259,4.009043 -2.806329,5.479024 7.34991,0.935445 -5.479023,4.677216 6.548101,3.340868 -7.34991,3.608138 -1.202714,11.626226 -6.1472,-0.801809 -5.879928,7.617182 -10.557147,-0.668174 -9.888971,8.552625 -6.280835,-2.004521 -4.677222,3.608136 -13.49711,-2.00452 -11.75985,3.875408 -6.41447,-3.073599 -6.01357,2.539061 -10.69078,-3.875408 -12.6953,3.741772 -11.09168,-6.414468 -8.68627,4.009043 -4.94448,-5.746295 -10.42351,1.870888 -4.14268,-9.755338 -9.48807,0.668173 1.73725,-8.15172 -8.15172,-2.939965 5.7463,-9.087165 -2.00452,-8.285354 10.55714,-4.677217 7.34991,-7.216277 14.16529,-2.004522 10.69078,-6.681738 10.55715,3.0735997 11.35895,-5.3453905 16.16981,3.7417732 12.6953,-4.5435818"
         id="path1643"
         inkscape:connector-curvature="0" />
      <path
         inkscape:connector-curvature="0"
         id="path1641"
         d="m -182.94599,7.9480057 19.37704,0.8018084 18.70887,-5.6126599 16.57071,3.2072342 8.55262,-3.7417733 14.69983,4.4099473 16.169804,-1.6036174 24.989699,11.626224 4.409948,13.898017 6.280833,9.621702 -8.819893,5.078122 -5.879931,10.958049 -11.225318,0.133636 -11.358957,10.022607 -22.450635,0.400904 -11.35896,3.207235 -17.10525,-4.009044 -13.49711,3.875408 -13.22984,-6.1472 -22.85154,2.405425 -10.55715,-10.557144 -15.90254,-5.879931 1.87089,-12.962572 -3.87541,-7.61718 9.48807,-5.345391 4.27631,-6.548104 14.83346,-3.474503 13.89801,-7.6171817 14.29893,-2.1381563 16.97161,2.271791 16.30344,-4.2763124 15.90254,4.5435818 10.69078,-3.6081385 22.985178,9.8889721 5.879928,-2.672695 4.276312,8.151721 11.49259,4.009043 -2.806329,5.479024 7.34991,0.935445 -5.479023,4.677216 6.548101,3.340868 -7.34991,3.608138 -1.202714,11.626226 -6.1472,-0.801809 -5.879928,7.617182 -10.557147,-0.668174 -9.888971,8.552625 -6.280835,-2.004521 -4.677222,3.608136 -13.49711,-2.00452 -11.75985,3.875408 -6.41447,-3.073599 -6.01357,2.539061 -10.69078,-3.875408 -12.6953,3.741772 -11.09168,-6.414468 -8.68627,4.009043 -4.94448,-5.746295 -10.42351,1.870888 -4.14268,-9.755338 -9.48807,0.668173 1.73725,-8.15172 -8.15172,-2.939965 5.7463,-9.087165 -2.00452,-8.285354 10.55714,-4.677217 7.34991,-7.216277 14.16529,-2.004522 10.69078,-6.681738 10.55715,3.0735997 11.35895,-5.3453905 16.16981,3.7417732 12.6953,-4.5435818"
         style="fill:none;stroke:#000000;stroke-width:1;stroke-linecap:round;stroke-linejoin:round;stroke-miterlimit:4;stroke-dasharray:none;stroke-opacity:1" />
    </g>
  </g>
</svg>
