<?xml version="1.0" encoding="UTF-8" standalone="no"?>
<!-- Created with Inkscape (http://www.inkscape.org/) -->

<svg
   xmlns:dc="http://purl.org/dc/elements/1.1/"
   xmlns:cc="http://creativecommons.org/ns#"
   xmlns:rdf="http://www.w3.org/1999/02/22-rdf-syntax-ns#"
   xmlns:svg="http://www.w3.org/2000/svg"
   xmlns="http://www.w3.org/2000/svg"
   xmlns:sodipodi="http://sodipodi.sourceforge.net/DTD/sodipodi-0.dtd"
   xmlns:inkscape="http://www.inkscape.org/namespaces/inkscape"
   width="210mm"
   height="297mm"
   viewBox="0 0 210 297"
   version="1.1"
   id="svg8"
   inkscape:version="0.92.2 2405546, 2018-03-11"
   sodipodi:docname="line.svg">
  <defs
     id="defs2">
    <filter
       inkscape:collect="always"
       style="color-interpolation-filters:sRGB"
       id="filter859"
       x="-0.0062241087"
       width="1.0124482"
       y="-0.16663634"
       height="1.3332727">
      <feGaussianBlur
         inkscape:collect="always"
         stdDeviation="0.45039852"
         id="feGaussianBlur861" />
    </filter>
  </defs>
  <sodipodi:namedview
     id="base"
     pagecolor="#ffffff"
     bordercolor="#666666"
     borderopacity="1.0"
     inkscape:pageopacity="0.0"
     inkscape:pageshadow="2"
     inkscape:zoom="1.9035006"
     inkscape:cx="-1064.8408"
     inkscape:cy="739.10213"
     inkscape:document-units="mm"
     inkscape:current-layer="layer1"
     showgrid="false"
     inkscape:snap-nodes="false"
     inkscape:window-width="1920"
     inkscape:window-height="1039"
     inkscape:window-x="0"
     inkscape:window-y="0"
     inkscape:window-maximized="1" />
  <metadata
     id="metadata5">
    <rdf:RDF>
      <cc:Work
         rdf:about="">
        <dc:format>image/svg+xml</dc:format>
        <dc:type
           rdf:resource="http://purl.org/dc/dcmitype/StillImage" />
        <dc:title></dc:title>
      </cc:Work>
    </rdf:RDF>
  </metadata>
  <g
     inkscape:label="Layer 1"
     inkscape:groupmode="layer"
     id="layer1">
    <path
       inkscape:connector-curvature="0"
       id="path857"
       d="m -345.87066,80.376253 9.14066,-5.8972 7.56807,6.093772 8.64923,-5.995485 7.37147,5.995485 8.25609,-5.897197 7.66635,5.897197 7.56809,-6.093772 7.27321,6.093772 6.68348,-5.995485 7.3715,5.995485 5.8972,-5.995485 7.46978,5.995485 5.60234,-5.897197 6.5852,5.897197 6.88007,-5.897197 6.97835,5.897197 5.70063,-5.897197 6.48691,5.995484 5.20919,-6.093772 6.19206,5.897198 4.71776,-5.79891 6.68349,5.79891 4.61947,-6.09377 6.48692,6.290344 4.71776,-5.798912 5.79891,5.504053 0.0983,-5.700625 -4.81605,6.093772 -7.17492,-6.19206 -5.11091,6.093772 -5.40576,-5.798912 -5.20919,5.700625 -5.70063,-5.897197 -5.40576,5.897197 -6.58521,-5.995485 -5.20919,5.995485 -6.09377,-5.897197 -6.38863,5.897197 -6.38863,-5.79891 -6.78178,5.700623 -6.88006,-5.995485 -6.38864,6.093772 -6.5852,-5.995485 -6.48692,6.093772 -7.66635,-6.192059 -6.88007,6.093772 -6.68348,-6.093772 -8.55096,6.093772 -7.46977,-6.192057 -8.64923,6.192057 -7.07663,-5.897197 -9.82866,5.79891 -8.25608,-5.79891 3.53832,5.79891 10.71325,-5.995485 7.17492,6.093772 7.86291,-5.79891 7.46979,5.897197 8.25609,-6.093772 7.27321,5.995485 8.0595,-5.897197 7.07662,5.897197 6.68351,-5.79891 6.68348,5.79891 6.58521,-5.995485 7.07664,5.995485 6.97835,-5.995485 5.40577,5.995485 6.68349,-5.995485 6.09377,5.995485 5.8972,-5.995485 6.68349,5.995485 5.79891,-6.093772 5.30748,6.192059 4.91433,-5.995484 5.8972,5.995484 5.20919,-6.192059 6.48692,6.093772 5.1109,-6.093772 2.55546,2.948601 -2.35888,3.341746 -6.97836,-6.093772 -4.22632,5.897197 -6.29034,-6.192057 -4.32462,6.09377 -6.78177,-6.192057 -4.22633,6.388631 -7.27321,-6.192059 -5.20919,5.995485 -6.19206,-5.897198 -5.50405,5.897198 -6.48692,-5.897198 -6.88007,6.19206 -6.97835,-6.19206 -6.29034,5.995485 -6.88006,-5.79891 -6.78177,5.897197 -6.97836,-5.897197 -6.88006,5.79891 -7.37151,-6.093772 -7.76465,6.192059 -7.56806,-6.388631 -8.64923,6.388631 -7.56806,-6.192059 -7.66635,5.8972 -9.14067,-5.602338 -4.12803,2.948599 1.76914,2.850311 9.92695,-5.897197"
       style="fill:none;stroke:#000000;stroke-width:0.6;stroke-linecap:round;stroke-linejoin:round;stroke-opacity:1;stroke-miterlimit:4;stroke-dasharray:none;filter:url(#filter859)" />
    <path
       style="fill:none;stroke:#000000;stroke-width:0.6;stroke-linecap:round;stroke-linejoin:round;stroke-opacity:1;stroke-miterlimit:4;stroke-dasharray:none"
       d="m -345.87066,80.376253 9.14066,-5.8972 7.56807,6.093772 8.64923,-5.995485 7.37147,5.995485 8.25609,-5.897197 7.66635,5.897197 7.56809,-6.093772 7.27321,6.093772 6.68348,-5.995485 7.3715,5.995485 5.8972,-5.995485 7.46978,5.995485 5.60234,-5.897197 6.5852,5.897197 6.88007,-5.897197 6.97835,5.897197 5.70063,-5.897197 6.48691,5.995484 5.20919,-6.093772 6.19206,5.897198 4.71776,-5.79891 6.68349,5.79891 4.61947,-6.09377 6.48692,6.290344 4.71776,-5.798912 5.79891,5.504053 0.0983,-5.700625 -4.81605,6.093772 -7.17492,-6.19206 -5.11091,6.093772 -5.40576,-5.798912 -5.20919,5.700625 -5.70063,-5.897197 -5.40576,5.897197 -6.58521,-5.995485 -5.20919,5.995485 -6.09377,-5.897197 -6.38863,5.897197 -6.38863,-5.79891 -6.78178,5.700623 -6.88006,-5.995485 -6.38864,6.093772 -6.5852,-5.995485 -6.48692,6.093772 -7.66635,-6.192059 -6.88007,6.093772 -6.68348,-6.093772 -8.55096,6.093772 -7.46977,-6.192057 -8.64923,6.192057 -7.07663,-5.897197 -9.82866,5.79891 -8.25608,-5.79891 3.53832,5.79891 10.71325,-5.995485 7.17492,6.093772 7.86291,-5.79891 7.46979,5.897197 8.25609,-6.093772 7.27321,5.995485 8.0595,-5.897197 7.07662,5.897197 6.68351,-5.79891 6.68348,5.79891 6.58521,-5.995485 7.07664,5.995485 6.97835,-5.995485 5.40577,5.995485 6.68349,-5.995485 6.09377,5.995485 5.8972,-5.995485 6.68349,5.995485 5.79891,-6.093772 5.30748,6.192059 4.91433,-5.995484 5.8972,5.995484 5.20919,-6.192059 6.48692,6.093772 5.1109,-6.093772 2.55546,2.948601 -2.35888,3.341746 -6.97836,-6.093772 -4.22632,5.897197 -6.29034,-6.192057 -4.32462,6.09377 -6.78177,-6.192057 -4.22633,6.388631 -7.27321,-6.192059 -5.20919,5.995485 -6.19206,-5.897198 -5.50405,5.897198 -6.48692,-5.897198 -6.88007,6.19206 -6.97835,-6.19206 -6.29034,5.995485 -6.88006,-5.79891 -6.78177,5.897197 -6.97836,-5.897197 -6.88006,5.79891 -7.37151,-6.093772 -7.76465,6.192059 -7.56806,-6.388631 -8.64923,6.388631 -7.56806,-6.192059 -7.66635,5.8972 -9.14067,-5.602338 -4.12803,2.948599 1.76914,2.850311 9.92695,-5.897197"
       id="path855"
       inkscape:connector-curvature="0" />
  </g>
</svg>
