<?xml version="1.0" encoding="UTF-8" standalone="no"?>
<!-- Created with Inkscape (http://www.inkscape.org/) -->

<svg
   xmlns:dc="http://purl.org/dc/elements/1.1/"
   xmlns:cc="http://creativecommons.org/ns#"
   xmlns:rdf="http://www.w3.org/1999/02/22-rdf-syntax-ns#"
   xmlns:svg="http://www.w3.org/2000/svg"
   xmlns="http://www.w3.org/2000/svg"
   xmlns:sodipodi="http://sodipodi.sourceforge.net/DTD/sodipodi-0.dtd"
   xmlns:inkscape="http://www.inkscape.org/namespaces/inkscape"
   width="210mm"
   height="297mm"
   viewBox="0 0 210 297"
   version="1.1"
   id="svg8"
   inkscape:version="0.92.3 (2405546, 2018-03-11)"
   sodipodi:docname="line.svg">
  <defs
     id="defs2">
    <filter
       inkscape:collect="always"
       style="color-interpolation-filters:sRGB"
       id="filter859"
       x="-0.0062241087"
       width="1.0124482"
       y="-0.16663634"
       height="1.3332727">
      <feGaussianBlur
         inkscape:collect="always"
         stdDeviation="0.45039852"
         id="feGaussianBlur861" />
    </filter>
  </defs>
  <sodipodi:namedview
     id="base"
     pagecolor="#ffffff"
     bordercolor="#666666"
     borderopacity="1.0"
     inkscape:pageopacity="0.0"
     inkscape:pageshadow="2"
     inkscape:zoom="0.33649455"
     inkscape:cx="-136.75852"
     inkscape:cy="349.67707"
     inkscape:document-units="mm"
     inkscape:current-layer="layer1"
     showgrid="false"
     inkscape:snap-nodes="false"
     inkscape:window-width="1920"
     inkscape:window-height="1039"
     inkscape:window-x="0"
     inkscape:window-y="0"
     inkscape:window-maximized="1" />
  <metadata
     id="metadata5">
    <rdf:RDF>
      <cc:Work
         rdf:about="">
        <dc:format>image/svg+xml</dc:format>
        <dc:type
           rdf:resource="http://purl.org/dc/dcmitype/StillImage" />
        <dc:title />
      </cc:Work>
    </rdf:RDF>
  </metadata>
  <g
     inkscape:label="Layer 1"
     inkscape:groupmode="layer"
     id="layer1">
    <path
       inkscape:connector-curvature="0"
       id="path857"
       d="m 16.61045,147.21116 9.14066,-5.8972 7.56807,6.09378 8.64923,-5.99549 7.37147,5.99549 8.25609,-5.8972 7.66635,5.8972 7.56809,-6.09378 7.27321,6.09378 6.68348,-5.99549 7.3715,5.99549 5.8972,-5.99549 7.46978,5.99549 5.60234,-5.8972 6.5852,5.8972 6.88007,-5.8972 6.97835,5.8972 5.70063,-5.8972 6.48691,5.99548 5.20919,-6.09377 6.19206,5.8972 4.71776,-5.79891 6.68349,5.79891 4.61947,-6.09377 6.48692,6.29034 4.71776,-5.79891 5.79891,5.50405 0.0983,-5.70062 -4.81605,6.09377 -7.17492,-6.19206 -5.11091,6.09377 -5.40576,-5.79891 -5.20919,5.70063 -5.70063,-5.8972 -5.40576,5.8972 -6.58521,-5.99549 -5.20919,5.99549 -6.09377,-5.8972 -6.38863,5.8972 -6.38863,-5.79891 -6.78178,5.70062 -6.88006,-5.99549 -6.38864,6.09378 -6.5852,-5.99549 -6.48692,6.09377 -7.66635,-6.19206 -6.88007,6.09378 -6.68348,-6.09378 -8.55096,6.09378 -7.46977,-6.19206 -8.64923,6.19206 -7.07663,-5.8972 -9.82866,5.79891 -8.25608,-5.79891 3.53832,5.79891 10.71325,-5.99549 7.17492,6.09378 7.86291,-5.79891 7.46979,5.89719 8.25609,-6.09377 7.27321,5.99549 8.0595,-5.8972 7.07662,5.8972 6.68351,-5.79891 6.68348,5.79891 6.58521,-5.99549 7.07664,5.99549 6.97835,-5.99549 5.40577,5.99549 6.68349,-5.99549 6.09377,5.99549 5.8972,-5.99549 6.68349,5.99549 5.79891,-6.09378 5.30748,6.19206 4.91433,-5.99548 5.8972,5.99548 5.20919,-6.19206 6.48692,6.09378 5.1109,-6.09378 2.55546,2.94861 -2.35888,3.34174 -6.97836,-6.09377 -4.22632,5.8972 -6.29034,-6.19206 -4.32462,6.09377 -6.78177,-6.19206 -4.22633,6.38863 -7.27321,-6.19206 -5.20919,5.99549 -6.19206,-5.8972 -5.50405,5.8972 -6.48692,-5.8972 -6.88007,6.19206 -6.97835,-6.19206 -6.29034,5.99549 -6.88006,-5.79891 -6.78177,5.89719 -6.97836,-5.89719 -6.88006,5.79891 -7.37151,-6.09378 -7.76465,6.19206 -7.56806,-6.38863 -8.64923,6.38863 -7.56806,-6.19206 -7.66635,5.8972 -9.14067,-5.60233 -4.12803,2.9486 1.76914,2.85031 9.92695,-5.8972"
       style="fill:none;stroke:#000000;stroke-width:0.60000002;stroke-linecap:round;stroke-linejoin:round;stroke-miterlimit:4;stroke-dasharray:none;stroke-opacity:1;filter:url(#filter859)" />
    <path
       style="fill:none;stroke:#000000;stroke-width:0.60000002;stroke-linecap:round;stroke-linejoin:round;stroke-miterlimit:4;stroke-dasharray:none;stroke-opacity:1"
       d="m 16.61045,147.21116 9.14066,-5.8972 7.56807,6.09378 8.64923,-5.99549 7.37147,5.99549 8.25609,-5.8972 7.66635,5.8972 7.56809,-6.09378 7.27321,6.09378 6.68348,-5.99549 7.3715,5.99549 5.8972,-5.99549 7.46978,5.99549 5.60234,-5.8972 6.5852,5.8972 6.88007,-5.8972 6.97835,5.8972 5.70063,-5.8972 6.48691,5.99548 5.20919,-6.09377 6.19206,5.8972 4.71776,-5.79891 6.68349,5.79891 4.61947,-6.09377 6.48692,6.29034 4.71776,-5.79891 5.79891,5.50405 0.0983,-5.70062 -4.81605,6.09377 -7.17492,-6.19206 -5.11091,6.09377 -5.40576,-5.79891 -5.20919,5.70063 -5.70063,-5.8972 -5.40576,5.8972 -6.58521,-5.99549 -5.20919,5.99549 -6.09377,-5.8972 -6.38863,5.8972 -6.38863,-5.79891 -6.78178,5.70062 -6.88006,-5.99549 -6.38864,6.09378 -6.5852,-5.99549 -6.48692,6.09377 -7.66635,-6.19206 -6.88007,6.09378 -6.68348,-6.09378 -8.55096,6.09378 -7.46977,-6.19206 -8.64923,6.19206 -7.07663,-5.8972 -9.82866,5.79891 -8.25608,-5.79891 3.53832,5.79891 10.71325,-5.99549 7.17492,6.09378 7.86291,-5.79891 7.46979,5.89719 8.25609,-6.09377 7.27321,5.99549 8.0595,-5.8972 7.07662,5.8972 6.68351,-5.79891 6.68348,5.79891 6.58521,-5.99549 7.07664,5.99549 6.97835,-5.99549 5.40577,5.99549 6.68349,-5.99549 6.09377,5.99549 5.8972,-5.99549 6.68349,5.99549 5.79891,-6.09378 5.30748,6.19206 4.91433,-5.99548 5.8972,5.99548 5.20919,-6.19206 6.48692,6.09378 5.1109,-6.09378 2.55546,2.94861 -2.35888,3.34174 -6.97836,-6.09377 -4.22632,5.8972 -6.29034,-6.19206 -4.32462,6.09377 -6.78177,-6.19206 -4.22633,6.38863 -7.27321,-6.19206 -5.20919,5.99549 -6.19206,-5.8972 -5.50405,5.8972 -6.48692,-5.8972 -6.88007,6.19206 -6.97835,-6.19206 -6.29034,5.99549 -6.88006,-5.79891 -6.78177,5.89719 -6.97836,-5.89719 -6.88006,5.79891 -7.37151,-6.09378 -7.76465,6.19206 -7.56806,-6.38863 -8.64923,6.38863 -7.56806,-6.19206 -7.66635,5.8972 -9.14067,-5.60233 -4.12803,2.9486 1.76914,2.85031 9.92695,-5.8972"
       id="path855"
       inkscape:connector-curvature="0" />
  </g>
</svg>
