<?xml version="1.0" encoding="UTF-8" standalone="no"?>
<!-- Created with Inkscape (http://www.inkscape.org/) -->

<svg
   xmlns:dc="http://purl.org/dc/elements/1.1/"
   xmlns:cc="http://creativecommons.org/ns#"
   xmlns:rdf="http://www.w3.org/1999/02/22-rdf-syntax-ns#"
   xmlns:svg="http://www.w3.org/2000/svg"
   xmlns="http://www.w3.org/2000/svg"
   xmlns:sodipodi="http://sodipodi.sourceforge.net/DTD/sodipodi-0.dtd"
   xmlns:inkscape="http://www.inkscape.org/namespaces/inkscape"
   width="210mm"
   height="297mm"
   viewBox="0 0 210 297"
   version="1.1"
   id="svg8"
   inkscape:version="0.92.2 2405546, 2018-03-11"
   sodipodi:docname="rectangle.svg">
  <defs
     id="defs2">
    <filter
       inkscape:collect="always"
       style="color-interpolation-filters:sRGB"
       id="filter853"
       x="-0.031219714"
       width="1.0624394"
       y="-0.019492307"
       height="1.0389846">
      <feGaussianBlur
         inkscape:collect="always"
         stdDeviation="0.84657631"
         id="feGaussianBlur855" />
    </filter>
  </defs>
  <sodipodi:namedview
     id="base"
     pagecolor="#ffffff"
     bordercolor="#666666"
     borderopacity="1.0"
     inkscape:pageopacity="0.0"
     inkscape:pageshadow="2"
     inkscape:zoom="0.98994949"
     inkscape:cx="160.31157"
     inkscape:cy="138.74573"
     inkscape:document-units="mm"
     inkscape:current-layer="layer1"
     showgrid="false"
     inkscape:window-width="1920"
     inkscape:window-height="1039"
     inkscape:window-x="0"
     inkscape:window-y="0"
     inkscape:window-maximized="1" />
  <metadata
     id="metadata5">
    <rdf:RDF>
      <cc:Work
         rdf:about="">
        <dc:format>image/svg+xml</dc:format>
        <dc:type
           rdf:resource="http://purl.org/dc/dcmitype/StillImage" />
        <dc:title></dc:title>
      </cc:Work>
    </rdf:RDF>
  </metadata>
  <g
     inkscape:label="Layer 1"
     inkscape:groupmode="layer"
     id="layer1">
    <path
       inkscape:connector-curvature="0"
       id="path847"
       d="m 44.500376,179.93594 7.216278,1.73726 7.216277,-1.46999 5.078119,1.33635 5.078121,-1.46998 3.207234,1.33635 2.939966,-1.33635 3.207234,1.46998 3.474505,-1.46998 3.741772,1.46998 4.810853,-1.33635 3.741772,1.46999 5.211757,-1.60362 3.741776,1.60362 3.8754,-1.46999 2.00453,1.46999 -1.06908,4.14268 1.20271,5.21175 -1.20271,4.40995 1.06908,2.40542 -1.06908,3.47451 1.06908,3.34087 -0.80181,2.80633 0.93544,2.93996 -1.06908,2.93997 0.93545,3.07359 -1.06908,3.34087 1.06908,2.53906 -0.93545,2.6727 0.93545,2.13815 -1.06908,2.40543 1.06908,2.40543 -0.93545,2.27179 0.93545,2.67269 -1.06908,2.53906 1.06908,3.0736 -0.93545,2.27179 0.93545,2.6727 -0.93545,2.40543 0.93545,2.00452 -0.80181,3.60813 0.80181,2.00453 -1.06908,3.0736 1.20271,3.0736 -1.46998,3.0736 1.33635,3.74177 -1.20272,2.93997 1.20272,2.67269 -1.33635,3.8754 1.33635,2.67269 -0.93545,1.47 -2.80633,-1.47 -2.80633,1.33636 -3.340868,-1.46998 -3.207234,1.46998 -2.405425,-1.33636 -2.939965,1.33636 -2.539061,-1.46998 -3.207234,1.73726 -2.00452,-1.60364 -2.271792,1.20272 -1.870887,-1.20272 -2.539058,1.33636 -2.271792,-1.20272 -2.004523,1.20272 -1.870885,-1.60362 -2.806329,1.73726 -2.138159,-1.47 -2.138156,1.33636 -1.46998,-1.20272 -2.806332,1.47 -2.27179,-1.47 -2.405427,1.33636 -2.004521,-1.60362 -2.271791,1.46998 -2.672694,-1.33636 -2.405425,1.47 1.202711,-2.93997 -1.469983,-3.07359 1.33635,-2.93997 -1.069078,-2.00453 1.069078,-2.2718 -1.202714,-1.46997 1.202714,-2.67269 -1.202714,-2.00453 1.336347,-2.27179 -1.469983,-1.87088 1.469983,-3.0736 -1.336347,-3.47451 1.469983,-3.0736 -1.603619,-3.0736 1.202714,-3.20723 -0.935442,-3.60814 0.801806,-2.00452 -0.935442,-2.93997 0.935442,-3.20723 -1.069078,-3.4745 1.202714,-4.27632 -0.935442,-2.67269 1.202711,-3.34087 -1.469983,-3.20723 1.202714,-2.93997 -1.202714,-3.60814 1.469983,-3.74177 -1.336347,-3.34087 1.202714,-3.20723 -1.069078,-2.80633 1.069078,-2.80634 -1.069078,-2.80632 1.336347,-2.6727 -1.336347,-3.34087 0.935442,-1.73725 -0.935442,-1.73725 7.750815,-0.93545 6.949009,1.33635 4.944485,-1.46998 4.543581,1.60362 3.608139,-1.60362 3.073599,1.46998 2.806332,-1.46998 4.00904,1.46998 3.608139,-1.33635 4.543584,1.33635 4.276312,-1.46998 4.543581,1.46998 4.009042,-1.60362 2.80633,1.73726 3.0736,-1.46999 -1.20271,2.6727 1.06908,3.74177 -1.06908,4.14268 1.20271,4.40995 -1.33635,2.93996 1.20272,3.74178 -1.20272,2.80633 1.33635,3.4745 -1.46998,2.93996 1.46998,3.34087 -0.93544,2.93997 0.66817,2.93996 -1.46998,2.53906 1.73725,2.13816 -1.33635,2.53906 1.33635,2.00452 -1.20271,2.6727 1.33635,2.80633 -1.33635,2.13815 0.93544,2.6727 -0.93544,2.80633 1.20271,2.80633 -1.33635,2.40542 1.33635,2.27179 -1.20271,3.34087 1.06908,2.00452 -1.20272,2.40543 1.33635,3.34087 -1.46998,2.13816 1.46998,3.47449 -1.60362,3.60815 1.33635,2.80633 -1.06908,2.80633 1.20272,3.74176 -1.06908,2.80633 -2.53906,1.33636 -3.0736,-1.46998 -3.073602,1.60362 -3.207234,-1.73726 -2.271792,1.60362 -3.340867,-1.60362 -2.672697,1.60362 -2.138156,-1.60362 -3.073598,1.46998 -2.004523,-1.33634 -1.737252,1.60362 -2.939965,-1.60362 -1.737251,1.60362 -2.271792,-1.73726 -2.539058,1.73726 -2.138156,-1.47 -2.271792,1.0691 -1.737252,-1.20272 -1.870887,1.60362 -2.405425,-1.60362 -1.870887,1.60362 -2.539061,-1.60362 -2.672696,1.46998 -2.271789,-1.33636 -1.870888,1.33636 -3.073598,-2.00451 1.202711,-3.74179 -1.336347,-3.07359 1.202714,-2.27179 -1.069078,-2.00454 1.202711,-2.00451 -1.469983,-2.00453 1.469983,-2.40542 -1.202711,-1.60361 1.202711,-2.93997 -1.469983,-2.53906 1.202714,-3.34087 -1.202714,-3.34087 1.33635,-3.4745 -1.069078,-2.93996 1.202711,-2.53906 -1.202711,-2.93997 1.202711,-2.6727 -1.336347,-3.20723 1.069078,-3.20723 -1.336347,-4.00905 1.469983,-3.34087 -1.069078,-3.20723 1.46998,-2.40542 -1.603616,-4.27632 1.202714,-2.80633 -1.33635,-4.67722 1.33635,-3.07359 -1.069078,-2.80633 1.202711,-3.60814 -1.469983,-2.6727 1.870888,-2.40542 -1.737252,-2.6727 2.00452,-3.0736 -1.737251,-1.73725 3.608139,-2.93997"
       style="fill:none;stroke:#000000;stroke-width:0.4;stroke-linecap:round;stroke-linejoin:round;stroke-opacity:1;stroke-miterlimit:4;stroke-dasharray:none;filter:url(#filter853)" />
    <path
       style="fill:none;stroke:#000000;stroke-width:0.4;stroke-linecap:round;stroke-linejoin:round;stroke-opacity:1;stroke-miterlimit:4;stroke-dasharray:none"
       d="m 44.500376,179.93594 7.216278,1.73726 7.216277,-1.46999 5.078119,1.33635 5.078121,-1.46998 3.207234,1.33635 2.939966,-1.33635 3.207234,1.46998 3.474505,-1.46998 3.741772,1.46998 4.810853,-1.33635 3.741772,1.46999 5.211757,-1.60362 3.741776,1.60362 3.8754,-1.46999 2.00453,1.46999 -1.06908,4.14268 1.20271,5.21175 -1.20271,4.40995 1.06908,2.40542 -1.06908,3.47451 1.06908,3.34087 -0.80181,2.80633 0.93544,2.93996 -1.06908,2.93997 0.93545,3.07359 -1.06908,3.34087 1.06908,2.53906 -0.93545,2.6727 0.93545,2.13815 -1.06908,2.40543 1.06908,2.40543 -0.93545,2.27179 0.93545,2.67269 -1.06908,2.53906 1.06908,3.0736 -0.93545,2.27179 0.93545,2.6727 -0.93545,2.40543 0.93545,2.00452 -0.80181,3.60813 0.80181,2.00453 -1.06908,3.0736 1.20271,3.0736 -1.46998,3.0736 1.33635,3.74177 -1.20272,2.93997 1.20272,2.67269 -1.33635,3.8754 1.33635,2.67269 -0.93545,1.47 -2.80633,-1.47 -2.80633,1.33636 -3.340868,-1.46998 -3.207234,1.46998 -2.405425,-1.33636 -2.939965,1.33636 -2.539061,-1.46998 -3.207234,1.73726 -2.00452,-1.60364 -2.271792,1.20272 -1.870887,-1.20272 -2.539058,1.33636 -2.271792,-1.20272 -2.004523,1.20272 -1.870885,-1.60362 -2.806329,1.73726 -2.138159,-1.47 -2.138156,1.33636 -1.46998,-1.20272 -2.806332,1.47 -2.27179,-1.47 -2.405427,1.33636 -2.004521,-1.60362 -2.271791,1.46998 -2.672694,-1.33636 -2.405425,1.47 1.202711,-2.93997 -1.469983,-3.07359 1.33635,-2.93997 -1.069078,-2.00453 1.069078,-2.2718 -1.202714,-1.46997 1.202714,-2.67269 -1.202714,-2.00453 1.336347,-2.27179 -1.469983,-1.87088 1.469983,-3.0736 -1.336347,-3.47451 1.469983,-3.0736 -1.603619,-3.0736 1.202714,-3.20723 -0.935442,-3.60814 0.801806,-2.00452 -0.935442,-2.93997 0.935442,-3.20723 -1.069078,-3.4745 1.202714,-4.27632 -0.935442,-2.67269 1.202711,-3.34087 -1.469983,-3.20723 1.202714,-2.93997 -1.202714,-3.60814 1.469983,-3.74177 -1.336347,-3.34087 1.202714,-3.20723 -1.069078,-2.80633 1.069078,-2.80634 -1.069078,-2.80632 1.336347,-2.6727 -1.336347,-3.34087 0.935442,-1.73725 -0.935442,-1.73725 7.750815,-0.93545 6.949009,1.33635 4.944485,-1.46998 4.543581,1.60362 3.608139,-1.60362 3.073599,1.46998 2.806332,-1.46998 4.00904,1.46998 3.608139,-1.33635 4.543584,1.33635 4.276312,-1.46998 4.543581,1.46998 4.009042,-1.60362 2.80633,1.73726 3.0736,-1.46999 -1.20271,2.6727 1.06908,3.74177 -1.06908,4.14268 1.20271,4.40995 -1.33635,2.93996 1.20272,3.74178 -1.20272,2.80633 1.33635,3.4745 -1.46998,2.93996 1.46998,3.34087 -0.93544,2.93997 0.66817,2.93996 -1.46998,2.53906 1.73725,2.13816 -1.33635,2.53906 1.33635,2.00452 -1.20271,2.6727 1.33635,2.80633 -1.33635,2.13815 0.93544,2.6727 -0.93544,2.80633 1.20271,2.80633 -1.33635,2.40542 1.33635,2.27179 -1.20271,3.34087 1.06908,2.00452 -1.20272,2.40543 1.33635,3.34087 -1.46998,2.13816 1.46998,3.47449 -1.60362,3.60815 1.33635,2.80633 -1.06908,2.80633 1.20272,3.74176 -1.06908,2.80633 -2.53906,1.33636 -3.0736,-1.46998 -3.073602,1.60362 -3.207234,-1.73726 -2.271792,1.60362 -3.340867,-1.60362 -2.672697,1.60362 -2.138156,-1.60362 -3.073598,1.46998 -2.004523,-1.33634 -1.737252,1.60362 -2.939965,-1.60362 -1.737251,1.60362 -2.271792,-1.73726 -2.539058,1.73726 -2.138156,-1.47 -2.271792,1.0691 -1.737252,-1.20272 -1.870887,1.60362 -2.405425,-1.60362 -1.870887,1.60362 -2.539061,-1.60362 -2.672696,1.46998 -2.271789,-1.33636 -1.870888,1.33636 -3.073598,-2.00451 1.202711,-3.74179 -1.336347,-3.07359 1.202714,-2.27179 -1.069078,-2.00454 1.202711,-2.00451 -1.469983,-2.00453 1.469983,-2.40542 -1.202711,-1.60361 1.202711,-2.93997 -1.469983,-2.53906 1.202714,-3.34087 -1.202714,-3.34087 1.33635,-3.4745 -1.069078,-2.93996 1.202711,-2.53906 -1.202711,-2.93997 1.202711,-2.6727 -1.336347,-3.20723 1.069078,-3.20723 -1.336347,-4.00905 1.469983,-3.34087 -1.069078,-3.20723 1.46998,-2.40542 -1.603616,-4.27632 1.202714,-2.80633 -1.33635,-4.67722 1.33635,-3.07359 -1.069078,-2.80633 1.202711,-3.60814 -1.469983,-2.6727 1.870888,-2.40542 -1.737252,-2.6727 2.00452,-3.0736 -1.737251,-1.73725 3.608139,-2.93997"
       id="path845"
       inkscape:connector-curvature="0" />
  </g>
</svg>
