<?xml version="1.0" encoding="UTF-8" standalone="no"?>
<!-- Created with Inkscape (http://www.inkscape.org/) -->

<svg
   xmlns:dc="http://purl.org/dc/elements/1.1/"
   xmlns:cc="http://creativecommons.org/ns#"
   xmlns:rdf="http://www.w3.org/1999/02/22-rdf-syntax-ns#"
   xmlns:svg="http://www.w3.org/2000/svg"
   xmlns="http://www.w3.org/2000/svg"
   xmlns:sodipodi="http://sodipodi.sourceforge.net/DTD/sodipodi-0.dtd"
   xmlns:inkscape="http://www.inkscape.org/namespaces/inkscape"
   width="210mm"
   height="297mm"
   viewBox="0 0 210 297"
   version="1.1"
   id="svg8"
   inkscape:version="0.92.2 2405546, 2018-03-11"
   sodipodi:docname="rectangle_thin.svg">
  <defs
     id="defs2">
    <filter
       inkscape:collect="always"
       style="color-interpolation-filters:sRGB"
       id="filter880"
       x="-0.014142373"
       width="1.0282847"
       y="-0.079215189"
       height="1.1584304">
      <feGaussianBlur
         inkscape:collect="always"
         stdDeviation="1.5283976"
         id="feGaussianBlur882" />
    </filter>
  </defs>
  <sodipodi:namedview
     id="base"
     pagecolor="#ffffff"
     bordercolor="#666666"
     borderopacity="1.0"
     inkscape:pageopacity="0.0"
     inkscape:pageshadow="2"
     inkscape:zoom="0.9027769"
     inkscape:cx="-441.14116"
     inkscape:cy="841.31958"
     inkscape:document-units="mm"
     inkscape:current-layer="layer1"
     showgrid="false"
     inkscape:window-width="1920"
     inkscape:window-height="1039"
     inkscape:window-x="0"
     inkscape:window-y="0"
     inkscape:window-maximized="1"
     inkscape:snap-nodes="false" />
  <metadata
     id="metadata5">
    <rdf:RDF>
      <cc:Work
         rdf:about="">
        <dc:format>image/svg+xml</dc:format>
        <dc:type
           rdf:resource="http://purl.org/dc/dcmitype/StillImage" />
        <dc:title></dc:title>
      </cc:Work>
    </rdf:RDF>
  </metadata>
  <g
     inkscape:label="Layer 1"
     inkscape:groupmode="layer"
     id="layer1">
    <path
       inkscape:connector-curvature="0"
       id="path866"
       d="m -269.63104,67.960162 11.86964,-4.982313 8.05962,5.12885 13.62809,-5.12885 10.11117,5.12885 13.77463,-5.12885 11.13693,5.12885 9.52501,-5.27539 8.79232,5.27539 7.18039,-5.12885 6.30116,4.982313 5.56846,-4.982313 6.59424,5.12885 7.32693,-5.12885 6.4477,4.982313 7.32693,-5.128853 7.32693,5.27539 6.88731,-5.27539 6.88732,5.27539 4.54269,-5.27539 5.27539,5.128853 4.98232,-5.128853 4.689229,5.27539 5.275392,-5.27539 5.568466,5.27539 4.542697,-5.12885 5.421929,4.835773 5.275389,-4.835773 5.27539,5.12885 6.30116,-4.982311 4.542695,4.982311 5.568468,-5.27539 4.249619,4.982313 5.128852,-4.542697 4.835774,4.689237 5.421926,-4.835774 4.103082,4.835774 5.568467,-4.982313 2.198079,2.198079 -4.982312,4.982313 4.835774,6.887313 -4.982313,6.4477 4.982313,7.766544 -4.982313,5.715006 4.982313,7.913086 -3.22385,3.66346 -4.396158,-4.83577 -3.956542,4.68923 -4.835774,-5.12885 -3.810003,4.98232 -4.103081,-4.5427 -2.784234,4.39616 -4.103082,-4.39616 -4.103079,4.83577 -4.835774,-4.98231 -4.103081,5.12885 -6.4477,-5.42193 -3.663463,4.98232 -5.861545,-4.98232 -4.689237,5.12885 -5.568465,-4.54269 -3.663466,4.24962 -4.982313,-4.68924 -4.396161,4.83578 -6.008078,-4.5427 -5.86154,4.68923 -4.83578,-4.68923 -4.98231,4.83577 -5.56847,-5.12885 -4.54269,4.83578 -4.5427,-4.83578 -4.83577,4.98231 -4.98231,-5.12885 -5.2754,4.98232 -3.95654,-4.5427 -4.98231,4.5427 -5.27539,-4.68924 -4.68924,4.83577 -5.12885,-4.83577 -5.27538,4.68924 -5.56847,-4.68924 -6.00808,4.68924 -5.27539,-4.5427 -6.88732,4.68923 -5.42193,-4.98231 -4.98231,4.83578 -4.98231,-4.5427 -5.71501,4.39616 -5.56847,-4.68924 -5.56846,4.5427 -5.71501,-4.24962 -6.4477,4.68923 -5.86154,-4.83577 -5.42193,4.68924 -4.98232,-4.5427 -5.42192,4.39616 -4.83576,-5.12885 4.83576,-4.835776 -5.12884,-7.180392 4.98231,-4.689237 -4.98231,-6.301158 4.98231,-4.249621 -4.98231,-6.154621 7.18039,-6.594236 10.25769,4.835773 10.40424,-4.689234 11.57655,4.835774 11.57655,-5.27539 13.04194,5.421927 10.69732,-4.982311 9.52501,4.689234 8.79231,-4.835773 6.30116,4.982313 6.15462,-5.128853 7.1804,5.128853 6.00808,-4.689237 7.18039,4.689237 6.59424,-4.835774 6.88731,4.982311 7.32693,-5.27539 7.91309,5.27539 5.715,-5.12885 5.12885,4.982313 4.83578,-4.982313 5.275388,4.835773 4.982309,-4.689234 5.421926,4.835774 4.542698,-4.835774 5.275389,4.835774 4.689237,-4.982313 5.421926,4.982313 4.982313,-4.835774 5.568469,4.982311 5.861542,-4.982311 4.689237,4.835774 5.12885,-4.982313 4.982313,4.835773 4.835773,-4.396158 4.249619,4.103082 5.715006,-4.396158 7.326931,7.766545 -5.128852,5.715005 4.835774,8.059624 -4.542696,5.715005 4.542696,6.30116 -4.396158,4.689233 4.689236,5.42193 -4.982313,-3.22385 -2.784233,4.5427 -3.810004,-4.39616 -4.835774,4.68923 -3.956542,-4.54269 -3.370387,4.54269 -4.249621,-4.68923 -3.22385,4.5427 -3.663463,-4.83578 -4.982313,5.27539 -5.27539,-5.12885 -4.103081,4.83577 -5.27539,-4.98231 -4.689234,5.12885 -6.154623,-4.98231 -4.103079,4.68924 -4.982313,-4.39616 -4.542698,4.54269 -5.275388,-4.83577 -5.27539,5.12885 -6.15462,-5.27539 -4.5427,4.98231 -5.56846,-4.54269 -4.10308,4.39616 -5.71501,-4.98232 -4.98231,5.12885 -4.24962,-4.98231 -5.12885,4.98231 -5.27539,-4.98231 -3.51693,4.83578 -4.83577,-4.83578 -4.83578,5.12885 -6.30116,-5.12885 -4.98231,4.98231 -4.83577,-5.12885 -5.27539,5.42193 -5.42193,-5.12885 -5.42193,4.68924 -5.71501,-4.24962 -6.59423,4.83577 -5.27539,-5.42193 -5.71501,4.83578 -4.68923,-4.5427 -6.30116,4.24962 -6.30116,-3.95654 -5.86155,4.39615 -4.83577,-4.68923 -6.4477,4.5427 -5.12885,-4.68924 -5.12886,4.5427 -3.95653,-4.39616 -6.00807,3.81 4.2496,-4.98231 -4.68924,-6.008082 4.98232,-4.542695 -5.12884,-6.4477 4.98231,-4.542697 -4.68923,-5.27539 4.54268,-3.810002 -4.68924,-6.301161 3.07732,-2.784234 7.62,5.27539 11.57656,-5.27539 9.67154,5.128853 12.60232,-4.835774 12.60232,4.835774 12.60232,-5.128853 9.37847,5.128853 9.52501,-4.835774 7.47347,4.982311 6.00808,-4.982311 6.88732,5.12885 6.88731,-5.275389 6.88732,4.982313 6.74077,-4.835774 6.74078,4.835774 7.62001,-5.421929 7.47346,5.715005 6.15463,-5.275389 5.12885,4.689234 4.68923,-4.542695 5.56847,5.27539 5.568465,-5.421929 4.835773,4.982313 4.542698,-5.128853 4.98231,5.128853 4.689237,-5.128853 5.421929,4.835774 5.568465,-4.542695 5.12885,4.982311 6.887316,-5.12885 4.396158,5.275389 4.982313,-5.275389 4.396158,5.12885 5.421929,-5.12885 4.542695,4.982313 5.568468,-4.835774 3.07731,4.835774 5.568467,-4.103082 -4.249619,8.938855 4.835774,7.326929 -4.982313,7.180392 5.128851,6.301161 -4.835774,5.12885 4.835774,2.051543 -5.568467,7.76654 -4.542698,-4.83577 -3.516926,4.68923 -5.12885,-4.39615 -3.22385,4.39615 -4.396158,-4.83577 -3.07731,4.68924 -3.956542,-4.68924 -4.249619,5.12885 -5.421929,-5.27539"
       style="fill:none;stroke:#000000;stroke-width:0.7;stroke-linecap:round;stroke-linejoin:round;stroke-opacity:1;stroke-miterlimit:4;stroke-dasharray:none;filter:url(#filter880)" />
    <path
       style="fill:none;stroke:#000000;stroke-width:0.7;stroke-linecap:round;stroke-linejoin:round;stroke-opacity:1;stroke-miterlimit:4;stroke-dasharray:none"
       d="m -269.63104,67.960162 11.86964,-4.982313 8.05962,5.12885 13.62809,-5.12885 10.11117,5.12885 13.77463,-5.12885 11.13693,5.12885 9.52501,-5.27539 8.79232,5.27539 7.18039,-5.12885 6.30116,4.982313 5.56846,-4.982313 6.59424,5.12885 7.32693,-5.12885 6.4477,4.982313 7.32693,-5.128853 7.32693,5.27539 6.88731,-5.27539 6.88732,5.27539 4.54269,-5.27539 5.27539,5.128853 4.98232,-5.128853 4.689229,5.27539 5.275392,-5.27539 5.568466,5.27539 4.542697,-5.12885 5.421929,4.835773 5.275389,-4.835773 5.27539,5.12885 6.30116,-4.982311 4.542695,4.982311 5.568468,-5.27539 4.249619,4.982313 5.128852,-4.542697 4.835774,4.689237 5.421926,-4.835774 4.103082,4.835774 5.568467,-4.982313 2.198079,2.198079 -4.982312,4.982313 4.835774,6.887313 -4.982313,6.4477 4.982313,7.766544 -4.982313,5.715006 4.982313,7.913086 -3.22385,3.66346 -4.396158,-4.83577 -3.956542,4.68923 -4.835774,-5.12885 -3.810003,4.98232 -4.103081,-4.5427 -2.784234,4.39616 -4.103082,-4.39616 -4.103079,4.83577 -4.835774,-4.98231 -4.103081,5.12885 -6.4477,-5.42193 -3.663463,4.98232 -5.861545,-4.98232 -4.689237,5.12885 -5.568465,-4.54269 -3.663466,4.24962 -4.982313,-4.68924 -4.396161,4.83578 -6.008078,-4.5427 -5.86154,4.68923 -4.83578,-4.68923 -4.98231,4.83577 -5.56847,-5.12885 -4.54269,4.83578 -4.5427,-4.83578 -4.83577,4.98231 -4.98231,-5.12885 -5.2754,4.98232 -3.95654,-4.5427 -4.98231,4.5427 -5.27539,-4.68924 -4.68924,4.83577 -5.12885,-4.83577 -5.27538,4.68924 -5.56847,-4.68924 -6.00808,4.68924 -5.27539,-4.5427 -6.88732,4.68923 -5.42193,-4.98231 -4.98231,4.83578 -4.98231,-4.5427 -5.71501,4.39616 -5.56847,-4.68924 -5.56846,4.5427 -5.71501,-4.24962 -6.4477,4.68923 -5.86154,-4.83577 -5.42193,4.68924 -4.98232,-4.5427 -5.42192,4.39616 -4.83576,-5.12885 4.83576,-4.835776 -5.12884,-7.180392 4.98231,-4.689237 -4.98231,-6.301158 4.98231,-4.249621 -4.98231,-6.154621 7.18039,-6.594236 10.25769,4.835773 10.40424,-4.689234 11.57655,4.835774 11.57655,-5.27539 13.04194,5.421927 10.69732,-4.982311 9.52501,4.689234 8.79231,-4.835773 6.30116,4.982313 6.15462,-5.128853 7.1804,5.128853 6.00808,-4.689237 7.18039,4.689237 6.59424,-4.835774 6.88731,4.982311 7.32693,-5.27539 7.91309,5.27539 5.715,-5.12885 5.12885,4.982313 4.83578,-4.982313 5.275388,4.835773 4.982309,-4.689234 5.421926,4.835774 4.542698,-4.835774 5.275389,4.835774 4.689237,-4.982313 5.421926,4.982313 4.982313,-4.835774 5.568469,4.982311 5.861542,-4.982311 4.689237,4.835774 5.12885,-4.982313 4.982313,4.835773 4.835773,-4.396158 4.249619,4.103082 5.715006,-4.396158 7.326931,7.766545 -5.128852,5.715005 4.835774,8.059624 -4.542696,5.715005 4.542696,6.30116 -4.396158,4.689233 4.689236,5.42193 -4.982313,-3.22385 -2.784233,4.5427 -3.810004,-4.39616 -4.835774,4.68923 -3.956542,-4.54269 -3.370387,4.54269 -4.249621,-4.68923 -3.22385,4.5427 -3.663463,-4.83578 -4.982313,5.27539 -5.27539,-5.12885 -4.103081,4.83577 -5.27539,-4.98231 -4.689234,5.12885 -6.154623,-4.98231 -4.103079,4.68924 -4.982313,-4.39616 -4.542698,4.54269 -5.275388,-4.83577 -5.27539,5.12885 -6.15462,-5.27539 -4.5427,4.98231 -5.56846,-4.54269 -4.10308,4.39616 -5.71501,-4.98232 -4.98231,5.12885 -4.24962,-4.98231 -5.12885,4.98231 -5.27539,-4.98231 -3.51693,4.83578 -4.83577,-4.83578 -4.83578,5.12885 -6.30116,-5.12885 -4.98231,4.98231 -4.83577,-5.12885 -5.27539,5.42193 -5.42193,-5.12885 -5.42193,4.68924 -5.71501,-4.24962 -6.59423,4.83577 -5.27539,-5.42193 -5.71501,4.83578 -4.68923,-4.5427 -6.30116,4.24962 -6.30116,-3.95654 -5.86155,4.39615 -4.83577,-4.68923 -6.4477,4.5427 -5.12885,-4.68924 -5.12886,4.5427 -3.95653,-4.39616 -6.00807,3.81 4.2496,-4.98231 -4.68924,-6.008082 4.98232,-4.542695 -5.12884,-6.4477 4.98231,-4.542697 -4.68923,-5.27539 4.54268,-3.810002 -4.68924,-6.301161 3.07732,-2.784234 7.62,5.27539 11.57656,-5.27539 9.67154,5.128853 12.60232,-4.835774 12.60232,4.835774 12.60232,-5.128853 9.37847,5.128853 9.52501,-4.835774 7.47347,4.982311 6.00808,-4.982311 6.88732,5.12885 6.88731,-5.275389 6.88732,4.982313 6.74077,-4.835774 6.74078,4.835774 7.62001,-5.421929 7.47346,5.715005 6.15463,-5.275389 5.12885,4.689234 4.68923,-4.542695 5.56847,5.27539 5.568465,-5.421929 4.835773,4.982313 4.542698,-5.128853 4.98231,5.128853 4.689237,-5.128853 5.421929,4.835774 5.568465,-4.542695 5.12885,4.982311 6.887316,-5.12885 4.396158,5.275389 4.982313,-5.275389 4.396158,5.12885 5.421929,-5.12885 4.542695,4.982313 5.568468,-4.835774 3.07731,4.835774 5.568467,-4.103082 -4.249619,8.938855 4.835774,7.326929 -4.982313,7.180392 5.128851,6.301161 -4.835774,5.12885 4.835774,2.051543 -5.568467,7.76654 -4.542698,-4.83577 -3.516926,4.68923 -5.12885,-4.39615 -3.22385,4.39615 -4.396158,-4.83577 -3.07731,4.68924 -3.956542,-4.68924 -4.249619,5.12885 -5.421929,-5.27539"
       id="path864"
       inkscape:connector-curvature="0" />
  </g>
</svg>
