<?xml version="1.0" encoding="UTF-8" standalone="no"?>
<!-- Created with Inkscape (http://www.inkscape.org/) -->

<svg
   xmlns:dc="http://purl.org/dc/elements/1.1/"
   xmlns:cc="http://creativecommons.org/ns#"
   xmlns:rdf="http://www.w3.org/1999/02/22-rdf-syntax-ns#"
   xmlns:svg="http://www.w3.org/2000/svg"
   xmlns="http://www.w3.org/2000/svg"
   xmlns:sodipodi="http://sodipodi.sourceforge.net/DTD/sodipodi-0.dtd"
   xmlns:inkscape="http://www.inkscape.org/namespaces/inkscape"
   width="210mm"
   height="297mm"
   viewBox="0 0 210 297"
   version="1.1"
   id="svg8"
   inkscape:version="0.92.3 (2405546, 2018-03-11)"
   sodipodi:docname="rectangle_thin.svg">
  <defs
     id="defs2">
    <filter
       inkscape:collect="always"
       style="color-interpolation-filters:sRGB"
       id="filter880"
       x="-0.014142373"
       width="1.0282847"
       y="-0.079215189"
       height="1.1584304">
      <feGaussianBlur
         inkscape:collect="always"
         stdDeviation="1.5283976"
         id="feGaussianBlur882" />
    </filter>
  </defs>
  <sodipodi:namedview
     id="base"
     pagecolor="#ffffff"
     bordercolor="#666666"
     borderopacity="1.0"
     inkscape:pageopacity="0.0"
     inkscape:pageshadow="2"
     inkscape:zoom="0.31917983"
     inkscape:cx="350.75472"
     inkscape:cy="582.13246"
     inkscape:document-units="mm"
     inkscape:current-layer="layer1"
     showgrid="false"
     inkscape:window-width="1920"
     inkscape:window-height="1039"
     inkscape:window-x="0"
     inkscape:window-y="0"
     inkscape:window-maximized="1"
     inkscape:snap-nodes="false" />
  <metadata
     id="metadata5">
    <rdf:RDF>
      <cc:Work
         rdf:about="">
        <dc:format>image/svg+xml</dc:format>
        <dc:type
           rdf:resource="http://purl.org/dc/dcmitype/StillImage" />
        <dc:title />
      </cc:Work>
    </rdf:RDF>
  </metadata>
  <g
     inkscape:label="Layer 1"
     inkscape:groupmode="layer"
     id="layer1">
    <path
       inkscape:connector-curvature="0"
       id="path866"
       d="m -22.604678,114.38122 11.86964,-4.98231 8.0596202,5.12885 13.6280898,-5.12885 10.11117,5.12885 13.77463,-5.12885 11.13693,5.12885 9.52501,-5.27539 8.79232,5.27539 7.18039,-5.12885 6.30116,4.98231 5.56846,-4.98231 6.59424,5.12885 7.32693,-5.12885 6.447698,4.98231 7.32693,-5.12885 7.32693,5.27539 6.88731,-5.27539 6.88732,5.27539 4.54269,-5.27539 5.27539,5.12885 4.98232,-5.12885 4.68923,5.27539 5.27539,-5.27539 5.56847,5.27539 4.5427,-5.12885 5.42193,4.83577 5.27538,-4.83577 5.27539,5.12885 6.30116,-4.98231 4.5427,4.98231 5.56847,-5.27539 4.24962,4.98231 5.12885,-4.54269 4.83577,4.68923 5.42193,-4.83577 4.10308,4.83577 5.56847,-4.98231 2.19808,2.19808 -4.98232,4.98231 4.83578,6.88732 -4.98231,6.4477 4.98231,7.76654 -4.98231,5.71501 4.98231,7.91308 -3.22385,3.66346 -4.39616,-4.83577 -3.95654,4.68923 -4.83578,-5.12885 -3.81,4.98232 -4.10308,-4.5427 -2.78423,4.39616 -4.10309,-4.39616 -4.10307,4.83577 -4.83578,-4.98231 -4.10308,5.12885 -6.4477,-5.42193 -3.66346,4.98232 -5.86155,-4.98232 -4.68923,5.12885 -5.56847,-4.54269 -3.66347,4.24962 -4.98231,-4.68924 -4.39616,4.83578 -6.00808,-4.5427 -5.86154,4.68923 -4.83578,-4.68923 -4.98231,4.83577 -5.56847,-5.12885 -4.54269,4.83578 -4.5427,-4.83578 -4.83577,4.98231 -4.98231,-5.12885 -5.275398,4.98232 -3.95654,-4.5427 -4.98231,4.5427 -5.27539,-4.68924 -4.68924,4.83577 -5.12885,-4.83577 -5.27538,4.68924 -5.56847,-4.68924 -6.00808,4.68924 -5.27539,-4.5427 -6.88732,4.68923 -5.42193,-4.98231 -4.98231,4.83578 -4.98231,-4.5427 -5.71501,4.39616 -5.56847,-4.68924 -5.56846,4.5427 -5.7150098,-4.24962 -6.4477,4.68923 -5.86154,-4.83577 -5.4219302,4.68924 -4.98232,-4.5427 -5.42192,4.39616 -4.83576,-5.12885 4.83576,-4.83577 -5.12884,-7.1804 4.98231,-4.68923 -4.98231,-6.30116 4.98231,-4.24962 -4.98231,-6.15462 7.18039,-6.59424 10.25769,4.83577 10.40424021,-4.68923 11.57654979,4.83577 11.57655,-5.27539 13.04194,5.42193 10.69732,-4.98231 9.52501,4.68923 8.79231,-4.83577 6.30116,4.98231 6.15462,-5.12885 7.1804,5.12885 6.00808,-4.68923 7.18039,4.68923 6.594238,-4.83577 6.88731,4.98231 7.32693,-5.27539 7.91309,5.27539 5.715,-5.12885 5.12885,4.98231 4.83578,-4.98231 5.27539,4.83577 4.98231,-4.68923 5.42193,4.83577 4.54269,-4.83577 5.27539,4.83577 4.68924,-4.98231 5.42193,4.98231 4.98231,-4.83577 5.56847,4.98231 5.86154,-4.98231 4.68924,4.83577 5.12885,-4.98231 4.98231,4.83577 4.83577,-4.39615 4.24962,4.10308 5.71501,-4.39616 7.32693,7.76654 -5.12885,5.71501 4.83577,8.05962 -4.5427,5.71501 4.5427,6.30116 -4.39616,4.68923 4.68924,5.42193 -4.98231,-3.22385 -2.78424,4.5427 -3.81,-4.39616 -4.83578,4.68923 -3.95654,-4.54269 -3.37038,4.54269 -4.24963,-4.68923 -3.22385,4.5427 -3.66346,-4.83578 -4.98231,5.27539 -5.27539,-5.12885 -4.10308,4.83577 -5.27539,-4.98231 -4.68924,5.12885 -6.15462,-4.98231 -4.10308,4.68924 -4.98231,-4.39616 -4.5427,4.54269 -5.27539,-4.83577 -5.27539,5.12885 -6.15462,-5.27539 -4.5427,4.98231 -5.56846,-4.54269 -4.10308,4.39616 -5.71501,-4.98232 -4.98231,5.12885 -4.24962,-4.98231 -5.12885,4.98231 -5.275388,-4.98231 -3.51693,4.83578 -4.83577,-4.83578 -4.83578,5.12885 -6.30116,-5.12885 -4.98231,4.98231 -4.83577,-5.12885 -5.27539,5.42193 -5.42193,-5.12885 -5.42193,4.68924 -5.71501,-4.24962 -6.59423,4.83577 -5.27539,-5.42193 -5.71501,4.83578 -4.68923,-4.5427 -6.30116,4.24962 -6.3011598,-3.95654 -5.86155,4.39615 -4.83577,-4.68923 -6.4477,4.5427 -5.1288502,-4.68924 -5.12886,4.5427 -3.95653,-4.39616 -6.00807,3.81 4.2496,-4.98231 -4.68924,-6.00808 4.98232,-4.5427 -5.12884,-6.4477 4.98231,-4.54269 -4.68923,-5.27539 4.54268,-3.81 -4.68924,-6.30117 3.07732,-2.78423 7.62,5.27539 11.5765602,-5.27539 9.67154,5.12885 12.6023198,-4.83577 12.60232,4.83577 12.60232,-5.12885 9.37847,5.12885 9.52501,-4.83577 7.47347,4.98231 6.00808,-4.98231 6.88732,5.12885 6.88731,-5.27539 6.88732,4.98231 6.740768,-4.83577 6.74078,4.83577 7.62001,-5.42193 7.47346,5.71501 6.15463,-5.27539 5.12885,4.68923 4.68923,-4.54269 5.56847,5.27539 5.56847,-5.42193 4.83577,4.98231 4.5427,-5.12885 4.98231,5.12885 4.68924,-5.12885 5.42192,4.83577 5.56847,-4.54269 5.12885,4.98231 6.88732,-5.12885 4.39615,5.27539 4.98232,-5.27539 4.39615,5.12885 5.42193,-5.12885 4.5427,4.98231 5.56847,-4.83577 3.07731,4.83577 5.56846,-4.10308 -4.24962,8.93886 4.83578,7.32693 -4.98231,7.18039 5.12885,6.30116 -4.83578,5.12885 4.83578,2.05154 -5.56847,7.76654 -4.5427,-4.83577 -3.51692,4.68923 -5.12885,-4.39615 -3.22385,4.39615 -4.39616,-4.83577 -3.07731,4.68924 -3.95654,-4.68924 -4.24962,5.12885 -5.42193,-5.27539"
       style="fill:none;stroke:#000000;stroke-width:0.69999999;stroke-linecap:round;stroke-linejoin:round;stroke-miterlimit:4;stroke-dasharray:none;stroke-opacity:1;filter:url(#filter880)" />
    <path
       style="fill:none;stroke:#000000;stroke-width:0.69999999;stroke-linecap:round;stroke-linejoin:round;stroke-miterlimit:4;stroke-dasharray:none;stroke-opacity:1"
       d="m -22.604678,114.38122 11.86964,-4.98231 8.0596202,5.12885 13.6280898,-5.12885 10.11117,5.12885 13.77463,-5.12885 11.13693,5.12885 9.52501,-5.27539 8.79232,5.27539 7.18039,-5.12885 6.30116,4.98231 5.56846,-4.98231 6.59424,5.12885 7.32693,-5.12885 6.447698,4.98231 7.32693,-5.12885 7.32693,5.27539 6.88731,-5.27539 6.88732,5.27539 4.54269,-5.27539 5.27539,5.12885 4.98232,-5.12885 4.68923,5.27539 5.27539,-5.27539 5.56847,5.27539 4.5427,-5.12885 5.42193,4.83577 5.27538,-4.83577 5.27539,5.12885 6.30116,-4.98231 4.5427,4.98231 5.56847,-5.27539 4.24962,4.98231 5.12885,-4.54269 4.83577,4.68923 5.42193,-4.83577 4.10308,4.83577 5.56847,-4.98231 2.19808,2.19808 -4.98232,4.98231 4.83578,6.88732 -4.98231,6.4477 4.98231,7.76654 -4.98231,5.71501 4.98231,7.91308 -3.22385,3.66346 -4.39616,-4.83577 -3.95654,4.68923 -4.83578,-5.12885 -3.81,4.98232 -4.10308,-4.5427 -2.78423,4.39616 -4.10309,-4.39616 -4.10307,4.83577 -4.83578,-4.98231 -4.10308,5.12885 -6.4477,-5.42193 -3.66346,4.98232 -5.86155,-4.98232 -4.68923,5.12885 -5.56847,-4.54269 -3.66347,4.24962 -4.98231,-4.68924 -4.39616,4.83578 -6.00808,-4.5427 -5.86154,4.68923 -4.83578,-4.68923 -4.98231,4.83577 -5.56847,-5.12885 -4.54269,4.83578 -4.5427,-4.83578 -4.83577,4.98231 -4.98231,-5.12885 -5.275398,4.98232 -3.95654,-4.5427 -4.98231,4.5427 -5.27539,-4.68924 -4.68924,4.83577 -5.12885,-4.83577 -5.27538,4.68924 -5.56847,-4.68924 -6.00808,4.68924 -5.27539,-4.5427 -6.88732,4.68923 -5.42193,-4.98231 -4.98231,4.83578 -4.98231,-4.5427 -5.71501,4.39616 -5.56847,-4.68924 -5.56846,4.5427 -5.7150098,-4.24962 -6.4477,4.68923 -5.86154,-4.83577 -5.4219302,4.68924 -4.98232,-4.5427 -5.42192,4.39616 -4.83576,-5.12885 4.83576,-4.83577 -5.12884,-7.1804 4.98231,-4.68923 -4.98231,-6.30116 4.98231,-4.24962 -4.98231,-6.15462 7.18039,-6.59424 10.25769,4.83577 10.40424021,-4.68923 11.57654979,4.83577 11.57655,-5.27539 13.04194,5.42193 10.69732,-4.98231 9.52501,4.68923 8.79231,-4.83577 6.30116,4.98231 6.15462,-5.12885 7.1804,5.12885 6.00808,-4.68923 7.18039,4.68923 6.594238,-4.83577 6.88731,4.98231 7.32693,-5.27539 7.91309,5.27539 5.715,-5.12885 5.12885,4.98231 4.83578,-4.98231 5.27539,4.83577 4.98231,-4.68923 5.42193,4.83577 4.54269,-4.83577 5.27539,4.83577 4.68924,-4.98231 5.42193,4.98231 4.98231,-4.83577 5.56847,4.98231 5.86154,-4.98231 4.68924,4.83577 5.12885,-4.98231 4.98231,4.83577 4.83577,-4.39615 4.24962,4.10308 5.71501,-4.39616 7.32693,7.76654 -5.12885,5.71501 4.83577,8.05962 -4.5427,5.71501 4.5427,6.30116 -4.39616,4.68923 4.68924,5.42193 -4.98231,-3.22385 -2.78424,4.5427 -3.81,-4.39616 -4.83578,4.68923 -3.95654,-4.54269 -3.37038,4.54269 -4.24963,-4.68923 -3.22385,4.5427 -3.66346,-4.83578 -4.98231,5.27539 -5.27539,-5.12885 -4.10308,4.83577 -5.27539,-4.98231 -4.68924,5.12885 -6.15462,-4.98231 -4.10308,4.68924 -4.98231,-4.39616 -4.5427,4.54269 -5.27539,-4.83577 -5.27539,5.12885 -6.15462,-5.27539 -4.5427,4.98231 -5.56846,-4.54269 -4.10308,4.39616 -5.71501,-4.98232 -4.98231,5.12885 -4.24962,-4.98231 -5.12885,4.98231 -5.275388,-4.98231 -3.51693,4.83578 -4.83577,-4.83578 -4.83578,5.12885 -6.30116,-5.12885 -4.98231,4.98231 -4.83577,-5.12885 -5.27539,5.42193 -5.42193,-5.12885 -5.42193,4.68924 -5.71501,-4.24962 -6.59423,4.83577 -5.27539,-5.42193 -5.71501,4.83578 -4.68923,-4.5427 -6.30116,4.24962 -6.3011598,-3.95654 -5.86155,4.39615 -4.83577,-4.68923 -6.4477,4.5427 -5.1288502,-4.68924 -5.12886,4.5427 -3.95653,-4.39616 -6.00807,3.81 4.2496,-4.98231 -4.68924,-6.00808 4.98232,-4.5427 -5.12884,-6.4477 4.98231,-4.54269 -4.68923,-5.27539 4.54268,-3.81 -4.68924,-6.30117 3.07732,-2.78423 7.62,5.27539 11.5765602,-5.27539 9.67154,5.12885 12.6023198,-4.83577 12.60232,4.83577 12.60232,-5.12885 9.37847,5.12885 9.52501,-4.83577 7.47347,4.98231 6.00808,-4.98231 6.88732,5.12885 6.88731,-5.27539 6.88732,4.98231 6.740768,-4.83577 6.74078,4.83577 7.62001,-5.42193 7.47346,5.71501 6.15463,-5.27539 5.12885,4.68923 4.68923,-4.54269 5.56847,5.27539 5.56847,-5.42193 4.83577,4.98231 4.5427,-5.12885 4.98231,5.12885 4.68924,-5.12885 5.42192,4.83577 5.56847,-4.54269 5.12885,4.98231 6.88732,-5.12885 4.39615,5.27539 4.98232,-5.27539 4.39615,5.12885 5.42193,-5.12885 4.5427,4.98231 5.56847,-4.83577 3.07731,4.83577 5.56846,-4.10308 -4.24962,8.93886 4.83578,7.32693 -4.98231,7.18039 5.12885,6.30116 -4.83578,5.12885 4.83578,2.05154 -5.56847,7.76654 -4.5427,-4.83577 -3.51692,4.68923 -5.12885,-4.39615 -3.22385,4.39615 -4.39616,-4.83577 -3.07731,4.68924 -3.95654,-4.68924 -4.24962,5.12885 -5.42193,-5.27539"
       id="path864"
       inkscape:connector-curvature="0" />
  </g>
</svg>
