<?xml version="1.0" encoding="UTF-8" standalone="no"?>
<!-- Created with Inkscape (http://www.inkscape.org/) -->

<svg
   xmlns:dc="http://purl.org/dc/elements/1.1/"
   xmlns:cc="http://creativecommons.org/ns#"
   xmlns:rdf="http://www.w3.org/1999/02/22-rdf-syntax-ns#"
   xmlns:svg="http://www.w3.org/2000/svg"
   xmlns="http://www.w3.org/2000/svg"
   xmlns:sodipodi="http://sodipodi.sourceforge.net/DTD/sodipodi-0.dtd"
   xmlns:inkscape="http://www.inkscape.org/namespaces/inkscape"
   width="210mm"
   height="297mm"
   viewBox="0 0 210 297"
   version="1.1"
   id="svg10282"
   inkscape:version="0.92.2 2405546, 2018-03-11"
   sodipodi:docname="calendar.svg">
  <defs
     id="defs10276" />
  <sodipodi:namedview
     id="base"
     pagecolor="#ffffff"
     bordercolor="#666666"
     borderopacity="1.0"
     inkscape:pageopacity="0.0"
     inkscape:pageshadow="2"
     inkscape:zoom="0.7"
     inkscape:cx="210.70376"
     inkscape:cy="437.1447"
     inkscape:document-units="mm"
     inkscape:current-layer="layer1"
     showgrid="false"
     inkscape:window-width="1920"
     inkscape:window-height="1039"
     inkscape:window-x="1920"
     inkscape:window-y="0"
     inkscape:window-maximized="1"
     inkscape:object-nodes="false" />
  <metadata
     id="metadata10279">
    <rdf:RDF>
      <cc:Work
         rdf:about="">
        <dc:format>image/svg+xml</dc:format>
        <dc:type
           rdf:resource="http://purl.org/dc/dcmitype/StillImage" />
        <dc:title></dc:title>
      </cc:Work>
    </rdf:RDF>
  </metadata>
  <g
     inkscape:label="Layer 1"
     inkscape:groupmode="layer"
     id="layer1">
    <path
       style="fill:none;stroke:#000000;stroke-width:2;stroke-linecap:round;stroke-linejoin:round;stroke-opacity:1;stroke-miterlimit:4;stroke-dasharray:none"
       d="m 33.639881,95.538688 -22.86756,39.876492 11.339286,30.0491 -11.339286,33.82887 11.150298,23.43453 -11.231838,15.47302 1.870887,2.40543 10.872856,-11.45286 12.284226,11.52827 14.741072,-11.52827 16.252976,10.96131 14.174107,-10.96131 17.008927,11.33929 13.040178,-11.33929 12.85119,11.52827 10.39435,-11.71726 11.52827,11.52828 10.39434,-11.52828 10.01637,11.52828 7.74852,-8.12649 -11.52828,-13.79613 11.33929,-13.04018 -11.71726,-15.49702 11.90625,-12.8512 -11.71727,-17.3869 11.52828,-10.20536 -11.71726,-12.28422 11.71726,-11.33929 -24.19048,-19.65476 24.19048,-8.88244 -1.32292,-2.456844 -22.11161,7.748514 23.43453,8.50446 -76.351193,24.19048 -86.934522,-14.55209 25.513394,-10.96131 -25.513394,-7.9375 12.662202,-7.181543 11.339286,9.638393 -23.623512,46.1131 11.528274,26.08035 -11.528274,32.31696 17.575894,31.56102 13.796129,-11.33929 14.552083,11.52827 15.686013,-11.52827 15.497024,11.33929 14.363096,-11.52828 14.55208,12.09524 11.1503,-12.09524 12.47321,12.09524 10.96131,-11.71726 8.69345,10.77232 13.41816,-13.98512 -11.52827,-13.79613 11.90625,-12.6622 -11.90625,-15.68601 11.71726,-11.52828 -11.71726,-17.00893 11.90625,-10.96131 -28.91518,-30.61607 28.34821,-6.80357 -16.25297,-11.906247 -6.4256,3.023809 23.05655,18.709818 -35.90774,18.52084 -72.193453,-24.37947 1.133931,24.37947 3.590774,-40.632443 6.614583,40.254463 6.236605,-40.065474 7.370537,40.632434 7.181546,-40.821423 7.748517,40.821423 3.96875,-40.632434 9.26041,40.443454 6.61459,-18.70983 5.85863,18.89881 6.42559,-17.95386 8.69345,18.14285 8.31548,-40.821424 7.37054,40.821424 6.61458,-40.821424 5.29167,66.712794 -11.52828,41.57738 11.52828,32.31697 -4.15774,5.10267 -9.44941,-11.90625 -9.26041,11.71727 -10.58334,-11.1503 -9.63839,11.1503 -10.96131,-11.33929 -11.90625,11.52827 -14.174107,-11.52827 -14.74107,10.96131 -14.930059,-11.33929 -16.81994,11.90625 -12.851191,-11.33928 -12.473214,10.96131 -10.96131,-15.30804 11.150298,-12.85119 -11.339286,-24.19047 11.528274,-17.76488 -11.90625,-26.64733 31.749999,-27.97023 10.961311,20.03273 25.324403,-40.632434 23.245532,40.443454 17.38691,-24.19048 7.55952,24.37946 8.31548,-17.3869 7.9375,17.19792 20.78869,-40.065478 10.01637,94.305058 -11.71726,36.28571 11.88735,14.77886 -11.50938,-45.20594 11.33929,-13.41815 L 162.15178,170 173.49107,155.44791 161.9628,145.43155 173.30208,134.65923 69.169642,101.39732 91.09226,95.160713 l 24.00149,5.291667 -54.428573,34.58482 -49.51488,-18.89881 22.489584,-15.68601 -21.166667,-5.669643 -1.700893,2.267857 30.80506,38.175596 14.74107,-17.76488 15.875,18.33184 15.686013,-40.821424 20.788686,40.632434 13.79613,-20.5997 10.20536,20.97768 9.07143,-20.22173 12.47321,20.59971 19.27679,-14.55209 L 150.8125,104.7991 173.30208,100.26339 160.07291,95.160713 135.31547,135.22619 104.32143,95.349702 85.233631,135.98214 60.665177,115.9494 49.325892,135.60416 38.742559,113.30357 10.394345,107.44494 33.639881,98.373511 29.482142,94.782737 10.961309,126.53274 l 10.96131,11.52827 -11.150298,16.44197 11.150298,29.86011 -11.339286,30.61607 15.119048,25.32441 13.796129,-11.33929 21.922621,11.1503 15.119045,-10.58333 17.00893,11.33928"
       id="path11010"
       inkscape:connector-curvature="0" />
    <path
       style="fill:none;stroke:#000000;stroke-width:2;stroke-linecap:round;stroke-linejoin:round;stroke-opacity:1;stroke-miterlimit:4;stroke-dasharray:none"
       d="m 40.254465,175.29166 8.504462,15.68602 9.449406,-7.37054 -3.96875,-8.31548 -14.174108,9.26042 4.346726,6.80357 13.607142,-10.39434 -2.83482,-5.85863 -15.874999,14.74107 2.267857,1.70089 16.819941,-13.79613 -9.827382,-2.07887 -8.693451,5.48065 15.119045,9.82739 3.212799,-3.02381 -13.985119,-13.04018 -4.157739,3.77976 18.331847,12.85119 -12.662204,-16.81994 -5.480653,12.6622"
       id="path11012"
       inkscape:connector-curvature="0" />
    <path
       style="fill:none;stroke:#000000;stroke-width:2;stroke-linecap:round;stroke-linejoin:round;stroke-opacity:1;stroke-miterlimit:4;stroke-dasharray:none"
       d="m 39.49851,202.69494 18.709823,16.25297 -2.834823,-16.06398 -4.724701,15.68601 -5.102678,-15.875 -5.669642,14.36309 2.645833,2.07887 6.80357,-16.44196 4.724701,15.875 3.779764,-9.6384 -5.291667,-6.99255 -5.669642,16.81994 -7.370538,-9.82739 3.590774,-6.2366 15.308038,11.52827 -5.669645,4.53572 -12.851188,-12.85119 18.520833,-1.88989 -4.157739,-1.5119"
       id="path11014"
       inkscape:connector-curvature="0" />
    <path
       style="fill:none;stroke:#000000;stroke-width:2;stroke-linecap:round;stroke-linejoin:round;stroke-opacity:1;stroke-miterlimit:4;stroke-dasharray:none"
       d="m 69.547617,218.56994 13.985121,-15.875 4.157737,3.77976 -10.583333,12.47321 -8.504465,-6.61458 6.803572,-9.63839 12.095239,10.77232 -4.913691,5.48065 -13.796131,-12.28422 3.401785,-4.15774 15.308037,13.98512 -1.700895,2.26786 -16.819938,-15.11905 1.322917,-0.94494 17.386903,16.25297 -19.087798,-10.77232 4.535715,10.58334 7.370534,-15.875 3.96875,15.875 2.078871,-15.875 0.944941,15.30803"
       id="path11016"
       inkscape:connector-curvature="0" />
    <path
       style="fill:none;stroke:#000000;stroke-width:2;stroke-linecap:round;stroke-linejoin:round;stroke-opacity:1;stroke-miterlimit:4;stroke-dasharray:none"
       d="m 69.169642,175.48065 4.535715,15.875 5.102677,-16.44196 4.724704,16.63095 3.590772,-8.31548 -3.779761,-7.74851 -5.291667,16.06399 -4.157739,-16.63095 -4.535712,16.44196 18.331844,-3.59077 -18.898809,-6.99256 18.142857,-5.29167 -5.858632,16.06399 -9.260416,-16.25298 -3.212798,10.20536 3.023811,5.66964"
       id="path11018"
       inkscape:connector-curvature="0" />
    <path
       style="fill:none;stroke:#000000;stroke-width:2;stroke-linecap:round;stroke-linejoin:round;stroke-opacity:1;stroke-miterlimit:4;stroke-dasharray:none"
       d="m 69.358631,164.33035 17.764879,-8.12648 -7.9375,-7.74852 -10.205355,3.59078 14.930059,12.09524 3.401785,-2.07887 -16.063989,-13.60715 -2.456844,1.7009 5.291666,14.36309 3.779761,-16.25297 5.10268,16.44196 4.157737,-15.875 -10.016368,15.30804 -8.126487,-5.66964 14.174105,-9.6384 4.535715,5.66965 -7.559524,9.63839 -10.961309,-8.12649 11.717263,-7.74851 6.80357,10.96131 -1.511904,5.48065"
       id="path11020"
       inkscape:connector-curvature="0" />
    <path
       style="fill:none;stroke:#000000;stroke-width:2;stroke-linecap:round;stroke-linejoin:round;stroke-opacity:1;stroke-miterlimit:4;stroke-dasharray:none"
       d="m 114.52678,148.45535 -15.874996,10.01638 4.535716,6.04761 13.60714,-9.63839 -17.953867,-6.04762 1.133927,15.11905 4.91369,-15.68601 3.59078,16.25297 2.45684,-16.44196 3.02381,16.25297 2.83482,-15.875 0.18899,15.875 -18.331846,-10.39434 10.016366,-5.48066 8.50447,2.83483 -16.25298,13.60714"
       id="path11022"
       inkscape:connector-curvature="0" />
    <path
       style="fill:none;stroke:#000000;stroke-width:2;stroke-linecap:round;stroke-linejoin:round;stroke-opacity:1;stroke-miterlimit:4;stroke-dasharray:none"
       d="m 98.462797,177.55952 3.590773,-2.26786 10.20536,16.63096 4.15774,-3.40179 -7.9375,-13.22917 -9.827386,7.37054 4.157736,8.69345 14.3631,-8.50446 -4.15774,-7.37054 -14.174107,11.1503 1.322917,4.53571 3.2128,-15.49702 3.40178,15.49702 3.96875,-15.49702 4.15774,16.06399 2.07887,-13.22917 -1.51191,-3.40178 -6.80357,16.06398 -9.449401,-15.49702 -0.377976,4.53571 6.236607,10.58334 1.32292,-15.49703"
       id="path11024"
       inkscape:connector-curvature="0" />
    <path
       style="fill:none;stroke:#000000;stroke-width:2;stroke-linecap:round;stroke-linejoin:round;stroke-opacity:1;stroke-miterlimit:4;stroke-dasharray:none"
       d="m 103.1875,202.69494 5.66964,16.44196 4.91369,-16.25297 3.02381,6.80357 -3.96875,9.07143 -14.552082,-4.34673 18.520832,-7.37054 -8.50446,-4.53571 -9.827383,5.85863 5.669643,10.39435 12.85119,-5.10268 -18.709822,-10.77232 8.693452,16.06398 9.63839,-15.49702 0.18899,15.49702 -18.331843,-1.5119 18.520833,-4.53572 -11.52827,-10.01636"
       id="path11026"
       inkscape:connector-curvature="0" />
    <path
       style="fill:none;stroke:#000000;stroke-width:2;stroke-linecap:round;stroke-linejoin:round;stroke-opacity:1;stroke-miterlimit:4;stroke-dasharray:none"
       d="m 127.37797,161.49553 14.74108,-12.85119 2.64583,5.85864 -7.55952,9.82737 -10.96131,-8.69345 6.04761,-7.18155 12.47322,11.1503 -3.02381,4.7247 -15.875,-14.55208 1.70089,-1.88988 16.81994,16.06399 -5.48065,-15.30804 -6.04762,15.68601 -3.02381,-15.68601 -3.2128,15.49703 -0.56696,-5.85863 9.4494,-9.82739 3.59078,16.06399 5.29166,-7.74851 -7.37053,-8.31548 -6.4256,15.875 -3.96875,-11.33928"
       id="path11028"
       inkscape:connector-curvature="0" />
    <path
       style="fill:none;stroke:#000000;stroke-width:2;stroke-linecap:round;stroke-linejoin:round;stroke-opacity:1;stroke-miterlimit:4;stroke-dasharray:none"
       d="m 126.81101,175.10268 17.3869,3.96875 -17.95386,7.74851 10.20535,4.53571 8.12649,-3.96875 -18.70982,-7.37053 10.20536,-4.91369 8.69345,6.61458 -18.89881,9.63839 5.10268,-16.06399 9.26041,15.875 4.53572,-6.99256 -3.02381,-9.07142 -9.07143,16.63095 -6.04762,-8.31548 5.66964,-7.55952 11.90625,15.875 -4.91369,-16.63095 -9.4494,16.44196 -3.59077,-14.3631 2.83482,-1.70089 9.07143,16.44197"
       id="path11030"
       inkscape:connector-curvature="0" />
    <path
       style="fill:none;stroke:#000000;stroke-width:2;stroke-linecap:round;stroke-linejoin:round;stroke-opacity:1;stroke-miterlimit:4;stroke-dasharray:none"
       d="m 144.3869,210.06547 -18.14285,6.99256 4.34672,1.7009 6.04762,-15.68602 6.04762,16.06399 1.88988,-3.59077 -18.33184,-12.85119 v 7.37053 l 11.33928,8.50447 6.4256,-15.30804 -17.5759,10.58334 7.9375,4.7247 9.82738,-5.85863 -12.6622,-10.01637 -5.66964,4.34672 14.36309,11.52828 -0.75595,-15.875 5.10268,16.81994"
       id="path11032"
       inkscape:connector-curvature="0" />
    <path
       style="fill:none;stroke:#000000;stroke-width:2;stroke-linecap:round;stroke-linejoin:round;stroke-opacity:1;stroke-miterlimit:4;stroke-dasharray:none"
       d="m 132.66964,75.316963 c -0.94494,0 -11.1503,9.638392 -11.1503,9.638392 l 18.33185,22.111605 4.53571,-6.23661 -17.95387,-23.434519 -3.77976,3.779763 20.03274,24.001486 -0.75595,-25.702378 -4.91369,-3.401788 -15.68601,19.654764 11.52827,14.930062 11.90625,-14.741076 -15.875,-20.599701 -7.55952,14.552083 16.06398,19.276784 1.88988,-32.127975 -14.55208,30.049105 19.84375,-19.087796 -14.55208,-12.851188 -8.50447,27.781254 6.99256,6.42559 15.68601,-17.575892 -9.4494,-16.441965 -10.96131,29.860117 20.22173,-22.300593 -8.69346,26.836313 -13.98511,-17.197921"
       id="path11034"
       inkscape:connector-curvature="0" />
    <path
       style="fill:none;stroke:#000000;stroke-width:2;stroke-linecap:round;stroke-linejoin:round;stroke-opacity:1;stroke-miterlimit:4;stroke-dasharray:none"
       d="m 63.122023,85.144344 -22.678572,17.008926 10.016371,8.12649 11.150296,-6.99256 -20.032737,-22.111606 5.858629,-5.480655 8.504465,0.377975 6.992559,17.575895 -17.008927,15.686011 -5.669642,-19.465774 11.339284,-14.930059 6.992559,32.694943 -3.77976,0.94494 -10.772323,-30.049109 19.087798,10.016368 -23.245534,9.827382 19.843749,7.559519 -17.197916,-28.537199 -2.078871,7.748513 12.851191,24.946426 6.803572,-30.805057 2.267858,19.087798 -4.157739,8.504469 -17.764882,-24.190482 13.229167,-7.9375 9.260416,13.607145 L 49.703868,109.7128 40.065475,94.971726 58.397322,77.395831 62.366072,101.39732 52.916666,109.7128 54.617558,75.127976 42.522322,105.74405 62.744048,90.436011 39.6875,84.199404 62.366072,100.64137"
       id="path11036"
       inkscape:connector-curvature="0" />
  </g>
</svg>
