<?xml version="1.0" encoding="UTF-8" standalone="no"?>
<!-- Created with Inkscape (http://www.inkscape.org/) -->

<svg
   xmlns:dc="http://purl.org/dc/elements/1.1/"
   xmlns:cc="http://creativecommons.org/ns#"
   xmlns:rdf="http://www.w3.org/1999/02/22-rdf-syntax-ns#"
   xmlns:svg="http://www.w3.org/2000/svg"
   xmlns="http://www.w3.org/2000/svg"
   xmlns:sodipodi="http://sodipodi.sourceforge.net/DTD/sodipodi-0.dtd"
   xmlns:inkscape="http://www.inkscape.org/namespaces/inkscape"
   width="59.723351mm"
   height="184.47998mm"
   viewBox="0 0 59.723351 184.47998"
   version="1.1"
   id="svg8"
   inkscape:version="0.92.4 5da689c313, 2019-01-14"
   sodipodi:docname="chaves.svg">
  <defs
     id="defs2">
    <filter
       inkscape:collect="always"
       style="color-interpolation-filters:sRGB"
       id="filter1250"
       x="-0.051656652"
       width="1.1033133"
       y="-0.015631169"
       height="1.0312623">
      <feGaussianBlur
         inkscape:collect="always"
         stdDeviation="1.1650923"
         id="feGaussianBlur1252" />
    </filter>
  </defs>
  <sodipodi:namedview
     id="base"
     pagecolor="#ffffff"
     bordercolor="#666666"
     borderopacity="1.0"
     inkscape:pageopacity="0.0"
     inkscape:pageshadow="2"
     inkscape:zoom="0.80530071"
     inkscape:cx="90.628892"
     inkscape:cy="278.24858"
     inkscape:document-units="mm"
     inkscape:current-layer="layer1"
     showgrid="false"
     inkscape:window-width="1920"
     inkscape:window-height="1039"
     inkscape:window-x="0"
     inkscape:window-y="0"
     inkscape:window-maximized="1"
     inkscape:object-nodes="false"
     fit-margin-top="0"
     fit-margin-left="0"
     fit-margin-right="0"
     fit-margin-bottom="0" />
  <metadata
     id="metadata5">
    <rdf:RDF>
      <cc:Work
         rdf:about="">
        <dc:format>image/svg+xml</dc:format>
        <dc:type
           rdf:resource="http://purl.org/dc/dcmitype/StillImage" />
        <dc:title></dc:title>
      </cc:Work>
    </rdf:RDF>
  </metadata>
  <g
     inkscape:label="Layer 1"
     inkscape:groupmode="layer"
     id="layer1"
     transform="translate(-64.112371,-47.942987)">
    <g
       id="g1256">
      <path
         style="fill:none;stroke:#000000;stroke-width:1;stroke-linecap:round;stroke-linejoin:round;stroke-miterlimit:4;stroke-dasharray:none;stroke-opacity:1;filter:url(#filter1250)"
         d="m 66.908592,214.52587 12.080716,15.10089 5.808038,-20.44429 16.727144,-14.40393 -15.797859,-16.72715 16.727149,-12.31304 -9.29286,-16.95947 27.41394,-9.52518 -12.54536,-11.15143 H 90.605384 L 102.6861,116.48619 86.423597,111.60744 101.75681,98.829758 85.726631,91.395472 101.29217,79.082431 81.777167,67.698677 76.666094,51.203851 71.555022,65.375464 66.908592,50.739209 V 65.607786 L 72.71663,50.971531 78.060022,66.537072 90.140741,53.99171 85.261989,71.415822 101.05985,71.648144 86.191274,81.87029 l 15.565536,8.131251 -16.030179,10.222149 16.030179,8.59589 -13.474642,11.61608 16.262502,2.55554 -6.96964,12.77768 18.12107,-4.18179 5.11108,16.26251 -0.46464,-15.33322 -15.56554,7.89893 4.64643,11.38375 -21.141262,7.89893 13.242322,19.51501 -15.565536,12.08072 13.93929,20.67661 -17.656434,0.92928 -7.666609,16.26251 -7.434289,-3.71714 7.434289,-11.15144 13.010004,13.24233 -0.232323,-60.40359 17.888758,-9.29286 -6.969647,-13.93929 -8.363574,10.22215 12.080721,17.19179 -16.262509,13.47464 16.030179,18.58572 -7.898924,19.74733 -26.949294,-2.55554 32.060366,-4.18178 -12.777684,-12.54537 16.030186,-5.57571 -17.424114,-10.22215 17.424114,-3.02017 -15.565541,-11.61608 15.797861,-10.45447 -1.16161,-20.90893 12.54536,7.20196 0.46465,-17.88875 2.78786,16.95947 3.94946,-6.04036 -19.05036,-3.02018 4.18178,-13.24233 L 88.979133,124.38512 102.22146,112.07209 85.958954,105.56708 101.52449,93.718686 86.655919,86.052077 101.05985,74.900646 H 86.191274 L 96.645742,60.729034 83.635738,69.324928 83.171095,51.900817 75.039843,65.840106 67.140912,60.961354 94.090206,57.476532 98.968958,67.931 86.655919,78.617788 l 14.868571,6.040361 -15.100893,11.616073 15.565543,6.969648 -14.636258,13.24232 15.797868,2.32322 -9.060544,13.93929 16.262504,-2.32322 0.23232,19.97965 -20.211969,2.78786 11.383749,36.24215 -18.121072,39.49466 -12.545359,-14.40393 -4.181787,14.40393 24.161435,-3.48482 -2.090894,-69.23181"
         id="path1244"
         inkscape:connector-curvature="0" />
      <path
         inkscape:connector-curvature="0"
         id="path1242"
         d="m 66.908592,214.52587 12.080716,15.10089 5.808038,-20.44429 16.727144,-14.40393 -15.797859,-16.72715 16.727149,-12.31304 -9.29286,-16.95947 27.41394,-9.52518 -12.54536,-11.15143 H 90.605384 L 102.6861,116.48619 86.423597,111.60744 101.75681,98.829758 85.726631,91.395472 101.29217,79.082431 81.777167,67.698677 76.666094,51.203851 71.555022,65.375464 66.908592,50.739209 V 65.607786 L 72.71663,50.971531 78.060022,66.537072 90.140741,53.99171 85.261989,71.415822 101.05985,71.648144 86.191274,81.87029 l 15.565536,8.131251 -16.030179,10.222149 16.030179,8.59589 -13.474642,11.61608 16.262502,2.55554 -6.96964,12.77768 18.12107,-4.18179 5.11108,16.26251 -0.46464,-15.33322 -15.56554,7.89893 4.64643,11.38375 -21.141262,7.89893 13.242322,19.51501 -15.565536,12.08072 13.93929,20.67661 -17.656434,0.92928 -7.666609,16.26251 -7.434289,-3.71714 7.434289,-11.15144 13.010004,13.24233 -0.232323,-60.40359 17.888758,-9.29286 -6.969647,-13.93929 -8.363574,10.22215 12.080721,17.19179 -16.262509,13.47464 16.030179,18.58572 -7.898924,19.74733 -26.949294,-2.55554 32.060366,-4.18178 -12.777684,-12.54537 16.030186,-5.57571 -17.424114,-10.22215 17.424114,-3.02017 -15.565541,-11.61608 15.797861,-10.45447 -1.16161,-20.90893 12.54536,7.20196 0.46465,-17.88875 2.78786,16.95947 3.94946,-6.04036 -19.05036,-3.02018 4.18178,-13.24233 L 88.979133,124.38512 102.22146,112.07209 85.958954,105.56708 101.52449,93.718686 86.655919,86.052077 101.05985,74.900646 H 86.191274 L 96.645742,60.729034 83.635738,69.324928 83.171095,51.900817 75.039843,65.840106 67.140912,60.961354 94.090206,57.476532 98.968958,67.931 86.655919,78.617788 l 14.868571,6.040361 -15.100893,11.616073 15.565543,6.969648 -14.636258,13.24232 15.797868,2.32322 -9.060544,13.93929 16.262504,-2.32322 0.23232,19.97965 -20.211969,2.78786 11.383749,36.24215 -18.121072,39.49466 -12.545359,-14.40393 -4.181787,14.40393 24.161435,-3.48482 -2.090894,-69.23181"
         style="fill:none;stroke:#000000;stroke-width:1;stroke-linecap:round;stroke-linejoin:round;stroke-miterlimit:4;stroke-dasharray:none;stroke-opacity:1" />
    </g>
  </g>
</svg>
