<?xml version="1.0" encoding="UTF-8" standalone="no"?>
<!-- Created with Inkscape (http://www.inkscape.org/) -->

<svg
   xmlns:dc="http://purl.org/dc/elements/1.1/"
   xmlns:cc="http://creativecommons.org/ns#"
   xmlns:rdf="http://www.w3.org/1999/02/22-rdf-syntax-ns#"
   xmlns:svg="http://www.w3.org/2000/svg"
   xmlns="http://www.w3.org/2000/svg"
   xmlns:sodipodi="http://sodipodi.sourceforge.net/DTD/sodipodi-0.dtd"
   xmlns:inkscape="http://www.inkscape.org/namespaces/inkscape"
   width="210mm"
   height="297mm"
   viewBox="0 0 210 297"
   version="1.1"
   id="svg3089"
   inkscape:version="0.92.2 2405546, 2018-03-11"
   sodipodi:docname="cv.svg">
  <defs
     id="defs3083">
    <filter
       height="1.0423273"
       y="-0.021163634"
       width="1.0278802"
       x="-0.01394012"
       id="filter1028"
       style="color-interpolation-filters:sRGB"
       inkscape:collect="always">
      <feGaussianBlur
         id="feGaussianBlur1030"
         stdDeviation="0.51850287"
         inkscape:collect="always" />
    </filter>
    <filter
       height="1.0733228"
       y="-0.036661417"
       width="1.2623099"
       x="-0.13115496"
       id="filter1032"
       style="color-interpolation-filters:sRGB"
       inkscape:collect="always">
      <feGaussianBlur
         id="feGaussianBlur1034"
         stdDeviation="0.51850287"
         inkscape:collect="always" />
    </filter>
    <filter
       height="1.2586667"
       y="-0.12933337"
       width="1.194"
       x="-0.096999985"
       id="filter1036"
       style="color-interpolation-filters:sRGB"
       inkscape:collect="always">
      <feGaussianBlur
         id="feGaussianBlur1038"
         stdDeviation="0.51850287"
         inkscape:collect="always" />
    </filter>
    <filter
       height="1.039126"
       y="-0.019563024"
       width="1.0476317"
       x="-0.023815856"
       id="filter1040"
       style="color-interpolation-filters:sRGB"
       inkscape:collect="always">
      <feGaussianBlur
         id="feGaussianBlur1042"
         stdDeviation="0.51850287"
         inkscape:collect="always" />
    </filter>
    <filter
       height="1.0208393"
       y="-0.010419643"
       width="1.0282909"
       x="-0.014145455"
       id="filter3075"
       style="color-interpolation-filters:sRGB"
       inkscape:collect="always">
      <feGaussianBlur
         id="feGaussianBlur3077"
         stdDeviation="0.55137275"
         inkscape:collect="always" />
    </filter>
    <filter
       inkscape:collect="always"
       style="color-interpolation-filters:sRGB"
       id="filter3934"
       x="-0.021806681"
       width="1.0436134"
       y="-0.21758755"
       height="1.4351751">
      <feGaussianBlur
         inkscape:collect="always"
         stdDeviation="0.77959427"
         id="feGaussianBlur3936" />
    </filter>
    <filter
       inkscape:collect="always"
       style="color-interpolation-filters:sRGB"
       id="filter3938"
       x="-0.021830726"
       width="1.0436615"
       y="-0.21522243"
       height="1.4304449">
      <feGaussianBlur
         inkscape:collect="always"
         stdDeviation="0.77959427"
         id="feGaussianBlur3940" />
    </filter>
    <filter
       inkscape:collect="always"
       style="color-interpolation-filters:sRGB"
       id="filter3942"
       x="-0.021782693"
       width="1.0435654"
       y="-0.19800471"
       height="1.3960094">
      <feGaussianBlur
         inkscape:collect="always"
         stdDeviation="0.77959427"
         id="feGaussianBlur3944" />
    </filter>
    <filter
       inkscape:collect="always"
       style="color-interpolation-filters:sRGB"
       id="filter3946"
       x="-0.013410963"
       width="1.0268219"
       y="-0.21540067"
       height="1.4308013">
      <feGaussianBlur
         inkscape:collect="always"
         stdDeviation="0.77959427"
         id="feGaussianBlur3948" />
    </filter>
    <filter
       inkscape:collect="always"
       style="color-interpolation-filters:sRGB"
       id="filter3950"
       x="-0.013527579"
       width="1.0270552"
       y="-0.21158475"
       height="1.4231695">
      <feGaussianBlur
         inkscape:collect="always"
         stdDeviation="0.77959427"
         id="feGaussianBlur3952" />
    </filter>
    <filter
       inkscape:collect="always"
       style="color-interpolation-filters:sRGB"
       id="filter3954"
       x="-0.023257549"
       width="1.0465151"
       y="-0.22952533"
       height="1.4590507">
      <feGaussianBlur
         inkscape:collect="always"
         stdDeviation="0.77959427"
         id="feGaussianBlur3956" />
    </filter>
    <filter
       inkscape:collect="always"
       style="color-interpolation-filters:sRGB"
       id="filter3958"
       x="-0.023676956"
       width="1.0473539"
       y="-0.21540067"
       height="1.4308013">
      <feGaussianBlur
         inkscape:collect="always"
         stdDeviation="0.77959427"
         id="feGaussianBlur3960" />
    </filter>
  </defs>
  <sodipodi:namedview
     id="base"
     pagecolor="#ffffff"
     bordercolor="#666666"
     borderopacity="1.0"
     inkscape:pageopacity="0.0"
     inkscape:pageshadow="2"
     inkscape:zoom="0.7"
     inkscape:cx="-143.37488"
     inkscape:cy="652.91787"
     inkscape:document-units="mm"
     inkscape:current-layer="layer1"
     showgrid="false"
     inkscape:window-width="1920"
     inkscape:window-height="1039"
     inkscape:window-x="0"
     inkscape:window-y="0"
     inkscape:window-maximized="1"
     inkscape:object-nodes="false" />
  <metadata
     id="metadata3086">
    <rdf:RDF>
      <cc:Work
         rdf:about="">
        <dc:format>image/svg+xml</dc:format>
        <dc:type
           rdf:resource="http://purl.org/dc/dcmitype/StillImage" />
        <dc:title />
      </cc:Work>
    </rdf:RDF>
  </metadata>
  <g
     inkscape:label="Layer 1"
     inkscape:groupmode="layer"
     id="layer1">
    <path
       inkscape:connector-curvature="0"
       id="path3892"
       d="m 101.86458,63.78869 7.18155,-7.181548 7.84301,6.992559 8.12648,-7.276041 10.01637,7.748512 7.74851,-8.031994 11.05581,7.9375 9.07143,-7.748512 8.97693,7.748512 10.67783,-7.559524 4.91369,3.118304 -5.95313,4.535714 -9.35491,-8.220982 -8.97693,8.315476 -9.5439,-8.40997 -8.40997,8.40997 -10.11086,-8.40997 -8.31548,8.504464 -9.63839,-8.220982 -7.37054,8.126488 -8.12649,-7.843006 2.45685,7.559524 8.97693,-7.654018 8.78795,8.031994 7.65402,-7.9375 10.86681,8.031994 7.55953,-7.843006 10.29985,7.181547 7.9375,-7.087053 10.01637,7.748512 10.77232,-7.654018 -1.79539,6.898065 -8.31548,-7.276041 c 0,0 -9.82738,8.220982 -9.82738,7.843006 0,-0.377976 -8.78794,-8.126488 -8.78794,-8.126488 l -8.59896,7.9375 -11.0558,-8.220982 -7.55953,8.598958 -10.01637,-7.843006 -7.18154,7.843006 -11.90625,-8.031994"
       style="fill:none;stroke:#000000;stroke-width:1;stroke-linecap:round;stroke-linejoin:round;stroke-miterlimit:4;stroke-dasharray:none;stroke-opacity:1;filter:url(#filter3934)"
       inkscape:export-filename="/home/siqueira/Documents/Repositories/siqueira.tech/images/icons/cv_a2c.png"
       inkscape:export-xdpi="144.75999"
       inkscape:export-ydpi="144.75999" />
    <path
       inkscape:connector-curvature="0"
       id="path3894"
       d="m 102.52604,91.002974 12.7567,-6.992559 22.39509,7.370537 23.05654,-8.126489 25.04092,7.843007 1.6064,-1.417413 -16.81994,-6.047618 -13.32366,7.654017 -18.52083,-7.748511 -14.55208,7.843007 -16.53646,-8.126489 -5.76414,3.496281 6.3311,4.724701 15.875,-7.9375 21.54465,7.843007 19.84375,-8.220982 21.73362,3.685267 -12.85118,4.252233 -26.74182,-7.654018 -16.34747,7.9375 -11.52827,-8.031996 -14.74107,7.748514 -3.2128,-2.456847 9.82738,-5.008184 16.34747,7.465031 14.3631,-7.654018 22.96205,7.748511 21.73363,-7.370535 -5.57515,7.559524 -5.76414,-8.315478 -6.80357,8.693454 -14.3631,-8.220983 -4.15773,7.9375 -18.52083,-8.220982 -14.83557,7.9375 -15.30804,-7.748511"
       style="fill:none;stroke:#000000;stroke-width:1;stroke-linecap:round;stroke-linejoin:round;stroke-miterlimit:4;stroke-dasharray:none;stroke-opacity:1;filter:url(#filter3938)"
       inkscape:export-filename="/home/siqueira/Documents/Repositories/siqueira.tech/images/icons/cv_a2c.png"
       inkscape:export-xdpi="144.75999"
       inkscape:export-ydpi="144.75999" />
    <path
       inkscape:connector-curvature="0"
       id="path3896"
       d="m 101.86458,118.02827 5.29167,-7.27604 6.3311,8.032 6.80357,-8.40998 6.4256,8.31548 4.6302,-8.50446 5.38617,8.50446 5.38616,-8.59896 5.19717,7.84301 4.53571,-8.12649 3.96875,9.07143 5.57515,-8.78795 6.52009,8.69346 3.30729,-7.9375 5.10268,7.843 7.18155,-8.12649 4.06324,8.032 -10.58333,-8.50447 -4.91369,8.97694 -6.52009,-9.44941 -4.06324,8.69345 c 0,0 -5.57515,-8.59895 -5.85864,-8.03199 -0.28348,0.56697 -4.25223,8.59896 -4.25223,8.59896 l -4.7247,-8.40997 -4.44122,8.22098 c 0,0 -4.34673,-9.26042 -5.00818,-8.31548 -0.66146,0.94495 -6.14212,7.65402 -6.14212,7.65402 l -5.29166,-6.80357 -5.19718,6.70908 c 0,0 -5.66964,-8.22098 -5.95312,-7.37054 -0.28348,0.85045 -6.70908,7.46503 -6.70908,7.46503 l -5.57515,-8.03199 -0.66146,2.64583 c 0,0 3.59078,6.04762 3.68527,5.66964 0.0945,-0.37797 6.04762,-7.65401 6.04762,-7.65401 l 6.89807,8.12649"
       style="fill:none;stroke:#000000;stroke-width:1;stroke-linecap:round;stroke-linejoin:round;stroke-miterlimit:4;stroke-dasharray:none;stroke-opacity:1;filter:url(#filter3942)"
       inkscape:export-filename="/home/siqueira/Documents/Repositories/siqueira.tech/images/icons/cv_a2c.png"
       inkscape:export-xdpi="144.75999"
       inkscape:export-ydpi="144.75999" />
    <path
       inkscape:connector-curvature="0"
       id="path3898"
       d="m 48.312168,145.21507 c 0.534539,0 129.892992,-7.08264 129.892992,-7.08264 l 9.22079,2.27179 -11.49259,5.21175 -28.19693,-8.01808 -30.33509,7.88445 -18.842502,-8.01809 -24.72243,8.01809 -13.497111,-7.88445 -12.428033,4.40995 9.354433,3.4745 18.174328,-7.88445 19.64431,8.01808 21.381565,-8.01808 22.58427,7.88445 27.12786,-7.88445 20.71339,7.75081 -2.2718,-7.61718 -24.18789,7.75082 -26.59331,-7.61718 -28.86511,8.01808 -18.040695,-8.68626 -19.644311,8.15172 -19.243405,-7.48354 c 0,0 3.741773,7.34991 4.276312,7.34991 0.534539,0 17.506154,-7.34991 17.506154,-7.34991 l 14.699823,7.75081 21.648832,-8.41899 23.65335,8.15172 29.13238,-7.75081 21.78247,7.48354 6.5481,-7.21627"
       style="fill:none;stroke:#000000;stroke-width:1;stroke-linecap:round;stroke-linejoin:round;stroke-miterlimit:4;stroke-dasharray:none;stroke-opacity:1;filter:url(#filter3946)"
       inkscape:export-filename="/home/siqueira/Documents/Repositories/siqueira.tech/images/icons/cv_a2c.png"
       inkscape:export-xdpi="144.75999"
       inkscape:export-ydpi="144.75999" />
    <path
       inkscape:connector-curvature="0"
       id="path3900"
       d="m 170.18707,164.59211 c 0,0 -5.34539,8.95353 -5.61266,8.41899 -0.26727,-0.53454 -8.95353,-8.41899 -8.95353,-8.41899 l -7.75081,8.28535 -8.28536,-7.88445 -6.5481,7.61718 -6.1472,-7.88445 -5.87993,7.61718 -5.07812,-6.81537 -4.94449,6.94901 -4.94449,-7.34991 -4.94448,7.21627 -6.815374,-7.08264 -4.81085,7.34991 -6.949009,-7.88445 -4.944485,8.15172 -6.681739,-7.88445 -5.211756,7.61718 -6.681738,-7.34991 -5.479025,7.21628 -5.211756,-4.14268 4.543582,-3.60814 6.548103,7.75082 5.345391,-7.88445 6.414468,7.61718 5.345392,-7.61718 6.681737,7.88445 5.479026,-7.75082 6.548104,7.88445 4.276312,-7.88445 6.147197,8.01809 4.81085,-8.01809 5.34539,7.75082 4.40995,-7.61718 7.21628,7.75081 5.34539,-8.15172 7.88445,8.01809 6.68174,-7.61718 7.61718,7.88445 7.75081,-8.01809 6.81538,8.01809 5.87993,-8.28536 4.94448,7.75082 6.28084,-6.94901 -0.26727,7.08264 -5.21176,-7.75081 -6.5481,7.88445 -7.48355,-7.21628 -8.28535,7.34991 -7.75082,-7.34991 -6.41447,7.48355 -8.28535,-7.34991 -5.87993,7.34991 -6.54811,-8.55263 -5.47902,8.15172 -5.07812,-7.21627"
       style="fill:none;stroke:#000000;stroke-width:1;stroke-linecap:round;stroke-linejoin:round;stroke-miterlimit:4;stroke-dasharray:none;stroke-opacity:1;filter:url(#filter3950)"
       inkscape:export-filename="/home/siqueira/Documents/Repositories/siqueira.tech/images/icons/cv_a2c.png"
       inkscape:export-xdpi="144.75999"
       inkscape:export-ydpi="144.75999" />
    <path
       inkscape:connector-curvature="0"
       id="path3902"
       d="m 47.777629,199.06988 5.34539,-6.81538 4.142678,7.34991 8.68626,-7.61718 5.879929,7.34991 7.884452,-7.21627 6.815373,7.48354 8.418988,-7.48354 7.884451,7.34991 6.94901,-7.34991 7.08264,7.48354 11.22532,-6.949 -19.64431,7.48354 -21.64883,-7.61718 -21.916101,6.81537 -16.704346,-3.8754 12.027129,-3.20724 17.773424,6.54811 24.989704,-6.28084 24.72243,6.68174 -10.55715,-6.5481 -23.386082,7.34991 -21.515198,-7.75082 -19.64431,7.61718 -4.810851,-2.53906 2.939965,-4.81085 18.708867,7.21628 23.118813,-7.08264 7.349911,6.949 13.764385,-7.08264 7.21627,6.54811 1.87089,-6.68174 5.47902,4.14267 c 0,0 -4.27631,4.00905 -4.27631,3.20724 0,-0.80181 -4.40994,-7.48355 -4.40994,-7.48355 l -5.61267,7.21628"
       style="fill:none;stroke:#000000;stroke-width:1;stroke-linecap:round;stroke-linejoin:round;stroke-miterlimit:4;stroke-dasharray:none;stroke-opacity:1;filter:url(#filter3954)"
       inkscape:export-filename="/home/siqueira/Documents/Repositories/siqueira.tech/images/icons/cv_a2c.png"
       inkscape:export-xdpi="144.75999"
       inkscape:export-ydpi="144.75999" />
    <path
       inkscape:connector-curvature="0"
       id="path3904"
       d="m 126.88941,223.52504 -4.94449,3.4745 -10.02261,-7.48355 -11.89349,7.48355 -12.027127,-7.48355 -10.958052,7.75082 -10.289876,-7.88445 -8.41899,7.75082 -10.156242,-7.61719 0.400905,6.81538 6.280833,-7.08264 9.621703,7.88445 8.41899,-7.48355 10.022608,7.08264 10.824416,-7.61718 11.492592,8.15172 11.89349,-7.75082 9.6217,7.21628 c 0,0 0.53454,-7.08264 -0.53454,-6.81537 -1.06907,0.26727 -14.03165,7.21628 -14.03165,7.21628 0,0 -9.88897,-7.88445 -10.95805,-7.61719 -1.06907,0.26727 -12.160759,8.28536 -12.160759,8.28536 l -10.156242,-8.41899 -8.41899,7.48354 -10.022608,-7.34991 -7.617181,7.48355 -1.069078,-7.48355 c 0,0 -4.409947,3.20724 -3.875408,3.60814 0.534539,0.40091 32.874152,3.87541 32.874152,3.87541 l 2.138156,-7.48355 11.225321,7.34991 13.497107,-7.21627 9.35444,7.34991"
       style="fill:none;stroke:#000000;stroke-width:1;stroke-linecap:round;stroke-linejoin:round;stroke-miterlimit:4;stroke-dasharray:none;stroke-opacity:1;filter:url(#filter3958)"
       inkscape:export-filename="/home/siqueira/Documents/Repositories/siqueira.tech/images/icons/cv_a2c.png"
       inkscape:export-xdpi="144.75999"
       inkscape:export-ydpi="144.75999" />
    <g
       id="layer1-6"
       inkscape:label="Layer 1"
       transform="matrix(0.56195419,0,0,0.56485737,31.33512,19.618788)"
       style="stroke-width:1.77492559"
       inkscape:export-filename="/home/siqueira/Documents/Repositories/siqueira.tech/images/icons/cv_a2c.png"
       inkscape:export-xdpi="144.75999"
       inkscape:export-ydpi="144.75999">
      <path
         style="fill:none;stroke:#000000;stroke-width:1.77492559;stroke-linecap:round;stroke-linejoin:round;stroke-miterlimit:4;stroke-dasharray:none;stroke-opacity:1;filter:url(#filter1028)"
         d="m 61.043155,115.9494 -29.671131,33.63988 10.016368,19.65476 26.765337,-17.63867 -14.298919,-31.5378 -22.851544,44.63401 35.145943,-18.30796 -16.169807,-24.45516 -13.630746,9.08716 -5.479026,23.78699 3.875408,12.6953 31.938708,-18.8425 -23.920621,-24.5888 -9.621703,14.16529 32.606882,36.08139 53.587536,-16.97162 -31.80507,-17.63979 10.156242,32.47325 10.156238,-47.17307 7.48355,10.42351 -5.34539,33.67596 -21.114294,-53.45391 10.824417,55.99297 -16.570711,-19.77795 8.018086,20.98066 8.018084,-51.98392 16.303438,46.37126 -3.07359,-38.35318 -9.08717,-6.01356 -14.031649,-1.73725 28.597839,23.78699 -4.54358,23.11881 -24.187895,-32.87415 -0.935442,38.48681 -8.953529,-12.42803 0.400905,13.09621 -3.207235,-6.01357 -2.53906,6.1472 -28.33057,-51.18211 -15.234364,36.08138 8.018087,9.35443 34.344133,-4.27631 -40.758602,-17.90706 31.404168,-7.88445 -25.791509,-10.55714 23.51972,-3.0736 -6.280835,-6.01357 -5.746295,52.51846 20.579755,-15.63526 5.746294,18.4416 19.777946,-54.52299 9.621698,50.38031 5.07813,-44.36674 9.08716,38.62044 -2.00452,2.40543 -45.836726,7.61718 -38.754081,-8.15172 -2.271792,-4.00904 30.735995,-32.74052 -3.474503,-11.35896 3.741774,2.80633 -28.597841,22.04974 23.118815,29.80055 18.040694,-5.87993 -38.887717,-33.27505 26.326049,-0.80181 -8.418991,38.88771 -13.096206,-45.70309 -7.483546,18.70887 46.103992,29.66692 40.758604,-21.11429 -28.86511,-25.65788 2.80633,-9.08716 24.05426,21.9161 -22.450644,32.20598 -14.566189,-13.76438 33.542323,-27.39513 -13.22984,-10.15624"
         id="path1020"
         inkscape:connector-curvature="0" />
      <path
         style="fill:none;stroke:#000000;stroke-width:1.77492559;stroke-linecap:butt;stroke-linejoin:miter;stroke-miterlimit:4;stroke-dasharray:none;stroke-opacity:1;filter:url(#filter1032)"
         d="m 75.102738,132.4956 -4.677217,3.0736 7.082642,18.57524 -3.073602,6.28083 1.069079,5.87993 0.400904,-33.94323 4.009043,6.1472 -7.483546,9.6217 4.677217,9.6217 -2.80633,1.06908 2.27179,1.20272 -1.870885,1.20271 1.737251,0.93544 -1.069078,1.06908 0.267269,0.93544 2.939966,-29.80055 0.668173,8.41899 -5.746295,11.09169 2.672697,5.34539"
         id="path1022"
         inkscape:connector-curvature="0" />
      <path
         style="fill:none;stroke:#000000;stroke-width:1.77492559;stroke-linecap:round;stroke-linejoin:round;stroke-miterlimit:4;stroke-dasharray:none;stroke-opacity:1;filter:url(#filter1036)"
         d="m 69.089171,121.93846 c 0.267272,0.53454 8.418992,7.34991 8.418992,7.34991 l -3.207235,1.20271 2.138156,-7.61718 5.479026,-0.4009 -8.819895,6.28083 1.469982,-5.34539 4.009044,3.20724 -2.80633,4.94448 -2.939965,-8.55262 -1.202714,3.20723 8.15172,-0.80181"
         id="path1024"
         inkscape:connector-curvature="0" />
      <path
         style="fill:none;stroke:#000000;stroke-width:1.77492559;stroke-linecap:round;stroke-linejoin:round;stroke-miterlimit:4;stroke-dasharray:none;stroke-opacity:1;filter:url(#filter1040)"
         d="m 73.766388,56.32379 -24.455162,19.377041 37.284099,38.620449 10.958052,-44.767649 3.474503,4.276313 -47.306706,24.455162 6.949009,-35.01231 5.34539,-5.612659 31.537804,9.354434 -40.758602,37.284099 16.30344,15.50163 18.307962,-11.49259 -5.34539,-48.375781 h 3.741774 l 3.073599,2.939963 -30.602362,50.113038 31.537804,-10.55715 -40.624966,-32.205975 1.870885,-5.211755 45.302189,15.768902 0.80181,6.013564 -4.543586,4.009043 -20.045216,-33.007786 3.741774,-1.069078 4.543581,2.405425 -34.076864,23.920621 0.267271,3.741775 4.009041,3.340867 3.34087,-25.791509 7.750818,52.251196 L 80.715397,56.991964 82.185379,117.92942 94.212507,64.609146 96.350663,97.616932 69.490076,118.73122 62.54107,59.397389 101.56242,83.718915 55.992966,101.49234 78.443605,119.53303 75.770911,57.125599 53.186636,94.543331 94.88068,100.42326 53.721174,91.336097 h 42.89676 L 54.923888,100.15599 95.548856,99.354184 57.195677,64.47551 100.76061,76.235369 50.647576,81.046221 49.712131,73.028134 53.186636,71.023614 99.424264,89.46521 99.290628,79.576238 91.807082,61.13464 50.781209,85.857071 l 46.237627,7.082644 -37.551367,16.570705 25.657876,5.7463 4.677216,-4.54358 -35.947751,-43.4313 5.078121,40.62497 4.944486,6.94901 12.695301,5.07812 4.543583,-1.33635 16.30344,-49.712132 -33.943229,-10.289879"
         id="path1026"
         inkscape:connector-curvature="0" />
      <path
         inkscape:connector-curvature="0"
         id="path947"
         d="m 61.043155,115.9494 -29.671131,33.63988 10.016368,19.65476 26.765337,-17.63867 -14.298919,-31.5378 -22.851544,44.63401 35.145943,-18.30796 -16.169807,-24.45516 -13.630746,9.08716 -5.479026,23.78699 3.875408,12.6953 31.938708,-18.8425 -23.920621,-24.5888 -9.621703,14.16529 32.606882,36.08139 53.587536,-16.97162 -31.80507,-17.63979 10.156242,32.47325 10.156238,-47.17307 7.48355,10.42351 -5.34539,33.67596 -21.114294,-53.45391 10.824417,55.99297 -16.570711,-19.77795 8.018086,20.98066 8.018084,-51.98392 16.303438,46.37126 -3.07359,-38.35318 -9.08717,-6.01356 -14.031649,-1.73725 28.597839,23.78699 -4.54358,23.11881 -24.187895,-32.87415 -0.935442,38.48681 -8.953529,-12.42803 0.400905,13.09621 -3.207235,-6.01357 -2.53906,6.1472 -28.33057,-51.18211 -15.234364,36.08138 8.018087,9.35443 34.344133,-4.27631 -40.758602,-17.90706 31.404168,-7.88445 -25.791509,-10.55714 23.51972,-3.0736 -6.280835,-6.01357 -5.746295,52.51846 20.579755,-15.63526 5.746294,18.4416 19.777946,-54.52299 9.621698,50.38031 5.07813,-44.36674 9.08716,38.62044 -2.00452,2.40543 -45.836726,7.61718 -38.754081,-8.15172 -2.271792,-4.00904 30.735995,-32.74052 -3.474503,-11.35896 3.741774,2.80633 -28.597841,22.04974 23.118815,29.80055 18.040694,-5.87993 -38.887717,-33.27505 26.326049,-0.80181 -8.418991,38.88771 -13.096206,-45.70309 -7.483546,18.70887 46.103992,29.66692 40.758604,-21.11429 -28.86511,-25.65788 2.80633,-9.08716 24.05426,21.9161 -22.450644,32.20598 -14.566189,-13.76438 33.542323,-27.39513 -13.22984,-10.15624"
         style="fill:none;stroke:#000000;stroke-width:1.77492559;stroke-linecap:round;stroke-linejoin:round;stroke-miterlimit:4;stroke-dasharray:none;stroke-opacity:1" />
      <path
         inkscape:connector-curvature="0"
         id="path949"
         d="m 75.102738,132.4956 -4.677217,3.0736 7.082642,18.57524 -3.073602,6.28083 1.069079,5.87993 0.400904,-33.94323 4.009043,6.1472 -7.483546,9.6217 4.677217,9.6217 -2.80633,1.06908 2.27179,1.20272 -1.870885,1.20271 1.737251,0.93544 -1.069078,1.06908 0.267269,0.93544 2.939966,-29.80055 0.668173,8.41899 -5.746295,11.09169 2.672697,5.34539"
         style="fill:none;stroke:#000000;stroke-width:1.77492559;stroke-linecap:butt;stroke-linejoin:miter;stroke-miterlimit:4;stroke-dasharray:none;stroke-opacity:1" />
      <path
         inkscape:connector-curvature="0"
         id="path951"
         d="m 69.089171,121.93846 c 0.267272,0.53454 8.418992,7.34991 8.418992,7.34991 l -3.207235,1.20271 2.138156,-7.61718 5.479026,-0.4009 -8.819895,6.28083 1.469982,-5.34539 4.009044,3.20724 -2.80633,4.94448 -2.939965,-8.55262 -1.202714,3.20723 8.15172,-0.80181"
         style="fill:none;stroke:#000000;stroke-width:1.77492559;stroke-linecap:round;stroke-linejoin:round;stroke-miterlimit:4;stroke-dasharray:none;stroke-opacity:1" />
      <path
         inkscape:connector-curvature="0"
         id="path1018"
         d="m 73.766388,56.32379 -24.455162,19.377041 37.284099,38.620449 10.958052,-44.767649 3.474503,4.276313 -47.306706,24.455162 6.949009,-35.01231 5.34539,-5.612659 31.537804,9.354434 -40.758602,37.284099 16.30344,15.50163 18.307962,-11.49259 -5.34539,-48.375781 h 3.741774 l 3.073599,2.939963 -30.602362,50.113038 31.537804,-10.55715 -40.624966,-32.205975 1.870885,-5.211755 45.302189,15.768902 0.80181,6.013564 -4.543586,4.009043 -20.045216,-33.007786 3.741774,-1.069078 4.543581,2.405425 -34.076864,23.920621 0.267271,3.741775 4.009041,3.340867 3.34087,-25.791509 7.750818,52.251196 L 80.715397,56.991964 82.185379,117.92942 94.212507,64.609146 96.350663,97.616932 69.490076,118.73122 62.54107,59.397389 101.56242,83.718915 55.992966,101.49234 78.443605,119.53303 75.770911,57.125599 53.186636,94.543331 94.88068,100.42326 53.721174,91.336097 h 42.89676 L 54.923888,100.15599 95.548856,99.354184 57.195677,64.47551 100.76061,76.235369 50.647576,81.046221 49.712131,73.028134 53.186636,71.023614 99.424264,89.46521 99.290628,79.576238 91.807082,61.13464 50.781209,85.857071 l 46.237627,7.082644 -37.551367,16.570705 25.657876,5.7463 4.677216,-4.54358 -35.947751,-43.4313 5.078121,40.62497 4.944486,6.94901 12.695301,5.07812 4.543583,-1.33635 16.30344,-49.712132 -33.943229,-10.289879"
         style="fill:none;stroke:#000000;stroke-width:1.77492559;stroke-linecap:round;stroke-linejoin:round;stroke-miterlimit:4;stroke-dasharray:none;stroke-opacity:1" />
    </g>
    <g
       id="layer1-5"
       inkscape:label="Layer 1"
       transform="matrix(1.7595961,0,0,1.7540915,-51.910839,-83.718567)"
       style="stroke-width:0.56920326"
       inkscape:export-filename="/home/siqueira/Documents/Repositories/siqueira.tech/images/icons/cv_a2c.png"
       inkscape:export-xdpi="144.75999"
       inkscape:export-ydpi="144.75999">
      <g
         id="g3081"
         style="stroke-width:0.56920326">
        <path
           inkscape:connector-curvature="0"
           id="path3073"
           d="m 104.51042,158.09375 26.64732,7.18154 -29.29316,8.31548 9.07143,12.28423 -8.69345,2.45684 v 6.04762 l -6.425596,-3.77976 -5.291667,3.77976 -6.047621,-4.15774 -4.724701,4.15774 -5.102678,-4.34672 -3.96875,4.15773 -3.968749,-3.59077 -3.96875,3.59077 -3.590775,-3.59077 -3.590774,3.77976 -2.267857,-4.7247 -4.913691,-1.32292 3.401788,-5.10268 -3.96875,-5.85863 3.96875,-6.04762 -3.590775,-6.2366 3.779761,-8.12649 -4.157736,-7.74851 3.96875,-7.18155 -3.590775,-8.12649 3.590775,-6.23661 -3.779764,-6.80357 3.96875,-7.74851 -3.779761,-6.99256 3.779761,-5.48065 -3.96875,-8.315477 4.346726,-5.858632 -3.96875,-4.535715 3.590774,-4.724702 -2.267857,-6.614583 6.047621,1.700893 2.834819,-3.590774 3.590775,3.968749 4.724701,-4.346725 3.212798,3.77976 3.779761,-3.77976 3.590774,4.157739 5.480656,-4.157739 3.779761,4.157739 6.236607,-4.157739 6.236608,3.96875 6.425591,-3.96875 4.53572,4.157739 5.66964,-4.157739 5.10268,3.590774 5.48065,-3.590774 4.91369,3.96875 5.29167,-3.212799 4.34673,6.425597 -3.40179,4.346726 3.77976,6.992559 -3.77976,4.346726 3.59078,6.803572 -3.77977,6.803565 3.96875,6.04763 -4.15773,7.18154 4.15773,6.80357 -3.77976,4.15774 3.40179,6.04762 -3.2128,3.59078 3.40179,5.29166 -3.96875,5.48066 3.96875,5.85863 -39.6875,11.1503 15.49702,12.28422 -14.74107,6.23661 3.77976,6.04762 -3.59077,-29.48215 5.48065,-5.85863 25.89137,6.80358 -32.12798,7.74851 20.03274,3.59077 2.26786,-18.89881 3.59077,13.98512 4.7247,-13.60714 4.34673,4.15773 0.75595,-6.04761 3.59078,-4.9137 -3.77976,-5.66964 3.96875,-3.59077 -3.96875,-5.29167 3.59077,-3.77976 -3.77976,-5.85863 3.96875,-5.85863 -3.96875,-7.55952 4.15774,-6.61459 -3.59078,-5.669643 3.40179,-6.425594 -3.59078,-5.669642 3.77977,-5.669642 -3.96875,-5.669643 2.07886,-4.913691 -4.34672,2.456844 -4.15774,-4.724701 -5.10268,4.535715 -4.91369,-4.346729 -5.29167,4.346729 -5.85863,-3.96875 -5.10267,3.590771 -5.291671,-3.590771 -6.425594,3.96875 -4.157739,-4.157739 -5.858632,3.77976 -3.779761,-3.77976 -5.480656,3.96875 -3.401785,-4.15774 -3.590774,4.346729 -3.023809,-4.913691 -4.157739,4.535712 -6.425594,-3.023809 0.188989,4.346726 -5.291666,1.511906 4.535712,6.614583 -4.535712,4.913691 4.157736,7.181548 -4.157736,6.425591 4.346725,6.99256 -3.779763,6.04762 3.212798,7.9375 -3.401785,7.55952 3.779761,5.29167 -3.96875,7.55953 3.96875,8.88244 -3.590774,7.9375 3.401788,6.61458 -3.96875,6.99256 3.96875,5.85863 -3.779764,5.48065 4.157739,4.34673 -0.566965,5.85863 4.15774,-3.2128 3.590771,3.96875 4.346728,-3.40178 3.779761,3.77976 3.96875,-4.91369 4.913691,4.7247 3.401785,-3.77976 5.669642,3.59077 5.291667,-3.96875 5.669642,4.15774 4.157744,-3.96875 3.40178,1.32292 12.85119,-36.85268 3.2128,21.73363 8.50446,-22.1116 6.99256,5.66964 -33.45089,18.14285 11.33929,4.91369 7.55952,-27.78125 4.7247,14.55209 -22.86756,-10.39435 15.68601,17.76488 -16.25297,-1.13393 10.20536,-21.16666"
           style="fill:none;stroke:#000000;stroke-width:0.56920326;stroke-linecap:round;stroke-linejoin:round;stroke-miterlimit:4;stroke-dasharray:none;stroke-opacity:1;filter:url(#filter3075)" />
        <path
           style="fill:none;stroke:#000000;stroke-width:0.56920326;stroke-linecap:round;stroke-linejoin:round;stroke-miterlimit:4;stroke-dasharray:none;stroke-opacity:1"
           d="m 104.51042,158.09375 26.64732,7.18154 -29.29316,8.31548 9.07143,12.28423 -8.69345,2.45684 v 6.04762 l -6.425596,-3.77976 -5.291667,3.77976 -6.047621,-4.15774 -4.724701,4.15774 -5.102678,-4.34672 -3.96875,4.15773 -3.968749,-3.59077 -3.96875,3.59077 -3.590775,-3.59077 -3.590774,3.77976 -2.267857,-4.7247 -4.913691,-1.32292 3.401788,-5.10268 -3.96875,-5.85863 3.96875,-6.04762 -3.590775,-6.2366 3.779761,-8.12649 -4.157736,-7.74851 3.96875,-7.18155 -3.590775,-8.12649 3.590775,-6.23661 -3.779764,-6.80357 3.96875,-7.74851 -3.779761,-6.99256 3.779761,-5.48065 -3.96875,-8.315477 4.346726,-5.858632 -3.96875,-4.535715 3.590774,-4.724702 -2.267857,-6.614583 6.047621,1.700893 2.834819,-3.590774 3.590775,3.968749 4.724701,-4.346725 3.212798,3.77976 3.779761,-3.77976 3.590774,4.157739 5.480656,-4.157739 3.779761,4.157739 6.236607,-4.157739 6.236608,3.96875 6.425591,-3.96875 4.53572,4.157739 5.66964,-4.157739 5.10268,3.590774 5.48065,-3.590774 4.91369,3.96875 5.29167,-3.212799 4.34673,6.425597 -3.40179,4.346726 3.77976,6.992559 -3.77976,4.346726 3.59078,6.803572 -3.77977,6.803565 3.96875,6.04763 -4.15773,7.18154 4.15773,6.80357 -3.77976,4.15774 3.40179,6.04762 -3.2128,3.59078 3.40179,5.29166 -3.96875,5.48066 3.96875,5.85863 -39.6875,11.1503 15.49702,12.28422 -14.74107,6.23661 3.77976,6.04762 -3.59077,-29.48215 5.48065,-5.85863 25.89137,6.80358 -32.12798,7.74851 20.03274,3.59077 2.26786,-18.89881 3.59077,13.98512 4.7247,-13.60714 4.34673,4.15773 0.75595,-6.04761 3.59078,-4.9137 -3.77976,-5.66964 3.96875,-3.59077 -3.96875,-5.29167 3.59077,-3.77976 -3.77976,-5.85863 3.96875,-5.85863 -3.96875,-7.55952 4.15774,-6.61459 -3.59078,-5.669643 3.40179,-6.425594 -3.59078,-5.669642 3.77977,-5.669642 -3.96875,-5.669643 2.07886,-4.913691 -4.34672,2.456844 -4.15774,-4.724701 -5.10268,4.535715 -4.91369,-4.346729 -5.29167,4.346729 -5.85863,-3.96875 -5.10267,3.590771 -5.291671,-3.590771 -6.425594,3.96875 -4.157739,-4.157739 -5.858632,3.77976 -3.779761,-3.77976 -5.480656,3.96875 -3.401785,-4.15774 -3.590774,4.346729 -3.023809,-4.913691 -4.157739,4.535712 -6.425594,-3.023809 0.188989,4.346726 -5.291666,1.511906 4.535712,6.614583 -4.535712,4.913691 4.157736,7.181548 -4.157736,6.425591 4.346725,6.99256 -3.779763,6.04762 3.212798,7.9375 -3.401785,7.55952 3.779761,5.29167 -3.96875,7.55953 3.96875,8.88244 -3.590774,7.9375 3.401788,6.61458 -3.96875,6.99256 3.96875,5.85863 -3.779764,5.48065 4.157739,4.34673 -0.566965,5.85863 4.15774,-3.2128 3.590771,3.96875 4.346728,-3.40178 3.779761,3.77976 3.96875,-4.91369 4.913691,4.7247 3.401785,-3.77976 5.669642,3.59077 5.291667,-3.96875 5.669642,4.15774 4.157744,-3.96875 3.40178,1.32292 12.85119,-36.85268 3.2128,21.73363 8.50446,-22.1116 6.99256,5.66964 -33.45089,18.14285 11.33929,4.91369 7.55952,-27.78125 4.7247,14.55209 -22.86756,-10.39435 15.68601,17.76488 -16.25297,-1.13393 10.20536,-21.16666"
           id="path3071"
           inkscape:connector-curvature="0" />
      </g>
    </g>
    <path
       style="fill:none;stroke:#000000;stroke-width:1;stroke-linecap:round;stroke-linejoin:round;stroke-miterlimit:4;stroke-dasharray:none;stroke-opacity:1"
       d="m 101.86458,63.78869 7.18155,-7.181548 7.84301,6.992559 8.12648,-7.276041 10.01637,7.748512 7.74851,-8.031994 11.05581,7.9375 9.07143,-7.748512 8.97693,7.748512 10.67783,-7.559524 4.91369,3.118304 -5.95313,4.535714 -9.35491,-8.220982 -8.97693,8.315476 -9.5439,-8.40997 -8.40997,8.40997 -10.11086,-8.40997 -8.31548,8.504464 -9.63839,-8.220982 -7.37054,8.126488 -8.12649,-7.843006 2.45685,7.559524 8.97693,-7.654018 8.78795,8.031994 7.65402,-7.9375 10.86681,8.031994 7.55953,-7.843006 10.29985,7.181547 7.9375,-7.087053 10.01637,7.748512 10.77232,-7.654018 -1.79539,6.898065 -8.31548,-7.276041 c 0,0 -9.82738,8.220982 -9.82738,7.843006 0,-0.377976 -8.78794,-8.126488 -8.78794,-8.126488 l -8.59896,7.9375 -11.0558,-8.220982 -7.55953,8.598958 -10.01637,-7.843006 -7.18154,7.843006 -11.90625,-8.031994"
       id="path3878"
       inkscape:connector-curvature="0"
       inkscape:export-filename="/home/siqueira/Documents/Repositories/siqueira.tech/images/icons/cv_a2c.png"
       inkscape:export-xdpi="144.75999"
       inkscape:export-ydpi="144.75999" />
    <path
       style="fill:none;stroke:#000000;stroke-width:1;stroke-linecap:round;stroke-linejoin:round;stroke-miterlimit:4;stroke-dasharray:none;stroke-opacity:1"
       d="m 102.52604,91.002974 12.7567,-6.992559 22.39509,7.370537 23.05654,-8.126489 25.04092,7.843007 1.6064,-1.417413 -16.81994,-6.047618 -13.32366,7.654017 -18.52083,-7.748511 -14.55208,7.843007 -16.53646,-8.126489 -5.76414,3.496281 6.3311,4.724701 15.875,-7.9375 21.54465,7.843007 19.84375,-8.220982 21.73362,3.685267 -12.85118,4.252233 -26.74182,-7.654018 -16.34747,7.9375 -11.52827,-8.031996 -14.74107,7.748514 -3.2128,-2.456847 9.82738,-5.008184 16.34747,7.465031 14.3631,-7.654018 22.96205,7.748511 21.73363,-7.370535 -5.57515,7.559524 -5.76414,-8.315478 -6.80357,8.693454 -14.3631,-8.220983 -4.15773,7.9375 -18.52083,-8.220982 -14.83557,7.9375 -15.30804,-7.748511"
       id="path3880"
       inkscape:connector-curvature="0"
       inkscape:export-filename="/home/siqueira/Documents/Repositories/siqueira.tech/images/icons/cv_a2c.png"
       inkscape:export-xdpi="144.75999"
       inkscape:export-ydpi="144.75999" />
    <path
       style="fill:none;stroke:#000000;stroke-width:1;stroke-linecap:round;stroke-linejoin:round;stroke-miterlimit:4;stroke-dasharray:none;stroke-opacity:1"
       d="m 101.86458,118.02827 5.29167,-7.27604 6.3311,8.032 6.80357,-8.40998 6.4256,8.31548 4.6302,-8.50446 5.38617,8.50446 5.38616,-8.59896 5.19717,7.84301 4.53571,-8.12649 3.96875,9.07143 5.57515,-8.78795 6.52009,8.69346 3.30729,-7.9375 5.10268,7.843 7.18155,-8.12649 4.06324,8.032 -10.58333,-8.50447 -4.91369,8.97694 -6.52009,-9.44941 -4.06324,8.69345 c 0,0 -5.57515,-8.59895 -5.85864,-8.03199 -0.28348,0.56697 -4.25223,8.59896 -4.25223,8.59896 l -4.7247,-8.40997 -4.44122,8.22098 c 0,0 -4.34673,-9.26042 -5.00818,-8.31548 -0.66146,0.94495 -6.14212,7.65402 -6.14212,7.65402 l -5.29166,-6.80357 -5.19718,6.70908 c 0,0 -5.66964,-8.22098 -5.95312,-7.37054 -0.28348,0.85045 -6.70908,7.46503 -6.70908,7.46503 l -5.57515,-8.03199 -0.66146,2.64583 c 0,0 3.59078,6.04762 3.68527,5.66964 0.0945,-0.37797 6.04762,-7.65401 6.04762,-7.65401 l 6.89807,8.12649"
       id="path3882"
       inkscape:connector-curvature="0"
       inkscape:export-filename="/home/siqueira/Documents/Repositories/siqueira.tech/images/icons/cv_a2c.png"
       inkscape:export-xdpi="144.75999"
       inkscape:export-ydpi="144.75999" />
    <path
       style="fill:none;stroke:#000000;stroke-width:1;stroke-linecap:round;stroke-linejoin:round;stroke-miterlimit:4;stroke-dasharray:none;stroke-opacity:1"
       d="m 48.312168,145.21507 c 0.534539,0 129.892992,-7.08264 129.892992,-7.08264 l 9.22079,2.27179 -11.49259,5.21175 -28.19693,-8.01808 -30.33509,7.88445 -18.842502,-8.01809 -24.72243,8.01809 -13.497111,-7.88445 -12.428033,4.40995 9.354433,3.4745 18.174328,-7.88445 19.64431,8.01808 21.381565,-8.01808 22.58427,7.88445 27.12786,-7.88445 20.71339,7.75081 -2.2718,-7.61718 -24.18789,7.75082 -26.59331,-7.61718 -28.86511,8.01808 -18.040695,-8.68626 -19.644311,8.15172 -19.243405,-7.48354 c 0,0 3.741773,7.34991 4.276312,7.34991 0.534539,0 17.506154,-7.34991 17.506154,-7.34991 l 14.699823,7.75081 21.648832,-8.41899 23.65335,8.15172 29.13238,-7.75081 21.78247,7.48354 6.5481,-7.21627"
       id="path3884"
       inkscape:connector-curvature="0"
       inkscape:export-filename="/home/siqueira/Documents/Repositories/siqueira.tech/images/icons/cv_a2c.png"
       inkscape:export-xdpi="144.75999"
       inkscape:export-ydpi="144.75999" />
    <path
       style="fill:none;stroke:#000000;stroke-width:1;stroke-linecap:round;stroke-linejoin:round;stroke-miterlimit:4;stroke-dasharray:none;stroke-opacity:1"
       d="m 170.18707,164.59211 c 0,0 -5.34539,8.95353 -5.61266,8.41899 -0.26727,-0.53454 -8.95353,-8.41899 -8.95353,-8.41899 l -7.75081,8.28535 -8.28536,-7.88445 -6.5481,7.61718 -6.1472,-7.88445 -5.87993,7.61718 -5.07812,-6.81537 -4.94449,6.94901 -4.94449,-7.34991 -4.94448,7.21627 -6.815374,-7.08264 -4.81085,7.34991 -6.949009,-7.88445 -4.944485,8.15172 -6.681739,-7.88445 -5.211756,7.61718 -6.681738,-7.34991 -5.479025,7.21628 -5.211756,-4.14268 4.543582,-3.60814 6.548103,7.75082 5.345391,-7.88445 6.414468,7.61718 5.345392,-7.61718 6.681737,7.88445 5.479026,-7.75082 6.548104,7.88445 4.276312,-7.88445 6.147197,8.01809 4.81085,-8.01809 5.34539,7.75082 4.40995,-7.61718 7.21628,7.75081 5.34539,-8.15172 7.88445,8.01809 6.68174,-7.61718 7.61718,7.88445 7.75081,-8.01809 6.81538,8.01809 5.87993,-8.28536 4.94448,7.75082 6.28084,-6.94901 -0.26727,7.08264 -5.21176,-7.75081 -6.5481,7.88445 -7.48355,-7.21628 -8.28535,7.34991 -7.75082,-7.34991 -6.41447,7.48355 -8.28535,-7.34991 -5.87993,7.34991 -6.54811,-8.55263 -5.47902,8.15172 -5.07812,-7.21627"
       id="path3886"
       inkscape:connector-curvature="0"
       inkscape:export-filename="/home/siqueira/Documents/Repositories/siqueira.tech/images/icons/cv_a2c.png"
       inkscape:export-xdpi="144.75999"
       inkscape:export-ydpi="144.75999" />
    <path
       style="fill:none;stroke:#000000;stroke-width:1;stroke-linecap:round;stroke-linejoin:round;stroke-miterlimit:4;stroke-dasharray:none;stroke-opacity:1"
       d="m 47.777629,199.06988 5.34539,-6.81538 4.142678,7.34991 8.68626,-7.61718 5.879929,7.34991 7.884452,-7.21627 6.815373,7.48354 8.418988,-7.48354 7.884451,7.34991 6.94901,-7.34991 7.08264,7.48354 11.22532,-6.949 -19.64431,7.48354 -21.64883,-7.61718 -21.916101,6.81537 -16.704346,-3.8754 12.027129,-3.20724 17.773424,6.54811 24.989704,-6.28084 24.72243,6.68174 -10.55715,-6.5481 -23.386082,7.34991 -21.515198,-7.75082 -19.64431,7.61718 -4.810851,-2.53906 2.939965,-4.81085 18.708867,7.21628 23.118813,-7.08264 7.349911,6.949 13.764385,-7.08264 7.21627,6.54811 1.87089,-6.68174 5.47902,4.14267 c 0,0 -4.27631,4.00905 -4.27631,3.20724 0,-0.80181 -4.40994,-7.48355 -4.40994,-7.48355 l -5.61267,7.21628"
       id="path3888"
       inkscape:connector-curvature="0"
       inkscape:export-filename="/home/siqueira/Documents/Repositories/siqueira.tech/images/icons/cv_a2c.png"
       inkscape:export-xdpi="144.75999"
       inkscape:export-ydpi="144.75999" />
    <path
       style="fill:none;stroke:#000000;stroke-width:1;stroke-linecap:round;stroke-linejoin:round;stroke-miterlimit:4;stroke-dasharray:none;stroke-opacity:1"
       d="m 126.88941,223.52504 -4.94449,3.4745 -10.02261,-7.48355 -11.89349,7.48355 -12.027127,-7.48355 -10.958052,7.75082 -10.289876,-7.88445 -8.41899,7.75082 -10.156242,-7.61719 0.400905,6.81538 6.280833,-7.08264 9.621703,7.88445 8.41899,-7.48355 10.022608,7.08264 10.824416,-7.61718 11.492592,8.15172 11.89349,-7.75082 9.6217,7.21628 c 0,0 0.53454,-7.08264 -0.53454,-6.81537 -1.06907,0.26727 -14.03165,7.21628 -14.03165,7.21628 0,0 -9.88897,-7.88445 -10.95805,-7.61719 -1.06907,0.26727 -12.160759,8.28536 -12.160759,8.28536 l -10.156242,-8.41899 -8.41899,7.48354 -10.022608,-7.34991 -7.617181,7.48355 -1.069078,-7.48355 c 0,0 -4.409947,3.20724 -3.875408,3.60814 0.534539,0.40091 32.874152,3.87541 32.874152,3.87541 l 2.138156,-7.48355 11.225321,7.34991 13.497107,-7.21627 9.35444,7.34991"
       id="path3890"
       inkscape:connector-curvature="0"
       inkscape:export-filename="/home/siqueira/Documents/Repositories/siqueira.tech/images/icons/cv_a2c.png"
       inkscape:export-xdpi="144.75999"
       inkscape:export-ydpi="144.75999" />
  </g>
</svg>
