<?xml version="1.0" encoding="UTF-8" standalone="no"?>
<!-- Created with Inkscape (http://www.inkscape.org/) -->

<svg
   xmlns:dc="http://purl.org/dc/elements/1.1/"
   xmlns:cc="http://creativecommons.org/ns#"
   xmlns:rdf="http://www.w3.org/1999/02/22-rdf-syntax-ns#"
   xmlns:svg="http://www.w3.org/2000/svg"
   xmlns="http://www.w3.org/2000/svg"
   xmlns:sodipodi="http://sodipodi.sourceforge.net/DTD/sodipodi-0.dtd"
   xmlns:inkscape="http://www.inkscape.org/namespaces/inkscape"
   width="210mm"
   height="297mm"
   viewBox="0 0 210 297"
   version="1.1"
   id="svg8"
   inkscape:version="0.92.2 2405546, 2018-03-11"
   sodipodi:docname="default_image.svg">
  <defs
     id="defs2">
    <filter
       inkscape:collect="always"
       style="color-interpolation-filters:sRGB"
       id="filter919"
       x="-0.0085846152"
       width="1.0171692"
       y="-0.019928572"
       height="1.0398571">
      <feGaussianBlur
         inkscape:collect="always"
         stdDeviation="0.49712131"
         id="feGaussianBlur921" />
    </filter>
  </defs>
  <sodipodi:namedview
     id="base"
     pagecolor="#ffffff"
     bordercolor="#666666"
     borderopacity="1.0"
     inkscape:pageopacity="0.0"
     inkscape:pageshadow="2"
     inkscape:zoom="0.98994949"
     inkscape:cx="568.57522"
     inkscape:cy="641.31896"
     inkscape:document-units="mm"
     inkscape:current-layer="layer1"
     showgrid="false"
     inkscape:window-width="1920"
     inkscape:window-height="1039"
     inkscape:window-x="0"
     inkscape:window-y="0"
     inkscape:window-maximized="1" />
  <metadata
     id="metadata5">
    <rdf:RDF>
      <cc:Work
         rdf:about="">
        <dc:format>image/svg+xml</dc:format>
        <dc:type
           rdf:resource="http://purl.org/dc/dcmitype/StillImage" />
        <dc:title></dc:title>
      </cc:Work>
    </rdf:RDF>
  </metadata>
  <g
     inkscape:label="Layer 1"
     inkscape:groupmode="layer"
     id="layer1">
    <path
       inkscape:connector-curvature="0"
       id="path917"
       d="M 46.237628,176.72871 92.475255,146.52725 80.982666,176.99598 56.39387,162.8307 l 30.735995,-22.45065 -11.49259,-1.87088 4.543581,-5.87993 21.648834,44.90128 46.23763,-50.24667 -32.33962,49.44486 -37.952269,-39.82316 3.741775,-3.20723 -20.312486,43.29766 -8.552624,-8.55263 36.348656,-24.58879 1.069078,33.14142 -21.381563,-29.39965 0.801809,28.86511 -14.967093,-10.69078 0.801809,10.95805 -5.612661,-3.74177 117.064049,-21.38157 -44.09947,-11.75985 23.25245,-15.50164 -7.48355,-4.81085 2.40543,-1.87088 22.98518,59.6011 12.56167,-12.56167 4.81085,12.56167 2.40542,-2.6727 1.60362,2.93997 -76.70635,-18.70887 52.65209,-14.43255 -31.27053,-13.89802 13.89801,-8.81989 -4.27631,-2.6727 -4.81085,57.99749 -16.57071,-30.736 -8.55263,30.46873 -9.888967,-21.11429 -5.612659,21.38156 -22.717911,-33.14142 25.390604,8.28536 9.087163,25.3906 6.41447,-24.05426 39.82316,-20.84702 -2.93997,44.09947 -28.8651,-32.87415 49.9794,13.36347 -12.82894,20.04522 -30.73599,-42.49585 30.20145,4.54358 16.57071,37.685 -0.53454,-16.83798 -58.79929,-10.15624 13.89801,26.19241 22.45064,-45.43582"
       style="fill:none;stroke:#000000;stroke-width:1;stroke-linecap:round;stroke-linejoin:round;stroke-opacity:1;stroke-miterlimit:4;stroke-dasharray:none;filter:url(#filter919)" />
    <path
       style="fill:none;stroke:#000000;stroke-width:1;stroke-linecap:round;stroke-linejoin:round;stroke-opacity:1;stroke-miterlimit:4;stroke-dasharray:none"
       d="M 46.237628,176.72871 92.475255,146.52725 80.982666,176.99598 56.39387,162.8307 l 30.735995,-22.45065 -11.49259,-1.87088 4.543581,-5.87993 21.648834,44.90128 46.23763,-50.24667 -32.33962,49.44486 -37.952269,-39.82316 3.741775,-3.20723 -20.312486,43.29766 -8.552624,-8.55263 36.348656,-24.58879 1.069078,33.14142 -21.381563,-29.39965 0.801809,28.86511 -14.967093,-10.69078 0.801809,10.95805 -5.612661,-3.74177 117.064049,-21.38157 -44.09947,-11.75985 23.25245,-15.50164 -7.48355,-4.81085 2.40543,-1.87088 22.98518,59.6011 12.56167,-12.56167 4.81085,12.56167 2.40542,-2.6727 1.60362,2.93997 -76.70635,-18.70887 52.65209,-14.43255 -31.27053,-13.89802 13.89801,-8.81989 -4.27631,-2.6727 -4.81085,57.99749 -16.57071,-30.736 -8.55263,30.46873 -9.888967,-21.11429 -5.612659,21.38156 -22.717911,-33.14142 25.390604,8.28536 9.087163,25.3906 6.41447,-24.05426 39.82316,-20.84702 -2.93997,44.09947 -28.8651,-32.87415 49.9794,13.36347 -12.82894,20.04522 -30.73599,-42.49585 30.20145,4.54358 16.57071,37.685 -0.53454,-16.83798 -58.79929,-10.15624 13.89801,26.19241 22.45064,-45.43582"
       id="path896"
       inkscape:connector-curvature="0" />
  </g>
</svg>
