<?xml version="1.0" encoding="UTF-8" standalone="no"?>
<!-- Created with Inkscape (http://www.inkscape.org/) -->

<svg
   xmlns:dc="http://purl.org/dc/elements/1.1/"
   xmlns:cc="http://creativecommons.org/ns#"
   xmlns:rdf="http://www.w3.org/1999/02/22-rdf-syntax-ns#"
   xmlns:svg="http://www.w3.org/2000/svg"
   xmlns="http://www.w3.org/2000/svg"
   xmlns:sodipodi="http://sodipodi.sourceforge.net/DTD/sodipodi-0.dtd"
   xmlns:inkscape="http://www.inkscape.org/namespaces/inkscape"
   width="210mm"
   height="297mm"
   viewBox="0 0 210 297"
   version="1.1"
   id="svg8"
   inkscape:version="0.92.2 2405546, 2018-03-11"
   sodipodi:docname="desktop_app.svg">
  <defs
     id="defs2">
    <filter
       height="1.0398571"
       y="-0.019928572"
       width="1.0171692"
       x="-0.0085846152"
       id="filter919"
       style="color-interpolation-filters:sRGB"
       inkscape:collect="always">
      <feGaussianBlur
         id="feGaussianBlur921"
         stdDeviation="0.49712131"
         inkscape:collect="always" />
    </filter>
  </defs>
  <sodipodi:namedview
     id="base"
     pagecolor="#ffffff"
     bordercolor="#666666"
     borderopacity="1.0"
     inkscape:pageopacity="0.0"
     inkscape:pageshadow="2"
     inkscape:zoom="0.2240755"
     inkscape:cx="-572.52238"
     inkscape:cy="743.5203"
     inkscape:document-units="mm"
     inkscape:current-layer="layer1"
     showgrid="false"
     inkscape:window-width="1920"
     inkscape:window-height="1039"
     inkscape:window-x="0"
     inkscape:window-y="0"
     inkscape:window-maximized="1"
     inkscape:object-nodes="false" />
  <metadata
     id="metadata5">
    <rdf:RDF>
      <cc:Work
         rdf:about="">
        <dc:format>image/svg+xml</dc:format>
        <dc:type
           rdf:resource="http://purl.org/dc/dcmitype/StillImage" />
        <dc:title />
      </cc:Work>
    </rdf:RDF>
  </metadata>
  <g
     inkscape:label="Layer 1"
     inkscape:groupmode="layer"
     id="layer1">
    <path
       style="fill:none;stroke:#000000;stroke-width:0.89999998;stroke-linecap:round;stroke-linejoin:round;stroke-miterlimit:4;stroke-dasharray:none;stroke-opacity:1"
       d="m 47.23111,97.448585 8.85583,-6.199085 8.708232,6.641875 9.446223,-6.346679 9.44622,6.494277 9.00343,-6.789473 7.822645,6.494278 8.56064,-6.34668 9.29862,6.34668 9.29863,-6.199082 7.52746,6.494277 10.1842,-6.641875 8.26545,6.34668 10.62699,-3.247139 -1.91876,9.151031 6.49428,7.82265 -6.34668,6.64187 6.49427,10.92219 -6.49427,6.34668 6.34668,9.15103 -5.90389,8.70824 5.75629,5.46109 -6.05148,8.85584 6.05148,7.97024 -6.19908,7.97025 4.13272,9.15103 -8.11785,-1.18078 -4.13272,6.78947 -7.08466,-6.19908 -5.4611,6.19908 -5.60869,-6.34668 -5.4611,6.34668 -4.87071,-6.49427 -4.57551,6.49427 -5.0183,-6.05148 -4.57552,6.19908 -4.57551,-6.64187 -5.90389,6.49427 -4.723108,-6.19908 -5.165902,6.19908 -3.985125,-6.19908 -4.870707,6.19908 -4.280321,-6.34668 -4.870706,6.49428 -3.985125,-6.34668 -4.13272,6.34668 -3.542335,-6.34668 -5.313501,6.34668 -5.1659,-6.34668 -6.19908,6.05149 -2.65675,-7.23227 -8.85583,-3.09954 6.05148,-7.82265 -6.19908,-7.52746 6.49428,-6.78947 -6.34668,-7.97025 6.19908,-7.23226 -6.49428,-7.37986 6.49428,-6.78947 -6.49428,-7.67506 6.34668,-6.19908 -6.19908,-8.11785 6.19908,-5.0183 -5.60869,-7.82265 8.11784,-9.298625 14.31693,5.75629 10.479404,-6.494277 9.003429,6.34668 9.003429,-6.494278 8.413041,6.34668 8.265447,-6.051484 8.41304,6.346679 8.41303,-6.494277 9.00343,6.051487 8.70824,-6.051487 8.70823,6.494277 11.36499,-6.199081 3.68993,7.232261 9.00343,2.656755 -6.34668,8.11784 6.34668,11.21739 -6.19908,6.93707 6.34667,10.18421 -6.49427,6.93706 6.49427,7.08467 -6.34667,7.52746 6.34667,6.78947 -6.34667,5.75629 6.19908,5.75629 -6.05149,3.24714 5.4611,7.52746 -6.19908,0.14759 -0.73799,8.41304 -7.82265,-5.1659 -4.57551,6.34668 -6.78948,-6.05149 -5.75629,5.7563 -5.90389,-5.90389 -4.42791,6.05148 -5.01831,-6.19908 -4.28031,6.05149 -5.16591,-6.19909 -4.72311,6.49428 -5.31349,-6.64187 -5.165906,6.34668 -4.280318,-6.34668 -4.870709,6.34668 -4.280318,-6.05149 -4.723112,6.19908 -4.280318,-6.49427 -3.985125,6.49427 -4.427915,-6.34668 -4.132721,6.64188 -4.723108,-6.64188 -5.3135,6.34668 -4.57551,-6.49427 -6.93707,4.42791 0.73798,-7.37986 -7.52745,-4.42792 6.49427,-2.95194 -6.19908,-3.54233 6.34668,-4.13272 -6.19908,-6.05149 6.19908,-5.3135 -6.19908,-8.26544 6.19908,-8.41304 -6.49428,-9.00343 6.34668,-6.78947 -6.19908,-7.82265 6.34668,-6.49428 -6.34668,-7.37986 6.78947,-5.90389 -3.68993,-6.641874 8.26544,2.213959 6.19909,-6.346679 10.626994,6.346679 9.151027,-6.494277 8.855831,6.494277 9.593818,-6.346679 8.117846,5.903889 8.117844,-5.903889 9.29863,6.199082 8.26544,-5.903889 7.67505,6.051486 10.627,-6.494277 8.56064,6.34668 11.06979,-4.870707 6.49428,5.903886 -4.57552,7.970253 6.05149,9.74141 -6.19908,6.64188 6.34667,9.88901 -6.64187,7.23226 6.34668,8.11785 -5.75629,8.11784 5.90389,6.49428 -6.05149,6.93707 6.05149,1.03318 -6.49428,6.19908 6.34668,5.16591 -6.34668,4.42791 1.32838,9.29862 -7.82266,-4.42791 -3.68993,6.05148"
       id="path943"
       inkscape:connector-curvature="0" />
    <path
       style="fill:none;stroke:#000000;stroke-width:0.89999998;stroke-linecap:round;stroke-linejoin:round;stroke-miterlimit:4;stroke-dasharray:none;stroke-opacity:1"
       d="m 73.503409,102.0241 -7.232264,6.64187 -0.590389,4.72311 -1.475972,-4.28032 -0.885582,4.13272 -2.65675,-3.98512 -2.213959,4.13272 -3.837523,-3.98512 -4.42792,3.68993 -1.77117,-3.83753 -3.83752,4.28032 2.95194,2.21396 -2.95194,2.06636 3.39473,1.77116 -3.39473,1.62357 3.09954,2.65675 -2.95195,2.36156 3.24714,2.21396 -3.24714,2.65675 3.09955,1.91876 -3.39474,1.77117 3.39474,1.91876 -3.24714,3.24714 3.24714,2.21396 -3.09955,2.36155 2.95195,1.91877 -2.80435,2.50915 2.95195,2.06636 -3.54234,4.72311 3.39474,5.75629 -3.24714,2.65675 3.24714,2.95194 -3.09954,3.54234 2.65675,3.54233 1.32837,-3.39474 3.98513,3.68993 3.68993,-3.98512 2.804341,4.13272 2.066362,-3.98512 3.247138,3.68993 1.771166,-3.24714 2.361557,3.24714 3.247136,-3.83753 2.361557,3.98512 1.918764,-3.83752 2.65675,3.68993 1.771166,-3.39474 2.066361,2.95195 4.870707,-3.09955 4.427915,3.09955 2.066362,-2.95195 2.509152,3.09954 0.885582,-3.24714 3.394734,3.09955 1.91877,-2.95195 2.50915,3.09954 4.13272,-3.83752 2.80435,3.83752 1.47597,-3.09954 2.80435,3.54233 1.91876,-3.54233 2.50915,3.24714 0.88558,-3.39474 2.50916,3.68993 1.77116,-3.68993 2.06636,3.68993 2.50915,-3.39473 2.80435,-2.36156 -2.80435,-4.28032 2.65676,-5.75629 -2.95195,-5.3135 2.65675,-6.64187 -2.50915,-5.75629 3.09954,-5.75629 -3.24714,-6.93707 2.80435,-9.44622 -2.65675,-4.42792 3.09954,-2.50915 -2.95195,-3.39474 2.80435,-1.62356 -4.13272,-4.72312 -0.73798,4.13273 -2.80435,-4.13273 -1.77117,5.3135 -0.88558,5.4611 -3.39474,-10.7746 -4.28032,10.627 -4.57551,-10.77459 -4.87071,10.92219 -5.46109,-10.7746 -10.184208,10.9222 -7.527459,-10.9222 -5.756291,11.06979 -8.560636,-11.21738 -3.985125,4.28032 -2.804347,-4.42792 -2.951943,4.28032 -2.656751,-3.98513 -2.95194,3.98513 -4.87071,-3.98513 -3.39474,5.3135 7.67506,5.75629 4.72311,-4.13272 2.951943,3.98513 2.804346,-3.54233 4.575513,3.39473 6.494277,-11.06979 5.756291,11.21739 12.250568,-11.51258 9.741412,11.51258 12.25057,-11.06979 11.21739,10.92219 4.28032,-3.39473 3.98512,4.28031 -3.39474,8.41304 3.24714,5.3135 -2.80435,7.08467 2.65676,5.75629 -2.95195,6.05149 3.09954,6.78947 -2.95194,5.46109 2.80435,4.42792 -2.95195,5.3135 3.39474,3.68993 -3.68993,2.50915 -5.6087,-3.83753 -5.90389,3.39474 -7.37985,-3.39474 -4.87071,2.80435 -6.05149,-2.95194 -5.313497,3.24714 -4.723108,-3.24714 -5.165903,3.54233 -6.346679,-3.54233 -6.937068,4.13272 -7.97025,-4.28032 -7.084665,3.98512 -5.4611,-3.83752 -6.05148,3.54233 2.80435,-5.75629 -3.39474,-7.82265 3.24714,-6.05149 -2.80435,-6.05148 2.80435,-5.01831 -3.09954,-7.82265 3.09954,-4.72311 -3.24714,-6.34668 3.39474,-5.01831 -3.09955,-5.60869 7.08467,-4.87071 5.60869,4.13272 7.52746,-3.68992 8.560639,3.68992 24.058342,-11.06979 11.217389,11.06979 12.98855,-11.36498 5.01831,4.42792 4.72311,-4.57552 1.62357,1.32838 -2.50916,3.98512 2.65675,2.50916 -3.83752,3.68992 -4.13272,-3.83752 -5.6087,3.83752 -14.90732,-11.06979 -20.663604,10.9222 -17.564065,-6.19908 -7.232264,-4.72312 -10.774597,3.98513 c -0.73799,-0.44279 0,0 0,0"
       id="path945"
       inkscape:connector-curvature="0" />
    <path
       style="fill:none;stroke:#000000;stroke-width:0.89999998;stroke-linecap:round;stroke-linejoin:round;stroke-miterlimit:4;stroke-dasharray:none;stroke-opacity:1"
       d="m 48.41188,105.71403 -3.09954,-3.09955 2.21396,5.16591 -2.95194,2.21396 5.0183,-0.59039 6.05149,3.98512 61.54803,-11.36498 6.64187,5.0183 -11.51258,5.90389 -25.386716,-10.627 -16.383291,10.627 -5.756291,-10.92219 -3.247138,4.28032 -3.099541,-3.98513 -2.951943,3.83753 -3.68993,-4.42792 -0.73799,3.98513"
       id="path947"
       inkscape:connector-curvature="0" />
    <g
       id="layer1-2"
       inkscape:label="Layer 1"
       transform="matrix(0.44051531,0,0,0.42803603,28.72266,66.448225)"
       style="stroke-width:1.15146124;stroke-linecap:round;stroke-miterlimit:4;stroke-dasharray:none">
      <path
         style="fill:none;stroke:#000000;stroke-width:1.15146124;stroke-linecap:round;stroke-linejoin:round;stroke-miterlimit:4;stroke-dasharray:none;stroke-opacity:1;filter:url(#filter919)"
         d="M 46.237628,176.72871 92.475255,146.52725 80.982666,176.99598 56.39387,162.8307 l 30.735995,-22.45065 -11.49259,-1.87088 4.543581,-5.87993 21.648834,44.90128 46.23763,-50.24667 -32.33962,49.44486 -37.952269,-39.82316 3.741775,-3.20723 -20.312486,43.29766 -8.552624,-8.55263 36.348656,-24.58879 1.069078,33.14142 -21.381563,-29.39965 0.801809,28.86511 -14.967093,-10.69078 0.801809,10.95805 -5.612661,-3.74177 117.064049,-21.38157 -44.09947,-11.75985 23.25245,-15.50164 -7.48355,-4.81085 2.40543,-1.87088 22.98518,59.6011 12.56167,-12.56167 4.81085,12.56167 2.40542,-2.6727 1.60362,2.93997 -76.70635,-18.70887 52.65209,-14.43255 -31.27053,-13.89802 13.89801,-8.81989 -4.27631,-2.6727 -4.81085,57.99749 -16.57071,-30.736 -8.55263,30.46873 -9.888967,-21.11429 -5.612659,21.38156 -22.717911,-33.14142 25.390604,8.28536 9.087163,25.3906 6.41447,-24.05426 39.82316,-20.84702 -2.93997,44.09947 -28.8651,-32.87415 49.9794,13.36347 -12.82894,20.04522 -30.73599,-42.49585 30.20145,4.54358 16.57071,37.685 -0.53454,-16.83798 -58.79929,-10.15624 13.89801,26.19241 22.45064,-45.43582"
         id="path917"
         inkscape:connector-curvature="0" />
      <path
         inkscape:connector-curvature="0"
         id="path896"
         d="M 46.237628,176.72871 92.475255,146.52725 80.982666,176.99598 56.39387,162.8307 l 30.735995,-22.45065 -11.49259,-1.87088 4.543581,-5.87993 21.648834,44.90128 46.23763,-50.24667 -32.33962,49.44486 -37.952269,-39.82316 3.741775,-3.20723 -20.312486,43.29766 -8.552624,-8.55263 36.348656,-24.58879 1.069078,33.14142 -21.381563,-29.39965 0.801809,28.86511 -14.967093,-10.69078 0.801809,10.95805 -5.612661,-3.74177 117.064049,-21.38157 -44.09947,-11.75985 23.25245,-15.50164 -7.48355,-4.81085 2.40543,-1.87088 22.98518,59.6011 12.56167,-12.56167 4.81085,12.56167 2.40542,-2.6727 1.60362,2.93997 -76.70635,-18.70887 52.65209,-14.43255 -31.27053,-13.89802 13.89801,-8.81989 -4.27631,-2.6727 -4.81085,57.99749 -16.57071,-30.736 -8.55263,30.46873 -9.888967,-21.11429 -5.612659,21.38156 -22.717911,-33.14142 25.390604,8.28536 9.087163,25.3906 6.41447,-24.05426 39.82316,-20.84702 -2.93997,44.09947 -28.8651,-32.87415 49.9794,13.36347 -12.82894,20.04522 -30.73599,-42.49585 30.20145,4.54358 16.57071,37.685 -0.53454,-16.83798 -58.79929,-10.15624 13.89801,26.19241 22.45064,-45.43582"
         style="fill:none;stroke:#000000;stroke-width:1.15146124;stroke-linecap:round;stroke-linejoin:round;stroke-miterlimit:4;stroke-dasharray:none;stroke-opacity:1" />
    </g>
    <path
       style="fill:none;stroke:#000000;stroke-width:0.89999998;stroke-linecap:round;stroke-linejoin:round;stroke-miterlimit:4;stroke-dasharray:none;stroke-opacity:1"
       d="m 66.271145,208.58928 12.250568,-7.97025 8.413041,10.1842 8.413038,-10.0366 7.970248,9.88901 9.00343,-10.33181 9.59382,10.33181 10.3318,-10.18421 3.54234,7.67505 -1.91877,2.36156 -11.66018,-9.88901 -8.85583,10.03661 -7.67505,-10.03661 -9.593822,10.03661 -7.232261,-9.88901 -8.41304,9.74141 -10.627,-9.88901 1.180779,10.1842 12.988552,-10.3318 7.675055,9.88901 9.741417,-10.03661 7.08466,9.88902 9.00343,-9.15103 9.44622,9.29862 7.52746,-5.75629 -8.11785,-4.42791 -9.15102,10.3318 -9.15103,-10.03661 -8.26544,9.88901 -7.675054,-10.03661 -8.413041,10.03661 -9.003429,-10.1842 -6.494277,4.13272 8.708233,6.34668 9.593818,-9.88901 7.232264,9.88901 10.184206,-10.18421 7.08467,10.03661 9.44622,-10.03661 9.88901,9.88901 5.1659,-3.54233 -11.80778,-6.64187 -8.26544,10.1842 -5.1659,-10.03661 -11.955372,10.18421 -8.117846,-9.44622"
       id="path2291"
       inkscape:connector-curvature="0" />
  </g>
</svg>
