<?xml version="1.0" encoding="UTF-8" standalone="no"?>
<!-- Created with Inkscape (http://www.inkscape.org/) -->

<svg
   xmlns:dc="http://purl.org/dc/elements/1.1/"
   xmlns:cc="http://creativecommons.org/ns#"
   xmlns:rdf="http://www.w3.org/1999/02/22-rdf-syntax-ns#"
   xmlns:svg="http://www.w3.org/2000/svg"
   xmlns="http://www.w3.org/2000/svg"
   xmlns:sodipodi="http://sodipodi.sourceforge.net/DTD/sodipodi-0.dtd"
   xmlns:inkscape="http://www.inkscape.org/namespaces/inkscape"
   width="210mm"
   height="297mm"
   viewBox="0 0 210 297"
   version="1.1"
   id="svg8"
   inkscape:version="0.92.2 2405546, 2018-03-11"
   sodipodi:docname="desktop_app.svg">
  <defs
     id="defs2">
    <filter
       height="1.0398571"
       y="-0.019928572"
       width="1.0171692"
       x="-0.0085846152"
       id="filter919"
       style="color-interpolation-filters:sRGB"
       inkscape:collect="always">
      <feGaussianBlur
         id="feGaussianBlur921"
         stdDeviation="0.49712131"
         inkscape:collect="always" />
    </filter>
  </defs>
  <sodipodi:namedview
     id="base"
     pagecolor="#ffffff"
     bordercolor="#666666"
     borderopacity="1.0"
     inkscape:pageopacity="0.0"
     inkscape:pageshadow="2"
     inkscape:zoom="0.896302"
     inkscape:cx="-89.022671"
     inkscape:cy="732.79701"
     inkscape:document-units="mm"
     inkscape:current-layer="layer1"
     showgrid="false"
     inkscape:window-width="1920"
     inkscape:window-height="1039"
     inkscape:window-x="1920"
     inkscape:window-y="0"
     inkscape:window-maximized="1"
     inkscape:object-nodes="false" />
  <metadata
     id="metadata5">
    <rdf:RDF>
      <cc:Work
         rdf:about="">
        <dc:format>image/svg+xml</dc:format>
        <dc:type
           rdf:resource="http://purl.org/dc/dcmitype/StillImage" />
        <dc:title></dc:title>
      </cc:Work>
    </rdf:RDF>
  </metadata>
  <g
     inkscape:label="Layer 1"
     inkscape:groupmode="layer"
     id="layer1">
    <path
       style="fill:none;stroke:#000000;stroke-width:0.9;stroke-linecap:round;stroke-linejoin:round;stroke-opacity:1;stroke-miterlimit:4;stroke-dasharray:none"
       d="m -110.99309,62.025257 8.85583,-6.199085 8.708232,6.641875 9.446223,-6.346679 9.44622,6.494277 9.00343,-6.789473 7.822649,6.494278 8.560639,-6.34668 9.298622,6.34668 9.298625,-6.199082 7.527457,6.494277 10.184207,-6.641875 8.2654429,6.34668 10.6269982,-3.247139 -1.9187636,9.151027 6.4942765,7.822653 -6.3466792,6.641872 6.4942762,10.922193 -6.4942762,6.346679 6.3466792,9.151025 -5.9038876,8.70824 5.7562906,5.46109 -6.0514849,8.85584 6.0514849,7.97024 -6.1990822,7.97025 4.1327215,9.15103 -8.1178459,-1.18078 -4.1327216,6.78947 -7.0846658,-6.19908 -5.461096,6.19908 -5.608694,-6.34668 -5.461096,6.34668 -4.870707,-6.49427 -4.575513,6.49427 -5.018305,-6.05148 -4.575513,6.19908 -4.575514,-6.64187 -5.903888,6.49427 -4.723109,-6.19908 -5.165902,6.19908 -3.985125,-6.19908 -4.870707,6.19908 -4.280321,-6.34668 -4.870706,6.49428 -3.985125,-6.34668 -4.13272,6.34668 -3.542335,-6.34668 -5.313501,6.34668 -5.1659,-6.34668 -6.19908,6.05149 -2.65675,-7.23227 -8.85583,-3.09954 6.05148,-7.82265 -6.19908,-7.52746 6.49428,-6.78947 -6.34668,-7.97025 6.19908,-7.23226 -6.49428,-7.37986 6.49428,-6.78947 -6.49428,-7.675055 6.34668,-6.199084 -6.19908,-8.117845 6.19908,-5.018305 -5.60869,-7.822652 8.11784,-9.298622 14.31693,5.75629 10.479404,-6.494277 9.003429,6.34668 9.003429,-6.494278 8.413041,6.34668 8.265443,-6.051484 8.413041,6.346679 8.413038,-6.494277 9.00343,6.051487 8.708235,-6.051487 8.708235,6.494277 11.3649842,-6.199081 3.68993,7.232261 9.0034288,2.65675 -6.3466792,8.117845 6.3466792,11.217389 -6.1990819,6.937068 6.3466789,10.184211 -6.4942762,6.93706 6.4942762,7.08467 -6.3466789,7.52746 6.3466789,6.78947 -6.3466789,5.75629 6.1990819,5.75629 -6.0514849,3.24714 5.4610969,7.52746 -6.1990828,0.14759 -0.7379861,8.41304 -7.8226515,-5.1659 -4.575513,6.34668 -6.7894716,-6.05149 -5.75629,5.7563 -5.90389,-5.90389 -4.427915,6.05148 -5.018305,-6.19908 -4.280318,6.05149 -5.165902,-6.19909 -4.723111,6.49428 -5.313498,-6.64187 -5.165902,6.34668 -4.280318,-6.34668 -4.870709,6.34668 -4.280318,-6.05149 -4.723112,6.19908 -4.280318,-6.49427 -3.985125,6.49427 -4.427915,-6.34668 -4.132721,6.64188 -4.723108,-6.64188 -5.3135,6.34668 -4.57551,-6.49427 -6.93707,4.42791 0.73798,-7.37986 -7.52745,-4.42792 6.49427,-2.95194 -6.19908,-3.54233 6.34668,-4.13272 -6.19908,-6.05149 6.19908,-5.3135 -6.19908,-8.26544 6.19908,-8.41304 -6.49428,-9.00343 6.34668,-6.78947 -6.19908,-7.822652 6.34668,-6.494277 -6.34668,-7.379859 6.78947,-5.903889 -3.68993,-6.641875 8.26544,2.213959 6.19909,-6.346679 10.626994,6.346679 9.151027,-6.494277 8.855831,6.494277 9.593818,-6.346679 8.117846,5.903889 8.117847,-5.903889 9.298623,6.199082 8.265443,-5.903889 7.675054,6.051486 10.626999,-6.494277 8.5606377,6.34668 11.0697898,-4.870707 6.4942769,5.903886 -4.5755133,7.97025 6.0514849,9.741416 -6.1990819,6.641872 6.3466789,9.889014 -6.6418735,7.232259 6.3466795,8.11785 -5.7562906,8.11784 5.9038876,6.49428 -6.0514849,6.93707 6.0514849,1.03318 -6.4942765,6.19908 6.3466795,5.16591 -6.3466795,4.42791 1.3283747,9.29862 -7.8226514,-4.42791 -3.6899299,6.05148"
       id="path943"
       inkscape:connector-curvature="0" />
    <path
       style="fill:none;stroke:#000000;stroke-width:0.9;stroke-linecap:round;stroke-linejoin:round;stroke-opacity:1;stroke-miterlimit:4;stroke-dasharray:none"
       d="m -84.720791,66.600768 -7.232264,6.641875 -0.590389,4.723111 -1.475972,-4.280321 -0.885582,4.132723 -2.65675,-3.985125 -2.213959,4.132723 -3.837523,-3.985125 -4.42792,3.689929 -1.77117,-3.837527 -3.83752,4.280318 2.95194,2.213959 -2.95194,2.066362 3.39473,1.771166 -3.39473,1.623568 3.09954,2.65675 -2.95195,2.361554 3.24714,2.213959 -3.24714,2.65675 3.09955,1.918764 -3.39474,1.771166 3.39474,1.918763 -3.24714,3.24714 3.24714,2.21396 -3.09955,2.36155 2.95195,1.91877 -2.80435,2.50915 2.95195,2.06636 -3.54234,4.72311 3.39474,5.75629 -3.24714,2.65675 3.24714,2.95194 -3.09954,3.54234 2.65675,3.54233 1.32837,-3.39474 3.98513,3.68993 3.68993,-3.98512 2.804341,4.13272 2.066362,-3.98512 3.247138,3.68993 1.771166,-3.24714 2.361557,3.24714 3.247136,-3.83753 2.361557,3.98512 1.918764,-3.83752 2.65675,3.68993 1.771166,-3.39474 2.066361,2.95195 4.870707,-3.09955 4.427915,3.09955 2.066362,-2.95195 2.509152,3.09954 0.885582,-3.24714 3.394736,3.09955 1.918764,-2.95195 2.509152,3.09954 4.132723,-3.83752 2.804345,3.83752 1.475973,-3.09954 2.804347,3.54233 1.918764,-3.54233 2.509152,3.24714 0.885582,-3.39474 2.509152,3.68993 1.771168,-3.68993 2.066359,3.68993 2.509152,-3.39473 2.804348,-2.36156 -2.804348,-4.28032 2.656751,-5.75629 -2.951944,-5.3135 2.65675,-6.64187 -2.509152,-5.75629 3.09954,-5.756293 -3.247138,-6.937068 2.804347,-9.44622 -2.656749,-4.427916 3.09954,-2.509152 -2.951945,-3.394736 2.804348,-1.623568 -4.13272,-4.723112 -0.737986,4.132723 -2.804348,-4.132723 -1.771166,5.3135 -0.885584,5.461096 -3.394734,-10.774596 -4.280321,10.626998 -4.575513,-10.774595 -4.870707,10.922193 -5.461095,-10.774596 -10.184207,10.922193 -7.527459,-10.922193 -5.756291,11.069791 -8.560636,-11.217388 -3.985125,4.28032 -2.804347,-4.427916 -2.951943,4.280318 -2.656751,-3.985125 -2.95194,3.985125 -4.87071,-3.985125 -3.39474,5.3135 7.67506,5.756291 4.72311,-4.132723 2.951943,3.985125 2.804346,-3.542331 4.575513,3.394734 6.494277,-11.069789 5.756291,11.217386 12.250568,-11.512581 9.741416,11.512581 12.250565,-11.06979 11.217389,10.922193 4.280318,-3.394734 3.985124,4.280318 -3.394735,8.413041 3.247138,5.313497 -2.804348,7.084666 2.656751,5.756291 -2.951944,6.05149 3.099541,6.78947 -2.951943,5.46109 2.804346,4.42792 -2.951944,5.3135 3.394736,3.68993 -3.689931,2.50915 -5.608693,-3.83753 -5.903889,3.39474 -7.379859,-3.39474 -4.870706,2.80435 -6.051487,-2.95194 -5.3135,3.24714 -4.723108,-3.24714 -5.165903,3.54233 -6.346679,-3.54233 -6.937068,4.13272 -7.97025,-4.28032 -7.084665,3.98512 -5.4611,-3.83752 -6.05148,3.54233 2.80435,-5.75629 -3.39474,-7.82265 3.24714,-6.05149 -2.80435,-6.05148 2.80435,-5.01831 -3.09954,-7.82265 3.09954,-4.723111 -3.24714,-6.346679 3.39474,-5.018304 -3.09955,-5.608693 7.08467,-4.87071 5.60869,4.132723 7.52746,-3.689929 8.560639,3.689929 24.058342,-11.069791 11.217386,11.069791 12.988555,-11.364984 5.018304,4.427916 4.723111,-4.575513 1.623569,1.328375 -2.509153,3.985122 2.65675,2.509155 -3.837527,3.689929 -4.13272,-3.837527 -5.608696,3.837527 -14.907315,-11.069791 -20.663609,10.922193 -17.564065,-6.199081 -7.232264,-4.723112 -10.774597,3.985125 c -0.73799,-0.442791 0,0 0,0"
       id="path945"
       inkscape:connector-curvature="0" />
    <path
       style="fill:none;stroke:#000000;stroke-width:0.9;stroke-linecap:round;stroke-linejoin:round;stroke-opacity:1;stroke-miterlimit:4;stroke-dasharray:none"
       d="m -109.81232,70.2907 -3.09954,-3.099544 2.21396,5.165902 -2.95194,2.21396 5.0183,-0.590389 6.05149,3.985125 61.548028,-11.364986 6.641875,5.018304 -11.512582,5.903889 -25.386717,-10.626998 -16.383291,10.626998 -5.756291,-10.922193 -3.247138,4.28032 -3.099541,-3.985125 -2.951943,3.837527 -3.68993,-4.427915 -0.73799,3.985125"
       id="path947"
       inkscape:connector-curvature="0" />
    <g
       id="layer1-2"
       inkscape:label="Layer 1"
       transform="matrix(0.44051531,0,0,0.42803603,-129.50154,31.024897)"
       style="stroke-width:1.15146128;stroke-miterlimit:4;stroke-dasharray:none;stroke-linecap:round">
      <path
         style="fill:none;stroke:#000000;stroke-width:1.15146128;stroke-linecap:round;stroke-linejoin:round;stroke-miterlimit:4;stroke-dasharray:none;stroke-opacity:1;filter:url(#filter919)"
         d="M 46.237628,176.72871 92.475255,146.52725 80.982666,176.99598 56.39387,162.8307 l 30.735995,-22.45065 -11.49259,-1.87088 4.543581,-5.87993 21.648834,44.90128 46.23763,-50.24667 -32.33962,49.44486 -37.952269,-39.82316 3.741775,-3.20723 -20.312486,43.29766 -8.552624,-8.55263 36.348656,-24.58879 1.069078,33.14142 -21.381563,-29.39965 0.801809,28.86511 -14.967093,-10.69078 0.801809,10.95805 -5.612661,-3.74177 117.064049,-21.38157 -44.09947,-11.75985 23.25245,-15.50164 -7.48355,-4.81085 2.40543,-1.87088 22.98518,59.6011 12.56167,-12.56167 4.81085,12.56167 2.40542,-2.6727 1.60362,2.93997 -76.70635,-18.70887 52.65209,-14.43255 -31.27053,-13.89802 13.89801,-8.81989 -4.27631,-2.6727 -4.81085,57.99749 -16.57071,-30.736 -8.55263,30.46873 -9.888967,-21.11429 -5.612659,21.38156 -22.717911,-33.14142 25.390604,8.28536 9.087163,25.3906 6.41447,-24.05426 39.82316,-20.84702 -2.93997,44.09947 -28.8651,-32.87415 49.9794,13.36347 -12.82894,20.04522 -30.73599,-42.49585 30.20145,4.54358 16.57071,37.685 -0.53454,-16.83798 -58.79929,-10.15624 13.89801,26.19241 22.45064,-45.43582"
         id="path917"
         inkscape:connector-curvature="0" />
      <path
         inkscape:connector-curvature="0"
         id="path896"
         d="M 46.237628,176.72871 92.475255,146.52725 80.982666,176.99598 56.39387,162.8307 l 30.735995,-22.45065 -11.49259,-1.87088 4.543581,-5.87993 21.648834,44.90128 46.23763,-50.24667 -32.33962,49.44486 -37.952269,-39.82316 3.741775,-3.20723 -20.312486,43.29766 -8.552624,-8.55263 36.348656,-24.58879 1.069078,33.14142 -21.381563,-29.39965 0.801809,28.86511 -14.967093,-10.69078 0.801809,10.95805 -5.612661,-3.74177 117.064049,-21.38157 -44.09947,-11.75985 23.25245,-15.50164 -7.48355,-4.81085 2.40543,-1.87088 22.98518,59.6011 12.56167,-12.56167 4.81085,12.56167 2.40542,-2.6727 1.60362,2.93997 -76.70635,-18.70887 52.65209,-14.43255 -31.27053,-13.89802 13.89801,-8.81989 -4.27631,-2.6727 -4.81085,57.99749 -16.57071,-30.736 -8.55263,30.46873 -9.888967,-21.11429 -5.612659,21.38156 -22.717911,-33.14142 25.390604,8.28536 9.087163,25.3906 6.41447,-24.05426 39.82316,-20.84702 -2.93997,44.09947 -28.8651,-32.87415 49.9794,13.36347 -12.82894,20.04522 -30.73599,-42.49585 30.20145,4.54358 16.57071,37.685 -0.53454,-16.83798 -58.79929,-10.15624 13.89801,26.19241 22.45064,-45.43582"
         style="fill:none;stroke:#000000;stroke-width:1.15146128;stroke-linecap:round;stroke-linejoin:round;stroke-miterlimit:4;stroke-dasharray:none;stroke-opacity:1" />
    </g>
    <path
       style="fill:none;stroke:#000000;stroke-width:0.9;stroke-linecap:round;stroke-linejoin:round;stroke-opacity:1;stroke-miterlimit:4;stroke-dasharray:none"
       d="m -91.953055,173.16595 12.250568,-7.97025 8.413041,10.1842 8.413038,-10.0366 7.97025,9.88901 9.003429,-10.33181 9.593818,10.33181 10.331804,-10.18421 3.542333,7.67505 -1.918764,2.36156 -11.66018,-9.88901 -8.855831,10.03661 -7.675055,-10.03661 -9.593818,10.03661 -7.232261,-9.88901 -8.41304,9.74141 -10.627,-9.88901 1.180779,10.1842 12.988552,-10.3318 7.675055,9.88901 9.741415,-10.03661 7.084666,9.88902 9.00343,-9.15103 9.44622,9.29862 7.527457,-5.75629 -8.117846,-4.42791 -9.151027,10.3318 -9.151025,-10.03661 -8.265443,9.88901 -7.675054,-10.03661 -8.413041,10.03661 -9.003429,-10.1842 -6.494277,4.13272 8.708233,6.34668 9.593818,-9.88901 7.232264,9.88901 10.184207,-10.18421 7.084665,10.03661 9.446221,-10.03661 9.889013,9.88901 5.165901,-3.54233 -11.807776,-6.64187 -8.265443,10.1842 -5.165902,-10.03661 -11.955372,10.18421 -8.117846,-9.44622"
       id="path2291"
       inkscape:connector-curvature="0" />
  </g>
</svg>
