<?xml version="1.0" encoding="UTF-8" standalone="no"?>
<!-- Created with Inkscape (http://www.inkscape.org/) -->

<svg
   xmlns:dc="http://purl.org/dc/elements/1.1/"
   xmlns:cc="http://creativecommons.org/ns#"
   xmlns:rdf="http://www.w3.org/1999/02/22-rdf-syntax-ns#"
   xmlns:svg="http://www.w3.org/2000/svg"
   xmlns="http://www.w3.org/2000/svg"
   xmlns:sodipodi="http://sodipodi.sourceforge.net/DTD/sodipodi-0.dtd"
   xmlns:inkscape="http://www.inkscape.org/namespaces/inkscape"
   width="210mm"
   height="297mm"
   viewBox="0 0 210 297"
   version="1.1"
   id="svg8"
   inkscape:version="0.92.2 2405546, 2018-03-11"
   sodipodi:docname="fail.svg">
  <defs
     id="defs2">
    <filter
       inkscape:collect="always"
       style="color-interpolation-filters:sRGB"
       id="filter904"
       x="-0.011973568"
       width="1.0239471"
       y="-0.012026549"
       height="1.0240531">
      <feGaussianBlur
         inkscape:collect="always"
         stdDeviation="0.28038575"
         id="feGaussianBlur906" />
    </filter>
  </defs>
  <sodipodi:namedview
     id="base"
     pagecolor="#ffffff"
     bordercolor="#666666"
     borderopacity="1.0"
     inkscape:pageopacity="0.0"
     inkscape:pageshadow="2"
     inkscape:zoom="3.2060184"
     inkscape:cx="922.85716"
     inkscape:cy="220.00001"
     inkscape:document-units="mm"
     inkscape:current-layer="layer1"
     showgrid="false"
     inkscape:window-width="1920"
     inkscape:window-height="1039"
     inkscape:window-x="0"
     inkscape:window-y="0"
     inkscape:window-maximized="1" />
  <metadata
     id="metadata5">
    <rdf:RDF>
      <cc:Work
         rdf:about="">
        <dc:format>image/svg+xml</dc:format>
        <dc:type
           rdf:resource="http://purl.org/dc/dcmitype/StillImage" />
        <dc:title></dc:title>
      </cc:Work>
    </rdf:RDF>
  </metadata>
  <g
     inkscape:label="Layer 1"
     inkscape:groupmode="layer"
     id="layer1">
    <path
       inkscape:connector-curvature="0"
       id="path898"
       d="m 223.23574,208.44844 -0.49516,16.42289 18.23849,-1.73307 -1.89813,28.22426 -19.06375,-0.66021 -3.30109,8.41776 10.31589,3.9613 1.15538,-20.87935 33.75357,2.22823 -2.22823,17.33068 9.57314,0.0825 1.2379,-8.99545 -18.81616,1.2379 3.71371,-16.25783 h -22.52989 l -0.16505,19.64145 -16.67047,-1.65054 42.58397,-14.93741 -2.64087,16.753 16.09279,-0.74274 -6.51965,7.34491 0.49517,-15.92773 -17.90838,1.89812 15.59762,-41.92375 5.61183,2.39328 -3.87876,14.27719 -36.64203,6.02447 4.12636,-15.68014 -16.67047,1.40296 v -2.97097 l 14.44224,-1.23791 -4.8691,15.59762 18.23848,-2.55834 0.16506,21.20946 -26.8213,-34.4138 52.73481,48.52593 -43.65683,-51.90954 -5.85943,0.33011 -2.47581,10.9761 17.57827,-2.47581 -4.04383,15.8452 24.51054,0.33011 9.90325,-25.50087 6.10701,7.42744 -17.08311,-0.57769 5.19921,14.27719 -13.94708,-5.36426 3.46614,27.39898 17.99091,11.5538 -29.13207,-42.17134 -20.54924,-9.49061 2.88845,11.63631 33.58852,13.45192 -30.53502,9.98577 -1.56801,17.49574 6.93227,-3.30108 19.88903,-39.69552 18.40354,-11.8839 -5.03416,18.48606 -32.68072,12.7917 -11.14115,21.29198 12.37906,-2.80592 -5.44679,-14.27718 10.48094,9.07798 -4.53899,-15.10246 11.55379,8.33524 13.53444,-8.08765 -3.13603,16.83552 15.26752,-4.62152 -0.41265,11.22368 -6.107,1.56802 1.48549,-17.9909 -18.65112,1.2379 7.67502,-29.54469 18.07343,1.56801 0.41264,-6.18953 -12.29654,-1.73307 9.16051,10.39841 -14.6073,-4.95162 5.03415,14.9374 -13.78202,-6.18953 -10.39841,30.36997 -13.86455,7.59249 1.23791,-15.10246 38.12751,-5.61184 -2.14571,17.41321 13.61697,-0.49516 0.3301,-4.78657 -18.81617,-0.0825 -1.89812,-35.65169 15.84521,4.04382 3.46612,-11.14115 -9.73819,-2.22823 -13.86455,39.0353 17.74334,-1.56801"
       style="fill:none;stroke:#000000;stroke-width:0.5;stroke-linecap:round;stroke-linejoin:round;stroke-opacity:1;stroke-miterlimit:4;stroke-dasharray:none;filter:url(#filter904)" />
    <path
       style="fill:none;stroke:#000000;stroke-width:0.5;stroke-linecap:round;stroke-linejoin:round;stroke-opacity:1;stroke-miterlimit:4;stroke-dasharray:none"
       d="m 223.23574,208.44844 -0.49516,16.42289 18.23849,-1.73307 -1.89813,28.22426 -19.06375,-0.66021 -3.30109,8.41776 10.31589,3.9613 1.15538,-20.87935 33.75357,2.22823 -2.22823,17.33068 9.57314,0.0825 1.2379,-8.99545 -18.81616,1.2379 3.71371,-16.25783 h -22.52989 l -0.16505,19.64145 -16.67047,-1.65054 42.58397,-14.93741 -2.64087,16.753 16.09279,-0.74274 -6.51965,7.34491 0.49517,-15.92773 -17.90838,1.89812 15.59762,-41.92375 5.61183,2.39328 -3.87876,14.27719 -36.64203,6.02447 4.12636,-15.68014 -16.67047,1.40296 v -2.97097 l 14.44224,-1.23791 -4.8691,15.59762 18.23848,-2.55834 0.16506,21.20946 -26.8213,-34.4138 52.73481,48.52593 -43.65683,-51.90954 -5.85943,0.33011 -2.47581,10.9761 17.57827,-2.47581 -4.04383,15.8452 24.51054,0.33011 9.90325,-25.50087 6.10701,7.42744 -17.08311,-0.57769 5.19921,14.27719 -13.94708,-5.36426 3.46614,27.39898 17.99091,11.5538 -29.13207,-42.17134 -20.54924,-9.49061 2.88845,11.63631 33.58852,13.45192 -30.53502,9.98577 -1.56801,17.49574 6.93227,-3.30108 19.88903,-39.69552 18.40354,-11.8839 -5.03416,18.48606 -32.68072,12.7917 -11.14115,21.29198 12.37906,-2.80592 -5.44679,-14.27718 10.48094,9.07798 -4.53899,-15.10246 11.55379,8.33524 13.53444,-8.08765 -3.13603,16.83552 15.26752,-4.62152 -0.41265,11.22368 -6.107,1.56802 1.48549,-17.9909 -18.65112,1.2379 7.67502,-29.54469 18.07343,1.56801 0.41264,-6.18953 -12.29654,-1.73307 9.16051,10.39841 -14.6073,-4.95162 5.03415,14.9374 -13.78202,-6.18953 -10.39841,30.36997 -13.86455,7.59249 1.23791,-15.10246 38.12751,-5.61184 -2.14571,17.41321 13.61697,-0.49516 0.3301,-4.78657 -18.81617,-0.0825 -1.89812,-35.65169 15.84521,4.04382 3.46612,-11.14115 -9.73819,-2.22823 -13.86455,39.0353 17.74334,-1.56801"
       id="path896"
       inkscape:connector-curvature="0" />
  </g>
</svg>
