<?xml version="1.0" encoding="UTF-8" standalone="no"?>
<!-- Created with Inkscape (http://www.inkscape.org/) -->

<svg
   xmlns:dc="http://purl.org/dc/elements/1.1/"
   xmlns:cc="http://creativecommons.org/ns#"
   xmlns:rdf="http://www.w3.org/1999/02/22-rdf-syntax-ns#"
   xmlns:svg="http://www.w3.org/2000/svg"
   xmlns="http://www.w3.org/2000/svg"
   xmlns:sodipodi="http://sodipodi.sourceforge.net/DTD/sodipodi-0.dtd"
   xmlns:inkscape="http://www.inkscape.org/namespaces/inkscape"
   width="210mm"
   height="297mm"
   viewBox="0 0 210 297"
   version="1.1"
   id="svg8"
   inkscape:version="0.92.2 2405546, 2018-03-11"
   sodipodi:docname="gpu2.svg">
  <defs
     id="defs2">
    <filter
       inkscape:collect="always"
       style="color-interpolation-filters:sRGB"
       id="filter2194"
       x="-0.021288798"
       width="1.0425776"
       y="-0.027822099"
       height="1.0556442">
      <feGaussianBlur
         inkscape:collect="always"
         stdDeviation="0.54099979"
         id="feGaussianBlur2196" />
    </filter>
    <filter
       inkscape:collect="always"
       style="color-interpolation-filters:sRGB"
       id="filter2198"
       x="-0.038076567"
       width="1.0761531"
       y="-0.037860228"
       height="1.0757205">
      <feGaussianBlur
         inkscape:collect="always"
         stdDeviation="0.54099979"
         id="feGaussianBlur2200" />
    </filter>
    <filter
       inkscape:collect="always"
       style="color-interpolation-filters:sRGB"
       id="filter2202"
       x="-0.0095936133"
       width="1.0191872"
       y="-0.016017772"
       height="1.0320355">
      <feGaussianBlur
         inkscape:collect="always"
         stdDeviation="0.54099979"
         id="feGaussianBlur2204" />
    </filter>
    <filter
       inkscape:collect="always"
       style="color-interpolation-filters:sRGB"
       id="filter2206"
       x="-0.027997446"
       width="1.0559949"
       y="-0.027764153"
       height="1.0555283">
      <feGaussianBlur
         inkscape:collect="always"
         stdDeviation="0.54099979"
         id="feGaussianBlur2208" />
    </filter>
  </defs>
  <sodipodi:namedview
     id="base"
     pagecolor="#ffffff"
     bordercolor="#666666"
     borderopacity="1.0"
     inkscape:pageopacity="0.0"
     inkscape:pageshadow="2"
     inkscape:zoom="1.3578431"
     inkscape:cx="264.53212"
     inkscape:cy="260.00994"
     inkscape:document-units="mm"
     inkscape:current-layer="layer1"
     showgrid="false"
     inkscape:window-width="1920"
     inkscape:window-height="1039"
     inkscape:window-x="0"
     inkscape:window-y="0"
     inkscape:window-maximized="1"
     inkscape:object-nodes="false"
     inkscape:snap-nodes="false" />
  <metadata
     id="metadata5">
    <rdf:RDF>
      <cc:Work
         rdf:about="">
        <dc:format>image/svg+xml</dc:format>
        <dc:type
           rdf:resource="http://purl.org/dc/dcmitype/StillImage" />
        <dc:title />
      </cc:Work>
    </rdf:RDF>
  </metadata>
  <g
     inkscape:label="Layer 1"
     inkscape:groupmode="layer"
     id="layer1">
    <path
       inkscape:connector-curvature="0"
       id="path2170"
       d="m 102.53165,185.41698 -5.066243,4.1894 -5.163674,-4.09197 -4.091967,3.99454 -4.676534,-4.1894 -4.384251,4.48168 -3.897112,-4.38425 -4.87139,4.28683 -4.87139,-4.38426 -4.286823,4.48168 -5.455957,-4.38425 -3.99454,4.09197 -5.261102,-4.1894 -2.825406,2.53313 4.286824,4.96882 -4.579107,5.45595 4.286824,4.28683 -4.384251,5.55338 4.481679,5.84567 -3.994542,5.2611 4.286825,4.96882 -4.579107,6.04052 1.948556,1.26656 4.384251,-4.38425 3.799684,4.48168 5.650813,-4.67654 4.091967,4.57911 5.553385,-4.48168 3.994539,4.48168 4.968818,-4.38425 4.481679,4.48168 5.261101,-4.57911 4.286823,4.38425 4.481679,-4.48168 5.943099,4.38426 1.94855,-2.14341 -1.65627,-1.85113 -3.897112,3.99454 -4.968818,-4.09197 -4.579106,4.28682 -4.968818,-4.38425 -3.99454,4.28682 -4.871389,-4.18939 -4.579107,4.18939 -4.968818,-3.99453 -5.845668,4.09196 -3.897112,-4.18939 -5.358528,4.18939 -2.825406,-4.38425 -4.579107,-2.24084 4.773962,-4.18939 -4.676535,-5.16368 4.48168,-5.2611 -4.286825,-4.96882 4.189397,-4.77396 -3.994542,-5.16367 4.189397,-3.99454 -3.702256,-5.45596 5.261102,3.89711 3.897111,-4.67653 3.507401,4.67653 4.481678,-4.38425 4.579107,4.28683 5.163673,-4.38426 4.286823,4.48168 4.579107,-4.5791 3.604828,4.28682 4.676535,-4.38425 4.676534,4.28682 4.481679,-4.09197 4.091963,4.28683 2.33827,-1.85113 -0.19485,-1.7537 -3.994544,3.40997 -5.261101,-4.09197 -3.799684,4.28683 -4.384251,-3.99454 -4.189395,3.89711 -4.384251,-3.99454 -4.676535,4.09197 -4.384251,-4.38425 -4.579106,4.5791 -5.943096,-4.48168 -3.312546,4.28683 -4.968817,-3.99454 -5.943094,5.84567 4.189394,5.35853 -4.286825,4.77396 4.09197,4.77396 -4.189397,4.77396 4.384252,5.45596 -4.579107,5.2611 4.481679,3.99454 -4.579107,1.65627 4.676535,4.28683 5.066246,-4.96882 4.091967,4.5791 5.650812,-4.48168 4.481679,4.38426 5.455957,-4.38426 4.189395,4.1894 4.189395,-3.99454 3.799684,4.1894 5.163674,-4.1894 4.579106,4.28682 4.87139,-4.09196 4.091972,3.60483"
       style="fill:none;stroke:#000000;stroke-width:0.5;stroke-linecap:round;stroke-linejoin:round;stroke-opacity:1;stroke-miterlimit:4;stroke-dasharray:none;filter:url(#filter2194)" />
    <path
       inkscape:connector-curvature="0"
       id="path2172"
       d="m 118.41238,204.4154 -3.40997,-8.67107 -1.7537,0.38971 -0.0974,3.11769 4.57911,-1.65627 -0.0974,8.57364 -4.57911,9.54793 -3.79968,-1.65627 1.16913,-2.04599 11.30163,3.31255 10.13249,3.60483 -3.02026,3.70225 3.5074,1.16914 0.77942,-2.04599 -5.2611,-1.36399 2.72798,-5.94309 6.13795,-3.11769 -0.682,3.99454 3.60483,-3.31255 -0.29228,4.1894 1.85113,-1.26656 -0.682,-2.24084 -2.63055,3.02026 0.0974,-4.28683 -2.63055,3.50741 2.14341,-8.57365 1.26656,4.09197 1.26657,-4.28683 1.94855,3.50741 0.38971,-1.55885 -1.46142,-1.94856 -0.68199,4.57911 -1.36399,-4.87139 -1.26656,4.87139 -4.96882,-12.2759 3.31255,2.43569 -1.07171,-4.87139 3.02026,0.77943 -0.0974,2.24083 -4.09196,-1.65627 1.0717,3.89712 -11.39905,-4.38426 3.79968,-1.46141 -3.70225,-2.53313 3.70225,-0.87685 -3.70225,2.92284 3.70225,2.04598 -13.05532,8.7685 -0.19486,-4.5791 -3.70226,3.02026 -0.48713,-3.11769 2.14341,-0.87685 0.38971,4.96882 3.11769,-3.11769 -1.16913,13.25018 -2.53313,-3.5074 v 4.48168 l -2.04598,-3.21512 0.29228,2.72798 2.53313,0.19485 1.16913,-5.06624 5.84567,2.8254 3.79968,5.84567 -5.06624,0.87685 2.04598,3.5074 -2.14341,-0.19485 -0.77943,-2.14341 4.48168,0.77942 -3.40997,-3.60483 6.23538,-2.33827 2.53312,3.40997 -3.31254,4.77397 -0.682,-3.79969 1.36399,-4.18939 2.72798,4.96882 -3.99454,1.85112 2.14341,2.14341 1.7537,-1.36399 -3.79968,-1.75369 3.89711,-1.65628 -4.1894,-0.97428 4.1894,-3.99454 8.7685,0.0974 -2.24084,3.89711 3.89711,-1.7537 -0.87685,2.82541 -2.33826,-0.0974 2.53312,-3.89711 -4.28682,1.94856 2.33826,-3.60483 -11.30162,4.5791 3.70226,3.11769 -3.02026,2.04599 0.97427,-8.7685 1.26656,8.86592 0.97428,-2.92283 -5.55338,-7.0148 -9.15822,2.33827 -0.0974,2.43569 2.33827,1.46142 -1.55884,-4.28682 3.70225,2.53312 -2.33827,-3.70226 3.21512,2.24084 -2.63055,-3.21512 16.4653,4.96882 -2.24084,3.31255 1.16914,0.77942 2.24083,-1.46142 -4.87139,-1.0717 10.42478,-20.94698 2.24084,1.55884 -1.36399,2.53313 -3.70226,-3.02026 0.97428,4.09196 -8.86593,-9.06078 3.79969,1.16913 -3.02027,-3.89711 4.28683,0.38971 -1.46142,-1.85113 -2.33827,0.682 3.31255,2.92283 -4.38425,-0.29228 3.5074,2.92283 -12.56819,-0.58457 1.85113,-4.67653 -2.4357,-0.68199 -1.16913,1.85112 4.48168,-0.29228 -3.70226,2.33827 4.09197,-1.26656 -3.21512,2.53312 3.79969,-0.87685 -9.35307,13.34761 -1.07171,-4.48168 -2.63055,4.77396 -1.55884,-2.8254 1.36399,-1.85113 1.7537,4.38425 2.14341,-4.48168 3.89711,3.70226 -1.65627,5.06624 4.87139,-0.0974 1.85113,5.9431 -4.48168,2.72798 2.63055,-8.86593 -6.91738,6.23538 4.38426,-8.86593 -5.45596,-0.38972 -2.4357,4.67654 4.96882,-1.36399 2.14341,-6.62509 -7.79422,-5.2611 9.54792,0.58457 -6.43023,-6.33281 9.25564,4.48168 4.67653,-9.74278 -1.46141,-0.48714 -1.94856,2.82541 2.53312,6.43023 5.16368,-8.28136 -2.33827,8.7685 4.38425,-5.74824 -0.58457,-2.53312 -3.79968,2.53312 1.94856,7.0148 6.3328,-2.24084 0.0974,-4.18939 -2.63055,0.87685 -2.63055,6.62509 8.28136,-2.72798 -7.40451,4.48168 5.45596,0.19485 2.8254,-1.7537 -0.38971,-2.72798 -6.81994,6.23538 8.7685,1.7537 -1.65627,1.36399 -2.72798,-4.18939 -4.57911,2.43569 7.89165,4.96882 -8.37879,-2.63055 7.98908,4.67653 -2.53312,0.77943 -1.26656,-5.06625 -4.96882,1.55884 5.84567,7.01481 -7.30709,-5.9431 5.55339,7.59937 1.55884,-0.87685 -8.57364,-5.06625 -5.55339,6.52767 2.4357,2.8254 1.7537,-4.87139 -4.87139,-3.89711 -10.03507,-9.74278 -3.99453,3.31255 -0.29229,-2.72798 4.38425,3.79968 6.23538,-7.59937 -0.68199,-4.28682 -5.55339,-2.04598 0.682,3.31254 3.21512,-3.31254 -1.55885,4.48168 8.86593,-0.87685 3.02026,-6.43024 -3.21512,-1.7537 2.92284,8.47622 10.13249,-0.87685 0.58457,-3.5074 -4.77397,1.46141 -2.04598,4.96882 10.61963,0.682 -0.682,-2.04599 -7.59936,4.77396 6.62509,4.57911 c 0,0 2.33826,-4.09197 1.94855,-3.89711 -0.38971,0.19486 -8.37879,3.02026 -8.37879,3.02026 l 1.65627,4.87139 -3.60482,-1.0717"
       style="fill:none;stroke:#000000;stroke-width:0.5;stroke-linecap:round;stroke-linejoin:round;stroke-opacity:1;stroke-miterlimit:4;stroke-dasharray:none;filter:url(#filter2198)" />
    <path
       d="m 22.872096,171.89238 6.475836,-2.06675 3.582376,1.92897 -2.20454,3.58238 4.822431,0.8267 -4.271296,3.30681 3.995727,4.13351 -3.995727,4.27129 4.271296,2.75568 -4.40908,4.82243 4.271296,6.20027 -4.133512,5.23578 4.271296,5.37356 -4.271296,3.85795 4.133512,0.55113 -3.857945,3.16903 4.133511,4.40907 -4.409078,4.40908 4.133512,4.40908 -4.271296,4.96022 4.546862,3.99572 -4.409078,4.13352 3.582377,3.72016 0.688919,-4.40908 -4.271296,-3.58238 8.129239,-7.71589 4.82243,4.54687 5.373566,-4.40908 6.475833,7.71588 -3.306807,2.75568 -6.062485,-4.54686 3.995726,-0.13779 -4.133511,-1.51562 19.565289,-4.13351 4.271296,4.40908 4.546862,-4.68465 4.82243,4.68465 6.751402,-4.68465 4.546862,4.68465 6.200267,-4.68465 4.822428,4.40908 4.2713,-4.54686 4.27129,6.7514 -4.13351,4.13351 -5.23578,-4.27129 -2.204541,3.99572 -4.684646,-3.99572 -3.306808,4.13351 -3.995727,-4.40908 -3.30681,4.82243 -3.169025,-4.82243 -3.582377,4.96021 -3.857945,-4.40908 -3.306807,4.13352 -3.444595,-4.2713 -4.546862,4.2713 -3.169025,-2.89346 7.026971,-7.85367 8.267022,4.54686 4.409078,-4.40908 3.995729,4.40908 3.857943,-4.68465 6.475835,4.68465 1.791187,-4.82243 3.99573,4.82243 4.822423,-5.098 2.75568,5.23578 3.30681,-5.09799 3.85794,4.82243 3.99573,2.20453 1.10227,4.13352 2.61789,-3.16903 -7.44032,-1.51562 7.99145,-6.06248 7.57811,4.54686 3.85794,-4.68465 3.72016,4.54687 3.72016,-4.54687 4.40908,4.2713 3.30681,-4.13351 4.96022,4.54686 4.54686,-6.06248 -3.72016,-4.40908 3.85794,-6.20027 -3.99573,-5.64913 3.99573,-6.61362 -4.27129,-6.06248 4.40908,-4.96022 -4.82243,-6.33805 5.09799,-3.99573 -4.27129,-4.40907 3.99573,-3.72016 -1.92898,-2.75568 -5.78691,4.82243 -4.40908,-4.40908 -4.96021,4.13351 -4.96022,-4.27129 -3.99573,4.96021 -5.09799,-4.82243 -4.54687,4.40908 -4.27129,-4.27129 -4.54686,4.54686 -4.13351,-4.2713 -3.99573,3.72016 -3.72016,-3.99572 -3.857947,4.27129 -4.684647,-4.54686 -3.995726,4.68464 -4.546862,-4.68464 -3.720161,4.68464 -4.133511,-4.68464 -4.271296,4.68464 -4.822431,-4.40907 -5.235781,4.54686 -5.097997,-4.82243 -5.511347,4.27129 -6.200267,-4.27129 -4.684647,4.27129 -4.271295,-4.13351 -5.235782,6.06249 4.133512,5.23577 -4.271296,6.88919 m 15.858688,48.27556 3.799684,-3.79969 0.779423,4.57911 0.292282,-4.87139 4.189396,-0.48714 -4.286823,-1.26656 10.327347,-4.38425 4.384251,4.28682 4.286823,-4.57911 5.163673,4.77397 4.189396,-4.67654 3.799684,4.77396 3.897112,-4.87139 4.091967,4.57911 4.091968,-4.38425 4.38425,4.48168 4.28682,-4.28682 6.04053,3.99454 6.72252,-4.09197 7.79422,4.38425 3.79968,-4.48168 3.5074,4.28682 3.79969,-4.28682 4.5791,4.38425 3.60483,-4.67653 4.28683,4.77396 3.31254,-4.38425 5.35853,3.70225 -3.89711,-6.23537 4.57911,-3.60483 -4.38426,-6.33281 4.38426,-5.55338 -4.57911,-5.9431 4.57911,-5.35853 -4.57911,-6.62509 4.38425,-4.09197 -4.28682,-5.74824 4.38425,-2.53312 -4.1894,-3.5074 3.99454,-2.72798 -6.43023,-1.36399 -6.04053,4.1894 -4.38425,-4.1894 -4.87139,4.1894 -4.5791,-4.57911 -4.67654,4.1894 -4.28682,-3.89712 -4.96882,4.48168 -4.38425,-4.77396 -4.09197,4.57911 -3.60483,-4.57911 -4.38425,4.57911 -3.40997,-4.38425 -3.702256,4.28682 -5.163674,-4.1894 -3.409973,4.28683 -4.579106,-4.48168 -3.702256,4.48168 -4.676535,-4.57911 -5.261101,4.38425 -4.773962,-4.18939 -5.943096,4.28682 -5.2611,-4.67654 -5.163674,4.87139 -5.650812,-4.5791 -4.676534,4.38425 -4.384252,-4.09197 3.507401,-4.48168 -7.307085,0.29229 c 0,0 -4.286824,-4.96882 -3.994539,-4.28683 m -0.292285,3.21512 4.676534,-3.40997 7.599371,7.50194 -4.384252,5.55338 4.384252,5.65082 -4.481679,5.45595 4.481679,5.16367 -4.384252,5.45596 4.384252,5.9431 -4.579107,4.5791 4.773962,6.72252 -4.773962,4.38425 4.676534,5.2611 -4.579106,4.57911 4.384248,4.28682 -4.384248,3.5074 4.481679,3.5074 -2.240841,3.31255 -2.143411,-1.85113 4.481679,-5.16367 -4.676534,-3.5074 6.430235,-5.74824 5.650812,4.28682 4.871389,-4.57911 8.183935,6.91738 -6.040524,3.99454 -3.799684,-3.11769 8.281363,-7.6968 8.281363,4.96882 -4.091967,4.1894 -0.194856,0.29228 1.461417,1.26656 4.286823,-4.38425 3.11769,4.57911 3.799684,-4.67654 3.799684,4.48168 3.897112,-4.1894 2.727978,4.1894 3.799684,-4.28682 3.11769,4.28682 3.702256,-4.28682 4.384251,4.48168 3.020262,-4.38426 4.091964,4.38426 2.4357,-4.28683 4.28682,-1.0717 -9.35307,-5.2611 -4.579104,4.28682 -4.481678,-4.48168 -2.727979,4.48168 -4.676534,-4.38425 -3.702256,4.28682 -4.579107,-4.28682 -4.189395,4.48168 -4.189396,-4.67654 -3.897111,4.57911 -5.066246,-4.57911 -10.424774,11.00934 -2.143413,-1.94855 4.189397,-4.57911 -5.74824,-4.38425 -5.261102,4.28682 -8.476218,-7.20965 4.189394,-4.38426 -4.384249,-3.89711 4.286821,-3.79968 -4.286821,-7.98908 4.481676,-4.38425 -4.286821,-6.72252 3.994539,-3.99454 -4.384252,-6.23538 4.579107,-3.99454 -4.286821,-5.55338 4.091966,-5.2611 -5.261102,-0.48714 -5.261099,-5.06625 -1.851128,1.36399 2.922833,3.11769 5.261102,-3.79968 -1.266563,4.38425 4.579107,-1.94856 -3.312544,3.79969 7.307085,6.04052 4.579104,-4.28682 5.455957,4.28682 5.84567,-4.77396 5.163672,4.67653 5.261102,-4.28682 5.066245,4.38425 4.773962,-4.28682 4.286823,4.18939 3.507401,-4.28682 4.87139,4.48168 3.604829,-4.38425 4.871389,4.28682 3.507401,-4.57911 3.897111,4.87139 4.1894,-4.77396 3.70225,4.57911 4.77396,-4.57911 4.1894,4.48168 4.87139,-4.48168 4.48168,4.67653 5.06624,-4.5791 3.89712,4.38425 4.96881,-4.48168 4.96882,4.57911 5.35853,-4.48168 4.57911,3.79968 -4.48168,4.57911 4.38425,5.16367 -4.38425,4.48168 4.48168,4.87139 -4.28683,6.23538 4.28683,5.84567 -4.57911,5.65081 4.28682,6.81995 -4.18939,4.48168 4.38425,4.5791 -2.33827,3.99454 -5.45595,-4.48168 -3.5074,4.67654 -4.57911,-4.57911 -3.11769,4.57911 -4.87139,-4.57911 -3.21512,4.38425 -4.38425,-4.18939 -3.40997,4.48167 -3.99454,-4.48167 -5.9431,7.11223 2.53312,3.79968 4.48168,-4.77396 1.36399,2.53312 -1.94855,1.85113 -2.14341,-4.28683 -4.1894,3.11769 1.26656,-9.45049 2.53313,10.5222 1.55884,-4.1894 2.33827,3.89712 -2.63055,0.38971 -4.1894,-0.29229 3.02026,-5.74824 -5.2611,-4.5791 -5.55338,4.38425 4.48168,4.48168 -1.36399,1.46141 -5.55339,-3.79968 -2.8254,4.28682 -4.091972,-4.28682 -3.312546,4.1894 -3.799684,-4.57911 -3.702256,4.57911 -3.215117,-4.48168 -3.799684,4.48168 -3.507401,-4.09197 -3.702256,3.89711 -3.409974,-4.38425 -4.579106,4.67653 -5.163673,-4.67653 4.091967,-0.29228 -4.091967,-0.682 4.091967,-0.77942 -9.937636,-4.48168 -6.430235,4.77396 7.209658,5.84567 2.435695,-1.7537 -4.189396,-3.02026 3.897113,-1.16914 -4.676536,-4.5791 -5.943094,4.38425 -3.507402,-4.28682 -4.579106,4.09196 -6.13795,-4.96882 4.579107,-4.18939 -4.384252,-4.77396 4.481679,-4.1894 -4.481679,-2.92283 4.481679,-3.21512 -4.676534,-5.2611 4.676534,-4.87139 -4.676534,-6.72252 4.384249,-4.09196 -4.286821,-7.11223 7.599367,-7.89166 5.066244,4.38425 4.676535,-4.5791 5.650814,4.48168 5.650812,-4.28683 5.261101,4.38425 5.163673,-4.48167 4.968818,4.38425 3.897112,-4.67654 4.189395,4.57911 3.507401,-4.1894 4.676534,4.38425 3.799684,-4.77396 4.189396,4.67654 4.384247,-4.57911 3.5074,4.67653 4.09197,-4.5791 4.48168,4.5791 4.28682,-4.5791 4.48168,4.28682 4.96882,-4.38425 4.38425,4.57911 4.67654,-4.48168 4.28682,4.48168 5.45596,-4.57911 4.38425,4.67653 4.5791,-4.09196 -3.79968,11.78876 4.38425,5.84567 -4.57911,5.35853 4.57911,5.65081 -4.38425,5.55338 4.48168,5.65082 -4.48168,6.62509 4.48168,5.74824 -4.28683,3.21511 -2.04598,4.57911 -5.65081,-4.28682 -3.21512,4.28682 -4.5791,-4.28682 -3.89712,4.48168 -3.79968,-4.57911 -3.21512,4.1894 -4.38425,-4.28683 -3.60483,4.57911 -3.11769,-4.48168 -3.5074,4.48168 -5.45596,-4.48168 -3.89711,4.48168 -5.163671,-4.1894 -4.286823,4.09197 -4.481679,-4.38425 -3.409973,4.38425 -3.897112,-4.18939 -3.702256,4.18939 -4.968818,-4.38425 -5.066245,4.67653 -4.189396,-4.67653 -5.845668,4.28682 -0.779422,-4.48168 -1.266561,4.57911 -0.292284,-4.38425"
       style="fill:none;stroke:#000000;stroke-width:0.5;stroke-linecap:round;stroke-linejoin:round;stroke-opacity:1;stroke-miterlimit:4;stroke-dasharray:none;filter:url(#filter2202)"
       id="path2174" />
    <path
       d="m 144.58286,207.75613 3.89711,3.60483 -5.16368,2.92283 1.26657,7.30709 -5.55339,-0.0974 -0.97428,6.13795 -6.13795,-1.46142 -2.72798,5.06625 -3.99453,-3.89711 -5.35853,3.5074 -3.02027,-5.45596 -6.13795,0.87685 0.0974,-5.74824 -5.65081,-0.77942 2.72798,-4.09197 -5.35853,-3.02026 3.79968,-3.21512 -4.09197,-2.33826 4.38425,-1.36399 -2.63055,-6.04053 6.04053,-2.24084 0.77942,-7.40451 5.55338,1.7537 2.4357,-5.74824 5.06624,3.60483 4.67654,-4.1894 3.60483,5.45596 6.3328,-1.7537 1.36399,7.11223 6.6251,2.14341 -2.33827,7.0148 4.48168,4.09197 -5.16368,3.40997 -1.55884,11.8862 -7.30709,-0.29229 m -9.51029,2.7972 6.04053,3.79968 2.72798,-6.04052 5.94309,1.7537 0.87685,-7.40452 5.45596,-0.19485 -2.24084,-7.50194 4.67653,-4.48168 -5.2611,-4.48168 1.7537,-6.91737 -7.0148,-1.36399 -1.85113,-6.72252 -6.43023,2.63055 -4.38425,-5.45596 -3.70226,4.96882 -5.74824,-3.11769 -0.77942,5.65081 -6.52766,-0.48714 0.77942,6.33281 -6.33281,3.02027 3.40997,6.81994 -3.21511,7.30709 5.55338,2.14341 0.19486,7.50194 6.3328,-0.77943 2.63056,6.23538 5.84566,-3.31254 3.40998,4.38425 3.21511,-4.96882 5.55339,2.53313 1.36399,-6.52767 5.74824,0.682 -0.29229,-6.91738 4.77397,-1.55884 -3.11769,-7.0148 2.92283,-6.33281 -6.04052,-2.4357 -0.682,-8.37879 -6.62509,1.16914 -3.11769,-5.74824 -5.06624,3.5074 -4.48168,-3.70226 -3.11769,4.77396 -4.77396,-1.94855 -0.77943,5.84567 -7.69679,2.53312 1.94855,6.43023 -4.67653,5.45596 5.06624,4.57911 -1.26656,7.69679 5.84567,0.0974 2.4357,7.40451 5.16367,-2.53312 3.99454,5.45596 5.06624,-4.96882 4.38426,3.02026 2.92283,-5.74824 5.06624,1.07171 0.87685,-7.6968 4.8714,-1.0717 -2.63055,-6.72252 3.99453,-5.16368 -5.65081,-3.89711 0.0974,-7.89165 -6.23538,0.58457 -2.43569,-6.52766 -6.33281,3.02026 -4.09197,-4.48168 -3.11769,4.5791 -5.65081,-2.24083 -0.38971,5.55338 -6.62509,0.19486 0.77942,6.72251 -5.94309,5.35853 4.18939,5.2611 -2.24084,7.59937 5.16368,1.07171 2.24084,8.47622 5.74823,-2.14342 3.50741,5.35853 5.55338,-3.79968 5.84567,3.5074"
       style="fill:none;stroke:#000000;stroke-width:0.5;stroke-linecap:round;stroke-linejoin:round;stroke-opacity:1;stroke-miterlimit:4;stroke-dasharray:none;filter:url(#filter2206)"
       id="path2176" />
    <path
       style="fill:none;stroke:#000000;stroke-width:0.5;stroke-linecap:round;stroke-linejoin:round;stroke-opacity:1;stroke-miterlimit:4;stroke-dasharray:none"
       d="m 102.53165,185.41698 -5.066243,4.1894 -5.163674,-4.09197 -4.091967,3.99454 -4.676534,-4.1894 -4.384251,4.48168 -3.897112,-4.38425 -4.87139,4.28683 -4.87139,-4.38426 -4.286823,4.48168 -5.455957,-4.38425 -3.99454,4.09197 -5.261102,-4.1894 -2.825406,2.53313 4.286824,4.96882 -4.579107,5.45595 4.286824,4.28683 -4.384251,5.55338 4.481679,5.84567 -3.994542,5.2611 4.286825,4.96882 -4.579107,6.04052 1.948556,1.26656 4.384251,-4.38425 3.799684,4.48168 5.650813,-4.67654 4.091967,4.57911 5.553385,-4.48168 3.994539,4.48168 4.968818,-4.38425 4.481679,4.48168 5.261101,-4.57911 4.286823,4.38425 4.481679,-4.48168 5.943099,4.38426 1.94855,-2.14341 -1.65627,-1.85113 -3.897112,3.99454 -4.968818,-4.09197 -4.579106,4.28682 -4.968818,-4.38425 -3.99454,4.28682 -4.871389,-4.18939 -4.579107,4.18939 -4.968818,-3.99453 -5.845668,4.09196 -3.897112,-4.18939 -5.358528,4.18939 -2.825406,-4.38425 -4.579107,-2.24084 4.773962,-4.18939 -4.676535,-5.16368 4.48168,-5.2611 -4.286825,-4.96882 4.189397,-4.77396 -3.994542,-5.16367 4.189397,-3.99454 -3.702256,-5.45596 5.261102,3.89711 3.897111,-4.67653 3.507401,4.67653 4.481678,-4.38425 4.579107,4.28683 5.163673,-4.38426 4.286823,4.48168 4.579107,-4.5791 3.604828,4.28682 4.676535,-4.38425 4.676534,4.28682 4.481679,-4.09197 4.091963,4.28683 2.33827,-1.85113 -0.19485,-1.7537 -3.994544,3.40997 -5.261101,-4.09197 -3.799684,4.28683 -4.384251,-3.99454 -4.189395,3.89711 -4.384251,-3.99454 -4.676535,4.09197 -4.384251,-4.38425 -4.579106,4.5791 -5.943096,-4.48168 -3.312546,4.28683 -4.968817,-3.99454 -5.943094,5.84567 4.189394,5.35853 -4.286825,4.77396 4.09197,4.77396 -4.189397,4.77396 4.384252,5.45596 -4.579107,5.2611 4.481679,3.99454 -4.579107,1.65627 4.676535,4.28683 5.066246,-4.96882 4.091967,4.5791 5.650812,-4.48168 4.481679,4.38426 5.455957,-4.38426 4.189395,4.1894 4.189395,-3.99454 3.799684,4.1894 5.163674,-4.1894 4.579106,4.28682 4.87139,-4.09196 4.091972,3.60483"
       id="path1305"
       inkscape:connector-curvature="0" />
    <path
       style="fill:none;stroke:#000000;stroke-width:0.5;stroke-linecap:round;stroke-linejoin:round;stroke-opacity:1;stroke-miterlimit:4;stroke-dasharray:none"
       d="m 118.41238,204.4154 -3.40997,-8.67107 -1.7537,0.38971 -0.0974,3.11769 4.57911,-1.65627 -0.0974,8.57364 -4.57911,9.54793 -3.79968,-1.65627 1.16913,-2.04599 11.30163,3.31255 10.13249,3.60483 -3.02026,3.70225 3.5074,1.16914 0.77942,-2.04599 -5.2611,-1.36399 2.72798,-5.94309 6.13795,-3.11769 -0.682,3.99454 3.60483,-3.31255 -0.29228,4.1894 1.85113,-1.26656 -0.682,-2.24084 -2.63055,3.02026 0.0974,-4.28683 -2.63055,3.50741 2.14341,-8.57365 1.26656,4.09197 1.26657,-4.28683 1.94855,3.50741 0.38971,-1.55885 -1.46142,-1.94856 -0.68199,4.57911 -1.36399,-4.87139 -1.26656,4.87139 -4.96882,-12.2759 3.31255,2.43569 -1.07171,-4.87139 3.02026,0.77943 -0.0974,2.24083 -4.09196,-1.65627 1.0717,3.89712 -11.39905,-4.38426 3.79968,-1.46141 -3.70225,-2.53313 3.70225,-0.87685 -3.70225,2.92284 3.70225,2.04598 -13.05532,8.7685 -0.19486,-4.5791 -3.70226,3.02026 -0.48713,-3.11769 2.14341,-0.87685 0.38971,4.96882 3.11769,-3.11769 -1.16913,13.25018 -2.53313,-3.5074 v 4.48168 l -2.04598,-3.21512 0.29228,2.72798 2.53313,0.19485 1.16913,-5.06624 5.84567,2.8254 3.79968,5.84567 -5.06624,0.87685 2.04598,3.5074 -2.14341,-0.19485 -0.77943,-2.14341 4.48168,0.77942 -3.40997,-3.60483 6.23538,-2.33827 2.53312,3.40997 -3.31254,4.77397 -0.682,-3.79969 1.36399,-4.18939 2.72798,4.96882 -3.99454,1.85112 2.14341,2.14341 1.7537,-1.36399 -3.79968,-1.75369 3.89711,-1.65628 -4.1894,-0.97428 4.1894,-3.99454 8.7685,0.0974 -2.24084,3.89711 3.89711,-1.7537 -0.87685,2.82541 -2.33826,-0.0974 2.53312,-3.89711 -4.28682,1.94856 2.33826,-3.60483 -11.30162,4.5791 3.70226,3.11769 -3.02026,2.04599 0.97427,-8.7685 1.26656,8.86592 0.97428,-2.92283 -5.55338,-7.0148 -9.15822,2.33827 -0.0974,2.43569 2.33827,1.46142 -1.55884,-4.28682 3.70225,2.53312 -2.33827,-3.70226 3.21512,2.24084 -2.63055,-3.21512 16.4653,4.96882 -2.24084,3.31255 1.16914,0.77942 2.24083,-1.46142 -4.87139,-1.0717 10.42478,-20.94698 2.24084,1.55884 -1.36399,2.53313 -3.70226,-3.02026 0.97428,4.09196 -8.86593,-9.06078 3.79969,1.16913 -3.02027,-3.89711 4.28683,0.38971 -1.46142,-1.85113 -2.33827,0.682 3.31255,2.92283 -4.38425,-0.29228 3.5074,2.92283 -12.56819,-0.58457 1.85113,-4.67653 -2.4357,-0.68199 -1.16913,1.85112 4.48168,-0.29228 -3.70226,2.33827 4.09197,-1.26656 -3.21512,2.53312 3.79969,-0.87685 -9.35307,13.34761 -1.07171,-4.48168 -2.63055,4.77396 -1.55884,-2.8254 1.36399,-1.85113 1.7537,4.38425 2.14341,-4.48168 3.89711,3.70226 -1.65627,5.06624 4.87139,-0.0974 1.85113,5.9431 -4.48168,2.72798 2.63055,-8.86593 -6.91738,6.23538 4.38426,-8.86593 -5.45596,-0.38972 -2.4357,4.67654 4.96882,-1.36399 2.14341,-6.62509 -7.79422,-5.2611 9.54792,0.58457 -6.43023,-6.33281 9.25564,4.48168 4.67653,-9.74278 -1.46141,-0.48714 -1.94856,2.82541 2.53312,6.43023 5.16368,-8.28136 -2.33827,8.7685 4.38425,-5.74824 -0.58457,-2.53312 -3.79968,2.53312 1.94856,7.0148 6.3328,-2.24084 0.0974,-4.18939 -2.63055,0.87685 -2.63055,6.62509 8.28136,-2.72798 -7.40451,4.48168 5.45596,0.19485 2.8254,-1.7537 -0.38971,-2.72798 -6.81994,6.23538 8.7685,1.7537 -1.65627,1.36399 -2.72798,-4.18939 -4.57911,2.43569 7.89165,4.96882 -8.37879,-2.63055 7.98908,4.67653 -2.53312,0.77943 -1.26656,-5.06625 -4.96882,1.55884 5.84567,7.01481 -7.30709,-5.9431 5.55339,7.59937 1.55884,-0.87685 -8.57364,-5.06625 -5.55339,6.52767 2.4357,2.8254 1.7537,-4.87139 -4.87139,-3.89711 -10.03507,-9.74278 -3.99453,3.31255 -0.29229,-2.72798 4.38425,3.79968 6.23538,-7.59937 -0.68199,-4.28682 -5.55339,-2.04598 0.682,3.31254 3.21512,-3.31254 -1.55885,4.48168 8.86593,-0.87685 3.02026,-6.43024 -3.21512,-1.7537 2.92284,8.47622 10.13249,-0.87685 0.58457,-3.5074 -4.77397,1.46141 -2.04598,4.96882 10.61963,0.682 -0.682,-2.04599 -7.59936,4.77396 6.62509,4.57911 c 0,0 2.33826,-4.09197 1.94855,-3.89711 -0.38971,0.19486 -8.37879,3.02026 -8.37879,3.02026 l 1.65627,4.87139 -3.60482,-1.0717"
       id="path1309"
       inkscape:connector-curvature="0" />
    <path
       id="path1311"
       style="fill:none;stroke:#000000;stroke-width:0.5;stroke-linecap:round;stroke-linejoin:round;stroke-opacity:1;stroke-miterlimit:4;stroke-dasharray:none"
       d="m 22.872096,171.89238 6.475836,-2.06675 3.582376,1.92897 -2.20454,3.58238 4.822431,0.8267 -4.271296,3.30681 3.995727,4.13351 -3.995727,4.27129 4.271296,2.75568 -4.40908,4.82243 4.271296,6.20027 -4.133512,5.23578 4.271296,5.37356 -4.271296,3.85795 4.133512,0.55113 -3.857945,3.16903 4.133511,4.40907 -4.409078,4.40908 4.133512,4.40908 -4.271296,4.96022 4.546862,3.99572 -4.409078,4.13352 3.582377,3.72016 0.688919,-4.40908 -4.271296,-3.58238 8.129239,-7.71589 4.82243,4.54687 5.373566,-4.40908 6.475833,7.71588 -3.306807,2.75568 -6.062485,-4.54686 3.995726,-0.13779 -4.133511,-1.51562 19.565289,-4.13351 4.271296,4.40908 4.546862,-4.68465 4.82243,4.68465 6.751402,-4.68465 4.546862,4.68465 6.200267,-4.68465 4.822428,4.40908 4.2713,-4.54686 4.27129,6.7514 -4.13351,4.13351 -5.23578,-4.27129 -2.204541,3.99572 -4.684646,-3.99572 -3.306808,4.13351 -3.995727,-4.40908 -3.30681,4.82243 -3.169025,-4.82243 -3.582377,4.96021 -3.857945,-4.40908 -3.306807,4.13352 -3.444595,-4.2713 -4.546862,4.2713 -3.169025,-2.89346 7.026971,-7.85367 8.267022,4.54686 4.409078,-4.40908 3.995729,4.40908 3.857943,-4.68465 6.475835,4.68465 1.791187,-4.82243 3.99573,4.82243 4.822423,-5.098 2.75568,5.23578 3.30681,-5.09799 3.85794,4.82243 3.99573,2.20453 1.10227,4.13352 2.61789,-3.16903 -7.44032,-1.51562 7.99145,-6.06248 7.57811,4.54686 3.85794,-4.68465 3.72016,4.54687 3.72016,-4.54687 4.40908,4.2713 3.30681,-4.13351 4.96022,4.54686 4.54686,-6.06248 -3.72016,-4.40908 3.85794,-6.20027 -3.99573,-5.64913 3.99573,-6.61362 -4.27129,-6.06248 4.40908,-4.96022 -4.82243,-6.33805 5.09799,-3.99573 -4.27129,-4.40907 3.99573,-3.72016 -1.92898,-2.75568 -5.78691,4.82243 -4.40908,-4.40908 -4.96021,4.13351 -4.96022,-4.27129 -3.99573,4.96021 -5.09799,-4.82243 -4.54687,4.40908 -4.27129,-4.27129 -4.54686,4.54686 -4.13351,-4.2713 -3.99573,3.72016 -3.72016,-3.99572 -3.857947,4.27129 -4.684647,-4.54686 -3.995726,4.68464 -4.546862,-4.68464 -3.720161,4.68464 -4.133511,-4.68464 -4.271296,4.68464 -4.822431,-4.40907 -5.235781,4.54686 -5.097997,-4.82243 -5.511347,4.27129 -6.200267,-4.27129 -4.684647,4.27129 -4.271295,-4.13351 -5.235782,6.06249 4.133512,5.23577 -4.271296,6.88919 m 15.858688,48.27556 3.799684,-3.79969 0.779423,4.57911 0.292282,-4.87139 4.189396,-0.48714 -4.286823,-1.26656 10.327347,-4.38425 4.384251,4.28682 4.286823,-4.57911 5.163673,4.77397 4.189396,-4.67654 3.799684,4.77396 3.897112,-4.87139 4.091967,4.57911 4.091968,-4.38425 4.38425,4.48168 4.28682,-4.28682 6.04053,3.99454 6.72252,-4.09197 7.79422,4.38425 3.79968,-4.48168 3.5074,4.28682 3.79969,-4.28682 4.5791,4.38425 3.60483,-4.67653 4.28683,4.77396 3.31254,-4.38425 5.35853,3.70225 -3.89711,-6.23537 4.57911,-3.60483 -4.38426,-6.33281 4.38426,-5.55338 -4.57911,-5.9431 4.57911,-5.35853 -4.57911,-6.62509 4.38425,-4.09197 -4.28682,-5.74824 4.38425,-2.53312 -4.1894,-3.5074 3.99454,-2.72798 -6.43023,-1.36399 -6.04053,4.1894 -4.38425,-4.1894 -4.87139,4.1894 -4.5791,-4.57911 -4.67654,4.1894 -4.28682,-3.89712 -4.96882,4.48168 -4.38425,-4.77396 -4.09197,4.57911 -3.60483,-4.57911 -4.38425,4.57911 -3.40997,-4.38425 -3.702256,4.28682 -5.163674,-4.1894 -3.409973,4.28683 -4.579106,-4.48168 -3.702256,4.48168 -4.676535,-4.57911 -5.261101,4.38425 -4.773962,-4.18939 -5.943096,4.28682 -5.2611,-4.67654 -5.163674,4.87139 -5.650812,-4.5791 -4.676534,4.38425 -4.384252,-4.09197 3.507401,-4.48168 -7.307085,0.29229 c 0,0 -4.286824,-4.96882 -3.994539,-4.28683 m -0.292285,3.21512 4.676534,-3.40997 7.599371,7.50194 -4.384252,5.55338 4.384252,5.65082 -4.481679,5.45595 4.481679,5.16367 -4.384252,5.45596 4.384252,5.9431 -4.579107,4.5791 4.773962,6.72252 -4.773962,4.38425 4.676534,5.2611 -4.579106,4.57911 4.384248,4.28682 -4.384248,3.5074 4.481679,3.5074 -2.240841,3.31255 -2.143411,-1.85113 4.481679,-5.16367 -4.676534,-3.5074 6.430235,-5.74824 5.650812,4.28682 4.871389,-4.57911 8.183935,6.91738 -6.040524,3.99454 -3.799684,-3.11769 8.281363,-7.6968 8.281363,4.96882 -4.091967,4.1894 -0.194856,0.29228 1.461417,1.26656 4.286823,-4.38425 3.11769,4.57911 3.799684,-4.67654 3.799684,4.48168 3.897112,-4.1894 2.727978,4.1894 3.799684,-4.28682 3.11769,4.28682 3.702256,-4.28682 4.384251,4.48168 3.020262,-4.38426 4.091964,4.38426 2.4357,-4.28683 4.28682,-1.0717 -9.35307,-5.2611 -4.579104,4.28682 -4.481678,-4.48168 -2.727979,4.48168 -4.676534,-4.38425 -3.702256,4.28682 -4.579107,-4.28682 -4.189395,4.48168 -4.189396,-4.67654 -3.897111,4.57911 -5.066246,-4.57911 -10.424774,11.00934 -2.143413,-1.94855 4.189397,-4.57911 -5.74824,-4.38425 -5.261102,4.28682 -8.476218,-7.20965 4.189394,-4.38426 -4.384249,-3.89711 4.286821,-3.79968 -4.286821,-7.98908 4.481676,-4.38425 -4.286821,-6.72252 3.994539,-3.99454 -4.384252,-6.23538 4.579107,-3.99454 -4.286821,-5.55338 4.091966,-5.2611 -5.261102,-0.48714 -5.261099,-5.06625 -1.851128,1.36399 2.922833,3.11769 5.261102,-3.79968 -1.266563,4.38425 4.579107,-1.94856 -3.312544,3.79969 7.307085,6.04052 4.579104,-4.28682 5.455957,4.28682 5.84567,-4.77396 5.163672,4.67653 5.261102,-4.28682 5.066245,4.38425 4.773962,-4.28682 4.286823,4.18939 3.507401,-4.28682 4.87139,4.48168 3.604829,-4.38425 4.871389,4.28682 3.507401,-4.57911 3.897111,4.87139 4.1894,-4.77396 3.70225,4.57911 4.77396,-4.57911 4.1894,4.48168 4.87139,-4.48168 4.48168,4.67653 5.06624,-4.5791 3.89712,4.38425 4.96881,-4.48168 4.96882,4.57911 5.35853,-4.48168 4.57911,3.79968 -4.48168,4.57911 4.38425,5.16367 -4.38425,4.48168 4.48168,4.87139 -4.28683,6.23538 4.28683,5.84567 -4.57911,5.65081 4.28682,6.81995 -4.18939,4.48168 4.38425,4.5791 -2.33827,3.99454 -5.45595,-4.48168 -3.5074,4.67654 -4.57911,-4.57911 -3.11769,4.57911 -4.87139,-4.57911 -3.21512,4.38425 -4.38425,-4.18939 -3.40997,4.48167 -3.99454,-4.48167 -5.9431,7.11223 2.53312,3.79968 4.48168,-4.77396 1.36399,2.53312 -1.94855,1.85113 -2.14341,-4.28683 -4.1894,3.11769 1.26656,-9.45049 2.53313,10.5222 1.55884,-4.1894 2.33827,3.89712 -2.63055,0.38971 -4.1894,-0.29229 3.02026,-5.74824 -5.2611,-4.5791 -5.55338,4.38425 4.48168,4.48168 -1.36399,1.46141 -5.55339,-3.79968 -2.8254,4.28682 -4.091972,-4.28682 -3.312546,4.1894 -3.799684,-4.57911 -3.702256,4.57911 -3.215117,-4.48168 -3.799684,4.48168 -3.507401,-4.09197 -3.702256,3.89711 -3.409974,-4.38425 -4.579106,4.67653 -5.163673,-4.67653 4.091967,-0.29228 -4.091967,-0.682 4.091967,-0.77942 -9.937636,-4.48168 -6.430235,4.77396 7.209658,5.84567 2.435695,-1.7537 -4.189396,-3.02026 3.897113,-1.16914 -4.676536,-4.5791 -5.943094,4.38425 -3.507402,-4.28682 -4.579106,4.09196 -6.13795,-4.96882 4.579107,-4.18939 -4.384252,-4.77396 4.481679,-4.1894 -4.481679,-2.92283 4.481679,-3.21512 -4.676534,-5.2611 4.676534,-4.87139 -4.676534,-6.72252 4.384249,-4.09196 -4.286821,-7.11223 7.599367,-7.89166 5.066244,4.38425 4.676535,-4.5791 5.650814,4.48168 5.650812,-4.28683 5.261101,4.38425 5.163673,-4.48167 4.968818,4.38425 3.897112,-4.67654 4.189395,4.57911 3.507401,-4.1894 4.676534,4.38425 3.799684,-4.77396 4.189396,4.67654 4.384247,-4.57911 3.5074,4.67653 4.09197,-4.5791 4.48168,4.5791 4.28682,-4.5791 4.48168,4.28682 4.96882,-4.38425 4.38425,4.57911 4.67654,-4.48168 4.28682,4.48168 5.45596,-4.57911 4.38425,4.67653 4.5791,-4.09196 -3.79968,11.78876 4.38425,5.84567 -4.57911,5.35853 4.57911,5.65081 -4.38425,5.55338 4.48168,5.65082 -4.48168,6.62509 4.48168,5.74824 -4.28683,3.21511 -2.04598,4.57911 -5.65081,-4.28682 -3.21512,4.28682 -4.5791,-4.28682 -3.89712,4.48168 -3.79968,-4.57911 -3.21512,4.1894 -4.38425,-4.28683 -3.60483,4.57911 -3.11769,-4.48168 -3.5074,4.48168 -5.45596,-4.48168 -3.89711,4.48168 -5.163671,-4.1894 -4.286823,4.09197 -4.481679,-4.38425 -3.409973,4.38425 -3.897112,-4.18939 -3.702256,4.18939 -4.968818,-4.38425 -5.066245,4.67653 -4.189396,-4.67653 -5.845668,4.28682 -0.779422,-4.48168 -1.266561,4.57911 -0.292284,-4.38425" />
    <path
       id="path827"
       style="fill:none;stroke:#000000;stroke-width:0.5;stroke-linecap:round;stroke-linejoin:round;stroke-opacity:1;stroke-miterlimit:4;stroke-dasharray:none"
       d="m 144.58286,207.75613 3.89711,3.60483 -5.16368,2.92283 1.26657,7.30709 -5.55339,-0.0974 -0.97428,6.13795 -6.13795,-1.46142 -2.72798,5.06625 -3.99453,-3.89711 -5.35853,3.5074 -3.02027,-5.45596 -6.13795,0.87685 0.0974,-5.74824 -5.65081,-0.77942 2.72798,-4.09197 -5.35853,-3.02026 3.79968,-3.21512 -4.09197,-2.33826 4.38425,-1.36399 -2.63055,-6.04053 6.04053,-2.24084 0.77942,-7.40451 5.55338,1.7537 2.4357,-5.74824 5.06624,3.60483 4.67654,-4.1894 3.60483,5.45596 6.3328,-1.7537 1.36399,7.11223 6.6251,2.14341 -2.33827,7.0148 4.48168,4.09197 -5.16368,3.40997 -1.55884,11.8862 -7.30709,-0.29229 m -9.51029,2.7972 6.04053,3.79968 2.72798,-6.04052 5.94309,1.7537 0.87685,-7.40452 5.45596,-0.19485 -2.24084,-7.50194 4.67653,-4.48168 -5.2611,-4.48168 1.7537,-6.91737 -7.0148,-1.36399 -1.85113,-6.72252 -6.43023,2.63055 -4.38425,-5.45596 -3.70226,4.96882 -5.74824,-3.11769 -0.77942,5.65081 -6.52766,-0.48714 0.77942,6.33281 -6.33281,3.02027 3.40997,6.81994 -3.21511,7.30709 5.55338,2.14341 0.19486,7.50194 6.3328,-0.77943 2.63056,6.23538 5.84566,-3.31254 3.40998,4.38425 3.21511,-4.96882 5.55339,2.53313 1.36399,-6.52767 5.74824,0.682 -0.29229,-6.91738 4.77397,-1.55884 -3.11769,-7.0148 2.92283,-6.33281 -6.04052,-2.4357 -0.682,-8.37879 -6.62509,1.16914 -3.11769,-5.74824 -5.06624,3.5074 -4.48168,-3.70226 -3.11769,4.77396 -4.77396,-1.94855 -0.77943,5.84567 -7.69679,2.53312 1.94855,6.43023 -4.67653,5.45596 5.06624,4.57911 -1.26656,7.69679 5.84567,0.0974 2.4357,7.40451 5.16367,-2.53312 3.99454,5.45596 5.06624,-4.96882 4.38426,3.02026 2.92283,-5.74824 5.06624,1.07171 0.87685,-7.6968 4.8714,-1.0717 -2.63055,-6.72252 3.99453,-5.16368 -5.65081,-3.89711 0.0974,-7.89165 -6.23538,0.58457 -2.43569,-6.52766 -6.33281,3.02026 -4.09197,-4.48168 -3.11769,4.5791 -5.65081,-2.24083 -0.38971,5.55338 -6.62509,0.19486 0.77942,6.72251 -5.94309,5.35853 4.18939,5.2611 -2.24084,7.59937 5.16368,1.07171 2.24084,8.47622 5.74823,-2.14342 3.50741,5.35853 5.55338,-3.79968 5.84567,3.5074" />
  </g>
</svg>
