<?xml version="1.0" encoding="UTF-8" standalone="no"?>
<!-- Created with Inkscape (http://www.inkscape.org/) -->

<svg
   xmlns:dc="http://purl.org/dc/elements/1.1/"
   xmlns:cc="http://creativecommons.org/ns#"
   xmlns:rdf="http://www.w3.org/1999/02/22-rdf-syntax-ns#"
   xmlns:svg="http://www.w3.org/2000/svg"
   xmlns="http://www.w3.org/2000/svg"
   xmlns:sodipodi="http://sodipodi.sourceforge.net/DTD/sodipodi-0.dtd"
   xmlns:inkscape="http://www.inkscape.org/namespaces/inkscape"
   width="210mm"
   height="297mm"
   viewBox="0 0 210 297"
   version="1.1"
   id="svg8"
   inkscape:version="0.92.2 2405546, 2018-03-11"
   sodipodi:docname="gpu_chip.svg">
  <defs
     id="defs2">
    <filter
       inkscape:collect="always"
       style="color-interpolation-filters:sRGB"
       id="filter920"
       x="-0.02272818"
       width="1.0454564"
       y="-0.025422593"
       height="1.0508452">
      <feGaussianBlur
         inkscape:collect="always"
         stdDeviation="0.95970602"
         id="feGaussianBlur922" />
    </filter>
  </defs>
  <sodipodi:namedview
     id="base"
     pagecolor="#ffffff"
     bordercolor="#666666"
     borderopacity="1.0"
     inkscape:pageopacity="0.0"
     inkscape:pageshadow="2"
     inkscape:zoom="1.4805976"
     inkscape:cx="266.08368"
     inkscape:cy="633.28074"
     inkscape:document-units="mm"
     inkscape:current-layer="layer1"
     showgrid="false"
     inkscape:window-width="1920"
     inkscape:window-height="1039"
     inkscape:window-x="0"
     inkscape:window-y="0"
     inkscape:window-maximized="1"
     inkscape:snap-nodes="false" />
  <metadata
     id="metadata5">
    <rdf:RDF>
      <cc:Work
         rdf:about="">
        <dc:format>image/svg+xml</dc:format>
        <dc:type
           rdf:resource="http://purl.org/dc/dcmitype/StillImage" />
        <dc:title></dc:title>
      </cc:Work>
    </rdf:RDF>
  </metadata>
  <g
     inkscape:label="Layer 1"
     inkscape:groupmode="layer"
     id="layer1">
    <path
       d="m 78.469706,85.09388 4.92805,-7.960693 6.065292,14.025986 3.917167,-13.899626 3.664447,14.152345 1.263603,-14.152345 1.769045,14.152345 1.2636,-14.025985 2.14812,13.773266 1.13724,-10.235179 2.14813,10.487898 0.12636,-10.74062 3.79081,10.61426 -2.27449,-12.256941 2.90629,-1.895404 6.57073,14.025986 1.64268,-13.899626 4.29625,13.773266 3.41173,-13.773266 1.01088,7.707974 3.66445,-7.834334 2.65356,7.960693 5.68621,-7.707973 9.72974,7.834336 -7.70797,8.845216 7.83433,6.444371 -7.70798,8.08705 7.58162,9.09794 -7.70797,6.82346 7.45525,5.68621 -8.08706,8.84521 8.08706,4.16989 -7.3289,6.94981 7.58162,5.43349 -6.31801,11.1197 -9.8561,-7.45525 -6.06529,7.45525 -0.88452,-9.47702 -1.76905,-2.77992 -8.46613,12.3833 -5.43349,-13.39418 -7.58162,10.36154 -19.206751,-8.84522 17.437711,10.86698 -2.274483,-12.63602 -2.274485,13.6469 -1.895404,-13.6469 -2.400845,13.89962 -3.411725,-13.89962 -0.758161,13.89962 -5.559851,-9.09793 24.261164,-5.05441 1.01088,12.76238 3.66445,1.64268 8.71885,-14.02598 1.76905,13.77326 3.91717,-10.10881 -52.692222,10.23517 -13.773266,-4.29624 9.224298,-5.68622 -8.971576,-2.02176 7.707974,-5.43349 -7.707974,-6.94981 7.960693,-3.66445 -8.087056,-9.09794 7.834337,-6.06529 -7.707974,-11.1197 7.834333,-6.94981 -7.707973,-13.773264 9.350658,-5.686211 3.032643,-9.60338 2.527205,8.592497 6.318012,-8.466135 m 14.531427,0.37908 -15.921389,7.581614 -15.415948,-7.834334 -4.548968,5.180769 7.707974,7.076173 -7.834337,9.224298 7.960696,9.603373 -8.592497,8.97158 -2.653564,-2.40084 -2.274483,2.27448 0.12636,-2.5272 2.779924,2.77992 2.779927,-2.65356 7.834333,10.74062 -7.960696,9.22429 7.834337,9.2243 -8.339775,11.24606 -1.769044,-2.5272 -2.148126,2.5272 -1.13724,-2.40084 0.12636,2.65356 1.516322,-2.90628 1.769044,3.159 2.148122,-3.28536 5.812573,14.78414 7.960694,-7.96069 6.444371,7.70797 12.004223,-13.52054 8.971578,14.02598 -17.943155,-8.21341 4.422609,-5.93893 16.805916,10.4879 12.76238,-10.36154 14.53143,14.02598 6.69709,-8.33977 7.32889,8.21341 3.91717,-3.28536 -7.58162,-8.33978 7.58162,-7.45525 -7.45526,-6.31801 7.3289,-8.33978 -7.70797,-6.57073 10.10881,-12.3833 2.27449,2.5272 1.01088,-2.40084 0.25272,2.65356 -2.02176,-2.65356 -1.64269,2.65356 -9.72974,-11.1197 7.58162,-8.213414 -7.70797,-5.81257 7.96069,-8.213416 -7.83434,-6.570733 -6.44437,7.707973 -6.19165,-7.834333 -14.78415,13.899626 -8.97157,-10.235179 -12.130584,10.487898 -13.646906,-13.899626 -7.328895,7.834336 -10.993339,-8.213415 -1.895404,1.895404 9.097936,8.466134 -9.097936,4.422609 -3.285366,-2.653565 -2.148125,2.527205 0.126362,-2.779924 2.906284,2.779924 2.527205,-2.779924 7.960696,9.603377 -7.834337,7.834333 7.960696,9.2243 -7.707973,6.94981 7.455254,8.46614 -7.455254,7.07617 7.328892,9.47702 -7.581615,8.46613 4.548971,10.99334 7.076173,-7.83433 3.664447,7.83433 5.686211,-7.70797 5.433488,7.70797 7.455255,-13.6469 5.054409,13.89962 6.191655,-14.02598 5.30713,13.89962 9.22429,-13.77326 6.31802,13.89962 5.93893,-8.08705 6.57073,7.83433 11.62514,-14.78414 2.27448,2.90628 2.77993,-2.65356 0.12636,2.40084 -2.65356,-2.27448 -2.65357,2.5272 -7.96069,-7.07617 7.70797,-8.71886 -7.70797,-6.82345 7.83433,-7.45525 -7.83433,-7.70798 7.96069,-7.83433 -7.96069,-7.07618 7.96069,-7.83433 -8.08705,-5.307131 8.08705,-7.960693 -4.16989,-4.043529 -7.70797,7.960695 -4.16989,-7.960695 L 120.4213,91.159173 108.92252,77.385907 125.72843,89.642851 109.55432,91.285532 85.293159,89.89557 V 77.259547 l 1.769044,13.773266 39.803477,-3.159006 -43.467924,-1.263602 43.467924,-1.137243 -22.87121,-4.675328 -20.217633,7.581615 18.195873,-9.60338 -12.256943,-1.263603 -29.315573,7.960696 7.455252,8.592497 -8.592495,10.487901 -2.779927,-2.40085 -2.021763,2.27449 v -2.65357 l 2.653565,2.90629 3.159005,-3.03265 7.960696,9.98246 -8.087055,7.83434 7.834336,8.46613 -8.087056,14.65779 -2.274485,-2.40085 -3.032646,2.65357 0.126362,-2.77993 3.032644,2.40085 2.527204,-2.77993 7.834337,13.01511 -7.834337,7.70797 2.148126,6.31801 14.784147,-7.45525 6.065292,7.96069 14.278705,-14.02598 10.235179,11.37242 6.82345,2.40084 13.52055,-7.58161 7.45525,7.96069 14.27871,-17.05863 -7.58161,-5.55985 7.70797,-8.84521 -7.70797,-6.0653 7.58161,-8.59249 -7.83433,-9.09794 8.33977,-10.4879 2.52721,2.65357 2.90628,-2.40085 -0.12636,2.27449 -2.14812,-2.14813 -3.53809,2.77993 -7.70797,-6.823454 7.58161,-8.971576 3.03265,2.779924 2.90628,-2.527205 -0.37908,2.148123 -2.65356,-2.148123 -2.65357,2.779924 -12.76238,-14.657786 -6.94982,7.960695 -8.59249,-7.455254 -12.00422,12.762383 -6.82346,-10.61426 -19.712194,5.433491 16.805914,5.93893 26.78837,-5.054409 -42.330682,3.159006 23.123922,-8.971577 14.27871,10.361541 4.29625,-2.274485 -10.36154,-11.498781 -9.47702,14.152345 -5.43349,-14.025985 -8.971577,13.899626 -5.307132,-13.899626 -4.296248,7.834333 -6.570731,-8.213415 -4.80169,9.350658 -10.614258,-9.097936 7.834333,15.036869 -7.960696,2.906284 7.960696,9.09794 -7.707973,6.82345 7.707973,9.47702 -8.087055,9.47701 -3.285366,-2.65356 -2.021763,2.5272 -0.252722,-2.5272 2.779927,2.90629 2.906283,-3.41173 7.960696,9.72974 -8.087055,9.35065 8.339775,10.10882 -8.466135,11.37242 10.74062,-8.97157 1.263602,8.46613 7.076173,-7.45525 11.751503,8.08706 10.61426,-14.27871 16.67955,14.02598 8.71886,-8.08705 -3.41173,-5.43349 -14.53143,13.6469 17.31136,-11.37242 -18.70132,8.33978 2.14812,-11.1197 3.28537,14.15234 2.40084,-13.77326 2.90629,13.6469 3.53809,-13.77326 2.40084,13.77326 3.03265,-7.96069 2.14812,7.83433 6.31801,-7.83433 5.55985,7.83433 8.33978,-7.20253 -7.45525,-7.70797 8.97157,-12.38331 1.64269,2.77993 2.77992,-2.52721 0.12636,2.77993 -3.15901,-2.65357 -2.27448,2.77993 -7.96069,-6.19165 7.32889,-9.60338 2.5272,2.90628 2.27449,-2.5272 1.38996,2.14812 -0.25272,-2.27448 -1.51632,2.5272 -2.27449,-2.65356 -1.38996,2.65356 -7.9607,-8.08705 7.70798,-8.97158 -7.70798,-8.46613 7.9607,-8.087058 -8.46614,-5.81257 8.08706,-4.043527 -9.47702,0.631801 9.47702,-9.856099 -17.31135,7.960696 -6.94982,-7.834336 -13.77326,14.025985 -23.629365,-13.899626 -11.246061,7.581614 -6.444372,-7.707973 -10.108818,10.36154 7.581614,8.339775 -7.707974,8.845218 7.834333,8.59249 -7.834333,4.29625 7.581614,5.18077 -7.834336,4.04353 7.581614,6.19165 -7.581614,6.82345 7.960696,5.93894 -7.834337,6.31801 7.834337,3.41172 -7.960696,8.97158 8.466137,2.65356 6.949813,-7.96069 2.779924,7.70797 12.509664,-13.89962 12.13058,11.37242 -16.553188,-10.86698 -2.906287,3.53808 11.372422,9.8561 8.213413,-13.6469 3.03265,10.36154 6.57073,-10.61426 8.5925,14.02598 8.59249,-8.08705 7.20254,8.21341 3.91716,-9.85609 8.84522,-0.12636 -0.75816,9.47701 -9.8561,-8.21341"
       style="fill:none;stroke:#000000;stroke-width:0.265;stroke-linecap:butt;stroke-linejoin:miter;stroke-opacity:1;stroke-miterlimit:4;stroke-dasharray:none;filter:url(#filter920)"
       id="path914" />
    <path
       id="path911"
       style="fill:none;stroke:#000000;stroke-width:0.26458332px;stroke-linecap:butt;stroke-linejoin:miter;stroke-opacity:1"
       d="m 78.469706,85.09388 4.92805,-7.960693 6.065292,14.025986 3.917167,-13.899626 3.664447,14.152345 1.263603,-14.152345 1.769045,14.152345 1.2636,-14.025985 2.14812,13.773266 1.13724,-10.235179 2.14813,10.487898 0.12636,-10.74062 3.79081,10.61426 -2.27449,-12.256941 2.90629,-1.895404 6.57073,14.025986 1.64268,-13.899626 4.29625,13.773266 3.41173,-13.773266 1.01088,7.707974 3.66445,-7.834334 2.65356,7.960693 5.68621,-7.707973 9.72974,7.834336 -7.70797,8.845216 7.83433,6.444371 -7.70798,8.08705 7.58162,9.09794 -7.70797,6.82346 7.45525,5.68621 -8.08706,8.84521 8.08706,4.16989 -7.3289,6.94981 7.58162,5.43349 -6.31801,11.1197 -9.8561,-7.45525 -6.06529,7.45525 -0.88452,-9.47702 -1.76905,-2.77992 -8.46613,12.3833 -5.43349,-13.39418 -7.58162,10.36154 -19.206751,-8.84522 17.437711,10.86698 -2.274483,-12.63602 -2.274485,13.6469 -1.895404,-13.6469 -2.400845,13.89962 -3.411725,-13.89962 -0.758161,13.89962 -5.559851,-9.09793 24.261164,-5.05441 1.01088,12.76238 3.66445,1.64268 8.71885,-14.02598 1.76905,13.77326 3.91717,-10.10881 -52.692222,10.23517 -13.773266,-4.29624 9.224298,-5.68622 -8.971576,-2.02176 7.707974,-5.43349 -7.707974,-6.94981 7.960693,-3.66445 -8.087056,-9.09794 7.834337,-6.06529 -7.707974,-11.1197 7.834333,-6.94981 -7.707973,-13.773264 9.350658,-5.686211 3.032643,-9.60338 2.527205,8.592497 6.318012,-8.466135 m 14.531427,0.37908 -15.921389,7.581614 -15.415948,-7.834334 -4.548968,5.180769 7.707974,7.076173 -7.834337,9.224298 7.960696,9.603373 -8.592497,8.97158 -2.653564,-2.40084 -2.274483,2.27448 0.12636,-2.5272 2.779924,2.77992 2.779927,-2.65356 7.834333,10.74062 -7.960696,9.22429 7.834337,9.2243 -8.339775,11.24606 -1.769044,-2.5272 -2.148126,2.5272 -1.13724,-2.40084 0.12636,2.65356 1.516322,-2.90628 1.769044,3.159 2.148122,-3.28536 5.812573,14.78414 7.960694,-7.96069 6.444371,7.70797 12.004223,-13.52054 8.971578,14.02598 -17.943155,-8.21341 4.422609,-5.93893 16.805916,10.4879 12.76238,-10.36154 14.53143,14.02598 6.69709,-8.33977 7.32889,8.21341 3.91717,-3.28536 -7.58162,-8.33978 7.58162,-7.45525 -7.45526,-6.31801 7.3289,-8.33978 -7.70797,-6.57073 10.10881,-12.3833 2.27449,2.5272 1.01088,-2.40084 0.25272,2.65356 -2.02176,-2.65356 -1.64269,2.65356 -9.72974,-11.1197 7.58162,-8.213414 -7.70797,-5.81257 7.96069,-8.213416 -7.83434,-6.570733 -6.44437,7.707973 -6.19165,-7.834333 -14.78415,13.899626 -8.97157,-10.235179 -12.130584,10.487898 -13.646906,-13.899626 -7.328895,7.834336 -10.993339,-8.213415 -1.895404,1.895404 9.097936,8.466134 -9.097936,4.422609 -3.285366,-2.653565 -2.148125,2.527205 0.126362,-2.779924 2.906284,2.779924 2.527205,-2.779924 7.960696,9.603377 -7.834337,7.834333 7.960696,9.2243 -7.707973,6.94981 7.455254,8.46614 -7.455254,7.07617 7.328892,9.47702 -7.581615,8.46613 4.548971,10.99334 7.076173,-7.83433 3.664447,7.83433 5.686211,-7.70797 5.433488,7.70797 7.455255,-13.6469 5.054409,13.89962 6.191655,-14.02598 5.30713,13.89962 9.22429,-13.77326 6.31802,13.89962 5.93893,-8.08705 6.57073,7.83433 11.62514,-14.78414 2.27448,2.90628 2.77993,-2.65356 0.12636,2.40084 -2.65356,-2.27448 -2.65357,2.5272 -7.96069,-7.07617 7.70797,-8.71886 -7.70797,-6.82345 7.83433,-7.45525 -7.83433,-7.70798 7.96069,-7.83433 -7.96069,-7.07618 7.96069,-7.83433 -8.08705,-5.307131 8.08705,-7.960693 -4.16989,-4.043529 -7.70797,7.960695 -4.16989,-7.960695 L 120.4213,91.159173 108.92252,77.385907 125.72843,89.642851 109.55432,91.285532 85.293159,89.89557 V 77.259547 l 1.769044,13.773266 39.803477,-3.159006 -43.467924,-1.263602 43.467924,-1.137243 -22.87121,-4.675328 -20.217633,7.581615 18.195873,-9.60338 -12.256943,-1.263603 -29.315573,7.960696 7.455252,8.592497 -8.592495,10.487901 -2.779927,-2.40085 -2.021763,2.27449 v -2.65357 l 2.653565,2.90629 3.159005,-3.03265 7.960696,9.98246 -8.087055,7.83434 7.834336,8.46613 -8.087056,14.65779 -2.274485,-2.40085 -3.032646,2.65357 0.126362,-2.77993 3.032644,2.40085 2.527204,-2.77993 7.834337,13.01511 -7.834337,7.70797 2.148126,6.31801 14.784147,-7.45525 6.065292,7.96069 14.278705,-14.02598 10.235179,11.37242 6.82345,2.40084 13.52055,-7.58161 7.45525,7.96069 14.27871,-17.05863 -7.58161,-5.55985 7.70797,-8.84521 -7.70797,-6.0653 7.58161,-8.59249 -7.83433,-9.09794 8.33977,-10.4879 2.52721,2.65357 2.90628,-2.40085 -0.12636,2.27449 -2.14812,-2.14813 -3.53809,2.77993 -7.70797,-6.823454 7.58161,-8.971576 3.03265,2.779924 2.90628,-2.527205 -0.37908,2.148123 -2.65356,-2.148123 -2.65357,2.779924 -12.76238,-14.657786 -6.94982,7.960695 -8.59249,-7.455254 -12.00422,12.762383 -6.82346,-10.61426 -19.712194,5.433491 16.805914,5.93893 26.78837,-5.054409 -42.330682,3.159006 23.123922,-8.971577 14.27871,10.361541 4.29625,-2.274485 -10.36154,-11.498781 -9.47702,14.152345 -5.43349,-14.025985 -8.971577,13.899626 -5.307132,-13.899626 -4.296248,7.834333 -6.570731,-8.213415 -4.80169,9.350658 -10.614258,-9.097936 7.834333,15.036869 -7.960696,2.906284 7.960696,9.09794 -7.707973,6.82345 7.707973,9.47702 -8.087055,9.47701 -3.285366,-2.65356 -2.021763,2.5272 -0.252722,-2.5272 2.779927,2.90629 2.906283,-3.41173 7.960696,9.72974 -8.087055,9.35065 8.339775,10.10882 -8.466135,11.37242 10.74062,-8.97157 1.263602,8.46613 7.076173,-7.45525 11.751503,8.08706 10.61426,-14.27871 16.67955,14.02598 8.71886,-8.08705 -3.41173,-5.43349 -14.53143,13.6469 17.31136,-11.37242 -18.70132,8.33978 2.14812,-11.1197 3.28537,14.15234 2.40084,-13.77326 2.90629,13.6469 3.53809,-13.77326 2.40084,13.77326 3.03265,-7.96069 2.14812,7.83433 6.31801,-7.83433 5.55985,7.83433 8.33978,-7.20253 -7.45525,-7.70797 8.97157,-12.38331 1.64269,2.77993 2.77992,-2.52721 0.12636,2.77993 -3.15901,-2.65357 -2.27448,2.77993 -7.96069,-6.19165 7.32889,-9.60338 2.5272,2.90628 2.27449,-2.5272 1.38996,2.14812 -0.25272,-2.27448 -1.51632,2.5272 -2.27449,-2.65356 -1.38996,2.65356 -7.9607,-8.08705 7.70798,-8.97158 -7.70798,-8.46613 7.9607,-8.087058 -8.46614,-5.81257 8.08706,-4.043527 -9.47702,0.631801 9.47702,-9.856099 -17.31135,7.960696 -6.94982,-7.834336 -13.77326,14.025985 -23.629365,-13.899626 -11.246061,7.581614 -6.444372,-7.707973 -10.108818,10.36154 7.581614,8.339775 -7.707974,8.845218 7.834333,8.59249 -7.834333,4.29625 7.581614,5.18077 -7.834336,4.04353 7.581614,6.19165 -7.581614,6.82345 7.960696,5.93894 -7.834337,6.31801 7.834337,3.41172 -7.960696,8.97158 8.466137,2.65356 6.949813,-7.96069 2.779924,7.70797 12.509664,-13.89962 12.13058,11.37242 -16.553188,-10.86698 -2.906287,3.53808 11.372422,9.8561 8.213413,-13.6469 3.03265,10.36154 6.57073,-10.61426 8.5925,14.02598 8.59249,-8.08705 7.20254,8.21341 3.91716,-9.85609 8.84522,-0.12636 -0.75816,9.47701 -9.8561,-8.21341" />
  </g>
</svg>
