<?xml version="1.0" encoding="UTF-8" standalone="no"?>
<!-- Created with Inkscape (http://www.inkscape.org/) -->

<svg
   xmlns:dc="http://purl.org/dc/elements/1.1/"
   xmlns:cc="http://creativecommons.org/ns#"
   xmlns:rdf="http://www.w3.org/1999/02/22-rdf-syntax-ns#"
   xmlns:svg="http://www.w3.org/2000/svg"
   xmlns="http://www.w3.org/2000/svg"
   xmlns:sodipodi="http://sodipodi.sourceforge.net/DTD/sodipodi-0.dtd"
   xmlns:inkscape="http://www.inkscape.org/namespaces/inkscape"
   width="210mm"
   height="297mm"
   viewBox="0 0 210 297"
   version="1.1"
   id="svg8"
   inkscape:version="0.92.2 2405546, 2018-03-11"
   sodipodi:docname="hearth.svg">
  <defs
     id="defs2">
    <filter
       inkscape:collect="always"
       style="color-interpolation-filters:sRGB"
       id="filter1299"
       x="-0.012001233"
       width="1.0240025"
       y="-0.012044768"
       height="1.0240895">
      <feGaussianBlur
         inkscape:collect="always"
         stdDeviation="0.29732862"
         id="feGaussianBlur1301" />
    </filter>
    <filter
       inkscape:collect="always"
       style="color-interpolation-filters:sRGB"
       id="filter1303"
       x="-0.011978754"
       width="1.0239575"
       y="-0.012040185"
       height="1.0240804">
      <feGaussianBlur
         inkscape:collect="always"
         stdDeviation="0.29732862"
         id="feGaussianBlur1305" />
    </filter>
  </defs>
  <sodipodi:namedview
     id="base"
     pagecolor="#ffffff"
     bordercolor="#666666"
     borderopacity="1.0"
     inkscape:pageopacity="0.0"
     inkscape:pageshadow="2"
     inkscape:zoom="0.11541666"
     inkscape:cx="1607.8971"
     inkscape:cy="525.74807"
     inkscape:document-units="mm"
     inkscape:current-layer="layer1"
     showgrid="false"
     inkscape:window-width="1920"
     inkscape:window-height="1039"
     inkscape:window-x="0"
     inkscape:window-y="0"
     inkscape:window-maximized="1"
     inkscape:snap-nodes="false" />
  <metadata
     id="metadata5">
    <rdf:RDF>
      <cc:Work
         rdf:about="">
        <dc:format>image/svg+xml</dc:format>
        <dc:type
           rdf:resource="http://purl.org/dc/dcmitype/StillImage" />
        <dc:title />
      </cc:Work>
    </rdf:RDF>
  </metadata>
  <g
     inkscape:label="Layer 1"
     inkscape:groupmode="layer"
     id="layer1">
    <path
       inkscape:connector-curvature="0"
       id="path1295"
       d="m 84.461308,153.65218 14.757445,-8.02346 -4.369922,17.04986 13.754509,-10.10097 16.33349,8.73985 13.46796,-25.43152 -17.55134,-12.96649 -5.6594,-15.90366 -12.82322,15.54547 -5.659409,-13.39632 -16.190209,17.62297 0.573106,20.91831 22.494362,1.64768 6.94889,16.5484 2.93716,-16.33349 20.1303,3.43863 -8.31001,-17.04986 11.89192,-7.66527 -7.37872,-12.82322 -25.86135,-8.38166 -18.697543,10.96063 -6.304153,18.12443 8.883123,21.34815 16.190213,8.31002 15.90365,-1.93423 16.5484,-17.33642 -1.21785,-23.85548 -53.012182,-0.64474 9.456226,9.16968 -12.39339,10.60243 17.909522,1.57604 -4.441561,18.0528 13.181405,-10.60244 2.36406,15.11564 2.72225,-15.044 11.677,11.82028 -5.01466,-16.76331 13.18141,9.95769 -7.80855,-16.1902 14.82908,2.50733 -12.17848,-9.38459 10.81736,-7.23544 -14.11271,-1.43277 0.21492,-14.39925 -5.58777,12.67994 -5.4445,-15.54546 -32.380412,24.6435 13.826149,6.23251 -2.578971,21.84961 13.897794,-9.67114 2.79388,15.90366 2.72225,-14.32762 11.74864,11.67701 -5.37285,-15.90366 16.04693,7.23545 -11.4621,-11.82028 16.47676,1.28948 -11.89192,-14.04106 8.38166,-9.5995 -13.96943,2.29241 -6.23251,-15.68874 -6.66234,17.98116 13.53959,-15.90365 6.16088,3.65354 -1.71931,14.68581 13.25304,12.17847 -24.14203,26.07626 -31.305848,-14.82908 9.384591,-16.40512 -10.674074,-10.10097 12.465026,0.71638 -3.0088,-12.32175 19.413925,12.17848 -2.14915,1.64767 0.64475,0.85966 -0.14328,0.85966 -0.5731,-21.56307 4.44156,16.69167 -7.80855,0.14328 -4.871395,-15.6171 -3.653542,15.40219 -16.978225,16.54839 16.190206,1.36113 2.650609,22.78091 40.117327,-30.73274 -20.77504,-25.43152 -28.870152,6.51907 0.859658,44.84544 12.106834,-11.53374 -0.50147,17.26478 6.59071,-13.10977 4.08337,14.11271 3.43863,-17.83789 13.75451,9.9577 -9.45623,-13.61124 15.68874,5.94596 -10.96062,-12.39339 13.75451,-7.80855 -13.61124,-4.01173 8.31002,-7.59364 -26.43445,5.37286 -2.00587,-16.69167 7.02053,17.1215 -9.95769,-16.83495 -5.94596,16.47676 -15.545467,5.01467 12.823219,7.52199 -8.811485,15.83202 16.333483,-5.94596 -0.429828,18.19607 8.668208,-12.39339 -4.29828,13.5396 -3.43863,-18.91246 -14.327621,9.0264 8.023466,-16.26184 -15.330551,-6.30415 12.966494,-3.51027 -8.739847,-8.95476 15.832019,1.57604 -0.931297,-13.96942 3.438627,14.04106 4.65648,-15.68874 7.66527,15.76038 10.74571,-11.24718 -0.85965,14.25598 14.54253,6.5907 -25.78971,33.6699"
       style="fill:none;stroke:#000000;stroke-width:0.26458332px;stroke-linecap:round;stroke-linejoin:round;stroke-opacity:1;filter:url(#filter1299)" />
    <path
       inkscape:connector-curvature="0"
       id="path1297"
       d="m 81.875921,149.26585 9.725909,-16.6151 -5.268201,-16.51377 45.488891,1.41836 -6.38263,11.14427 12.86657,9.11804 -16.00723,3.24197 4.66033,19.04657 -14.69017,-9.72591 -6.18001,15.39935 -3.64721,-17.42558 -15.500671,8.10492 7.902302,-16.10854 -16.007225,-4.25508 13.271812,-7.59836 -2.431476,-15.39936 7.800988,9.82722 -4.153773,-11.95476 16.412473,-4.3564 5.87607,16.00722 6.07869,-13.27181 1.62099,15.70329 15.09542,9.6246 -21.07281,30.19084 -8.10492,-12.46132 -6.9905,12.86657 -4.052459,-20.56625 -18.134766,-0.60787 12.562631,-17.6282 -7.395742,-8.91542 14.892796,4.86295 2.33017,-15.19673 4.96426,18.13477 3.4446,-0.81049 8.51017,-16.00723 2.33016,15.09542 14.58887,0.70918 -10.84034,10.02984 10.23247,14.18362 -5.87607,8.91542 -11.14427,-12.36001 5.2682,16.91903 -9.82722,-13.0692 -1.82361,16.91903 -5.57214,-14.79148 -21.275423,3.95115"
       style="fill:none;stroke:#000000;stroke-width:0.26458332px;stroke-linecap:round;stroke-linejoin:round;stroke-opacity:1;filter:url(#filter1303)" />
    <path
       style="fill:none;stroke:#000000;stroke-width:0.26458332px;stroke-linecap:round;stroke-linejoin:round;stroke-opacity:1"
       d="m 84.461308,153.65218 14.757445,-8.02346 -4.369922,17.04986 13.754509,-10.10097 16.33349,8.73985 13.46796,-25.43152 -17.55134,-12.96649 -5.6594,-15.90366 -12.82322,15.54547 -5.659409,-13.39632 -16.190209,17.62297 0.573106,20.91831 22.494362,1.64768 6.94889,16.5484 2.93716,-16.33349 20.1303,3.43863 -8.31001,-17.04986 11.89192,-7.66527 -7.37872,-12.82322 -25.86135,-8.38166 -18.697543,10.96063 -6.304153,18.12443 8.883123,21.34815 16.190213,8.31002 15.90365,-1.93423 16.5484,-17.33642 -1.21785,-23.85548 -53.012182,-0.64474 9.456226,9.16968 -12.39339,10.60243 17.909522,1.57604 -4.441561,18.0528 13.181405,-10.60244 2.36406,15.11564 2.72225,-15.044 11.677,11.82028 -5.01466,-16.76331 13.18141,9.95769 -7.80855,-16.1902 14.82908,2.50733 -12.17848,-9.38459 10.81736,-7.23544 -14.11271,-1.43277 0.21492,-14.39925 -5.58777,12.67994 -5.4445,-15.54546 -32.380412,24.6435 13.826149,6.23251 -2.578971,21.84961 13.897794,-9.67114 2.79388,15.90366 2.72225,-14.32762 11.74864,11.67701 -5.37285,-15.90366 16.04693,7.23545 -11.4621,-11.82028 16.47676,1.28948 -11.89192,-14.04106 8.38166,-9.5995 -13.96943,2.29241 -6.23251,-15.68874 -6.66234,17.98116 13.53959,-15.90365 6.16088,3.65354 -1.71931,14.68581 13.25304,12.17847 -24.14203,26.07626 -31.305848,-14.82908 9.384591,-16.40512 -10.674074,-10.10097 12.465026,0.71638 -3.0088,-12.32175 19.413925,12.17848 -2.14915,1.64767 0.64475,0.85966 -0.14328,0.85966 -0.5731,-21.56307 4.44156,16.69167 -7.80855,0.14328 -4.871395,-15.6171 -3.653542,15.40219 -16.978225,16.54839 16.190206,1.36113 2.650609,22.78091 40.117327,-30.73274 -20.77504,-25.43152 -28.870152,6.51907 0.859658,44.84544 12.106834,-11.53374 -0.50147,17.26478 6.59071,-13.10977 4.08337,14.11271 3.43863,-17.83789 13.75451,9.9577 -9.45623,-13.61124 15.68874,5.94596 -10.96062,-12.39339 13.75451,-7.80855 -13.61124,-4.01173 8.31002,-7.59364 -26.43445,5.37286 -2.00587,-16.69167 7.02053,17.1215 -9.95769,-16.83495 -5.94596,16.47676 -15.545467,5.01467 12.823219,7.52199 -8.811485,15.83202 16.333483,-5.94596 -0.429828,18.19607 8.668208,-12.39339 -4.29828,13.5396 -3.43863,-18.91246 -14.327621,9.0264 8.023466,-16.26184 -15.330551,-6.30415 12.966494,-3.51027 -8.739847,-8.95476 15.832019,1.57604 -0.931297,-13.96942 3.438627,14.04106 4.65648,-15.68874 7.66527,15.76038 10.74571,-11.24718 -0.85965,14.25598 14.54253,6.5907 -25.78971,33.6699"
       id="path1272"
       inkscape:connector-curvature="0" />
    <path
       style="fill:none;stroke:#000000;stroke-width:0.26458332px;stroke-linecap:round;stroke-linejoin:round;stroke-opacity:1"
       d="m 81.875921,149.26585 9.725909,-16.6151 -5.268201,-16.51377 45.488891,1.41836 -6.38263,11.14427 12.86657,9.11804 -16.00723,3.24197 4.66033,19.04657 -14.69017,-9.72591 -6.18001,15.39935 -3.64721,-17.42558 -15.500671,8.10492 7.902302,-16.10854 -16.007225,-4.25508 13.271812,-7.59836 -2.431476,-15.39936 7.800988,9.82722 -4.153773,-11.95476 16.412473,-4.3564 5.87607,16.00722 6.07869,-13.27181 1.62099,15.70329 15.09542,9.6246 -21.07281,30.19084 -8.10492,-12.46132 -6.9905,12.86657 -4.052459,-20.56625 -18.134766,-0.60787 12.562631,-17.6282 -7.395742,-8.91542 14.892796,4.86295 2.33017,-15.19673 4.96426,18.13477 3.4446,-0.81049 8.51017,-16.00723 2.33016,15.09542 14.58887,0.70918 -10.84034,10.02984 10.23247,14.18362 -5.87607,8.91542 -11.14427,-12.36001 5.2682,16.91903 -9.82722,-13.0692 -1.82361,16.91903 -5.57214,-14.79148 -21.275423,3.95115"
       id="path1293"
       inkscape:connector-curvature="0" />
  </g>
</svg>
