<?xml version="1.0" encoding="UTF-8" standalone="no"?>
<!-- Created with Inkscape (http://www.inkscape.org/) -->

<svg
   xmlns:dc="http://purl.org/dc/elements/1.1/"
   xmlns:cc="http://creativecommons.org/ns#"
   xmlns:rdf="http://www.w3.org/1999/02/22-rdf-syntax-ns#"
   xmlns:svg="http://www.w3.org/2000/svg"
   xmlns="http://www.w3.org/2000/svg"
   xmlns:sodipodi="http://sodipodi.sourceforge.net/DTD/sodipodi-0.dtd"
   xmlns:inkscape="http://www.inkscape.org/namespaces/inkscape"
   width="210mm"
   height="297mm"
   viewBox="0 0 210 297"
   version="1.1"
   id="svg8"
   inkscape:version="0.92.2 2405546, 2018-03-11"
   sodipodi:docname="hearth.svg">
  <defs
     id="defs2">
    <filter
       inkscape:collect="always"
       style="color-interpolation-filters:sRGB"
       id="filter1299"
       x="-0.012001233"
       width="1.0240025"
       y="-0.012044768"
       height="1.0240895">
      <feGaussianBlur
         inkscape:collect="always"
         stdDeviation="0.29732862"
         id="feGaussianBlur1301" />
    </filter>
    <filter
       inkscape:collect="always"
       style="color-interpolation-filters:sRGB"
       id="filter1303"
       x="-0.011978754"
       width="1.0239575"
       y="-0.012040185"
       height="1.0240804">
      <feGaussianBlur
         inkscape:collect="always"
         stdDeviation="0.29732862"
         id="feGaussianBlur1305" />
    </filter>
  </defs>
  <sodipodi:namedview
     id="base"
     pagecolor="#ffffff"
     bordercolor="#666666"
     borderopacity="1.0"
     inkscape:pageopacity="0.0"
     inkscape:pageshadow="2"
     inkscape:zoom="2.611581"
     inkscape:cx="-152.33221"
     inkscape:cy="683.22071"
     inkscape:document-units="mm"
     inkscape:current-layer="layer1"
     showgrid="false"
     inkscape:window-width="1920"
     inkscape:window-height="1039"
     inkscape:window-x="1920"
     inkscape:window-y="0"
     inkscape:window-maximized="1"
     inkscape:snap-nodes="false" />
  <metadata
     id="metadata5">
    <rdf:RDF>
      <cc:Work
         rdf:about="">
        <dc:format>image/svg+xml</dc:format>
        <dc:type
           rdf:resource="http://purl.org/dc/dcmitype/StillImage" />
        <dc:title></dc:title>
      </cc:Work>
    </rdf:RDF>
  </metadata>
  <g
     inkscape:label="Layer 1"
     inkscape:groupmode="layer"
     id="layer1">
    <path
       inkscape:connector-curvature="0"
       id="path1295"
       d="m -52.224164,121.55832 14.757445,-8.02346 -4.369922,17.04986 13.754512,-10.10097 16.333483,8.73985 13.46796,-25.43152 -17.551331,-12.966494 -5.659409,-15.903657 -12.823217,15.545467 -5.659408,-13.396322 -16.190209,17.622969 0.573106,20.918317 22.494359,1.64768 6.948894,16.5484 2.937161,-16.33349 20.1303024,3.43863 -8.3100184,-17.04986 11.89192261,-7.665277 -7.37872291,-12.823219 -25.8613487,-8.381656 -18.69754,10.960629 -6.304153,18.124433 8.883123,21.34815 16.190209,8.31002 15.903654,-1.93423 16.54839774,-17.33642 -1.21784744,-23.85548 -53.0121823,-0.644742 9.456226,9.169675 -12.39339,10.602437 17.909522,1.57604 -4.441561,18.0528 13.181409,-10.60244 2.364055,15.11564 2.722248,-15.044 11.677008,11.82028 -5.014666,-16.76331 13.181408,9.95769 -7.808551,-16.1902 14.8290835,2.50733 -12.1784745,-9.38459 10.81735083,-7.235446 -14.11270283,-1.432764 0.214914,-14.399255 -5.587771,12.679942 -5.444494,-15.545464 -32.380414,24.643501 13.826149,6.232516 -2.578971,21.84961 13.89779,-9.67114 2.793884,15.90366 2.722247,-14.32762 11.748647,11.67701 -5.372856,-15.90366 16.0469309,7.23545 -11.4620939,-11.82028 16.47675977,1.28948 -11.89192177,-14.041065 8.3816555,-9.599503 -13.9694265,2.292418 -6.232514,-15.688741 -6.662341,17.98116 13.539598,-15.903654 6.160875,3.653541 -1.719314,14.685809 13.2530458,12.178475 -24.1420348,26.07626 -31.305845,-14.82908 9.384591,-16.40512 -10.674074,-10.100973 12.465026,0.716381 -3.0088,-12.321752 19.413921,12.178477 -2.149141,1.647674 0.644742,0.859658 -0.143278,0.859658 -0.573103,-21.563065 4.441561,16.691673 -7.808551,0.143277 -4.871391,-15.617102 -3.653542,15.402189 -16.978225,16.548395 16.190206,1.36113 2.650609,22.78091 40.1173288,-30.73274 -20.7750448,-25.431523 -28.870149,6.519066 0.859658,44.845447 12.106835,-11.53374 -0.501467,17.26478 6.590705,-13.10977 4.083371,14.11271 3.438628,-17.83789 13.7545128,9.9577 -9.4562278,-13.61124 15.6887411,5.94596 -10.9606271,-12.39339 13.7545125,-7.808549 -13.6112365,-4.011734 8.3100181,-7.593637 -26.4344531,5.372857 -2.005868,-16.691673 7.020533,17.121502 -9.957693,-16.834951 -5.94596,16.47676 -15.545467,5.014667 12.823219,7.521998 -8.811485,15.83202 16.333483,-5.94596 -0.429828,18.19607 8.668207,-12.39339 -4.298283,13.5396 -3.438628,-18.91246 -14.327619,9.0264 8.023466,-16.26184 -15.330551,-6.30415 12.966494,-3.510269 -8.739847,-8.954762 15.832019,1.576038 -0.931297,-13.969425 3.438628,14.041064 4.656477,-15.688741 7.665275,15.760379 10.745712,-11.24718 -0.859656,14.25598 14.5425309,6.590706 -25.7897109,33.6699"
       style="fill:none;stroke:#000000;stroke-width:0.26458332px;stroke-linecap:round;stroke-linejoin:round;stroke-opacity:1;filter:url(#filter1299)" />
    <path
       inkscape:connector-curvature="0"
       id="path1297"
       d="m -54.809551,117.17199 9.725909,-16.6151 -5.268201,-16.513776 45.4888884,1.41836 -6.3826274,11.144271 12.8665668,9.118045 -16.0072248,3.24197 4.6603309,19.04657 -14.6901749,-9.72591 -6.180004,15.39935 -3.647218,-17.42558 -15.500667,8.10492 7.902302,-16.10854 -16.007225,-4.25508 13.271812,-7.598368 -2.431476,-15.399356 7.800988,9.82722 -4.153773,-11.954761 16.412472,-4.356399 5.87607,16.007225 6.078693,-13.271812 1.620985,15.703291 15.0954214,9.6246 -21.0728034,30.19084 -8.104924,-12.46132 -6.990498,12.86657 -4.052462,-20.56625 -18.134766,-0.60787 12.562631,-17.628208 -7.395742,-8.915418 14.892798,4.862954 2.330164,-15.196732 4.964269,18.134769 3.444591,-0.810493 8.510171,-16.007225 2.330165,15.09542 14.5888638,0.709182 -10.8403358,10.029841 10.2324665,14.18362 -5.8760701,8.91542 -11.1442704,-12.36001 5.2682,16.91903 -9.82722,-13.0692 -1.823608,16.91903 -5.572135,-14.79148 -21.275426,3.95115"
       style="fill:none;stroke:#000000;stroke-width:0.26458332px;stroke-linecap:round;stroke-linejoin:round;stroke-opacity:1;filter:url(#filter1303)" />
    <path
       style="fill:none;stroke:#000000;stroke-width:0.26458332px;stroke-linecap:round;stroke-linejoin:round;stroke-opacity:1"
       d="m -52.224164,121.55832 14.757445,-8.02346 -4.369922,17.04986 13.754512,-10.10097 16.333483,8.73985 13.46796,-25.43152 -17.551331,-12.966494 -5.659409,-15.903657 -12.823217,15.545467 -5.659408,-13.396322 -16.190209,17.622969 0.573106,20.918317 22.494359,1.64768 6.948894,16.5484 2.937161,-16.33349 20.1303024,3.43863 -8.3100184,-17.04986 11.89192261,-7.665277 -7.37872291,-12.823219 -25.8613487,-8.381656 -18.69754,10.960629 -6.304153,18.124433 8.883123,21.34815 16.190209,8.31002 15.903654,-1.93423 16.54839774,-17.33642 -1.21784744,-23.85548 -53.0121823,-0.644742 9.456226,9.169675 -12.39339,10.602437 17.909522,1.57604 -4.441561,18.0528 13.181409,-10.60244 2.364055,15.11564 2.722248,-15.044 11.677008,11.82028 -5.014666,-16.76331 13.181408,9.95769 -7.808551,-16.1902 14.8290835,2.50733 -12.1784745,-9.38459 10.81735083,-7.235446 -14.11270283,-1.432764 0.214914,-14.399255 -5.587771,12.679942 -5.444494,-15.545464 -32.380414,24.643501 13.826149,6.232516 -2.578971,21.84961 13.89779,-9.67114 2.793884,15.90366 2.722247,-14.32762 11.748647,11.67701 -5.372856,-15.90366 16.0469309,7.23545 -11.4620939,-11.82028 16.47675977,1.28948 -11.89192177,-14.041065 8.3816555,-9.599503 -13.9694265,2.292418 -6.232514,-15.688741 -6.662341,17.98116 13.539598,-15.903654 6.160875,3.653541 -1.719314,14.685809 13.2530458,12.178475 -24.1420348,26.07626 -31.305845,-14.82908 9.384591,-16.40512 -10.674074,-10.100973 12.465026,0.716381 -3.0088,-12.321752 19.413921,12.178477 -2.149141,1.647674 0.644742,0.859658 -0.143278,0.859658 -0.573103,-21.563065 4.441561,16.691673 -7.808551,0.143277 -4.871391,-15.617102 -3.653542,15.402189 -16.978225,16.548395 16.190206,1.36113 2.650609,22.78091 40.1173288,-30.73274 -20.7750448,-25.431523 -28.870149,6.519066 0.859658,44.845447 12.106835,-11.53374 -0.501467,17.26478 6.590705,-13.10977 4.083371,14.11271 3.438628,-17.83789 13.7545128,9.9577 -9.4562278,-13.61124 15.6887411,5.94596 -10.9606271,-12.39339 13.7545125,-7.808549 -13.6112365,-4.011734 8.3100181,-7.593637 -26.4344531,5.372857 -2.005868,-16.691673 7.020533,17.121502 -9.957693,-16.834951 -5.94596,16.47676 -15.545467,5.014667 12.823219,7.521998 -8.811485,15.83202 16.333483,-5.94596 -0.429828,18.19607 8.668207,-12.39339 -4.298283,13.5396 -3.438628,-18.91246 -14.327619,9.0264 8.023466,-16.26184 -15.330551,-6.30415 12.966494,-3.510269 -8.739847,-8.954762 15.832019,1.576038 -0.931297,-13.969425 3.438628,14.041064 4.656477,-15.688741 7.665275,15.760379 10.745712,-11.24718 -0.859656,14.25598 14.5425309,6.590706 -25.7897109,33.6699"
       id="path1272"
       inkscape:connector-curvature="0" />
    <path
       style="fill:none;stroke:#000000;stroke-width:0.26458332px;stroke-linecap:round;stroke-linejoin:round;stroke-opacity:1"
       d="m -54.809551,117.17199 9.725909,-16.6151 -5.268201,-16.513776 45.4888884,1.41836 -6.3826274,11.144271 12.8665668,9.118045 -16.0072248,3.24197 4.6603309,19.04657 -14.6901749,-9.72591 -6.180004,15.39935 -3.647218,-17.42558 -15.500667,8.10492 7.902302,-16.10854 -16.007225,-4.25508 13.271812,-7.598368 -2.431476,-15.399356 7.800988,9.82722 -4.153773,-11.954761 16.412472,-4.356399 5.87607,16.007225 6.078693,-13.271812 1.620985,15.703291 15.0954214,9.6246 -21.0728034,30.19084 -8.104924,-12.46132 -6.990498,12.86657 -4.052462,-20.56625 -18.134766,-0.60787 12.562631,-17.628208 -7.395742,-8.915418 14.892798,4.862954 2.330164,-15.196732 4.964269,18.134769 3.444591,-0.810493 8.510171,-16.007225 2.330165,15.09542 14.5888638,0.709182 -10.8403358,10.029841 10.2324665,14.18362 -5.8760701,8.91542 -11.1442704,-12.36001 5.2682,16.91903 -9.82722,-13.0692 -1.823608,16.91903 -5.572135,-14.79148 -21.275426,3.95115"
       id="path1293"
       inkscape:connector-curvature="0" />
  </g>
</svg>
