<?xml version="1.0" encoding="UTF-8" standalone="no"?>
<!-- Created with Inkscape (http://www.inkscape.org/) -->

<svg
   xmlns:dc="http://purl.org/dc/elements/1.1/"
   xmlns:cc="http://creativecommons.org/ns#"
   xmlns:rdf="http://www.w3.org/1999/02/22-rdf-syntax-ns#"
   xmlns:svg="http://www.w3.org/2000/svg"
   xmlns="http://www.w3.org/2000/svg"
   xmlns:sodipodi="http://sodipodi.sourceforge.net/DTD/sodipodi-0.dtd"
   xmlns:inkscape="http://www.inkscape.org/namespaces/inkscape"
   width="210mm"
   height="297mm"
   viewBox="0 0 210 297"
   version="1.1"
   id="svg1619"
   inkscape:version="0.92.2 2405546, 2018-03-11"
   sodipodi:docname="monitor.svg">
  <defs
     id="defs1613">
    <filter
       inkscape:collect="always"
       style="color-interpolation-filters:sRGB"
       id="filter2284"
       x="-0.010861314"
       width="1.0217226"
       y="-0.013405406"
       height="1.0268108">
      <feGaussianBlur
         inkscape:collect="always"
         stdDeviation="0.82020832"
         id="feGaussianBlur2286" />
    </filter>
  </defs>
  <sodipodi:namedview
     id="base"
     pagecolor="#ffffff"
     bordercolor="#666666"
     borderopacity="1.0"
     inkscape:pageopacity="0.0"
     inkscape:pageshadow="2"
     inkscape:zoom="0.7"
     inkscape:cx="74.197938"
     inkscape:cy="665.01164"
     inkscape:document-units="mm"
     inkscape:current-layer="layer1"
     showgrid="false"
     inkscape:window-width="1920"
     inkscape:window-height="1039"
     inkscape:window-x="0"
     inkscape:window-y="0"
     inkscape:window-maximized="1" />
  <metadata
     id="metadata1616">
    <rdf:RDF>
      <cc:Work
         rdf:about="">
        <dc:format>image/svg+xml</dc:format>
        <dc:type
           rdf:resource="http://purl.org/dc/dcmitype/StillImage" />
        <dc:title></dc:title>
      </cc:Work>
    </rdf:RDF>
  </metadata>
  <g
     inkscape:label="Layer 1"
     inkscape:groupmode="layer"
     id="layer1">
    <g
       id="g2290">
      <path
         style="fill:none;stroke:#000000;stroke-width:1;stroke-linecap:round;stroke-linejoin:round;stroke-opacity:1;stroke-miterlimit:4;stroke-dasharray:none;filter:url(#filter2284)"
         d="m 29.104166,209.49851 11.717261,-10.58333 10.772322,10.96131 37.797618,-25.13542 -20.78869,-12.47322 -23.8125,6.80358 -24.757439,-6.99256 -26.080357,7.18154 -12.85119,-13.04017 6.614583,-9.07143 -7.181548,-12.85119 7.181548,-10.96131 -6.99256,-12.47322 6.99256,-9.07143 -7.370536,-11.15029 7.181548,-9.827383 -6.803572,-10.583333 7.559524,-7.370535 5.2916669,-9.260417 8.6934522,6.992559 12.2842259,-7.181548 7.748512,7.370535 9.071429,-6.992559 7.181548,7.181548 10.77232,-7.370535 8.882441,6.992559 9.071427,-7.181548 8.126489,7.181548 7.559524,-6.992559 8.126487,7.181546 9.07143,-7.370535 8.12649,7.181548 8.12649,-6.425596 6.61458,6.236607 7.74851,-6.80357 7.37054,7.181546 8.69345,-7.181546 6.99256,9.449403 7.37053,3.401788 -6.61458,9.260416 6.80357,14.930061 -6.99256,10.96131 6.61459,16.06398 -6.23661,7.37054 6.61458,14.93006 -6.80357,8.12649 5.85863,13.04018 -4.34673,5.85863 -7.55952,-4.34673 -15.875,6.4256 -11.52827,-6.99256 -13.98512,7.55952 -14.741074,-7.18155 -38.553569,8.12649 38.364583,12.47321 -48.002976,16.81995 -14.930058,-6.80358 3.401784,-3.96875 32.694941,10.39435 44.223209,-9.82738 3.59078,3.40178 -9.82738,6.61459 -53.672622,-13.22917 38.742558,-15.11905 -38.364583,-8.69345 -23.812498,6.99256 -18.8988093,-7.9375 -20.9776787,5.85863 -4.346726,-5.29167 5.669643,-5.48065 -6.425595,-11.1503 6.047619,-8.12649 -6.425595,-13.79613 6.992559,-10.20535 -7.370536,-12.28423 7.559524,-7.74851 -7.181547,-11.717262 6.992559,-6.614584 -6.425595,-12.662201 6.047619,-7.9375 7.9374998,6.236605 9.6383926,-6.992559 7.7485116,6.992559 11.339286,-7.370535 6.614583,6.992559 9.638392,-6.425594 8.693454,6.80357 10.394344,-7.181546 8.126489,6.80357 9.449404,-6.80357 6.803572,7.370535 8.126486,-6.992559 8.12649,7.181548 10.20536,-7.748513 6.80357,6.992559 6.61458,-6.425594 8.50446,6.992559 6.23661,-7.370535 7.9375,6.992559 10.96131,-3.779763 -3.2128,12.095239 7.18155,10.205357 -6.99256,11.150296 6.4256,13.60714 -6.23661,8.88245 6.61458,12.6622 -6.42559,9.07142 6.23661,12.09524 -6.61459,9.44941 4.91369,8.50446 -6.99256,4.53572 -11.90625,-6.4256 -14.36309,6.23661 -11.52828,-6.04762 -13.60714,6.80357 -16.441964,-7.37054 -32.505951,15.11905 41.766368,12.47322 13.796127,9.4494 5.10268,-3.40178 -8.12648,-6.99256 -16.630956,10.77232 -25.513392,-37.41965 -10.016371,6.4256 -7.370535,-6.04762 -7.370535,6.80357 -9.449406,-7.37053 -10.961309,7.18154 -10.9613088,-7.37053 -8.1264881,7.37053 -5.4806548,-6.99256 -8.8824403,2.64584 4.157738,-11.33929 -7.181548,-13.79613 7.370536,-9.26042 -6.614583,-11.71726 5.858631,-10.58333 -6.614584,-12.09524 6.425596,-8.69345 -5.480655,-10.583333 5.858631,-8.315476 -3.401786,-10.961309 14.7410714,2.83482 10.5833333,-6.425594 7.9375003,6.236607 10.205355,-6.614583 6.992562,6.614583 10.205355,-6.425596 9.449406,6.803572 8.504465,-6.614583 8.693451,6.425594 8.315476,-6.80357 7.9375,6.80357 8.315475,-6.425594 8.88244,6.425594 8.31548,-6.80357 6.42559,6.425594 7.9375,-6.425594 6.80357,6.614583 8.50447,-6.425596 6.04762,6.992559 11.52827,0.188989 -5.66964,11.528274 6.61458,13.229167 -6.80357,10.961312 6.80357,14.74107 -6.99256,8.31547 6.80357,13.41816 -6.61458,7.74851 6.99256,12.28423 -13.79613,16.25297 -16.44197,-6.99256 -14.36309,6.4256 -13.60714,-7.37054 -12.662206,7.74851 -13.040177,-6.99256 -25.135417,11.52828 40.443451,13.22916 -34.206843,12.8512 -29.860121,-3.02381 82.776783,-6.04762 v 8.69345 l -13.607139,-10.39435 -17.95387,11.1503 -31.372024,-11.1503 42.522322,-9.07142 -37.230656,-10.20536 10.772323,-7.55953 25.891368,15.875 -40.443451,3.59078 43.656249,17.95387 17.953868,-8.31548"
         id="path2282"
         inkscape:connector-curvature="0" />
      <path
         inkscape:connector-curvature="0"
         id="path2280"
         d="m 29.104166,209.49851 11.717261,-10.58333 10.772322,10.96131 37.797618,-25.13542 -20.78869,-12.47322 -23.8125,6.80358 -24.757439,-6.99256 -26.080357,7.18154 -12.85119,-13.04017 6.614583,-9.07143 -7.181548,-12.85119 7.181548,-10.96131 -6.99256,-12.47322 6.99256,-9.07143 -7.370536,-11.15029 7.181548,-9.827383 -6.803572,-10.583333 7.559524,-7.370535 5.2916669,-9.260417 8.6934522,6.992559 12.2842259,-7.181548 7.748512,7.370535 9.071429,-6.992559 7.181548,7.181548 10.77232,-7.370535 8.882441,6.992559 9.071427,-7.181548 8.126489,7.181548 7.559524,-6.992559 8.126487,7.181546 9.07143,-7.370535 8.12649,7.181548 8.12649,-6.425596 6.61458,6.236607 7.74851,-6.80357 7.37054,7.181546 8.69345,-7.181546 6.99256,9.449403 7.37053,3.401788 -6.61458,9.260416 6.80357,14.930061 -6.99256,10.96131 6.61459,16.06398 -6.23661,7.37054 6.61458,14.93006 -6.80357,8.12649 5.85863,13.04018 -4.34673,5.85863 -7.55952,-4.34673 -15.875,6.4256 -11.52827,-6.99256 -13.98512,7.55952 -14.741074,-7.18155 -38.553569,8.12649 38.364583,12.47321 -48.002976,16.81995 -14.930058,-6.80358 3.401784,-3.96875 32.694941,10.39435 44.223209,-9.82738 3.59078,3.40178 -9.82738,6.61459 -53.672622,-13.22917 38.742558,-15.11905 -38.364583,-8.69345 -23.812498,6.99256 -18.8988093,-7.9375 -20.9776787,5.85863 -4.346726,-5.29167 5.669643,-5.48065 -6.425595,-11.1503 6.047619,-8.12649 -6.425595,-13.79613 6.992559,-10.20535 -7.370536,-12.28423 7.559524,-7.74851 -7.181547,-11.717262 6.992559,-6.614584 -6.425595,-12.662201 6.047619,-7.9375 7.9374998,6.236605 9.6383926,-6.992559 7.7485116,6.992559 11.339286,-7.370535 6.614583,6.992559 9.638392,-6.425594 8.693454,6.80357 10.394344,-7.181546 8.126489,6.80357 9.449404,-6.80357 6.803572,7.370535 8.126486,-6.992559 8.12649,7.181548 10.20536,-7.748513 6.80357,6.992559 6.61458,-6.425594 8.50446,6.992559 6.23661,-7.370535 7.9375,6.992559 10.96131,-3.779763 -3.2128,12.095239 7.18155,10.205357 -6.99256,11.150296 6.4256,13.60714 -6.23661,8.88245 6.61458,12.6622 -6.42559,9.07142 6.23661,12.09524 -6.61459,9.44941 4.91369,8.50446 -6.99256,4.53572 -11.90625,-6.4256 -14.36309,6.23661 -11.52828,-6.04762 -13.60714,6.80357 -16.441964,-7.37054 -32.505951,15.11905 41.766368,12.47322 13.796127,9.4494 5.10268,-3.40178 -8.12648,-6.99256 -16.630956,10.77232 -25.513392,-37.41965 -10.016371,6.4256 -7.370535,-6.04762 -7.370535,6.80357 -9.449406,-7.37053 -10.961309,7.18154 -10.9613088,-7.37053 -8.1264881,7.37053 -5.4806548,-6.99256 -8.8824403,2.64584 4.157738,-11.33929 -7.181548,-13.79613 7.370536,-9.26042 -6.614583,-11.71726 5.858631,-10.58333 -6.614584,-12.09524 6.425596,-8.69345 -5.480655,-10.583333 5.858631,-8.315476 -3.401786,-10.961309 14.7410714,2.83482 10.5833333,-6.425594 7.9375003,6.236607 10.205355,-6.614583 6.992562,6.614583 10.205355,-6.425596 9.449406,6.803572 8.504465,-6.614583 8.693451,6.425594 8.315476,-6.80357 7.9375,6.80357 8.315475,-6.425594 8.88244,6.425594 8.31548,-6.80357 6.42559,6.425594 7.9375,-6.425594 6.80357,6.614583 8.50447,-6.425596 6.04762,6.992559 11.52827,0.188989 -5.66964,11.528274 6.61458,13.229167 -6.80357,10.961312 6.80357,14.74107 -6.99256,8.31547 6.80357,13.41816 -6.61458,7.74851 6.99256,12.28423 -13.79613,16.25297 -16.44197,-6.99256 -14.36309,6.4256 -13.60714,-7.37054 -12.662206,7.74851 -13.040177,-6.99256 -25.135417,11.52828 40.443451,13.22916 -34.206843,12.8512 -29.860121,-3.02381 82.776783,-6.04762 v 8.69345 l -13.607139,-10.39435 -17.95387,11.1503 -31.372024,-11.1503 42.522322,-9.07142 -37.230656,-10.20536 10.772323,-7.55953 25.891368,15.875 -40.443451,3.59078 43.656249,17.95387 17.953868,-8.31548"
         style="fill:none;stroke:#000000;stroke-width:1;stroke-linecap:round;stroke-linejoin:round;stroke-opacity:1;stroke-miterlimit:4;stroke-dasharray:none" />
    </g>
  </g>
</svg>
