<?xml version="1.0" encoding="UTF-8" standalone="no"?>
<!-- Created with Inkscape (http://www.inkscape.org/) -->

<svg
   xmlns:dc="http://purl.org/dc/elements/1.1/"
   xmlns:cc="http://creativecommons.org/ns#"
   xmlns:rdf="http://www.w3.org/1999/02/22-rdf-syntax-ns#"
   xmlns:svg="http://www.w3.org/2000/svg"
   xmlns="http://www.w3.org/2000/svg"
   xmlns:sodipodi="http://sodipodi.sourceforge.net/DTD/sodipodi-0.dtd"
   xmlns:inkscape="http://www.inkscape.org/namespaces/inkscape"
   width="210mm"
   height="297mm"
   viewBox="0 0 210 297"
   version="1.1"
   id="svg3968"
   inkscape:version="0.92.2 2405546, 2018-03-11"
   sodipodi:docname="publications.svg">
  <defs
     id="defs3962">
    <filter
       inkscape:collect="always"
       style="color-interpolation-filters:sRGB"
       id="filter3075"
       x="-0.014145455"
       width="1.0282909"
       y="-0.010419643"
       height="1.0208393">
      <feGaussianBlur
         inkscape:collect="always"
         stdDeviation="0.55137275"
         id="feGaussianBlur3077" />
    </filter>
    <filter
       height="1.4308013"
       y="-0.21540067"
       width="1.0268219"
       x="-0.013410963"
       id="filter3946"
       style="color-interpolation-filters:sRGB"
       inkscape:collect="always">
      <feGaussianBlur
         id="feGaussianBlur3948"
         stdDeviation="0.77959427"
         inkscape:collect="always" />
    </filter>
    <filter
       height="1.4231695"
       y="-0.21158475"
       width="1.0270552"
       x="-0.013527579"
       id="filter3950"
       style="color-interpolation-filters:sRGB"
       inkscape:collect="always">
      <feGaussianBlur
         id="feGaussianBlur3952"
         stdDeviation="0.77959427"
         inkscape:collect="always" />
    </filter>
    <filter
       height="1.4590507"
       y="-0.22952533"
       width="1.0465151"
       x="-0.023257549"
       id="filter3954"
       style="color-interpolation-filters:sRGB"
       inkscape:collect="always">
      <feGaussianBlur
         id="feGaussianBlur3956"
         stdDeviation="0.77959427"
         inkscape:collect="always" />
    </filter>
    <filter
       height="1.4308013"
       y="-0.21540067"
       width="1.0473539"
       x="-0.023676956"
       id="filter3958"
       style="color-interpolation-filters:sRGB"
       inkscape:collect="always">
      <feGaussianBlur
         id="feGaussianBlur3960"
         stdDeviation="0.77959427"
         inkscape:collect="always" />
    </filter>
    <filter
       inkscape:collect="always"
       style="color-interpolation-filters:sRGB"
       id="filter4768"
       x="-0.0063836074"
       width="1.0127672"
       y="-0.099845953"
       height="1.1996919">
      <feGaussianBlur
         inkscape:collect="always"
         stdDeviation="0.36788725"
         id="feGaussianBlur4770" />
    </filter>
    <filter
       inkscape:collect="always"
       style="color-interpolation-filters:sRGB"
       id="filter4782"
       x="-0.01912069"
       width="1.0382414"
       y="-0.30710767"
       height="1.6142153">
      <feGaussianBlur
         inkscape:collect="always"
         stdDeviation="1.1115071"
         id="feGaussianBlur4784" />
    </filter>
  </defs>
  <sodipodi:namedview
     id="base"
     pagecolor="#ffffff"
     bordercolor="#666666"
     borderopacity="1.0"
     inkscape:pageopacity="0.0"
     inkscape:pageshadow="2"
     inkscape:zoom="0.7"
     inkscape:cx="-81.167284"
     inkscape:cy="645.2216"
     inkscape:document-units="mm"
     inkscape:current-layer="layer1"
     showgrid="false"
     inkscape:object-nodes="false"
     inkscape:window-width="1920"
     inkscape:window-height="1039"
     inkscape:window-x="0"
     inkscape:window-y="0"
     inkscape:window-maximized="1" />
  <metadata
     id="metadata3965">
    <rdf:RDF>
      <cc:Work
         rdf:about="">
        <dc:format>image/svg+xml</dc:format>
        <dc:type
           rdf:resource="http://purl.org/dc/dcmitype/StillImage" />
        <dc:title />
      </cc:Work>
    </rdf:RDF>
  </metadata>
  <g
     inkscape:label="Layer 1"
     inkscape:groupmode="layer"
     id="layer1">
    <g
       id="g4836"
       transform="rotate(-180,92.74057,135.01556)"
       inkscape:export-filename="/home/siqueira/Documents/Repositories/siqueira.tech/images/icons/publications.png"
       inkscape:export-xdpi="144.75999"
       inkscape:export-ydpi="144.75999">
      <path
         style="fill:none;stroke:#000000;stroke-width:2.12021756;stroke-linecap:round;stroke-linejoin:round;stroke-miterlimit:4;stroke-dasharray:none;stroke-opacity:1;filter:url(#filter4782)"
         d="m -6.4943748,81.337094 c 0.5345391,0 129.8929948,-7.08264 129.8929948,-7.08264 l 9.22079,2.27179 -11.49259,5.21176 -28.196932,-8.01809 -30.33509,7.88445 -18.842503,-8.01808 -24.72243,8.01808 -13.4971109,-7.88445 -12.4280332,4.40995 9.3544335,3.4745 18.1743276,-7.88445 19.64431,8.01809 21.381561,-8.01809 22.584275,7.88445 27.127862,-7.88445 20.71339,7.75082 -2.2718,-7.61718 -24.18789,7.75081 -26.593317,-7.61718 -28.86511,8.01809 -18.040691,-8.68626 -19.644311,8.15172 -19.2434053,-7.48355 c 0,0 3.7417733,7.34991 4.2763125,7.34991 0.534539,0 17.5061538,-7.34991 17.5061538,-7.34991 l 14.699823,7.75082 21.648832,-8.41899 23.653353,8.15172 29.13238,-7.75082 21.78247,7.48355 6.5481,-7.21628"
         id="path4804"
         inkscape:connector-curvature="0"
         inkscape:export-filename="/home/siqueira/Documents/Repositories/siqueira.tech/images/icons/cv_a2c.png"
         inkscape:export-xdpi="144.75999"
         inkscape:export-ydpi="144.75999"
         transform="matrix(0.22245344,0,0,1,-5.3614005,0)" />
      <path
         style="fill:none;stroke:#000000;stroke-width:1.44221663;stroke-linecap:round;stroke-linejoin:round;stroke-miterlimit:4;stroke-dasharray:none;stroke-opacity:1;filter:url(#filter4768)"
         d="m 115.38053,35.702239 c 0,0 -5.34539,8.95353 -5.61266,8.41899 -0.26727,-0.53454 -8.95353,-8.41899 -8.95353,-8.41899 l -7.750816,8.28535 -8.285356,-7.88445 -6.548104,7.61718 -6.147199,-7.88445 -5.879928,7.61718 -5.078122,-6.81537 -4.944485,6.94901 -4.944489,-7.34991 -4.944485,7.21627 -6.815373,-7.08264 -4.81085,7.34991 -6.949009,-7.88445 -4.944485,8.15172 -6.681739,-7.88445 -5.211756,7.61718 -6.6817379,-7.34991 -5.4790252,7.21628 -5.2117557,-4.14268 4.543582,-3.60814 6.5481033,7.75082 5.3453906,-7.88445 6.4144679,7.61718 5.345392,-7.61718 6.681737,7.88445 5.479026,-7.75082 6.548104,7.88445 4.276312,-7.88445 6.147197,8.01809 4.810852,-8.01809 5.345391,7.75082 4.409948,-7.61718 7.216277,7.75081 5.34539,-8.15172 7.884451,8.01809 6.681737,-7.61718 7.617187,7.88445 7.75081,-8.01809 6.81538,8.01809 5.87993,-8.28536 4.94448,7.75082 6.28084,-6.94901 -0.26727,7.08264 -5.21176,-7.75081 -6.5481,7.88445 -7.48355,-7.21628 -8.28535,7.34991 -7.750822,-7.34991 -6.414468,7.48355 -8.285356,-7.34991 -5.87993,7.34991 -6.548105,-8.55263 -5.479023,8.15172 -5.078121,-7.21627"
         id="path4806"
         inkscape:connector-curvature="0"
         inkscape:export-filename="/home/siqueira/Documents/Repositories/siqueira.tech/images/icons/cv_a2c.png"
         inkscape:export-xdpi="144.75999"
         inkscape:export-ydpi="144.75999"
         transform="matrix(0.48077184,0,0,1,-3.3720626,0)" />
      <path
         inkscape:connector-curvature="0"
         id="path4808"
         d="m -6.4943748,121.40257 c 0.5345391,0 129.8929948,-7.08264 129.8929948,-7.08264 l 9.22079,2.27179 -11.49259,5.21176 -28.196932,-8.01809 -30.33509,7.88445 -18.842503,-8.01808 -24.72243,8.01808 -13.4971109,-7.88445 -12.4280332,4.40995 9.3544335,3.4745 18.1743276,-7.88445 19.64431,8.01809 21.381561,-8.01809 22.584275,7.88445 27.127862,-7.88445 20.71339,7.75082 -2.2718,-7.61718 -24.18789,7.75081 -26.593317,-7.61718 -28.86511,8.01809 -18.040691,-8.68626 -19.644311,8.15172 -19.2434053,-7.48355 c 0,0 3.7417733,7.34991 4.2763125,7.34991 0.534539,0 17.5061538,-7.34991 17.5061538,-7.34991 l 14.699823,7.75082 21.648832,-8.41899 23.653353,8.15172 29.13238,-7.75082 21.78247,7.48355 6.5481,-7.21628"
         style="fill:none;stroke:#000000;stroke-width:1;stroke-linecap:round;stroke-linejoin:round;stroke-miterlimit:4;stroke-dasharray:none;stroke-opacity:1;filter:url(#filter3946)"
         inkscape:export-filename="/home/siqueira/Documents/Repositories/siqueira.tech/images/icons/cv_a2c.png"
         inkscape:export-xdpi="144.75999"
         inkscape:export-ydpi="144.75999" />
      <path
         inkscape:connector-curvature="0"
         id="path4810"
         d="m 115.38053,140.77962 c 0,0 -5.34539,8.95353 -5.61266,8.41899 -0.26727,-0.53454 -8.95353,-8.41899 -8.95353,-8.41899 l -7.750816,8.28535 -8.285356,-7.88445 -6.548104,7.61718 -6.147199,-7.88445 -5.879928,7.61718 -5.078122,-6.81537 -4.944485,6.94901 -4.944489,-7.34991 -4.944485,7.21627 -6.815373,-7.08264 -4.81085,7.34991 -6.949009,-7.88445 -4.944485,8.15172 -6.681739,-7.88445 -5.211756,7.61718 -6.6817379,-7.34991 -5.4790252,7.21628 -5.2117557,-4.14268 4.543582,-3.60814 6.5481033,7.75082 5.3453906,-7.88445 6.4144679,7.61718 5.345392,-7.61718 6.681737,7.88445 5.479026,-7.75082 6.548104,7.88445 4.276312,-7.88445 6.147197,8.01809 4.810852,-8.01809 5.345391,7.75082 4.409948,-7.61718 7.216277,7.75081 5.34539,-8.15172 7.884451,8.01809 6.681737,-7.61718 7.617187,7.88445 7.75081,-8.01809 6.81538,8.01809 5.87993,-8.28536 4.94448,7.75082 6.28084,-6.94901 -0.26727,7.08264 -5.21176,-7.75081 -6.5481,7.88445 -7.48355,-7.21628 -8.28535,7.34991 -7.750822,-7.34991 -6.414468,7.48355 -8.285356,-7.34991 -5.87993,7.34991 -6.548105,-8.55263 -5.479023,8.15172 -5.078121,-7.21627"
         style="fill:none;stroke:#000000;stroke-width:1;stroke-linecap:round;stroke-linejoin:round;stroke-miterlimit:4;stroke-dasharray:none;stroke-opacity:1;filter:url(#filter3950)"
         inkscape:export-filename="/home/siqueira/Documents/Repositories/siqueira.tech/images/icons/cv_a2c.png"
         inkscape:export-xdpi="144.75999"
         inkscape:export-ydpi="144.75999" />
      <path
         inkscape:connector-curvature="0"
         id="path4812"
         d="m -7.0289138,175.25739 5.3453904,-6.81538 4.1426778,7.34991 8.6862596,-7.61718 5.879929,7.34991 7.884452,-7.21627 6.815373,7.48354 8.418988,-7.48354 7.884451,7.34991 6.949009,-7.34991 7.082642,7.48354 11.225321,-6.949 -19.64431,7.48354 -21.648832,-7.61718 -21.916101,6.81537 -16.7043455,-3.8754 12.0271286,-3.20724 17.7734239,6.54811 24.9897,-6.28084 24.722431,6.68174 -10.557147,-6.5481 -23.386082,7.34991 -21.515198,-7.75082 -19.6443094,7.61718 -4.8108514,-2.53906 2.9399648,-4.81085 18.708867,7.21628 23.118813,-7.08264 7.349911,6.949 13.764382,-7.08264 7.216277,6.54811 1.870887,-6.68174 5.479024,4.14267 c 0,0 -4.276313,4.00905 -4.276313,3.20724 0,-0.80181 -4.409945,-7.48355 -4.409945,-7.48355 l -5.612662,7.21628"
         style="fill:none;stroke:#000000;stroke-width:1;stroke-linecap:round;stroke-linejoin:round;stroke-miterlimit:4;stroke-dasharray:none;stroke-opacity:1;filter:url(#filter3954)"
         inkscape:export-filename="/home/siqueira/Documents/Repositories/siqueira.tech/images/icons/cv_a2c.png"
         inkscape:export-xdpi="144.75999"
         inkscape:export-ydpi="144.75999" />
      <path
         inkscape:connector-curvature="0"
         id="path4814"
         d="m 72.082865,199.71255 -4.944486,3.4745 -10.022607,-7.48355 -11.893494,7.48355 -12.027128,-7.48355 -10.958052,7.75082 -10.289876,-7.88445 -8.4189896,7.75082 -10.1562419,-7.61719 0.4009043,6.81538 6.2808338,-7.08264 9.6217025,7.88445 8.4189899,-7.48355 10.022608,7.08264 10.824416,-7.61718 11.49259,8.15172 11.893492,-7.75082 9.621705,7.21628 c 0,0 0.534537,-7.08264 -0.534541,-6.81537 -1.069078,0.26727 -14.03165,7.21628 -14.03165,7.21628 0,0 -9.888971,-7.88445 -10.958049,-7.61719 -1.069078,0.26727 -12.160764,8.28536 -12.160764,8.28536 l -10.156242,-8.41899 -8.41899,7.48354 -10.0226079,-7.34991 -7.6171809,7.48355 -1.0690782,-7.48355 c 0,0 -4.4099471,3.20724 -3.8754081,3.60814 0.5345391,0.40091 32.8741521,3.87541 32.8741521,3.87541 l 2.138156,-7.48355 11.225321,7.34991 13.49711,-7.21627 9.354433,7.34991"
         style="fill:none;stroke:#000000;stroke-width:1;stroke-linecap:round;stroke-linejoin:round;stroke-miterlimit:4;stroke-dasharray:none;stroke-opacity:1;filter:url(#filter3958)"
         inkscape:export-filename="/home/siqueira/Documents/Repositories/siqueira.tech/images/icons/cv_a2c.png"
         inkscape:export-xdpi="144.75999"
         inkscape:export-ydpi="144.75999" />
      <g
         id="g4822"
         inkscape:label="Layer 1"
         transform="matrix(1.7595961,0,0,1.7540915,-106.71738,-107.53106)"
         style="stroke-width:0.56920326"
         inkscape:export-filename="/home/siqueira/Documents/Repositories/siqueira.tech/images/icons/cv_a2c.png"
         inkscape:export-xdpi="144.75999"
         inkscape:export-ydpi="144.75999">
        <g
           id="g4820"
           style="stroke-width:0.56920326">
          <path
             inkscape:connector-curvature="0"
             id="path4816"
             d="m 104.51042,158.09375 26.64732,7.18154 -29.29316,8.31548 9.07143,12.28423 -8.69345,2.45684 v 6.04762 l -6.425596,-3.77976 -5.291667,3.77976 -6.047621,-4.15774 -4.724701,4.15774 -5.102678,-4.34672 -3.96875,4.15773 -3.968749,-3.59077 -3.96875,3.59077 -3.590775,-3.59077 -3.590774,3.77976 -2.267857,-4.7247 -4.913691,-1.32292 3.401788,-5.10268 -3.96875,-5.85863 3.96875,-6.04762 -3.590775,-6.2366 3.779761,-8.12649 -4.157736,-7.74851 3.96875,-7.18155 -3.590775,-8.12649 3.590775,-6.23661 -3.779764,-6.80357 3.96875,-7.74851 -3.779761,-6.99256 3.779761,-5.48065 -3.96875,-8.315477 4.346726,-5.858632 -3.96875,-4.535715 3.590774,-4.724702 -2.267857,-6.614583 6.047621,1.700893 2.834819,-3.590774 3.590775,3.968749 4.724701,-4.346725 3.212798,3.77976 3.779761,-3.77976 3.590774,4.157739 5.480656,-4.157739 3.779761,4.157739 6.236607,-4.157739 6.236608,3.96875 6.425591,-3.96875 4.53572,4.157739 5.66964,-4.157739 5.10268,3.590774 5.48065,-3.590774 4.91369,3.96875 5.29167,-3.212799 4.34673,6.425597 -3.40179,4.346726 3.77976,6.992559 -3.77976,4.346726 3.59078,6.803572 -3.77977,6.803565 3.96875,6.04763 -4.15773,7.18154 4.15773,6.80357 -3.77976,4.15774 3.40179,6.04762 -3.2128,3.59078 3.40179,5.29166 -3.96875,5.48066 3.96875,5.85863 -39.6875,11.1503 15.49702,12.28422 -14.74107,6.23661 3.77976,6.04762 -3.59077,-29.48215 5.48065,-5.85863 25.89137,6.80358 -32.12798,7.74851 20.03274,3.59077 2.26786,-18.89881 3.59077,13.98512 4.7247,-13.60714 4.34673,4.15773 0.75595,-6.04761 3.59078,-4.9137 -3.77976,-5.66964 3.96875,-3.59077 -3.96875,-5.29167 3.59077,-3.77976 -3.77976,-5.85863 3.96875,-5.85863 -3.96875,-7.55952 4.15774,-6.61459 -3.59078,-5.669643 3.40179,-6.425594 -3.59078,-5.669642 3.77977,-5.669642 -3.96875,-5.669643 2.07886,-4.913691 -4.34672,2.456844 -4.15774,-4.724701 -5.10268,4.535715 -4.91369,-4.346729 -5.29167,4.346729 -5.85863,-3.96875 -5.10267,3.590771 -5.291671,-3.590771 -6.425594,3.96875 -4.157739,-4.157739 -5.858632,3.77976 -3.779761,-3.77976 -5.480656,3.96875 -3.401785,-4.15774 -3.590774,4.346729 -3.023809,-4.913691 -4.157739,4.535712 -6.425594,-3.023809 0.188989,4.346726 -5.291666,1.511906 4.535712,6.614583 -4.535712,4.913691 4.157736,7.181548 -4.157736,6.425591 4.346725,6.99256 -3.779763,6.04762 3.212798,7.9375 -3.401785,7.55952 3.779761,5.29167 -3.96875,7.55953 3.96875,8.88244 -3.590774,7.9375 3.401788,6.61458 -3.96875,6.99256 3.96875,5.85863 -3.779764,5.48065 4.157739,4.34673 -0.566965,5.85863 4.15774,-3.2128 3.590771,3.96875 4.346728,-3.40178 3.779761,3.77976 3.96875,-4.91369 4.913691,4.7247 3.401785,-3.77976 5.669642,3.59077 5.291667,-3.96875 5.669642,4.15774 4.157744,-3.96875 3.40178,1.32292 12.85119,-36.85268 3.2128,21.73363 8.50446,-22.1116 6.99256,5.66964 -33.45089,18.14285 11.33929,4.91369 7.55952,-27.78125 4.7247,14.55209 -22.86756,-10.39435 15.68601,17.76488 -16.25297,-1.13393 10.20536,-21.16666"
             style="fill:none;stroke:#000000;stroke-width:0.56920326;stroke-linecap:round;stroke-linejoin:round;stroke-miterlimit:4;stroke-dasharray:none;stroke-opacity:1;filter:url(#filter3075)" />
          <path
             style="fill:none;stroke:#000000;stroke-width:0.56920326;stroke-linecap:round;stroke-linejoin:round;stroke-miterlimit:4;stroke-dasharray:none;stroke-opacity:1"
             d="m 104.51042,158.09375 26.64732,7.18154 -29.29316,8.31548 9.07143,12.28423 -8.69345,2.45684 v 6.04762 l -6.425596,-3.77976 -5.291667,3.77976 -6.047621,-4.15774 -4.724701,4.15774 -5.102678,-4.34672 -3.96875,4.15773 -3.968749,-3.59077 -3.96875,3.59077 -3.590775,-3.59077 -3.590774,3.77976 -2.267857,-4.7247 -4.913691,-1.32292 3.401788,-5.10268 -3.96875,-5.85863 3.96875,-6.04762 -3.590775,-6.2366 3.779761,-8.12649 -4.157736,-7.74851 3.96875,-7.18155 -3.590775,-8.12649 3.590775,-6.23661 -3.779764,-6.80357 3.96875,-7.74851 -3.779761,-6.99256 3.779761,-5.48065 -3.96875,-8.315477 4.346726,-5.858632 -3.96875,-4.535715 3.590774,-4.724702 -2.267857,-6.614583 6.047621,1.700893 2.834819,-3.590774 3.590775,3.968749 4.724701,-4.346725 3.212798,3.77976 3.779761,-3.77976 3.590774,4.157739 5.480656,-4.157739 3.779761,4.157739 6.236607,-4.157739 6.236608,3.96875 6.425591,-3.96875 4.53572,4.157739 5.66964,-4.157739 5.10268,3.590774 5.48065,-3.590774 4.91369,3.96875 5.29167,-3.212799 4.34673,6.425597 -3.40179,4.346726 3.77976,6.992559 -3.77976,4.346726 3.59078,6.803572 -3.77977,6.803565 3.96875,6.04763 -4.15773,7.18154 4.15773,6.80357 -3.77976,4.15774 3.40179,6.04762 -3.2128,3.59078 3.40179,5.29166 -3.96875,5.48066 3.96875,5.85863 -39.6875,11.1503 15.49702,12.28422 -14.74107,6.23661 3.77976,6.04762 -3.59077,-29.48215 5.48065,-5.85863 25.89137,6.80358 -32.12798,7.74851 20.03274,3.59077 2.26786,-18.89881 3.59077,13.98512 4.7247,-13.60714 4.34673,4.15773 0.75595,-6.04761 3.59078,-4.9137 -3.77976,-5.66964 3.96875,-3.59077 -3.96875,-5.29167 3.59077,-3.77976 -3.77976,-5.85863 3.96875,-5.85863 -3.96875,-7.55952 4.15774,-6.61459 -3.59078,-5.669643 3.40179,-6.425594 -3.59078,-5.669642 3.77977,-5.669642 -3.96875,-5.669643 2.07886,-4.913691 -4.34672,2.456844 -4.15774,-4.724701 -5.10268,4.535715 -4.91369,-4.346729 -5.29167,4.346729 -5.85863,-3.96875 -5.10267,3.590771 -5.291671,-3.590771 -6.425594,3.96875 -4.157739,-4.157739 -5.858632,3.77976 -3.779761,-3.77976 -5.480656,3.96875 -3.401785,-4.15774 -3.590774,4.346729 -3.023809,-4.913691 -4.157739,4.535712 -6.425594,-3.023809 0.188989,4.346726 -5.291666,1.511906 4.535712,6.614583 -4.535712,4.913691 4.157736,7.181548 -4.157736,6.425591 4.346725,6.99256 -3.779763,6.04762 3.212798,7.9375 -3.401785,7.55952 3.779761,5.29167 -3.96875,7.55953 3.96875,8.88244 -3.590774,7.9375 3.401788,6.61458 -3.96875,6.99256 3.96875,5.85863 -3.779764,5.48065 4.157739,4.34673 -0.566965,5.85863 4.15774,-3.2128 3.590771,3.96875 4.346728,-3.40178 3.779761,3.77976 3.96875,-4.91369 4.913691,4.7247 3.401785,-3.77976 5.669642,3.59077 5.291667,-3.96875 5.669642,4.15774 4.157744,-3.96875 3.40178,1.32292 12.85119,-36.85268 3.2128,21.73363 8.50446,-22.1116 6.99256,5.66964 -33.45089,18.14285 11.33929,4.91369 7.55952,-27.78125 4.7247,14.55209 -22.86756,-10.39435 15.68601,17.76488 -16.25297,-1.13393 10.20536,-21.16666"
             id="path4818"
             inkscape:connector-curvature="0" />
        </g>
      </g>
      <path
         style="fill:none;stroke:#000000;stroke-width:1;stroke-linecap:round;stroke-linejoin:round;stroke-miterlimit:4;stroke-dasharray:none;stroke-opacity:1"
         d="m -6.4943748,121.40257 c 0.5345391,0 129.8929948,-7.08264 129.8929948,-7.08264 l 9.22079,2.27179 -11.49259,5.21176 -28.196932,-8.01809 -30.33509,7.88445 -18.842503,-8.01808 -24.72243,8.01808 -13.4971109,-7.88445 -12.4280332,4.40995 9.3544335,3.4745 18.1743276,-7.88445 19.64431,8.01809 21.381561,-8.01809 22.584275,7.88445 27.127862,-7.88445 20.71339,7.75082 -2.2718,-7.61718 -24.18789,7.75081 -26.593317,-7.61718 -28.86511,8.01809 -18.040691,-8.68626 -19.644311,8.15172 -19.2434053,-7.48355 c 0,0 3.7417733,7.34991 4.2763125,7.34991 0.534539,0 17.5061538,-7.34991 17.5061538,-7.34991 l 14.699823,7.75082 21.648832,-8.41899 23.653353,8.15172 29.13238,-7.75082 21.78247,7.48355 6.5481,-7.21628"
         id="path4824"
         inkscape:connector-curvature="0"
         inkscape:export-filename="/home/siqueira/Documents/Repositories/siqueira.tech/images/icons/cv_a2c.png"
         inkscape:export-xdpi="144.75999"
         inkscape:export-ydpi="144.75999" />
      <path
         style="fill:none;stroke:#000000;stroke-width:1;stroke-linecap:round;stroke-linejoin:round;stroke-miterlimit:4;stroke-dasharray:none;stroke-opacity:1"
         d="m 115.38053,140.77962 c 0,0 -5.34539,8.95353 -5.61266,8.41899 -0.26727,-0.53454 -8.95353,-8.41899 -8.95353,-8.41899 l -7.750816,8.28535 -8.285356,-7.88445 -6.548104,7.61718 -6.147199,-7.88445 -5.879928,7.61718 -5.078122,-6.81537 -4.944485,6.94901 -4.944489,-7.34991 -4.944485,7.21627 -6.815373,-7.08264 -4.81085,7.34991 -6.949009,-7.88445 -4.944485,8.15172 -6.681739,-7.88445 -5.211756,7.61718 -6.6817379,-7.34991 -5.4790252,7.21628 -5.2117557,-4.14268 4.543582,-3.60814 6.5481033,7.75082 5.3453906,-7.88445 6.4144679,7.61718 5.345392,-7.61718 6.681737,7.88445 5.479026,-7.75082 6.548104,7.88445 4.276312,-7.88445 6.147197,8.01809 4.810852,-8.01809 5.345391,7.75082 4.409948,-7.61718 7.216277,7.75081 5.34539,-8.15172 7.884451,8.01809 6.681737,-7.61718 7.617187,7.88445 7.75081,-8.01809 6.81538,8.01809 5.87993,-8.28536 4.94448,7.75082 6.28084,-6.94901 -0.26727,7.08264 -5.21176,-7.75081 -6.5481,7.88445 -7.48355,-7.21628 -8.28535,7.34991 -7.750822,-7.34991 -6.414468,7.48355 -8.285356,-7.34991 -5.87993,7.34991 -6.548105,-8.55263 -5.479023,8.15172 -5.078121,-7.21627"
         id="path4826"
         inkscape:connector-curvature="0"
         inkscape:export-filename="/home/siqueira/Documents/Repositories/siqueira.tech/images/icons/cv_a2c.png"
         inkscape:export-xdpi="144.75999"
         inkscape:export-ydpi="144.75999" />
      <path
         style="fill:none;stroke:#000000;stroke-width:1;stroke-linecap:round;stroke-linejoin:round;stroke-miterlimit:4;stroke-dasharray:none;stroke-opacity:1"
         d="m -7.0289138,175.25739 5.3453904,-6.81538 4.1426778,7.34991 8.6862596,-7.61718 5.879929,7.34991 7.884452,-7.21627 6.815373,7.48354 8.418988,-7.48354 7.884451,7.34991 6.949009,-7.34991 7.082642,7.48354 11.225321,-6.949 -19.64431,7.48354 -21.648832,-7.61718 -21.916101,6.81537 -16.7043455,-3.8754 12.0271286,-3.20724 17.7734239,6.54811 24.9897,-6.28084 24.722431,6.68174 -10.557147,-6.5481 -23.386082,7.34991 -21.515198,-7.75082 -19.6443094,7.61718 -4.8108514,-2.53906 2.9399648,-4.81085 18.708867,7.21628 23.118813,-7.08264 7.349911,6.949 13.764382,-7.08264 7.216277,6.54811 1.870887,-6.68174 5.479024,4.14267 c 0,0 -4.276313,4.00905 -4.276313,3.20724 0,-0.80181 -4.409945,-7.48355 -4.409945,-7.48355 l -5.612662,7.21628"
         id="path4828"
         inkscape:connector-curvature="0"
         inkscape:export-filename="/home/siqueira/Documents/Repositories/siqueira.tech/images/icons/cv_a2c.png"
         inkscape:export-xdpi="144.75999"
         inkscape:export-ydpi="144.75999" />
      <path
         style="fill:none;stroke:#000000;stroke-width:1;stroke-linecap:round;stroke-linejoin:round;stroke-miterlimit:4;stroke-dasharray:none;stroke-opacity:1"
         d="m 72.082865,199.71255 -4.944486,3.4745 -10.022607,-7.48355 -11.893494,7.48355 -12.027128,-7.48355 -10.958052,7.75082 -10.289876,-7.88445 -8.4189896,7.75082 -10.1562419,-7.61719 0.4009043,6.81538 6.2808338,-7.08264 9.6217025,7.88445 8.4189899,-7.48355 10.022608,7.08264 10.824416,-7.61718 11.49259,8.15172 11.893492,-7.75082 9.621705,7.21628 c 0,0 0.534537,-7.08264 -0.534541,-6.81537 -1.069078,0.26727 -14.03165,7.21628 -14.03165,7.21628 0,0 -9.888971,-7.88445 -10.958049,-7.61719 -1.069078,0.26727 -12.160764,8.28536 -12.160764,8.28536 l -10.156242,-8.41899 -8.41899,7.48354 -10.0226079,-7.34991 -7.6171809,7.48355 -1.0690782,-7.48355 c 0,0 -4.4099471,3.20724 -3.8754081,3.60814 0.5345391,0.40091 32.8741521,3.87541 32.8741521,3.87541 l 2.138156,-7.48355 11.225321,7.34991 13.49711,-7.21627 9.354433,7.34991"
         id="path4830"
         inkscape:connector-curvature="0"
         inkscape:export-filename="/home/siqueira/Documents/Repositories/siqueira.tech/images/icons/cv_a2c.png"
         inkscape:export-xdpi="144.75999"
         inkscape:export-ydpi="144.75999" />
      <path
         inkscape:export-ydpi="144.75999"
         inkscape:export-xdpi="144.75999"
         inkscape:export-filename="/home/siqueira/Documents/Repositories/siqueira.tech/images/icons/cv_a2c.png"
         inkscape:connector-curvature="0"
         id="path4832"
         d="m 52.099647,35.702239 c 0,0 -2.569913,8.95353 -2.698409,8.41899 -0.128496,-0.53454 -4.304605,-8.41899 -4.304605,-8.41899 l -3.726374,8.28535 -3.983366,-7.88445 -3.148144,7.61718 -2.9554,-7.88445 -2.826904,7.61718 -2.441418,-6.81537 -2.377169,6.94901 -2.377171,-7.34991 -2.377169,7.21627 -3.27664,-7.08264 -2.312921,7.34991 -3.3408877,-7.88445 -2.3771691,8.15172 -3.212392,-7.88445 -2.5056655,7.61718 -3.2123914,-7.34991 -2.634161,7.21628 -2.5056654,-4.14268 2.1844263,-3.60814 3.1481436,7.75082 2.5699133,-7.88445 3.0838955,7.61718 2.569914,-7.61718 3.2123914,7.88445 2.634161,-7.75082 3.148144,7.88445 2.05593,-7.88445 2.9554,8.01809 2.312922,-8.01809 2.569913,7.75082 2.120179,-7.61718 3.469383,7.75081 2.569913,-8.15172 3.790622,8.01809 3.212391,-7.61718 3.662129,7.88445 3.726371,-8.01809 3.276643,8.01809 2.826905,-8.28536 2.377166,7.75082 3.019651,-6.94901 -0.128496,7.08264 -2.505667,-7.75081 -3.148142,7.88445 -3.59788,-7.21628 -3.983363,7.34991 -3.726377,-7.34991 -3.083896,7.48355 -3.983366,-7.34991 -2.826904,7.34991 -3.148145,-8.55263 -2.63416,8.15172 -2.441417,-7.21627"
         style="fill:none;stroke:#000000;stroke-width:1;stroke-linecap:round;stroke-linejoin:round;stroke-miterlimit:4;stroke-dasharray:none;stroke-opacity:1" />
      <path
         inkscape:export-ydpi="144.75999"
         inkscape:export-xdpi="144.75999"
         inkscape:export-filename="/home/siqueira/Documents/Repositories/siqueira.tech/images/icons/cv_a2c.png"
         inkscape:connector-curvature="0"
         id="path4834"
         d="m -6.8060965,81.337094 c 0.11891,0 28.8951435,-7.08264 28.8951435,-7.08264 l 2.051196,2.27179 -2.556566,5.21176 -6.272504,-8.01809 -6.7481454,7.88445 -4.1915796,-8.01808 -5.4995896,8.01808 -3.0024787,-7.88445 -2.7646588,4.40995 2.080926,3.4745 4.04294165,-7.88445 4.36994435,8.01809 4.7564018,-8.01809 5.0239493,7.88445 6.034687,-7.88445 4.607764,7.75082 -0.505369,-7.61718 -5.38068,7.75081 -5.915774,-7.61718 -6.4211435,8.01809 -4.0132138,-8.68626 -4.3699445,8.15172 -4.2807617,-7.48355 c 0,0 0.8323703,7.34991 0.9512804,7.34991 0.11891,0 3.8943041,-7.34991 3.8943041,-7.34991 l 3.2700262,7.75082 4.8158572,-8.41899 5.2617696,8.15172 6.480598,-7.75082 4.845586,7.48355 1.456647,-7.21628"
         style="fill:none;stroke:#000000;stroke-width:1;stroke-linecap:round;stroke-linejoin:round;stroke-miterlimit:4;stroke-dasharray:none;stroke-opacity:1" />
    </g>
    <path
       style="opacity:1;fill:#ffffff;fill-opacity:1;stroke:none;stroke-width:1;stroke-linecap:round;stroke-linejoin:round;stroke-miterlimit:4;stroke-dasharray:none;stroke-dashoffset:0;stroke-opacity:1"
       d="M 38.553572,34.306546 H 171.83175 l 2.79326,135.959464 -54.26896,-2.63633 v 76.45364 H 38.553572 Z"
       id="rect4838"
       inkscape:connector-curvature="0"
       sodipodi:nodetypes="ccccccc"
       inkscape:export-filename="/home/siqueira/Documents/Repositories/siqueira.tech/images/icons/publications.png"
       inkscape:export-xdpi="144.75999"
       inkscape:export-ydpi="144.75999" />
    <g
       id="g4802"
       inkscape:export-filename="/home/siqueira/Documents/Repositories/siqueira.tech/images/icons/publications.png"
       inkscape:export-xdpi="144.75999"
       inkscape:export-ydpi="144.75999"
       transform="translate(29.860119,12.85119)">
      <path
         inkscape:export-ydpi="144.75999"
         inkscape:export-xdpi="144.75999"
         inkscape:export-filename="/home/siqueira/Documents/Repositories/siqueira.tech/images/icons/cv_a2c.png"
         inkscape:connector-curvature="0"
         id="path4772"
         d="m -6.4943748,81.337094 c 0.5345391,0 129.8929948,-7.08264 129.8929948,-7.08264 l 9.22079,2.27179 -11.49259,5.21176 -28.196932,-8.01809 -30.33509,7.88445 -18.842503,-8.01808 -24.72243,8.01808 -13.4971109,-7.88445 -12.4280332,4.40995 9.3544335,3.4745 18.1743276,-7.88445 19.64431,8.01809 21.381561,-8.01809 22.584275,7.88445 27.127862,-7.88445 20.71339,7.75082 -2.2718,-7.61718 -24.18789,7.75081 -26.593317,-7.61718 -28.86511,8.01809 -18.040691,-8.68626 -19.644311,8.15172 -19.2434053,-7.48355 c 0,0 3.7417733,7.34991 4.2763125,7.34991 0.534539,0 17.5061538,-7.34991 17.5061538,-7.34991 l 14.699823,7.75082 21.648832,-8.41899 23.653353,8.15172 29.13238,-7.75082 21.78247,7.48355 6.5481,-7.21628"
         style="fill:none;stroke:#000000;stroke-width:1;stroke-linecap:round;stroke-linejoin:round;stroke-miterlimit:4;stroke-dasharray:none;stroke-opacity:1;filter:url(#filter4782)" />
      <path
         inkscape:export-ydpi="144.75999"
         inkscape:export-xdpi="144.75999"
         inkscape:export-filename="/home/siqueira/Documents/Repositories/siqueira.tech/images/icons/cv_a2c.png"
         inkscape:connector-curvature="0"
         id="path4766"
         d="m 115.38053,35.702239 c 0,0 -5.34539,8.95353 -5.61266,8.41899 -0.26727,-0.53454 -8.95353,-8.41899 -8.95353,-8.41899 l -7.750816,8.28535 -8.285356,-7.88445 -6.548104,7.61718 -6.147199,-7.88445 -5.879928,7.61718 -5.078122,-6.81537 -4.944485,6.94901 -4.944489,-7.34991 -4.944485,7.21627 -6.815373,-7.08264 -4.81085,7.34991 -6.949009,-7.88445 -4.944485,8.15172 -6.681739,-7.88445 -5.211756,7.61718 -6.6817379,-7.34991 -5.4790252,7.21628 -5.2117557,-4.14268 4.543582,-3.60814 6.5481033,7.75082 5.3453906,-7.88445 6.4144679,7.61718 5.345392,-7.61718 6.681737,7.88445 5.479026,-7.75082 6.548104,7.88445 4.276312,-7.88445 6.147197,8.01809 4.810852,-8.01809 5.345391,7.75082 4.409948,-7.61718 7.216277,7.75081 5.34539,-8.15172 7.884451,8.01809 6.681737,-7.61718 7.617187,7.88445 7.75081,-8.01809 6.81538,8.01809 5.87993,-8.28536 4.94448,7.75082 6.28084,-6.94901 -0.26727,7.08264 -5.21176,-7.75081 -6.5481,7.88445 -7.48355,-7.21628 -8.28535,7.34991 -7.750822,-7.34991 -6.414468,7.48355 -8.285356,-7.34991 -5.87993,7.34991 -6.548105,-8.55263 -5.479023,8.15172 -5.078121,-7.21627"
         style="fill:none;stroke:#000000;stroke-width:1;stroke-linecap:round;stroke-linejoin:round;stroke-miterlimit:4;stroke-dasharray:none;stroke-opacity:1;filter:url(#filter4768)" />
      <path
         inkscape:export-ydpi="144.75999"
         inkscape:export-xdpi="144.75999"
         inkscape:export-filename="/home/siqueira/Documents/Repositories/siqueira.tech/images/icons/cv_a2c.png"
         style="fill:none;stroke:#000000;stroke-width:1;stroke-linecap:round;stroke-linejoin:round;stroke-miterlimit:4;stroke-dasharray:none;stroke-opacity:1;filter:url(#filter3946)"
         d="m -6.4943748,121.40257 c 0.5345391,0 129.8929948,-7.08264 129.8929948,-7.08264 l 9.22079,2.27179 -11.49259,5.21176 -28.196932,-8.01809 -30.33509,7.88445 -18.842503,-8.01808 -24.72243,8.01808 -13.4971109,-7.88445 -12.4280332,4.40995 9.3544335,3.4745 18.1743276,-7.88445 19.64431,8.01809 21.381561,-8.01809 22.584275,7.88445 27.127862,-7.88445 20.71339,7.75082 -2.2718,-7.61718 -24.18789,7.75081 -26.593317,-7.61718 -28.86511,8.01809 -18.040691,-8.68626 -19.644311,8.15172 -19.2434053,-7.48355 c 0,0 3.7417733,7.34991 4.2763125,7.34991 0.534539,0 17.5061538,-7.34991 17.5061538,-7.34991 l 14.699823,7.75082 21.648832,-8.41899 23.653353,8.15172 29.13238,-7.75082 21.78247,7.48355 6.5481,-7.21628"
         id="path3898"
         inkscape:connector-curvature="0" />
      <path
         inkscape:export-ydpi="144.75999"
         inkscape:export-xdpi="144.75999"
         inkscape:export-filename="/home/siqueira/Documents/Repositories/siqueira.tech/images/icons/cv_a2c.png"
         style="fill:none;stroke:#000000;stroke-width:1;stroke-linecap:round;stroke-linejoin:round;stroke-miterlimit:4;stroke-dasharray:none;stroke-opacity:1;filter:url(#filter3950)"
         d="m 115.38053,140.77962 c 0,0 -5.34539,8.95353 -5.61266,8.41899 -0.26727,-0.53454 -8.95353,-8.41899 -8.95353,-8.41899 l -7.750816,8.28535 -8.285356,-7.88445 -6.548104,7.61718 -6.147199,-7.88445 -5.879928,7.61718 -5.078122,-6.81537 -4.944485,6.94901 -4.944489,-7.34991 -4.944485,7.21627 -6.815373,-7.08264 -4.81085,7.34991 -6.949009,-7.88445 -4.944485,8.15172 -6.681739,-7.88445 -5.211756,7.61718 -6.6817379,-7.34991 -5.4790252,7.21628 -5.2117557,-4.14268 4.543582,-3.60814 6.5481033,7.75082 5.3453906,-7.88445 6.4144679,7.61718 5.345392,-7.61718 6.681737,7.88445 5.479026,-7.75082 6.548104,7.88445 4.276312,-7.88445 6.147197,8.01809 4.810852,-8.01809 5.345391,7.75082 4.409948,-7.61718 7.216277,7.75081 5.34539,-8.15172 7.884451,8.01809 6.681737,-7.61718 7.617187,7.88445 7.75081,-8.01809 6.81538,8.01809 5.87993,-8.28536 4.94448,7.75082 6.28084,-6.94901 -0.26727,7.08264 -5.21176,-7.75081 -6.5481,7.88445 -7.48355,-7.21628 -8.28535,7.34991 -7.750822,-7.34991 -6.414468,7.48355 -8.285356,-7.34991 -5.87993,7.34991 -6.548105,-8.55263 -5.479023,8.15172 -5.078121,-7.21627"
         id="path3900"
         inkscape:connector-curvature="0" />
      <path
         inkscape:export-ydpi="144.75999"
         inkscape:export-xdpi="144.75999"
         inkscape:export-filename="/home/siqueira/Documents/Repositories/siqueira.tech/images/icons/cv_a2c.png"
         style="fill:none;stroke:#000000;stroke-width:1;stroke-linecap:round;stroke-linejoin:round;stroke-miterlimit:4;stroke-dasharray:none;stroke-opacity:1;filter:url(#filter3954)"
         d="m -7.0289138,175.25739 5.3453904,-6.81538 4.1426778,7.34991 8.6862596,-7.61718 5.879929,7.34991 7.884452,-7.21627 6.815373,7.48354 8.418988,-7.48354 7.884451,7.34991 6.949009,-7.34991 7.082642,7.48354 11.225321,-6.949 -19.64431,7.48354 -21.648832,-7.61718 -21.916101,6.81537 -16.7043455,-3.8754 12.0271286,-3.20724 17.7734239,6.54811 24.9897,-6.28084 24.722431,6.68174 -10.557147,-6.5481 -23.386082,7.34991 -21.515198,-7.75082 -19.6443094,7.61718 -4.8108514,-2.53906 2.9399648,-4.81085 18.708867,7.21628 23.118813,-7.08264 7.349911,6.949 13.764382,-7.08264 7.216277,6.54811 1.870887,-6.68174 5.479024,4.14267 c 0,0 -4.276313,4.00905 -4.276313,3.20724 0,-0.80181 -4.409945,-7.48355 -4.409945,-7.48355 l -5.612662,7.21628"
         id="path3902"
         inkscape:connector-curvature="0" />
      <path
         inkscape:export-ydpi="144.75999"
         inkscape:export-xdpi="144.75999"
         inkscape:export-filename="/home/siqueira/Documents/Repositories/siqueira.tech/images/icons/cv_a2c.png"
         style="fill:none;stroke:#000000;stroke-width:1;stroke-linecap:round;stroke-linejoin:round;stroke-miterlimit:4;stroke-dasharray:none;stroke-opacity:1;filter:url(#filter3958)"
         d="m 72.082865,199.71255 -4.944486,3.4745 -10.022607,-7.48355 -11.893494,7.48355 -12.027128,-7.48355 -10.958052,7.75082 -10.289876,-7.88445 -8.4189896,7.75082 -10.1562419,-7.61719 0.4009043,6.81538 6.2808338,-7.08264 9.6217025,7.88445 8.4189899,-7.48355 10.022608,7.08264 10.824416,-7.61718 11.49259,8.15172 11.893492,-7.75082 9.621705,7.21628 c 0,0 0.534537,-7.08264 -0.534541,-6.81537 -1.069078,0.26727 -14.03165,7.21628 -14.03165,7.21628 0,0 -9.888971,-7.88445 -10.958049,-7.61719 -1.069078,0.26727 -12.160764,8.28536 -12.160764,8.28536 l -10.156242,-8.41899 -8.41899,7.48354 -10.0226079,-7.34991 -7.6171809,7.48355 -1.0690782,-7.48355 c 0,0 -4.4099471,3.20724 -3.8754081,3.60814 0.5345391,0.40091 32.8741521,3.87541 32.8741521,3.87541 l 2.138156,-7.48355 11.225321,7.34991 13.49711,-7.21627 9.354433,7.34991"
         id="path3904"
         inkscape:connector-curvature="0" />
      <g
         inkscape:export-ydpi="144.75999"
         inkscape:export-xdpi="144.75999"
         inkscape:export-filename="/home/siqueira/Documents/Repositories/siqueira.tech/images/icons/cv_a2c.png"
         style="stroke-width:0.56920326"
         transform="matrix(1.7595961,0,0,1.7540915,-106.71738,-107.53106)"
         inkscape:label="Layer 1"
         id="layer1-5">
        <g
           style="stroke-width:0.56920326"
           id="g3081">
          <path
             style="fill:none;stroke:#000000;stroke-width:0.56920326;stroke-linecap:round;stroke-linejoin:round;stroke-miterlimit:4;stroke-dasharray:none;stroke-opacity:1;filter:url(#filter3075)"
             d="m 104.51042,158.09375 26.64732,7.18154 -29.29316,8.31548 9.07143,12.28423 -8.69345,2.45684 v 6.04762 l -6.425596,-3.77976 -5.291667,3.77976 -6.047621,-4.15774 -4.724701,4.15774 -5.102678,-4.34672 -3.96875,4.15773 -3.968749,-3.59077 -3.96875,3.59077 -3.590775,-3.59077 -3.590774,3.77976 -2.267857,-4.7247 -4.913691,-1.32292 3.401788,-5.10268 -3.96875,-5.85863 3.96875,-6.04762 -3.590775,-6.2366 3.779761,-8.12649 -4.157736,-7.74851 3.96875,-7.18155 -3.590775,-8.12649 3.590775,-6.23661 -3.779764,-6.80357 3.96875,-7.74851 -3.779761,-6.99256 3.779761,-5.48065 -3.96875,-8.315477 4.346726,-5.858632 -3.96875,-4.535715 3.590774,-4.724702 -2.267857,-6.614583 6.047621,1.700893 2.834819,-3.590774 3.590775,3.968749 4.724701,-4.346725 3.212798,3.77976 3.779761,-3.77976 3.590774,4.157739 5.480656,-4.157739 3.779761,4.157739 6.236607,-4.157739 6.236608,3.96875 6.425591,-3.96875 4.53572,4.157739 5.66964,-4.157739 5.10268,3.590774 5.48065,-3.590774 4.91369,3.96875 5.29167,-3.212799 4.34673,6.425597 -3.40179,4.346726 3.77976,6.992559 -3.77976,4.346726 3.59078,6.803572 -3.77977,6.803565 3.96875,6.04763 -4.15773,7.18154 4.15773,6.80357 -3.77976,4.15774 3.40179,6.04762 -3.2128,3.59078 3.40179,5.29166 -3.96875,5.48066 3.96875,5.85863 -39.6875,11.1503 15.49702,12.28422 -14.74107,6.23661 3.77976,6.04762 -3.59077,-29.48215 5.48065,-5.85863 25.89137,6.80358 -32.12798,7.74851 20.03274,3.59077 2.26786,-18.89881 3.59077,13.98512 4.7247,-13.60714 4.34673,4.15773 0.75595,-6.04761 3.59078,-4.9137 -3.77976,-5.66964 3.96875,-3.59077 -3.96875,-5.29167 3.59077,-3.77976 -3.77976,-5.85863 3.96875,-5.85863 -3.96875,-7.55952 4.15774,-6.61459 -3.59078,-5.669643 3.40179,-6.425594 -3.59078,-5.669642 3.77977,-5.669642 -3.96875,-5.669643 2.07886,-4.913691 -4.34672,2.456844 -4.15774,-4.724701 -5.10268,4.535715 -4.91369,-4.346729 -5.29167,4.346729 -5.85863,-3.96875 -5.10267,3.590771 -5.291671,-3.590771 -6.425594,3.96875 -4.157739,-4.157739 -5.858632,3.77976 -3.779761,-3.77976 -5.480656,3.96875 -3.401785,-4.15774 -3.590774,4.346729 -3.023809,-4.913691 -4.157739,4.535712 -6.425594,-3.023809 0.188989,4.346726 -5.291666,1.511906 4.535712,6.614583 -4.535712,4.913691 4.157736,7.181548 -4.157736,6.425591 4.346725,6.99256 -3.779763,6.04762 3.212798,7.9375 -3.401785,7.55952 3.779761,5.29167 -3.96875,7.55953 3.96875,8.88244 -3.590774,7.9375 3.401788,6.61458 -3.96875,6.99256 3.96875,5.85863 -3.779764,5.48065 4.157739,4.34673 -0.566965,5.85863 4.15774,-3.2128 3.590771,3.96875 4.346728,-3.40178 3.779761,3.77976 3.96875,-4.91369 4.913691,4.7247 3.401785,-3.77976 5.669642,3.59077 5.291667,-3.96875 5.669642,4.15774 4.157744,-3.96875 3.40178,1.32292 12.85119,-36.85268 3.2128,21.73363 8.50446,-22.1116 6.99256,5.66964 -33.45089,18.14285 11.33929,4.91369 7.55952,-27.78125 4.7247,14.55209 -22.86756,-10.39435 15.68601,17.76488 -16.25297,-1.13393 10.20536,-21.16666"
             id="path3073"
             inkscape:connector-curvature="0" />
          <path
             inkscape:connector-curvature="0"
             id="path3071"
             d="m 104.51042,158.09375 26.64732,7.18154 -29.29316,8.31548 9.07143,12.28423 -8.69345,2.45684 v 6.04762 l -6.425596,-3.77976 -5.291667,3.77976 -6.047621,-4.15774 -4.724701,4.15774 -5.102678,-4.34672 -3.96875,4.15773 -3.968749,-3.59077 -3.96875,3.59077 -3.590775,-3.59077 -3.590774,3.77976 -2.267857,-4.7247 -4.913691,-1.32292 3.401788,-5.10268 -3.96875,-5.85863 3.96875,-6.04762 -3.590775,-6.2366 3.779761,-8.12649 -4.157736,-7.74851 3.96875,-7.18155 -3.590775,-8.12649 3.590775,-6.23661 -3.779764,-6.80357 3.96875,-7.74851 -3.779761,-6.99256 3.779761,-5.48065 -3.96875,-8.315477 4.346726,-5.858632 -3.96875,-4.535715 3.590774,-4.724702 -2.267857,-6.614583 6.047621,1.700893 2.834819,-3.590774 3.590775,3.968749 4.724701,-4.346725 3.212798,3.77976 3.779761,-3.77976 3.590774,4.157739 5.480656,-4.157739 3.779761,4.157739 6.236607,-4.157739 6.236608,3.96875 6.425591,-3.96875 4.53572,4.157739 5.66964,-4.157739 5.10268,3.590774 5.48065,-3.590774 4.91369,3.96875 5.29167,-3.212799 4.34673,6.425597 -3.40179,4.346726 3.77976,6.992559 -3.77976,4.346726 3.59078,6.803572 -3.77977,6.803565 3.96875,6.04763 -4.15773,7.18154 4.15773,6.80357 -3.77976,4.15774 3.40179,6.04762 -3.2128,3.59078 3.40179,5.29166 -3.96875,5.48066 3.96875,5.85863 -39.6875,11.1503 15.49702,12.28422 -14.74107,6.23661 3.77976,6.04762 -3.59077,-29.48215 5.48065,-5.85863 25.89137,6.80358 -32.12798,7.74851 20.03274,3.59077 2.26786,-18.89881 3.59077,13.98512 4.7247,-13.60714 4.34673,4.15773 0.75595,-6.04761 3.59078,-4.9137 -3.77976,-5.66964 3.96875,-3.59077 -3.96875,-5.29167 3.59077,-3.77976 -3.77976,-5.85863 3.96875,-5.85863 -3.96875,-7.55952 4.15774,-6.61459 -3.59078,-5.669643 3.40179,-6.425594 -3.59078,-5.669642 3.77977,-5.669642 -3.96875,-5.669643 2.07886,-4.913691 -4.34672,2.456844 -4.15774,-4.724701 -5.10268,4.535715 -4.91369,-4.346729 -5.29167,4.346729 -5.85863,-3.96875 -5.10267,3.590771 -5.291671,-3.590771 -6.425594,3.96875 -4.157739,-4.157739 -5.858632,3.77976 -3.779761,-3.77976 -5.480656,3.96875 -3.401785,-4.15774 -3.590774,4.346729 -3.023809,-4.913691 -4.157739,4.535712 -6.425594,-3.023809 0.188989,4.346726 -5.291666,1.511906 4.535712,6.614583 -4.535712,4.913691 4.157736,7.181548 -4.157736,6.425591 4.346725,6.99256 -3.779763,6.04762 3.212798,7.9375 -3.401785,7.55952 3.779761,5.29167 -3.96875,7.55953 3.96875,8.88244 -3.590774,7.9375 3.401788,6.61458 -3.96875,6.99256 3.96875,5.85863 -3.779764,5.48065 4.157739,4.34673 -0.566965,5.85863 4.15774,-3.2128 3.590771,3.96875 4.346728,-3.40178 3.779761,3.77976 3.96875,-4.91369 4.913691,4.7247 3.401785,-3.77976 5.669642,3.59077 5.291667,-3.96875 5.669642,4.15774 4.157744,-3.96875 3.40178,1.32292 12.85119,-36.85268 3.2128,21.73363 8.50446,-22.1116 6.99256,5.66964 -33.45089,18.14285 11.33929,4.91369 7.55952,-27.78125 4.7247,14.55209 -22.86756,-10.39435 15.68601,17.76488 -16.25297,-1.13393 10.20536,-21.16666"
             style="fill:none;stroke:#000000;stroke-width:0.56920326;stroke-linecap:round;stroke-linejoin:round;stroke-miterlimit:4;stroke-dasharray:none;stroke-opacity:1" />
        </g>
      </g>
      <path
         inkscape:export-ydpi="144.75999"
         inkscape:export-xdpi="144.75999"
         inkscape:export-filename="/home/siqueira/Documents/Repositories/siqueira.tech/images/icons/cv_a2c.png"
         inkscape:connector-curvature="0"
         id="path3884"
         d="m -6.4943748,121.40257 c 0.5345391,0 129.8929948,-7.08264 129.8929948,-7.08264 l 9.22079,2.27179 -11.49259,5.21176 -28.196932,-8.01809 -30.33509,7.88445 -18.842503,-8.01808 -24.72243,8.01808 -13.4971109,-7.88445 -12.4280332,4.40995 9.3544335,3.4745 18.1743276,-7.88445 19.64431,8.01809 21.381561,-8.01809 22.584275,7.88445 27.127862,-7.88445 20.71339,7.75082 -2.2718,-7.61718 -24.18789,7.75081 -26.593317,-7.61718 -28.86511,8.01809 -18.040691,-8.68626 -19.644311,8.15172 -19.2434053,-7.48355 c 0,0 3.7417733,7.34991 4.2763125,7.34991 0.534539,0 17.5061538,-7.34991 17.5061538,-7.34991 l 14.699823,7.75082 21.648832,-8.41899 23.653353,8.15172 29.13238,-7.75082 21.78247,7.48355 6.5481,-7.21628"
         style="fill:none;stroke:#000000;stroke-width:1;stroke-linecap:round;stroke-linejoin:round;stroke-miterlimit:4;stroke-dasharray:none;stroke-opacity:1" />
      <path
         inkscape:export-ydpi="144.75999"
         inkscape:export-xdpi="144.75999"
         inkscape:export-filename="/home/siqueira/Documents/Repositories/siqueira.tech/images/icons/cv_a2c.png"
         inkscape:connector-curvature="0"
         id="path3886"
         d="m 115.38053,140.77962 c 0,0 -5.34539,8.95353 -5.61266,8.41899 -0.26727,-0.53454 -8.95353,-8.41899 -8.95353,-8.41899 l -7.750816,8.28535 -8.285356,-7.88445 -6.548104,7.61718 -6.147199,-7.88445 -5.879928,7.61718 -5.078122,-6.81537 -4.944485,6.94901 -4.944489,-7.34991 -4.944485,7.21627 -6.815373,-7.08264 -4.81085,7.34991 -6.949009,-7.88445 -4.944485,8.15172 -6.681739,-7.88445 -5.211756,7.61718 -6.6817379,-7.34991 -5.4790252,7.21628 -5.2117557,-4.14268 4.543582,-3.60814 6.5481033,7.75082 5.3453906,-7.88445 6.4144679,7.61718 5.345392,-7.61718 6.681737,7.88445 5.479026,-7.75082 6.548104,7.88445 4.276312,-7.88445 6.147197,8.01809 4.810852,-8.01809 5.345391,7.75082 4.409948,-7.61718 7.216277,7.75081 5.34539,-8.15172 7.884451,8.01809 6.681737,-7.61718 7.617187,7.88445 7.75081,-8.01809 6.81538,8.01809 5.87993,-8.28536 4.94448,7.75082 6.28084,-6.94901 -0.26727,7.08264 -5.21176,-7.75081 -6.5481,7.88445 -7.48355,-7.21628 -8.28535,7.34991 -7.750822,-7.34991 -6.414468,7.48355 -8.285356,-7.34991 -5.87993,7.34991 -6.548105,-8.55263 -5.479023,8.15172 -5.078121,-7.21627"
         style="fill:none;stroke:#000000;stroke-width:1;stroke-linecap:round;stroke-linejoin:round;stroke-miterlimit:4;stroke-dasharray:none;stroke-opacity:1" />
      <path
         inkscape:export-ydpi="144.75999"
         inkscape:export-xdpi="144.75999"
         inkscape:export-filename="/home/siqueira/Documents/Repositories/siqueira.tech/images/icons/cv_a2c.png"
         inkscape:connector-curvature="0"
         id="path3888"
         d="m -7.0289138,175.25739 5.3453904,-6.81538 4.1426778,7.34991 8.6862596,-7.61718 5.879929,7.34991 7.884452,-7.21627 6.815373,7.48354 8.418988,-7.48354 7.884451,7.34991 6.949009,-7.34991 7.082642,7.48354 11.225321,-6.949 -19.64431,7.48354 -21.648832,-7.61718 -21.916101,6.81537 -16.7043455,-3.8754 12.0271286,-3.20724 17.7734239,6.54811 24.9897,-6.28084 24.722431,6.68174 -10.557147,-6.5481 -23.386082,7.34991 -21.515198,-7.75082 -19.6443094,7.61718 -4.8108514,-2.53906 2.9399648,-4.81085 18.708867,7.21628 23.118813,-7.08264 7.349911,6.949 13.764382,-7.08264 7.216277,6.54811 1.870887,-6.68174 5.479024,4.14267 c 0,0 -4.276313,4.00905 -4.276313,3.20724 0,-0.80181 -4.409945,-7.48355 -4.409945,-7.48355 l -5.612662,7.21628"
         style="fill:none;stroke:#000000;stroke-width:1;stroke-linecap:round;stroke-linejoin:round;stroke-miterlimit:4;stroke-dasharray:none;stroke-opacity:1" />
      <path
         inkscape:export-ydpi="144.75999"
         inkscape:export-xdpi="144.75999"
         inkscape:export-filename="/home/siqueira/Documents/Repositories/siqueira.tech/images/icons/cv_a2c.png"
         inkscape:connector-curvature="0"
         id="path3890"
         d="m 72.082865,199.71255 -4.944486,3.4745 -10.022607,-7.48355 -11.893494,7.48355 -12.027128,-7.48355 -10.958052,7.75082 -10.289876,-7.88445 -8.4189896,7.75082 -10.1562419,-7.61719 0.4009043,6.81538 6.2808338,-7.08264 9.6217025,7.88445 8.4189899,-7.48355 10.022608,7.08264 10.824416,-7.61718 11.49259,8.15172 11.893492,-7.75082 9.621705,7.21628 c 0,0 0.534537,-7.08264 -0.534541,-6.81537 -1.069078,0.26727 -14.03165,7.21628 -14.03165,7.21628 0,0 -9.888971,-7.88445 -10.958049,-7.61719 -1.069078,0.26727 -12.160764,8.28536 -12.160764,8.28536 l -10.156242,-8.41899 -8.41899,7.48354 -10.0226079,-7.34991 -7.6171809,7.48355 -1.0690782,-7.48355 c 0,0 -4.4099471,3.20724 -3.8754081,3.60814 0.5345391,0.40091 32.8741521,3.87541 32.8741521,3.87541 l 2.138156,-7.48355 11.225321,7.34991 13.49711,-7.21627 9.354433,7.34991"
         style="fill:none;stroke:#000000;stroke-width:1;stroke-linecap:round;stroke-linejoin:round;stroke-miterlimit:4;stroke-dasharray:none;stroke-opacity:1" />
      <path
         style="fill:none;stroke:#000000;stroke-width:1;stroke-linecap:round;stroke-linejoin:round;stroke-miterlimit:4;stroke-dasharray:none;stroke-opacity:1"
         d="m 115.38053,35.702239 c 0,0 -5.34539,8.95353 -5.61266,8.41899 -0.26727,-0.53454 -8.95353,-8.41899 -8.95353,-8.41899 l -7.750816,8.28535 -8.285356,-7.88445 -6.548104,7.61718 -6.147199,-7.88445 -5.879928,7.61718 -5.078122,-6.81537 -4.944485,6.94901 -4.944489,-7.34991 -4.944485,7.21627 -6.815373,-7.08264 -4.81085,7.34991 -6.949009,-7.88445 -4.944485,8.15172 -6.681739,-7.88445 -5.211756,7.61718 -6.6817379,-7.34991 -5.4790252,7.21628 -5.2117557,-4.14268 4.543582,-3.60814 6.5481033,7.75082 5.3453906,-7.88445 6.4144679,7.61718 5.345392,-7.61718 6.681737,7.88445 5.479026,-7.75082 6.548104,7.88445 4.276312,-7.88445 6.147197,8.01809 4.810852,-8.01809 5.345391,7.75082 4.409948,-7.61718 7.216277,7.75081 5.34539,-8.15172 7.884451,8.01809 6.681737,-7.61718 7.617187,7.88445 7.75081,-8.01809 6.81538,8.01809 5.87993,-8.28536 4.94448,7.75082 6.28084,-6.94901 -0.26727,7.08264 -5.21176,-7.75081 -6.5481,7.88445 -7.48355,-7.21628 -8.28535,7.34991 -7.750822,-7.34991 -6.414468,7.48355 -8.285356,-7.34991 -5.87993,7.34991 -6.548105,-8.55263 -5.479023,8.15172 -5.078121,-7.21627"
         id="path4762"
         inkscape:connector-curvature="0"
         inkscape:export-filename="/home/siqueira/Documents/Repositories/siqueira.tech/images/icons/cv_a2c.png"
         inkscape:export-xdpi="144.75999"
         inkscape:export-ydpi="144.75999" />
      <path
         style="fill:none;stroke:#000000;stroke-width:1;stroke-linecap:round;stroke-linejoin:round;stroke-miterlimit:4;stroke-dasharray:none;stroke-opacity:1"
         d="m -6.4943748,81.337094 c 0.5345391,0 129.8929948,-7.08264 129.8929948,-7.08264 l 9.22079,2.27179 -11.49259,5.21176 -28.196932,-8.01809 -30.33509,7.88445 -18.842503,-8.01808 -24.72243,8.01808 -13.4971109,-7.88445 -12.4280332,4.40995 9.3544335,3.4745 18.1743276,-7.88445 19.64431,8.01809 21.381561,-8.01809 22.584275,7.88445 27.127862,-7.88445 20.71339,7.75082 -2.2718,-7.61718 -24.18789,7.75081 -26.593317,-7.61718 -28.86511,8.01809 -18.040691,-8.68626 -19.644311,8.15172 -19.2434053,-7.48355 c 0,0 3.7417733,7.34991 4.2763125,7.34991 0.534539,0 17.5061538,-7.34991 17.5061538,-7.34991 l 14.699823,7.75082 21.648832,-8.41899 23.653353,8.15172 29.13238,-7.75082 21.78247,7.48355 6.5481,-7.21628"
         id="path4764"
         inkscape:connector-curvature="0"
         inkscape:export-filename="/home/siqueira/Documents/Repositories/siqueira.tech/images/icons/cv_a2c.png"
         inkscape:export-xdpi="144.75999"
         inkscape:export-ydpi="144.75999" />
    </g>
  </g>
</svg>
