<?xml version="1.0" encoding="UTF-8" standalone="no"?>
<!-- Created with Inkscape (http://www.inkscape.org/) -->

<svg
   xmlns:dc="http://purl.org/dc/elements/1.1/"
   xmlns:cc="http://creativecommons.org/ns#"
   xmlns:rdf="http://www.w3.org/1999/02/22-rdf-syntax-ns#"
   xmlns:svg="http://www.w3.org/2000/svg"
   xmlns="http://www.w3.org/2000/svg"
   xmlns:sodipodi="http://sodipodi.sourceforge.net/DTD/sodipodi-0.dtd"
   xmlns:inkscape="http://www.inkscape.org/namespaces/inkscape"
   width="210mm"
   height="297mm"
   viewBox="0 0 210 297"
   version="1.1"
   id="svg8"
   inkscape:version="0.92.2 2405546, 2018-03-11"
   sodipodi:docname="tasks.svg">
  <defs
     id="defs2">
    <filter
       height="1.0208393"
       y="-0.010419643"
       width="1.0282909"
       x="-0.014145455"
       id="filter3075"
       style="color-interpolation-filters:sRGB"
       inkscape:collect="always">
      <feGaussianBlur
         id="feGaussianBlur3077"
         stdDeviation="0.55137275"
         inkscape:collect="always" />
    </filter>
    <filter
       inkscape:collect="always"
       style="color-interpolation-filters:sRGB"
       id="filter1030"
       x="-0.048605538"
       width="1.0972111"
       y="-0.048334589"
       height="1.0966692">
      <feGaussianBlur
         inkscape:collect="always"
         stdDeviation="0.51192162"
         id="feGaussianBlur1032" />
    </filter>
    <filter
       inkscape:collect="always"
       style="color-interpolation-filters:sRGB"
       id="filter1034"
       x="-0.048334582"
       width="1.0966692"
       y="-0.048696638"
       height="1.0973933">
      <feGaussianBlur
         inkscape:collect="always"
         stdDeviation="0.51192162"
         id="feGaussianBlur1036" />
    </filter>
    <filter
       inkscape:collect="always"
       style="color-interpolation-filters:sRGB"
       id="filter1038"
       x="-0.029684941"
       width="1.0593699"
       y="-0.024167292"
       height="1.0483346">
      <feGaussianBlur
         inkscape:collect="always"
         stdDeviation="0.51192162"
         id="feGaussianBlur1040" />
    </filter>
    <filter
       inkscape:collect="always"
       style="color-interpolation-filters:sRGB"
       id="filter1042"
       x="-0.040822621"
       width="1.0816452"
       y="-0.22417254"
       height="1.4483451">
      <feGaussianBlur
         inkscape:collect="always"
         stdDeviation="0.51192162"
         id="feGaussianBlur1044" />
    </filter>
    <filter
       inkscape:collect="always"
       style="color-interpolation-filters:sRGB"
       id="filter1046"
       x="-0.032303108"
       width="1.0646062"
       y="-0.22225641"
       height="1.4445128">
      <feGaussianBlur
         inkscape:collect="always"
         stdDeviation="0.51192162"
         id="feGaussianBlur1048" />
    </filter>
    <filter
       inkscape:collect="always"
       style="color-interpolation-filters:sRGB"
       id="filter1050"
       x="-0.040822608"
       width="1.0816452"
       y="-0.21490914"
       height="1.4298183">
      <feGaussianBlur
         inkscape:collect="always"
         stdDeviation="0.51192162"
         id="feGaussianBlur1052" />
    </filter>
    <filter
       inkscape:collect="always"
       style="color-interpolation-filters:sRGB"
       id="filter1054"
       x="-0.032709445"
       width="1.0654189"
       y="-0.21670016"
       height="1.4334003">
      <feGaussianBlur
         inkscape:collect="always"
         stdDeviation="0.51192162"
         id="feGaussianBlur1056" />
    </filter>
  </defs>
  <sodipodi:namedview
     id="base"
     pagecolor="#ffffff"
     bordercolor="#666666"
     borderopacity="1.0"
     inkscape:pageopacity="0.0"
     inkscape:pageshadow="2"
     inkscape:zoom="0.12374369"
     inkscape:cx="-2216.6499"
     inkscape:cy="1007.6388"
     inkscape:document-units="mm"
     inkscape:current-layer="layer1"
     showgrid="false"
     inkscape:window-width="1920"
     inkscape:window-height="1039"
     inkscape:window-x="0"
     inkscape:window-y="0"
     inkscape:window-maximized="1"
     inkscape:object-nodes="false" />
  <metadata
     id="metadata5">
    <rdf:RDF>
      <cc:Work
         rdf:about="">
        <dc:format>image/svg+xml</dc:format>
        <dc:type
           rdf:resource="http://purl.org/dc/dcmitype/StillImage" />
        <dc:title />
      </cc:Work>
    </rdf:RDF>
  </metadata>
  <g
     inkscape:label="Layer 1"
     inkscape:groupmode="layer"
     id="layer1">
    <g
       id="layer1-6"
       inkscape:label="Layer 1"
       transform="matrix(-1.1275361,0,0,-1.1152924,210.59945,288.0831)"
       style="stroke-width:0.89174443"
       inkscape:export-filename="/home/siqueira/Documents/Repositories/siqueira.tech/images/icons/tasks_a2c.png"
       inkscape:export-xdpi="144.75999"
       inkscape:export-ydpi="144.75999">
      <g
         id="g3081"
         style="stroke-width:0.89174443">
        <path
           inkscape:connector-curvature="0"
           id="path3073"
           d="m 104.51042,158.09375 26.64732,7.18154 -29.29316,8.31548 9.07143,12.28423 -8.69345,2.45684 v 6.04762 l -6.425596,-3.77976 -5.291667,3.77976 -6.047621,-4.15774 -4.724701,4.15774 -5.102678,-4.34672 -3.96875,4.15773 -3.968749,-3.59077 -3.96875,3.59077 -3.590775,-3.59077 -3.590774,3.77976 -2.267857,-4.7247 -4.913691,-1.32292 3.401788,-5.10268 -3.96875,-5.85863 3.96875,-6.04762 -3.590775,-6.2366 3.779761,-8.12649 -4.157736,-7.74851 3.96875,-7.18155 -3.590775,-8.12649 3.590775,-6.23661 -3.779764,-6.80357 3.96875,-7.74851 -3.779761,-6.99256 3.779761,-5.48065 -3.96875,-8.315477 4.346726,-5.858632 -3.96875,-4.535715 3.590774,-4.724702 -2.267857,-6.614583 6.047621,1.700893 2.834819,-3.590774 3.590775,3.968749 4.724701,-4.346725 3.212798,3.77976 3.779761,-3.77976 3.590774,4.157739 5.480656,-4.157739 3.779761,4.157739 6.236607,-4.157739 6.236608,3.96875 6.425591,-3.96875 4.53572,4.157739 5.66964,-4.157739 5.10268,3.590774 5.48065,-3.590774 4.91369,3.96875 5.29167,-3.212799 4.34673,6.425597 -3.40179,4.346726 3.77976,6.992559 -3.77976,4.346726 3.59078,6.803572 -3.77977,6.803565 3.96875,6.04763 -4.15773,7.18154 4.15773,6.80357 -3.77976,4.15774 3.40179,6.04762 -3.2128,3.59078 3.40179,5.29166 -3.96875,5.48066 3.96875,5.85863 -39.6875,11.1503 15.49702,12.28422 -14.74107,6.23661 3.77976,6.04762 -3.59077,-29.48215 5.48065,-5.85863 25.89137,6.80358 -32.12798,7.74851 20.03274,3.59077 2.26786,-18.89881 3.59077,13.98512 4.7247,-13.60714 4.34673,4.15773 0.75595,-6.04761 3.59078,-4.9137 -3.77976,-5.66964 3.96875,-3.59077 -3.96875,-5.29167 3.59077,-3.77976 -3.77976,-5.85863 3.96875,-5.85863 -3.96875,-7.55952 4.15774,-6.61459 -3.59078,-5.669643 3.40179,-6.425594 -3.59078,-5.669642 3.77977,-5.669642 -3.96875,-5.669643 2.07886,-4.913691 -4.34672,2.456844 -4.15774,-4.724701 -5.10268,4.535715 -4.91369,-4.346729 -5.29167,4.346729 -5.85863,-3.96875 -5.10267,3.590771 -5.291671,-3.590771 -6.425594,3.96875 -4.157739,-4.157739 -5.858632,3.77976 -3.779761,-3.77976 -5.480656,3.96875 -3.401785,-4.15774 -3.590774,4.346729 -3.023809,-4.913691 -4.157739,4.535712 -6.425594,-3.023809 0.188989,4.346726 -5.291666,1.511906 4.535712,6.614583 -4.535712,4.913691 4.157736,7.181548 -4.157736,6.425591 4.346725,6.99256 -3.779763,6.04762 3.212798,7.9375 -3.401785,7.55952 3.779761,5.29167 -3.96875,7.55953 3.96875,8.88244 -3.590774,7.9375 3.401788,6.61458 -3.96875,6.99256 3.96875,5.85863 -3.779764,5.48065 4.157739,4.34673 -0.566965,5.85863 4.15774,-3.2128 3.590771,3.96875 4.346728,-3.40178 3.779761,3.77976 3.96875,-4.91369 4.913691,4.7247 3.401785,-3.77976 5.669642,3.59077 5.291667,-3.96875 5.669642,4.15774 4.157744,-3.96875 3.40178,1.32292 12.85119,-36.85268 3.2128,21.73363 8.50446,-22.1116 6.99256,5.66964 -33.45089,18.14285 11.33929,4.91369 7.55952,-27.78125 4.7247,14.55209 -22.86756,-10.39435 15.68601,17.76488 -16.25297,-1.13393 10.20536,-21.16666"
           style="fill:none;stroke:#000000;stroke-width:0.89174443;stroke-linecap:round;stroke-linejoin:round;stroke-miterlimit:4;stroke-dasharray:none;stroke-opacity:1;filter:url(#filter3075)" />
        <path
           style="fill:none;stroke:#000000;stroke-width:0.89174443;stroke-linecap:round;stroke-linejoin:round;stroke-miterlimit:4;stroke-dasharray:none;stroke-opacity:1"
           d="m 104.51042,158.09375 26.64732,7.18154 -29.29316,8.31548 9.07143,12.28423 -8.69345,2.45684 v 6.04762 l -6.425596,-3.77976 -5.291667,3.77976 -6.047621,-4.15774 -4.724701,4.15774 -5.102678,-4.34672 -3.96875,4.15773 -3.968749,-3.59077 -3.96875,3.59077 -3.590775,-3.59077 -3.590774,3.77976 -2.267857,-4.7247 -4.913691,-1.32292 3.401788,-5.10268 -3.96875,-5.85863 3.96875,-6.04762 -3.590775,-6.2366 3.779761,-8.12649 -4.157736,-7.74851 3.96875,-7.18155 -3.590775,-8.12649 3.590775,-6.23661 -3.779764,-6.80357 3.96875,-7.74851 -3.779761,-6.99256 3.779761,-5.48065 -3.96875,-8.315477 4.346726,-5.858632 -3.96875,-4.535715 3.590774,-4.724702 -2.267857,-6.614583 6.047621,1.700893 2.834819,-3.590774 3.590775,3.968749 4.724701,-4.346725 3.212798,3.77976 3.779761,-3.77976 3.590774,4.157739 5.480656,-4.157739 3.779761,4.157739 6.236607,-4.157739 6.236608,3.96875 6.425591,-3.96875 4.53572,4.157739 5.66964,-4.157739 5.10268,3.590774 5.48065,-3.590774 4.91369,3.96875 5.29167,-3.212799 4.34673,6.425597 -3.40179,4.346726 3.77976,6.992559 -3.77976,4.346726 3.59078,6.803572 -3.77977,6.803565 3.96875,6.04763 -4.15773,7.18154 4.15773,6.80357 -3.77976,4.15774 3.40179,6.04762 -3.2128,3.59078 3.40179,5.29166 -3.96875,5.48066 3.96875,5.85863 -39.6875,11.1503 15.49702,12.28422 -14.74107,6.23661 3.77976,6.04762 -3.59077,-29.48215 5.48065,-5.85863 25.89137,6.80358 -32.12798,7.74851 20.03274,3.59077 2.26786,-18.89881 3.59077,13.98512 4.7247,-13.60714 4.34673,4.15773 0.75595,-6.04761 3.59078,-4.9137 -3.77976,-5.66964 3.96875,-3.59077 -3.96875,-5.29167 3.59077,-3.77976 -3.77976,-5.85863 3.96875,-5.85863 -3.96875,-7.55952 4.15774,-6.61459 -3.59078,-5.669643 3.40179,-6.425594 -3.59078,-5.669642 3.77977,-5.669642 -3.96875,-5.669643 2.07886,-4.913691 -4.34672,2.456844 -4.15774,-4.724701 -5.10268,4.535715 -4.91369,-4.346729 -5.29167,4.346729 -5.85863,-3.96875 -5.10267,3.590771 -5.291671,-3.590771 -6.425594,3.96875 -4.157739,-4.157739 -5.858632,3.77976 -3.779761,-3.77976 -5.480656,3.96875 -3.401785,-4.15774 -3.590774,4.346729 -3.023809,-4.913691 -4.157739,4.535712 -6.425594,-3.023809 0.188989,4.346726 -5.291666,1.511906 4.535712,6.614583 -4.535712,4.913691 4.157736,7.181548 -4.157736,6.425591 4.346725,6.99256 -3.779763,6.04762 3.212798,7.9375 -3.401785,7.55952 3.779761,5.29167 -3.96875,7.55953 3.96875,8.88244 -3.590774,7.9375 3.401788,6.61458 -3.96875,6.99256 3.96875,5.85863 -3.779764,5.48065 4.157739,4.34673 -0.566965,5.85863 4.15774,-3.2128 3.590771,3.96875 4.346728,-3.40178 3.779761,3.77976 3.96875,-4.91369 4.913691,4.7247 3.401785,-3.77976 5.669642,3.59077 5.291667,-3.96875 5.669642,4.15774 4.157744,-3.96875 3.40178,1.32292 12.85119,-36.85268 3.2128,21.73363 8.50446,-22.1116 6.99256,5.66964 -33.45089,18.14285 11.33929,4.91369 7.55952,-27.78125 4.7247,14.55209 -22.86756,-10.39435 15.68601,17.76488 -16.25297,-1.13393 10.20536,-21.16666"
           id="path3071"
           inkscape:connector-curvature="0" />
      </g>
    </g>
    <path
       inkscape:connector-curvature="0"
       id="path1016"
       d="m 78.351846,134.6897 3.16555,-12.47321 0.42523,8.26823 -5.33892,1.88988 2.88207,1.08668 -1.55915,0.75595 1.03943,0.14174 -1.46465,-0.75595 2.78757,-1.13393 -4.58296,-1.22842 8.7407,-3.16555 2.45684,-3.82701 0.47247,3.35454 3.63803,1.03943 -3.87426,16.53646 -6.94531,-3.40179 -1.27567,5.57515 -0.8032,-5.14992 -1.37017,4.77195 -0.37797,-5.71689 -5.05543,2.74032 2.78757,-5.95312 -6.4256,0.42522 3.07106,-5.10268 -2.69308,-2.64583 3.35454,0.0945 -1.13393,-4.29948 10.48884,5.43341 -3.07105,-9.5439 -4.8192,7.70127 -4.15774,-1.08669 2.12612,3.02381 -2.55134,8.032 6.52009,-0.85045 -0.56697,6.80357 3.26005,-3.82701 3.87425,5.19718 1.7009,-9.6384 9.30766,-0.85044 -5.38616,-3.73252 5.19717,-1.13393 -3.2128,-1.55915 0.85045,-3.44903 -3.87426,0.33073 -1.88988,-4.39398 -8.69345,7.84301 -1.03944,-7.46503 8.50447,6.14211 -11.24479,-4.44122 -4.34673,9.44941 5.38616,1.65364 -2.55134,6.61459 5.5279,-2.17337 -0.0472,6.04762 3.54353,-4.34672 5.29166,4.25223 0.14174,-10.48884 6.80357,4.016 -9.92187,0.18898 1.41741,6.75633 2.88207,-12.37872 6.80357,-0.56696 -4.20498,-2.31511 3.40178,-1.08668 -3.35454,-5.19717 -15.54427,-0.99219 -5.43341,12.47321 10.3471,10.29986 7.89026,-1.27567 6.37834,-7.51228 -4.20498,-6.14212 1.74814,10.72508 -8.97694,-1.70089 -0.47247,6.28385 -7.41778,-2.36235 -1.03944,-10.3471 -4.11049,-2.97656 12.61496,-9.35491 9.07143,3.73251 -0.56697,2.64584 3.68527,4.06324 -1.88988,8.83519 -8.59896,-2.64583 -1.18117,8.22098 -2.22061,-5.14992"
       style="fill:none;stroke:#000000;stroke-width:1;stroke-linecap:round;stroke-linejoin:round;stroke-miterlimit:4;stroke-dasharray:none;stroke-opacity:1;filter:url(#filter1030)"
       inkscape:export-filename="/home/siqueira/Documents/Repositories/siqueira.tech/images/icons/tasks_a2c.png"
       inkscape:export-xdpi="144.75999"
       inkscape:export-ydpi="144.75999" />
    <path
       inkscape:connector-curvature="0"
       id="path1018"
       d="m 78.446346,170.64469 -4.8192,-10.86682 -6.23661,9.59115 8.97694,7.9375 3.21279,6.18936 12.00075,-7.84301 -2.55134,-9.73288 0.0472,-3.87426 -15.02456,-2.36236 -5.05543,4.44123 -1.13393,10.58333 4.72471,6.4256 9.16592,2.17336 8.45721,-5.19717 2.45685,-7.2288 -3.59077,-4.96093 1.6064,-1.55916 -2.4096,0.14175 -0.14174,-3.35455 -2.03163,2.17337 -1.65364,-4.39398 -0.56697,5.66965 -8.22098,2.74033 4.25223,1.60639 -2.2206,0.85045 1.18117,0.47247 -0.85045,0.14174 1.46466,-0.8032 -2.64583,-0.66146 4.48847,-1.65364 -9.73289,-6.00038 1.22842,4.9137 -4.7247,-0.14174 2.69308,2.03162 -3.54353,2.07887 5.24442,1.74814 2.64584,10.58333 11.0558,-0.66146 -0.42522,-11.38653 6.47284,2.97656 -9.21317,0.42523 4.96094,6.89806 -7.74852,-3.16555 -2.36235,5.6224 -3.1183,-8.31548 -7.41778,-2.74033 3.40178,-2.74032 -3.02381,-2.26786 9.96913,-8.74071 7.41778,5.14993 2.22061,-2.97656 -12.14249,6.09487 5.19718,-8.40998 1.98437,7.74852 -5.71689,2.50409 5.85863,-9.96912 9.40216,8.31548 -2.83482,12.6622 -7.46503,-3.82701 2.55134,6.94531 0.42522,-10.81957 7.79576,0.51972 -4.8192,-3.63802 4.67746,0.23623 -5.71689,0.85045 1.79539,10.01637 -17.29242,0.0945 2.83483,-6.09486 -5.14993,3.1183 2.55134,-6.56734 -4.016,0.61422 3.96875,-3.82701 -1.08668,-4.86645 10.3471,6.14212 -1.32292,-10.01638 6.85082,1.41742 4.016,3.63802 -3.02381,17.95387 -12.80395,0.66146 -4.44121,-3.44903 2.03162,-7.60678 -4.25224,2.36236 3.11831,-4.58297"
       style="fill:none;stroke:#000000;stroke-width:1;stroke-linecap:round;stroke-linejoin:round;stroke-miterlimit:4;stroke-dasharray:none;stroke-opacity:1;filter:url(#filter1034)"
       inkscape:export-filename="/home/siqueira/Documents/Repositories/siqueira.tech/images/icons/tasks_a2c.png"
       inkscape:export-xdpi="144.75999"
       inkscape:export-ydpi="144.75999" />
    <path
       inkscape:connector-curvature="0"
       id="path1020"
       d="m 149.22239,163.27415 -0.47247,17.85938 32.41145,24.00149 -3.1183,6.3311 -27.11979,-13.60715 15.96949,-33.07291 10.77232,20.31622 -18.04836,24.75744 2.07887,1.5119 16.53646,-21.54464 -18.80431,-18.04836 3.49627,-9.44941 2.83482,49.04241 5.38616,-43.84524 1.32292,43.84524 3.59077,-38.93154 -25.70237,19.65476 28.91517,9.4494 -18.8988,10.01637 18.33184,-15.68601 -29.00967,-8.22098 27.49776,-8.12649 -30.42708,-1.41741 5.38616,-10.67783 -9.5439,-3.2128 -1.32291,4.7247 14.64657,4.25224 -6.89806,12.09524 15.30803,25.98586 15.78051,-7.46503 -29.19866,-8.50447 26.36384,-13.60714 -18.04836,-18.99331 1.88988,-1.98437 -0.85045,14.83557 9.63839,35.90774 12.7567,-3.77977 -0.0945,3.77977 -1.03944,-5.29167 -22.96205,1.32292 -0.66146,-30.80506 -14.36309,-3.77977 2.74032,-10.67783 8.12649,8.50447 -1.70089,30.42709 26.08035,-2.64584 -22.48958,6.99256 12.94569,-39.12053 7.55952,10.11086 -0.56697,34.8683 -32.03348,-48.56994 0.85045,13.22917 33.45089,17.57589 -23.8125,10.29985 2.07887,-29.00967 -9.07143,4.7247 3.40179,-14.64658 -8.78795,5.95313 1.13393,-7.84301"
       style="fill:none;stroke:#000000;stroke-width:1;stroke-linecap:butt;stroke-linejoin:miter;stroke-miterlimit:4;stroke-dasharray:none;stroke-opacity:1;filter:url(#filter1038)"
       inkscape:export-filename="/home/siqueira/Documents/Repositories/siqueira.tech/images/icons/tasks_a2c.png"
       inkscape:export-xdpi="144.75999"
       inkscape:export-ydpi="144.75999" />
    <path
       inkscape:connector-curvature="0"
       id="path1022"
       d="m 134.85929,132.3746 -7.27604,4.96093 -5.6224,-5.14992 -5.14992,5.38616 -4.7247,-5.48066 -4.06325,4.9137 -1.65364,-2.4096 2.36235,-2.4096 3.96875,5.33891 4.67746,-5.38616 5.5279,5.38616 4.81919,-5.29167 4.34673,5.24442 3.82701,-1.27567 0.51971,-2.22061 -4.20498,-1.88988 -2.55134,5.05544 -4.67745,-4.72471 -4.39398,4.96094 -0.7087,-5.10268 -4.58297,5.14993 -4.86644,-5.33892 -3.44903,4.29948 7.79576,-4.06324 4.25223,5.19717 11.00856,-5.19717 6.42559,2.97656 -11.15029,1.98438 -18.52084,-3.77977 6.61459,-1.32291 -3.40179,5.29166 5.85863,-5.19717 10.67783,4.96094"
       style="fill:none;stroke:#000000;stroke-width:1;stroke-linecap:round;stroke-linejoin:round;stroke-miterlimit:4;stroke-dasharray:none;stroke-opacity:1;filter:url(#filter1042)"
       inkscape:export-filename="/home/siqueira/Documents/Repositories/siqueira.tech/images/icons/tasks_a2c.png"
       inkscape:export-xdpi="144.75999"
       inkscape:export-ydpi="144.75999" />
    <path
       inkscape:connector-curvature="0"
       id="path1024"
       d="m 135.19002,150.5647 -35.05729,4.8192 -1.653654,-3.02381 2.126124,-2.36235 12.6622,5.4334 13.5599,-5.38616 9.68564,2.88207 -2.12612,2.4096 -19.37128,-5.00819 -16.300224,3.92151 6.614584,-4.11049 16.06399,5.33891 9.68564,-5.29167 4.96094,1.41741 -7.70127,3.87426 -6.99255,-5.29167 -12.47322,5.19718 -10.016374,-4.34673 3.874264,4.39397 8.22098,-5.14992 6.75632,5.19717 6.04762,-5.14993 7.32329,5.05544 4.7247,-4.25224 0.18899,3.02381 -3.40178,1.27567 -7.65402,-5.10268 -5.29167,5.10268 -6.37835,-5.10268 -6.89806,5.19718 -6.661834,-5.19718 25.985864,5.19718 7.60677,-5.24442 2.97656,1.98437"
       style="fill:none;stroke:#000000;stroke-width:1;stroke-linecap:round;stroke-linejoin:round;stroke-miterlimit:4;stroke-dasharray:none;stroke-opacity:1;filter:url(#filter1046)"
       inkscape:export-filename="/home/siqueira/Documents/Repositories/siqueira.tech/images/icons/tasks_a2c.png"
       inkscape:export-xdpi="144.75999"
       inkscape:export-ydpi="144.75999" />
    <path
       inkscape:connector-curvature="0"
       id="path1026"
       d="m 134.81204,168.51857 -9.16592,4.77195 -17.81212,-4.86644 -1.55916,2.4096 1.74814,2.26785 4.39398,-4.91369 3.96875,5.14993 6.70907,-5.14993 5.90588,5.10268 6.94531,-4.06324 0.42523,1.46465 -2.12612,2.59859 -4.8192,-5.00818 -6.14211,5.38616 -5.38616,-5.5279 -4.91369,5.14992 -6.23661,-3.96875 3.2128,-1.18117 0.14174,5.14992 4.77195,-5.05543 4.91369,5.00818 5.76414,-5.14992 6.23661,5.14992 4.53571,-3.21279 -4.29948,-1.7009 -4.8192,5.00819 -7.22879,-5.19717 -5.38616,5.14992 -7.79576,-1.27567 2.50409,-4.06324 2.17337,5.24442"
       style="fill:none;stroke:#000000;stroke-width:1;stroke-linecap:round;stroke-linejoin:round;stroke-miterlimit:4;stroke-dasharray:none;stroke-opacity:1;filter:url(#filter1050)"
       inkscape:export-filename="/home/siqueira/Documents/Repositories/siqueira.tech/images/icons/tasks_a2c.png"
       inkscape:export-xdpi="144.75999"
       inkscape:export-ydpi="144.75999" />
    <path
       inkscape:connector-curvature="0"
       id="path1028"
       d="m 135.14277,186.47244 -3.1183,5.05543 -2.88207,-5.19717 -3.02381,5.00818 -2.55134,-5.00818 -2.40959,5.00818 -2.69308,-5.05543 -2.26786,5.19717 -3.16555,-5.14992 -2.88207,4.91369 -2.78758,-4.8192 -2.97656,4.96094 -2.64583,-5.24442 -3.023814,3.40179 1.937134,1.70089 3.59077,-5.14993 3.30729,5.05544 3.07106,-5.10268 2.92932,5.4334 2.74032,-5.33891 2.69308,4.86645 2.55134,-4.67746 2.69308,5.05543 2.5041,-5.14992 3.49627,5.48065 1.55916,-5.38616 2.78757,4.91369 1.70089,-1.98437 -2.3151,-2.97657 -5.6224,5.14993 -3.16555,-5.19717 -2.59858,4.96093 -2.55134,-4.91369 -2.31511,4.96094 -2.83482,-5.05543 -2.92931,5.24442 -3.11831,-5.14993 -2.74033,4.86645 -6.04761,-4.67746 -1.275674,1.18118 3.779764,3.59077 3.30729,-4.96094 3.26005,4.96094 2.92931,-4.86644"
       style="fill:none;stroke:#000000;stroke-width:1;stroke-linecap:round;stroke-linejoin:round;stroke-miterlimit:4;stroke-dasharray:none;stroke-opacity:1;filter:url(#filter1054)"
       inkscape:export-filename="/home/siqueira/Documents/Repositories/siqueira.tech/images/icons/tasks_a2c.png"
       inkscape:export-xdpi="144.75999"
       inkscape:export-ydpi="144.75999" />
    <path
       style="fill:none;stroke:#000000;stroke-width:1;stroke-linecap:round;stroke-linejoin:round;stroke-miterlimit:4;stroke-dasharray:none;stroke-opacity:1"
       d="m 78.351846,134.6897 3.16555,-12.47321 0.42523,8.26823 -5.33892,1.88988 2.88207,1.08668 -1.55915,0.75595 1.03943,0.14174 -1.46465,-0.75595 2.78757,-1.13393 -4.58296,-1.22842 8.7407,-3.16555 2.45684,-3.82701 0.47247,3.35454 3.63803,1.03943 -3.87426,16.53646 -6.94531,-3.40179 -1.27567,5.57515 -0.8032,-5.14992 -1.37017,4.77195 -0.37797,-5.71689 -5.05543,2.74032 2.78757,-5.95312 -6.4256,0.42522 3.07106,-5.10268 -2.69308,-2.64583 3.35454,0.0945 -1.13393,-4.29948 10.48884,5.43341 -3.07105,-9.5439 -4.8192,7.70127 -4.15774,-1.08669 2.12612,3.02381 -2.55134,8.032 6.52009,-0.85045 -0.56697,6.80357 3.26005,-3.82701 3.87425,5.19718 1.7009,-9.6384 9.30766,-0.85044 -5.38616,-3.73252 5.19717,-1.13393 -3.2128,-1.55915 0.85045,-3.44903 -3.87426,0.33073 -1.88988,-4.39398 -8.69345,7.84301 -1.03944,-7.46503 8.50447,6.14211 -11.24479,-4.44122 -4.34673,9.44941 5.38616,1.65364 -2.55134,6.61459 5.5279,-2.17337 -0.0472,6.04762 3.54353,-4.34672 5.29166,4.25223 0.14174,-10.48884 6.80357,4.016 -9.92187,0.18898 1.41741,6.75633 2.88207,-12.37872 6.80357,-0.56696 -4.20498,-2.31511 3.40178,-1.08668 -3.35454,-5.19717 -15.54427,-0.99219 -5.43341,12.47321 10.3471,10.29986 7.89026,-1.27567 6.37834,-7.51228 -4.20498,-6.14212 1.74814,10.72508 -8.97694,-1.70089 -0.47247,6.28385 -7.41778,-2.36235 -1.03944,-10.3471 -4.11049,-2.97656 12.61496,-9.35491 9.07143,3.73251 -0.56697,2.64584 3.68527,4.06324 -1.88988,8.83519 -8.59896,-2.64583 -1.18117,8.22098 -2.22061,-5.14992"
       id="path909"
       inkscape:connector-curvature="0"
       inkscape:export-filename="/home/siqueira/Documents/Repositories/siqueira.tech/images/icons/tasks_a2c.png"
       inkscape:export-xdpi="144.75999"
       inkscape:export-ydpi="144.75999" />
    <path
       style="fill:none;stroke:#000000;stroke-width:1;stroke-linecap:round;stroke-linejoin:round;stroke-miterlimit:4;stroke-dasharray:none;stroke-opacity:1"
       d="m 78.446346,170.64469 -4.8192,-10.86682 -6.23661,9.59115 8.97694,7.9375 3.21279,6.18936 12.00075,-7.84301 -2.55134,-9.73288 0.0472,-3.87426 -15.02456,-2.36236 -5.05543,4.44123 -1.13393,10.58333 4.72471,6.4256 9.16592,2.17336 8.45721,-5.19717 2.45685,-7.2288 -3.59077,-4.96093 1.6064,-1.55916 -2.4096,0.14175 -0.14174,-3.35455 -2.03163,2.17337 -1.65364,-4.39398 -0.56697,5.66965 -8.22098,2.74033 4.25223,1.60639 -2.2206,0.85045 1.18117,0.47247 -0.85045,0.14174 1.46466,-0.8032 -2.64583,-0.66146 4.48847,-1.65364 -9.73289,-6.00038 1.22842,4.9137 -4.7247,-0.14174 2.69308,2.03162 -3.54353,2.07887 5.24442,1.74814 2.64584,10.58333 11.0558,-0.66146 -0.42522,-11.38653 6.47284,2.97656 -9.21317,0.42523 4.96094,6.89806 -7.74852,-3.16555 -2.36235,5.6224 -3.1183,-8.31548 -7.41778,-2.74033 3.40178,-2.74032 -3.02381,-2.26786 9.96913,-8.74071 7.41778,5.14993 2.22061,-2.97656 -12.14249,6.09487 5.19718,-8.40998 1.98437,7.74852 -5.71689,2.50409 5.85863,-9.96912 9.40216,8.31548 -2.83482,12.6622 -7.46503,-3.82701 2.55134,6.94531 0.42522,-10.81957 7.79576,0.51972 -4.8192,-3.63802 4.67746,0.23623 -5.71689,0.85045 1.79539,10.01637 -17.29242,0.0945 2.83483,-6.09486 -5.14993,3.1183 2.55134,-6.56734 -4.016,0.61422 3.96875,-3.82701 -1.08668,-4.86645 10.3471,6.14212 -1.32292,-10.01638 6.85082,1.41742 4.016,3.63802 -3.02381,17.95387 -12.80395,0.66146 -4.44121,-3.44903 2.03162,-7.60678 -4.25224,2.36236 3.11831,-4.58297"
       id="path911"
       inkscape:connector-curvature="0"
       inkscape:export-filename="/home/siqueira/Documents/Repositories/siqueira.tech/images/icons/tasks_a2c.png"
       inkscape:export-xdpi="144.75999"
       inkscape:export-ydpi="144.75999" />
    <path
       style="fill:none;stroke:#000000;stroke-width:1;stroke-linecap:butt;stroke-linejoin:miter;stroke-miterlimit:4;stroke-dasharray:none;stroke-opacity:1"
       d="m 149.22239,163.27415 -0.47247,17.85938 32.41145,24.00149 -3.1183,6.3311 -27.11979,-13.60715 15.96949,-33.07291 10.77232,20.31622 -18.04836,24.75744 2.07887,1.5119 16.53646,-21.54464 -18.80431,-18.04836 3.49627,-9.44941 2.83482,49.04241 5.38616,-43.84524 1.32292,43.84524 3.59077,-38.93154 -25.70237,19.65476 28.91517,9.4494 -18.8988,10.01637 18.33184,-15.68601 -29.00967,-8.22098 27.49776,-8.12649 -30.42708,-1.41741 5.38616,-10.67783 -9.5439,-3.2128 -1.32291,4.7247 14.64657,4.25224 -6.89806,12.09524 15.30803,25.98586 15.78051,-7.46503 -29.19866,-8.50447 26.36384,-13.60714 -18.04836,-18.99331 1.88988,-1.98437 -0.85045,14.83557 9.63839,35.90774 12.7567,-3.77977 -0.0945,3.77977 -1.03944,-5.29167 -22.96205,1.32292 -0.66146,-30.80506 -14.36309,-3.77977 2.74032,-10.67783 8.12649,8.50447 -1.70089,30.42709 26.08035,-2.64584 -22.48958,6.99256 12.94569,-39.12053 7.55952,10.11086 -0.56697,34.8683 -32.03348,-48.56994 0.85045,13.22917 33.45089,17.57589 -23.8125,10.29985 2.07887,-29.00967 -9.07143,4.7247 3.40179,-14.64658 -8.78795,5.95313 1.13393,-7.84301"
       id="path913"
       inkscape:connector-curvature="0"
       inkscape:export-filename="/home/siqueira/Documents/Repositories/siqueira.tech/images/icons/tasks_a2c.png"
       inkscape:export-xdpi="144.75999"
       inkscape:export-ydpi="144.75999" />
    <path
       style="fill:none;stroke:#000000;stroke-width:1;stroke-linecap:round;stroke-linejoin:round;stroke-miterlimit:4;stroke-dasharray:none;stroke-opacity:1"
       d="m 134.85929,132.3746 -7.27604,4.96093 -5.6224,-5.14992 -5.14992,5.38616 -4.7247,-5.48066 -4.06325,4.9137 -1.65364,-2.4096 2.36235,-2.4096 3.96875,5.33891 4.67746,-5.38616 5.5279,5.38616 4.81919,-5.29167 4.34673,5.24442 3.82701,-1.27567 0.51971,-2.22061 -4.20498,-1.88988 -2.55134,5.05544 -4.67745,-4.72471 -4.39398,4.96094 -0.7087,-5.10268 -4.58297,5.14993 -4.86644,-5.33892 -3.44903,4.29948 7.79576,-4.06324 4.25223,5.19717 11.00856,-5.19717 6.42559,2.97656 -11.15029,1.98438 -18.52084,-3.77977 6.61459,-1.32291 -3.40179,5.29166 5.85863,-5.19717 10.67783,4.96094"
       id="path915"
       inkscape:connector-curvature="0"
       inkscape:export-filename="/home/siqueira/Documents/Repositories/siqueira.tech/images/icons/tasks_a2c.png"
       inkscape:export-xdpi="144.75999"
       inkscape:export-ydpi="144.75999" />
    <path
       style="fill:none;stroke:#000000;stroke-width:1;stroke-linecap:round;stroke-linejoin:round;stroke-miterlimit:4;stroke-dasharray:none;stroke-opacity:1"
       d="m 135.19002,150.5647 -35.05729,4.8192 -1.653654,-3.02381 2.126124,-2.36235 12.6622,5.4334 13.5599,-5.38616 9.68564,2.88207 -2.12612,2.4096 -19.37128,-5.00819 -16.300224,3.92151 6.614584,-4.11049 16.06399,5.33891 9.68564,-5.29167 4.96094,1.41741 -7.70127,3.87426 -6.99255,-5.29167 -12.47322,5.19718 -10.016374,-4.34673 3.874264,4.39397 8.22098,-5.14992 6.75632,5.19717 6.04762,-5.14993 7.32329,5.05544 4.7247,-4.25224 0.18899,3.02381 -3.40178,1.27567 -7.65402,-5.10268 -5.29167,5.10268 -6.37835,-5.10268 -6.89806,5.19718 -6.661834,-5.19718 25.985864,5.19718 7.60677,-5.24442 2.97656,1.98437"
       id="path917"
       inkscape:connector-curvature="0"
       inkscape:export-filename="/home/siqueira/Documents/Repositories/siqueira.tech/images/icons/tasks_a2c.png"
       inkscape:export-xdpi="144.75999"
       inkscape:export-ydpi="144.75999" />
    <path
       style="fill:none;stroke:#000000;stroke-width:1;stroke-linecap:round;stroke-linejoin:round;stroke-miterlimit:4;stroke-dasharray:none;stroke-opacity:1"
       d="m 134.81204,168.51857 -9.16592,4.77195 -17.81212,-4.86644 -1.55916,2.4096 1.74814,2.26785 4.39398,-4.91369 3.96875,5.14993 6.70907,-5.14993 5.90588,5.10268 6.94531,-4.06324 0.42523,1.46465 -2.12612,2.59859 -4.8192,-5.00818 -6.14211,5.38616 -5.38616,-5.5279 -4.91369,5.14992 -6.23661,-3.96875 3.2128,-1.18117 0.14174,5.14992 4.77195,-5.05543 4.91369,5.00818 5.76414,-5.14992 6.23661,5.14992 4.53571,-3.21279 -4.29948,-1.7009 -4.8192,5.00819 -7.22879,-5.19717 -5.38616,5.14992 -7.79576,-1.27567 2.50409,-4.06324 2.17337,5.24442"
       id="path919"
       inkscape:connector-curvature="0"
       inkscape:export-filename="/home/siqueira/Documents/Repositories/siqueira.tech/images/icons/tasks_a2c.png"
       inkscape:export-xdpi="144.75999"
       inkscape:export-ydpi="144.75999" />
    <path
       style="fill:none;stroke:#000000;stroke-width:1;stroke-linecap:round;stroke-linejoin:round;stroke-miterlimit:4;stroke-dasharray:none;stroke-opacity:1"
       d="m 135.14277,186.47244 -3.1183,5.05543 -2.88207,-5.19717 -3.02381,5.00818 -2.55134,-5.00818 -2.40959,5.00818 -2.69308,-5.05543 -2.26786,5.19717 -3.16555,-5.14992 -2.88207,4.91369 -2.78758,-4.8192 -2.97656,4.96094 -2.64583,-5.24442 -3.023814,3.40179 1.937134,1.70089 3.59077,-5.14993 3.30729,5.05544 3.07106,-5.10268 2.92932,5.4334 2.74032,-5.33891 2.69308,4.86645 2.55134,-4.67746 2.69308,5.05543 2.5041,-5.14992 3.49627,5.48065 1.55916,-5.38616 2.78757,4.91369 1.70089,-1.98437 -2.3151,-2.97657 -5.6224,5.14993 -3.16555,-5.19717 -2.59858,4.96093 -2.55134,-4.91369 -2.31511,4.96094 -2.83482,-5.05543 -2.92931,5.24442 -3.11831,-5.14993 -2.74033,4.86645 -6.04761,-4.67746 -1.275674,1.18118 3.779764,3.59077 3.30729,-4.96094 3.26005,4.96094 2.92931,-4.86644"
       id="path921"
       inkscape:connector-curvature="0"
       inkscape:export-filename="/home/siqueira/Documents/Repositories/siqueira.tech/images/icons/tasks_a2c.png"
       inkscape:export-xdpi="144.75999"
       inkscape:export-ydpi="144.75999" />
  </g>
</svg>
