<?xml version="1.0" encoding="UTF-8" standalone="no"?>
<!-- Created with Inkscape (http://www.inkscape.org/) -->

<svg
   xmlns:dc="http://purl.org/dc/elements/1.1/"
   xmlns:cc="http://creativecommons.org/ns#"
   xmlns:rdf="http://www.w3.org/1999/02/22-rdf-syntax-ns#"
   xmlns:svg="http://www.w3.org/2000/svg"
   xmlns="http://www.w3.org/2000/svg"
   xmlns:sodipodi="http://sodipodi.sourceforge.net/DTD/sodipodi-0.dtd"
   xmlns:inkscape="http://www.inkscape.org/namespaces/inkscape"
   width="210mm"
   height="297mm"
   viewBox="0 0 210 297"
   version="1.1"
   id="svg8"
   inkscape:version="0.92.2 2405546, 2018-03-11"
   sodipodi:docname="tasks.svg">
  <defs
     id="defs2">
    <filter
       height="1.0208393"
       y="-0.010419643"
       width="1.0282909"
       x="-0.014145455"
       id="filter3075"
       style="color-interpolation-filters:sRGB"
       inkscape:collect="always">
      <feGaussianBlur
         id="feGaussianBlur3077"
         stdDeviation="0.55137275"
         inkscape:collect="always" />
    </filter>
    <filter
       inkscape:collect="always"
       style="color-interpolation-filters:sRGB"
       id="filter1030"
       x="-0.048605538"
       width="1.0972111"
       y="-0.048334589"
       height="1.0966692">
      <feGaussianBlur
         inkscape:collect="always"
         stdDeviation="0.51192162"
         id="feGaussianBlur1032" />
    </filter>
    <filter
       inkscape:collect="always"
       style="color-interpolation-filters:sRGB"
       id="filter1034"
       x="-0.048334582"
       width="1.0966692"
       y="-0.048696638"
       height="1.0973933">
      <feGaussianBlur
         inkscape:collect="always"
         stdDeviation="0.51192162"
         id="feGaussianBlur1036" />
    </filter>
    <filter
       inkscape:collect="always"
       style="color-interpolation-filters:sRGB"
       id="filter1038"
       x="-0.029684941"
       width="1.0593699"
       y="-0.024167292"
       height="1.0483346">
      <feGaussianBlur
         inkscape:collect="always"
         stdDeviation="0.51192162"
         id="feGaussianBlur1040" />
    </filter>
    <filter
       inkscape:collect="always"
       style="color-interpolation-filters:sRGB"
       id="filter1042"
       x="-0.040822621"
       width="1.0816452"
       y="-0.22417254"
       height="1.4483451">
      <feGaussianBlur
         inkscape:collect="always"
         stdDeviation="0.51192162"
         id="feGaussianBlur1044" />
    </filter>
    <filter
       inkscape:collect="always"
       style="color-interpolation-filters:sRGB"
       id="filter1046"
       x="-0.032303108"
       width="1.0646062"
       y="-0.22225641"
       height="1.4445128">
      <feGaussianBlur
         inkscape:collect="always"
         stdDeviation="0.51192162"
         id="feGaussianBlur1048" />
    </filter>
    <filter
       inkscape:collect="always"
       style="color-interpolation-filters:sRGB"
       id="filter1050"
       x="-0.040822608"
       width="1.0816452"
       y="-0.21490914"
       height="1.4298183">
      <feGaussianBlur
         inkscape:collect="always"
         stdDeviation="0.51192162"
         id="feGaussianBlur1052" />
    </filter>
    <filter
       inkscape:collect="always"
       style="color-interpolation-filters:sRGB"
       id="filter1054"
       x="-0.032709445"
       width="1.0654189"
       y="-0.21670016"
       height="1.4334003">
      <feGaussianBlur
         inkscape:collect="always"
         stdDeviation="0.51192162"
         id="feGaussianBlur1056" />
    </filter>
  </defs>
  <sodipodi:namedview
     id="base"
     pagecolor="#ffffff"
     bordercolor="#666666"
     borderopacity="1.0"
     inkscape:pageopacity="0.0"
     inkscape:pageshadow="2"
     inkscape:zoom="0.98994949"
     inkscape:cx="-402.06152"
     inkscape:cy="796.28756"
     inkscape:document-units="mm"
     inkscape:current-layer="layer1"
     showgrid="false"
     inkscape:window-width="1920"
     inkscape:window-height="1039"
     inkscape:window-x="0"
     inkscape:window-y="0"
     inkscape:window-maximized="1"
     inkscape:object-nodes="false" />
  <metadata
     id="metadata5">
    <rdf:RDF>
      <cc:Work
         rdf:about="">
        <dc:format>image/svg+xml</dc:format>
        <dc:type
           rdf:resource="http://purl.org/dc/dcmitype/StillImage" />
        <dc:title></dc:title>
      </cc:Work>
    </rdf:RDF>
  </metadata>
  <g
     inkscape:label="Layer 1"
     inkscape:groupmode="layer"
     id="layer1">
    <g
       id="layer1-6"
       inkscape:label="Layer 1"
       transform="matrix(-1.1275361,0,0,-1.1152924,-52.393769,223.93841)"
       style="stroke-width:0.89174443"
       inkscape:export-filename="/home/siqueira/Documents/Repositories/siqueira.tech/images/icons/tasks_a2c.png"
       inkscape:export-xdpi="144.75999"
       inkscape:export-ydpi="144.75999">
      <g
         id="g3081"
         style="stroke-width:0.89174443">
        <path
           inkscape:connector-curvature="0"
           id="path3073"
           d="m 104.51042,158.09375 26.64732,7.18154 -29.29316,8.31548 9.07143,12.28423 -8.69345,2.45684 v 6.04762 l -6.425596,-3.77976 -5.291667,3.77976 -6.047621,-4.15774 -4.724701,4.15774 -5.102678,-4.34672 -3.96875,4.15773 -3.968749,-3.59077 -3.96875,3.59077 -3.590775,-3.59077 -3.590774,3.77976 -2.267857,-4.7247 -4.913691,-1.32292 3.401788,-5.10268 -3.96875,-5.85863 3.96875,-6.04762 -3.590775,-6.2366 3.779761,-8.12649 -4.157736,-7.74851 3.96875,-7.18155 -3.590775,-8.12649 3.590775,-6.23661 -3.779764,-6.80357 3.96875,-7.74851 -3.779761,-6.99256 3.779761,-5.48065 -3.96875,-8.315477 4.346726,-5.858632 -3.96875,-4.535715 3.590774,-4.724702 -2.267857,-6.614583 6.047621,1.700893 2.834819,-3.590774 3.590775,3.968749 4.724701,-4.346725 3.212798,3.77976 3.779761,-3.77976 3.590774,4.157739 5.480656,-4.157739 3.779761,4.157739 6.236607,-4.157739 6.236608,3.96875 6.425591,-3.96875 4.53572,4.157739 5.66964,-4.157739 5.10268,3.590774 5.48065,-3.590774 4.91369,3.96875 5.29167,-3.212799 4.34673,6.425597 -3.40179,4.346726 3.77976,6.992559 -3.77976,4.346726 3.59078,6.803572 -3.77977,6.803565 3.96875,6.04763 -4.15773,7.18154 4.15773,6.80357 -3.77976,4.15774 3.40179,6.04762 -3.2128,3.59078 3.40179,5.29166 -3.96875,5.48066 3.96875,5.85863 -39.6875,11.1503 15.49702,12.28422 -14.74107,6.23661 3.77976,6.04762 -3.59077,-29.48215 5.48065,-5.85863 25.89137,6.80358 -32.12798,7.74851 20.03274,3.59077 2.26786,-18.89881 3.59077,13.98512 4.7247,-13.60714 4.34673,4.15773 0.75595,-6.04761 3.59078,-4.9137 -3.77976,-5.66964 3.96875,-3.59077 -3.96875,-5.29167 3.59077,-3.77976 -3.77976,-5.85863 3.96875,-5.85863 -3.96875,-7.55952 4.15774,-6.61459 -3.59078,-5.669643 3.40179,-6.425594 -3.59078,-5.669642 3.77977,-5.669642 -3.96875,-5.669643 2.07886,-4.913691 -4.34672,2.456844 -4.15774,-4.724701 -5.10268,4.535715 -4.91369,-4.346729 -5.29167,4.346729 -5.85863,-3.96875 -5.10267,3.590771 -5.291671,-3.590771 -6.425594,3.96875 -4.157739,-4.157739 -5.858632,3.77976 -3.779761,-3.77976 -5.480656,3.96875 -3.401785,-4.15774 -3.590774,4.346729 -3.023809,-4.913691 -4.157739,4.535712 -6.425594,-3.023809 0.188989,4.346726 -5.291666,1.511906 4.535712,6.614583 -4.535712,4.913691 4.157736,7.181548 -4.157736,6.425591 4.346725,6.99256 -3.779763,6.04762 3.212798,7.9375 -3.401785,7.55952 3.779761,5.29167 -3.96875,7.55953 3.96875,8.88244 -3.590774,7.9375 3.401788,6.61458 -3.96875,6.99256 3.96875,5.85863 -3.779764,5.48065 4.157739,4.34673 -0.566965,5.85863 4.15774,-3.2128 3.590771,3.96875 4.346728,-3.40178 3.779761,3.77976 3.96875,-4.91369 4.913691,4.7247 3.401785,-3.77976 5.669642,3.59077 5.291667,-3.96875 5.669642,4.15774 4.157744,-3.96875 3.40178,1.32292 12.85119,-36.85268 3.2128,21.73363 8.50446,-22.1116 6.99256,5.66964 -33.45089,18.14285 11.33929,4.91369 7.55952,-27.78125 4.7247,14.55209 -22.86756,-10.39435 15.68601,17.76488 -16.25297,-1.13393 10.20536,-21.16666"
           style="fill:none;stroke:#000000;stroke-width:0.89174443;stroke-linecap:round;stroke-linejoin:round;stroke-miterlimit:4;stroke-dasharray:none;stroke-opacity:1;filter:url(#filter3075)" />
        <path
           style="fill:none;stroke:#000000;stroke-width:0.89174443;stroke-linecap:round;stroke-linejoin:round;stroke-miterlimit:4;stroke-dasharray:none;stroke-opacity:1"
           d="m 104.51042,158.09375 26.64732,7.18154 -29.29316,8.31548 9.07143,12.28423 -8.69345,2.45684 v 6.04762 l -6.425596,-3.77976 -5.291667,3.77976 -6.047621,-4.15774 -4.724701,4.15774 -5.102678,-4.34672 -3.96875,4.15773 -3.968749,-3.59077 -3.96875,3.59077 -3.590775,-3.59077 -3.590774,3.77976 -2.267857,-4.7247 -4.913691,-1.32292 3.401788,-5.10268 -3.96875,-5.85863 3.96875,-6.04762 -3.590775,-6.2366 3.779761,-8.12649 -4.157736,-7.74851 3.96875,-7.18155 -3.590775,-8.12649 3.590775,-6.23661 -3.779764,-6.80357 3.96875,-7.74851 -3.779761,-6.99256 3.779761,-5.48065 -3.96875,-8.315477 4.346726,-5.858632 -3.96875,-4.535715 3.590774,-4.724702 -2.267857,-6.614583 6.047621,1.700893 2.834819,-3.590774 3.590775,3.968749 4.724701,-4.346725 3.212798,3.77976 3.779761,-3.77976 3.590774,4.157739 5.480656,-4.157739 3.779761,4.157739 6.236607,-4.157739 6.236608,3.96875 6.425591,-3.96875 4.53572,4.157739 5.66964,-4.157739 5.10268,3.590774 5.48065,-3.590774 4.91369,3.96875 5.29167,-3.212799 4.34673,6.425597 -3.40179,4.346726 3.77976,6.992559 -3.77976,4.346726 3.59078,6.803572 -3.77977,6.803565 3.96875,6.04763 -4.15773,7.18154 4.15773,6.80357 -3.77976,4.15774 3.40179,6.04762 -3.2128,3.59078 3.40179,5.29166 -3.96875,5.48066 3.96875,5.85863 -39.6875,11.1503 15.49702,12.28422 -14.74107,6.23661 3.77976,6.04762 -3.59077,-29.48215 5.48065,-5.85863 25.89137,6.80358 -32.12798,7.74851 20.03274,3.59077 2.26786,-18.89881 3.59077,13.98512 4.7247,-13.60714 4.34673,4.15773 0.75595,-6.04761 3.59078,-4.9137 -3.77976,-5.66964 3.96875,-3.59077 -3.96875,-5.29167 3.59077,-3.77976 -3.77976,-5.85863 3.96875,-5.85863 -3.96875,-7.55952 4.15774,-6.61459 -3.59078,-5.669643 3.40179,-6.425594 -3.59078,-5.669642 3.77977,-5.669642 -3.96875,-5.669643 2.07886,-4.913691 -4.34672,2.456844 -4.15774,-4.724701 -5.10268,4.535715 -4.91369,-4.346729 -5.29167,4.346729 -5.85863,-3.96875 -5.10267,3.590771 -5.291671,-3.590771 -6.425594,3.96875 -4.157739,-4.157739 -5.858632,3.77976 -3.779761,-3.77976 -5.480656,3.96875 -3.401785,-4.15774 -3.590774,4.346729 -3.023809,-4.913691 -4.157739,4.535712 -6.425594,-3.023809 0.188989,4.346726 -5.291666,1.511906 4.535712,6.614583 -4.535712,4.913691 4.157736,7.181548 -4.157736,6.425591 4.346725,6.99256 -3.779763,6.04762 3.212798,7.9375 -3.401785,7.55952 3.779761,5.29167 -3.96875,7.55953 3.96875,8.88244 -3.590774,7.9375 3.401788,6.61458 -3.96875,6.99256 3.96875,5.85863 -3.779764,5.48065 4.157739,4.34673 -0.566965,5.85863 4.15774,-3.2128 3.590771,3.96875 4.346728,-3.40178 3.779761,3.77976 3.96875,-4.91369 4.913691,4.7247 3.401785,-3.77976 5.669642,3.59077 5.291667,-3.96875 5.669642,4.15774 4.157744,-3.96875 3.40178,1.32292 12.85119,-36.85268 3.2128,21.73363 8.50446,-22.1116 6.99256,5.66964 -33.45089,18.14285 11.33929,4.91369 7.55952,-27.78125 4.7247,14.55209 -22.86756,-10.39435 15.68601,17.76488 -16.25297,-1.13393 10.20536,-21.16666"
           id="path3071"
           inkscape:connector-curvature="0" />
      </g>
    </g>
    <path
       inkscape:connector-curvature="0"
       id="path1016"
       d="m -184.64137,70.545015 3.16555,-12.473215 0.42523,8.268229 -5.33892,1.889881 2.88207,1.086681 -1.55915,0.755952 1.03943,0.141742 -1.46465,-0.755954 2.78757,-1.133927 -4.58296,-1.228424 8.7407,-3.165549 2.45684,-3.82701 0.47247,3.354539 3.63803,1.039434 -3.87426,16.536458 -6.94531,-3.401785 -1.27567,5.575149 -0.8032,-5.149927 -1.37017,4.771951 -0.37797,-5.716891 -5.05543,2.740329 2.78757,-5.953125 -6.4256,0.425222 3.07106,-5.102677 -2.69308,-2.645833 3.35454,0.09449 -1.13393,-4.299479 10.48884,5.433406 -3.07105,-9.543899 -4.8192,7.701267 -4.15774,-1.086684 2.12612,3.023812 -2.55134,8.031993 6.52009,-0.850447 -0.56697,6.803572 3.26005,-3.82701 3.87425,5.197174 1.7009,-9.638393 9.30766,-0.850447 -5.38616,-3.732514 5.19717,-1.133928 -3.2128,-1.559152 0.85045,-3.449034 -3.87426,0.330729 -1.88988,-4.393973 -8.69345,7.843007 -1.03944,-7.465031 8.50447,6.142114 -11.24479,-4.441221 -4.34673,9.449405 5.38616,1.653646 -2.55134,6.614583 5.5279,-2.173364 -0.0472,6.047621 3.54353,-4.346726 5.29166,4.25223 0.14174,-10.488837 6.80357,4.015996 -9.92187,0.188987 1.41741,6.756326 2.88207,-12.378722 6.80357,-0.566962 -4.20498,-2.315104 3.40178,-1.086684 -3.35454,-5.19717 -15.54427,-0.992188 -5.43341,12.473212 10.3471,10.299854 7.89026,-1.27567 6.37834,-7.512278 -4.20498,-6.142114 1.74814,10.725076 -8.97694,-1.700893 -0.47247,6.283855 -7.41778,-2.362351 -1.03944,-10.3471 -4.11049,-2.976563 12.61496,-9.35491 9.07143,3.732515 -0.56697,2.645833 3.68527,4.063246 -1.88988,8.835191 -8.59896,-2.645833 -1.18117,8.220982 -2.22061,-5.149924"
       style="fill:none;stroke:#000000;stroke-width:1;stroke-linecap:round;stroke-linejoin:round;stroke-opacity:1;stroke-miterlimit:4;stroke-dasharray:none;filter:url(#filter1030)"
       inkscape:export-filename="/home/siqueira/Documents/Repositories/siqueira.tech/images/icons/tasks_a2c.png"
       inkscape:export-xdpi="144.75999"
       inkscape:export-ydpi="144.75999" />
    <path
       inkscape:connector-curvature="0"
       id="path1018"
       d="m -184.54687,106.5 -4.8192,-10.866818 -6.23661,9.591148 8.97694,7.9375 3.21279,6.18936 12.00075,-7.84301 -2.55134,-9.73288 0.0472,-3.874261 -15.02456,-2.362351 -5.05543,4.441222 -1.13393,10.58333 4.72471,6.4256 9.16592,2.17336 8.45721,-5.19717 2.45685,-7.2288 -3.59077,-4.96093 1.6064,-1.55916 -2.4096,0.14175 -0.14174,-3.354542 -2.03163,2.173361 -1.65364,-4.393972 -0.56697,5.669643 -8.22098,2.74033 4.25223,1.60639 -2.2206,0.85045 1.18117,0.47247 -0.85045,0.14174 1.46466,-0.8032 -2.64583,-0.66146 4.48847,-1.65364 -9.73289,-6.000373 1.22842,4.913693 -4.7247,-0.14174 2.69308,2.03162 -3.54353,2.07887 5.24442,1.74814 2.64584,10.58333 11.0558,-0.66146 -0.42522,-11.38653 6.47284,2.97656 -9.21317,0.42523 4.96094,6.89806 -7.74852,-3.16555 -2.36235,5.6224 -3.1183,-8.31548 -7.41778,-2.74033 3.40178,-2.74032 -3.02381,-2.26786 9.96913,-8.740702 7.41778,5.149927 2.22061,-2.976562 -12.14249,6.094867 5.19718,-8.409972 1.98437,7.748512 -5.71689,2.50409 5.85863,-9.969119 9.40216,8.315479 -2.83482,12.6622 -7.46503,-3.82701 2.55134,6.94531 0.42522,-10.81957 7.79576,0.51972 -4.8192,-3.63802 4.67746,0.23623 -5.71689,0.85045 1.79539,10.01637 -17.29242,0.0945 2.83483,-6.09486 -5.14993,3.1183 2.55134,-6.56734 -4.016,0.61422 3.96875,-3.82701 -1.08668,-4.866445 10.3471,6.142115 -1.32292,-10.016372 6.85082,1.417413 4.016,3.638021 -3.02381,17.953868 -12.80395,0.66146 -4.44121,-3.44903 2.03162,-7.60678 -4.25224,2.36236 3.11831,-4.58297"
       style="fill:none;stroke:#000000;stroke-width:1;stroke-linecap:round;stroke-linejoin:round;stroke-opacity:1;stroke-miterlimit:4;stroke-dasharray:none;filter:url(#filter1034)"
       inkscape:export-filename="/home/siqueira/Documents/Repositories/siqueira.tech/images/icons/tasks_a2c.png"
       inkscape:export-xdpi="144.75999"
       inkscape:export-ydpi="144.75999" />
    <path
       inkscape:connector-curvature="0"
       id="path1020"
       d="m -113.77083,99.129462 -0.47247,17.859378 32.411457,24.00149 -3.118305,6.3311 -27.119792,-13.60715 15.969494,-33.07291 10.772322,20.31622 -18.048366,24.75744 2.07887,1.5119 16.536461,-21.54464 -18.804311,-18.04836 3.49627,-9.449408 2.834826,49.042408 5.38616,-43.84524 1.322917,43.84524 3.590774,-38.93154 -25.702377,19.65476 28.915175,9.4494 -18.898805,10.01637 18.33184,-15.68601 -29.00967,-8.22098 27.497767,-8.12649 -30.427087,-1.41741 5.38616,-10.67783 -9.5439,-3.2128 -1.32291,4.7247 14.64657,4.25224 -6.89806,12.09524 15.308036,25.98586 15.780504,-7.46503 -29.19866,-8.50447 26.36384,-13.60714 -18.04836,-18.993303 1.88988,-1.984375 -0.85045,14.835568 9.638395,35.90774 12.756695,-3.77977 -0.09449,3.77977 -1.039434,-5.29167 -22.962056,1.32292 -0.66146,-30.80506 -14.36309,-3.77977 2.74032,-10.677822 8.12649,8.504462 -1.70089,30.42709 26.080356,-2.64584 -22.489586,6.99256 12.94569,-39.12053 7.559522,10.11086 -0.566963,34.8683 -32.033489,-48.569937 0.85045,13.229167 33.450897,17.57589 -23.812507,10.29985 2.07887,-29.00967 -9.07143,4.7247 3.40179,-14.64658 -8.78795,5.95313 1.13393,-7.843004"
       style="fill:none;stroke:#000000;stroke-width:1;stroke-linecap:butt;stroke-linejoin:miter;stroke-opacity:1;stroke-miterlimit:4;stroke-dasharray:none;filter:url(#filter1038)"
       inkscape:export-filename="/home/siqueira/Documents/Repositories/siqueira.tech/images/icons/tasks_a2c.png"
       inkscape:export-xdpi="144.75999"
       inkscape:export-ydpi="144.75999" />
    <path
       inkscape:connector-curvature="0"
       id="path1022"
       d="m -128.13393,68.22991 -7.27604,4.960938 -5.6224,-5.149927 -5.14992,5.38616 -4.7247,-5.480653 -4.06325,4.913691 -1.65364,-2.4096 2.36235,-2.409598 3.96875,5.338913 4.67746,-5.386159 5.5279,5.386159 4.81919,-5.291666 4.34673,5.24442 3.82701,-1.27567 0.51971,-2.220611 -4.20498,-1.889879 -2.55134,5.055431 -4.67745,-4.724702 -4.39398,4.960937 -0.7087,-5.10268 -4.58297,5.149927 -4.86644,-5.338913 -3.44903,4.299479 7.79576,-4.063246 4.25223,5.197173 11.00856,-5.197173 6.42559,2.976563 -11.15029,1.984375 -18.52084,-3.779761 6.61459,-1.322917 -3.40179,5.291667 5.85863,-5.197174 10.67783,4.960938"
       style="fill:none;stroke:#000000;stroke-width:1;stroke-linecap:round;stroke-linejoin:round;stroke-opacity:1;stroke-miterlimit:4;stroke-dasharray:none;filter:url(#filter1042)"
       inkscape:export-filename="/home/siqueira/Documents/Repositories/siqueira.tech/images/icons/tasks_a2c.png"
       inkscape:export-xdpi="144.75999"
       inkscape:export-ydpi="144.75999" />
    <path
       inkscape:connector-curvature="0"
       id="path1024"
       d="m -127.8032,86.420014 -35.05729,4.819195 -1.65365,-3.023809 2.12612,-2.362351 12.6622,5.433407 13.5599,-5.38616 9.68564,2.882069 -2.12612,2.409598 -19.37128,-5.008185 -16.30022,3.921504 6.61458,-4.110493 16.06399,5.338913 9.68564,-5.291666 4.96094,1.417412 -7.70127,3.874254 -6.99255,-5.291666 -12.47322,5.197173 -10.01637,-4.346726 3.87426,4.393973 8.22098,-5.149924 6.75632,5.19717 6.04762,-5.149924 7.32329,5.055431 4.7247,-4.252232 0.18899,3.023809 -3.40178,1.27567 -7.65402,-5.102678 -5.29167,5.102678 -6.37835,-5.102678 -6.89806,5.197174 -6.66183,-5.197174 25.98586,5.197174 7.60677,-5.24442 2.97656,1.984375"
       style="fill:none;stroke:#000000;stroke-width:1;stroke-linecap:round;stroke-linejoin:round;stroke-opacity:1;stroke-miterlimit:4;stroke-dasharray:none;filter:url(#filter1046)"
       inkscape:export-filename="/home/siqueira/Documents/Repositories/siqueira.tech/images/icons/tasks_a2c.png"
       inkscape:export-xdpi="144.75999"
       inkscape:export-ydpi="144.75999" />
    <path
       inkscape:connector-curvature="0"
       id="path1026"
       d="m -128.18118,104.37388 -9.16592,4.77195 -17.81212,-4.86644 -1.55916,2.4096 1.74814,2.26785 4.39398,-4.91369 3.96875,5.14993 6.70907,-5.14993 5.90588,5.10268 6.94531,-4.06324 0.42523,1.46465 -2.12612,2.59859 -4.8192,-5.00818 -6.14211,5.38616 -5.38616,-5.5279 -4.91369,5.14992 -6.23661,-3.96875 3.2128,-1.18117 0.14174,5.14992 4.77195,-5.05543 4.91369,5.00818 5.76414,-5.14992 6.23661,5.14992 4.53571,-3.21279 -4.29948,-1.7009 -4.8192,5.00819 -7.22879,-5.19717 -5.38616,5.14992 -7.79576,-1.27567 2.50409,-4.06324 2.17337,5.24442"
       style="fill:none;stroke:#000000;stroke-width:1;stroke-linecap:round;stroke-linejoin:round;stroke-opacity:1;stroke-miterlimit:4;stroke-dasharray:none;filter:url(#filter1050)"
       inkscape:export-filename="/home/siqueira/Documents/Repositories/siqueira.tech/images/icons/tasks_a2c.png"
       inkscape:export-xdpi="144.75999"
       inkscape:export-ydpi="144.75999" />
    <path
       inkscape:connector-curvature="0"
       id="path1028"
       d="m -127.85045,122.32775 -3.1183,5.05543 -2.88207,-5.19717 -3.02381,5.00818 -2.55134,-5.00818 -2.40959,5.00818 -2.69308,-5.05543 -2.26786,5.19717 -3.16555,-5.14992 -2.88207,4.91369 -2.78758,-4.8192 -2.97656,4.96094 -2.64583,-5.24442 -3.02381,3.40179 1.93713,1.70089 3.59077,-5.14993 3.30729,5.05544 3.07106,-5.10268 2.92932,5.4334 2.74032,-5.33891 2.69308,4.86645 2.55134,-4.67746 2.69308,5.05543 2.5041,-5.14992 3.49627,5.48065 1.55916,-5.38616 2.78757,4.91369 1.70089,-1.98437 -2.3151,-2.97657 -5.6224,5.14993 -3.16555,-5.19717 -2.59858,4.96093 -2.55134,-4.91369 -2.31511,4.96094 -2.83482,-5.05543 -2.92931,5.24442 -3.11831,-5.14993 -2.74033,4.86645 -6.04761,-4.67746 -1.27567,1.18118 3.77976,3.59077 3.30729,-4.96094 3.26005,4.96094 2.92931,-4.86644"
       style="fill:none;stroke:#000000;stroke-width:1;stroke-linecap:round;stroke-linejoin:round;stroke-opacity:1;stroke-miterlimit:4;stroke-dasharray:none;filter:url(#filter1054)"
       inkscape:export-filename="/home/siqueira/Documents/Repositories/siqueira.tech/images/icons/tasks_a2c.png"
       inkscape:export-xdpi="144.75999"
       inkscape:export-ydpi="144.75999" />
    <path
       style="fill:none;stroke:#000000;stroke-width:1;stroke-linecap:round;stroke-linejoin:round;stroke-opacity:1;stroke-miterlimit:4;stroke-dasharray:none"
       d="m -184.64137,70.545015 3.16555,-12.473215 0.42523,8.268229 -5.33892,1.889881 2.88207,1.086681 -1.55915,0.755952 1.03943,0.141742 -1.46465,-0.755954 2.78757,-1.133927 -4.58296,-1.228424 8.7407,-3.165549 2.45684,-3.82701 0.47247,3.354539 3.63803,1.039434 -3.87426,16.536458 -6.94531,-3.401785 -1.27567,5.575149 -0.8032,-5.149927 -1.37017,4.771951 -0.37797,-5.716891 -5.05543,2.740329 2.78757,-5.953125 -6.4256,0.425222 3.07106,-5.102677 -2.69308,-2.645833 3.35454,0.09449 -1.13393,-4.299479 10.48884,5.433406 -3.07105,-9.543899 -4.8192,7.701267 -4.15774,-1.086684 2.12612,3.023812 -2.55134,8.031993 6.52009,-0.850447 -0.56697,6.803572 3.26005,-3.82701 3.87425,5.197174 1.7009,-9.638393 9.30766,-0.850447 -5.38616,-3.732514 5.19717,-1.133928 -3.2128,-1.559152 0.85045,-3.449034 -3.87426,0.330729 -1.88988,-4.393973 -8.69345,7.843007 -1.03944,-7.465031 8.50447,6.142114 -11.24479,-4.441221 -4.34673,9.449405 5.38616,1.653646 -2.55134,6.614583 5.5279,-2.173364 -0.0472,6.047621 3.54353,-4.346726 5.29166,4.25223 0.14174,-10.488837 6.80357,4.015996 -9.92187,0.188987 1.41741,6.756326 2.88207,-12.378722 6.80357,-0.566962 -4.20498,-2.315104 3.40178,-1.086684 -3.35454,-5.19717 -15.54427,-0.992188 -5.43341,12.473212 10.3471,10.299854 7.89026,-1.27567 6.37834,-7.512278 -4.20498,-6.142114 1.74814,10.725076 -8.97694,-1.700893 -0.47247,6.283855 -7.41778,-2.362351 -1.03944,-10.3471 -4.11049,-2.976563 12.61496,-9.35491 9.07143,3.732515 -0.56697,2.645833 3.68527,4.063246 -1.88988,8.835191 -8.59896,-2.645833 -1.18117,8.220982 -2.22061,-5.149924"
       id="path909"
       inkscape:connector-curvature="0"
       inkscape:export-filename="/home/siqueira/Documents/Repositories/siqueira.tech/images/icons/tasks_a2c.png"
       inkscape:export-xdpi="144.75999"
       inkscape:export-ydpi="144.75999" />
    <path
       style="fill:none;stroke:#000000;stroke-width:1;stroke-linecap:round;stroke-linejoin:round;stroke-opacity:1;stroke-miterlimit:4;stroke-dasharray:none"
       d="m -184.54687,106.5 -4.8192,-10.866818 -6.23661,9.591148 8.97694,7.9375 3.21279,6.18936 12.00075,-7.84301 -2.55134,-9.73288 0.0472,-3.874261 -15.02456,-2.362351 -5.05543,4.441222 -1.13393,10.58333 4.72471,6.4256 9.16592,2.17336 8.45721,-5.19717 2.45685,-7.2288 -3.59077,-4.96093 1.6064,-1.55916 -2.4096,0.14175 -0.14174,-3.354542 -2.03163,2.173361 -1.65364,-4.393972 -0.56697,5.669643 -8.22098,2.74033 4.25223,1.60639 -2.2206,0.85045 1.18117,0.47247 -0.85045,0.14174 1.46466,-0.8032 -2.64583,-0.66146 4.48847,-1.65364 -9.73289,-6.000373 1.22842,4.913693 -4.7247,-0.14174 2.69308,2.03162 -3.54353,2.07887 5.24442,1.74814 2.64584,10.58333 11.0558,-0.66146 -0.42522,-11.38653 6.47284,2.97656 -9.21317,0.42523 4.96094,6.89806 -7.74852,-3.16555 -2.36235,5.6224 -3.1183,-8.31548 -7.41778,-2.74033 3.40178,-2.74032 -3.02381,-2.26786 9.96913,-8.740702 7.41778,5.149927 2.22061,-2.976562 -12.14249,6.094867 5.19718,-8.409972 1.98437,7.748512 -5.71689,2.50409 5.85863,-9.969119 9.40216,8.315479 -2.83482,12.6622 -7.46503,-3.82701 2.55134,6.94531 0.42522,-10.81957 7.79576,0.51972 -4.8192,-3.63802 4.67746,0.23623 -5.71689,0.85045 1.79539,10.01637 -17.29242,0.0945 2.83483,-6.09486 -5.14993,3.1183 2.55134,-6.56734 -4.016,0.61422 3.96875,-3.82701 -1.08668,-4.866445 10.3471,6.142115 -1.32292,-10.016372 6.85082,1.417413 4.016,3.638021 -3.02381,17.953868 -12.80395,0.66146 -4.44121,-3.44903 2.03162,-7.60678 -4.25224,2.36236 3.11831,-4.58297"
       id="path911"
       inkscape:connector-curvature="0"
       inkscape:export-filename="/home/siqueira/Documents/Repositories/siqueira.tech/images/icons/tasks_a2c.png"
       inkscape:export-xdpi="144.75999"
       inkscape:export-ydpi="144.75999" />
    <path
       style="fill:none;stroke:#000000;stroke-width:1;stroke-linecap:butt;stroke-linejoin:miter;stroke-opacity:1;stroke-miterlimit:4;stroke-dasharray:none"
       d="m -113.77083,99.129462 -0.47247,17.859378 32.411457,24.00149 -3.118305,6.3311 -27.119792,-13.60715 15.969494,-33.07291 10.772322,20.31622 -18.048366,24.75744 2.07887,1.5119 16.536461,-21.54464 -18.804311,-18.04836 3.49627,-9.449408 2.834826,49.042408 5.38616,-43.84524 1.322917,43.84524 3.590774,-38.93154 -25.702377,19.65476 28.915175,9.4494 -18.898805,10.01637 18.33184,-15.68601 -29.00967,-8.22098 27.497767,-8.12649 -30.427087,-1.41741 5.38616,-10.67783 -9.5439,-3.2128 -1.32291,4.7247 14.64657,4.25224 -6.89806,12.09524 15.308036,25.98586 15.780504,-7.46503 -29.19866,-8.50447 26.36384,-13.60714 -18.04836,-18.993303 1.88988,-1.984375 -0.85045,14.835568 9.638395,35.90774 12.756695,-3.77977 -0.09449,3.77977 -1.039434,-5.29167 -22.962056,1.32292 -0.66146,-30.80506 -14.36309,-3.77977 2.74032,-10.677822 8.12649,8.504462 -1.70089,30.42709 26.080356,-2.64584 -22.489586,6.99256 12.94569,-39.12053 7.559522,10.11086 -0.566963,34.8683 -32.033489,-48.569937 0.85045,13.229167 33.450897,17.57589 -23.812507,10.29985 2.07887,-29.00967 -9.07143,4.7247 3.40179,-14.64658 -8.78795,5.95313 1.13393,-7.843004"
       id="path913"
       inkscape:connector-curvature="0"
       inkscape:export-filename="/home/siqueira/Documents/Repositories/siqueira.tech/images/icons/tasks_a2c.png"
       inkscape:export-xdpi="144.75999"
       inkscape:export-ydpi="144.75999" />
    <path
       style="fill:none;stroke:#000000;stroke-width:1;stroke-linecap:round;stroke-linejoin:round;stroke-opacity:1;stroke-miterlimit:4;stroke-dasharray:none"
       d="m -128.13393,68.22991 -7.27604,4.960938 -5.6224,-5.149927 -5.14992,5.38616 -4.7247,-5.480653 -4.06325,4.913691 -1.65364,-2.4096 2.36235,-2.409598 3.96875,5.338913 4.67746,-5.386159 5.5279,5.386159 4.81919,-5.291666 4.34673,5.24442 3.82701,-1.27567 0.51971,-2.220611 -4.20498,-1.889879 -2.55134,5.055431 -4.67745,-4.724702 -4.39398,4.960937 -0.7087,-5.10268 -4.58297,5.149927 -4.86644,-5.338913 -3.44903,4.299479 7.79576,-4.063246 4.25223,5.197173 11.00856,-5.197173 6.42559,2.976563 -11.15029,1.984375 -18.52084,-3.779761 6.61459,-1.322917 -3.40179,5.291667 5.85863,-5.197174 10.67783,4.960938"
       id="path915"
       inkscape:connector-curvature="0"
       inkscape:export-filename="/home/siqueira/Documents/Repositories/siqueira.tech/images/icons/tasks_a2c.png"
       inkscape:export-xdpi="144.75999"
       inkscape:export-ydpi="144.75999" />
    <path
       style="fill:none;stroke:#000000;stroke-width:1;stroke-linecap:round;stroke-linejoin:round;stroke-opacity:1;stroke-miterlimit:4;stroke-dasharray:none"
       d="m -127.8032,86.420014 -35.05729,4.819195 -1.65365,-3.023809 2.12612,-2.362351 12.6622,5.433407 13.5599,-5.38616 9.68564,2.882069 -2.12612,2.409598 -19.37128,-5.008185 -16.30022,3.921504 6.61458,-4.110493 16.06399,5.338913 9.68564,-5.291666 4.96094,1.417412 -7.70127,3.874254 -6.99255,-5.291666 -12.47322,5.197173 -10.01637,-4.346726 3.87426,4.393973 8.22098,-5.149924 6.75632,5.19717 6.04762,-5.149924 7.32329,5.055431 4.7247,-4.252232 0.18899,3.023809 -3.40178,1.27567 -7.65402,-5.102678 -5.29167,5.102678 -6.37835,-5.102678 -6.89806,5.197174 -6.66183,-5.197174 25.98586,5.197174 7.60677,-5.24442 2.97656,1.984375"
       id="path917"
       inkscape:connector-curvature="0"
       inkscape:export-filename="/home/siqueira/Documents/Repositories/siqueira.tech/images/icons/tasks_a2c.png"
       inkscape:export-xdpi="144.75999"
       inkscape:export-ydpi="144.75999" />
    <path
       style="fill:none;stroke:#000000;stroke-width:1;stroke-linecap:round;stroke-linejoin:round;stroke-opacity:1;stroke-miterlimit:4;stroke-dasharray:none"
       d="m -128.18118,104.37388 -9.16592,4.77195 -17.81212,-4.86644 -1.55916,2.4096 1.74814,2.26785 4.39398,-4.91369 3.96875,5.14993 6.70907,-5.14993 5.90588,5.10268 6.94531,-4.06324 0.42523,1.46465 -2.12612,2.59859 -4.8192,-5.00818 -6.14211,5.38616 -5.38616,-5.5279 -4.91369,5.14992 -6.23661,-3.96875 3.2128,-1.18117 0.14174,5.14992 4.77195,-5.05543 4.91369,5.00818 5.76414,-5.14992 6.23661,5.14992 4.53571,-3.21279 -4.29948,-1.7009 -4.8192,5.00819 -7.22879,-5.19717 -5.38616,5.14992 -7.79576,-1.27567 2.50409,-4.06324 2.17337,5.24442"
       id="path919"
       inkscape:connector-curvature="0"
       inkscape:export-filename="/home/siqueira/Documents/Repositories/siqueira.tech/images/icons/tasks_a2c.png"
       inkscape:export-xdpi="144.75999"
       inkscape:export-ydpi="144.75999" />
    <path
       style="fill:none;stroke:#000000;stroke-width:1;stroke-linecap:round;stroke-linejoin:round;stroke-opacity:1;stroke-miterlimit:4;stroke-dasharray:none"
       d="m -127.85045,122.32775 -3.1183,5.05543 -2.88207,-5.19717 -3.02381,5.00818 -2.55134,-5.00818 -2.40959,5.00818 -2.69308,-5.05543 -2.26786,5.19717 -3.16555,-5.14992 -2.88207,4.91369 -2.78758,-4.8192 -2.97656,4.96094 -2.64583,-5.24442 -3.02381,3.40179 1.93713,1.70089 3.59077,-5.14993 3.30729,5.05544 3.07106,-5.10268 2.92932,5.4334 2.74032,-5.33891 2.69308,4.86645 2.55134,-4.67746 2.69308,5.05543 2.5041,-5.14992 3.49627,5.48065 1.55916,-5.38616 2.78757,4.91369 1.70089,-1.98437 -2.3151,-2.97657 -5.6224,5.14993 -3.16555,-5.19717 -2.59858,4.96093 -2.55134,-4.91369 -2.31511,4.96094 -2.83482,-5.05543 -2.92931,5.24442 -3.11831,-5.14993 -2.74033,4.86645 -6.04761,-4.67746 -1.27567,1.18118 3.77976,3.59077 3.30729,-4.96094 3.26005,4.96094 2.92931,-4.86644"
       id="path921"
       inkscape:connector-curvature="0"
       inkscape:export-filename="/home/siqueira/Documents/Repositories/siqueira.tech/images/icons/tasks_a2c.png"
       inkscape:export-xdpi="144.75999"
       inkscape:export-ydpi="144.75999" />
  </g>
</svg>
