<?xml version="1.0" encoding="UTF-8" standalone="no"?>
<!-- Created with Inkscape (http://www.inkscape.org/) -->

<svg
   xmlns:dc="http://purl.org/dc/elements/1.1/"
   xmlns:cc="http://creativecommons.org/ns#"
   xmlns:rdf="http://www.w3.org/1999/02/22-rdf-syntax-ns#"
   xmlns:svg="http://www.w3.org/2000/svg"
   xmlns="http://www.w3.org/2000/svg"
   xmlns:sodipodi="http://sodipodi.sourceforge.net/DTD/sodipodi-0.dtd"
   xmlns:inkscape="http://www.inkscape.org/namespaces/inkscape"
   width="210mm"
   height="297mm"
   viewBox="0 0 210 297"
   version="1.1"
   id="svg8"
   inkscape:version="0.92.2 2405546, 2018-03-11"
   sodipodi:docname="under_construction.svg">
  <defs
     id="defs2" />
  <sodipodi:namedview
     id="base"
     pagecolor="#ffffff"
     bordercolor="#666666"
     borderopacity="1.0"
     inkscape:pageopacity="0.0"
     inkscape:pageshadow="2"
     inkscape:zoom="0.49497475"
     inkscape:cx="226.27164"
     inkscape:cy="512.00308"
     inkscape:document-units="mm"
     inkscape:current-layer="layer1"
     showgrid="false"
     inkscape:window-width="1920"
     inkscape:window-height="1039"
     inkscape:window-x="0"
     inkscape:window-y="0"
     inkscape:window-maximized="1"
     inkscape:object-nodes="false" />
  <metadata
     id="metadata5">
    <rdf:RDF>
      <cc:Work
         rdf:about="">
        <dc:format>image/svg+xml</dc:format>
        <dc:type
           rdf:resource="http://purl.org/dc/dcmitype/StillImage" />
        <dc:title />
      </cc:Work>
    </rdf:RDF>
  </metadata>
  <g
     inkscape:label="Layer 1"
     inkscape:groupmode="layer"
     id="layer1">
    <path
       style="fill:none;stroke:#000000;stroke-width:0.26458332px;stroke-linecap:butt;stroke-linejoin:miter;stroke-opacity:1"
       d="m 4.0090428,71.424519 0.2672697,27.796032 8.2853545,4.543579 1.13997,-5.863088 L 4.2522319,87.601191 6.2366069,76.16741 3.96875,73.238094 4.9136903,72.19866 4.5357142,70.497768 4.2522319,76.545386 6.8035714,102.90923 14.268601,103.66518 15.591518,103.19271 4.063244,97.334077 10.772321,89.018601 4.063244,82.404018 5.9531249,75.033483 4.346726,72.576636 4.6302083,71.915178 8.6934523,103.3817 7.1815475,78.71875 4.2522319,76.072917 5.5751486,74.277531 4.7247024,71.820685 l 0.4724701,29.387645 5.0081845,2.36235 c 0,0 5.197172,-2.45684 4.724702,-2.45684 -0.47247,0 -10.3943448,-2.267857 -10.3943448,-2.267857 L 12.095238,94.121281 4.1577381,92.703868 10.772321,89.680059 4.1577381,87.412202 9.3549106,85.23884 4.1577381,83.159969 7.8430058,80.986608"
       id="path6022"
       inkscape:connector-curvature="0"
       inkscape:export-filename="/home/siqueira/Documents/Repositories/siqueira.xyz/images/underConstruction_a2c.png"
       inkscape:export-xdpi="144.75999"
       inkscape:export-ydpi="144.75999" />
    <path
       style="fill:none;stroke:#000000;stroke-width:0.26458332px;stroke-linecap:butt;stroke-linejoin:miter;stroke-opacity:1"
       d="M 62.271576,103.66518 30.899552,79.663691 48.002975,61.142858 37.986607,58.686011 24.568452,60.953869 57.830357,89.680059 44.884673,103.57068 36.66369,97.617559 53.9561,77.773809 36.380208,60.575893 27.875743,58.497025 25.22991,62.371281 60.098214,95.727678 52.822173,103.47619 33.734375,88.546132 51.215774,68.891369 41.104909,60.764882 l 2.929316,-2.362351 4.913691,1.984375 2.456844,-1.889881 -24.662944,0.944941 5.102677,1.322916 -3.401785,10.677827 32.978423,28.348214 -4.157739,3.968747 -24.473958,-18.709819 16.630951,-20.127232 -15.591517,-3.96875 6.425597,-2.362351 3.874254,2.173364 -14.552084,15.213542 32.411458,25.985856 -1.133927,1.6064 -28.726191,-20.977673 16.819941,-20.032739 -10.48884,-1.889882 3.023809,-2.078868 6.614583,2.078868 -21.166666,6.236608 h 23.340031 l -19.465774,11.433781 24.473958,3.307291 -20.505208,9.827382 24.190475,1.22842 -20.127232,9.449402 9.638392,1.41741 13.04018,-2.83482 -24.095982,-1.417408 20.977677,-7.9375 L 34.395833,90.436011 56.129464,84.577382 31.938986,81.648066 53.200149,76.072917 29.387649,74.844494 49.98735,66.245535 26.458333,65.489584 35.52976,60.859376 52.255208,73.710566 34.395833,89.774553 57.263392,87.317709 35.813243,94.404761 59.720236,94.688243 40.726934,103.94866 38.837052,103.19271 54.617558,79.852678 28.820684,60.953869"
       id="path6024"
       inkscape:connector-curvature="0"
       inkscape:export-filename="/home/siqueira/Documents/Repositories/siqueira.xyz/images/underConstruction_a2c.png"
       inkscape:export-xdpi="144.75999"
       inkscape:export-ydpi="144.75999" />
    <path
       style="fill:none;stroke:#000000;stroke-width:0.26458332px;stroke-linecap:butt;stroke-linejoin:miter;stroke-opacity:1"
       d="M 109.42411,103.57068 82.682291,93.554316 99.02976,72.576636 72.004464,60.953869 l 5.953125,-2.362351 5.38616,2.078868 7.276042,-2.173361 4.819194,2.267857 -19.182291,13.512649 28.631696,15.119046 -13.79613,14.457593 -5.858629,-3.11831 17.197909,-19.087794 -28.63169,-14.2686 13.701635,-6.52009 10.772323,-2.267858 -4.346726,1.984375 -8.787947,-2.078868 -6.709077,2.267857 -3.401785,-2.267857 0.472469,2.173361 -2.267857,4.252233 27.686755,12.662204 -16.725446,19.84375 12.851191,6.331097 9.543895,-9.260413 L 79.847468,84.293899 96.950891,66.245535 80.886902,60.953869 73.421874,66.056549 98.084819,69.36384 78.335565,79.474702 101.77009,80.419643 81.359374,89.396577 105.54985,91.475448 85.895089,103.57068 108.47917,100.1689 84.666666,99.034969 107.06175,95.727678 82.304315,92.703868 103.37649,84.766369 79.18601,82.026042 99.691218,74.277531 75.595236,71.442709 96.19494,64.072174 89.48586,61.142858 89.013391,58.591518 90.525297,60.859376 77.579611,77.30134 105.92783,93.081844 102.05357,103.2872 80.886902,87.128719 97.328867,67.757441 76.540176,60.764882 l 3.118306,-2.267857 1.700892,1.984375 2.362351,-1.984375 2.55134,1.984375 1.795386,-1.984375 2.36235,1.984375 3.307292,-1.984375 1.795388,2.173361"
       id="path6026"
       inkscape:connector-curvature="0"
       inkscape:export-filename="/home/siqueira/Documents/Repositories/siqueira.xyz/images/underConstruction_a2c.png"
       inkscape:export-xdpi="144.75999"
       inkscape:export-ydpi="144.75999" />
    <path
       style="fill:none;stroke:#000000;stroke-width:0.26458332px;stroke-linecap:butt;stroke-linejoin:miter;stroke-opacity:1"
       d="m 133.14211,103.3817 15.68601,-23.340033 -29.95461,-18.709822 11.62277,-2.645834 12.00074,2.362354 2.92932,-2.55134 -10.11087,2.173361 -9.54389,-2.078868 -5.38616,1.039434 3.96875,1.228424 8.69345,-2.362351 5.85863,2.173361 5.10268,-1.039434 -5.66965,-1.133927 -9.4494,2.173361 17.67039,12.567708 -17.00893,19.087799 17.3869,11.339287 7.18155,-7.937502 -29.95461,-19.276785 17.95386,-15.213542 -10.77232,36.285715 7.84301,6.142114 11.52827,-17.197919 -29.19866,-17.386903 5.95313,-8.126489 18.14285,8.882441 -17.95386,17.197916 26.74181,16.536454 1.6064,-2.07886 0.66146,2.07886 -30.2381,-19.749252 18.04837,-16.15848 -11.05581,-6.803572 -10.20535,12.000743 29.19866,18.426339 -9.07143,12.189732 -13.04018,-8.976933 17.00893,-18.709822 -23.52902,-14.552084 -3.30729,4.063244 29.57663,18.331846 -14.45758,20.032739 -2.92932,-2.17336 15.21354,-23.529021 -22.1116,-17.00893 -5.95313,2.267857 24.94643,5.38616 -18.89881,12.284229 29.10416,17.670385 -4.7247,5.19717 -21.63913,-14.174104 17.3869,-18.237351 -26.45833,-8.976934 17.29241,-1.228423 6.89806,3.496278 -18.61532,14.45759 29.57663,18.048364 -6.2366,6.70908 -20.12723,-15.213545 17.19791,-18.142857 -13.60714,-9.827382 -9.6384,10.866816 29.76563,17.292412 -10.86681,14.741066 -10.20536,-7.55952"
       id="path6028"
       inkscape:connector-curvature="0"
       inkscape:export-filename="/home/siqueira/Documents/Repositories/siqueira.xyz/images/underConstruction_a2c.png"
       inkscape:export-xdpi="144.75999"
       inkscape:export-ydpi="144.75999" />
    <path
       style="fill:none;stroke:#000000;stroke-width:0.26458332px;stroke-linecap:butt;stroke-linejoin:miter;stroke-opacity:1"
       d="m 180.54056,103.49686 18.4416,-14.766639 -29.46646,-17.37252 10.89123,-10.490327 7.01582,-2.472243 3.60814,1.069078 -3.67495,1.202711 -7.55037,-2.204974 -6.88219,2.138156 -3.87541,-2.338607 -3.0736,2.472243 6.21402,-2.071338 3.74177,2.00452 5.07812,-2.138156 3.14042,2.004523 4.94449,-2.138156 0.53454,2.204971 -5.34539,-2.204971 -4.6104,2.271789 -4.74404,-2.138156 -4.27631,1.80407 -2.60588,-1.069078 3.20724,-0.80181 7.01582,2.138156 4.07586,-2.204971 5.54584,2.204971 2.00453,-2.138156 2.07133,0.601359 0.33409,-0.534541 -6.41447,2.204974 6.48129,8.753078 -16.97162,19.176587 5.21176,3.942226 -2.47224,4.610399 9.68852,6.481282 10.95805,-9.488063 -25.92515,-12.695303 7.48355,-11.024868 -1.06908,-9.421251 -10.22306,8.485806 29.13238,16.83798 -13.02939,8.619443 -0.66817,8.552626 -7.14946,-9.554887 16.70434,-19.577491 -9.91784,-6.550746 -16.80911,-3.204592 6.81537,-3.80859 16.63753,4.142676 -8.82285,3.091472 -10.82146,8.668387 27.72922,15.367997 -13.36348,11.425774 -6.21402,-3.20724 1.80407,-5.078115 -5.07812,-5.078121 16.97161,-18.508417 -24.05425,-10.69078 -2.33861,1.670436 14.83346,10.022607 14.43255,7.61718 -10.22306,13.096208 -3.34087,10.089422 -0.60135,-8.018084 -4.27631,-0.467722 17.10524,-18.174327 -24.2547,-3.407685 12.29439,-12.428035 7.41673,1.670436 -4.40994,6.882188 1.06907,33.809599 1.00226,-42.362223 1.00226,42.763123 0.86863,-42.829938 0.73499,42.763118 1.26953,-36.549104 0.53454,36.615924 1.06908,-32.005525 0.73499,31.871895 0.86863,-26.59332 0.53454,26.45968 1.06907,-22.049734 0.86863,20.646574 -2.73951,1.40316 -10.95805,-7.884448 -4.74404,3.407685 7.61719,4.677213 12.62848,-7.082638 -14.16529,-5.34539 -0.4009,-18.374781 7.21628,-4.944485 -19.51068,-7.082642 -4.94448,3.140416 14.2321,8.68626 -7.2831,12.695301 9.15398,5.34539 12.09395,-12.160763 -12.96257,-5.612659 -8.75308,10.690781 3.0736,-22.784726 4.6104,7.683997 3.27405,-7.683997 5.67948,2.739512 -6.74855,4.543581 -17.70661,-6.815373 1.20271,-0.534538 13.76438,8.352173 2.33861,-8.352173 2.00452,8.352173 8.55263,4.543581 -16.97162,19.042954 4.2095,1.937703 -0.80181,8.418993"
       id="path6030"
       inkscape:connector-curvature="0"
       sodipodi:nodetypes="ccccccccccccccccccccccccccccccccccccccccccccccccccccccccccccccccccccccccccccccccccccccccccccccccccccccccccccccccc"
       inkscape:export-filename="/home/siqueira/Documents/Repositories/siqueira.xyz/images/underConstruction_a2c.png"
       inkscape:export-xdpi="144.75999"
       inkscape:export-ydpi="144.75999" />
    <path
       style="fill:none;stroke:#000000;stroke-width:0.26458332px;stroke-linecap:butt;stroke-linejoin:miter;stroke-opacity:1"
       d="m 24.332217,69.174851 -1.606399,1.039434 1.511905,3.449035 2.315103,-1.181177 -0.377975,-2.456844 -3.921503,2.267857 0.992187,0.944938 2.173363,0.377979 -0.09449,-4.063246 -3.118303,1.748142 4.582961,0.330729 -3.118304,1.889879 c 0,0 -1.41741,-2.929316 -1.181175,-2.976562 0.236235,-0.04725 2.598586,-1.133928 2.598586,-1.133928 l 0.850447,3.685268 -3.732515,-1.322917 3.685267,-1.984375"
       id="path6032"
       inkscape:connector-curvature="0"
       inkscape:export-filename="/home/siqueira/Documents/Repositories/siqueira.xyz/images/underConstruction_a2c.png"
       inkscape:export-xdpi="144.75999"
       inkscape:export-ydpi="144.75999" />
    <path
       style="fill:none;stroke:#000000;stroke-width:0.26458332px;stroke-linecap:butt;stroke-linejoin:miter;stroke-opacity:1"
       d="m 23.529017,91.995163 -0.992187,2.456847 1.370164,2.126115 2.456845,-0.850447 0.188987,-2.267855 -3.968749,-0.377979 0.09449,2.598587 2.598586,0.755954 0.188988,-4.252232 -3.023809,2.126115 2.126116,2.173364 -0.188988,-4.299479 1.606399,0.708705 0.283482,2.36235 -4.015997,-0.141739 3.732515,-2.55134 -0.09449,3.449031 -3.071056,-3.260045 1.511905,3.82701"
       id="path6034"
       inkscape:connector-curvature="0"
       inkscape:export-filename="/home/siqueira/Documents/Repositories/siqueira.xyz/images/underConstruction_a2c.png"
       inkscape:export-xdpi="144.75999"
       inkscape:export-ydpi="144.75999" />
    <path
       style="fill:none;stroke:#000000;stroke-width:0.26458332px;stroke-linecap:butt;stroke-linejoin:miter;stroke-opacity:1"
       d="m 32.740518,104.23185 -19.042955,12.62849 10.156242,2.27179 11.158502,-4.6104 1.870887,1.1359 -3.674957,2.20497 -17.57297,-6.1472 17.639788,-4.81085 -8.15172,-3.0736 -9.42125,3.20723 19.711126,10.15624 1.536801,-1.20271 -21.247927,-5.47902 17.439335,-4.81085 -3.741772,-1.73726 -13.831198,5.21176 6.280833,9.82215 11.292137,-7.68399 -13.76438,-7.55037 -3.80859,2.07134 17.706605,7.55036 -4.409948,5.27858 -4.744032,-14.63301 -4.209496,14.83346 13.363476,-9.48807 -2.00452,-5.41221 -4.142679,14.83346 -5.412207,-14.633 -6.013564,3.80859 9.888972,11.02486 7.61718,-6.5481 -17.372518,-8.55262 1.26953,14.56619 5.946747,-14.43256 5.011305,14.63301 5.211754,-10.49033 -3.274052,-4.14268 -6.815372,15.03391 -4.34313,-15.23436 -3.674955,13.69756 -1.670435,-2.27179 -0.467722,1.00226 -0.868626,-0.4009 0.868626,-0.53454 0.467722,1.67043 1.5368,-2.47224 1.202713,3.67496 11.358954,-14.23211 5.679477,6.74856 -2.338607,7.61718 -4.409948,-14.43255 -7.817633,14.69982 -1.269531,-14.83346 -1.603617,10.42351"
       id="path6036"
       inkscape:connector-curvature="0"
       inkscape:export-filename="/home/siqueira/Documents/Repositories/siqueira.xyz/images/underConstruction_a2c.png"
       inkscape:export-xdpi="144.75999"
       inkscape:export-ydpi="144.75999" />
    <path
       style="fill:none;stroke:#000000;stroke-width:0.26458332px;stroke-linecap:butt;stroke-linejoin:miter;stroke-opacity:1"
       d="m 15.768902,198.24391 17.639789,-24.18789 -17.773424,-32.20598 5.879929,-7.08264 11.49259,18.8425 -17.372519,22.45064 9.488068,24.9897 7.884451,-13.76438 -17.238884,-31.00327 13.229841,-21.24792 4.276312,7.21627 -17.506153,24.5888 16.036171,32.60688 -1.069078,-64.54559 2.672696,3.87541 -17.907059,22.85154 17.773423,32.33961 -4.409948,6.81538 -12.96257,-13.76438 17.372518,-20.44612 -17.372518,-31.00327 1.336347,-1.20271 -0.267269,65.08013 16.036171,-19.10977 -17.238884,-30.06782 9.755337,-15.368 7.617181,13.09621 -17.639788,23.92062 15.100729,28.19693 2.672694,-2.67269 -17.773423,-9.48807 17.639788,-9.08716 -17.639788,-8.8199 17.773423,-9.08716 -17.506153,-8.55263 17.506153,-5.87992 -17.773423,-6.54811 14.165285,-5.21175 3.608138,0.66817 -17.639788,10.82441 17.639788,11.49259 -17.506153,23.78699 14.03165,19.10977 3.875408,-4.94448 -9.488068,-60.80382 -2.939965,66.01557 0.801808,-65.88193 -2.672695,65.21376 0.26727,-65.3474 -1.603617,65.08013 -2.138156,-55.32479 2.939964,-9.75534 4.009043,66.14921 4.276312,-65.88194 -0.133633,65.61467 2.672694,-65.61467"
       id="path6038"
       inkscape:connector-curvature="0"
       inkscape:export-filename="/home/siqueira/Documents/Repositories/siqueira.xyz/images/underConstruction_a2c.png"
       inkscape:export-xdpi="144.75999"
       inkscape:export-ydpi="144.75999" />
    <path
       style="fill:none;stroke:#000000;stroke-width:0.26458332px;stroke-linecap:butt;stroke-linejoin:miter;stroke-opacity:1"
       d="m -2.9293156,200.61607 1.98437515,6.4256 3.40178565,-2.83483 2.5513391,4.8192 3.1183038,-3.2128 2.4568449,4.06325 3.590774,-3.40179 2.173363,4.15774 3.401786,-3.77976 2.834821,4.06324 3.212797,-3.77976 2.929316,3.59077 3.779761,-4.06324 3.118305,3.68527 3.590772,-4.34673 3.96875,3.1183 2.929316,-5.00818 4.063245,2.26786 1.795386,-5.85863 -0.09449,4.7247 -3.023809,-2.07887 -1.700895,4.91369 -3.307292,-2.83482 -2.929313,4.25223 -3.874257,-3.2128 -4.252232,4.25223 -2.83482,-3.40178 -3.968751,3.77976 -3.02381,-3.87425 -3.685268,3.68526 -2.645833,-3.96875 -2.834821,3.40179 -1.795387,-3.96875 -3.4017858,3.40178 -2.078869,-4.06324 -3.3072917,2.74033 -2.45684514,-4.63021 -3.02380946,2.26786 -0.5669644,-2.45685 1.3229168,-1.13393 2.17336302,5.19717 3.68526768,-2.64583 2.1733632,4.44122 3.4962798,-3.40178 2.078869,4.15773 3.023809,-3.30729 2.456846,3.96875 3.496279,-3.77976 3.118304,3.87426 3.874256,-3.59078 2.83482,3.40179 3.874257,-4.06325 3.590774,3.49628 3.307291,-4.6302 3.685268,3.02381 1.984375,-4.44122 3.685267,1.88988 0.850448,-2.36236 -2.078871,-0.66145 -0.944938,4.53571 -4.157739,-2.45685 -2.55134,4.44123 -3.96875,-3.11831 -3.685268,4.06325 -3.023809,-3.40179 -3.685267,3.77976 -3.590774,-3.77976 -3.212798,3.87426 -2.740327,-3.96875 -3.212798,3.49628 -3.874256,-3.96875 -3.8742554,3.1183 -5.5751488,-5.19717 -5.0081844,0.47247 3.02380945,-1.6064 2.45684525,4.8192 6.9925594,-2.07887 17.8593755,4.91369 25.135416,-7.74851"
       id="path6040"
       inkscape:connector-curvature="0"
       inkscape:export-filename="/home/siqueira/Documents/Repositories/siqueira.xyz/images/underConstruction_a2c.png"
       inkscape:export-xdpi="144.75999"
       inkscape:export-ydpi="144.75999" />
    <path
       style="fill:none;stroke:#000000;stroke-width:0.26458332px;stroke-linecap:butt;stroke-linejoin:miter;stroke-opacity:1"
       d="m 15.635267,50.443862 3.407686,-2.004523 6.882191,-0.534537 7.015825,1.804069 -4.944486,3.00678 -8.018086,-0.267268 -4.009043,-2.80633 13.697563,-1.269529 3.54132,2.00452 -2.00452,1.469983 -8.619442,-4.075861 -5.61266,3.741774 5.545842,1.269529 5.813113,-4.677216 2.00452,4.009043 1.937705,-3.006781 0.868625,1.737252 -16.837979,0.46772 4.610399,-3.340868 4.409947,4.877668 5.211757,-4.276312 1.469982,2.939965 0.868625,-1.937705 0.400904,1.135896"
       id="path6042"
       inkscape:connector-curvature="0"
       sodipodi:nodetypes="cccccccccccccccccccccccc"
       inkscape:export-filename="/home/siqueira/Documents/Repositories/siqueira.xyz/images/underConstruction_a2c.png"
       inkscape:export-xdpi="144.75999"
       inkscape:export-ydpi="144.75999" />
    <path
       style="fill:none;stroke:#000000;stroke-width:0.26458332px;stroke-linecap:butt;stroke-linejoin:miter;stroke-opacity:1"
       d="m 16.914434,48.953126 7.654018,4.11049 4.91369,-4.819195 2.315104,3.638021 -2.362351,0.708704 -7.559523,-4.630208 -3.921503,3.921504 -2.031622,-0.992188 2.22061,-2.267857 8.504465,4.110489 5.008184,-3.685267 0.992188,1.606399 -3.732517,1.984375 -8.646204,-4.630208 -3.732515,3.354538 14.882812,-2.220608 1.74814,0.992187 -12.567708,2.173362 -4.488467,-2.456844 1.795387,-1.13393 9.685638,-0.755952"
       id="path6044"
       inkscape:connector-curvature="0"
       inkscape:export-filename="/home/siqueira/Documents/Repositories/siqueira.xyz/images/underConstruction_a2c.png"
       inkscape:export-xdpi="144.75999"
       inkscape:export-ydpi="144.75999" />
    <path
       style="fill:none;stroke:#000000;stroke-width:0.26458332px;stroke-linecap:butt;stroke-linejoin:miter;stroke-opacity:1"
       d="m 15.702085,51.579758 0.200452,2.405425 -0.200452,3.006783 0.267269,1.536798 -0.400904,-3.140416 0.601356,-3.407685"
       id="path6046"
       inkscape:connector-curvature="0"
       inkscape:export-filename="/home/siqueira/Documents/Repositories/siqueira.xyz/images/underConstruction_a2c.png"
       inkscape:export-xdpi="144.75999"
       inkscape:export-ydpi="144.75999" />
    <path
       style="fill:none;stroke:#000000;stroke-width:0.26458332px;stroke-linecap:butt;stroke-linejoin:miter;stroke-opacity:1"
       d="m 33.67596,133.56468 2.00452,-0.93544 1.737254,-0.53454"
       id="path6048"
       inkscape:connector-curvature="0"
       inkscape:export-filename="/home/siqueira/Documents/Repositories/siqueira.xyz/images/underConstruction_a2c.png"
       inkscape:export-xdpi="144.75999"
       inkscape:export-ydpi="144.75999" />
    <path
       style="fill:none;stroke:#000000;stroke-width:0.26458332px;stroke-linecap:butt;stroke-linejoin:miter;stroke-opacity:1"
       d="m 4.7440341,63.540068 1.4699824,-2.672694 3.6081385,-2.071341 5.078121,1.937705 4.476764,-2.271792 4.276313,2.271792 3.140416,-2.071338 -0.06682,0.734991 -12.093945,-0.668173 -4.343129,2.138156 -3.2740521,-1.00226 -0.2672694,1.804066 -2.0045214,1.135896 -0.6013566,2.204974"
       id="path6050"
       inkscape:connector-curvature="0"
       inkscape:export-filename="/home/siqueira/Documents/Repositories/siqueira.xyz/images/underConstruction_a2c.png"
       inkscape:export-xdpi="144.75999"
       inkscape:export-ydpi="144.75999" />
    <path
       style="fill:none;stroke:#000000;stroke-width:0.26458332px;stroke-linecap:butt;stroke-linejoin:miter;stroke-opacity:1"
       d="m 173.72519,104.16504 6.5481,14.56618 10.55715,-10.42351 -5.34539,-4.40994 -11.49259,8.81989 3.4745,5.87993 13.49711,-12.02713 -7.88445,-2.67269 -9.48807,5.74629 14.9671,7.88445 3.60814,-3.4745 2.27179,1.33635 -3.0736,2.40542 -17.63979,-11.35895 3.4745,-3.0736 13.89802,8.15172 -7.21628,7.48354 -10.0226,-4.94448 17.23888,-10.02261 h -1.87089 l -2.93996,14.29892 -5.7463,-14.43255 -6.01356,14.16528 -2.00452,-3.60814 -1.48826,2.34494 -1.41741,-0.75595 1.51191,-0.85045 1.88988,2.92932 0.94494,-3.96875 1.98437,4.34672 12.18973,-14.45758 2.83483,1.88987 -1.32292,12.00075 -14.07961,-13.98512 -1.88988,4.25223 17.67038,5.95313 1.6064,2.83482 0.66146,-1.98438 1.22842,0.85045 -7.18154,2.74033 -14.17411,-5.57515 17.57589,-3.40179 -17.29241,-3.02381 17.10342,-2.55133 -17.00893,7.55952 17.10343,1.79539"
       id="path6052"
       inkscape:connector-curvature="0"
       inkscape:export-filename="/home/siqueira/Documents/Repositories/siqueira.xyz/images/underConstruction_a2c.png"
       inkscape:export-xdpi="144.75999"
       inkscape:export-ydpi="144.75999" />
    <path
       style="fill:none;stroke:#000000;stroke-width:0.26458332px;stroke-linecap:butt;stroke-linejoin:miter;stroke-opacity:1"
       d="m 186.43675,135.0372 -12.75669,18.89881 17.4814,29.00967 -13.51265,17.76488 -4.25224,-7.08705 17.85938,-22.58408 -17.67039,-30.71056 5.19717,-5.29167 12.37873,21.54464 -17.67039,20.22173 15.59152,22.96205 2.07887,-1.79538 -17.4814,-26.74182 17.3869,-19.27678 -8.59896,-16.81995 -8.97693,12.8512 17.57589,29.00967 -17.29241,20.97768 1.41741,1.88988 15.9695,-19.74926 -17.4814,-29.00967 10.86681,-15.9695 6.4256,12.7567 -17.38691,18.70982 17.4814,27.68676 -4.34673,6.52009 -13.04017,-16.25298 17.57589,-22.30059 -17.38691,-27.78125 0.56697,-0.28348 1.70089,66.14583 4.25223,-65.29539 1.32292,65.76786 1.70089,-65.67337 4.8192,65.01191 1.22842,-65.76786 1.7009,31.56102 -6.70908,34.7738 -10.67783,-41.38839 3.68527,-24.28497 10.20536,65.67336 3.40178,-12.37872 -17.57589,-31.27752 17.57589,-19.56027 -0.94494,-3.11831 -16.44196,21.16667 6.52008,45.45163 7.74852,-66.33481 3.2128,29.95461 -8.032,36.19122 -9.5439,-12.47322 17.19792,-23.05654"
       id="path6054"
       inkscape:connector-curvature="0"
       inkscape:export-filename="/home/siqueira/Documents/Repositories/siqueira.xyz/images/underConstruction_a2c.png"
       inkscape:export-xdpi="144.75999"
       inkscape:export-ydpi="144.75999" />
    <path
       style="fill:none;stroke:#000000;stroke-width:0.26458332px;stroke-linecap:butt;stroke-linejoin:miter;stroke-opacity:1"
       d="m 154.87574,200.42708 0.28348,4.91369 3.96875,-1.5119 5.66965,5.66964 7.74851,-3.02381 8.03199,4.53572 6.70908,-3.87426 8.97693,2.83482 6.61459,-5.10268 6.70907,0.28348 0.0945,-4.34672 -3.02381,6.70907 -8.40997,-1.60639 -6.52009,4.81919 -9.63839,-3.49628 -5.95313,3.40179 -6.70908,-4.44122 -7.46503,2.45684 -6.89806,-5.48065 2.07887,-0.18899 1.32292,4.53571 3.59077,-2.64583 4.15774,4.7247 7.9375,-2.92931 7.74851,4.25223 7.55952,-4.06324 8.69345,2.74032 6.99256,-5.48065 4.8192,-0.0945 -2.07887,2.92931 -7.65402,-1.5119 -5.95312,4.7247 -9.73289,-3.1183 -6.14211,3.68526 -7.18155,-4.44122 -7.74851,2.83482 -7.37054,-6.70907 -1.41741,0.56696 2.26786,3.77976 4.06324,-2.26785 10.20536,5.85863 7.74851,-3.30729 8.032,4.06324 6.99256,-4.91369 8.03199,2.45684 5.00819,-5.48065 2.64583,0.28348 -5.48066,4.8192 -8.22098,-2.26786 -5.85863,4.8192 -9.4494,-3.49628 -6.3311,3.21279 -7.65402,-4.91369 -6.70908,2.45685 -5.10268,-3.68527 3.40179,-0.85045 9.92187,6.52009 8.59896,-3.21279 7.08705,3.96875 8.22098,-4.44122 7.84301,2.83482 9.82738,-6.52009 -1.98437,-0.18899 -11.52828,7.55952 -16.06399,-3.30729 -10.48883,3.68527 -5.38617,-5.19717 -4.6302,2.45684 -4.91369,-5.29166 2.26785,0.47247 15.59152,7.37053"
       id="path6056"
       inkscape:connector-curvature="0"
       inkscape:export-filename="/home/siqueira/Documents/Repositories/siqueira.xyz/images/underConstruction_a2c.png"
       inkscape:export-xdpi="144.75999"
       inkscape:export-ydpi="144.75999" />
    <path
       style="fill:none;stroke:#000000;stroke-width:0.26458332px;stroke-linecap:butt;stroke-linejoin:miter;stroke-opacity:1"
       d="m 173.58556,50.276042 5.00819,-2.267857 8.31547,0.377976 4.15774,2.267857 -4.63021,1.795389 -3.77976,-4.535715 -3.2128,4.724701 -4.25223,-3.779761 -0.56696,2.55134 4.7247,-3.590774 3.68527,4.913688 3.40178,-4.346725 2.64584,3.496281 1.5119,-2.55134 -6.14211,3.49628 -3.30729,-4.630208 -4.34673,3.96875 -2.26786,-2.740327 7.08706,3.307289 3.1183,-4.913688 3.1183,4.535713 1.32292,-3.496279 2.07887,1.039435 -13.41816,2.456844 -0.94494,-4.063244 -2.83482,2.929316 14.74107,-2.740326"
       id="path6058"
       inkscape:connector-curvature="0"
       inkscape:export-filename="/home/siqueira/Documents/Repositories/siqueira.xyz/images/underConstruction_a2c.png"
       inkscape:export-xdpi="144.75999"
       inkscape:export-ydpi="144.75999" />
    <path
       style="fill:none;stroke:#000000;stroke-width:0.26458332px;stroke-linecap:butt;stroke-linejoin:miter;stroke-opacity:1"
       d="m 173.58556,58.024553 0.0945,-2.740327 -0.47247,-2.36235"
       id="path6060"
       inkscape:connector-curvature="0"
       inkscape:export-filename="/home/siqueira/Documents/Repositories/siqueira.xyz/images/underConstruction_a2c.png"
       inkscape:export-xdpi="144.75999"
       inkscape:export-ydpi="144.75999" />
    <path
       style="fill:none;stroke:#000000;stroke-width:0.26458332px;stroke-linecap:butt;stroke-linejoin:miter;stroke-opacity:1"
       d="m 191.82291,60.4814 6.14212,-0.944941 1.03943,5.575149 1.32292,10.016368 -1.41741,11.433781 1.5119,9.35491 -0.85045,3.590774 -0.47246,-4.346726 1.03943,-9.638392 -1.03943,-10.394347 1.13392,-6.898066 -1.6064,-4.346725 0.85045,-2.456844 -2.45685,0.94494 0.66146,-2.834822 -2.17336,1.700892 0.28348,-2.456844 -2.45684,1.889879 -0.0945,-1.984375 -2.64583,2.173365"
       id="path6062"
       inkscape:connector-curvature="0"
       inkscape:export-filename="/home/siqueira/Documents/Repositories/siqueira.xyz/images/underConstruction_a2c.png"
       inkscape:export-xdpi="144.75999"
       inkscape:export-ydpi="144.75999" />
    <path
       style="fill:none;stroke:#000000;stroke-width:0.26458332px;stroke-linecap:butt;stroke-linejoin:miter;stroke-opacity:1"
       d="m 194.70585,116.45944 0.53454,2.00452 -0.13364,4.54358 0.13364,4.27631 -0.26727,4.67722"
       id="path6064"
       inkscape:connector-curvature="0"
       inkscape:export-filename="/home/siqueira/Documents/Repositories/siqueira.xyz/images/underConstruction_a2c.png"
       inkscape:export-xdpi="144.75999"
       inkscape:export-ydpi="144.75999" />
    <path
       style="fill:none;stroke:#000000;stroke-width:0.26458332px;stroke-linecap:butt;stroke-linejoin:miter;stroke-opacity:1"
       d="m 169.44888,132.0947 1.87088,1.20272 2.00452,0.4009 2.13816,0.93544"
       id="path6066"
       inkscape:connector-curvature="0"
       inkscape:export-filename="/home/siqueira/Documents/Repositories/siqueira.xyz/images/underConstruction_a2c.png"
       inkscape:export-xdpi="144.75999"
       inkscape:export-ydpi="144.75999" />
    <path
       style="fill:none;stroke:#000000;stroke-width:0.26458332px;stroke-linecap:butt;stroke-linejoin:miter;stroke-opacity:1"
       d="m 11.339286,116.70536 0.377976,4.91369 -0.188988,5.29166"
       id="path6068"
       inkscape:connector-curvature="0"
       inkscape:export-filename="/home/siqueira/Documents/Repositories/siqueira.xyz/images/underConstruction_a2c.png"
       inkscape:export-xdpi="144.75999"
       inkscape:export-ydpi="144.75999" />
    <path
       style="fill:none;stroke:#000000;stroke-width:0.26458332px;stroke-linecap:butt;stroke-linejoin:miter;stroke-opacity:1"
       d="m 15.402529,193.62351 -2.362351,0.56696 -2.834821,0.18899 -2.3623512,0.66146 4.9136902,-1.22842 2.456845,0.18899"
       id="path6070"
       inkscape:connector-curvature="0"
       inkscape:export-filename="/home/siqueira/Documents/Repositories/siqueira.xyz/images/underConstruction_a2c.png"
       inkscape:export-xdpi="144.75999"
       inkscape:export-ydpi="144.75999" />
    <path
       style="fill:none;stroke:#000000;stroke-width:0.26458332px;stroke-linecap:butt;stroke-linejoin:miter;stroke-opacity:1"
       d="m 191.53943,193.718 3.77976,0.75596 3.49628,0.0945 1.03944,0.37798 -4.44122,-0.75596"
       id="path6072"
       inkscape:connector-curvature="0"
       inkscape:export-filename="/home/siqueira/Documents/Repositories/siqueira.xyz/images/underConstruction_a2c.png"
       inkscape:export-xdpi="144.75999"
       inkscape:export-ydpi="144.75999" />
    <path
       style="fill:none;stroke:#000000;stroke-width:0.26458332px;stroke-linecap:butt;stroke-linejoin:miter;stroke-opacity:1"
       d="m 172.82961,194.37946 -3.59077,-0.18899 -2.64584,0.56697 5.29167,-1.32292 1.03943,0.18899"
       id="path6074"
       inkscape:connector-curvature="0"
       inkscape:export-filename="/home/siqueira/Documents/Repositories/siqueira.xyz/images/underConstruction_a2c.png"
       inkscape:export-xdpi="144.75999"
       inkscape:export-ydpi="144.75999" />
  </g>
</svg>
