<?xml version="1.0" encoding="UTF-8" standalone="no"?>
<!-- Created with Inkscape (http://www.inkscape.org/) -->

<svg
   xmlns:dc="http://purl.org/dc/elements/1.1/"
   xmlns:cc="http://creativecommons.org/ns#"
   xmlns:rdf="http://www.w3.org/1999/02/22-rdf-syntax-ns#"
   xmlns:svg="http://www.w3.org/2000/svg"
   xmlns="http://www.w3.org/2000/svg"
   xmlns:sodipodi="http://sodipodi.sourceforge.net/DTD/sodipodi-0.dtd"
   xmlns:inkscape="http://www.inkscape.org/namespaces/inkscape"
   width="210mm"
   height="297mm"
   viewBox="0 0 210 297"
   version="1.1"
   id="svg8"
   inkscape:version="0.92.2 2405546, 2018-03-11"
   sodipodi:docname="guy_with_suit.svg">
  <defs
     id="defs2">
    <filter
       inkscape:collect="always"
       style="color-interpolation-filters:sRGB"
       id="filter1028"
       x="-0.01394012"
       width="1.0278802"
       y="-0.021163634"
       height="1.0423273">
      <feGaussianBlur
         inkscape:collect="always"
         stdDeviation="0.51850287"
         id="feGaussianBlur1030" />
    </filter>
    <filter
       inkscape:collect="always"
       style="color-interpolation-filters:sRGB"
       id="filter1032"
       x="-0.13115496"
       width="1.2623099"
       y="-0.036661417"
       height="1.0733228">
      <feGaussianBlur
         inkscape:collect="always"
         stdDeviation="0.51850287"
         id="feGaussianBlur1034" />
    </filter>
    <filter
       inkscape:collect="always"
       style="color-interpolation-filters:sRGB"
       id="filter1036"
       x="-0.096999985"
       width="1.194"
       y="-0.12933337"
       height="1.2586667">
      <feGaussianBlur
         inkscape:collect="always"
         stdDeviation="0.51850287"
         id="feGaussianBlur1038" />
    </filter>
    <filter
       inkscape:collect="always"
       style="color-interpolation-filters:sRGB"
       id="filter1040"
       x="-0.023815856"
       width="1.0476317"
       y="-0.019563024"
       height="1.039126">
      <feGaussianBlur
         inkscape:collect="always"
         stdDeviation="0.51850287"
         id="feGaussianBlur1042" />
    </filter>
  </defs>
  <sodipodi:namedview
     id="base"
     pagecolor="#ffffff"
     bordercolor="#666666"
     borderopacity="1.0"
     inkscape:pageopacity="0.0"
     inkscape:pageshadow="2"
     inkscape:zoom="0.98994949"
     inkscape:cx="304.00372"
     inkscape:cy="656.93899"
     inkscape:document-units="mm"
     inkscape:current-layer="layer1"
     showgrid="false"
     inkscape:window-width="1920"
     inkscape:window-height="1039"
     inkscape:window-x="0"
     inkscape:window-y="0"
     inkscape:window-maximized="1"
     inkscape:object-nodes="false" />
  <metadata
     id="metadata5">
    <rdf:RDF>
      <cc:Work
         rdf:about="">
        <dc:format>image/svg+xml</dc:format>
        <dc:type
           rdf:resource="http://purl.org/dc/dcmitype/StillImage" />
        <dc:title></dc:title>
      </cc:Work>
    </rdf:RDF>
  </metadata>
  <g
     inkscape:label="Layer 1"
     inkscape:groupmode="layer"
     id="layer1">
    <path
       inkscape:connector-curvature="0"
       id="path1020"
       d="m 61.043155,115.9494 -29.671131,33.63988 10.016368,19.65476 26.765337,-17.63867 -14.298919,-31.5378 -22.851544,44.63401 35.145943,-18.30796 -16.169807,-24.45516 -13.630746,9.08716 -5.479026,23.78699 3.875408,12.6953 31.938708,-18.8425 -23.920621,-24.5888 -9.621703,14.16529 32.606882,36.08139 53.587536,-16.97162 -31.80507,-17.63979 10.156242,32.47325 10.156238,-47.17307 7.48355,10.42351 -5.34539,33.67596 -21.114294,-53.45391 10.824417,55.99297 -16.570711,-19.77795 8.018086,20.98066 8.018084,-51.98392 16.303438,46.37126 -3.07359,-38.35318 -9.08717,-6.01356 -14.031649,-1.73725 28.597839,23.78699 -4.54358,23.11881 -24.187895,-32.87415 -0.935442,38.48681 -8.953529,-12.42803 0.400905,13.09621 -3.207235,-6.01357 -2.53906,6.1472 -28.33057,-51.18211 -15.234364,36.08138 8.018087,9.35443 34.344133,-4.27631 -40.758602,-17.90706 31.404168,-7.88445 -25.791509,-10.55714 23.51972,-3.0736 -6.280835,-6.01357 -5.746295,52.51846 20.579755,-15.63526 5.746294,18.4416 19.777946,-54.52299 9.621698,50.38031 5.07813,-44.36674 9.08716,38.62044 -2.00452,2.40543 -45.836726,7.61718 -38.754081,-8.15172 -2.271792,-4.00904 30.735995,-32.74052 -3.474503,-11.35896 3.741774,2.80633 -28.597841,22.04974 23.118815,29.80055 18.040694,-5.87993 -38.887717,-33.27505 26.326049,-0.80181 -8.418991,38.88771 -13.096206,-45.70309 -7.483546,18.70887 46.103992,29.66692 40.758604,-21.11429 -28.86511,-25.65788 2.80633,-9.08716 24.05426,21.9161 -22.450644,32.20598 -14.566189,-13.76438 33.542323,-27.39513 -13.22984,-10.15624"
       style="fill:none;stroke:#000000;stroke-width:1;stroke-linecap:round;stroke-linejoin:round;stroke-opacity:1;stroke-miterlimit:4;stroke-dasharray:none;filter:url(#filter1028)" />
    <path
       inkscape:connector-curvature="0"
       id="path1022"
       d="m 75.102738,132.4956 -4.677217,3.0736 7.082642,18.57524 -3.073602,6.28083 1.069079,5.87993 0.400904,-33.94323 4.009043,6.1472 -7.483546,9.6217 4.677217,9.6217 -2.80633,1.06908 2.27179,1.20272 -1.870885,1.20271 1.737251,0.93544 -1.069078,1.06908 0.267269,0.93544 2.939966,-29.80055 0.668173,8.41899 -5.746295,11.09169 2.672697,5.34539"
       style="fill:none;stroke:#000000;stroke-width:1;stroke-linecap:butt;stroke-linejoin:miter;stroke-opacity:1;stroke-miterlimit:4;stroke-dasharray:none;filter:url(#filter1032)" />
    <path
       inkscape:connector-curvature="0"
       id="path1024"
       d="m 69.089171,121.93846 c 0.267272,0.53454 8.418992,7.34991 8.418992,7.34991 l -3.207235,1.20271 2.138156,-7.61718 5.479026,-0.4009 -8.819895,6.28083 1.469982,-5.34539 4.009044,3.20724 -2.80633,4.94448 -2.939965,-8.55262 -1.202714,3.20723 8.15172,-0.80181"
       style="fill:none;stroke:#000000;stroke-width:1;stroke-linecap:round;stroke-linejoin:round;stroke-opacity:1;stroke-miterlimit:4;stroke-dasharray:none;filter:url(#filter1036)" />
    <path
       inkscape:connector-curvature="0"
       id="path1026"
       d="m 73.766388,56.32379 -24.455162,19.377041 37.284099,38.620449 10.958052,-44.767649 3.474503,4.276313 -47.306706,24.455162 6.949009,-35.01231 5.34539,-5.612659 31.537804,9.354434 -40.758602,37.284099 16.30344,15.50163 18.307962,-11.49259 -5.34539,-48.375781 h 3.741774 l 3.073599,2.939963 -30.602362,50.113038 31.537804,-10.55715 -40.624966,-32.205975 1.870885,-5.211755 45.302189,15.768902 0.80181,6.013564 -4.543586,4.009043 -20.045216,-33.007786 3.741774,-1.069078 4.543581,2.405425 -34.076864,23.920621 0.267271,3.741775 4.009041,3.340867 3.34087,-25.791509 7.750818,52.251196 L 80.715397,56.991964 82.185379,117.92942 94.212507,64.609146 96.350663,97.616932 69.490076,118.73122 62.54107,59.397389 101.56242,83.718915 55.992966,101.49234 78.443605,119.53303 75.770911,57.125599 53.186636,94.543331 94.88068,100.42326 53.721174,91.336097 h 42.89676 L 54.923888,100.15599 95.548856,99.354184 57.195677,64.47551 100.76061,76.235369 50.647576,81.046221 49.712131,73.028134 53.186636,71.023614 99.424264,89.46521 99.290628,79.576238 91.807082,61.13464 50.781209,85.857071 l 46.237627,7.082644 -37.551367,16.570705 25.657876,5.7463 4.677216,-4.54358 -35.947751,-43.4313 5.078121,40.62497 4.944486,6.94901 12.695301,5.07812 4.543583,-1.33635 16.30344,-49.712132 -33.943229,-10.289879"
       style="fill:none;stroke:#000000;stroke-width:1;stroke-linecap:round;stroke-linejoin:round;stroke-opacity:1;stroke-miterlimit:4;stroke-dasharray:none;filter:url(#filter1040)" />
    <path
       style="fill:none;stroke:#000000;stroke-width:1;stroke-linecap:round;stroke-linejoin:round;stroke-opacity:1;stroke-miterlimit:4;stroke-dasharray:none"
       d="m 61.043155,115.9494 -29.671131,33.63988 10.016368,19.65476 26.765337,-17.63867 -14.298919,-31.5378 -22.851544,44.63401 35.145943,-18.30796 -16.169807,-24.45516 -13.630746,9.08716 -5.479026,23.78699 3.875408,12.6953 31.938708,-18.8425 -23.920621,-24.5888 -9.621703,14.16529 32.606882,36.08139 53.587536,-16.97162 -31.80507,-17.63979 10.156242,32.47325 10.156238,-47.17307 7.48355,10.42351 -5.34539,33.67596 -21.114294,-53.45391 10.824417,55.99297 -16.570711,-19.77795 8.018086,20.98066 8.018084,-51.98392 16.303438,46.37126 -3.07359,-38.35318 -9.08717,-6.01356 -14.031649,-1.73725 28.597839,23.78699 -4.54358,23.11881 -24.187895,-32.87415 -0.935442,38.48681 -8.953529,-12.42803 0.400905,13.09621 -3.207235,-6.01357 -2.53906,6.1472 -28.33057,-51.18211 -15.234364,36.08138 8.018087,9.35443 34.344133,-4.27631 -40.758602,-17.90706 31.404168,-7.88445 -25.791509,-10.55714 23.51972,-3.0736 -6.280835,-6.01357 -5.746295,52.51846 20.579755,-15.63526 5.746294,18.4416 19.777946,-54.52299 9.621698,50.38031 5.07813,-44.36674 9.08716,38.62044 -2.00452,2.40543 -45.836726,7.61718 -38.754081,-8.15172 -2.271792,-4.00904 30.735995,-32.74052 -3.474503,-11.35896 3.741774,2.80633 -28.597841,22.04974 23.118815,29.80055 18.040694,-5.87993 -38.887717,-33.27505 26.326049,-0.80181 -8.418991,38.88771 -13.096206,-45.70309 -7.483546,18.70887 46.103992,29.66692 40.758604,-21.11429 -28.86511,-25.65788 2.80633,-9.08716 24.05426,21.9161 -22.450644,32.20598 -14.566189,-13.76438 33.542323,-27.39513 -13.22984,-10.15624"
       id="path947"
       inkscape:connector-curvature="0" />
    <path
       style="fill:none;stroke:#000000;stroke-width:1;stroke-linecap:butt;stroke-linejoin:miter;stroke-opacity:1;stroke-miterlimit:4;stroke-dasharray:none"
       d="m 75.102738,132.4956 -4.677217,3.0736 7.082642,18.57524 -3.073602,6.28083 1.069079,5.87993 0.400904,-33.94323 4.009043,6.1472 -7.483546,9.6217 4.677217,9.6217 -2.80633,1.06908 2.27179,1.20272 -1.870885,1.20271 1.737251,0.93544 -1.069078,1.06908 0.267269,0.93544 2.939966,-29.80055 0.668173,8.41899 -5.746295,11.09169 2.672697,5.34539"
       id="path949"
       inkscape:connector-curvature="0" />
    <path
       style="fill:none;stroke:#000000;stroke-width:1;stroke-linecap:round;stroke-linejoin:round;stroke-opacity:1;stroke-miterlimit:4;stroke-dasharray:none"
       d="m 69.089171,121.93846 c 0.267272,0.53454 8.418992,7.34991 8.418992,7.34991 l -3.207235,1.20271 2.138156,-7.61718 5.479026,-0.4009 -8.819895,6.28083 1.469982,-5.34539 4.009044,3.20724 -2.80633,4.94448 -2.939965,-8.55262 -1.202714,3.20723 8.15172,-0.80181"
       id="path951"
       inkscape:connector-curvature="0" />
    <path
       style="fill:none;stroke:#000000;stroke-width:1;stroke-linecap:round;stroke-linejoin:round;stroke-opacity:1;stroke-miterlimit:4;stroke-dasharray:none"
       d="m 73.766388,56.32379 -24.455162,19.377041 37.284099,38.620449 10.958052,-44.767649 3.474503,4.276313 -47.306706,24.455162 6.949009,-35.01231 5.34539,-5.612659 31.537804,9.354434 -40.758602,37.284099 16.30344,15.50163 18.307962,-11.49259 -5.34539,-48.375781 h 3.741774 l 3.073599,2.939963 -30.602362,50.113038 31.537804,-10.55715 -40.624966,-32.205975 1.870885,-5.211755 45.302189,15.768902 0.80181,6.013564 -4.543586,4.009043 -20.045216,-33.007786 3.741774,-1.069078 4.543581,2.405425 -34.076864,23.920621 0.267271,3.741775 4.009041,3.340867 3.34087,-25.791509 7.750818,52.251196 L 80.715397,56.991964 82.185379,117.92942 94.212507,64.609146 96.350663,97.616932 69.490076,118.73122 62.54107,59.397389 101.56242,83.718915 55.992966,101.49234 78.443605,119.53303 75.770911,57.125599 53.186636,94.543331 94.88068,100.42326 53.721174,91.336097 h 42.89676 L 54.923888,100.15599 95.548856,99.354184 57.195677,64.47551 100.76061,76.235369 50.647576,81.046221 49.712131,73.028134 53.186636,71.023614 99.424264,89.46521 99.290628,79.576238 91.807082,61.13464 50.781209,85.857071 l 46.237627,7.082644 -37.551367,16.570705 25.657876,5.7463 4.677216,-4.54358 -35.947751,-43.4313 5.078121,40.62497 4.944486,6.94901 12.695301,5.07812 4.543583,-1.33635 16.30344,-49.712132 -33.943229,-10.289879"
       id="path1018"
       inkscape:connector-curvature="0" />
  </g>
</svg>
