<?xml version="1.0" encoding="UTF-8" standalone="no"?>
<!-- Created with Inkscape (http://www.inkscape.org/) -->

<svg
   xmlns:dc="http://purl.org/dc/elements/1.1/"
   xmlns:cc="http://creativecommons.org/ns#"
   xmlns:rdf="http://www.w3.org/1999/02/22-rdf-syntax-ns#"
   xmlns:svg="http://www.w3.org/2000/svg"
   xmlns="http://www.w3.org/2000/svg"
   xmlns:sodipodi="http://sodipodi.sourceforge.net/DTD/sodipodi-0.dtd"
   xmlns:inkscape="http://www.inkscape.org/namespaces/inkscape"
   width="210mm"
   height="297mm"
   viewBox="0 0 210 297"
   version="1.1"
   id="svg8"
   sodipodi:docname="programming_2.svg"
   inkscape:version="0.92.4 5da689c313, 2019-01-14">
  <defs
     id="defs2">
    <filter
       inkscape:collect="always"
       style="color-interpolation-filters:sRGB"
       id="filter1099"
       x="-0.027436008"
       width="1.054872"
       y="-0.021401015"
       height="1.042802">
      <feGaussianBlur
         inkscape:collect="always"
         stdDeviation="0.86573508"
         id="feGaussianBlur1101" />
    </filter>
    <filter
       inkscape:collect="always"
       style="color-interpolation-filters:sRGB"
       id="filter1103"
       x="-0.24799975"
       width="1.4959995"
       y="-1.1498228"
       height="3.2996455">
      <feGaussianBlur
         inkscape:collect="always"
         stdDeviation="0.86573508"
         id="feGaussianBlur1105" />
    </filter>
    <filter
       inkscape:collect="always"
       style="color-interpolation-filters:sRGB"
       id="filter1107"
       x="-0.2007618"
       width="1.4015236"
       y="-0.54991311"
       height="2.0998262">
      <feGaussianBlur
         inkscape:collect="always"
         stdDeviation="0.86573508"
         id="feGaussianBlur1109" />
    </filter>
    <filter
       inkscape:collect="always"
       style="color-interpolation-filters:sRGB"
       id="filter1111"
       x="-0.20734411"
       width="1.4146882"
       y="-4.2159856"
       height="9.4319713">
      <feGaussianBlur
         inkscape:collect="always"
         stdDeviation="0.86573508"
         id="feGaussianBlur1113" />
    </filter>
    <filter
       inkscape:collect="always"
       style="color-interpolation-filters:sRGB"
       id="filter1115"
       x="-0.082433269"
       width="1.1648665"
       y="-0.051621868"
       height="1.1032437">
      <feGaussianBlur
         inkscape:collect="always"
         stdDeviation="0.86573508"
         id="feGaussianBlur1117" />
    </filter>
  </defs>
  <sodipodi:namedview
     id="base"
     pagecolor="#ffffff"
     bordercolor="#666666"
     borderopacity="1.0"
     inkscape:pageopacity="0.0"
     inkscape:pageshadow="2"
     inkscape:zoom="0.56943359"
     inkscape:cx="294.3681"
     inkscape:cy="333.6875"
     inkscape:document-units="mm"
     inkscape:current-layer="layer1"
     showgrid="false"
     inkscape:object-nodes="false"
     inkscape:window-width="1920"
     inkscape:window-height="1039"
     inkscape:window-x="0"
     inkscape:window-y="0"
     inkscape:window-maximized="1" />
  <metadata
     id="metadata5">
    <rdf:RDF>
      <cc:Work
         rdf:about="">
        <dc:format>image/svg+xml</dc:format>
        <dc:type
           rdf:resource="http://purl.org/dc/dcmitype/StillImage" />
      </cc:Work>
    </rdf:RDF>
  </metadata>
  <g
     inkscape:label="Layer 1"
     inkscape:groupmode="layer"
     id="layer1">
    <path
       inkscape:connector-curvature="0"
       id="path1029"
       d="m 120.25011,181.51389 1.14993,-6.24249 -8.70663,-2.79269 1.97131,-8.21381 -8.04953,-7.88525 3.61408,-9.03519 3.94262,5.58539 -5.91393,11.49933 7.72097,3.28552 0.65711,8.87091 5.09255,-1.64276 -3.61407,3.61407 0.49283,-6.89959 -8.21381,-1.80704 3.4498,-8.70663 -6.40677,-7.5567 7.39243,-4.10691 -3.77835,-3.77835 -3.4498,15.44196 6.24249,1.64276 -4.43545,4.27118 5.74966,-0.65711 -1.31421,8.37808 6.07822,-0.82138 -0.98566,5.58539 2.13559,-0.82138 -3.61407,-8.2138 -8.70664,-4.43546 4.43546,-9.19946 -5.74967,-6.07822 7.72098,-4.1069 0.32855,-5.42111 5.74967,4.1069 3.12124,-11.0065 6.8996,9.03519 -6.07822,2.13559 4.1069,3.28552 -2.62841,-0.98566 2.62841,-1.64276 -4.1069,-2.13559 10.3494,-10.34939 -0.32856,6.73532 5.91394,-3.77835 -1.14993,3.44979 h 5.58539 l -5.42111,5.09256 4.76401,0.49283 -2.46415,2.46414 3.77835,1.47849 -2.29986,0.16428 0.98566,-1.97132 -3.77836,-1.31421 5.09256,-2.13559 0.82138,-2.46414 0.82139,6.57105 6.40676,3.77835 -5.91394,5.25683 5.09256,7.22815 -6.24249,0.65711 1.97131,7.72097 h -6.73532 l -1.31421,7.06387 -0.49282,-5.42111 5.42111,2.29987 -1.14993,-6.24249 6.73532,-1.31421 -3.61408,-7.88525 7.39243,-1.64277 -7.5567,-5.25683 5.42111,-5.09256 -5.91394,-3.12125 2.79269,-1.97131 -1.47848,7.06387 6.89959,5.42111 -7.39242,2.62842 4.43545,7.06388 -6.73532,1.14993 1.80704,6.89959 -5.42111,-0.82138 1.47848,4.43546 -2.79269,-0.98566 2.62842,-5.58539 6.89959,-0.32855 -2.79269,-7.88525 6.8996,-1.80704 -5.91394,-8.54236 3.44979,-5.91394 -4.1069,-0.16427 0.32855,-3.77835 -1.64276,1.14993 -0.6571,-3.4498 -2.46414,7.5567 -0.49283,-9.85656 -2.95697,2.95697 5.25683,3.61407 -3.44979,2.13559 -0.32856,-10.02084 4.27118,7.06387 -0.49283,-4.43546 -5.09256,3.12125 5.09256,6.07822 -5.91394,-13.7992 -0.98565,4.27118 -1.14994,-5.58539 -2.29986,6.57105 -2.95697,-7.5567 0.16427,8.70663 -6.57104,4.43546 3.61407,0.82138 -0.82138,1.47848 0.16428,-15.44195 5.42111,7.88525 2.46414,-6.8996 0.98566,5.74967 -3.77835,-6.40677 -0.49283,8.04953 -7.06387,-7.22815 -1.47849,8.87091 -6.57104,-4.92828 1.97131,7.72097 -1.80703,2.95698 -1.64276,-9.6923 6.57104,4.43546 -1.64276,-7.39243 9.52801,7.06388 -11.33505,-5.42111 -7.06387,5.91394 -0.98566,9.69229 2.62842,-2.7927 -2.29986,-5.09256 3.61407,-0.32855 -1.80704,-1.80704 -1.14993,11.17078 0.98566,3.94263 0.32855,-16.59189 5.91394,4.92828 -2.29987,-0.49283 2.95697,-9.03518 9.52802,-4.10691 v 10.84223 l -4.10691,0.82138 1.14993,-11.17078 4.92829,8.70664 -1.14993,-9.36374 18.5632,11.6636 5.74966,10.84223 -13.79919,24.14858 5.25683,-13.96347 7.06388,-13.30636 -0.98566,14.62057 -10.84222,12.32071 -1.64277,1.97131 4.76401,-4.59973 -0.82138,-6.40676 8.54236,-2.95697 -3.77835,-17.08472 -1.97132,-9.52801 -23.49148,-4.59974 -16.92044,22.013 9.52802,18.23465 4.59973,2.79269 -13.96347,-24.80569 9.85657,14.94913 2.46414,9.85656 1.97131,-5.58538 -9.52801,-2.46414 -1.47849,-23.82004 -3.28552,-1.97131 16.09906,-25.79135 20.86306,2.46414 4.76401,20.86306 7.06387,4.27118 -0.16427,8.54236 -5.25684,-25.62707 -34.16943,-5.58539 -6.57104,11.17078 4.43545,6.40676 18.72748,-25.46279 10.51367,21.02734 11.17077,1.97131 -3.12124,6.8996 4.27118,2.79269 -1.47849,1.80704 0.65711,-7.06387 -7.88526,-3.61408 0.65711,-14.4563 -9.19947,8.54236 -0.16427,-15.60623 -5.91394,13.7992 -5.09256,-14.62058 -0.82138,15.27768 -12.32071,-6.07822 3.28552,12.48499 -9.19946,-0.49283 3.28552,5.42111 -4.43545,3.61408 0.98566,1.80703 -1.47849,4.76401 1.47849,-13.14209 5.09256,1.64276 -1.47849,-13.30636 11.49933,5.25683 -3.94263,-12.81353 10.51367,10.02084 6.40677,-14.62057 4.76401,17.90609 11.49932,-1.31421 -2.95697,8.54236 5.09256,-0.82138 -14.12774,-22.013 -11.66361,-2.79269 -3.94262,16.59188 -9.03519,-8.70663 -0.98565,15.93478 -5.74967,-2.95697 -0.98565,12.81354 10.51367,30.2268 3.77835,-0.16427 -13.30637,-6.73532 0.49283,6.40676 -6.40677,-2.13559 -0.16427,4.92829 -7.063876,5.91394 10.513676,9.36374 -10.349401,10.34939 10.185121,4.27118 3.12125,-1.64276 2.13558,1.47849 -10.02084,-0.65711 6.24249,-6.24249 -14.292017,-8.21381 10.677947,-8.04953 -5.092561,-6.57104 4.928281,-1.80704 2.46415,-5.09256 7.5567,4.27118 -1.14994,-8.2138 9.19946,8.37808 -14.45629,-5.42111 -1.14993,5.58538 -5.42112,0.16428 -2.299863,29.73398 9.856573,-1.80704 -14.620581,-5.42111 10.677951,-9.19947 -7.392426,-8.54235 5.913936,-1.14994 -8.213803,7.72098 11.499333,8.70663 -6.07822,10.18512 8.21381,-1.31421 -0.32856,3.28553 -12.813534,-6.8996 9.856564,-10.02084 -10.185116,-5.58539 7.885256,-4.27118 -9.199465,14.12775 12.977815,2.62841 -12.484986,-7.88525 8.049526,-16.09906 14.12775,1.64276 11.33505,-0.16427 h 13.96347 l 14.4563,-4.27118 2.46414,5.25683 7.22815,5.25684 -8.37809,5.91394 10.18512,13.63492 -13.79919,3.94262 1.97131,2.29987 6.40677,-1.64276 -6.73532,-9.19946 12.97781,-6.40677 -10.02084,-6.2425 5.42111,-5.42111 4.27118,8.54236 -11.99215,6.24249 8.37808,11.17078 -12.97782,3.28552 6.8996,-0.49283 -3.77835,-6.40677 14.4563,-5.09256 -11.0065,-10.34939 8.54236,-1.31421 -7.5567,-3.77835 3.44979,-3.12125 -3.77835,-0.82138 0.82138,-3.28552 -4.59973,2.13559 -1.97131,-6.73532 -5.25684,6.40677 -1.31421,-3.61408 -3.61407,3.77835 -1.14993,-0.16427 9.69229,-7.22815 0.49283,8.04953 6.07821,-3.28552 11.17078,22.013 -9.03519,12.3207 -5.09256,-7.88525 13.96347,-6.8996 -10.51367,-10.02084 2.95697,-5.74966 5.74967,26.94128 -13.63492,-0.6571 15.44195,-13.63492 -10.67795,-3.61408 3.12125,-9.52801 -12.81354,-6.40677 -3.12124,6.07822 9.52801,-5.25684 -2.13559,5.25684"
       style="fill:none;stroke:#000000;stroke-width:0.7;stroke-linecap:round;stroke-linejoin:round;stroke-opacity:1;stroke-miterlimit:4;stroke-dasharray:none;filter:url(#filter1099)" />
    <path
       inkscape:connector-curvature="0"
       id="path1031"
       d="m 123.37135,177.07844 3.77835,1.80703 h 4.59974"
       style="fill:none;stroke:#000000;stroke-width:0.7;stroke-linecap:round;stroke-linejoin:round;stroke-opacity:1;stroke-miterlimit:4;stroke-dasharray:none;filter:url(#filter1103)" />
    <path
       inkscape:connector-curvature="0"
       id="path1033"
       d="m 128.13536,199.91282 4.43546,-0.32855 4.59973,-1.31421 1.31421,-2.13559"
       style="fill:none;stroke:#000000;stroke-width:0.7;stroke-linecap:round;stroke-linejoin:round;stroke-opacity:1;stroke-miterlimit:4;stroke-dasharray:none;filter:url(#filter1107)" />
    <path
       inkscape:connector-curvature="0"
       id="path1035"
       d="m 125.99977,214.20484 4.43546,-0.49283 5.58539,0.32855"
       style="fill:none;stroke:#000000;stroke-width:0.7;stroke-linecap:round;stroke-linejoin:round;stroke-opacity:1;stroke-miterlimit:4;stroke-dasharray:none;filter:url(#filter1111)" />
    <path
       inkscape:connector-curvature="0"
       id="path1037"
       d="m 143.98125,181.24581 0.69696,-3.19442 5.45956,-4.58835 -0.17424,7.78277 7.20196,-3.36866 -0.34848,3.5429 -5.16915,-7.37621 -2.78786,7.43429 0.69696,-8.59589 -5.05299,8.42165 c 0,0 -1.91665,-1.74241 -1.51009,-1.68433 0.40656,0.0581 14.5201,1.97473 14.5201,1.97473 l 2.67169,-1.21968 -1.10352,3.48482 4.18178,0.17424 -6.62116,12.83576 11.49991,7.55045 -14.34585,5.57572 5.28532,3.13633"
       style="fill:none;stroke:#000000;stroke-width:0.7;stroke-linecap:round;stroke-linejoin:round;stroke-opacity:1;stroke-miterlimit:4;stroke-dasharray:none;filter:url(#filter1115)" />
    <path
       style="fill:none;stroke:#000000;stroke-width:0.7;stroke-linecap:round;stroke-linejoin:round;stroke-opacity:1;stroke-miterlimit:4;stroke-dasharray:none"
       d="m 120.25011,181.51389 1.14993,-6.24249 -8.70663,-2.79269 1.97131,-8.21381 -8.04953,-7.88525 3.61408,-9.03519 3.94262,5.58539 -5.91393,11.49933 7.72097,3.28552 0.65711,8.87091 5.09255,-1.64276 -3.61407,3.61407 0.49283,-6.89959 -8.21381,-1.80704 3.4498,-8.70663 -6.40677,-7.5567 7.39243,-4.10691 -3.77835,-3.77835 -3.4498,15.44196 6.24249,1.64276 -4.43545,4.27118 5.74966,-0.65711 -1.31421,8.37808 6.07822,-0.82138 -0.98566,5.58539 2.13559,-0.82138 -3.61407,-8.2138 -8.70664,-4.43546 4.43546,-9.19946 -5.74967,-6.07822 7.72098,-4.1069 0.32855,-5.42111 5.74967,4.1069 3.12124,-11.0065 6.8996,9.03519 -6.07822,2.13559 4.1069,3.28552 -2.62841,-0.98566 2.62841,-1.64276 -4.1069,-2.13559 10.3494,-10.34939 -0.32856,6.73532 5.91394,-3.77835 -1.14993,3.44979 h 5.58539 l -5.42111,5.09256 4.76401,0.49283 -2.46415,2.46414 3.77835,1.47849 -2.29986,0.16428 0.98566,-1.97132 -3.77836,-1.31421 5.09256,-2.13559 0.82138,-2.46414 0.82139,6.57105 6.40676,3.77835 -5.91394,5.25683 5.09256,7.22815 -6.24249,0.65711 1.97131,7.72097 h -6.73532 l -1.31421,7.06387 -0.49282,-5.42111 5.42111,2.29987 -1.14993,-6.24249 6.73532,-1.31421 -3.61408,-7.88525 7.39243,-1.64277 -7.5567,-5.25683 5.42111,-5.09256 -5.91394,-3.12125 2.79269,-1.97131 -1.47848,7.06387 6.89959,5.42111 -7.39242,2.62842 4.43545,7.06388 -6.73532,1.14993 1.80704,6.89959 -5.42111,-0.82138 1.47848,4.43546 -2.79269,-0.98566 2.62842,-5.58539 6.89959,-0.32855 -2.79269,-7.88525 6.8996,-1.80704 -5.91394,-8.54236 3.44979,-5.91394 -4.1069,-0.16427 0.32855,-3.77835 -1.64276,1.14993 -0.6571,-3.4498 -2.46414,7.5567 -0.49283,-9.85656 -2.95697,2.95697 5.25683,3.61407 -3.44979,2.13559 -0.32856,-10.02084 4.27118,7.06387 -0.49283,-4.43546 -5.09256,3.12125 5.09256,6.07822 -5.91394,-13.7992 -0.98565,4.27118 -1.14994,-5.58539 -2.29986,6.57105 -2.95697,-7.5567 0.16427,8.70663 -6.57104,4.43546 3.61407,0.82138 -0.82138,1.47848 0.16428,-15.44195 5.42111,7.88525 2.46414,-6.8996 0.98566,5.74967 -3.77835,-6.40677 -0.49283,8.04953 -7.06387,-7.22815 -1.47849,8.87091 -6.57104,-4.92828 1.97131,7.72097 -1.80703,2.95698 -1.64276,-9.6923 6.57104,4.43546 -1.64276,-7.39243 9.52801,7.06388 -11.33505,-5.42111 -7.06387,5.91394 -0.98566,9.69229 2.62842,-2.7927 -2.29986,-5.09256 3.61407,-0.32855 -1.80704,-1.80704 -1.14993,11.17078 0.98566,3.94263 0.32855,-16.59189 5.91394,4.92828 -2.29987,-0.49283 2.95697,-9.03518 9.52802,-4.10691 v 10.84223 l -4.10691,0.82138 1.14993,-11.17078 4.92829,8.70664 -1.14993,-9.36374 18.5632,11.6636 5.74966,10.84223 -13.79919,24.14858 5.25683,-13.96347 7.06388,-13.30636 -0.98566,14.62057 -10.84222,12.32071 -1.64277,1.97131 4.76401,-4.59973 -0.82138,-6.40676 8.54236,-2.95697 -3.77835,-17.08472 -1.97132,-9.52801 -23.49148,-4.59974 -16.92044,22.013 9.52802,18.23465 4.59973,2.79269 -13.96347,-24.80569 9.85657,14.94913 2.46414,9.85656 1.97131,-5.58538 -9.52801,-2.46414 -1.47849,-23.82004 -3.28552,-1.97131 16.09906,-25.79135 20.86306,2.46414 4.76401,20.86306 7.06387,4.27118 -0.16427,8.54236 -5.25684,-25.62707 -34.16943,-5.58539 -6.57104,11.17078 4.43545,6.40676 18.72748,-25.46279 10.51367,21.02734 11.17077,1.97131 -3.12124,6.8996 4.27118,2.79269 -1.47849,1.80704 0.65711,-7.06387 -7.88526,-3.61408 0.65711,-14.4563 -9.19947,8.54236 -0.16427,-15.60623 -5.91394,13.7992 -5.09256,-14.62058 -0.82138,15.27768 -12.32071,-6.07822 3.28552,12.48499 -9.19946,-0.49283 3.28552,5.42111 -4.43545,3.61408 0.98566,1.80703 -1.47849,4.76401 1.47849,-13.14209 5.09256,1.64276 -1.47849,-13.30636 11.49933,5.25683 -3.94263,-12.81353 10.51367,10.02084 6.40677,-14.62057 4.76401,17.90609 11.49932,-1.31421 -2.95697,8.54236 5.09256,-0.82138 -14.12774,-22.013 -11.66361,-2.79269 -3.94262,16.59188 -9.03519,-8.70663 -0.98565,15.93478 -5.74967,-2.95697 -0.98565,12.81354 10.51367,30.2268 3.77835,-0.16427 -13.30637,-6.73532 0.49283,6.40676 -6.40677,-2.13559 -0.16427,4.92829 -7.063876,5.91394 10.513676,9.36374 -10.349401,10.34939 10.185121,4.27118 3.12125,-1.64276 2.13558,1.47849 -10.02084,-0.65711 6.24249,-6.24249 -14.292017,-8.21381 10.677947,-8.04953 -5.092561,-6.57104 4.928281,-1.80704 2.46415,-5.09256 7.5567,4.27118 -1.14994,-8.2138 9.19946,8.37808 -14.45629,-5.42111 -1.14993,5.58538 -5.42112,0.16428 -2.299863,29.73398 9.856573,-1.80704 -14.620581,-5.42111 10.677951,-9.19947 -7.392426,-8.54235 5.913936,-1.14994 -8.213803,7.72098 11.499333,8.70663 -6.07822,10.18512 8.21381,-1.31421 -0.32856,3.28553 -12.813534,-6.8996 9.856564,-10.02084 -10.185116,-5.58539 7.885256,-4.27118 -9.199465,14.12775 12.977815,2.62841 -12.484986,-7.88525 8.049526,-16.09906 14.12775,1.64276 11.33505,-0.16427 h 13.96347 l 14.4563,-4.27118 2.46414,5.25683 7.22815,5.25684 -8.37809,5.91394 10.18512,13.63492 -13.79919,3.94262 1.97131,2.29987 6.40677,-1.64276 -6.73532,-9.19946 12.97781,-6.40677 -10.02084,-6.2425 5.42111,-5.42111 4.27118,8.54236 -11.99215,6.24249 8.37808,11.17078 -12.97782,3.28552 6.8996,-0.49283 -3.77835,-6.40677 14.4563,-5.09256 -11.0065,-10.34939 8.54236,-1.31421 -7.5567,-3.77835 3.44979,-3.12125 -3.77835,-0.82138 0.82138,-3.28552 -4.59973,2.13559 -1.97131,-6.73532 -5.25684,6.40677 -1.31421,-3.61408 -3.61407,3.77835 -1.14993,-0.16427 9.69229,-7.22815 0.49283,8.04953 6.07821,-3.28552 11.17078,22.013 -9.03519,12.3207 -5.09256,-7.88525 13.96347,-6.8996 -10.51367,-10.02084 2.95697,-5.74966 5.74967,26.94128 -13.63492,-0.6571 15.44195,-13.63492 -10.67795,-3.61408 3.12125,-9.52801 -12.81354,-6.40677 -3.12124,6.07822 9.52801,-5.25684 -2.13559,5.25684"
       id="path960"
       inkscape:connector-curvature="0" />
    <path
       style="fill:none;stroke:#000000;stroke-width:0.7;stroke-linecap:round;stroke-linejoin:round;stroke-opacity:1;stroke-miterlimit:4;stroke-dasharray:none"
       d="m 123.37135,177.07844 3.77835,1.80703 h 4.59974"
       id="path962"
       inkscape:connector-curvature="0" />
    <path
       style="fill:none;stroke:#000000;stroke-width:0.7;stroke-linecap:round;stroke-linejoin:round;stroke-opacity:1;stroke-miterlimit:4;stroke-dasharray:none"
       d="m 128.13536,199.91282 4.43546,-0.32855 4.59973,-1.31421 1.31421,-2.13559"
       id="path964"
       inkscape:connector-curvature="0" />
    <path
       style="fill:none;stroke:#000000;stroke-width:0.7;stroke-linecap:round;stroke-linejoin:round;stroke-opacity:1;stroke-miterlimit:4;stroke-dasharray:none"
       d="m 125.99977,214.20484 4.43546,-0.49283 5.58539,0.32855"
       id="path966"
       inkscape:connector-curvature="0" />
    <path
       style="fill:none;stroke:#000000;stroke-width:0.7;stroke-linecap:round;stroke-linejoin:round;stroke-opacity:1;stroke-miterlimit:4;stroke-dasharray:none"
       d="m 143.98125,181.24581 0.69696,-3.19442 5.45956,-4.58835 -0.17424,7.78277 7.20196,-3.36866 -0.34848,3.5429 -5.16915,-7.37621 -2.78786,7.43429 0.69696,-8.59589 -5.05299,8.42165 c 0,0 -1.91665,-1.74241 -1.51009,-1.68433 0.40656,0.0581 14.5201,1.97473 14.5201,1.97473 l 2.67169,-1.21968 -1.10352,3.48482 4.18178,0.17424 -6.62116,12.83576 11.49991,7.55045 -14.34585,5.57572 5.28532,3.13633"
       id="path1027"
       inkscape:connector-curvature="0" />
  </g>
</svg>
