<?xml version="1.0" encoding="UTF-8" standalone="no"?>
<!-- Created with Inkscape (http://www.inkscape.org/) -->

<svg
   xmlns:dc="http://purl.org/dc/elements/1.1/"
   xmlns:cc="http://creativecommons.org/ns#"
   xmlns:rdf="http://www.w3.org/1999/02/22-rdf-syntax-ns#"
   xmlns:svg="http://www.w3.org/2000/svg"
   xmlns="http://www.w3.org/2000/svg"
   xmlns:sodipodi="http://sodipodi.sourceforge.net/DTD/sodipodi-0.dtd"
   xmlns:inkscape="http://www.inkscape.org/namespaces/inkscape"
   width="210mm"
   height="297mm"
   viewBox="0 0 210 297"
   version="1.1"
   id="svg8"
   inkscape:version="0.92.2 2405546, 2018-03-11"
   sodipodi:docname="kernel_qemu_workflow.svg">
  <defs
     id="defs2">
    <filter
       height="1.0416235"
       y="-0.020811765"
       width="1.016861"
       x="-0.0084305004"
       id="filter1645"
       style="color-interpolation-filters:sRGB"
       inkscape:collect="always">
      <feGaussianBlur
         id="feGaussianBlur1647"
         stdDeviation="0.59099974"
         inkscape:collect="always" />
    </filter>
    <filter
       height="1.0545915"
       y="-0.02729577"
       width="1.015381"
       x="-0.0076904766"
       id="filter905"
       style="color-interpolation-filters:sRGB"
       inkscape:collect="always">
      <feGaussianBlur
         id="feGaussianBlur907"
         stdDeviation="0.4316403"
         inkscape:collect="always" />
    </filter>
    <filter
       height="1.1153521"
       y="-0.057676049"
       width="1.0303053"
       x="-0.015152637"
       id="filter835"
       style="color-interpolation-filters:sRGB"
       inkscape:collect="always">
      <feGaussianBlur
         id="feGaussianBlur837"
         stdDeviation="0.91205731"
         inkscape:collect="always" />
    </filter>
    <filter
       height="1.0546258"
       y="-0.027312885"
       width="1.0428077"
       x="-0.021403845"
       id="filter955"
       style="color-interpolation-filters:sRGB"
       inkscape:collect="always">
      <feGaussianBlur
         id="feGaussianBlur957"
         stdDeviation="0.99156994"
         inkscape:collect="always" />
    </filter>
  </defs>
  <sodipodi:namedview
     id="base"
     pagecolor="#ffffff"
     bordercolor="#666666"
     borderopacity="1.0"
     inkscape:pageopacity="0.0"
     inkscape:pageshadow="2"
     inkscape:zoom="0.35"
     inkscape:cx="478.67902"
     inkscape:cy="407.99699"
     inkscape:document-units="mm"
     inkscape:current-layer="layer1"
     showgrid="false"
     inkscape:object-nodes="false"
     inkscape:snap-nodes="false"
     inkscape:window-width="1920"
     inkscape:window-height="1039"
     inkscape:window-x="0"
     inkscape:window-y="0"
     inkscape:window-maximized="1" />
  <metadata
     id="metadata5">
    <rdf:RDF>
      <cc:Work
         rdf:about="">
        <dc:format>image/svg+xml</dc:format>
        <dc:type
           rdf:resource="http://purl.org/dc/dcmitype/StillImage" />
        <dc:title></dc:title>
      </cc:Work>
    </rdf:RDF>
  </metadata>
  <g
     inkscape:label="Layer 1"
     inkscape:groupmode="layer"
     id="layer1">
    <g
       id="layer1-6"
       inkscape:label="Layer 1"
       transform="translate(240.40087,4.3199354)"
       inkscape:export-filename="/home/siqueira/Documents/Repositories/siqueira.tech/images/posts/guest_host.png"
       inkscape:export-xdpi="90"
       inkscape:export-ydpi="90">
      <g
         id="g1651">
        <path
           inkscape:connector-curvature="0"
           id="path1643"
           d="m -182.94599,7.9480057 19.37704,0.8018084 18.70887,-5.6126599 16.57071,3.2072342 8.55262,-3.7417733 14.69983,4.4099473 16.169804,-1.6036174 24.989699,11.626224 4.409948,13.898017 6.280833,9.621702 -8.819893,5.078122 -5.879931,10.958049 -11.225318,0.133636 -11.358957,10.022607 -22.450635,0.400904 -11.35896,3.207235 -17.10525,-4.009044 -13.49711,3.875408 -13.22984,-6.1472 -22.85154,2.405425 -10.55715,-10.557144 -15.90254,-5.879931 1.87089,-12.962572 -3.87541,-7.61718 9.48807,-5.345391 4.27631,-6.548104 14.83346,-3.474503 13.89801,-7.6171817 14.29893,-2.1381563 16.97161,2.271791 16.30344,-4.2763124 15.90254,4.5435818 10.69078,-3.6081385 22.985178,9.8889721 5.879928,-2.672695 4.276312,8.151721 11.49259,4.009043 -2.806329,5.479024 7.34991,0.935445 -5.479023,4.677216 6.548101,3.340868 -7.34991,3.608138 -1.202714,11.626226 -6.1472,-0.801809 -5.879928,7.617182 -10.557147,-0.668174 -9.888971,8.552625 -6.280835,-2.004521 -4.677222,3.608136 -13.49711,-2.00452 -11.75985,3.875408 -6.41447,-3.073599 -6.01357,2.539061 -10.69078,-3.875408 -12.6953,3.741772 -11.09168,-6.414468 -8.68627,4.009043 -4.94448,-5.746295 -10.42351,1.870888 -4.14268,-9.755338 -9.48807,0.668173 1.73725,-8.15172 -8.15172,-2.939965 5.7463,-9.087165 -2.00452,-8.285354 10.55714,-4.677217 7.34991,-7.216277 14.16529,-2.004522 10.69078,-6.681738 10.55715,3.0735997 11.35895,-5.3453905 16.16981,3.7417732 12.6953,-4.5435818"
           style="fill:none;stroke:#000000;stroke-width:1;stroke-linecap:round;stroke-linejoin:round;stroke-miterlimit:4;stroke-dasharray:none;stroke-opacity:1;filter:url(#filter1645)" />
        <path
           style="fill:none;stroke:#000000;stroke-width:1;stroke-linecap:round;stroke-linejoin:round;stroke-miterlimit:4;stroke-dasharray:none;stroke-opacity:1"
           d="m -182.94599,7.9480057 19.37704,0.8018084 18.70887,-5.6126599 16.57071,3.2072342 8.55262,-3.7417733 14.69983,4.4099473 16.169804,-1.6036174 24.989699,11.626224 4.409948,13.898017 6.280833,9.621702 -8.819893,5.078122 -5.879931,10.958049 -11.225318,0.133636 -11.358957,10.022607 -22.450635,0.400904 -11.35896,3.207235 -17.10525,-4.009044 -13.49711,3.875408 -13.22984,-6.1472 -22.85154,2.405425 -10.55715,-10.557144 -15.90254,-5.879931 1.87089,-12.962572 -3.87541,-7.61718 9.48807,-5.345391 4.27631,-6.548104 14.83346,-3.474503 13.89801,-7.6171817 14.29893,-2.1381563 16.97161,2.271791 16.30344,-4.2763124 15.90254,4.5435818 10.69078,-3.6081385 22.985178,9.8889721 5.879928,-2.672695 4.276312,8.151721 11.49259,4.009043 -2.806329,5.479024 7.34991,0.935445 -5.479023,4.677216 6.548101,3.340868 -7.34991,3.608138 -1.202714,11.626226 -6.1472,-0.801809 -5.879928,7.617182 -10.557147,-0.668174 -9.888971,8.552625 -6.280835,-2.004521 -4.677222,3.608136 -13.49711,-2.00452 -11.75985,3.875408 -6.41447,-3.073599 -6.01357,2.539061 -10.69078,-3.875408 -12.6953,3.741772 -11.09168,-6.414468 -8.68627,4.009043 -4.94448,-5.746295 -10.42351,1.870888 -4.14268,-9.755338 -9.48807,0.668173 1.73725,-8.15172 -8.15172,-2.939965 5.7463,-9.087165 -2.00452,-8.285354 10.55714,-4.677217 7.34991,-7.216277 14.16529,-2.004522 10.69078,-6.681738 10.55715,3.0735997 11.35895,-5.3453905 16.16981,3.7417732 12.6953,-4.5435818"
           id="path1641"
           inkscape:connector-curvature="0" />
      </g>
    </g>
    <g
       transform="translate(240.40087,209.93898)"
       inkscape:label="Layer 1"
       id="g4607"
       inkscape:export-filename="/home/siqueira/Documents/Repositories/siqueira.tech/images/posts/guest_host.png"
       inkscape:export-xdpi="90"
       inkscape:export-ydpi="90">
      <g
         id="g4605">
        <path
           style="fill:none;stroke:#000000;stroke-width:1;stroke-linecap:round;stroke-linejoin:round;stroke-miterlimit:4;stroke-dasharray:none;stroke-opacity:1;filter:url(#filter1645)"
           d="m -182.94599,7.9480057 19.37704,0.8018084 18.70887,-5.6126599 16.57071,3.2072342 8.55262,-3.7417733 14.69983,4.4099473 16.169804,-1.6036174 24.989699,11.626224 4.409948,13.898017 6.280833,9.621702 -8.819893,5.078122 -5.879931,10.958049 -11.225318,0.133636 -11.358957,10.022607 -22.450635,0.400904 -11.35896,3.207235 -17.10525,-4.009044 -13.49711,3.875408 -13.22984,-6.1472 -22.85154,2.405425 -10.55715,-10.557144 -15.90254,-5.879931 1.87089,-12.962572 -3.87541,-7.61718 9.48807,-5.345391 4.27631,-6.548104 14.83346,-3.474503 13.89801,-7.6171817 14.29893,-2.1381563 16.97161,2.271791 16.30344,-4.2763124 15.90254,4.5435818 10.69078,-3.6081385 22.985178,9.8889721 5.879928,-2.672695 4.276312,8.151721 11.49259,4.009043 -2.806329,5.479024 7.34991,0.935445 -5.479023,4.677216 6.548101,3.340868 -7.34991,3.608138 -1.202714,11.626226 -6.1472,-0.801809 -5.879928,7.617182 -10.557147,-0.668174 -9.888971,8.552625 -6.280835,-2.004521 -4.677222,3.608136 -13.49711,-2.00452 -11.75985,3.875408 -6.41447,-3.073599 -6.01357,2.539061 -10.69078,-3.875408 -12.6953,3.741772 -11.09168,-6.414468 -8.68627,4.009043 -4.94448,-5.746295 -10.42351,1.870888 -4.14268,-9.755338 -9.48807,0.668173 1.73725,-8.15172 -8.15172,-2.939965 5.7463,-9.087165 -2.00452,-8.285354 10.55714,-4.677217 7.34991,-7.216277 14.16529,-2.004522 10.69078,-6.681738 10.55715,3.0735997 11.35895,-5.3453905 16.16981,3.7417732 12.6953,-4.5435818"
           id="path4601"
           inkscape:connector-curvature="0" />
        <path
           inkscape:connector-curvature="0"
           id="path4603"
           d="m -182.94599,7.9480057 19.37704,0.8018084 18.70887,-5.6126599 16.57071,3.2072342 8.55262,-3.7417733 14.69983,4.4099473 16.169804,-1.6036174 24.989699,11.626224 4.409948,13.898017 6.280833,9.621702 -8.819893,5.078122 -5.879931,10.958049 -11.225318,0.133636 -11.358957,10.022607 -22.450635,0.400904 -11.35896,3.207235 -17.10525,-4.009044 -13.49711,3.875408 -13.22984,-6.1472 -22.85154,2.405425 -10.55715,-10.557144 -15.90254,-5.879931 1.87089,-12.962572 -3.87541,-7.61718 9.48807,-5.345391 4.27631,-6.548104 14.83346,-3.474503 13.89801,-7.6171817 14.29893,-2.1381563 16.97161,2.271791 16.30344,-4.2763124 15.90254,4.5435818 10.69078,-3.6081385 22.985178,9.8889721 5.879928,-2.672695 4.276312,8.151721 11.49259,4.009043 -2.806329,5.479024 7.34991,0.935445 -5.479023,4.677216 6.548101,3.340868 -7.34991,3.608138 -1.202714,11.626226 -6.1472,-0.801809 -5.879928,7.617182 -10.557147,-0.668174 -9.888971,8.552625 -6.280835,-2.004521 -4.677222,3.608136 -13.49711,-2.00452 -11.75985,3.875408 -6.41447,-3.073599 -6.01357,2.539061 -10.69078,-3.875408 -12.6953,3.741772 -11.09168,-6.414468 -8.68627,4.009043 -4.94448,-5.746295 -10.42351,1.870888 -4.14268,-9.755338 -9.48807,0.668173 1.73725,-8.15172 -8.15172,-2.939965 5.7463,-9.087165 -2.00452,-8.285354 10.55714,-4.677217 7.34991,-7.216277 14.16529,-2.004522 10.69078,-6.681738 10.55715,3.0735997 11.35895,-5.3453905 16.16981,3.7417732 12.6953,-4.5435818"
           style="fill:none;stroke:#000000;stroke-width:1;stroke-linecap:round;stroke-linejoin:round;stroke-miterlimit:4;stroke-dasharray:none;stroke-opacity:1" />
      </g>
    </g>
    <g
       id="layer1-0"
       inkscape:label="Layer 1"
       transform="rotate(-90,2.3203796,110.15789)"
       inkscape:export-filename="/home/siqueira/Documents/Repositories/siqueira.tech/images/posts/guest_host.png"
       inkscape:export-xdpi="90"
       inkscape:export-ydpi="90">
      <g
         id="g912">
        <path
           style="fill:none;stroke:#000000;stroke-width:1;stroke-linecap:round;stroke-linejoin:round;stroke-miterlimit:4;stroke-dasharray:none;stroke-opacity:1;filter:url(#filter905)"
           d="m -99.958802,139.04371 2.539061,-7.08264 8.018084,1.33634 4.543584,-7.88445 11.759858,2.00452 5.479026,-6.81537 8.953529,4.14268 6.548102,-5.61266 9.755338,4.94448 8.819896,-4.81085 7.88445,6.28084 10.824415,-3.0736 5.6126604,7.48354 8.1517205,-2.80633 3.6081386,7.88445 8.6862595,-1.46998 2.53906,8.68626 h 8.151721 l 1.202713,8.55263 9.621704,2.27179 -5.078122,-6.1472 5.078122,-6.41447 -4.14268,-3.0736 -1.469982,2.93996 5.34539,6.1472 -6.013564,9.75534 -6.280833,-5.21176 -4.142677,5.21176 -2.939965,-2.93996 2.138156,-2.40543 5.479025,5.21176 5.479025,-8.95353 -7.349912,-0.26727 -2.004521,-9.08717 -7.884451,0.80181 -3.0735995,-8.28535 -8.5526246,2.13815 -4.8108515,-7.88445 -8.9535294,2.93997 -8.15172,-7.34991 -8.686259,4.54358 -7.750818,-5.7463 -6.414468,5.07812 -8.018084,-4.27631 -6.013567,5.34539 -10.289876,-3.74177 -8.018084,8.15172 -12.294399,-1.20271 -2.53906,8.41899 -7.349909,-0.26727 2.539056,-3.20724 12.962572,-1.33634 8.418992,-8.95353 10.824413,3.07359 6.013567,-6.01356 8.15172,4.54358 6.548104,-5.87993 8.151719,5.34539 8.68626,-4.27631 8.552625,6.68174 9.354433,-3.20723 5.7462948,7.75081 9.2207986,-1.87088 3.3408688,8.15172 8.5526248,-1.20272 1.469983,8.68626 8.15172,0.13364 v 11.75986 l -7.750816,-6.1472 -3.0736,4.94448 15.902537,0.53454 2.80633,-1.20271 -5.211755,-10.95805 3.340868,-7.08264 1.870887,6.41446 -10.156242,13.09621 -0.133635,-5.34539 10.423513,-0.80181 -5.479026,-2.40542 -6.280834,1.33634"
           id="path903"
           inkscape:connector-curvature="0" />
        <path
           style="fill:none;stroke:#000000;stroke-width:1;stroke-linecap:round;stroke-linejoin:round;stroke-miterlimit:4;stroke-dasharray:none;stroke-opacity:1"
           d="m -99.958802,139.04371 2.539061,-7.08264 8.018084,1.33634 4.543584,-7.88445 11.759858,2.00452 5.479026,-6.81537 8.953529,4.14268 6.548102,-5.61266 9.755338,4.94448 8.819896,-4.81085 7.88445,6.28084 10.824415,-3.0736 5.6126604,7.48354 8.1517205,-2.80633 3.6081386,7.88445 8.6862595,-1.46998 2.53906,8.68626 h 8.151721 l 1.202713,8.55263 9.621704,2.27179 -5.078122,-6.1472 5.078122,-6.41447 -4.14268,-3.0736 -1.469982,2.93996 5.34539,6.1472 -6.013564,9.75534 -6.280833,-5.21176 -4.142677,5.21176 -2.939965,-2.93996 2.138156,-2.40543 5.479025,5.21176 5.479025,-8.95353 -7.349912,-0.26727 -2.004521,-9.08717 -7.884451,0.80181 -3.0735995,-8.28535 -8.5526246,2.13815 -4.8108515,-7.88445 -8.9535294,2.93997 -8.15172,-7.34991 -8.686259,4.54358 -7.750818,-5.7463 -6.414468,5.07812 -8.018084,-4.27631 -6.013567,5.34539 -10.289876,-3.74177 -8.018084,8.15172 -12.294399,-1.20271 -2.53906,8.41899 -7.349909,-0.26727 2.539056,-3.20724 12.962572,-1.33634 8.418992,-8.95353 10.824413,3.07359 6.013567,-6.01356 8.15172,4.54358 6.548104,-5.87993 8.151719,5.34539 8.68626,-4.27631 8.552625,6.68174 9.354433,-3.20723 5.7462948,7.75081 9.2207986,-1.87088 3.3408688,8.15172 8.5526248,-1.20272 1.469983,8.68626 8.15172,0.13364 v 11.75986 l -7.750816,-6.1472 -3.0736,4.94448 15.902537,0.53454 2.80633,-1.20271 -5.211755,-10.95805 3.340868,-7.08264 1.870887,6.41446 -10.156242,13.09621 -0.133635,-5.34539 10.423513,-0.80181 -5.479026,-2.40542 -6.280834,1.33634"
           id="path899"
           inkscape:connector-curvature="0" />
        <path
           inkscape:connector-curvature="0"
           id="path901"
           d="m -99.958802,139.04371 2.539061,-7.08264 8.018084,1.33634 4.543584,-7.88445 11.759858,2.00452 5.479026,-6.81537 8.953529,4.14268 6.548102,-5.61266 9.755338,4.94448 8.819896,-4.81085 7.88445,6.28084 10.824415,-3.0736 5.6126604,7.48354 8.1517205,-2.80633 3.6081386,7.88445 8.6862595,-1.46998 2.53906,8.68626 h 8.151721 l 1.202713,8.55263 9.621704,2.27179 -5.078122,-6.1472 5.078122,-6.41447 -4.14268,-3.0736 -1.469982,2.93996 5.34539,6.1472 -6.013564,9.75534 -6.280833,-5.21176 -4.142677,5.21176 -2.939965,-2.93996 2.138156,-2.40543 5.479025,5.21176 5.479025,-8.95353 -7.349912,-0.26727 -2.004521,-9.08717 -7.884451,0.80181 -3.0735995,-8.28535 -8.5526246,2.13815 -4.8108515,-7.88445 -8.9535294,2.93997 -8.15172,-7.34991 -8.686259,4.54358 -7.750818,-5.7463 -6.414468,5.07812 -8.018084,-4.27631 -6.013567,5.34539 -10.289876,-3.74177 -8.018084,8.15172 -12.294399,-1.20271 -2.53906,8.41899 -7.349909,-0.26727 2.539056,-3.20724 12.962572,-1.33634 8.418992,-8.95353 10.824413,3.07359 6.013567,-6.01356 8.15172,4.54358 6.548104,-5.87993 8.151719,5.34539 8.68626,-4.27631 8.552625,6.68174 9.354433,-3.20723 5.7462948,7.75081 9.2207986,-1.87088 3.3408688,8.15172 8.5526248,-1.20272 1.469983,8.68626 8.15172,0.13364 v 11.75986 l -7.750816,-6.1472 -3.0736,4.94448 15.902537,0.53454 2.80633,-1.20271 -5.211755,-10.95805 3.340868,-7.08264 1.870887,6.41446 -10.156242,13.09621 -0.133635,-5.34539 10.423513,-0.80181 -5.479026,-2.40542 -6.280834,1.33634"
           style="fill:none;stroke:#000000;stroke-width:1;stroke-linecap:round;stroke-linejoin:round;stroke-miterlimit:4;stroke-dasharray:none;stroke-opacity:1" />
      </g>
    </g>
    <text
       xml:space="preserve"
       style="font-style:normal;font-variant:normal;font-weight:normal;font-stretch:normal;font-size:10.58333302px;line-height:1.25;font-family:'GLADIATOR SPORT-Hollow-Inverse';-inkscape-font-specification:'GLADIATOR SPORT-Hollow-Inverse';letter-spacing:0px;word-spacing:0px;fill:#000000;fill-opacity:1;stroke:none;stroke-width:0.26458332"
       x="49.370575"
       y="53.883797"
       id="text4867"
       inkscape:export-filename="/home/siqueira/Documents/Repositories/siqueira.tech/images/posts/guest_host.png"
       inkscape:export-xdpi="90"
       inkscape:export-ydpi="90"><tspan
         sodipodi:role="line"
         id="tspan4865"
         x="49.370575"
         y="53.883797"
         style="font-style:normal;font-variant:normal;font-weight:bold;font-stretch:normal;font-size:35.27777863px;font-family:hack;-inkscape-font-specification:'hack Bold';stroke-width:0.26458332">Guest</tspan></text>
    <text
       id="text4871"
       y="259.50284"
       x="59.809212"
       style="font-style:normal;font-variant:normal;font-weight:normal;font-stretch:normal;font-size:10.58333302px;line-height:1.25;font-family:'GLADIATOR SPORT-Hollow-Inverse';-inkscape-font-specification:'GLADIATOR SPORT-Hollow-Inverse';letter-spacing:0px;word-spacing:0px;fill:#000000;fill-opacity:1;stroke:none;stroke-width:0.26458332"
       xml:space="preserve"
       inkscape:export-filename="/home/siqueira/Documents/Repositories/siqueira.tech/images/posts/guest_host.png"
       inkscape:export-xdpi="90"
       inkscape:export-ydpi="90"><tspan
         style="font-style:normal;font-variant:normal;font-weight:bold;font-stretch:normal;font-size:35.27777863px;font-family:hack;-inkscape-font-specification:'hack Bold';stroke-width:0.26458332"
         y="259.50284"
         x="59.809212"
         id="tspan4869"
         sodipodi:role="line">Host</tspan></text>
    <text
       id="text4875"
       y="134.11205"
       x="-70.825851"
       style="font-style:normal;font-variant:normal;font-weight:normal;font-stretch:normal;font-size:10.58333302px;line-height:1.25;font-family:'GLADIATOR SPORT-Hollow-Inverse';-inkscape-font-specification:'GLADIATOR SPORT-Hollow-Inverse';letter-spacing:0px;word-spacing:0px;fill:#000000;fill-opacity:1;stroke:none;stroke-width:0.26458332"
       xml:space="preserve"
       inkscape:export-filename="/home/siqueira/Documents/Repositories/siqueira.tech/images/posts/guest_host.png"
       inkscape:export-xdpi="90"
       inkscape:export-ydpi="90"><tspan
         style="font-style:italic;font-variant:normal;font-weight:bold;font-stretch:normal;font-size:14.11111069px;font-family:hack;-inkscape-font-specification:'hack Bold';stroke-width:0.26458332"
         y="134.11205"
         x="-70.825851"
         id="tspan4873"
         sodipodi:role="line">Install:</tspan><tspan
         style="font-style:italic;font-variant:normal;font-weight:bold;font-stretch:normal;font-size:14.11111069px;font-family:hack;-inkscape-font-specification:'hack Bold';stroke-width:0.26458332"
         y="151.75093"
         x="-70.825851"
         sodipodi:role="line"
         id="tspan5051">- Kernel</tspan><tspan
         style="font-style:italic;font-variant:normal;font-weight:bold;font-stretch:normal;font-size:14.11111069px;font-family:hack;-inkscape-font-specification:'hack Bold';stroke-width:0.26458332"
         y="169.38982"
         x="-70.825851"
         sodipodi:role="line"
         id="tspan5053">- Modules</tspan><tspan
         style="font-style:italic;font-variant:normal;font-weight:bold;font-stretch:normal;font-size:14.11111069px;font-family:hack;-inkscape-font-specification:'hack Bold';stroke-width:0.26458332"
         y="187.02872"
         x="-70.825851"
         sodipodi:role="line"
         id="tspan5055">- Code</tspan></text>
    <text
       xml:space="preserve"
       style="font-style:normal;font-variant:normal;font-weight:normal;font-stretch:normal;font-size:10.58333302px;line-height:1.25;font-family:'GLADIATOR SPORT-Hollow-Inverse';-inkscape-font-specification:'GLADIATOR SPORT-Hollow-Inverse';letter-spacing:0px;word-spacing:0px;fill:#000000;fill-opacity:1;stroke:none;stroke-width:0.26458332"
       x="278.29187"
       y="220.2906"
       id="text4879"
       inkscape:export-filename="/home/siqueira/Documents/Repositories/siqueira.tech/images/posts/guest_host.png"
       inkscape:export-xdpi="90"
       inkscape:export-ydpi="90"><tspan
         sodipodi:role="line"
         x="278.29187"
         y="220.2906"
         style="font-style:normal;font-variant:normal;font-weight:bold;font-stretch:normal;font-size:25.39999962px;font-family:hack;-inkscape-font-specification:'hack Bold';text-align:start;text-anchor:start;stroke-width:0.26458332"
         id="tspan4885">Development:</tspan><tspan
         sodipodi:role="line"
         x="278.29187"
         y="252.0406"
         style="font-style:normal;font-variant:normal;font-weight:bold;font-stretch:normal;font-size:25.39999962px;font-family:hack;-inkscape-font-specification:'hack Bold';text-align:start;text-anchor:start;stroke-width:0.26458332"
         id="tspan5035">- Coding</tspan><tspan
         sodipodi:role="line"
         x="278.29187"
         y="283.79059"
         style="font-style:normal;font-variant:normal;font-weight:bold;font-stretch:normal;font-size:25.39999962px;font-family:hack;-inkscape-font-specification:'hack Bold';text-align:start;text-anchor:start;stroke-width:0.26458332"
         id="tspan5037">- Compiling</tspan></text>
    <g
       id="layer1-62"
       inkscape:label="Layer 1"
       transform="rotate(90,130.21496,169.76927)"
       inkscape:export-filename="/home/siqueira/Documents/Repositories/siqueira.tech/images/posts/guest_host.png"
       inkscape:export-xdpi="90"
       inkscape:export-ydpi="90">
      <g
         id="g841">
        <path
           d="m 40.694198,125.40904 -9.62171,2.27179 5.07812,-6.1472 -5.07812,-6.41447 4.14268,-3.0736 1.46998,2.93996 -5.34539,6.1472 6.01357,9.75534 6.28083,-5.21176 4.14268,5.21176 2.93996,-2.93996 -2.13815,-2.40543 -5.47903,5.21176 -4.00904,-11.22532 v 11.75986 l 7.75081,-6.1472 3.0736,4.94448 -15.90253,0.53454 -2.80633,-1.20271 5.21175,-10.95805 -3.34086,-7.08264 -1.87089,6.41446 10.15624,13.09621 0.13364,-5.34539 -10.42352,-0.80181 5.47903,-2.40542 6.28083,1.33634 m 0,0 2.539061,-7.08264 8.018084,1.33634 4.543584,-7.88445 11.759858,2.00452 5.479026,-6.81537 8.953529,4.14268 6.548102,-5.61266 9.755338,4.94448 8.8199,-4.81085 7.88445,6.28084 10.82441,-3.0736 5.61266,7.48354 8.15172,-2.80633 3.60814,7.88445 8.68626,-1.46998 2.53906,8.68626 h 8.15172 l 1.20271,8.55263 9.62171,2.27179 -5.07812,-6.1472 5.07812,-6.41447 -4.14268,-3.0736 -1.46998,2.93996 5.34539,6.1472 -6.01357,9.75534 -6.28083,-5.21176 -4.14268,5.21176 -2.93996,-2.93996 2.13815,-2.40543 5.47903,5.21176 5.47902,-8.95353 -7.34991,-0.26727 -2.00452,-9.08717 -7.88445,0.80181 -3.0736,-8.28535 -8.55263,2.13815 -4.81085,-7.88445 -8.95353,2.93997 -8.15172,-7.34991 -8.68625,4.54358 -7.75082,-5.7463 -6.414471,5.07812 -8.018084,-4.27631 -6.013567,5.34539 -10.289876,-3.74177 -8.018084,8.15172 -12.294399,-1.20271 -2.53906,8.41899 -7.349909,-0.26727 2.539056,-3.20724 12.962572,-1.33634 8.418992,-8.95353 10.824413,3.07359 6.013567,-6.01356 8.15172,4.54358 6.548104,-5.87993 8.151716,5.34539 8.68626,-4.27631 8.55263,6.68174 9.35443,-3.20723 5.7463,7.75081 9.22079,-1.87088 3.34087,8.15172 8.55263,-1.20272 1.46998,8.68626 8.15172,0.13364 v 11.75986 l -7.75081,-6.1472 -3.0736,4.94448 15.90253,0.53454 2.80633,-1.20271 -5.21175,-10.95805 3.34086,-7.08264 1.87089,6.41446 -10.15624,13.09621 -0.13364,-5.34539 10.42352,-0.80181 -5.47903,-2.40542 -6.28083,1.33634"
           style="fill:none;stroke:#000000;stroke-width:1;stroke-linecap:round;stroke-linejoin:round;stroke-miterlimit:4;stroke-dasharray:none;stroke-opacity:1;filter:url(#filter835)"
           id="path825"
           inkscape:connector-curvature="0" />
        <path
           id="path821"
           style="fill:none;stroke:#000000;stroke-width:1;stroke-linecap:round;stroke-linejoin:round;stroke-miterlimit:4;stroke-dasharray:none;stroke-opacity:1"
           d="m 40.694198,125.40904 -9.62171,2.27179 5.07812,-6.1472 -5.07812,-6.41447 4.14268,-3.0736 1.46998,2.93996 -5.34539,6.1472 6.01357,9.75534 6.28083,-5.21176 4.14268,5.21176 2.93996,-2.93996 -2.13815,-2.40543 -5.47903,5.21176 -4.00904,-11.22532 v 11.75986 l 7.75081,-6.1472 3.0736,4.94448 -15.90253,0.53454 -2.80633,-1.20271 5.21175,-10.95805 -3.34086,-7.08264 -1.87089,6.41446 10.15624,13.09621 0.13364,-5.34539 -10.42352,-0.80181 5.47903,-2.40542 6.28083,1.33634 m 0,0 2.539061,-7.08264 8.018084,1.33634 4.543584,-7.88445 11.759858,2.00452 5.479026,-6.81537 8.953529,4.14268 6.548102,-5.61266 9.755338,4.94448 8.8199,-4.81085 7.88445,6.28084 10.82441,-3.0736 5.61266,7.48354 8.15172,-2.80633 3.60814,7.88445 8.68626,-1.46998 2.53906,8.68626 h 8.15172 l 1.20271,8.55263 9.62171,2.27179 -5.07812,-6.1472 5.07812,-6.41447 -4.14268,-3.0736 -1.46998,2.93996 5.34539,6.1472 -6.01357,9.75534 -6.28083,-5.21176 -4.14268,5.21176 -2.93996,-2.93996 2.13815,-2.40543 5.47903,5.21176 5.47902,-8.95353 -7.34991,-0.26727 -2.00452,-9.08717 -7.88445,0.80181 -3.0736,-8.28535 -8.55263,2.13815 -4.81085,-7.88445 -8.95353,2.93997 -8.15172,-7.34991 -8.68625,4.54358 -7.75082,-5.7463 -6.414471,5.07812 -8.018084,-4.27631 -6.013567,5.34539 -10.289876,-3.74177 -8.018084,8.15172 -12.294399,-1.20271 -2.53906,8.41899 -7.349909,-0.26727 2.539056,-3.20724 12.962572,-1.33634 8.418992,-8.95353 10.824413,3.07359 6.013567,-6.01356 8.15172,4.54358 6.548104,-5.87993 8.151716,5.34539 8.68626,-4.27631 8.55263,6.68174 9.35443,-3.20723 5.7463,7.75081 9.22079,-1.87088 3.34087,8.15172 8.55263,-1.20272 1.46998,8.68626 8.15172,0.13364 v 11.75986 l -7.75081,-6.1472 -3.0736,4.94448 15.90253,0.53454 2.80633,-1.20271 -5.21175,-10.95805 3.34086,-7.08264 1.87089,6.41446 -10.15624,13.09621 -0.13364,-5.34539 10.42352,-0.80181 -5.47903,-2.40542 -6.28083,1.33634"
           inkscape:connector-curvature="0" />
      </g>
    </g>
    <g
       id="layer1-9"
       inkscape:label="Layer 1"
       transform="matrix(0.75865341,0,0,0.75524905,156.27782,134.20448)"
       style="stroke-width:1.32109237"
       inkscape:export-filename="/home/siqueira/Documents/Repositories/siqueira.tech/images/posts/guest_host.png"
       inkscape:export-xdpi="90"
       inkscape:export-ydpi="90">
      <g
         id="g961"
         style="stroke-width:1.32109237">
        <path
           inkscape:connector-curvature="0"
           id="path949"
           d="m 45.569454,178.5996 29.132379,-10.28988 14.03165,7.48355 -14.967095,9.6217 -18.8425,-16.03617 11.091685,-4.27631 -1.737252,-5.21176 18.307963,-7.88445 7.483546,8.95353 8.953529,-9.08717 7.349911,9.2208 8.28536,-9.2208 8.01808,9.08717 6.94901,-9.08717 7.88445,14.03165 11.09169,4.94449 -0.93545,14.29892 -14.29892,-16.97161 -6.01356,17.10524 -11.49259,-17.37251 -3.0736,5.87993 10.82441,11.75985 5.34539,-17.23888 8.8199,17.23888 1.73725,-17.37251 15.90254,14.29892 -40.09043,-3.74178 -4.81085,6.68174 -6.81537,-6.94901 -5.879935,7.08264 -5.879927,-6.949 -6.013567,6.81537 -5.211754,-17.23888 -4.944486,16.97161 -6.548104,-17.37252 -8.018087,17.50615 -9.621702,-12.42803 11.759858,-4.67721 5.078122,16.97161 10.289876,-17.10525 13.229844,17.37252 6.280832,-6.5481 5.74629,6.41446 6.1472,-6.68173 6.01357,6.949 8.01808,-17.37251 9.08717,17.10524 3.74177,-17.10524 15.7689,16.83798 4.00905,-6.54811 -45.16855,-7.08264 -7.08264,-3.20723 -4.00905,3.34086 -4.810851,-3.60813 -30.201457,17.50615 -16.570708,-9.75534 17.773422,-7.48354 14.165286,17.37251 7.750816,-7.08264 6.147199,7.08264 6.414473,-7.08264 6.14719,6.94901 5.7463,-6.94901 6.81537,6.81537 6.5481,-16.97161 9.35444,16.97161 8.81989,-18.44159 h -6.01356 l 0.66817,-5.47903 -5.34539,1.20271 1.33635,-5.07811 -10.02261,-5.34539 -8.95353,8.81989 -8.41899,-9.08717 -8.285353,9.2208 -9.220798,-9.08716 -9.621702,8.95353 -7.617182,-9.2208 -7.884451,5.34539 -5.479026,-6.5481 5.34539,-6.81538 -5.34539,-6.1472 5.612661,-6.68173 -5.746294,-5.47903 5.746294,-5.74629 -5.746294,-6.28084 5.879927,-6.01356 -4.543581,-5.47903 3.34087,-2.672692 4.944486,5.211762 6.013564,-6.013571 4.944485,6.147201 7.349914,-6.013566 5.211754,5.879936 6.548104,-5.879936 5.479022,5.879936 6.81538,-5.879936 4.81085,5.746296 5.74629,-5.479027 5.61266,5.612667 6.41447,-6.013571 2.6727,7.082641 6.28083,2.40543 -6.01356,3.74177 5.74629,5.47903 -5.87993,3.74177 5.7463,6.01356 -5.34539,5.21176 5.61266,6.28083 -5.61266,4.54358 5.47902,5.87994 -5.87993,2.53906 0.26727,6.01356 -4.14268,-5.7463 -3.34087,9.2208 -8.81989,-8.95353 -8.68626,8.95353 -8.55262,-9.2208 -8.8199,9.08717 -7.884451,-8.68626 -10.022607,8.81989 -7.884451,-8.95353 -6.147199,4.14268 2.53906,-5.61266 -5.612659,-7.21628 5.345391,-6.01356 -5.479026,-5.61266 5.746294,-5.74629 -5.746294,-5.61266 5.479026,-5.34539 -5.479026,-5.7463 5.87993,-4.40995 3.474503,-6.280831 6.280835,6.280831 6.013564,-6.147196 6.013564,5.612656 5.746295,-5.47902 5.34539,5.61266 6.548101,-5.61266 5.87993,6.01356 6.81538,-6.147196 5.21175,5.612656 5.47903,-5.746291 4.54358,6.147201 7.75082,-4.00905 -3.34087,7.61719 5.61266,4.40994 -5.61266,3.0736 5.61266,6.41447 -5.61266,4.27631 5.74629,6.28084 -5.87993,4.40995 5.7463,6.949 -5.87993,3.47451 3.60814,8.15172 -5.07813,-3.60814 -3.0736,9.2208 -4.67721,-9.48807 -1.60362,9.08716 -3.60814,-9.08716 -3.0736,9.48807 -1.60361,-9.48807 -3.74178,9.08716 -3.4745,-9.2208 -8.28536,9.48807 -8.018084,-9.08716 -9.755336,9.08716 -6.68174,-9.2208 -11.492589,6.01357 1.870887,4.81085 -8.68626,1.60362 3.474505,3.60814 -17.105251,12.56166 4.409948,4.94449 39.55589,-12.16076 -4.142679,-5.07812 -38.620445,14.96709 9.888971,2.40542 99.156993,-4.00904 -35.68048,-13.49711 -8.55263,4.14268 30.60237,13.0962 10.15624,-10.42351 -17.63979,-6.81537 -29.26601,3.4745 -4.67722,-3.60813 -5.479025,3.60813 -4.276312,-3.4745 -42.629489,16.30344 22.584275,-16.30344 6.815373,17.50615 9.755335,-17.23888 2.806332,3.20723 2.27179,-3.74177 0.53454,4.00904 5.211755,-3.8754 4.677216,4.14267 8.8199,-4.27631 33.14142,17.50615 8.68626,-8.81989 -14.69983,-8.28535 1.87089,-5.21176 -5.34539,1.73725 0.66817,-5.21175 -5.47902,1.33634 -14.69983,-8.68625 -6.94901,8.95352 -7.75081,-9.2208 -9.488071,9.48807 -8.151719,-9.48807 -10.690781,9.35444 -6.414468,-9.48807 -6.1472,2.27179 5.345391,3.60814 4.944485,-6.01357 -0.801806,9.35444 -10.824416,-13.49711 5.612659,-6.68174 -5.211755,-6.01356 5.479023,-6.01357 -5.746294,-6.01356 5.746294,-5.3454 -5.879927,-6.14719 5.746294,-1.46998 -5.479026,-4.81086 7.082642,-6.28083 5.479026,5.7463 6.1472,-6.013571 5.078121,5.879931 6.414468,-5.879931 5.612659,5.879931 6.280831,-5.746296 5.7463,6.013566 6.5481,-5.87993 5.47903,5.61266 5.47902,-5.879931 5.21176,6.013571 7.88445,-5.479031 4.54358,6.013561 -5.61266,5.07812 6.01356,4.81086 -6.14719,3.60813 5.87993,6.1472 -6.01357,4.81085 6.01357,6.41447 -5.7463,4.00905 5.7463,6.81537 -5.7463,3.20723 4.67722,3.47451 -20.84703,7.48354"
           style="fill:none;stroke:#000000;stroke-width:1.32109237;stroke-linecap:round;stroke-linejoin:round;stroke-miterlimit:4;stroke-dasharray:none;stroke-opacity:1;filter:url(#filter955)" />
        <path
           style="fill:none;stroke:#000000;stroke-width:1.32109237;stroke-linecap:round;stroke-linejoin:round;stroke-miterlimit:4;stroke-dasharray:none;stroke-opacity:1"
           d="m 45.569454,178.5996 29.132379,-10.28988 14.03165,7.48355 -14.967095,9.6217 -18.8425,-16.03617 11.091685,-4.27631 -1.737252,-5.21176 18.307963,-7.88445 7.483546,8.95353 8.953529,-9.08717 7.349911,9.2208 8.28536,-9.2208 8.01808,9.08717 6.94901,-9.08717 7.88445,14.03165 11.09169,4.94449 -0.93545,14.29892 -14.29892,-16.97161 -6.01356,17.10524 -11.49259,-17.37251 -3.0736,5.87993 10.82441,11.75985 5.34539,-17.23888 8.8199,17.23888 1.73725,-17.37251 15.90254,14.29892 -40.09043,-3.74178 -4.81085,6.68174 -6.81537,-6.94901 -5.879935,7.08264 -5.879927,-6.949 -6.013567,6.81537 -5.211754,-17.23888 -4.944486,16.97161 -6.548104,-17.37252 -8.018087,17.50615 -9.621702,-12.42803 11.759858,-4.67721 5.078122,16.97161 10.289876,-17.10525 13.229844,17.37252 6.280832,-6.5481 5.74629,6.41446 6.1472,-6.68173 6.01357,6.949 8.01808,-17.37251 9.08717,17.10524 3.74177,-17.10524 15.7689,16.83798 4.00905,-6.54811 -45.16855,-7.08264 -7.08264,-3.20723 -4.00905,3.34086 -4.810851,-3.60813 -30.201457,17.50615 -16.570708,-9.75534 17.773422,-7.48354 14.165286,17.37251 7.750816,-7.08264 6.147199,7.08264 6.414473,-7.08264 6.14719,6.94901 5.7463,-6.94901 6.81537,6.81537 6.5481,-16.97161 9.35444,16.97161 8.81989,-18.44159 h -6.01356 l 0.66817,-5.47903 -5.34539,1.20271 1.33635,-5.07811 -10.02261,-5.34539 -8.95353,8.81989 -8.41899,-9.08717 -8.285353,9.2208 -9.220798,-9.08716 -9.621702,8.95353 -7.617182,-9.2208 -7.884451,5.34539 -5.479026,-6.5481 5.34539,-6.81538 -5.34539,-6.1472 5.612661,-6.68173 -5.746294,-5.47903 5.746294,-5.74629 -5.746294,-6.28084 5.879927,-6.01356 -4.543581,-5.47903 3.34087,-2.672692 4.944486,5.211762 6.013564,-6.013571 4.944485,6.147201 7.349914,-6.013566 5.211754,5.879936 6.548104,-5.879936 5.479022,5.879936 6.81538,-5.879936 4.81085,5.746296 5.74629,-5.479027 5.61266,5.612667 6.41447,-6.013571 2.6727,7.082641 6.28083,2.40543 -6.01356,3.74177 5.74629,5.47903 -5.87993,3.74177 5.7463,6.01356 -5.34539,5.21176 5.61266,6.28083 -5.61266,4.54358 5.47902,5.87994 -5.87993,2.53906 0.26727,6.01356 -4.14268,-5.7463 -3.34087,9.2208 -8.81989,-8.95353 -8.68626,8.95353 -8.55262,-9.2208 -8.8199,9.08717 -7.884451,-8.68626 -10.022607,8.81989 -7.884451,-8.95353 -6.147199,4.14268 2.53906,-5.61266 -5.612659,-7.21628 5.345391,-6.01356 -5.479026,-5.61266 5.746294,-5.74629 -5.746294,-5.61266 5.479026,-5.34539 -5.479026,-5.7463 5.87993,-4.40995 3.474503,-6.280831 6.280835,6.280831 6.013564,-6.147196 6.013564,5.612656 5.746295,-5.47902 5.34539,5.61266 6.548101,-5.61266 5.87993,6.01356 6.81538,-6.147196 5.21175,5.612656 5.47903,-5.746291 4.54358,6.147201 7.75082,-4.00905 -3.34087,7.61719 5.61266,4.40994 -5.61266,3.0736 5.61266,6.41447 -5.61266,4.27631 5.74629,6.28084 -5.87993,4.40995 5.7463,6.949 -5.87993,3.47451 3.60814,8.15172 -5.07813,-3.60814 -3.0736,9.2208 -4.67721,-9.48807 -1.60362,9.08716 -3.60814,-9.08716 -3.0736,9.48807 -1.60361,-9.48807 -3.74178,9.08716 -3.4745,-9.2208 -8.28536,9.48807 -8.018084,-9.08716 -9.755336,9.08716 -6.68174,-9.2208 -11.492589,6.01357 1.870887,4.81085 -8.68626,1.60362 3.474505,3.60814 -17.105251,12.56166 4.409948,4.94449 39.55589,-12.16076 -4.142679,-5.07812 -38.620445,14.96709 9.888971,2.40542 99.156993,-4.00904 -35.68048,-13.49711 -8.55263,4.14268 30.60237,13.0962 10.15624,-10.42351 -17.63979,-6.81537 -29.26601,3.4745 -4.67722,-3.60813 -5.479025,3.60813 -4.276312,-3.4745 -42.629489,16.30344 22.584275,-16.30344 6.815373,17.50615 9.755335,-17.23888 2.806332,3.20723 2.27179,-3.74177 0.53454,4.00904 5.211755,-3.8754 4.677216,4.14267 8.8199,-4.27631 33.14142,17.50615 8.68626,-8.81989 -14.69983,-8.28535 1.87089,-5.21176 -5.34539,1.73725 0.66817,-5.21175 -5.47902,1.33634 -14.69983,-8.68625 -6.94901,8.95352 -7.75081,-9.2208 -9.488071,9.48807 -8.151719,-9.48807 -10.690781,9.35444 -6.414468,-9.48807 -6.1472,2.27179 5.345391,3.60814 4.944485,-6.01357 -0.801806,9.35444 -10.824416,-13.49711 5.612659,-6.68174 -5.211755,-6.01356 5.479023,-6.01357 -5.746294,-6.01356 5.746294,-5.3454 -5.879927,-6.14719 5.746294,-1.46998 -5.479026,-4.81086 7.082642,-6.28083 5.479026,5.7463 6.1472,-6.013571 5.078121,5.879931 6.414468,-5.879931 5.612659,5.879931 6.280831,-5.746296 5.7463,6.013566 6.5481,-5.87993 5.47903,5.61266 5.47902,-5.879931 5.21176,6.013571 7.88445,-5.479031 4.54358,6.013561 -5.61266,5.07812 6.01356,4.81086 -6.14719,3.60813 5.87993,6.1472 -6.01357,4.81085 6.01357,6.41447 -5.7463,4.00905 5.7463,6.81537 -5.7463,3.20723 4.67722,3.47451 -20.84703,7.48354"
           id="path947"
           inkscape:connector-curvature="0" />
      </g>
    </g>
    <text
       inkscape:export-ydpi="90"
       inkscape:export-xdpi="90"
       inkscape:export-filename="/home/siqueira/Documents/Repositories/siqueira.tech/images/posts/guest_host.png"
       id="text5045"
       y="-17.07844"
       x="-159.40456"
       style="font-style:normal;font-variant:normal;font-weight:normal;font-stretch:normal;font-size:10.58333302px;line-height:1.25;font-family:'GLADIATOR SPORT-Hollow-Inverse';-inkscape-font-specification:'GLADIATOR SPORT-Hollow-Inverse';letter-spacing:0px;word-spacing:0px;fill:#000000;fill-opacity:1;stroke:none;stroke-width:0.26458332"
       xml:space="preserve"><tspan
         id="tspan5039"
         style="font-style:normal;font-variant:normal;font-weight:bold;font-stretch:normal;font-size:25.39999962px;font-family:hack;-inkscape-font-specification:'hack Bold';text-align:start;text-anchor:start;stroke-width:0.26458332"
         y="-17.07844"
         x="-159.40456"
         sodipodi:role="line">Tests:</tspan><tspan
         id="tspan5043"
         style="font-style:normal;font-variant:normal;font-weight:bold;font-stretch:normal;font-size:25.39999962px;font-family:hack;-inkscape-font-specification:'hack Bold';text-align:start;text-anchor:start;stroke-width:0.26458332"
         y="14.67156"
         x="-159.40456"
         sodipodi:role="line">- Check logs</tspan><tspan
         style="font-style:normal;font-variant:normal;font-weight:bold;font-stretch:normal;font-size:25.39999962px;font-family:hack;-inkscape-font-specification:'hack Bold';text-align:start;text-anchor:start;stroke-width:0.26458332"
         y="46.421558"
         x="-159.40456"
         sodipodi:role="line"
         id="tspan5049">- Run code</tspan></text>
  </g>
</svg>
