<?xml version="1.0" encoding="UTF-8" standalone="no"?>
<!-- Created with Inkscape (http://www.inkscape.org/) -->

<svg
   xmlns:dc="http://purl.org/dc/elements/1.1/"
   xmlns:cc="http://creativecommons.org/ns#"
   xmlns:rdf="http://www.w3.org/1999/02/22-rdf-syntax-ns#"
   xmlns:svg="http://www.w3.org/2000/svg"
   xmlns="http://www.w3.org/2000/svg"
   xmlns:sodipodi="http://sodipodi.sourceforge.net/DTD/sodipodi-0.dtd"
   xmlns:inkscape="http://www.inkscape.org/namespaces/inkscape"
   width="210mm"
   height="297mm"
   viewBox="0 0 210 297"
   version="1.1"
   id="svg8"
   inkscape:version="0.92.2 2405546, 2018-03-11"
   sodipodi:docname="limeline.svg">
  <defs
     id="defs2">
    <filter
       inkscape:collect="always"
       style="color-interpolation-filters:sRGB"
       id="filter821"
       x="-0.0060440845"
       width="1.0120882"
       y="-0.82261441"
       height="2.6452288">
      <feGaussianBlur
         inkscape:collect="always"
         stdDeviation="2.0316989"
         id="feGaussianBlur823" />
    </filter>
    <filter
       inkscape:collect="always"
       style="color-interpolation-filters:sRGB"
       id="filter1126"
       x="-0.39789326"
       width="1.7957865"
       y="-0.018852871"
       height="1.0377057">
      <feGaussianBlur
         inkscape:collect="always"
         stdDeviation="0.30237899"
         id="feGaussianBlur1128" />
    </filter>
    <filter
       height="1.0293084"
       y="-0.014654206"
       width="1.132507"
       x="-0.066253504"
       id="filter906"
       style="color-interpolation-filters:sRGB"
       inkscape:collect="always">
      <feGaussianBlur
         id="feGaussianBlur908"
         stdDeviation="0.3209386"
         inkscape:collect="always" />
    </filter>
  </defs>
  <sodipodi:namedview
     id="base"
     pagecolor="#ffffff"
     bordercolor="#666666"
     borderopacity="1.0"
     inkscape:pageopacity="0.0"
     inkscape:pageshadow="2"
     inkscape:zoom="0.3437208"
     inkscape:cx="-328.24246"
     inkscape:cy="1176.7421"
     inkscape:document-units="mm"
     inkscape:current-layer="layer1"
     showgrid="false"
     inkscape:snap-nodes="false"
     inkscape:window-width="1920"
     inkscape:window-height="1039"
     inkscape:window-x="0"
     inkscape:window-y="0"
     inkscape:window-maximized="1" />
  <metadata
     id="metadata5">
    <rdf:RDF>
      <cc:Work
         rdf:about="">
        <dc:format>image/svg+xml</dc:format>
        <dc:type
           rdf:resource="http://purl.org/dc/dcmitype/StillImage" />
        <dc:title></dc:title>
      </cc:Work>
    </rdf:RDF>
  </metadata>
  <g
     inkscape:label="Layer 1"
     inkscape:groupmode="layer"
     id="layer1">
    <rect
       style="opacity:1;fill:#ffffff;fill-opacity:1;stroke:none;stroke-width:1.29999995;stroke-linecap:round;stroke-linejoin:miter;stroke-miterlimit:4;stroke-dasharray:none;stroke-dashoffset:0;stroke-opacity:1"
       id="rect1327"
       width="827.49451"
       height="105.45744"
       x="-473.40384"
       y="-0.89802825"
       ry="0.071726166"
       inkscape:export-filename="/home/siqueira/Pictures/vkms/timeline4.png"
       inkscape:export-xdpi="144.75999"
       inkscape:export-ydpi="144.75999" />
    <path
       inkscape:connector-curvature="0"
       id="path819"
       d="m -461.13094,71.726189 151.98701,-1.796505 141.80496,3.647715 72.954323,-4.10368 42.404696,1.823858 59.2753828,-1.823858 61.0992402,4.559644 32.373478,-4.559644 24.16612,4.559644 40.58084,-5.015608 21.88629,3.191751 31.46155,2.279822 25.07805,-5.015609 21.88629,2.735787 28.26981,-3.647715 32.82944,5.927537 18.69454,-2.735787"
       style="fill:none;stroke:#000000;stroke-width:1;stroke-linecap:butt;stroke-linejoin:miter;stroke-opacity:1;stroke-miterlimit:4;stroke-dasharray:none;filter:url(#filter821)"
       inkscape:export-filename="/home/siqueira/Pictures/vkms/timeline4.png"
       inkscape:export-xdpi="144.75999"
       inkscape:export-ydpi="144.75999" />
    <path
       style="fill:none;stroke:#000000;stroke-width:1;stroke-linecap:butt;stroke-linejoin:miter;stroke-miterlimit:4;stroke-dasharray:none;stroke-opacity:1"
       d="m -466.51928,71.726189 151.98701,-1.796505 141.80496,3.647715 72.954327,-4.10368 42.404696,1.823858 59.2753824,-1.823858 61.0992406,4.559644 32.373478,-4.559644 24.166116,4.559644 40.58084,-5.015608 21.88629,3.191751 31.46155,2.279822 25.07805,-5.015609 21.88629,2.735787 28.26981,-3.647715 32.82944,5.927537 18.69454,-2.735787"
       id="path817"
       inkscape:connector-curvature="0"
       inkscape:export-filename="/home/siqueira/Pictures/vkms/timeline4.png"
       inkscape:export-xdpi="144.75999"
       inkscape:export-ydpi="144.75999" />
    <g
       id="g1132"
       transform="translate(-67.739087,-38.488117)"
       inkscape:export-filename="/home/siqueira/Pictures/vkms/timeline4.png"
       inkscape:export-xdpi="144.75999"
       inkscape:export-ydpi="144.75999">
      <path
         sodipodi:nodetypes="cccc"
         inkscape:connector-curvature="0"
         id="path1098"
         d="m -389.94616,91.721812 0.68396,14.664118 -1.82388,10.08159 1.13992,13.74761"
         style="fill:none;stroke:#000000;stroke-width:1.29999995;stroke-linecap:round;stroke-linejoin:miter;stroke-miterlimit:4;stroke-dasharray:none;stroke-opacity:1;filter:url(#filter1126)" />
      <path
         style="fill:none;stroke:#000000;stroke-width:1;stroke-linecap:square;stroke-linejoin:miter;stroke-miterlimit:4;stroke-dasharray:none;stroke-opacity:1"
         d="m -389.94616,91.817992 0.68396,14.590858 -1.82388,10.03122 1.13992,13.67894"
         id="path1080"
         inkscape:connector-curvature="0"
         sodipodi:nodetypes="cccc" />
    </g>
    <g
       transform="translate(-15.036028,-38.488117)"
       id="g1138"
       inkscape:export-filename="/home/siqueira/Pictures/vkms/timeline4.png"
       inkscape:export-xdpi="144.75999"
       inkscape:export-ydpi="144.75999">
      <path
         style="fill:none;stroke:#000000;stroke-width:1.29999995;stroke-linecap:round;stroke-linejoin:miter;stroke-miterlimit:4;stroke-dasharray:none;stroke-opacity:1;filter:url(#filter1126)"
         d="m -389.94616,91.721812 0.68396,14.664118 -1.82388,10.08159 1.13992,13.74761"
         id="path1134"
         inkscape:connector-curvature="0"
         sodipodi:nodetypes="cccc" />
      <path
         sodipodi:nodetypes="cccc"
         inkscape:connector-curvature="0"
         id="path1136"
         d="m -389.94616,91.817992 0.68396,14.590858 -1.82388,10.03122 1.13992,13.67894"
         style="fill:none;stroke:#000000;stroke-width:1;stroke-linecap:square;stroke-linejoin:miter;stroke-miterlimit:4;stroke-dasharray:none;stroke-opacity:1" />
    </g>
    <g
       id="g1144"
       transform="translate(37.667029,-38.488117)"
       inkscape:export-filename="/home/siqueira/Pictures/vkms/timeline4.png"
       inkscape:export-xdpi="144.75999"
       inkscape:export-ydpi="144.75999">
      <path
         sodipodi:nodetypes="cccc"
         inkscape:connector-curvature="0"
         id="path1140"
         d="m -389.94616,91.721812 0.68396,14.664118 -1.82388,10.08159 1.13992,13.74761"
         style="fill:none;stroke:#000000;stroke-width:1.29999995;stroke-linecap:round;stroke-linejoin:miter;stroke-miterlimit:4;stroke-dasharray:none;stroke-opacity:1;filter:url(#filter1126)" />
      <path
         style="fill:none;stroke:#000000;stroke-width:1;stroke-linecap:square;stroke-linejoin:miter;stroke-miterlimit:4;stroke-dasharray:none;stroke-opacity:1"
         d="m -389.94616,91.817992 0.68396,14.590858 -1.82388,10.03122 1.13992,13.67894"
         id="path1142"
         inkscape:connector-curvature="0"
         sodipodi:nodetypes="cccc" />
    </g>
    <g
       transform="translate(90.370092,-38.488117)"
       id="g1150"
       inkscape:export-filename="/home/siqueira/Pictures/vkms/timeline4.png"
       inkscape:export-xdpi="144.75999"
       inkscape:export-ydpi="144.75999">
      <path
         style="fill:none;stroke:#000000;stroke-width:1.29999995;stroke-linecap:round;stroke-linejoin:miter;stroke-miterlimit:4;stroke-dasharray:none;stroke-opacity:1;filter:url(#filter1126)"
         d="m -389.94616,91.721812 0.68396,14.664118 -1.82388,10.08159 1.13992,13.74761"
         id="path1146"
         inkscape:connector-curvature="0"
         sodipodi:nodetypes="cccc" />
      <path
         sodipodi:nodetypes="cccc"
         inkscape:connector-curvature="0"
         id="path1148"
         d="m -389.94616,91.817992 0.68396,14.590858 -1.82388,10.03122 1.13992,13.67894"
         style="fill:none;stroke:#000000;stroke-width:1;stroke-linecap:square;stroke-linejoin:miter;stroke-miterlimit:4;stroke-dasharray:none;stroke-opacity:1" />
    </g>
    <g
       id="g1156"
       transform="translate(143.07315,-38.488117)"
       inkscape:export-filename="/home/siqueira/Pictures/vkms/timeline4.png"
       inkscape:export-xdpi="144.75999"
       inkscape:export-ydpi="144.75999">
      <path
         sodipodi:nodetypes="cccc"
         inkscape:connector-curvature="0"
         id="path1152"
         d="m -389.94616,91.721812 0.68396,14.664118 -1.82388,10.08159 1.13992,13.74761"
         style="fill:none;stroke:#000000;stroke-width:1.29999995;stroke-linecap:round;stroke-linejoin:miter;stroke-miterlimit:4;stroke-dasharray:none;stroke-opacity:1;filter:url(#filter1126)" />
      <path
         style="fill:none;stroke:#000000;stroke-width:1;stroke-linecap:square;stroke-linejoin:miter;stroke-miterlimit:4;stroke-dasharray:none;stroke-opacity:1"
         d="m -389.94616,91.817992 0.68396,14.590858 -1.82388,10.03122 1.13992,13.67894"
         id="path1154"
         inkscape:connector-curvature="0"
         sodipodi:nodetypes="cccc" />
    </g>
    <g
       transform="translate(195.77623,-38.488117)"
       id="g1162"
       inkscape:export-filename="/home/siqueira/Pictures/vkms/timeline4.png"
       inkscape:export-xdpi="144.75999"
       inkscape:export-ydpi="144.75999">
      <path
         style="fill:none;stroke:#000000;stroke-width:1.29999995;stroke-linecap:round;stroke-linejoin:miter;stroke-miterlimit:4;stroke-dasharray:none;stroke-opacity:1;filter:url(#filter1126)"
         d="m -389.94616,91.721812 0.68396,14.664118 -1.82388,10.08159 1.13992,13.74761"
         id="path1158"
         inkscape:connector-curvature="0"
         sodipodi:nodetypes="cccc" />
      <path
         sodipodi:nodetypes="cccc"
         inkscape:connector-curvature="0"
         id="path1160"
         d="m -389.94616,91.817992 0.68396,14.590858 -1.82388,10.03122 1.13992,13.67894"
         style="fill:none;stroke:#000000;stroke-width:1;stroke-linecap:square;stroke-linejoin:miter;stroke-miterlimit:4;stroke-dasharray:none;stroke-opacity:1" />
    </g>
    <g
       id="g1168"
       transform="translate(248.47927,-38.488117)"
       inkscape:export-filename="/home/siqueira/Pictures/vkms/timeline4.png"
       inkscape:export-xdpi="144.75999"
       inkscape:export-ydpi="144.75999">
      <path
         sodipodi:nodetypes="cccc"
         inkscape:connector-curvature="0"
         id="path1164"
         d="m -389.94616,91.721812 0.68396,14.664118 -1.82388,10.08159 1.13992,13.74761"
         style="fill:none;stroke:#000000;stroke-width:1.29999995;stroke-linecap:round;stroke-linejoin:miter;stroke-miterlimit:4;stroke-dasharray:none;stroke-opacity:1;filter:url(#filter1126)" />
      <path
         style="fill:none;stroke:#000000;stroke-width:1;stroke-linecap:square;stroke-linejoin:miter;stroke-miterlimit:4;stroke-dasharray:none;stroke-opacity:1"
         d="m -389.94616,91.817992 0.68396,14.590858 -1.82388,10.03122 1.13992,13.67894"
         id="path1166"
         inkscape:connector-curvature="0"
         sodipodi:nodetypes="cccc" />
    </g>
    <g
       transform="translate(301.18235,-38.488117)"
       id="g1174"
       inkscape:export-filename="/home/siqueira/Pictures/vkms/timeline4.png"
       inkscape:export-xdpi="144.75999"
       inkscape:export-ydpi="144.75999">
      <path
         style="fill:none;stroke:#000000;stroke-width:1.29999995;stroke-linecap:round;stroke-linejoin:miter;stroke-miterlimit:4;stroke-dasharray:none;stroke-opacity:1;filter:url(#filter1126)"
         d="m -389.94616,91.721812 0.68396,14.664118 -1.82388,10.08159 1.13992,13.74761"
         id="path1170"
         inkscape:connector-curvature="0"
         sodipodi:nodetypes="cccc" />
      <path
         sodipodi:nodetypes="cccc"
         inkscape:connector-curvature="0"
         id="path1172"
         d="m -389.94616,91.817992 0.68396,14.590858 -1.82388,10.03122 1.13992,13.67894"
         style="fill:none;stroke:#000000;stroke-width:1;stroke-linecap:square;stroke-linejoin:miter;stroke-miterlimit:4;stroke-dasharray:none;stroke-opacity:1" />
    </g>
    <g
       id="g1180"
       transform="translate(353.8854,-38.488117)"
       inkscape:export-filename="/home/siqueira/Pictures/vkms/timeline4.png"
       inkscape:export-xdpi="144.75999"
       inkscape:export-ydpi="144.75999">
      <path
         sodipodi:nodetypes="cccc"
         inkscape:connector-curvature="0"
         id="path1176"
         d="m -389.94616,91.721812 0.68396,14.664118 -1.82388,10.08159 1.13992,13.74761"
         style="fill:none;stroke:#000000;stroke-width:1.29999995;stroke-linecap:round;stroke-linejoin:miter;stroke-miterlimit:4;stroke-dasharray:none;stroke-opacity:1;filter:url(#filter1126)" />
      <path
         style="fill:none;stroke:#000000;stroke-width:1;stroke-linecap:square;stroke-linejoin:miter;stroke-miterlimit:4;stroke-dasharray:none;stroke-opacity:1"
         d="m -389.94616,91.817992 0.68396,14.590858 -1.82388,10.03122 1.13992,13.67894"
         id="path1178"
         inkscape:connector-curvature="0"
         sodipodi:nodetypes="cccc" />
    </g>
    <g
       transform="translate(406.58845,-38.488117)"
       id="g1186"
       inkscape:export-filename="/home/siqueira/Pictures/vkms/timeline4.png"
       inkscape:export-xdpi="144.75999"
       inkscape:export-ydpi="144.75999">
      <path
         style="fill:none;stroke:#000000;stroke-width:1.29999995;stroke-linecap:round;stroke-linejoin:miter;stroke-miterlimit:4;stroke-dasharray:none;stroke-opacity:1;filter:url(#filter1126)"
         d="m -389.94616,91.721812 0.68396,14.664118 -1.82388,10.08159 1.13992,13.74761"
         id="path1182"
         inkscape:connector-curvature="0"
         sodipodi:nodetypes="cccc" />
      <path
         sodipodi:nodetypes="cccc"
         inkscape:connector-curvature="0"
         id="path1184"
         d="m -389.94616,91.817992 0.68396,14.590858 -1.82388,10.03122 1.13992,13.67894"
         style="fill:none;stroke:#000000;stroke-width:1;stroke-linecap:square;stroke-linejoin:miter;stroke-miterlimit:4;stroke-dasharray:none;stroke-opacity:1" />
    </g>
    <g
       id="g1192"
       transform="translate(459.29153,-38.488117)"
       inkscape:export-filename="/home/siqueira/Pictures/vkms/timeline4.png"
       inkscape:export-xdpi="144.75999"
       inkscape:export-ydpi="144.75999">
      <path
         sodipodi:nodetypes="cccc"
         inkscape:connector-curvature="0"
         id="path1188"
         d="m -389.94616,91.721812 0.68396,14.664118 -1.82388,10.08159 1.13992,13.74761"
         style="fill:none;stroke:#000000;stroke-width:1.29999995;stroke-linecap:round;stroke-linejoin:miter;stroke-miterlimit:4;stroke-dasharray:none;stroke-opacity:1;filter:url(#filter1126)" />
      <path
         style="fill:none;stroke:#000000;stroke-width:1;stroke-linecap:square;stroke-linejoin:miter;stroke-miterlimit:4;stroke-dasharray:none;stroke-opacity:1"
         d="m -389.94616,91.817992 0.68396,14.590858 -1.82388,10.03122 1.13992,13.67894"
         id="path1190"
         inkscape:connector-curvature="0"
         sodipodi:nodetypes="cccc" />
    </g>
    <g
       transform="translate(511.99458,-38.488117)"
       id="g1198"
       inkscape:export-filename="/home/siqueira/Pictures/vkms/timeline4.png"
       inkscape:export-xdpi="144.75999"
       inkscape:export-ydpi="144.75999">
      <path
         style="fill:none;stroke:#000000;stroke-width:1.29999995;stroke-linecap:round;stroke-linejoin:miter;stroke-miterlimit:4;stroke-dasharray:none;stroke-opacity:1;filter:url(#filter1126)"
         d="m -389.94616,91.721812 0.68396,14.664118 -1.82388,10.08159 1.13992,13.74761"
         id="path1194"
         inkscape:connector-curvature="0"
         sodipodi:nodetypes="cccc" />
      <path
         sodipodi:nodetypes="cccc"
         inkscape:connector-curvature="0"
         id="path1196"
         d="m -389.94616,91.817992 0.68396,14.590858 -1.82388,10.03122 1.13992,13.67894"
         style="fill:none;stroke:#000000;stroke-width:1;stroke-linecap:square;stroke-linejoin:miter;stroke-miterlimit:4;stroke-dasharray:none;stroke-opacity:1" />
    </g>
    <g
       id="g1204"
       transform="translate(564.69763,-38.488117)"
       inkscape:export-filename="/home/siqueira/Pictures/vkms/timeline4.png"
       inkscape:export-xdpi="144.75999"
       inkscape:export-ydpi="144.75999">
      <path
         sodipodi:nodetypes="cccc"
         inkscape:connector-curvature="0"
         id="path1200"
         d="m -389.94616,91.721812 0.68396,14.664118 -1.82388,10.08159 1.13992,13.74761"
         style="fill:none;stroke:#000000;stroke-width:1.29999995;stroke-linecap:round;stroke-linejoin:miter;stroke-miterlimit:4;stroke-dasharray:none;stroke-opacity:1;filter:url(#filter1126)" />
      <path
         style="fill:none;stroke:#000000;stroke-width:1;stroke-linecap:square;stroke-linejoin:miter;stroke-miterlimit:4;stroke-dasharray:none;stroke-opacity:1"
         d="m -389.94616,91.817992 0.68396,14.590858 -1.82388,10.03122 1.13992,13.67894"
         id="path1202"
         inkscape:connector-curvature="0"
         sodipodi:nodetypes="cccc" />
    </g>
    <g
       transform="translate(617.40068,-38.488117)"
       id="g1210"
       inkscape:export-filename="/home/siqueira/Pictures/vkms/timeline4.png"
       inkscape:export-xdpi="144.75999"
       inkscape:export-ydpi="144.75999">
      <path
         style="fill:none;stroke:#000000;stroke-width:1.29999995;stroke-linecap:round;stroke-linejoin:miter;stroke-miterlimit:4;stroke-dasharray:none;stroke-opacity:1;filter:url(#filter1126)"
         d="m -389.94616,91.721812 0.68396,14.664118 -1.82388,10.08159 1.13992,13.74761"
         id="path1206"
         inkscape:connector-curvature="0"
         sodipodi:nodetypes="cccc" />
      <path
         sodipodi:nodetypes="cccc"
         inkscape:connector-curvature="0"
         id="path1208"
         d="m -389.94616,91.817992 0.68396,14.590858 -1.82388,10.03122 1.13992,13.67894"
         style="fill:none;stroke:#000000;stroke-width:1;stroke-linecap:square;stroke-linejoin:miter;stroke-miterlimit:4;stroke-dasharray:none;stroke-opacity:1" />
    </g>
    <g
       id="g1216"
       transform="translate(670.1038,-38.488117)"
       inkscape:export-filename="/home/siqueira/Pictures/vkms/timeline4.png"
       inkscape:export-xdpi="144.75999"
       inkscape:export-ydpi="144.75999">
      <path
         sodipodi:nodetypes="cccc"
         inkscape:connector-curvature="0"
         id="path1212"
         d="m -389.94616,91.721812 0.68396,14.664118 -1.82388,10.08159 1.13992,13.74761"
         style="fill:none;stroke:#000000;stroke-width:1.29999995;stroke-linecap:round;stroke-linejoin:miter;stroke-miterlimit:4;stroke-dasharray:none;stroke-opacity:1;filter:url(#filter1126)" />
      <path
         style="fill:none;stroke:#000000;stroke-width:1;stroke-linecap:square;stroke-linejoin:miter;stroke-miterlimit:4;stroke-dasharray:none;stroke-opacity:1"
         d="m -389.94616,91.817992 0.68396,14.590858 -1.82388,10.03122 1.13992,13.67894"
         id="path1214"
         inkscape:connector-curvature="0"
         sodipodi:nodetypes="cccc" />
    </g>
    <g
       transform="translate(722.80683,-38.488117)"
       id="g1222"
       inkscape:export-filename="/home/siqueira/Pictures/vkms/timeline4.png"
       inkscape:export-xdpi="144.75999"
       inkscape:export-ydpi="144.75999">
      <path
         style="fill:none;stroke:#000000;stroke-width:1.29999995;stroke-linecap:round;stroke-linejoin:miter;stroke-miterlimit:4;stroke-dasharray:none;stroke-opacity:1;filter:url(#filter1126)"
         d="m -389.94616,91.721812 0.68396,14.664118 -1.82388,10.08159 1.13992,13.74761"
         id="path1218"
         inkscape:connector-curvature="0"
         sodipodi:nodetypes="cccc" />
      <path
         sodipodi:nodetypes="cccc"
         inkscape:connector-curvature="0"
         id="path1220"
         d="m -389.94616,91.817992 0.68396,14.590858 -1.82388,10.03122 1.13992,13.67894"
         style="fill:none;stroke:#000000;stroke-width:1;stroke-linecap:square;stroke-linejoin:miter;stroke-miterlimit:4;stroke-dasharray:none;stroke-opacity:1" />
    </g>
    <g
       id="layer1-3"
       inkscape:label="Layer 1"
       transform="matrix(0,1,-0.92105229,0,79.937148,-75.997782)"
       style="stroke-width:1.04197633"
       inkscape:export-filename="/home/siqueira/Pictures/vkms/timeline4.png"
       inkscape:export-xdpi="144.75999"
       inkscape:export-ydpi="144.75999">
      <path
         style="fill:none;stroke:#000000;stroke-width:0.52098817;stroke-linecap:round;stroke-linejoin:round;stroke-miterlimit:4;stroke-dasharray:none;stroke-opacity:1;filter:url(#filter906)"
         d="m 125.5918,227.81807 -5.89479,0.81873 0.5731,-5.73105 -4.33922,-2.0468 4.58484,-4.91233 -3.27489,-4.01173 4.01174,-4.74858 -6.54977,-3.27489 6.71351,-4.17548 -4.33922,-3.35675 3.5205,-4.66671 -4.74858,-2.70178 4.33922,-3.60237 -1.14621,-6.63164 5.81292,1.71931 1.14621,-2.0468 -2.0468,-1.14621 -1.71932,4.42109 -6.1404,2.0468 4.25735,5.15795 -3.60238,4.01173 4.50297,3.02927 -4.33922,3.60237 3.27488,3.27488 -4.58484,2.12868 5.5673,6.05853 -4.74858,4.66671 3.60237,3.76612 -3.19301,6.38602 5.23982,-0.24561 0.32749,4.01173 2.6199,-2.86552 0.73685,2.78365 -4.58484,-0.0819 -0.24561,-5.15795 -4.74858,-0.98246 3.92986,-5.48543 -3.27489,-4.25735 4.50297,-4.66671 -5.97666,-6.4679 5.73104,-1.06433 -4.0936,-3.43863 4.01173,-4.17548 -4.83045,-2.86552 4.01173,-3.76612 -2.70178,-6.05854 6.05854,0.0819 1.63744,-3.84799 1.14621,2.53804 -4.74859,-2.04681 -0.73684,5.64918 -4.91233,2.78365 4.66671,4.25735 -3.68424,4.0936 4.50296,3.19301 -5.07607,3.43863 -0.24561,4.50297 4.33922,-0.65498 -3.11114,3.84799 3.76611,4.42109 -4.83045,4.9942 3.76611,2.9474 -1.71931,6.38602 4.9942,-1.63744 0.49123,3.84798 2.53804,-1.55556 -2.53804,-1.88306 -7.20474,-2.0468 4.25735,-9.9884 -3.68425,-4.0936 2.53804,-6.54977 -2.70178,3.43863 3.35676,-29.14647 1.1462,4.33922 h -4.91232 l 3.60237,5.81292 -3.68424,3.76612 4.99419,6.71351 -6.71351,4.33922 4.58484,0.49123 -2.21055,4.58484 4.25735,2.29242 -5.32168,7.20474 3.76611,2.70178 -2.37429,6.54977 4.25735,-1.80119"
         id="path892"
         inkscape:connector-curvature="0" />
      <path
         inkscape:connector-curvature="0"
         id="path890"
         d="m 125.5918,227.81807 -5.89479,0.81873 0.5731,-5.73105 -4.33922,-2.0468 4.58484,-4.91233 -3.27489,-4.01173 4.01174,-4.74858 -6.54977,-3.27489 6.71351,-4.17548 -4.33922,-3.35675 3.5205,-4.66671 -4.74858,-2.70178 4.33922,-3.60237 -1.14621,-6.63164 5.81292,1.71931 1.14621,-2.0468 -2.0468,-1.14621 -1.71932,4.42109 -6.1404,2.0468 4.25735,5.15795 -3.60238,4.01173 4.50297,3.02927 -4.33922,3.60237 3.27488,3.27488 -4.58484,2.12868 5.5673,6.05853 -4.74858,4.66671 3.60237,3.76612 -3.19301,6.38602 5.23982,-0.24561 0.32749,4.01173 2.6199,-2.86552 0.73685,2.78365 -4.58484,-0.0819 -0.24561,-5.15795 -4.74858,-0.98246 3.92986,-5.48543 -3.27489,-4.25735 4.50297,-4.66671 -5.97666,-6.4679 5.73104,-1.06433 -4.0936,-3.43863 4.01173,-4.17548 -4.83045,-2.86552 4.01173,-3.76612 -2.70178,-6.05854 6.05854,0.0819 1.63744,-3.84799 1.14621,2.53804 -4.74859,-2.04681 -0.73684,5.64918 -4.91233,2.78365 4.66671,4.25735 -3.68424,4.0936 4.50296,3.19301 -5.07607,3.43863 -0.24561,4.50297 4.33922,-0.65498 -3.11114,3.84799 3.76611,4.42109 -4.83045,4.9942 3.76611,2.9474 -1.71931,6.38602 4.9942,-1.63744 0.49123,3.84798 2.53804,-1.55556 -2.53804,-1.88306 -7.20474,-2.0468 4.25735,-9.9884 -3.68425,-4.0936 2.53804,-6.54977 -2.70178,3.43863 3.35676,-29.14647 1.1462,4.33922 h -4.91232 l 3.60237,5.81292 -3.68424,3.76612 4.99419,6.71351 -6.71351,4.33922 4.58484,0.49123 -2.21055,4.58484 4.25735,2.29242 -5.32168,7.20474 3.76611,2.70178 -2.37429,6.54977 4.25735,-1.80119"
         style="fill:none;stroke:#000000;stroke-width:0.52098817;stroke-linecap:round;stroke-linejoin:round;stroke-miterlimit:4;stroke-dasharray:none;stroke-opacity:1" />
    </g>
    <text
       xml:space="preserve"
       style="font-style:normal;font-variant:normal;font-weight:normal;font-stretch:normal;font-size:10.58333302px;line-height:1.25;font-family:Hack;-inkscape-font-specification:Hack;letter-spacing:0px;word-spacing:0px;fill:#000000;fill-opacity:1;stroke:none;stroke-width:0.26458332"
       x="-178.54338"
       y="31.43199"
       id="text1325"
       inkscape:export-filename="/home/siqueira/Pictures/vkms/timeline4.png"
       inkscape:export-xdpi="144.75999"
       inkscape:export-ydpi="144.75999"><tspan
         sodipodi:role="line"
         id="tspan1323"
         x="-178.54338"
         y="31.43199"
         style="font-style:normal;font-variant:normal;font-weight:bold;font-stretch:normal;font-size:14.11111069px;font-family:Hack;-inkscape-font-specification:'Hack Bold';stroke-width:0.26458332">16.6666 - delay</tspan></text>
    <g
       inkscape:export-ydpi="144.75999"
       inkscape:export-xdpi="144.75999"
       inkscape:export-filename="/home/siqueira/Pictures/vkms/timeline4.png"
       id="g1333"
       transform="translate(261.30866,-38.488117)"
       style="stroke:#ff0000">
      <path
         sodipodi:nodetypes="cccc"
         inkscape:connector-curvature="0"
         id="path1329"
         d="m -389.94616,91.721812 0.68396,14.664118 -1.82388,10.08159 1.13992,13.74761"
         style="fill:none;stroke:#ff0000;stroke-width:1.29999995;stroke-linecap:round;stroke-linejoin:miter;stroke-miterlimit:4;stroke-dasharray:none;stroke-opacity:1;filter:url(#filter1126)" />
      <path
         style="fill:none;stroke:#ff0000;stroke-width:1;stroke-linecap:square;stroke-linejoin:miter;stroke-miterlimit:4;stroke-dasharray:none;stroke-opacity:1"
         d="m -389.94616,91.817992 0.68396,14.590858 -1.82388,10.03122 1.13992,13.67894"
         id="path1331"
         inkscape:connector-curvature="0"
         sodipodi:nodetypes="cccc" />
    </g>
  </g>
</svg>
