<?xml version="1.0" encoding="UTF-8" standalone="no"?>
<!-- Created with Inkscape (http://www.inkscape.org/) -->

<svg
   xmlns:dc="http://purl.org/dc/elements/1.1/"
   xmlns:cc="http://creativecommons.org/ns#"
   xmlns:rdf="http://www.w3.org/1999/02/22-rdf-syntax-ns#"
   xmlns:svg="http://www.w3.org/2000/svg"
   xmlns="http://www.w3.org/2000/svg"
   xmlns:sodipodi="http://sodipodi.sourceforge.net/DTD/sodipodi-0.dtd"
   xmlns:inkscape="http://www.inkscape.org/namespaces/inkscape"
   width="602.46204mm"
   height="276.41217mm"
   viewBox="0 0 602.46204 276.41217"
   version="1.1"
   id="svg8"
   inkscape:version="0.92.4 5da689c313, 2019-01-14"
   sodipodi:docname="TDD.svg">
  <defs
     id="defs2">
    <filter
       height="1.0594984"
       y="-0.029749196"
       width="1.0150317"
       x="-0.0075158407"
       id="filter2292"
       style="color-interpolation-filters:sRGB"
       inkscape:collect="always">
      <feGaussianBlur
         id="feGaussianBlur2294"
         stdDeviation="0.36427456"
         inkscape:collect="always" />
    </filter>
    <filter
       height="1.0545915"
       y="-0.02729577"
       width="1.015381"
       x="-0.0076904767"
       id="filter905"
       style="color-interpolation-filters:sRGB"
       inkscape:collect="always">
      <feGaussianBlur
         id="feGaussianBlur907"
         stdDeviation="0.4316403"
         inkscape:collect="always" />
    </filter>
    <filter
       height="1.0416235"
       y="-0.020811765"
       width="1.016861"
       x="-0.0084305005"
       id="filter1645"
       style="color-interpolation-filters:sRGB"
       inkscape:collect="always">
      <feGaussianBlur
         id="feGaussianBlur1647"
         stdDeviation="0.59099974"
         inkscape:collect="always" />
    </filter>
  </defs>
  <sodipodi:namedview
     id="base"
     pagecolor="#ffffff"
     bordercolor="#666666"
     borderopacity="1.0"
     inkscape:pageopacity="0.0"
     inkscape:pageshadow="2"
     inkscape:zoom="0.14304199"
     inkscape:cx="948.20088"
     inkscape:cy="-666.18775"
     inkscape:document-units="mm"
     inkscape:current-layer="layer1"
     showgrid="false"
     inkscape:window-width="1920"
     inkscape:window-height="1039"
     inkscape:window-x="0"
     inkscape:window-y="0"
     inkscape:window-maximized="1"
     inkscape:object-nodes="false"
     fit-margin-top="0"
     fit-margin-left="0"
     fit-margin-right="0"
     fit-margin-bottom="0" />
  <metadata
     id="metadata5">
    <rdf:RDF>
      <cc:Work
         rdf:about="">
        <dc:format>image/svg+xml</dc:format>
        <dc:type
           rdf:resource="http://purl.org/dc/dcmitype/StillImage" />
        <dc:title></dc:title>
      </cc:Work>
    </rdf:RDF>
  </metadata>
  <g
     inkscape:label="Layer 1"
     inkscape:groupmode="layer"
     id="layer1"
     transform="translate(351.30837,55.772575)">
    <g
       id="layer1-6"
       inkscape:label="Layer 1"
       transform="matrix(1.4221861,0,0,1,116.84132,231.16002)"
       style="stroke-width:0.83853614">
      <g
         id="g2298"
         style="stroke-width:0.83853614">
        <path
           inkscape:connector-curvature="0"
           id="path2290"
           d="m -77.390624,-57.919643 -6.992559,-4.819195 -6.331101,4.913688 -7.559524,-5.008184 -6.236612,4.819198 -8.22098,-4.819198 -6.3311,4.819198 -7.27604,-4.724702 -6.14211,4.913688 -6.04762,-4.724701 -4.91369,4.630208 -5.66965,-4.724702 -5.29166,4.441219 -4.91369,-4.252232 -5.00819,4.346728 -5.76413,-4.630208 -15.78051,8.22098 -3.59077,-9.827379 14.83556,11.717261 -4.63021,3.685267 -4.15774,-19.560267 8.88245,-3.96875 -1.03944,-1.511903 -7.27604,22.111604 8.40997,-5.764136 -11.33929,-8.504465 -4.6302,7.559525 -3.11831,-2.83482 18.80432,-1.795389 -10.48884,-4.252232 10.67783,-0.283483 -4.06325,-3.874254 4.15774,-2.834822 -0.56696,29.387649 -12.85119,-20.410715 -4.15774,5.669642 18.70982,1.700895 5.38616,-4.630208 2.74033,4.724702 2.55134,-4.724702 3.40178,4.913688 3.68527,-4.913688 2.83482,4.724702 5.38616,-4.913691 2.83482,4.819197 2.45685,-4.535715 3.1183,5.008184 3.59078,-5.197173 4.7247,5.008184 4.15774,-4.724701 3.21279,4.724701 2.17337,-5.19717 1.79538,5.19717 1.88988,-5.008184 2.55134,4.913691 1.98438,-4.724702 2.55134,4.724702 1.22842,-4.913691 3.1183,4.630208 1.22843,-4.724701 2.36235,4.913691 2.36235,-4.630209 2.36235,4.724702 1.889882,-4.630208 2.929313,4.630208 1.889882,-4.819195 3.212798,4.819195 1.795386,-4.913691 1.889882,4.819198 2.645833,-4.724702 2.456844,4.630208 1.322917,-4.535715 0.377978,2.929316 -3.874256,1.889879 -6.614584,-4.819195 -3.496281,4.535715 -2.551337,-4.91369 -1.606399,5.008184 -3.023809,-4.819198 -1.228424,4.724704 -2.834825,-4.535715 -1.70089,4.724702 -2.55134,-4.630208 -1.5119,4.630208 -2.26786,-4.535715 -1.70089,4.724704 -2.55134,-4.724704 -1.88988,4.157739 -2.64584,-4.063243 -1.88988,4.252232 -2.83482,-4.630208 -2.64583,4.913688 -3.49628,-4.913688 -3.2128,4.724702 -3.59077,-4.535715 -3.77977,4.630208 -3.30729,-4.913691 -3.49628,4.724704 -3.68526,-4.535715 -4.63021,4.441219 -4.91369,-4.346725 -1.88988,4.441221 -2.55134,-4.441221 -4.15774,4.441221 -3.02381,-4.252232 -11.71726,9.35491 9.4494,-12.567708 -11.24479,-0.944941 -2.17336,9.732888 13.32366,-13.701638"
           style="fill:none;stroke:#000000;stroke-width:0.83853614;stroke-linecap:round;stroke-linejoin:round;stroke-miterlimit:4;stroke-dasharray:none;stroke-opacity:1;filter:url(#filter2292)" />
        <path
           style="fill:none;stroke:#000000;stroke-width:0.83853614;stroke-linecap:round;stroke-linejoin:round;stroke-miterlimit:4;stroke-dasharray:none;stroke-opacity:1"
           d="m -77.390624,-57.919643 -6.992559,-4.819195 -6.331101,4.913688 -7.559524,-5.008184 -6.236612,4.819198 -8.22098,-4.819198 -6.3311,4.819198 -7.27604,-4.724702 -6.14211,4.913688 -6.04762,-4.724701 -4.91369,4.630208 -5.66965,-4.724702 -5.29166,4.441219 -4.91369,-4.252232 -5.00819,4.346728 -5.76413,-4.630208 -15.78051,8.22098 -3.59077,-9.827379 14.83556,11.717261 -4.63021,3.685267 -4.15774,-19.560267 8.88245,-3.96875 -1.03944,-1.511903 -7.27604,22.111604 8.40997,-5.764136 -11.33929,-8.504465 -4.6302,7.559525 -3.11831,-2.83482 18.80432,-1.795389 -10.48884,-4.252232 10.67783,-0.283483 -4.06325,-3.874254 4.15774,-2.834822 -0.56696,29.387649 -12.85119,-20.410715 -4.15774,5.669642 18.70982,1.700895 5.38616,-4.630208 2.74033,4.724702 2.55134,-4.724702 3.40178,4.913688 3.68527,-4.913688 2.83482,4.724702 5.38616,-4.913691 2.83482,4.819197 2.45685,-4.535715 3.1183,5.008184 3.59078,-5.197173 4.7247,5.008184 4.15774,-4.724701 3.21279,4.724701 2.17337,-5.19717 1.79538,5.19717 1.88988,-5.008184 2.55134,4.913691 1.98438,-4.724702 2.55134,4.724702 1.22842,-4.913691 3.1183,4.630208 1.22843,-4.724701 2.36235,4.913691 2.36235,-4.630209 2.36235,4.724702 1.889882,-4.630208 2.929313,4.630208 1.889882,-4.819195 3.212798,4.819195 1.795386,-4.913691 1.889882,4.819198 2.645833,-4.724702 2.456844,4.630208 1.322917,-4.535715 0.377978,2.929316 -3.874256,1.889879 -6.614584,-4.819195 -3.496281,4.535715 -2.551337,-4.91369 -1.606399,5.008184 -3.023809,-4.819198 -1.228424,4.724704 -2.834825,-4.535715 -1.70089,4.724702 -2.55134,-4.630208 -1.5119,4.630208 -2.26786,-4.535715 -1.70089,4.724704 -2.55134,-4.724704 -1.88988,4.157739 -2.64584,-4.063243 -1.88988,4.252232 -2.83482,-4.630208 -2.64583,4.913688 -3.49628,-4.913688 -3.2128,4.724702 -3.59077,-4.535715 -3.77977,4.630208 -3.30729,-4.913691 -3.49628,4.724704 -3.68526,-4.535715 -4.63021,4.441219 -4.91369,-4.346725 -1.88988,4.441221 -2.55134,-4.441221 -4.15774,4.441221 -3.02381,-4.252232 -11.71726,9.35491 9.4494,-12.567708 -11.24479,-0.944941 -2.17336,9.732888 13.32366,-13.701638"
           id="path2269"
           inkscape:connector-curvature="0" />
      </g>
    </g>
    <g
       id="layer1-62"
       inkscape:label="Layer 1"
       transform="rotate(46.159361,142.63948,247.98787)">
      <g
         id="g912">
        <path
           style="fill:none;stroke:#000000;stroke-width:1;stroke-linecap:round;stroke-linejoin:round;stroke-miterlimit:4;stroke-dasharray:none;stroke-opacity:1;filter:url(#filter905)"
           d="m -99.958802,139.04371 2.539061,-7.08264 8.018084,1.33634 4.543584,-7.88445 11.759858,2.00452 5.479026,-6.81537 8.953529,4.14268 6.548102,-5.61266 9.755338,4.94448 8.819896,-4.81085 7.88445,6.28084 10.824415,-3.0736 5.6126604,7.48354 8.1517205,-2.80633 3.6081386,7.88445 8.6862595,-1.46998 2.53906,8.68626 h 8.151721 l 1.202713,8.55263 9.621704,2.27179 -5.078122,-6.1472 5.078122,-6.41447 -4.14268,-3.0736 -1.469982,2.93996 5.34539,6.1472 -6.013564,9.75534 -6.280833,-5.21176 -4.142677,5.21176 -2.939965,-2.93996 2.138156,-2.40543 5.479025,5.21176 5.479025,-8.95353 -7.349912,-0.26727 -2.004521,-9.08717 -7.884451,0.80181 -3.0735995,-8.28535 -8.5526246,2.13815 -4.8108515,-7.88445 -8.9535294,2.93997 -8.15172,-7.34991 -8.686259,4.54358 -7.750818,-5.7463 -6.414468,5.07812 -8.018084,-4.27631 -6.013567,5.34539 -10.289876,-3.74177 -8.018084,8.15172 -12.294399,-1.20271 -2.53906,8.41899 -7.349909,-0.26727 2.539056,-3.20724 12.962572,-1.33634 8.418992,-8.95353 10.824413,3.07359 6.013567,-6.01356 8.15172,4.54358 6.548104,-5.87993 8.151719,5.34539 8.68626,-4.27631 8.552625,6.68174 9.354433,-3.20723 5.7462948,7.75081 9.2207986,-1.87088 3.3408688,8.15172 8.5526248,-1.20272 1.469983,8.68626 8.15172,0.13364 v 11.75986 l -7.750816,-6.1472 -3.0736,4.94448 15.902537,0.53454 2.80633,-1.20271 -5.211755,-10.95805 3.340868,-7.08264 1.870887,6.41446 -10.156242,13.09621 -0.133635,-5.34539 10.423513,-0.80181 -5.479026,-2.40542 -6.280834,1.33634"
           id="path903"
           inkscape:connector-curvature="0" />
        <path
           style="fill:none;stroke:#000000;stroke-width:1;stroke-linecap:round;stroke-linejoin:round;stroke-miterlimit:4;stroke-dasharray:none;stroke-opacity:1"
           d="m -99.958802,139.04371 2.539061,-7.08264 8.018084,1.33634 4.543584,-7.88445 11.759858,2.00452 5.479026,-6.81537 8.953529,4.14268 6.548102,-5.61266 9.755338,4.94448 8.819896,-4.81085 7.88445,6.28084 10.824415,-3.0736 5.6126604,7.48354 8.1517205,-2.80633 3.6081386,7.88445 8.6862595,-1.46998 2.53906,8.68626 h 8.151721 l 1.202713,8.55263 9.621704,2.27179 -5.078122,-6.1472 5.078122,-6.41447 -4.14268,-3.0736 -1.469982,2.93996 5.34539,6.1472 -6.013564,9.75534 -6.280833,-5.21176 -4.142677,5.21176 -2.939965,-2.93996 2.138156,-2.40543 5.479025,5.21176 5.479025,-8.95353 -7.349912,-0.26727 -2.004521,-9.08717 -7.884451,0.80181 -3.0735995,-8.28535 -8.5526246,2.13815 -4.8108515,-7.88445 -8.9535294,2.93997 -8.15172,-7.34991 -8.686259,4.54358 -7.750818,-5.7463 -6.414468,5.07812 -8.018084,-4.27631 -6.013567,5.34539 -10.289876,-3.74177 -8.018084,8.15172 -12.294399,-1.20271 -2.53906,8.41899 -7.349909,-0.26727 2.539056,-3.20724 12.962572,-1.33634 8.418992,-8.95353 10.824413,3.07359 6.013567,-6.01356 8.15172,4.54358 6.548104,-5.87993 8.151719,5.34539 8.68626,-4.27631 8.552625,6.68174 9.354433,-3.20723 5.7462948,7.75081 9.2207986,-1.87088 3.3408688,8.15172 8.5526248,-1.20272 1.469983,8.68626 8.15172,0.13364 v 11.75986 l -7.750816,-6.1472 -3.0736,4.94448 15.902537,0.53454 2.80633,-1.20271 -5.211755,-10.95805 3.340868,-7.08264 1.870887,6.41446 -10.156242,13.09621 -0.133635,-5.34539 10.423513,-0.80181 -5.479026,-2.40542 -6.280834,1.33634"
           id="path899"
           inkscape:connector-curvature="0" />
        <path
           inkscape:connector-curvature="0"
           id="path901"
           d="m -99.958802,139.04371 2.539061,-7.08264 8.018084,1.33634 4.543584,-7.88445 11.759858,2.00452 5.479026,-6.81537 8.953529,4.14268 6.548102,-5.61266 9.755338,4.94448 8.819896,-4.81085 7.88445,6.28084 10.824415,-3.0736 5.6126604,7.48354 8.1517205,-2.80633 3.6081386,7.88445 8.6862595,-1.46998 2.53906,8.68626 h 8.151721 l 1.202713,8.55263 9.621704,2.27179 -5.078122,-6.1472 5.078122,-6.41447 -4.14268,-3.0736 -1.469982,2.93996 5.34539,6.1472 -6.013564,9.75534 -6.280833,-5.21176 -4.142677,5.21176 -2.939965,-2.93996 2.138156,-2.40543 5.479025,5.21176 5.479025,-8.95353 -7.349912,-0.26727 -2.004521,-9.08717 -7.884451,0.80181 -3.0735995,-8.28535 -8.5526246,2.13815 -4.8108515,-7.88445 -8.9535294,2.93997 -8.15172,-7.34991 -8.686259,4.54358 -7.750818,-5.7463 -6.414468,5.07812 -8.018084,-4.27631 -6.013567,5.34539 -10.289876,-3.74177 -8.018084,8.15172 -12.294399,-1.20271 -2.53906,8.41899 -7.349909,-0.26727 2.539056,-3.20724 12.962572,-1.33634 8.418992,-8.95353 10.824413,3.07359 6.013567,-6.01356 8.15172,4.54358 6.548104,-5.87993 8.151719,5.34539 8.68626,-4.27631 8.552625,6.68174 9.354433,-3.20723 5.7462948,7.75081 9.2207986,-1.87088 3.3408688,8.15172 8.5526248,-1.20272 1.469983,8.68626 8.15172,0.13364 v 11.75986 l -7.750816,-6.1472 -3.0736,4.94448 15.902537,0.53454 2.80633,-1.20271 -5.211755,-10.95805 3.340868,-7.08264 1.870887,6.41446 -10.156242,13.09621 -0.133635,-5.34539 10.423513,-0.80181 -5.479026,-2.40542 -6.280834,1.33634"
           style="fill:none;stroke:#000000;stroke-width:1;stroke-linecap:round;stroke-linejoin:round;stroke-miterlimit:4;stroke-dasharray:none;stroke-opacity:1" />
      </g>
    </g>
    <g
       id="g1087"
       transform="translate(0.07439791,33.261905)">
      <g
         style="stroke-width:0.80874449"
         transform="matrix(1.2336429,0,0,1.2393326,102.34663,-90.170881)"
         inkscape:label="Layer 1"
         id="layer1-7">
        <g
           style="stroke-width:0.80874449"
           id="g1651">
          <path
             style="fill:none;stroke:#000000;stroke-width:0.80874449;stroke-linecap:round;stroke-linejoin:round;stroke-miterlimit:4;stroke-dasharray:none;stroke-opacity:1;filter:url(#filter1645)"
             d="m -182.94599,7.9480057 19.37704,0.8018084 18.70887,-5.6126599 16.57071,3.2072342 8.55262,-3.7417733 14.69983,4.4099473 16.169804,-1.6036174 24.989699,11.626224 4.409948,13.898017 6.280833,9.621702 -8.819893,5.078122 -5.879931,10.958049 -11.225318,0.133636 -11.358957,10.022607 -22.450635,0.400904 -11.35896,3.207235 -17.10525,-4.009044 -13.49711,3.875408 -13.22984,-6.1472 -22.85154,2.405425 -10.55715,-10.557144 -15.90254,-5.879931 1.87089,-12.962572 -3.87541,-7.61718 9.48807,-5.345391 4.27631,-6.548104 14.83346,-3.474503 13.89801,-7.6171817 14.29893,-2.1381563 16.97161,2.271791 16.30344,-4.2763124 15.90254,4.5435818 10.69078,-3.6081385 22.985178,9.8889721 5.879928,-2.672695 4.276312,8.151721 11.49259,4.009043 -2.806329,5.479024 7.34991,0.935445 -5.479023,4.677216 6.548101,3.340868 -7.34991,3.608138 -1.202714,11.626226 -6.1472,-0.801809 -5.879928,7.617182 -10.557147,-0.668174 -9.888971,8.552625 -6.280835,-2.004521 -4.677222,3.608136 -13.49711,-2.00452 -11.75985,3.875408 -6.41447,-3.073599 -6.01357,2.539061 -10.69078,-3.875408 -12.6953,3.741772 -11.09168,-6.414468 -8.68627,4.009043 -4.94448,-5.746295 -10.42351,1.870888 -4.14268,-9.755338 -9.48807,0.668173 1.73725,-8.15172 -8.15172,-2.939965 5.7463,-9.087165 -2.00452,-8.285354 10.55714,-4.677217 7.34991,-7.216277 14.16529,-2.004522 10.69078,-6.681738 10.55715,3.0735997 11.35895,-5.3453905 16.16981,3.7417732 12.6953,-4.5435818"
             id="path1643"
             inkscape:connector-curvature="0" />
          <path
             inkscape:connector-curvature="0"
             id="path1641"
             d="m -182.94599,7.9480057 19.37704,0.8018084 18.70887,-5.6126599 16.57071,3.2072342 8.55262,-3.7417733 14.69983,4.4099473 16.169804,-1.6036174 24.989699,11.626224 4.409948,13.898017 6.280833,9.621702 -8.819893,5.078122 -5.879931,10.958049 -11.225318,0.133636 -11.358957,10.022607 -22.450635,0.400904 -11.35896,3.207235 -17.10525,-4.009044 -13.49711,3.875408 -13.22984,-6.1472 -22.85154,2.405425 -10.55715,-10.557144 -15.90254,-5.879931 1.87089,-12.962572 -3.87541,-7.61718 9.48807,-5.345391 4.27631,-6.548104 14.83346,-3.474503 13.89801,-7.6171817 14.29893,-2.1381563 16.97161,2.271791 16.30344,-4.2763124 15.90254,4.5435818 10.69078,-3.6081385 22.985178,9.8889721 5.879928,-2.672695 4.276312,8.151721 11.49259,4.009043 -2.806329,5.479024 7.34991,0.935445 -5.479023,4.677216 6.548101,3.340868 -7.34991,3.608138 -1.202714,11.626226 -6.1472,-0.801809 -5.879928,7.617182 -10.557147,-0.668174 -9.888971,8.552625 -6.280835,-2.004521 -4.677222,3.608136 -13.49711,-2.00452 -11.75985,3.875408 -6.41447,-3.073599 -6.01357,2.539061 -10.69078,-3.875408 -12.6953,3.741772 -11.09168,-6.414468 -8.68627,4.009043 -4.94448,-5.746295 -10.42351,1.870888 -4.14268,-9.755338 -9.48807,0.668173 1.73725,-8.15172 -8.15172,-2.939965 5.7463,-9.087165 -2.00452,-8.285354 10.55714,-4.677217 7.34991,-7.216277 14.16529,-2.004522 10.69078,-6.681738 10.55715,3.0735997 11.35895,-5.3453905 16.16981,3.7417732 12.6953,-4.5435818"
             style="fill:none;stroke:#000000;stroke-width:0.80874449;stroke-linecap:round;stroke-linejoin:round;stroke-miterlimit:4;stroke-dasharray:none;stroke-opacity:1" />
        </g>
      </g>
      <text
         id="text1009"
         y="-50.738098"
         x="-76.955162"
         style="font-style:normal;font-weight:normal;font-size:10.58333302px;line-height:1.25;font-family:sans-serif;letter-spacing:0px;word-spacing:0px;fill:#000000;fill-opacity:1;stroke:none;stroke-width:0.26458332"
         xml:space="preserve"><tspan
           style="font-style:normal;font-variant:normal;font-weight:bold;font-stretch:normal;font-size:22.57777786px;font-family:Hack;-inkscape-font-specification:'Hack Bold';text-align:center;text-anchor:middle;stroke-width:0.26458332"
           y="-50.738098"
           x="-76.955162"
           id="tspan1007"
           sodipodi:role="line">Watch IGT</tspan><tspan
           id="tspan1011"
           style="font-style:normal;font-variant:normal;font-weight:bold;font-stretch:normal;font-size:22.57777786px;font-family:Hack;-inkscape-font-specification:'Hack Bold';text-align:center;text-anchor:middle;stroke-width:0.26458332"
           y="-22.515875"
           x="-76.955162"
           sodipodi:role="line">test fail</tspan></text>
    </g>
    <g
       id="g1068"
       transform="translate(0,-14.585136)">
      <g
         style="stroke-width:0.72340828"
         transform="matrix(1.3774287,0,0,1.3872793,321.54038,135.46898)"
         inkscape:label="Layer 1"
         id="g1005">
        <g
           style="stroke-width:0.72340828"
           id="g1003">
          <path
             style="fill:none;stroke:#000000;stroke-width:0.72340828;stroke-linecap:round;stroke-linejoin:round;stroke-miterlimit:4;stroke-dasharray:none;stroke-opacity:1;filter:url(#filter1645)"
             d="m -182.94599,7.9480057 19.37704,0.8018084 18.70887,-5.6126599 16.57071,3.2072342 8.55262,-3.7417733 14.69983,4.4099473 16.169804,-1.6036174 24.989699,11.626224 4.409948,13.898017 6.280833,9.621702 -8.819893,5.078122 -5.879931,10.958049 -11.225318,0.133636 -11.358957,10.022607 -22.450635,0.400904 -11.35896,3.207235 -17.10525,-4.009044 -13.49711,3.875408 -13.22984,-6.1472 -22.85154,2.405425 -10.55715,-10.557144 -15.90254,-5.879931 1.87089,-12.962572 -3.87541,-7.61718 9.48807,-5.345391 4.27631,-6.548104 14.83346,-3.474503 13.89801,-7.6171817 14.29893,-2.1381563 16.97161,2.271791 16.30344,-4.2763124 15.90254,4.5435818 10.69078,-3.6081385 22.985178,9.8889721 5.879928,-2.672695 4.276312,8.151721 11.49259,4.009043 -2.806329,5.479024 7.34991,0.935445 -5.479023,4.677216 6.548101,3.340868 -7.34991,3.608138 -1.202714,11.626226 -6.1472,-0.801809 -5.879928,7.617182 -10.557147,-0.668174 -9.888971,8.552625 -6.280835,-2.004521 -4.677222,3.608136 -13.49711,-2.00452 -11.75985,3.875408 -6.41447,-3.073599 -6.01357,2.539061 -10.69078,-3.875408 -12.6953,3.741772 -11.09168,-6.414468 -8.68627,4.009043 -4.94448,-5.746295 -10.42351,1.870888 -4.14268,-9.755338 -9.48807,0.668173 1.73725,-8.15172 -8.15172,-2.939965 5.7463,-9.087165 -2.00452,-8.285354 10.55714,-4.677217 7.34991,-7.216277 14.16529,-2.004522 10.69078,-6.681738 10.55715,3.0735997 11.35895,-5.3453905 16.16981,3.7417732 12.6953,-4.5435818"
             id="path999"
             inkscape:connector-curvature="0" />
          <path
             inkscape:connector-curvature="0"
             id="path1001"
             d="m -182.94599,7.9480057 19.37704,0.8018084 18.70887,-5.6126599 16.57071,3.2072342 8.55262,-3.7417733 14.69983,4.4099473 16.169804,-1.6036174 24.989699,11.626224 4.409948,13.898017 6.280833,9.621702 -8.819893,5.078122 -5.879931,10.958049 -11.225318,0.133636 -11.358957,10.022607 -22.450635,0.400904 -11.35896,3.207235 -17.10525,-4.009044 -13.49711,3.875408 -13.22984,-6.1472 -22.85154,2.405425 -10.55715,-10.557144 -15.90254,-5.879931 1.87089,-12.962572 -3.87541,-7.61718 9.48807,-5.345391 4.27631,-6.548104 14.83346,-3.474503 13.89801,-7.6171817 14.29893,-2.1381563 16.97161,2.271791 16.30344,-4.2763124 15.90254,4.5435818 10.69078,-3.6081385 22.985178,9.8889721 5.879928,-2.672695 4.276312,8.151721 11.49259,4.009043 -2.806329,5.479024 7.34991,0.935445 -5.479023,4.677216 6.548101,3.340868 -7.34991,3.608138 -1.202714,11.626226 -6.1472,-0.801809 -5.879928,7.617182 -10.557147,-0.668174 -9.888971,8.552625 -6.280835,-2.004521 -4.677222,3.608136 -13.49711,-2.00452 -11.75985,3.875408 -6.41447,-3.073599 -6.01357,2.539061 -10.69078,-3.875408 -12.6953,3.741772 -11.09168,-6.414468 -8.68627,4.009043 -4.94448,-5.746295 -10.42351,1.870888 -4.14268,-9.755338 -9.48807,0.668173 1.73725,-8.15172 -8.15172,-2.939965 5.7463,-9.087165 -2.00452,-8.285354 10.55714,-4.677217 7.34991,-7.216277 14.16529,-2.004522 10.69078,-6.681738 10.55715,3.0735997 11.35895,-5.3453905 16.16981,3.7417732 12.6953,-4.5435818"
             style="fill:none;stroke:#000000;stroke-width:0.72340828;stroke-linecap:round;stroke-linejoin:round;stroke-miterlimit:4;stroke-dasharray:none;stroke-opacity:1" />
        </g>
      </g>
      <text
         xml:space="preserve"
         style="font-style:normal;font-weight:normal;font-size:10.58333302px;line-height:1.25;font-family:sans-serif;letter-spacing:0px;word-spacing:0px;fill:#000000;fill-opacity:1;stroke:none;stroke-width:0.26458332"
         x="133.86107"
         y="178.31548"
         id="text1017"><tspan
           id="tspan1021"
           sodipodi:role="line"
           x="133.86107"
           y="178.31548"
           style="font-style:normal;font-variant:normal;font-weight:bold;font-stretch:normal;font-size:22.57777786px;font-family:Hack;-inkscape-font-specification:'Hack Bold';text-align:center;text-anchor:middle;stroke-width:0.26458332">Write code to</tspan><tspan
           id="tspan1025"
           sodipodi:role="line"
           x="133.86107"
           y="206.5377"
           style="font-style:normal;font-variant:normal;font-weight:bold;font-stretch:normal;font-size:22.57777786px;font-family:Hack;-inkscape-font-specification:'Hack Bold';text-align:center;text-anchor:middle;stroke-width:0.26458332">pass the test</tspan></text>
    </g>
    <g
       id="g1059"
       transform="translate(0,-35.529762)">
      <g
         id="g997"
         inkscape:label="Layer 1"
         transform="translate(-129.12534,170.5153)">
        <g
           id="g995">
          <path
             inkscape:connector-curvature="0"
             id="path991"
             d="m -182.94599,7.9480057 19.37704,0.8018084 18.70887,-5.6126599 16.57071,3.2072342 8.55262,-3.7417733 14.69983,4.4099473 16.169804,-1.6036174 24.989699,11.626224 4.409948,13.898017 6.280833,9.621702 -8.819893,5.078122 -5.879931,10.958049 -11.225318,0.133636 -11.358957,10.022607 -22.450635,0.400904 -11.35896,3.207235 -17.10525,-4.009044 -13.49711,3.875408 -13.22984,-6.1472 -22.85154,2.405425 -10.55715,-10.557144 -15.90254,-5.879931 1.87089,-12.962572 -3.87541,-7.61718 9.48807,-5.345391 4.27631,-6.548104 14.83346,-3.474503 13.89801,-7.6171817 14.29893,-2.1381563 16.97161,2.271791 16.30344,-4.2763124 15.90254,4.5435818 10.69078,-3.6081385 22.985178,9.8889721 5.879928,-2.672695 4.276312,8.151721 11.49259,4.009043 -2.806329,5.479024 7.34991,0.935445 -5.479023,4.677216 6.548101,3.340868 -7.34991,3.608138 -1.202714,11.626226 -6.1472,-0.801809 -5.879928,7.617182 -10.557147,-0.668174 -9.888971,8.552625 -6.280835,-2.004521 -4.677222,3.608136 -13.49711,-2.00452 -11.75985,3.875408 -6.41447,-3.073599 -6.01357,2.539061 -10.69078,-3.875408 -12.6953,3.741772 -11.09168,-6.414468 -8.68627,4.009043 -4.94448,-5.746295 -10.42351,1.870888 -4.14268,-9.755338 -9.48807,0.668173 1.73725,-8.15172 -8.15172,-2.939965 5.7463,-9.087165 -2.00452,-8.285354 10.55714,-4.677217 7.34991,-7.216277 14.16529,-2.004522 10.69078,-6.681738 10.55715,3.0735997 11.35895,-5.3453905 16.16981,3.7417732 12.6953,-4.5435818"
             style="fill:none;stroke:#000000;stroke-width:1;stroke-linecap:round;stroke-linejoin:round;stroke-miterlimit:4;stroke-dasharray:none;stroke-opacity:1;filter:url(#filter1645)" />
          <path
             style="fill:none;stroke:#000000;stroke-width:1;stroke-linecap:round;stroke-linejoin:round;stroke-miterlimit:4;stroke-dasharray:none;stroke-opacity:1"
             d="m -182.94599,7.9480057 19.37704,0.8018084 18.70887,-5.6126599 16.57071,3.2072342 8.55262,-3.7417733 14.69983,4.4099473 16.169804,-1.6036174 24.989699,11.626224 4.409948,13.898017 6.280833,9.621702 -8.819893,5.078122 -5.879931,10.958049 -11.225318,0.133636 -11.358957,10.022607 -22.450635,0.400904 -11.35896,3.207235 -17.10525,-4.009044 -13.49711,3.875408 -13.22984,-6.1472 -22.85154,2.405425 -10.55715,-10.557144 -15.90254,-5.879931 1.87089,-12.962572 -3.87541,-7.61718 9.48807,-5.345391 4.27631,-6.548104 14.83346,-3.474503 13.89801,-7.6171817 14.29893,-2.1381563 16.97161,2.271791 16.30344,-4.2763124 15.90254,4.5435818 10.69078,-3.6081385 22.985178,9.8889721 5.879928,-2.672695 4.276312,8.151721 11.49259,4.009043 -2.806329,5.479024 7.34991,0.935445 -5.479023,4.677216 6.548101,3.340868 -7.34991,3.608138 -1.202714,11.626226 -6.1472,-0.801809 -5.879928,7.617182 -10.557147,-0.668174 -9.888971,8.552625 -6.280835,-2.004521 -4.677222,3.608136 -13.49711,-2.00452 -11.75985,3.875408 -6.41447,-3.073599 -6.01357,2.539061 -10.69078,-3.875408 -12.6953,3.741772 -11.09168,-6.414468 -8.68627,4.009043 -4.94448,-5.746295 -10.42351,1.870888 -4.14268,-9.755338 -9.48807,0.668173 1.73725,-8.15172 -8.15172,-2.939965 5.7463,-9.087165 -2.00452,-8.285354 10.55714,-4.677217 7.34991,-7.216277 14.16529,-2.004522 10.69078,-6.681738 10.55715,3.0735997 11.35895,-5.3453905 16.16981,3.7417732 12.6953,-4.5435818"
             id="path993"
             inkscape:connector-curvature="0" />
        </g>
      </g>
      <text
         xml:space="preserve"
         style="font-style:normal;font-weight:normal;font-size:10.58333302px;line-height:1.25;font-family:sans-serif;letter-spacing:0px;word-spacing:0px;fill:#000000;fill-opacity:1;stroke:none;stroke-width:0.26458332"
         x="-265.86609"
         y="200.88618"
         id="text1017-0"><tspan
           id="tspan1025-3"
           sodipodi:role="line"
           x="-265.86609"
           y="200.88618"
           style="font-style:normal;font-variant:normal;font-weight:bold;font-stretch:normal;font-size:22.57777786px;font-family:Hack;-inkscape-font-specification:'Hack Bold';text-align:center;text-anchor:middle;stroke-width:0.26458332">Improve</tspan><tspan
           id="tspan1050"
           sodipodi:role="line"
           x="-265.86609"
           y="229.10841"
           style="font-style:normal;font-variant:normal;font-weight:bold;font-stretch:normal;font-size:22.57777786px;font-family:Hack;-inkscape-font-specification:'Hack Bold';text-align:center;text-anchor:middle;stroke-width:0.26458332">the code</tspan></text>
    </g>
    <g
       transform="rotate(-65.49349,-206.19644,243.9546)"
       inkscape:label="Layer 1"
       id="g1078">
      <g
         id="g1076">
        <path
           inkscape:connector-curvature="0"
           id="path1070"
           d="m -99.958802,139.04371 2.539061,-7.08264 8.018084,1.33634 4.543584,-7.88445 11.759858,2.00452 5.479026,-6.81537 8.953529,4.14268 6.548102,-5.61266 9.755338,4.94448 8.819896,-4.81085 7.88445,6.28084 10.824415,-3.0736 5.6126604,7.48354 8.1517205,-2.80633 3.6081386,7.88445 8.6862595,-1.46998 2.53906,8.68626 h 8.151721 l 1.202713,8.55263 9.621704,2.27179 -5.078122,-6.1472 5.078122,-6.41447 -4.14268,-3.0736 -1.469982,2.93996 5.34539,6.1472 -6.013564,9.75534 -6.280833,-5.21176 -4.142677,5.21176 -2.939965,-2.93996 2.138156,-2.40543 5.479025,5.21176 5.479025,-8.95353 -7.349912,-0.26727 -2.004521,-9.08717 -7.884451,0.80181 -3.0735995,-8.28535 -8.5526246,2.13815 -4.8108515,-7.88445 -8.9535294,2.93997 -8.15172,-7.34991 -8.686259,4.54358 -7.750818,-5.7463 -6.414468,5.07812 -8.018084,-4.27631 -6.013567,5.34539 -10.289876,-3.74177 -8.018084,8.15172 -12.294399,-1.20271 -2.53906,8.41899 -7.349909,-0.26727 2.539056,-3.20724 12.962572,-1.33634 8.418992,-8.95353 10.824413,3.07359 6.013567,-6.01356 8.15172,4.54358 6.548104,-5.87993 8.151719,5.34539 8.68626,-4.27631 8.552625,6.68174 9.354433,-3.20723 5.7462948,7.75081 9.2207986,-1.87088 3.3408688,8.15172 8.5526248,-1.20272 1.469983,8.68626 8.15172,0.13364 v 11.75986 l -7.750816,-6.1472 -3.0736,4.94448 15.902537,0.53454 2.80633,-1.20271 -5.211755,-10.95805 3.340868,-7.08264 1.870887,6.41446 -10.156242,13.09621 -0.133635,-5.34539 10.423513,-0.80181 -5.479026,-2.40542 -6.280834,1.33634"
           style="fill:none;stroke:#000000;stroke-width:1;stroke-linecap:round;stroke-linejoin:round;stroke-miterlimit:4;stroke-dasharray:none;stroke-opacity:1;filter:url(#filter905)" />
        <path
           inkscape:connector-curvature="0"
           id="path1072"
           d="m -99.958802,139.04371 2.539061,-7.08264 8.018084,1.33634 4.543584,-7.88445 11.759858,2.00452 5.479026,-6.81537 8.953529,4.14268 6.548102,-5.61266 9.755338,4.94448 8.819896,-4.81085 7.88445,6.28084 10.824415,-3.0736 5.6126604,7.48354 8.1517205,-2.80633 3.6081386,7.88445 8.6862595,-1.46998 2.53906,8.68626 h 8.151721 l 1.202713,8.55263 9.621704,2.27179 -5.078122,-6.1472 5.078122,-6.41447 -4.14268,-3.0736 -1.469982,2.93996 5.34539,6.1472 -6.013564,9.75534 -6.280833,-5.21176 -4.142677,5.21176 -2.939965,-2.93996 2.138156,-2.40543 5.479025,5.21176 5.479025,-8.95353 -7.349912,-0.26727 -2.004521,-9.08717 -7.884451,0.80181 -3.0735995,-8.28535 -8.5526246,2.13815 -4.8108515,-7.88445 -8.9535294,2.93997 -8.15172,-7.34991 -8.686259,4.54358 -7.750818,-5.7463 -6.414468,5.07812 -8.018084,-4.27631 -6.013567,5.34539 -10.289876,-3.74177 -8.018084,8.15172 -12.294399,-1.20271 -2.53906,8.41899 -7.349909,-0.26727 2.539056,-3.20724 12.962572,-1.33634 8.418992,-8.95353 10.824413,3.07359 6.013567,-6.01356 8.15172,4.54358 6.548104,-5.87993 8.151719,5.34539 8.68626,-4.27631 8.552625,6.68174 9.354433,-3.20723 5.7462948,7.75081 9.2207986,-1.87088 3.3408688,8.15172 8.5526248,-1.20272 1.469983,8.68626 8.15172,0.13364 v 11.75986 l -7.750816,-6.1472 -3.0736,4.94448 15.902537,0.53454 2.80633,-1.20271 -5.211755,-10.95805 3.340868,-7.08264 1.870887,6.41446 -10.156242,13.09621 -0.133635,-5.34539 10.423513,-0.80181 -5.479026,-2.40542 -6.280834,1.33634"
           style="fill:none;stroke:#000000;stroke-width:1;stroke-linecap:round;stroke-linejoin:round;stroke-miterlimit:4;stroke-dasharray:none;stroke-opacity:1" />
        <path
           style="fill:none;stroke:#000000;stroke-width:1;stroke-linecap:round;stroke-linejoin:round;stroke-miterlimit:4;stroke-dasharray:none;stroke-opacity:1"
           d="m -99.958802,139.04371 2.539061,-7.08264 8.018084,1.33634 4.543584,-7.88445 11.759858,2.00452 5.479026,-6.81537 8.953529,4.14268 6.548102,-5.61266 9.755338,4.94448 8.819896,-4.81085 7.88445,6.28084 10.824415,-3.0736 5.6126604,7.48354 8.1517205,-2.80633 3.6081386,7.88445 8.6862595,-1.46998 2.53906,8.68626 h 8.151721 l 1.202713,8.55263 9.621704,2.27179 -5.078122,-6.1472 5.078122,-6.41447 -4.14268,-3.0736 -1.469982,2.93996 5.34539,6.1472 -6.013564,9.75534 -6.280833,-5.21176 -4.142677,5.21176 -2.939965,-2.93996 2.138156,-2.40543 5.479025,5.21176 5.479025,-8.95353 -7.349912,-0.26727 -2.004521,-9.08717 -7.884451,0.80181 -3.0735995,-8.28535 -8.5526246,2.13815 -4.8108515,-7.88445 -8.9535294,2.93997 -8.15172,-7.34991 -8.686259,4.54358 -7.750818,-5.7463 -6.414468,5.07812 -8.018084,-4.27631 -6.013567,5.34539 -10.289876,-3.74177 -8.018084,8.15172 -12.294399,-1.20271 -2.53906,8.41899 -7.349909,-0.26727 2.539056,-3.20724 12.962572,-1.33634 8.418992,-8.95353 10.824413,3.07359 6.013567,-6.01356 8.15172,4.54358 6.548104,-5.87993 8.151719,5.34539 8.68626,-4.27631 8.552625,6.68174 9.354433,-3.20723 5.7462948,7.75081 9.2207986,-1.87088 3.3408688,8.15172 8.5526248,-1.20272 1.469983,8.68626 8.15172,0.13364 v 11.75986 l -7.750816,-6.1472 -3.0736,4.94448 15.902537,0.53454 2.80633,-1.20271 -5.211755,-10.95805 3.340868,-7.08264 1.870887,6.41446 -10.156242,13.09621 -0.133635,-5.34539 10.423513,-0.80181 -5.479026,-2.40542 -6.280834,1.33634"
           id="path1074"
           inkscape:connector-curvature="0" />
      </g>
    </g>
  </g>
</svg>
