<?xml version="1.0" encoding="UTF-8" standalone="no"?>
<!-- Created with Inkscape (http://www.inkscape.org/) -->

<svg
   xmlns:dc="http://purl.org/dc/elements/1.1/"
   xmlns:cc="http://creativecommons.org/ns#"
   xmlns:rdf="http://www.w3.org/1999/02/22-rdf-syntax-ns#"
   xmlns:svg="http://www.w3.org/2000/svg"
   xmlns="http://www.w3.org/2000/svg"
   xmlns:sodipodi="http://sodipodi.sourceforge.net/DTD/sodipodi-0.dtd"
   xmlns:inkscape="http://www.inkscape.org/namespaces/inkscape"
   width="210mm"
   height="297mm"
   viewBox="0 0 210 297"
   version="1.1"
   id="svg8"
   inkscape:version="0.92.2 2405546, 2018-03-11"
   sodipodi:docname="what_is_packaging.svg">
  <defs
     id="defs2">
    <filter
       height="1.0847075"
       y="-0.042353749"
       width="1.0275299"
       x="-0.013764929"
       id="filter4162"
       style="color-interpolation-filters:sRGB"
       inkscape:collect="always">
      <feGaussianBlur
         id="feGaussianBlur4164"
         stdDeviation="0.89221685"
         inkscape:collect="always" />
    </filter>
    <filter
       height="1.0495859"
       y="-0.024792972"
       width="1.0626147"
       x="-0.031307342"
       id="filter4166"
       style="color-interpolation-filters:sRGB"
       inkscape:collect="always">
      <feGaussianBlur
         id="feGaussianBlur4168"
         stdDeviation="0.89221685"
         inkscape:collect="always" />
    </filter>
    <filter
       height="1.0339848"
       y="-0.016992377"
       width="1.023718"
       x="-0.011859016"
       id="filter4170"
       style="color-interpolation-filters:sRGB"
       inkscape:collect="always">
      <feGaussianBlur
         id="feGaussianBlur4172"
         stdDeviation="0.89221685"
         inkscape:collect="always" />
    </filter>
    <filter
       inkscape:collect="always"
       style="color-interpolation-filters:sRGB"
       id="filter919-9"
       x="-0.0085846148"
       width="1.0171692"
       y="-0.019928573"
       height="1.0398571">
      <feGaussianBlur
         inkscape:collect="always"
         stdDeviation="0.49712131"
         id="feGaussianBlur921-1" />
    </filter>
    <filter
       height="1.0265057"
       y="-0.013252874"
       width="1.0219271"
       x="-0.01096355"
       id="filter1228"
       style="color-interpolation-filters:sRGB"
       inkscape:collect="always">
      <feGaussianBlur
         id="feGaussianBlur1230"
         stdDeviation="1.4684216"
         inkscape:collect="always" />
    </filter>
    <filter
       height="1.0216372"
       y="-0.010818605"
       width="1.0269421"
       x="-0.013471042"
       id="filter1624"
       style="color-interpolation-filters:sRGB"
       inkscape:collect="always">
      <feGaussianBlur
         id="feGaussianBlur1626"
         stdDeviation="0.29140729"
         inkscape:collect="always" />
    </filter>
    <filter
       height="1.022562"
       y="-0.011280991"
       width="1.0256338"
       x="-0.012816902"
       id="filter913"
       style="color-interpolation-filters:sRGB"
       inkscape:collect="always">
      <feGaussianBlur
         id="feGaussianBlur915"
         stdDeviation="0.41148825"
         inkscape:collect="always" />
    </filter>
  </defs>
  <sodipodi:namedview
     id="base"
     pagecolor="#ffffff"
     bordercolor="#666666"
     borderopacity="1.0"
     inkscape:pageopacity="0.0"
     inkscape:pageshadow="2"
     inkscape:zoom="0.7"
     inkscape:cx="354.30962"
     inkscape:cy="596.10224"
     inkscape:document-units="mm"
     inkscape:current-layer="layer1"
     showgrid="false"
     inkscape:window-width="1920"
     inkscape:window-height="1039"
     inkscape:window-x="0"
     inkscape:window-y="0"
     inkscape:window-maximized="1"
     inkscape:snap-nodes="false" />
  <metadata
     id="metadata5">
    <rdf:RDF>
      <cc:Work
         rdf:about="">
        <dc:format>image/svg+xml</dc:format>
        <dc:type
           rdf:resource="http://purl.org/dc/dcmitype/StillImage" />
        <dc:title></dc:title>
      </cc:Work>
    </rdf:RDF>
  </metadata>
  <g
     inkscape:label="Layer 1"
     inkscape:groupmode="layer"
     id="layer1">
    <rect
       style="opacity:1;fill:none;fill-opacity:1;stroke:none;stroke-width:1;stroke-linecap:round;stroke-linejoin:round;stroke-miterlimit:4;stroke-dasharray:none;stroke-dashoffset:0;stroke-opacity:1"
       id="rect4146"
       width="192.76785"
       height="266.47321"
       x="17.764881"
       y="18.431547"
       ry="0.067634076"
       inkscape:export-filename="/home/siqueira/Documents/Repositories/TA/debian/empacotamento/images/o_que_eh_empacotamento_4.png"
       inkscape:export-xdpi="144.75999"
       inkscape:export-ydpi="144.75999" />
    <g
       id="layer1-6"
       inkscape:label="Layer 1"
       transform="matrix(0.28222222,0,0,0.28222222,-35.31502,-67.622381)"
       inkscape:export-filename="/home/siqueira/Documents/Repositories/TA/debian/empacotamento/images/o_que_eh_empacotamento_4.png"
       inkscape:export-xdpi="144.75999"
       inkscape:export-ydpi="144.75999">
      <path
         style="fill:none;fill-rule:evenodd;stroke:#000000;stroke-width:3.5;stroke-linecap:butt;stroke-linejoin:bevel;stroke-miterlimit:4;stroke-dasharray:none;stroke-opacity:1;filter:url(#filter4162)"
         d="M 212.14286,489.50506 245,443.07649 l 28.57143,45 25.9388,-47.61419 23.48605,48.23478 17.9302,-42.4264 23.73859,37.37564 -3.283,4.54569 -31.56726,-44.19418 -19.44544,44.19418 -23.99112,-49.24494 -28.03174,49.49748 -47.47717,-30.30458 20.96067,-10.85914 62.37692,41.66879 22.72843,-47.98224 28.53681,46.71955 20.20305,-18.68782 -10.85914,-18.43528 -39.39595,37.88072 -55.81093,-46.71956 -32.82995,46.21448 -15.65737,-12.12183 9.09138,-25.00128 60.86169,37.88072 26.26396,-48.23478 28.78935,47.72971 29.7995,-29.54696 -90.66119,-17.93021 -64.9023,25.25381 33.33503,22.98097 21.46574,-47.47717 36.61803,46.9721 21.21321,-46.21448 30.30457,45.7094 11.8693,-11.11168 -17.67767,-28.03173 -81.82236,39.14341 -50.25509,-34.85026 19.1929,35.1028 16.66752,-45.96194 36.11295,46.97209 7.32361,-48.9924 20.70812,48.48732 19.1929,-43.43656 29.29442,42.67895 -94.44926,-47.22463 -29.7995,47.72971 -28.03173,-6.31346 99.75256,-40.65864 29.7995,46.71956 24.74874,-23.99113 -5.80838,-9.84898 -32.07234,33.58757 -91.41881,-42.67895 -25.50635,34.09265 9.09138,9.09138 59.85153,-47.98225 26.01143,47.98225 44.69925,-39.14342 14.89975,23.48605 -16.16244,15.15229 -46.71955,-47.22463 -39.90103,47.22463 -36.87057,-39.64849 -15.40482,22.4759 39.39595,18.18274 40.91117,-49.24493 40.91118,48.73986"
         id="path4156"
         inkscape:connector-curvature="0" />
      <path
         style="fill:none;fill-rule:evenodd;stroke:#000000;stroke-width:2;stroke-linecap:square;stroke-linejoin:bevel;stroke-miterlimit:4;stroke-dasharray:none;stroke-opacity:1;filter:url(#filter4166)"
         d="m 323.75389,441.21991 -6.50286,-2.58851 -4.92449,1.6415 -1.07329,-4.79823 -4.41941,3.97748 -0.82075,-6.18719 -7.32361,6.12405 5.61897,-17.48826 -43.94163,-29.67323 51.26524,-25.75889 -40.4061,51.51778 45.45686,-22.98097 -53.79062,7.82868 7.57614,-42.17387 38.3858,50.76016 -36.11295,15.90991 31.06219,4.54568 -48.44624,8.70049 16.78572,-7.67857 4.375,6.25 36.37689,-52.72878 -22.47589,-31.56727 -22.72844,55.30585 48.48733,-10.6066 -34.85027,-44.19417 -20.70812,42.93148 52.78047,-20.70813 -50.76017,0.50508 39.90103,-20.20305 -33.58757,56.56854 34.85026,11.11168 -31.31473,5.3033 18.68782,7.07107 23.48605,-48.9924 -1.76777,15.15229 3.78807,-7.07107 -53.03301,-27.77919 32.82996,-13.63706 16.92006,25.75889 -47.22463,23.48604 46.97209,-33.33503 -48.9924,12.37437 42.67895,-22.4759 v 55.55839 l -34.59773,5.3033 23.23351,16.66752"
         id="path4158"
         inkscape:connector-curvature="0" />
      <path
         style="fill:none;fill-rule:evenodd;stroke:#000000;stroke-width:3;stroke-linecap:square;stroke-linejoin:bevel;stroke-miterlimit:4;stroke-dasharray:none;stroke-opacity:1;filter:url(#filter4170)"
         d="m 263.64981,417.48133 -3.28299,13.13198 -13.38452,-13.38452 -6.81853,21.2132 -13.38452,-21.2132 -9.09138,21.2132 -18.94036,-20.45558 9.09138,-12.87945 -9.34391,-10.35406 9.34391,-11.61676 -9.34391,-11.36421 9.34391,-10.85914 -8.83884,-10.10153 9.09137,-9.84899 -9.59644,-10.35406 13.63705,-16.41498 9.84899,11.36422 10.10153,-10.85914 9.09137,10.6066 8.83884,-10.35406 7.07106,10.35406 8.5863,-10.85914 9.59645,10.6066 8.08122,-11.86929 9.09137,13.13198 10.6066,-12.6269 7.82869,11.86929 8.83883,-11.86929 9.84899,11.61675 8.58629,-11.61675 9.84899,11.86929 9.34391,-12.12183 8.33376,12.6269 11.61676,-10.35406 -7.82869,19.1929 9.34391,11.61675 -9.34391,20.70813 9.34391,14.14214 -9.84898,17.67767 9.09137,14.14213 -11.11168,25.25381 -23.73858,-21.2132 -12.62691,19.1929 -14.89975,-19.1929 -4.29315,12.37437 17.93021,-12.12183 13.8896,21.71828 12.37437,-21.71828 21.46574,20.20305 -7.82868,-22.22336 8.83883,-16.16244 -9.34391,-15.9099 9.34391,-17.67767 -8.83883,-14.14213 9.34391,-14.89975 -10.10153,-9.84899 9.84899,-3.283 -8.33376,-8.58629 -12.37437,10.85914 -9.84899,-10.85914 -9.09137,10.6066 -9.84899,-11.36422 -7.57614,11.61676 -9.34391,-11.11168 -8.33376,11.11168 -9.59645,-11.36422 -9.09137,11.36422 -8.33376,-10.85914 -7.32361,10.10152 -9.09137,-10.35406 -9.59645,11.11168 -9.34391,-10.85914 -9.09137,10.85914 -10.35407,-11.8693 -7.82868,11.36422 -14.64721,-10.10153 8.33376,14.14214 -8.83884,11.61675 8.5863,9.84899 -9.09137,10.35406 9.09137,11.61676 -8.33376,12.37437 9.34391,11.36421 -9.34391,10.35407 8.33376,10.35406 -8.08122,18.43529 3.53553,3.03045 9.59645,-21.71828 15.90991,21.46574 10.10152,-21.97081 13.63706,18.68782 5.05076,-17.67767 9.34391,11.36422 -15.15228,-11.36422 -5.05077,18.94036 -13.88959,-18.94036 -8.5863,20.70813 -14.14214,-20.45559 -10.35406,7.82868 20.96067,-7.57614 14.14213,20.70812 9.09137,-21.46574 22.4759,6.31345 -52.78047,15.40483 -14.39468,-27.02158 9.09138,-21.71828 -9.09138,-12.12183 9.09138,-11.36422 -8.5863,-10.85914 8.5863,-10.35406 -8.83884,-8.83883 16.66752,-21.97082 11.36421,11.11168 10.60661,-11.61676 9.09137,12.37437 9.34391,-12.12183 8.08122,11.11168 8.08122,-11.36422 8.33376,12.37437 9.34391,-13.38452 8.33376,12.37437 9.09137,-11.11168 7.82868,11.36422 9.59645,-12.62691 9.09138,12.12183 9.59645,-12.12183 8.83883,11.86929 13.38452,-10.85914 12.62691,15.9099 -9.59645,13.63706 9.09137,12.37437 -8.58629,18.43529 8.58629,16.66751 -8.58629,16.66752 8.83883,17.67767 -7.57614,12.62691 -20.70813,-20.96067 -11.86929,21.46574 -14.89975,-21.2132 -12.12183,6.06091 9.84898,9.34392 15.65737,-15.40483 18.43528,20.20305 9.59645,-20.96067 13.8896,16.41498 -16.92006,4.79823 -22.22335,-20.70813 -14.39468,17.93021 53.03301,-15.9099"
         id="path4160"
         inkscape:connector-curvature="0" />
      <path
         inkscape:connector-curvature="0"
         id="path4891"
         d="M 212.14286,489.50506 245,443.07649 l 28.57143,45 25.9388,-47.61419 23.48605,48.23478 17.9302,-42.4264 23.73859,37.37564 -3.283,4.54569 -31.56726,-44.19418 -19.44544,44.19418 -23.99112,-49.24494 -28.03174,49.49748 -47.47717,-30.30458 20.96067,-10.85914 62.37692,41.66879 22.72843,-47.98224 28.53681,46.71955 20.20305,-18.68782 -10.85914,-18.43528 -39.39595,37.88072 -55.81093,-46.71956 -32.82995,46.21448 -15.65737,-12.12183 9.09138,-25.00128 60.86169,37.88072 26.26396,-48.23478 28.78935,47.72971 29.7995,-29.54696 -90.66119,-17.93021 -64.9023,25.25381 33.33503,22.98097 21.46574,-47.47717 36.61803,46.9721 21.21321,-46.21448 30.30457,45.7094 11.8693,-11.11168 -17.67767,-28.03173 -81.82236,39.14341 -50.25509,-34.85026 19.1929,35.1028 16.66752,-45.96194 36.11295,46.97209 7.32361,-48.9924 20.70812,48.48732 19.1929,-43.43656 29.29442,42.67895 -94.44926,-47.22463 -29.7995,47.72971 -28.03173,-6.31346 99.75256,-40.65864 29.7995,46.71956 24.74874,-23.99113 -5.80838,-9.84898 -32.07234,33.58757 -91.41881,-42.67895 -25.50635,34.09265 9.09138,9.09138 59.85153,-47.98225 26.01143,47.98225 44.69925,-39.14342 14.89975,23.48605 -16.16244,15.15229 -46.71955,-47.22463 -39.90103,47.22463 -36.87057,-39.64849 -15.40482,22.4759 39.39595,18.18274 40.91117,-49.24493 40.91118,48.73986"
         style="fill:none;fill-rule:evenodd;stroke:#000000;stroke-width:3.5;stroke-linecap:butt;stroke-linejoin:bevel;stroke-miterlimit:4;stroke-dasharray:none;stroke-opacity:1" />
      <path
         inkscape:connector-curvature="0"
         id="path4893"
         d="m 323.75389,441.21991 -6.50286,-2.58851 -4.92449,1.6415 -1.07329,-4.79823 -4.41941,3.97748 -0.82075,-6.18719 -7.32361,6.12405 5.61897,-17.48826 -43.94163,-29.67323 51.26524,-25.75889 -40.4061,51.51778 45.45686,-22.98097 -53.79062,7.82868 7.57614,-42.17387 38.3858,50.76016 -36.11295,15.90991 31.06219,4.54568 -48.44624,8.70049 16.78572,-7.67857 4.375,6.25 36.37689,-52.72878 -22.47589,-31.56727 -22.72844,55.30585 48.48733,-10.6066 -34.85027,-44.19417 -20.70812,42.93148 52.78047,-20.70813 -50.76017,0.50508 39.90103,-20.20305 -33.58757,56.56854 34.85026,11.11168 -31.31473,5.3033 18.68782,7.07107 23.48605,-48.9924 -1.76777,15.15229 3.78807,-7.07107 -53.03301,-27.77919 32.82996,-13.63706 16.92006,25.75889 -47.22463,23.48604 46.97209,-33.33503 -48.9924,12.37437 42.67895,-22.4759 v 55.55839 l -34.59773,5.3033 23.23351,16.66752"
         style="fill:none;fill-rule:evenodd;stroke:#000000;stroke-width:2;stroke-linecap:square;stroke-linejoin:bevel;stroke-miterlimit:4;stroke-dasharray:none;stroke-opacity:1" />
      <path
         inkscape:connector-curvature="0"
         id="path4895"
         d="m 263.64981,417.48133 -3.28299,13.13198 -13.38452,-13.38452 -6.81853,21.2132 -13.38452,-21.2132 -9.09138,21.2132 -18.94036,-20.45558 9.09138,-12.87945 -9.34391,-10.35406 9.34391,-11.61676 -9.34391,-11.36421 9.34391,-10.85914 -8.83884,-10.10153 9.09137,-9.84899 -9.59644,-10.35406 13.63705,-16.41498 9.84899,11.36422 10.10153,-10.85914 9.09137,10.6066 8.83884,-10.35406 7.07106,10.35406 8.5863,-10.85914 9.59645,10.6066 8.08122,-11.86929 9.09137,13.13198 10.6066,-12.6269 7.82869,11.86929 8.83883,-11.86929 9.84899,11.61675 8.58629,-11.61675 9.84899,11.86929 9.34391,-12.12183 8.33376,12.6269 11.61676,-10.35406 -7.82869,19.1929 9.34391,11.61675 -9.34391,20.70813 9.34391,14.14214 -9.84898,17.67767 9.09137,14.14213 -11.11168,25.25381 -23.73858,-21.2132 -12.62691,19.1929 -14.89975,-19.1929 -4.29315,12.37437 17.93021,-12.12183 13.8896,21.71828 12.37437,-21.71828 21.46574,20.20305 -7.82868,-22.22336 8.83883,-16.16244 -9.34391,-15.9099 9.34391,-17.67767 -8.83883,-14.14213 9.34391,-14.89975 -10.10153,-9.84899 9.84899,-3.283 -8.33376,-8.58629 -12.37437,10.85914 -9.84899,-10.85914 -9.09137,10.6066 -9.84899,-11.36422 -7.57614,11.61676 -9.34391,-11.11168 -8.33376,11.11168 -9.59645,-11.36422 -9.09137,11.36422 -8.33376,-10.85914 -7.32361,10.10152 -9.09137,-10.35406 -9.59645,11.11168 -9.34391,-10.85914 -9.09137,10.85914 -10.35407,-11.8693 -7.82868,11.36422 -14.64721,-10.10153 8.33376,14.14214 -8.83884,11.61675 8.5863,9.84899 -9.09137,10.35406 9.09137,11.61676 -8.33376,12.37437 9.34391,11.36421 -9.34391,10.35407 8.33376,10.35406 -8.08122,18.43529 3.53553,3.03045 9.59645,-21.71828 15.90991,21.46574 10.10152,-21.97081 13.63706,18.68782 5.05076,-17.67767 9.34391,11.36422 -15.15228,-11.36422 -5.05077,18.94036 -13.88959,-18.94036 -8.5863,20.70813 -14.14214,-20.45559 -10.35406,7.82868 20.96067,-7.57614 14.14213,20.70812 9.09137,-21.46574 22.4759,6.31345 -52.78047,15.40483 -14.39468,-27.02158 9.09138,-21.71828 -9.09138,-12.12183 9.09138,-11.36422 -8.5863,-10.85914 8.5863,-10.35406 -8.83884,-8.83883 16.66752,-21.97082 11.36421,11.11168 10.60661,-11.61676 9.09137,12.37437 9.34391,-12.12183 8.08122,11.11168 8.08122,-11.36422 8.33376,12.37437 9.34391,-13.38452 8.33376,12.37437 9.09137,-11.11168 7.82868,11.36422 9.59645,-12.62691 9.09138,12.12183 9.59645,-12.12183 8.83883,11.86929 13.38452,-10.85914 12.62691,15.9099 -9.59645,13.63706 9.09137,12.37437 -8.58629,18.43529 8.58629,16.66751 -8.58629,16.66752 8.83883,17.67767 -7.57614,12.62691 -20.70813,-20.96067 -11.86929,21.46574 -14.89975,-21.2132 -12.12183,6.06091 9.84898,9.34392 15.65737,-15.40483 18.43528,20.20305 9.59645,-20.96067 13.8896,16.41498 -16.92006,4.79823 -22.22335,-20.70813 -14.39468,17.93021 53.03301,-15.9099"
         style="fill:none;fill-rule:evenodd;stroke:#000000;stroke-width:3;stroke-linecap:square;stroke-linejoin:bevel;stroke-miterlimit:4;stroke-dasharray:none;stroke-opacity:1" />
      <path
         sodipodi:nodetypes="cccccccccccccccccccccccccccccccccccccccccccccccccccccccccccc"
         inkscape:connector-curvature="0"
         id="path4152"
         d="m 220.18036,329.82723 -1.4002,0.48653 1.4002,0.82711 -1.4002,0.68114 2.46242,1.97047 2.46243,-0.82711 -6.95274,-0.24327 -1.83473,3.9166 2.19686,1.75151 5.7698,-0.68114 1.47262,3.25977 -2.19686,2.55431 -1.95546,-1.33797 -2.72798,1.48392 -1.42435,-1.9218 -1.30363,0.94874 0.72425,0.53518 1.95545,-1.09469 2.46242,2.48131 -0.82081,1.41096 0.50698,0.48652 0.38626,-0.53518 -0.91737,-1.02172 2.19686,-2.91921 2.10031,0.90009 0.65181,-4.15986 -3.06595,-1.72719 -5.118,0.85143 -0.6518,-3.96524 6.68717,-1.50827 1.73818,1.65423 -0.96566,-0.0244 -3.7902,-3.01651 1.4002,-0.58384 -1.44848,-0.68115 1.13465,4.25717 -0.77253,2.31103 1.42434,2.74891 3.93505,0.38921 -2.51071,0.99739 2.14859,1.84883 -2.24515,-0.70547 -0.84495,2.14075 -2.02788,-2.57863 0.9898,-1.0947 -2.39,-3.67333 -2.87283,-1.21633 3.09011,-2.87055 2.05201,3.04083 -1.54504,3.50305 -2.58314,-5.78975 2.05202,1.02172 0.86909,-2.1894 1.2795,7.37098 -1.03808,0.85143 1.08636,0.85143 -3.59707,2.45699 -1.5692,-1.38661 -0.0482,-0.7298 5.23868,3.96525"
         style="fill:none;fill-rule:evenodd;stroke:#000000;stroke-width:1px;stroke-linecap:butt;stroke-linejoin:bevel;stroke-opacity:1" />
      <path
         sodipodi:nodetypes="cccccccccccccccc"
         inkscape:connector-curvature="0"
         id="path4154"
         d="m 235.63087,332.64912 -6.88031,1.4596 6.88031,2.87055 -6.78374,3.35708 6.80787,3.50305 -6.83201,1.60556 6.83202,-4.88967 -6.88031,-3.2841 6.92859,-2.57863 -6.73546,-2.14074 6.51819,12.89314 -6.66304,-2.67594 6.80789,-0.41355 -6.83203,-3.60035 6.83203,0.0486 -6.78374,-3.38141"
         style="fill:none;fill-rule:evenodd;stroke:#000000;stroke-width:1px;stroke-linecap:butt;stroke-linejoin:bevel;stroke-opacity:1" />
    </g>
    <g
       transform="translate(149.04704,-46.792701)"
       inkscape:label="Layer 1"
       id="g2206"
       inkscape:export-filename="/home/siqueira/Documents/Repositories/TA/debian/empacotamento/images/o_que_eh_empacotamento_4.png"
       inkscape:export-xdpi="144.75999"
       inkscape:export-ydpi="144.75999">
      <path
         style="fill:none;stroke:#000000;stroke-width:0.30000001;stroke-linecap:round;stroke-linejoin:round;stroke-miterlimit:4;stroke-dasharray:none;stroke-opacity:1"
         d="m 5.4790252,77.638533 10.0226078,-8.886711 9.087163,8.886711 9.955791,-9.087162 1.069078,1.737252 -3.006783,-1.670437 -11.559407,9.153983 -13.4302934,-8.15172 -2.2717911,4.476763 6.9490075,3.875408 10.356694,-9.220798 10.557145,9.153983 2.405428,-1.737254 2.204974,1.804069 3.140416,-2.672694 -1.135896,-1.336347 0.534538,-1.06908 -1.937702,-4.075859 -1.002261,1.403165 5.879928,-1.469983 6.481286,1.202714 3.140417,-1.002263 3.474505,2.806332 -3.34087,6.080382 -1.870887,-1.670436 -1.336347,1.670436 -3.674956,-3.006783 1.603618,0.53454 -2.271792,2.472243 -1.069078,-1.536801 -1.069078,1.469983 -1.403165,-1.737251 -3.340869,-0.200454 0.200453,2.138156 2.605876,-9.220798 1.536801,1.403165 2.138156,-1.536801 2.739514,2.33861 -1.269532,1.403165 0.400905,1.5368 -2.204974,3.875408 -1.603616,-1.403165 -1.202714,1.403165 -2.806329,-2.405425 1.269529,2.472243 0.868627,-2.271792 1.403165,2.271792 1.135896,-1.403165 1.336347,1.469983 1.870887,-3.274052 -0.400905,-0.935445 0.334087,-1.269529 -1.202714,-1.202714 -1.336347,-2.539061 4.209495,1.737252 1.469982,-1.670434 1.870887,2.071338 4.276313,0.400905 -3.140417,2.271792 3.474503,2.338607 -1.469982,2.004523 -2.80633,-2.405428 -1.069078,2.472246 -1.670433,-1.536801 -1.002261,1.403165 -0.334089,-1.937705 -0.935442,1.937705 -2.204974,-1.870887 8.953529,2.004523 2.472242,-0.33409 -3.875407,-2.672693 3.808592,-0.734992 -3.274052,-1.5368 1.670434,-2.939966 -2.138156,1.870888 3.808589,1.403165 -3.474503,1.403164 3.541321,2.405428 -8.552624,1.069078 L 5.2117558,75.567195 33.67596,73.562675 8.953529,69.152727 5.6126599,71.62497 l 2.8731474,6.34765 10.6239637,-9.220798 9.822154,9.087165 4.944488,-3.073601 -28.5310225,-1.737252 28.5310225,-1.00226 -6.147199,-2.939965 -11.626225,8.819896 -3.340869,-8.953532 -7.4835468,7.684 1.8040691,1.336347 10.3566947,-9.15398 9.153981,9.087165 8.084902,-2.271792 1.00226,2.338607 2.004523,-1.670434 1.870887,1.536801 0.734992,-3.474506 -0.801809,-5.612659 1.737251,2.271792 -2.539061,-0.06682 -1.804069,-2.271792 -0.467722,1.469983 -1.002261,-1.403165 -0.935442,2.33861 -8.886712,6.815373 -11.559407,-8.953532 -7.7508161,1.603619 8.4189901,7.216277 10.891233,-9.153983 5.479024,9.354434 2.605879,-4.944486 -4.543581,-4.409948 -10.423512,9.287619 -7.817634,-9.287619 -5.6794772,6.214018 0.2672694,9.621702 -0.4677217,10.356694 0.334087,8.352172 -0.200452,7.34992 0.2672694,5.27857 -0.334087,0.13363 1.403165,0.26727 14.7666411,-0.4009 17.907059,0.0668 12.294399,0.13363 4.677214,-0.13363 0.601358,-0.40091 -0.267269,0.86863 0.200451,-10.08943 -0.200451,-11.024867 0.267269,-8.084902 -0.200454,-6.1472 0.133636,-3.073598 -4.877668,-9.020347 -7.349913,1.336347 -13.831197,-1.336347 -13.296659,9.15398 -9.0203467,-8.619442"
         id="path2190"
         inkscape:connector-curvature="0" />
      <path
         style="fill:none;stroke:#000000;stroke-width:0.30000001;stroke-linecap:round;stroke-linejoin:round;stroke-miterlimit:4;stroke-dasharray:none;stroke-opacity:1"
         d="m 48.664434,71.537202 1.748139,1.795386 1.27567,1.937128"
         id="path2192"
         inkscape:connector-curvature="0" />
      <path
         style="fill:none;stroke:#000000;stroke-width:0.30000001;stroke-linecap:round;stroke-linejoin:round;stroke-miterlimit:4;stroke-dasharray:none;stroke-opacity:1"
         d="m 51.546503,71.442706 -2.220611,2.645833 -0.708705,1.181177"
         id="path2194"
         inkscape:connector-curvature="0" />
      <path
         style="fill:none;stroke:#000000;stroke-width:0.30000001;stroke-linecap:round;stroke-linejoin:round;stroke-miterlimit:4;stroke-dasharray:none;stroke-opacity:1"
         d="m 41.624627,71.678941 0.04725,0.992188 -0.09449,1.181176 0.141743,1.322917 2.173361,-0.04725 1.46466,0.09449 -0.141743,-2.173365 0.04725,-1.322916 z"
         id="path2196"
         inkscape:connector-curvature="0" />
      <path
         style="fill:none;stroke:#000000;stroke-width:0.30000001;stroke-linecap:round;stroke-linejoin:round;stroke-miterlimit:4;stroke-dasharray:none;stroke-opacity:1"
         d="m 34.553785,73.576929 1.937129,-0.188987 h 2.173364 l 0.472469,0.188987"
         id="path2198"
         inkscape:connector-curvature="0" />
      <g
         id="g2204"
         transform="translate(39.309524,10.205357)">
        <path
           transform="matrix(0.16869043,0,0,0.1566152,-37.194118,61.272562)"
           style="fill:none;stroke:#000000;stroke-width:1.84569132;stroke-linecap:round;stroke-linejoin:round;stroke-miterlimit:4;stroke-dasharray:none;stroke-opacity:1;filter:url(#filter919-9)"
           d="M 46.237628,176.72871 92.475255,146.52725 80.982666,176.99598 56.39387,162.8307 l 30.735995,-22.45065 -11.49259,-1.87088 4.543581,-5.87993 21.648834,44.90128 46.23763,-50.24667 -32.33962,49.44486 -37.952269,-39.82316 3.741775,-3.20723 -20.312486,43.29766 -8.552624,-8.55263 36.348656,-24.58879 1.069078,33.14142 -21.381563,-29.39965 0.801809,28.86511 -14.967093,-10.69078 0.801809,10.95805 -5.612661,-3.74177 117.064049,-21.38157 -44.09947,-11.75985 23.25245,-15.50164 -7.48355,-4.81085 2.40543,-1.87088 22.98518,59.6011 12.56167,-12.56167 4.81085,12.56167 2.40542,-2.6727 1.60362,2.93997 -76.70635,-18.70887 52.65209,-14.43255 -31.27053,-13.89802 13.89801,-8.81989 -4.27631,-2.6727 -4.81085,57.99749 -16.57071,-30.736 -8.55263,30.46873 -9.888967,-21.11429 -5.612659,21.38156 -22.717911,-33.14142 25.390604,8.28536 9.087163,25.3906 6.41447,-24.05426 39.82316,-20.84702 -2.93997,44.09947 -28.8651,-32.87415 49.9794,13.36347 -12.82894,20.04522 -30.73599,-42.49585 30.20145,4.54358 16.57071,37.685 -0.53454,-16.83798 -58.79929,-10.15624 13.89801,26.19241 22.45064,-45.43582"
           id="path2200"
           inkscape:connector-curvature="0" />
        <path
           inkscape:connector-curvature="0"
           id="path2202"
           d="m -29.394273,88.950964 7.799846,-4.730007 -1.93869,4.771866 -4.147895,-2.218498 5.184868,-3.516113 -1.93869,-0.293009 0.766459,-0.920886 3.651951,7.032223 7.799846,-7.869392 -5.455385,7.743816 -6.402184,-6.236912 0.631202,-0.502301 -3.426522,6.781072 -1.442746,-1.339472 6.13167,-3.850978 0.180343,5.19045 -3.606865,-4.604432 0.135258,4.520715 -2.524806,-1.674339 0.135258,1.716197 -0.946802,-0.586018 19.7475845,-3.348679 -7.4391585,-1.841771 3.922466,-2.427792 -1.262404,-0.753453 0.405774,-0.293008 3.8773794,9.334438 2.1190335,-1.967348 0.8115444,1.967348 0.4057713,-0.418585 0.2705154,0.460444 -12.939627,-2.930094 8.881903,-2.260356 -5.275039,-2.176641 2.344462,-1.381329 -0.721373,-0.418586 -0.811544,9.083289 -2.795321,-4.813725 -1.442746,4.771866 -1.668174,-3.306818 -0.946802,3.348677 -3.832294,-5.19045 4.283151,1.297613 1.532918,3.976554 1.08206,-3.767263 6.717786,-3.26496 -0.495945,6.906647 -4.869266,-5.148591 8.4310461,2.092922 -2.1641191,3.139386 -5.184868,-6.655496 5.094696,0.711594 2.7953201,5.902044 -0.090172,-2.637084 -9.9188771,-1.590621 2.344461,4.102129 3.787208,-7.11594"
           style="fill:none;stroke:#000000;stroke-width:0.30000001;stroke-linecap:round;stroke-linejoin:round;stroke-miterlimit:4;stroke-dasharray:none;stroke-opacity:1" />
      </g>
    </g>
    <g
       id="layer1-3"
       inkscape:label="Layer 1"
       transform="matrix(-0.16795202,0,0,0.1642241,133.68501,12.515715)"
       style="stroke-width:6.02128172"
       inkscape:export-filename="/home/siqueira/Documents/Repositories/TA/debian/empacotamento/images/o_que_eh_empacotamento_4.png"
       inkscape:export-xdpi="144.75999"
       inkscape:export-ydpi="144.75999">
      <path
         style="fill:none;stroke:#000000;stroke-width:6.62340975;stroke-linecap:round;stroke-linejoin:round;stroke-miterlimit:4;stroke-dasharray:none;stroke-opacity:1;filter:url(#filter1228)"
         d="M 256.24149,159.45486 18.848777,278.66065 129.39431,148.75691 220.0722,251.15163 272.54313,202.24668 210.39311,154.3606 48.395507,305.15081 112.07381,319.92419 96.791017,334.69754 62.659447,316.86762 110.54553,275.60407 -48.904934,200.7184 112.07381,125.83272 84.055357,73.871232 100.86643,70.814672 112.07381,97.814272 20.377057,123.79502 151.80907,255.73646 267.95829,177.28479 236.37384,155.88888 119.20578,259.30243 -19.358204,160.98314 111.05496,110.0405 92.206177,70.814672 -35.659844,223.64259 175.24269,151.30404 255.73206,245.03851 247.07179,157.41716 191.0349,253.69874 49.923787,95.776562 112.07381,86.097462 69.281987,84.059762 109.52668,79.474922 -10.188534,251.66103 111.56438,146.20978 206.31768,251.66103 269.48655,188.49217 222.10992,154.3606 6.1131169,265.41555 -32.093864,176.77536 110.54553,302.09426 105.96069,331.13157 76.923387,326.03731 111.05496,288.33974 -23.433614,236.37825 4.0754069,139.07781 111.56438,104.43681 96.791017,68.776965 -30.056154,230.26513 112.07381,139.58723 63.678297,87.625742 105.45127,73.361802 101.88528,332.65983 -43.810674,186.96389 264.90172,168.11511 36.678697,294.96229 152.82793,151.30404 242.48696,247.58563 268.46772,225.6803 195.61973,152.32289 -1.5282831,258.79301 -24.961894,166.58683 112.07381,117.6819 35.659847,109.02165 111.56438,90.172872 76.413957,77.437212 105.45127,75.908932 -43.810674,213.96349 138.56398,257.77415 269.99598,215.49177 183.39349,149.77576 27.509027,286.81145 110.54553,264.39669 13.754507,274.58522 10.697957,131.94584 110.0361,132.45526 -46.867234,207.85037 110.54553,311.77336"
         id="path1222"
         inkscape:connector-curvature="0" />
      <path
         inkscape:connector-curvature="0"
         id="path1220"
         d="M 256.24149,159.45486 18.848777,278.66065 129.39431,148.75691 220.0722,251.15163 272.54313,202.24668 210.39311,154.3606 48.395507,305.15081 112.07381,319.92419 96.791017,334.69754 62.659447,316.86762 110.54553,275.60407 -48.904934,200.7184 112.07381,125.83272 84.055357,73.871232 100.86643,70.814672 112.07381,97.814272 20.377057,123.79502 151.80907,255.73646 267.95829,177.28479 236.37384,155.88888 119.20578,259.30243 -19.358204,160.98314 111.05496,110.0405 92.206177,70.814672 -35.659844,223.64259 175.24269,151.30404 255.73206,245.03851 247.07179,157.41716 191.0349,253.69874 49.923787,95.776562 112.07381,86.097462 69.281987,84.059762 109.52668,79.474922 -10.188534,251.66103 111.56438,146.20978 206.31768,251.66103 269.48655,188.49217 222.10992,154.3606 6.1131169,265.41555 -32.093864,176.77536 110.54553,302.09426 105.96069,331.13157 76.923387,326.03731 111.05496,288.33974 -23.433614,236.37825 4.0754069,139.07781 111.56438,104.43681 96.791017,68.776965 -30.056154,230.26513 112.07381,139.58723 63.678297,87.625742 105.45127,73.361802 101.88528,332.65983 -43.810674,186.96389 264.90172,168.11511 36.678697,294.96229 152.82793,151.30404 242.48696,247.58563 268.46772,225.6803 195.61973,152.32289 -1.5282831,258.79301 -24.961894,166.58683 112.07381,117.6819 35.659847,109.02165 111.56438,90.172872 76.413957,77.437212 105.45127,75.908932 -43.810674,213.96349 138.56398,257.77415 269.99598,215.49177 183.39349,149.77576 27.509027,286.81145 110.54553,264.39669 13.754507,274.58522 10.697957,131.94584 110.0361,132.45526 -46.867234,207.85037 110.54553,311.77336"
         style="fill:none;stroke:#000000;stroke-width:6.62340975;stroke-linecap:round;stroke-linejoin:round;stroke-miterlimit:4;stroke-dasharray:none;stroke-opacity:1" />
    </g>
    <g
       id="layer1-61"
       inkscape:label="Layer 1"
       transform="translate(-4.8988032,118.60388)"
       inkscape:export-filename="/home/siqueira/Documents/Repositories/TA/debian/empacotamento/images/o_que_eh_empacotamento_4.png"
       inkscape:export-xdpi="144.75999"
       inkscape:export-ydpi="144.75999">
      <path
         inkscape:export-ydpi="144.75999"
         inkscape:export-xdpi="144.75999"
         inkscape:export-filename="/home/siqueira/Documents/Repositories/siqueira.xyz/images/icons/debian.png"
         id="path1622"
         style="fill:none;stroke:#1a1a1a;stroke-width:0.69999999;stroke-linecap:round;stroke-linejoin:miter;stroke-miterlimit:4;stroke-dasharray:none;stroke-opacity:1;filter:url(#filter1624)"
         d="m 145.76212,117.99623 -1.1359,-4.77744 -1.10248,-1.67043 0.33408,-2.07135 -8.01808,-0.66817 -0.005,-7.12804 -6.00037,2.31511 -2.62221,-5.740517 -4.18135,4.323097 -3.46155,-4.861334 -1.921,5.061414 -1.9377,-5.51243 c 0,0 -0.68488,6.74855 -0.91874,6.66503 -0.23386,-0.0835 -5.54584,-3.77518 -5.54584,-3.77518 l 1.11919,5.79641 -7.3165,-1.73725 9.83885,1.31964 0.90204,-0.50113 -2.07134,0.60136 0.83522,-7.116054 7.684,3.975634 10.99146,-2.43883 10.82441,6.74855 -2.3052,10.55715 4.07586,5.07812 -3.94222,1.90429 1.60361,4.2095 -3.57473,0.63476 -0.23386,1.67044 1.06908,1.67043 -2.23838,-0.53454 -0.10023,2.73952 -2.37199,-0.70159 0.63474,1.93771 -2.7061,-0.90204 -1.20272,2.50565 -1.36975,-1.5368 -0.7684,1.93771 -2.07134,-1.43657 -1.46998,1.40316 -2.07132,-2.03793 -2.73953,0.40091 -2.27179,-4.00905 -3.40769,-2.27179 0.66817,-4.14268 -0.60135,-4.84426 2.20497,-1.50339 1.1693,-3.30746 3.87541,-0.46772 2.63929,-1.67043 1.97111,1.33634 m -5.74585,-19.109768 2.60587,-0.133634 m -2.07133,0.968852 0.93544,0.03341 m -28.063302,18.0741 -0.06681,0.73499 -0.267272,0.4009 0.06682,0.50114 m 2.004516,-6.71515 -0.267272,0.53454 0.133636,0.56794 -0.501131,0.3675 m 48.987205,13.96284 0.0709,0.92132 -0.33073,0.23623 0.16536,0.96857 -1.15755,2.6222 m -10.25263,-7.98474 -0.16537,1.15755 m -0.94494,3.75614 -0.99219,1.46466 -0.51971,-0.0945 -0.23624,-0.56696 1.03944,-1.18118 m -6.26024,3.75614 1.81901,0.49609 0.80321,-0.73233 -1.46466,0.63784 m -11.00856,2.45685 1.6064,2.03162 1.77176,1.03943 3.89788,2.14974 5.85863,0.73233 m -13.70163,-8.3391 0.85044,1.39379 m -1.96075,-0.4016 -0.0473,0.73233 0.85045,0.54334 0.96856,1.74814 -1.15755,-1.25205 -0.25986,-1.22842 m 8.76489,28.15132 c -0.33409,0 -8.15172,-1.26953 -8.15172,-1.26953 l -1.60362,-2.87314 h -3.4745 v -3.40769 l 0.86862,0.60136 0.46772,3.54132 4.34313,0.46772 1.60362,1.06908 -3.87541,-0.13364 -4.47676,-5.54584 -3.94223,-1.00226 -0.26727,-5.34539 -5.278571,-1.87089 1.269532,-5.94674 1.937699,0.8018 0.20046,1.26953 -1.20272,-2.07133 0.80181,10.22305 5.21176,1.80407 -0.13364,-1.00226 -0.93544,3.87541 2.47224,-0.93544 -0.46772,2.47224 3.40769,0.20045 -0.0668,-1.06908 -4.54358,0.13364 -1.20271,-5.7463 -5.345396,-1.87088 -0.734992,-9.08717 -4.075858,-2.73951 2.138156,-6.88219 -2.873148,-3.74177 5.813118,-8.68626 -5.7463,4.34313 3.207234,3.74177 -3.140416,5.87993 3.741772,3.40769 -2.472243,4.94448 3.674957,0.46773 -5.011304,-6.48129 3.474503,-11.22532 -0.801809,-8.15172 1.00226,-1.00226 2.873146,1.87088 -0.46772,-5.87992 8.28536,0.13363 -7.34992,-2.00452 2.00453,5.27857 -7.21628,2.80633 2.53906,4.94449 c 0,0 -4.744034,2.07134 -4.34313,1.26953 0.400905,-0.80181 11.22532,-18.70887 11.22532,-18.70887 l 3.34087,5.27857 1.60362,-7.617176 5.74629,3.875406 1.67044,-5.813111 3.34087,5.144941 4.14267,-4.877673 2.93997,5.746293 5.61266,-3.541319 v 6.882189 l 6.88219,-1.73725 -2.33861,8.15172 5.14494,7.55036 -4.07586,6.21402 -1.60362,6.28083 -4.87767,1.26954 -5.47902,3.67495 -4.67722,-2.27179 -4.94449,-1.20271 -1.40316,-4.54358 -2.80633,-2.80633 1.40316,-3.67496 0.13364,-3.74177 2.47224,-1.67044 1.9377,-3.34087 3.47451,0.46772 2.47224,-1.06907 3.87541,2.20497 -6.68174,-2.20497 -2.73951,2.20497 -3.67496,1.40317 -0.20045,2.60587 -2.53906,3.0736 1.73725,4.2095 0.20045,4.40994 3.47451,1.26953 3.4745,4.14268 5.01131,-1.13589 4.54358,0.80181 1.80407,-3.27406 5.47902,-2.47224 -0.13363,-3.74177 3.40768,-2.60588 -2.93996,-4.40995 3.27405,-6.94901 0.86863,3.20724 -6.61492,-6.01357 -0.0668,-9.22079 -6.21402,2.80633 -2.40542,-5.94675 -4.2095,3.87541 -2.93996,-4.476768 -2.53906,4.476768 -5.01131,-4.677219 -0.86862,6.748559 -5.61266,-3.74178 0.93544,6.28084 -6.81537,-1.80407 2.93996,4.6104 -5.679476,0.33408 1.00226,4.94449"
         inkscape:connector-curvature="0" />
      <path
         inkscape:export-ydpi="144.75999"
         inkscape:export-xdpi="144.75999"
         inkscape:export-filename="/home/siqueira/Documents/Repositories/siqueira.xyz/images/icons/debian.png"
         d="m 145.76212,117.99623 -1.1359,-4.77744 -1.10248,-1.67043 0.33408,-2.07135 -8.01808,-0.66817 -0.005,-7.12804 -6.00037,2.31511 -2.62221,-5.740517 -4.18135,4.323097 -3.46155,-4.861334 -1.921,5.061414 -1.9377,-5.51243 c 0,0 -0.68488,6.74855 -0.91874,6.66503 -0.23386,-0.0835 -5.54584,-3.77518 -5.54584,-3.77518 l 1.11919,5.79641 -7.3165,-1.73725 9.83885,1.31964 0.90204,-0.50113 -2.07134,0.60136 0.83522,-7.116054 7.684,3.975634 10.99146,-2.43883 10.82441,6.74855 -2.3052,10.55715 4.07586,5.07812 -3.94222,1.90429 1.60361,4.2095 -3.57473,0.63476 -0.23386,1.67044 1.06908,1.67043 -2.23838,-0.53454 -0.10023,2.73952 -2.37199,-0.70159 0.63474,1.93771 -2.7061,-0.90204 -1.20272,2.50565 -1.36975,-1.5368 -0.7684,1.93771 -2.07134,-1.43657 -1.46998,1.40316 -2.07132,-2.03793 -2.73953,0.40091 -2.27179,-4.00905 -3.40769,-2.27179 0.66817,-4.14268 -0.60135,-4.84426 2.20497,-1.50339 1.1693,-3.30746 3.87541,-0.46772 2.63929,-1.67043 1.97111,1.33634 m -5.74585,-19.109768 2.60587,-0.133634 m -2.07133,0.968852 0.93544,0.03341 m -28.063302,18.0741 -0.06681,0.73499 -0.267272,0.4009 0.06682,0.50114 m 2.004516,-6.71515 -0.267272,0.53454 0.133636,0.56794 -0.501131,0.3675 m 48.987205,13.96284 0.0709,0.92132 -0.33073,0.23623 0.16536,0.96857 -1.15755,2.6222 m -10.25263,-7.98474 -0.16537,1.15755 m -0.94494,3.75614 -0.99219,1.46466 -0.51971,-0.0945 -0.23624,-0.56696 1.03944,-1.18118 m -6.26024,3.75614 1.81901,0.49609 0.80321,-0.73233 -1.46466,0.63784 m -11.00856,2.45685 1.6064,2.03162 1.77176,1.03943 3.89788,2.14974 5.85863,0.73233 m -13.70163,-8.3391 0.85044,1.39379 m -1.96075,-0.4016 -0.0473,0.73233 0.85045,0.54334 0.96856,1.74814 -1.15755,-1.25205 -0.25986,-1.22842 m 8.76489,28.15132 c -0.33409,0 -8.15172,-1.26953 -8.15172,-1.26953 l -1.60362,-2.87314 h -3.4745 v -3.40769 l 0.86862,0.60136 0.46772,3.54132 4.34313,0.46772 1.60362,1.06908 -3.87541,-0.13364 -4.47676,-5.54584 -3.94223,-1.00226 -0.26727,-5.34539 -5.278571,-1.87089 1.269532,-5.94674 1.937699,0.8018 0.20046,1.26953 -1.20272,-2.07133 0.80181,10.22305 5.21176,1.80407 -0.13364,-1.00226 -0.93544,3.87541 2.47224,-0.93544 -0.46772,2.47224 3.40769,0.20045 -0.0668,-1.06908 -4.54358,0.13364 -1.20271,-5.7463 -5.345396,-1.87088 -0.734992,-9.08717 -4.075858,-2.73951 2.138156,-6.88219 -2.873148,-3.74177 5.813118,-8.68626 -5.7463,4.34313 3.207234,3.74177 -3.140416,5.87993 3.741772,3.40769 -2.472243,4.94448 3.674957,0.46773 -5.011304,-6.48129 3.474503,-11.22532 -0.801809,-8.15172 1.00226,-1.00226 2.873146,1.87088 -0.46772,-5.87992 8.28536,0.13363 -7.34992,-2.00452 2.00453,5.27857 -7.21628,2.80633 2.53906,4.94449 c 0,0 -4.744034,2.07134 -4.34313,1.26953 0.400905,-0.80181 11.22532,-18.70887 11.22532,-18.70887 l 3.34087,5.27857 1.60362,-7.617176 5.74629,3.875406 1.67044,-5.813111 3.34087,5.144941 4.14267,-4.877673 2.93997,5.746293 5.61266,-3.541319 v 6.882189 l 6.88219,-1.73725 -2.33861,8.15172 5.14494,7.55036 -4.07586,6.21402 -1.60362,6.28083 -4.87767,1.26954 -5.47902,3.67495 -4.67722,-2.27179 -4.94449,-1.20271 -1.40316,-4.54358 -2.80633,-2.80633 1.40316,-3.67496 0.13364,-3.74177 2.47224,-1.67044 1.9377,-3.34087 3.47451,0.46772 2.47224,-1.06907 3.87541,2.20497 -6.68174,-2.20497 -2.73951,2.20497 -3.67496,1.40317 -0.20045,2.60587 -2.53906,3.0736 1.73725,4.2095 0.20045,4.40994 3.47451,1.26953 3.4745,4.14268 5.01131,-1.13589 4.54358,0.80181 1.80407,-3.27406 5.47902,-2.47224 -0.13363,-3.74177 3.40768,-2.60588 -2.93996,-4.40995 3.27405,-6.94901 0.86863,3.20724 -6.61492,-6.01357 -0.0668,-9.22079 -6.21402,2.80633 -2.40542,-5.94675 -4.2095,3.87541 -2.93996,-4.476768 -2.53906,4.476768 -5.01131,-4.677219 -0.86862,6.748559 -5.61266,-3.74178 0.93544,6.28084 -6.81537,-1.80407 2.93996,4.6104 -5.679476,0.33408 1.00226,4.94449"
         style="fill:none;stroke:#1a1a1a;stroke-width:0.69999999;stroke-linecap:round;stroke-linejoin:miter;stroke-miterlimit:4;stroke-dasharray:none;stroke-opacity:1"
         id="path955"
         inkscape:connector-curvature="0" />
    </g>
    <g
       id="layer1-0"
       inkscape:label="Layer 1"
       transform="matrix(0.60266365,0,0,0.60424082,-7.2184658,-20.621978)"
       style="stroke-width:1.65713346"
       inkscape:export-filename="/home/siqueira/Documents/Repositories/TA/debian/empacotamento/images/o_que_eh_empacotamento_4.png"
       inkscape:export-xdpi="144.75999"
       inkscape:export-ydpi="144.75999">
      <g
         style="stroke-width:1.65713346;filter:url(#filter913)"
         id="g911">
        <path
           inkscape:connector-curvature="0"
           id="path907"
           d="m 202.57883,281.80659 -4.09981,-6.87321 -7.35554,2.41165 -10.12894,-15.314 7.83787,-8.68195 -9.7672,-17.00215 8.07904,-1.20583 -0.96466,-7.83787 13.98759,2.65282 3.61748,-8.3202 4.70272,9.40544 17.3639,-1.08524 -7.83787,8.56137 7.5967,4.46156 -9.52603,11.0936 8.19962,6.27029 -7.95845,10.61128 7.47612,2.41165 6.39088,-7.71728 7.47613,2.04991 -5.06448,-6.27031 5.06448,-9.28486 -4.82331,-6.63205 3.25573,-6.63204 5.06447,3.37631 -4.94389,-9.16428 4.70273,-9.52603 -11.8171,0.24117 -5.30564,-9.0437 -4.34097,9.52603 -17.12274,-16.88157 -11.0936,8.19962 7.59671,14.5905 -19.53439,-0.12059 7.83787,8.92312 -7.83787,3.97923 10.00836,15.55515 -8.19962,9.1643 5.5468,7.71729 6.99379,-2.53225 3.25573,6.63204 5.66739,-2.89398 4.8233,3.25572 2.89399,-6.39088 4.8233,3.13516 9.0437,-10.85244 -8.07904,-4.22039 8.07904,-9.0437 -10.00836,-4.70272 -4.46156,6.99379 -7.23495,-2.41165 -4.94389,3.37632 -6.2703,-7.95846 -10.24952,6.87321 7.95845,11.93767 -8.92312,5.90857 -3.13514,-6.02914 -5.18506,2.65282 -4.34097,-6.51146 5.06447,-5.66739 -4.94389,-7.95845 8.80253,-6.87321 2.53224,5.78796 8.07904,-1.92932 -7.59671,-5.66738 7.71729,-3.73806 -3.25573,-8.32021 8.80253,5.18506 0.12058,-8.56137 10.00836,3.85864 5.42622,-7.47612 5.5468,2.29107 2.65282,-6.63204 7.11437,7.71728 4.94389,-10.61127 7.71729,6.87321 1.44699,-1.08524 -6.14971,-8.56137 0.96466,-10.85243 -11.33477,-3.61748 -1.44699,6.39087 -8.19962,0.24117 v 7.59671 l -8.92311,1.68815 -8.56137,-1.68815 -4.09981,-11.45535 -9.52603,0.96466 -2.17049,-6.2703 -7.83787,11.57593 3.13515,7.95846 -5.42622,6.99379 11.93768,-6.51146 3.61748,10.24952 7.23496,-6.99379 5.42622,3.25573 -4.34098,3.01457 -6.99379,-8.07904 -8.92311,7.95845 -11.45535,-0.24116 4.70272,6.02913 -5.06447,5.30564 8.19962,10.24952 -4.94389,-1.20583 4.94389,7.11438 -4.58214,3.4969 4.46155,7.11437 -4.8233,6.2703 5.90855,-3.01456 1.92932,5.90854 4.46156,-3.13515 3.61748,6.39088 5.30563,-2.65282 5.30564,7.23495 6.39088,-2.77339 4.46156,4.82331 2.53223,-6.14972 4.46156,3.61749 2.65282,-6.02914 5.42622,2.41165 4.58213,-6.51147 6.2703,2.17051 6.75263,-8.92313 -4.58214,-5.5468 4.70272,-8.92311 -5.18505,-6.14972 -2.41165,6.14972 -3.97923,-3.61748 -10.00836,14.5905 8.3202,5.5468 -7.83787,3.3763 11.45535,4.46156 4.82331,-6.63203 4.70272,-0.7235 -4.70272,-5.78797 4.46155,-8.44078 -8.3202,-7.47613 -3.61748,6.39088 -6.99379,-2.29106 7.47612,-5.06448 -7.83787,-5.5468 8.19962,-4.09981 -21.10196,-1.44699 -6.75263,-8.3202 -5.90855,2.89398 20.13731,0.24117 -0.36175,8.56136 5.18505,-6.8732 -0.48233,7.95845 5.78797,-5.90855 3.37631,6.75263 -7.83787,6.39088 9.76719,5.90855 2.7734,-6.39089 7.11438,6.87322 -5.06447,3.13514 4.8233,6.02914 -4.8233,6.27029 4.70272,1.80873 -3.13515,3.73809 -7.59671,-2.17051 -5.18505,7.35555 -5.5468,-2.77339 -2.29107,5.66737 -4.94389,-2.89398 0.60292,4.58213 -4.46156,-3.25572 -1.32641,5.90854 -1.08524,-5.06447 -3.13515,3.97923 -3.25573,-6.39088 -6.9938,2.41165 -7.95845,-11.45535 7.83787,-9.04369 -8.07904,-6.9938 7.83787,-2.17048 3.01457,5.90855 4.82331,-2.65282 6.14971,7.71729 5.5468,-7.71729 7.59671,2.29107 2.0499,-6.02913 6.2703,2.7734 -7.95846,14.83166 7.95846,0.7235 -7.83787,3.97923 10.49069,3.49689 10.97302,-13.02293 -4.94389,-10.61127 1.44699,-8.80253 3.37632,3.61748 3.25573,-3.37631 -4.82331,-3.73806 4.94389,-4.94389 -4.94389,-3.61748 2.89399,-4.82331 2.0499,3.25573 -4.82331,3.97923 4.70273,4.58214 -8.07904,18.56973 4.70272,2.41165 -4.94389,13.98758 -4.0998,-3.01456 -2.77341,5.90854 -9.64661,-7.23495 8.3202,-9.16428 -8.19962,-4.09981 9.7672,-13.867 -6.02913,-10.49069 -5.78797,6.14971 0.36175,-8.07903 -3.73806,6.27029 3.61748,-14.83166 -6.75263,-9.0437 -0.24117,6.51146 5.66739,-1.08524 -4.34098,3.4969 5.66739,0.72349 -5.06447,2.29107 7.11437,4.22039 3.73806,-8.56136 6.14972,8.80253 4.58214,-10.49069 5.90855,6.87321 0.48233,-6.02913 -6.14972,-4.58214 3.4969,-5.66739 -6.51146,-0.60291 2.17049,-6.02913 -5.30564,-3.01457 -1.44699,6.2703 -7.95846,-1.32641 0.24117,6.39088 -6.51146,-0.36175 -3.25574,7.47613 5.30564,-2.04991 -4.82331,-3.37631 -3.25572,4.70272 -3.25574,-5.06447 -0.72349,6.02913 -6.75263,-0.96466 4.34097,3.73806 -5.66738,0.48233 5.18505,2.17049 -6.87321,5.42622 -1.32641,-8.07904 -1.80873,7.95846 -3.61748,-9.0437 -2.29107,8.92311 -3.25574,-10.24952 -2.65281,10.12894 -0.84408,-10.24952 -2.53224,11.8171 -7.11437,0.60291 4.70272,1.80874 -4.70272,0.84408 4.70272,2.17048 -4.46156,0.7235 4.58214,1.92932 -4.70272,0.84408 4.70272,2.41165 -4.8233,0.96467 1.20583,4.70272 3.49689,-3.4969 3.4969,7.11438 -4.94389,6.27029 5.06447,6.02913 -4.82331,0.60292 4.46156,3.73806 -4.34097,2.41164 2.0499,3.01458 5.30564,-2.65281 2.53223,5.66737 11.45535,-8.3202 -8.07903,-11.21418 8.56136,-4.58214 -0.12058,5.06447 3.85865,-3.61748 -0.12059,5.30564 4.46156,-3.4969 v 5.06447 l 3.85865,-3.61748 1.3264,5.42622 1.08525,-5.66739 2.89398,4.46156 1.44699,-5.90855 4.34098,3.25574 3.49689,-6.39088 8.07904,1.92932 -6.14971,-5.06447 7.83787,-7.23496 -24.84003,-14.83167 -5.42621,9.7672 -6.02914,-5.42622 0.48233,7.71729 -8.3202,-4.82331 -2.29107,3.25573 7.83787,8.44079 -8.07903,1.20582 7.95845,1.20583 -10.85244,3.73806 -3.73806,-6.63204 -4.94389,3.13515 0.24117,-21.22255 1.44699,4.2204 v -5.06448 l 3.01457,3.61748 -4.94389,-8.56136 6.51146,-5.30564 -3.37631,-6.87321 h 6.14971 l -2.41165,-4.94389 5.06447,1.32641 -2.41165,-5.06447 6.51146,0.36175 v 5.90855 l 6.2703,-1.80874 -1.80874,5.06447 6.27029,-1.56758 -1.92932,5.78797 5.90855,-1.20583 -0.84408,6.63205 -9.40544,9.64661 -3.01457,-8.3202 -5.78797,8.07903 -10.97302,-8.68195 5.30564,-2.41165 -4.70272,-3.01456 6.2703,-2.17049 -3.01457,-5.78797 5.78796,0.36175 -2.65281,-4.94389 11.33477,-0.12058 -0.48234,5.90855 6.39088,-1.80874 -2.17048,5.42622 6.14971,-1.08525 -2.41165,4.70273 10.73185,-3.13515 0.36175,5.42622 7.47613,-0.24117 -5.18506,18.0874 11.21419,-14.22875 6.51146,7.95845 1.44699,-10.49069 4.58214,10.49069 5.18505,-2.7734 -1.68815,4.34097 6.39088,-1.44699 -4.58214,3.85865 4.8233,0.12058 -4.70272,2.29107 4.58214,1.80874 -4.82331,4.8233 h 4.82331 l -8.07904,9.0437 4.82331,7.95846"
           style="fill:none;stroke:#000000;stroke-width:1.15999329;stroke-linecap:round;stroke-linejoin:round;stroke-miterlimit:4;stroke-dasharray:none;stroke-opacity:1" />
        <path
           inkscape:connector-curvature="0"
           id="path909"
           d="m 216.80758,224.0475 19.77555,-3.4969 -14.95224,-5.06447 -7.95846,8.19962 -8.07904,-2.0499 -14.95224,2.53223 -3.37632,-7.95845 -5.18505,8.07904 -2.04991,-9.88778 -2.41165,9.64661 -9.52603,-11.57593 6.14972,-3.01457 -2.7734,-6.14971 4.46156,2.65282 -3.13515,-5.66739 5.42622,1.20583 -2.04991,-4.94389 8.44079,-0.12058 0.48233,6.39088 8.3202,0.12058 -2.41165,5.42622 22.30778,0.7235 0.24117,-8.07904 4.22039,3.61748 0.48233,-6.9938 7.59671,2.89399 5.42622,-1.32641 -1.80874,7.23496 6.87321,2.17049 -4.70273,4.0998 5.5468,3.61748 -8.80253,7.59671 -12.78176,-6.75263 -11.21418,12.42001 -14.71108,-12.05826"
           style="fill:none;stroke:#000000;stroke-width:1.15999329;stroke-linecap:butt;stroke-linejoin:miter;stroke-miterlimit:4;stroke-dasharray:none;stroke-opacity:1" />
      </g>
      <g
         id="g905"
         style="stroke-width:1.65713346">
        <path
           style="fill:none;stroke:#000000;stroke-width:1.15999329;stroke-linecap:round;stroke-linejoin:round;stroke-miterlimit:4;stroke-dasharray:none;stroke-opacity:1"
           d="m 202.57883,281.80659 -4.09981,-6.87321 -7.35554,2.41165 -10.12894,-15.314 7.83787,-8.68195 -9.7672,-17.00215 8.07904,-1.20583 -0.96466,-7.83787 13.98759,2.65282 3.61748,-8.3202 4.70272,9.40544 17.3639,-1.08524 -7.83787,8.56137 7.5967,4.46156 -9.52603,11.0936 8.19962,6.27029 -7.95845,10.61128 7.47612,2.41165 6.39088,-7.71728 7.47613,2.04991 -5.06448,-6.27031 5.06448,-9.28486 -4.82331,-6.63205 3.25573,-6.63204 5.06447,3.37631 -4.94389,-9.16428 4.70273,-9.52603 -11.8171,0.24117 -5.30564,-9.0437 -4.34097,9.52603 -17.12274,-16.88157 -11.0936,8.19962 7.59671,14.5905 -19.53439,-0.12059 7.83787,8.92312 -7.83787,3.97923 10.00836,15.55515 -8.19962,9.1643 5.5468,7.71729 6.99379,-2.53225 3.25573,6.63204 5.66739,-2.89398 4.8233,3.25572 2.89399,-6.39088 4.8233,3.13516 9.0437,-10.85244 -8.07904,-4.22039 8.07904,-9.0437 -10.00836,-4.70272 -4.46156,6.99379 -7.23495,-2.41165 -4.94389,3.37632 -6.2703,-7.95846 -10.24952,6.87321 7.95845,11.93767 -8.92312,5.90857 -3.13514,-6.02914 -5.18506,2.65282 -4.34097,-6.51146 5.06447,-5.66739 -4.94389,-7.95845 8.80253,-6.87321 2.53224,5.78796 8.07904,-1.92932 -7.59671,-5.66738 7.71729,-3.73806 -3.25573,-8.32021 8.80253,5.18506 0.12058,-8.56137 10.00836,3.85864 5.42622,-7.47612 5.5468,2.29107 2.65282,-6.63204 7.11437,7.71728 4.94389,-10.61127 7.71729,6.87321 1.44699,-1.08524 -6.14971,-8.56137 0.96466,-10.85243 -11.33477,-3.61748 -1.44699,6.39087 -8.19962,0.24117 v 7.59671 l -8.92311,1.68815 -8.56137,-1.68815 -4.09981,-11.45535 -9.52603,0.96466 -2.17049,-6.2703 -7.83787,11.57593 3.13515,7.95846 -5.42622,6.99379 11.93768,-6.51146 3.61748,10.24952 7.23496,-6.99379 5.42622,3.25573 -4.34098,3.01457 -6.99379,-8.07904 -8.92311,7.95845 -11.45535,-0.24116 4.70272,6.02913 -5.06447,5.30564 8.19962,10.24952 -4.94389,-1.20583 4.94389,7.11438 -4.58214,3.4969 4.46155,7.11437 -4.8233,6.2703 5.90855,-3.01456 1.92932,5.90854 4.46156,-3.13515 3.61748,6.39088 5.30563,-2.65282 5.30564,7.23495 6.39088,-2.77339 4.46156,4.82331 2.53223,-6.14972 4.46156,3.61749 2.65282,-6.02914 5.42622,2.41165 4.58213,-6.51147 6.2703,2.17051 6.75263,-8.92313 -4.58214,-5.5468 4.70272,-8.92311 -5.18505,-6.14972 -2.41165,6.14972 -3.97923,-3.61748 -10.00836,14.5905 8.3202,5.5468 -7.83787,3.3763 11.45535,4.46156 4.82331,-6.63203 4.70272,-0.7235 -4.70272,-5.78797 4.46155,-8.44078 -8.3202,-7.47613 -3.61748,6.39088 -6.99379,-2.29106 7.47612,-5.06448 -7.83787,-5.5468 8.19962,-4.09981 -21.10196,-1.44699 -6.75263,-8.3202 -5.90855,2.89398 20.13731,0.24117 -0.36175,8.56136 5.18505,-6.8732 -0.48233,7.95845 5.78797,-5.90855 3.37631,6.75263 -7.83787,6.39088 9.76719,5.90855 2.7734,-6.39089 7.11438,6.87322 -5.06447,3.13514 4.8233,6.02914 -4.8233,6.27029 4.70272,1.80873 -3.13515,3.73809 -7.59671,-2.17051 -5.18505,7.35555 -5.5468,-2.77339 -2.29107,5.66737 -4.94389,-2.89398 0.60292,4.58213 -4.46156,-3.25572 -1.32641,5.90854 -1.08524,-5.06447 -3.13515,3.97923 -3.25573,-6.39088 -6.9938,2.41165 -7.95845,-11.45535 7.83787,-9.04369 -8.07904,-6.9938 7.83787,-2.17048 3.01457,5.90855 4.82331,-2.65282 6.14971,7.71729 5.5468,-7.71729 7.59671,2.29107 2.0499,-6.02913 6.2703,2.7734 -7.95846,14.83166 7.95846,0.7235 -7.83787,3.97923 10.49069,3.49689 10.97302,-13.02293 -4.94389,-10.61127 1.44699,-8.80253 3.37632,3.61748 3.25573,-3.37631 -4.82331,-3.73806 4.94389,-4.94389 -4.94389,-3.61748 2.89399,-4.82331 2.0499,3.25573 -4.82331,3.97923 4.70273,4.58214 -8.07904,18.56973 4.70272,2.41165 -4.94389,13.98758 -4.0998,-3.01456 -2.77341,5.90854 -9.64661,-7.23495 8.3202,-9.16428 -8.19962,-4.09981 9.7672,-13.867 -6.02913,-10.49069 -5.78797,6.14971 0.36175,-8.07903 -3.73806,6.27029 3.61748,-14.83166 -6.75263,-9.0437 -0.24117,6.51146 5.66739,-1.08524 -4.34098,3.4969 5.66739,0.72349 -5.06447,2.29107 7.11437,4.22039 3.73806,-8.56136 6.14972,8.80253 4.58214,-10.49069 5.90855,6.87321 0.48233,-6.02913 -6.14972,-4.58214 3.4969,-5.66739 -6.51146,-0.60291 2.17049,-6.02913 -5.30564,-3.01457 -1.44699,6.2703 -7.95846,-1.32641 0.24117,6.39088 -6.51146,-0.36175 -3.25574,7.47613 5.30564,-2.04991 -4.82331,-3.37631 -3.25572,4.70272 -3.25574,-5.06447 -0.72349,6.02913 -6.75263,-0.96466 4.34097,3.73806 -5.66738,0.48233 5.18505,2.17049 -6.87321,5.42622 -1.32641,-8.07904 -1.80873,7.95846 -3.61748,-9.0437 -2.29107,8.92311 -3.25574,-10.24952 -2.65281,10.12894 -0.84408,-10.24952 -2.53224,11.8171 -7.11437,0.60291 4.70272,1.80874 -4.70272,0.84408 4.70272,2.17048 -4.46156,0.7235 4.58214,1.92932 -4.70272,0.84408 4.70272,2.41165 -4.8233,0.96467 1.20583,4.70272 3.49689,-3.4969 3.4969,7.11438 -4.94389,6.27029 5.06447,6.02913 -4.82331,0.60292 4.46156,3.73806 -4.34097,2.41164 2.0499,3.01458 5.30564,-2.65281 2.53223,5.66737 11.45535,-8.3202 -8.07903,-11.21418 8.56136,-4.58214 -0.12058,5.06447 3.85865,-3.61748 -0.12059,5.30564 4.46156,-3.4969 v 5.06447 l 3.85865,-3.61748 1.3264,5.42622 1.08525,-5.66739 2.89398,4.46156 1.44699,-5.90855 4.34098,3.25574 3.49689,-6.39088 8.07904,1.92932 -6.14971,-5.06447 7.83787,-7.23496 -24.84003,-14.83167 -5.42621,9.7672 -6.02914,-5.42622 0.48233,7.71729 -8.3202,-4.82331 -2.29107,3.25573 7.83787,8.44079 -8.07903,1.20582 7.95845,1.20583 -10.85244,3.73806 -3.73806,-6.63204 -4.94389,3.13515 0.24117,-21.22255 1.44699,4.2204 v -5.06448 l 3.01457,3.61748 -4.94389,-8.56136 6.51146,-5.30564 -3.37631,-6.87321 h 6.14971 l -2.41165,-4.94389 5.06447,1.32641 -2.41165,-5.06447 6.51146,0.36175 v 5.90855 l 6.2703,-1.80874 -1.80874,5.06447 6.27029,-1.56758 -1.92932,5.78797 5.90855,-1.20583 -0.84408,6.63205 -9.40544,9.64661 -3.01457,-8.3202 -5.78797,8.07903 -10.97302,-8.68195 5.30564,-2.41165 -4.70272,-3.01456 6.2703,-2.17049 -3.01457,-5.78797 5.78796,0.36175 -2.65281,-4.94389 11.33477,-0.12058 -0.48234,5.90855 6.39088,-1.80874 -2.17048,5.42622 6.14971,-1.08525 -2.41165,4.70273 10.73185,-3.13515 0.36175,5.42622 7.47613,-0.24117 -5.18506,18.0874 11.21419,-14.22875 6.51146,7.95845 1.44699,-10.49069 4.58214,10.49069 5.18505,-2.7734 -1.68815,4.34097 6.39088,-1.44699 -4.58214,3.85865 4.8233,0.12058 -4.70272,2.29107 4.58214,1.80874 -4.82331,4.8233 h 4.82331 l -8.07904,9.0437 4.82331,7.95846"
           id="path880"
           inkscape:connector-curvature="0" />
        <path
           style="fill:none;stroke:#000000;stroke-width:1.15999329;stroke-linecap:butt;stroke-linejoin:miter;stroke-miterlimit:4;stroke-dasharray:none;stroke-opacity:1"
           d="m 216.80758,224.0475 19.77555,-3.4969 -14.95224,-5.06447 -7.95846,8.19962 -8.07904,-2.0499 -14.95224,2.53223 -3.37632,-7.95845 -5.18505,8.07904 -2.04991,-9.88778 -2.41165,9.64661 -9.52603,-11.57593 6.14972,-3.01457 -2.7734,-6.14971 4.46156,2.65282 -3.13515,-5.66739 5.42622,1.20583 -2.04991,-4.94389 8.44079,-0.12058 0.48233,6.39088 8.3202,0.12058 -2.41165,5.42622 22.30778,0.7235 0.24117,-8.07904 4.22039,3.61748 0.48233,-6.9938 7.59671,2.89399 5.42622,-1.32641 -1.80874,7.23496 6.87321,2.17049 -4.70273,4.0998 5.5468,3.61748 -8.80253,7.59671 -12.78176,-6.75263 -11.21418,12.42001 -14.71108,-12.05826"
           id="path882"
           inkscape:connector-curvature="0" />
      </g>
    </g>
    <g
       style="stroke-width:6.02128172"
       transform="matrix(0.12273803,-0.11464404,-0.11209936,-0.1200137,180.49295,136.34908)"
       inkscape:label="Layer 1"
       id="g4132"
       inkscape:export-filename="/home/siqueira/Documents/Repositories/TA/debian/empacotamento/images/o_que_eh_empacotamento_4.png"
       inkscape:export-xdpi="144.75999"
       inkscape:export-ydpi="144.75999">
      <path
         inkscape:connector-curvature="0"
         id="path4128"
         d="M 256.24149,159.45486 18.848777,278.66065 129.39431,148.75691 220.0722,251.15163 272.54313,202.24668 210.39311,154.3606 48.395507,305.15081 112.07381,319.92419 96.791017,334.69754 62.659447,316.86762 110.54553,275.60407 -48.904934,200.7184 112.07381,125.83272 84.055357,73.871232 100.86643,70.814672 112.07381,97.814272 20.377057,123.79502 151.80907,255.73646 267.95829,177.28479 236.37384,155.88888 119.20578,259.30243 -19.358204,160.98314 111.05496,110.0405 92.206177,70.814672 -35.659844,223.64259 175.24269,151.30404 255.73206,245.03851 247.07179,157.41716 191.0349,253.69874 49.923787,95.776562 112.07381,86.097462 69.281987,84.059762 109.52668,79.474922 -10.188534,251.66103 111.56438,146.20978 206.31768,251.66103 269.48655,188.49217 222.10992,154.3606 6.1131169,265.41555 -32.093864,176.77536 110.54553,302.09426 105.96069,331.13157 76.923387,326.03731 111.05496,288.33974 -23.433614,236.37825 4.0754069,139.07781 111.56438,104.43681 96.791017,68.776965 -30.056154,230.26513 112.07381,139.58723 63.678297,87.625742 105.45127,73.361802 101.88528,332.65983 -43.810674,186.96389 264.90172,168.11511 36.678697,294.96229 152.82793,151.30404 242.48696,247.58563 268.46772,225.6803 195.61973,152.32289 -1.5282831,258.79301 -24.961894,166.58683 112.07381,117.6819 35.659847,109.02165 111.56438,90.172872 76.413957,77.437212 105.45127,75.908932 -43.810674,213.96349 138.56398,257.77415 269.99598,215.49177 183.39349,149.77576 27.509027,286.81145 110.54553,264.39669 13.754507,274.58522 10.697957,131.94584 110.0361,132.45526 -46.867234,207.85037 110.54553,311.77336"
         style="fill:none;stroke:#000000;stroke-width:6.62340975;stroke-linecap:round;stroke-linejoin:round;stroke-miterlimit:4;stroke-dasharray:none;stroke-opacity:1;filter:url(#filter1228)" />
      <path
         style="fill:none;stroke:#000000;stroke-width:6.62340975;stroke-linecap:round;stroke-linejoin:round;stroke-miterlimit:4;stroke-dasharray:none;stroke-opacity:1"
         d="M 256.24149,159.45486 18.848777,278.66065 129.39431,148.75691 220.0722,251.15163 272.54313,202.24668 210.39311,154.3606 48.395507,305.15081 112.07381,319.92419 96.791017,334.69754 62.659447,316.86762 110.54553,275.60407 -48.904934,200.7184 112.07381,125.83272 84.055357,73.871232 100.86643,70.814672 112.07381,97.814272 20.377057,123.79502 151.80907,255.73646 267.95829,177.28479 236.37384,155.88888 119.20578,259.30243 -19.358204,160.98314 111.05496,110.0405 92.206177,70.814672 -35.659844,223.64259 175.24269,151.30404 255.73206,245.03851 247.07179,157.41716 191.0349,253.69874 49.923787,95.776562 112.07381,86.097462 69.281987,84.059762 109.52668,79.474922 -10.188534,251.66103 111.56438,146.20978 206.31768,251.66103 269.48655,188.49217 222.10992,154.3606 6.1131169,265.41555 -32.093864,176.77536 110.54553,302.09426 105.96069,331.13157 76.923387,326.03731 111.05496,288.33974 -23.433614,236.37825 4.0754069,139.07781 111.56438,104.43681 96.791017,68.776965 -30.056154,230.26513 112.07381,139.58723 63.678297,87.625742 105.45127,73.361802 101.88528,332.65983 -43.810674,186.96389 264.90172,168.11511 36.678697,294.96229 152.82793,151.30404 242.48696,247.58563 268.46772,225.6803 195.61973,152.32289 -1.5282831,258.79301 -24.961894,166.58683 112.07381,117.6819 35.659847,109.02165 111.56438,90.172872 76.413957,77.437212 105.45127,75.908932 -43.810674,213.96349 138.56398,257.77415 269.99598,215.49177 183.39349,149.77576 27.509027,286.81145 110.54553,264.39669 13.754507,274.58522 10.697957,131.94584 110.0361,132.45526 -46.867234,207.85037 110.54553,311.77336"
         id="path4130"
         inkscape:connector-curvature="0" />
    </g>
    <g
       id="g4138"
       inkscape:label="Layer 1"
       transform="matrix(-0.12273803,-0.11464404,0.11209936,-0.1200137,37.222934,136.34908)"
       style="stroke-width:6.02128172"
       inkscape:export-filename="/home/siqueira/Documents/Repositories/TA/debian/empacotamento/images/o_que_eh_empacotamento_4.png"
       inkscape:export-xdpi="144.75999"
       inkscape:export-ydpi="144.75999">
      <path
         style="fill:none;stroke:#000000;stroke-width:6.62340975;stroke-linecap:round;stroke-linejoin:round;stroke-miterlimit:4;stroke-dasharray:none;stroke-opacity:1;filter:url(#filter1228)"
         d="M 256.24149,159.45486 18.848777,278.66065 129.39431,148.75691 220.0722,251.15163 272.54313,202.24668 210.39311,154.3606 48.395507,305.15081 112.07381,319.92419 96.791017,334.69754 62.659447,316.86762 110.54553,275.60407 -48.904934,200.7184 112.07381,125.83272 84.055357,73.871232 100.86643,70.814672 112.07381,97.814272 20.377057,123.79502 151.80907,255.73646 267.95829,177.28479 236.37384,155.88888 119.20578,259.30243 -19.358204,160.98314 111.05496,110.0405 92.206177,70.814672 -35.659844,223.64259 175.24269,151.30404 255.73206,245.03851 247.07179,157.41716 191.0349,253.69874 49.923787,95.776562 112.07381,86.097462 69.281987,84.059762 109.52668,79.474922 -10.188534,251.66103 111.56438,146.20978 206.31768,251.66103 269.48655,188.49217 222.10992,154.3606 6.1131169,265.41555 -32.093864,176.77536 110.54553,302.09426 105.96069,331.13157 76.923387,326.03731 111.05496,288.33974 -23.433614,236.37825 4.0754069,139.07781 111.56438,104.43681 96.791017,68.776965 -30.056154,230.26513 112.07381,139.58723 63.678297,87.625742 105.45127,73.361802 101.88528,332.65983 -43.810674,186.96389 264.90172,168.11511 36.678697,294.96229 152.82793,151.30404 242.48696,247.58563 268.46772,225.6803 195.61973,152.32289 -1.5282831,258.79301 -24.961894,166.58683 112.07381,117.6819 35.659847,109.02165 111.56438,90.172872 76.413957,77.437212 105.45127,75.908932 -43.810674,213.96349 138.56398,257.77415 269.99598,215.49177 183.39349,149.77576 27.509027,286.81145 110.54553,264.39669 13.754507,274.58522 10.697957,131.94584 110.0361,132.45526 -46.867234,207.85037 110.54553,311.77336"
         id="path4134"
         inkscape:connector-curvature="0" />
      <path
         inkscape:connector-curvature="0"
         id="path4136"
         d="M 256.24149,159.45486 18.848777,278.66065 129.39431,148.75691 220.0722,251.15163 272.54313,202.24668 210.39311,154.3606 48.395507,305.15081 112.07381,319.92419 96.791017,334.69754 62.659447,316.86762 110.54553,275.60407 -48.904934,200.7184 112.07381,125.83272 84.055357,73.871232 100.86643,70.814672 112.07381,97.814272 20.377057,123.79502 151.80907,255.73646 267.95829,177.28479 236.37384,155.88888 119.20578,259.30243 -19.358204,160.98314 111.05496,110.0405 92.206177,70.814672 -35.659844,223.64259 175.24269,151.30404 255.73206,245.03851 247.07179,157.41716 191.0349,253.69874 49.923787,95.776562 112.07381,86.097462 69.281987,84.059762 109.52668,79.474922 -10.188534,251.66103 111.56438,146.20978 206.31768,251.66103 269.48655,188.49217 222.10992,154.3606 6.1131169,265.41555 -32.093864,176.77536 110.54553,302.09426 105.96069,331.13157 76.923387,326.03731 111.05496,288.33974 -23.433614,236.37825 4.0754069,139.07781 111.56438,104.43681 96.791017,68.776965 -30.056154,230.26513 112.07381,139.58723 63.678297,87.625742 105.45127,73.361802 101.88528,332.65983 -43.810674,186.96389 264.90172,168.11511 36.678697,294.96229 152.82793,151.30404 242.48696,247.58563 268.46772,225.6803 195.61973,152.32289 -1.5282831,258.79301 -24.961894,166.58683 112.07381,117.6819 35.659847,109.02165 111.56438,90.172872 76.413957,77.437212 105.45127,75.908932 -43.810674,213.96349 138.56398,257.77415 269.99598,215.49177 183.39349,149.77576 27.509027,286.81145 110.54553,264.39669 13.754507,274.58522 10.697957,131.94584 110.0361,132.45526 -46.867234,207.85037 110.54553,311.77336"
         style="fill:none;stroke:#000000;stroke-width:6.62340975;stroke-linecap:round;stroke-linejoin:round;stroke-miterlimit:4;stroke-dasharray:none;stroke-opacity:1" />
    </g>
    <g
       style="stroke-width:6.02128172"
       transform="matrix(0,-0.16795202,-0.1642241,0,148.03489,200.11952)"
       inkscape:label="Layer 1"
       id="g4144"
       inkscape:export-filename="/home/siqueira/Documents/Repositories/TA/debian/empacotamento/images/o_que_eh_empacotamento_4.png"
       inkscape:export-xdpi="144.75999"
       inkscape:export-ydpi="144.75999">
      <path
         inkscape:connector-curvature="0"
         id="path4140"
         d="M 256.24149,159.45486 18.848777,278.66065 129.39431,148.75691 220.0722,251.15163 272.54313,202.24668 210.39311,154.3606 48.395507,305.15081 112.07381,319.92419 96.791017,334.69754 62.659447,316.86762 110.54553,275.60407 -48.904934,200.7184 112.07381,125.83272 84.055357,73.871232 100.86643,70.814672 112.07381,97.814272 20.377057,123.79502 151.80907,255.73646 267.95829,177.28479 236.37384,155.88888 119.20578,259.30243 -19.358204,160.98314 111.05496,110.0405 92.206177,70.814672 -35.659844,223.64259 175.24269,151.30404 255.73206,245.03851 247.07179,157.41716 191.0349,253.69874 49.923787,95.776562 112.07381,86.097462 69.281987,84.059762 109.52668,79.474922 -10.188534,251.66103 111.56438,146.20978 206.31768,251.66103 269.48655,188.49217 222.10992,154.3606 6.1131169,265.41555 -32.093864,176.77536 110.54553,302.09426 105.96069,331.13157 76.923387,326.03731 111.05496,288.33974 -23.433614,236.37825 4.0754069,139.07781 111.56438,104.43681 96.791017,68.776965 -30.056154,230.26513 112.07381,139.58723 63.678297,87.625742 105.45127,73.361802 101.88528,332.65983 -43.810674,186.96389 264.90172,168.11511 36.678697,294.96229 152.82793,151.30404 242.48696,247.58563 268.46772,225.6803 195.61973,152.32289 -1.5282831,258.79301 -24.961894,166.58683 112.07381,117.6819 35.659847,109.02165 111.56438,90.172872 76.413957,77.437212 105.45127,75.908932 -43.810674,213.96349 138.56398,257.77415 269.99598,215.49177 183.39349,149.77576 27.509027,286.81145 110.54553,264.39669 13.754507,274.58522 10.697957,131.94584 110.0361,132.45526 -46.867234,207.85037 110.54553,311.77336"
         style="fill:none;stroke:#000000;stroke-width:6.62340975;stroke-linecap:round;stroke-linejoin:round;stroke-miterlimit:4;stroke-dasharray:none;stroke-opacity:1;filter:url(#filter1228)" />
      <path
         style="fill:none;stroke:#000000;stroke-width:6.62340975;stroke-linecap:round;stroke-linejoin:round;stroke-miterlimit:4;stroke-dasharray:none;stroke-opacity:1"
         d="M 256.24149,159.45486 18.848777,278.66065 129.39431,148.75691 220.0722,251.15163 272.54313,202.24668 210.39311,154.3606 48.395507,305.15081 112.07381,319.92419 96.791017,334.69754 62.659447,316.86762 110.54553,275.60407 -48.904934,200.7184 112.07381,125.83272 84.055357,73.871232 100.86643,70.814672 112.07381,97.814272 20.377057,123.79502 151.80907,255.73646 267.95829,177.28479 236.37384,155.88888 119.20578,259.30243 -19.358204,160.98314 111.05496,110.0405 92.206177,70.814672 -35.659844,223.64259 175.24269,151.30404 255.73206,245.03851 247.07179,157.41716 191.0349,253.69874 49.923787,95.776562 112.07381,86.097462 69.281987,84.059762 109.52668,79.474922 -10.188534,251.66103 111.56438,146.20978 206.31768,251.66103 269.48655,188.49217 222.10992,154.3606 6.1131169,265.41555 -32.093864,176.77536 110.54553,302.09426 105.96069,331.13157 76.923387,326.03731 111.05496,288.33974 -23.433614,236.37825 4.0754069,139.07781 111.56438,104.43681 96.791017,68.776965 -30.056154,230.26513 112.07381,139.58723 63.678297,87.625742 105.45127,73.361802 101.88528,332.65983 -43.810674,186.96389 264.90172,168.11511 36.678697,294.96229 152.82793,151.30404 242.48696,247.58563 268.46772,225.6803 195.61973,152.32289 -1.5282831,258.79301 -24.961894,166.58683 112.07381,117.6819 35.659847,109.02165 111.56438,90.172872 76.413957,77.437212 105.45127,75.908932 -43.810674,213.96349 138.56398,257.77415 269.99598,215.49177 183.39349,149.77576 27.509027,286.81145 110.54553,264.39669 13.754507,274.58522 10.697957,131.94584 110.0361,132.45526 -46.867234,207.85037 110.54553,311.77336"
         id="path4142"
         inkscape:connector-curvature="0" />
    </g>
  </g>
</svg>
