<?xml version="1.0" encoding="UTF-8" standalone="no"?>
<!-- Created with Inkscape (http://www.inkscape.org/) -->

<svg
   xmlns:dc="http://purl.org/dc/elements/1.1/"
   xmlns:cc="http://creativecommons.org/ns#"
   xmlns:rdf="http://www.w3.org/1999/02/22-rdf-syntax-ns#"
   xmlns:svg="http://www.w3.org/2000/svg"
   xmlns="http://www.w3.org/2000/svg"
   xmlns:sodipodi="http://sodipodi.sourceforge.net/DTD/sodipodi-0.dtd"
   xmlns:inkscape="http://www.inkscape.org/namespaces/inkscape"
   width="210mm"
   height="297mm"
   viewBox="0 0 744.09448819 1052.3622047"
   id="svg4243"
   version="1.1"
   inkscape:version="0.91 r13725"
   sodipodi:docname="programming.svg">
  <defs
     id="defs4245">
    <filter
       inkscape:collect="always"
       style="color-interpolation-filters:sRGB"
       id="filter4162"
       x="-0.013764929"
       width="1.0275299"
       y="-0.042353749"
       height="1.0847075">
      <feGaussianBlur
         inkscape:collect="always"
         stdDeviation="0.89221685"
         id="feGaussianBlur4164" />
    </filter>
    <filter
       inkscape:collect="always"
       style="color-interpolation-filters:sRGB"
       id="filter4166"
       x="-0.031307342"
       width="1.0626147"
       y="-0.024792972"
       height="1.0495859">
      <feGaussianBlur
         inkscape:collect="always"
         stdDeviation="0.89221685"
         id="feGaussianBlur4168" />
    </filter>
    <filter
       inkscape:collect="always"
       style="color-interpolation-filters:sRGB"
       id="filter4170"
       x="-0.011859016"
       width="1.023718"
       y="-0.016992377"
       height="1.0339848">
      <feGaussianBlur
         inkscape:collect="always"
         stdDeviation="0.89221685"
         id="feGaussianBlur4172" />
    </filter>
  </defs>
  <sodipodi:namedview
     id="base"
     pagecolor="#ffffff"
     bordercolor="#666666"
     borderopacity="1.0"
     inkscape:pageopacity="0.0"
     inkscape:pageshadow="2"
     inkscape:zoom="0.98994949"
     inkscape:cx="179.26275"
     inkscape:cy="663.48348"
     inkscape:document-units="px"
     inkscape:current-layer="layer1"
     showgrid="false"
     inkscape:window-width="1366"
     inkscape:window-height="727"
     inkscape:window-x="0"
     inkscape:window-y="0"
     inkscape:window-maximized="1" />
  <metadata
     id="metadata4248">
    <rdf:RDF>
      <cc:Work
         rdf:about="">
        <dc:format>image/svg+xml</dc:format>
        <dc:type
           rdf:resource="http://purl.org/dc/dcmitype/StillImage" />
        <dc:title />
      </cc:Work>
    </rdf:RDF>
  </metadata>
  <g
     inkscape:label="Layer 1"
     inkscape:groupmode="layer"
     id="layer1">
    <path
       inkscape:connector-curvature="0"
       id="path4156"
       d="M 212.14286,489.50506 245,443.07649 l 28.57143,45 25.9388,-47.61419 23.48605,48.23478 17.9302,-42.4264 23.73859,37.37564 -3.283,4.54569 -31.56726,-44.19418 -19.44544,44.19418 -23.99112,-49.24494 -28.03174,49.49748 -47.47717,-30.30458 20.96067,-10.85914 62.37692,41.66879 22.72843,-47.98224 28.53681,46.71955 20.20305,-18.68782 -10.85914,-18.43528 -39.39595,37.88072 -55.81093,-46.71956 -32.82995,46.21448 -15.65737,-12.12183 9.09138,-25.00128 60.86169,37.88072 26.26396,-48.23478 28.78935,47.72971 29.7995,-29.54696 -90.66119,-17.93021 -64.9023,25.25381 33.33503,22.98097 21.46574,-47.47717 36.61803,46.9721 21.21321,-46.21448 30.30457,45.7094 11.8693,-11.11168 -17.67767,-28.03173 -81.82236,39.14341 -50.25509,-34.85026 19.1929,35.1028 16.66752,-45.96194 36.11295,46.97209 7.32361,-48.9924 20.70812,48.48732 19.1929,-43.43656 29.29442,42.67895 -94.44926,-47.22463 -29.7995,47.72971 -28.03173,-6.31346 99.75256,-40.65864 29.7995,46.71956 24.74874,-23.99113 -5.80838,-9.84898 -32.07234,33.58757 -91.41881,-42.67895 -25.50635,34.09265 9.09138,9.09138 59.85153,-47.98225 26.01143,47.98225 44.69925,-39.14342 14.89975,23.48605 -16.16244,15.15229 -46.71955,-47.22463 -39.90103,47.22463 -36.87057,-39.64849 -15.40482,22.4759 39.39595,18.18274 40.91117,-49.24493 40.91118,48.73986"
       style="fill:none;fill-rule:evenodd;stroke:#000000;stroke-width:3.5;stroke-linecap:butt;stroke-linejoin:bevel;stroke-opacity:1;stroke-miterlimit:4;stroke-dasharray:none;filter:url(#filter4162)" />
    <path
       inkscape:connector-curvature="0"
       id="path4158"
       d="m 323.75389,441.21991 -6.50286,-2.58851 -4.92449,1.6415 -1.07329,-4.79823 -4.41941,3.97748 -0.82075,-6.18719 -7.32361,6.12405 5.61897,-17.48826 -43.94163,-29.67323 51.26524,-25.75889 -40.4061,51.51778 45.45686,-22.98097 -53.79062,7.82868 7.57614,-42.17387 38.3858,50.76016 -36.11295,15.90991 31.06219,4.54568 -48.44624,8.70049 16.78572,-7.67857 4.375,6.25 36.37689,-52.72878 -22.47589,-31.56727 -22.72844,55.30585 48.48733,-10.6066 -34.85027,-44.19417 -20.70812,42.93148 52.78047,-20.70813 -50.76017,0.50508 39.90103,-20.20305 -33.58757,56.56854 34.85026,11.11168 -31.31473,5.3033 18.68782,7.07107 23.48605,-48.9924 -1.76777,15.15229 3.78807,-7.07107 -53.03301,-27.77919 32.82996,-13.63706 16.92006,25.75889 -47.22463,23.48604 46.97209,-33.33503 -48.9924,12.37437 42.67895,-22.4759 0,55.55839 -34.59773,5.3033 23.23351,16.66752"
       style="fill:none;fill-rule:evenodd;stroke:#000000;stroke-width:2;stroke-linecap:square;stroke-linejoin:bevel;stroke-opacity:1;stroke-miterlimit:4;stroke-dasharray:none;filter:url(#filter4166)" />
    <path
       inkscape:connector-curvature="0"
       id="path4160"
       d="m 263.64981,417.48133 -3.28299,13.13198 -13.38452,-13.38452 -6.81853,21.2132 -13.38452,-21.2132 -9.09138,21.2132 -18.94036,-20.45558 9.09138,-12.87945 -9.34391,-10.35406 9.34391,-11.61676 -9.34391,-11.36421 9.34391,-10.85914 -8.83884,-10.10153 9.09137,-9.84899 -9.59644,-10.35406 13.63705,-16.41498 9.84899,11.36422 10.10153,-10.85914 9.09137,10.6066 8.83884,-10.35406 7.07106,10.35406 8.5863,-10.85914 9.59645,10.6066 8.08122,-11.86929 9.09137,13.13198 10.6066,-12.6269 7.82869,11.86929 8.83883,-11.86929 9.84899,11.61675 8.58629,-11.61675 9.84899,11.86929 9.34391,-12.12183 8.33376,12.6269 11.61676,-10.35406 -7.82869,19.1929 9.34391,11.61675 -9.34391,20.70813 9.34391,14.14214 -9.84898,17.67767 9.09137,14.14213 -11.11168,25.25381 -23.73858,-21.2132 -12.62691,19.1929 -14.89975,-19.1929 -4.29315,12.37437 17.93021,-12.12183 13.8896,21.71828 12.37437,-21.71828 21.46574,20.20305 -7.82868,-22.22336 8.83883,-16.16244 -9.34391,-15.9099 9.34391,-17.67767 -8.83883,-14.14213 9.34391,-14.89975 -10.10153,-9.84899 9.84899,-3.283 -8.33376,-8.58629 -12.37437,10.85914 -9.84899,-10.85914 -9.09137,10.6066 -9.84899,-11.36422 -7.57614,11.61676 -9.34391,-11.11168 -8.33376,11.11168 -9.59645,-11.36422 -9.09137,11.36422 -8.33376,-10.85914 -7.32361,10.10152 -9.09137,-10.35406 -9.59645,11.11168 -9.34391,-10.85914 -9.09137,10.85914 -10.35407,-11.8693 -7.82868,11.36422 -14.64721,-10.10153 8.33376,14.14214 -8.83884,11.61675 8.5863,9.84899 -9.09137,10.35406 9.09137,11.61676 -8.33376,12.37437 9.34391,11.36421 -9.34391,10.35407 8.33376,10.35406 -8.08122,18.43529 3.53553,3.03045 9.59645,-21.71828 15.90991,21.46574 10.10152,-21.97081 13.63706,18.68782 5.05076,-17.67767 9.34391,11.36422 -15.15228,-11.36422 -5.05077,18.94036 -13.88959,-18.94036 -8.5863,20.70813 -14.14214,-20.45559 -10.35406,7.82868 20.96067,-7.57614 14.14213,20.70812 9.09137,-21.46574 22.4759,6.31345 -52.78047,15.40483 -14.39468,-27.02158 9.09138,-21.71828 -9.09138,-12.12183 9.09138,-11.36422 -8.5863,-10.85914 8.5863,-10.35406 -8.83884,-8.83883 16.66752,-21.97082 11.36421,11.11168 10.60661,-11.61676 9.09137,12.37437 9.34391,-12.12183 8.08122,11.11168 8.08122,-11.36422 8.33376,12.37437 9.34391,-13.38452 8.33376,12.37437 9.09137,-11.11168 7.82868,11.36422 9.59645,-12.62691 9.09138,12.12183 9.59645,-12.12183 8.83883,11.86929 13.38452,-10.85914 12.62691,15.9099 -9.59645,13.63706 9.09137,12.37437 -8.58629,18.43529 8.58629,16.66751 -8.58629,16.66752 8.83883,17.67767 -7.57614,12.62691 -20.70813,-20.96067 -11.86929,21.46574 -14.89975,-21.2132 -12.12183,6.06091 9.84898,9.34392 15.65737,-15.40483 18.43528,20.20305 9.59645,-20.96067 13.8896,16.41498 -16.92006,4.79823 -22.22335,-20.70813 -14.39468,17.93021 53.03301,-15.9099"
       style="fill:none;fill-rule:evenodd;stroke:#000000;stroke-width:3;stroke-linecap:square;stroke-linejoin:bevel;stroke-opacity:1;stroke-miterlimit:4;stroke-dasharray:none;filter:url(#filter4170)" />
    <path
       style="fill:none;fill-rule:evenodd;stroke:#000000;stroke-width:3.5;stroke-linecap:butt;stroke-linejoin:bevel;stroke-opacity:1;stroke-miterlimit:4;stroke-dasharray:none"
       d="M 212.14286,489.50506 245,443.07649 l 28.57143,45 25.9388,-47.61419 23.48605,48.23478 17.9302,-42.4264 23.73859,37.37564 -3.283,4.54569 -31.56726,-44.19418 -19.44544,44.19418 -23.99112,-49.24494 -28.03174,49.49748 -47.47717,-30.30458 20.96067,-10.85914 62.37692,41.66879 22.72843,-47.98224 28.53681,46.71955 20.20305,-18.68782 -10.85914,-18.43528 -39.39595,37.88072 -55.81093,-46.71956 -32.82995,46.21448 -15.65737,-12.12183 9.09138,-25.00128 60.86169,37.88072 26.26396,-48.23478 28.78935,47.72971 29.7995,-29.54696 -90.66119,-17.93021 -64.9023,25.25381 33.33503,22.98097 21.46574,-47.47717 36.61803,46.9721 21.21321,-46.21448 30.30457,45.7094 11.8693,-11.11168 -17.67767,-28.03173 -81.82236,39.14341 -50.25509,-34.85026 19.1929,35.1028 16.66752,-45.96194 36.11295,46.97209 7.32361,-48.9924 20.70812,48.48732 19.1929,-43.43656 29.29442,42.67895 -94.44926,-47.22463 -29.7995,47.72971 -28.03173,-6.31346 99.75256,-40.65864 29.7995,46.71956 24.74874,-23.99113 -5.80838,-9.84898 -32.07234,33.58757 -91.41881,-42.67895 -25.50635,34.09265 9.09138,9.09138 59.85153,-47.98225 26.01143,47.98225 44.69925,-39.14342 14.89975,23.48605 -16.16244,15.15229 -46.71955,-47.22463 -39.90103,47.22463 -36.87057,-39.64849 -15.40482,22.4759 39.39595,18.18274 40.91117,-49.24493 40.91118,48.73986"
       id="path4891"
       inkscape:connector-curvature="0" />
    <path
       style="fill:none;fill-rule:evenodd;stroke:#000000;stroke-width:2;stroke-linecap:square;stroke-linejoin:bevel;stroke-opacity:1;stroke-miterlimit:4;stroke-dasharray:none"
       d="m 323.75389,441.21991 -6.50286,-2.58851 -4.92449,1.6415 -1.07329,-4.79823 -4.41941,3.97748 -0.82075,-6.18719 -7.32361,6.12405 5.61897,-17.48826 -43.94163,-29.67323 51.26524,-25.75889 -40.4061,51.51778 45.45686,-22.98097 -53.79062,7.82868 7.57614,-42.17387 38.3858,50.76016 -36.11295,15.90991 31.06219,4.54568 -48.44624,8.70049 16.78572,-7.67857 4.375,6.25 36.37689,-52.72878 -22.47589,-31.56727 -22.72844,55.30585 48.48733,-10.6066 -34.85027,-44.19417 -20.70812,42.93148 52.78047,-20.70813 -50.76017,0.50508 39.90103,-20.20305 -33.58757,56.56854 34.85026,11.11168 -31.31473,5.3033 18.68782,7.07107 23.48605,-48.9924 -1.76777,15.15229 3.78807,-7.07107 -53.03301,-27.77919 32.82996,-13.63706 16.92006,25.75889 -47.22463,23.48604 46.97209,-33.33503 -48.9924,12.37437 42.67895,-22.4759 0,55.55839 -34.59773,5.3033 23.23351,16.66752"
       id="path4893"
       inkscape:connector-curvature="0" />
    <path
       style="fill:none;fill-rule:evenodd;stroke:#000000;stroke-width:3;stroke-linecap:square;stroke-linejoin:bevel;stroke-opacity:1;stroke-miterlimit:4;stroke-dasharray:none"
       d="m 263.64981,417.48133 -3.28299,13.13198 -13.38452,-13.38452 -6.81853,21.2132 -13.38452,-21.2132 -9.09138,21.2132 -18.94036,-20.45558 9.09138,-12.87945 -9.34391,-10.35406 9.34391,-11.61676 -9.34391,-11.36421 9.34391,-10.85914 -8.83884,-10.10153 9.09137,-9.84899 -9.59644,-10.35406 13.63705,-16.41498 9.84899,11.36422 10.10153,-10.85914 9.09137,10.6066 8.83884,-10.35406 7.07106,10.35406 8.5863,-10.85914 9.59645,10.6066 8.08122,-11.86929 9.09137,13.13198 10.6066,-12.6269 7.82869,11.86929 8.83883,-11.86929 9.84899,11.61675 8.58629,-11.61675 9.84899,11.86929 9.34391,-12.12183 8.33376,12.6269 11.61676,-10.35406 -7.82869,19.1929 9.34391,11.61675 -9.34391,20.70813 9.34391,14.14214 -9.84898,17.67767 9.09137,14.14213 -11.11168,25.25381 -23.73858,-21.2132 -12.62691,19.1929 -14.89975,-19.1929 -4.29315,12.37437 17.93021,-12.12183 13.8896,21.71828 12.37437,-21.71828 21.46574,20.20305 -7.82868,-22.22336 8.83883,-16.16244 -9.34391,-15.9099 9.34391,-17.67767 -8.83883,-14.14213 9.34391,-14.89975 -10.10153,-9.84899 9.84899,-3.283 -8.33376,-8.58629 -12.37437,10.85914 -9.84899,-10.85914 -9.09137,10.6066 -9.84899,-11.36422 -7.57614,11.61676 -9.34391,-11.11168 -8.33376,11.11168 -9.59645,-11.36422 -9.09137,11.36422 -8.33376,-10.85914 -7.32361,10.10152 -9.09137,-10.35406 -9.59645,11.11168 -9.34391,-10.85914 -9.09137,10.85914 -10.35407,-11.8693 -7.82868,11.36422 -14.64721,-10.10153 8.33376,14.14214 -8.83884,11.61675 8.5863,9.84899 -9.09137,10.35406 9.09137,11.61676 -8.33376,12.37437 9.34391,11.36421 -9.34391,10.35407 8.33376,10.35406 -8.08122,18.43529 3.53553,3.03045 9.59645,-21.71828 15.90991,21.46574 10.10152,-21.97081 13.63706,18.68782 5.05076,-17.67767 9.34391,11.36422 -15.15228,-11.36422 -5.05077,18.94036 -13.88959,-18.94036 -8.5863,20.70813 -14.14214,-20.45559 -10.35406,7.82868 20.96067,-7.57614 14.14213,20.70812 9.09137,-21.46574 22.4759,6.31345 -52.78047,15.40483 -14.39468,-27.02158 9.09138,-21.71828 -9.09138,-12.12183 9.09138,-11.36422 -8.5863,-10.85914 8.5863,-10.35406 -8.83884,-8.83883 16.66752,-21.97082 11.36421,11.11168 10.60661,-11.61676 9.09137,12.37437 9.34391,-12.12183 8.08122,11.11168 8.08122,-11.36422 8.33376,12.37437 9.34391,-13.38452 8.33376,12.37437 9.09137,-11.11168 7.82868,11.36422 9.59645,-12.62691 9.09138,12.12183 9.59645,-12.12183 8.83883,11.86929 13.38452,-10.85914 12.62691,15.9099 -9.59645,13.63706 9.09137,12.37437 -8.58629,18.43529 8.58629,16.66751 -8.58629,16.66752 8.83883,17.67767 -7.57614,12.62691 -20.70813,-20.96067 -11.86929,21.46574 -14.89975,-21.2132 -12.12183,6.06091 9.84898,9.34392 15.65737,-15.40483 18.43528,20.20305 9.59645,-20.96067 13.8896,16.41498 -16.92006,4.79823 -22.22335,-20.70813 -14.39468,17.93021 53.03301,-15.9099"
       id="path4895"
       inkscape:connector-curvature="0" />
    <path
       style="fill:none;fill-rule:evenodd;stroke:#000000;stroke-width:1px;stroke-linecap:butt;stroke-linejoin:bevel;stroke-opacity:1"
       d="m 220.18036,329.82723 -1.4002,0.48653 1.4002,0.82711 -1.4002,0.68114 2.46242,1.97047 2.46243,-0.82711 -6.95274,-0.24327 -1.83473,3.9166 2.19686,1.75151 5.7698,-0.68114 1.47262,3.25977 -2.19686,2.55431 -1.95546,-1.33797 -2.72798,1.48392 -1.42435,-1.9218 -1.30363,0.94874 0.72425,0.53518 1.95545,-1.09469 2.46242,2.48131 -0.82081,1.41096 0.50698,0.48652 0.38626,-0.53518 -0.91737,-1.02172 2.19686,-2.91921 2.10031,0.90009 0.65181,-4.15986 -3.06595,-1.72719 -5.118,0.85143 -0.6518,-3.96524 6.68717,-1.50827 1.73818,1.65423 -0.96566,-0.0244 -3.7902,-3.01651 1.4002,-0.58384 -1.44848,-0.68115 1.13465,4.25717 -0.77253,2.31103 1.42434,2.74891 3.93505,0.38921 -2.51071,0.99739 2.14859,1.84883 -2.24515,-0.70547 -0.84495,2.14075 -2.02788,-2.57863 0.9898,-1.0947 -2.39,-3.67333 -2.87283,-1.21633 3.09011,-2.87055 2.05201,3.04083 -1.54504,3.50305 -2.58314,-5.78975 2.05202,1.02172 0.86909,-2.1894 1.2795,7.37098 -1.03808,0.85143 1.08636,0.85143 -3.59707,2.45699 -1.5692,-1.38661 -0.0482,-0.7298 5.23868,3.96525"
       id="path4152"
       inkscape:connector-curvature="0"
       sodipodi:nodetypes="cccccccccccccccccccccccccccccccccccccccccccccccccccccccccccc" />
    <path
       style="fill:none;fill-rule:evenodd;stroke:#000000;stroke-width:1px;stroke-linecap:butt;stroke-linejoin:bevel;stroke-opacity:1"
       d="m 235.63087,332.64912 -6.88031,1.4596 6.88031,2.87055 -6.78374,3.35708 6.80787,3.50305 -6.83201,1.60556 6.83202,-4.88967 -6.88031,-3.2841 6.92859,-2.57863 -6.73546,-2.14074 6.51819,12.89314 -6.66304,-2.67594 6.80789,-0.41355 -6.83203,-3.60035 6.83203,0.0486 -6.78374,-3.38141"
       id="path4154"
       inkscape:connector-curvature="0"
       sodipodi:nodetypes="cccccccccccccccc" />
  </g>
</svg>
