<?xml version="1.0" encoding="UTF-8" standalone="no"?>
<!-- Created with Inkscape (http://www.inkscape.org/) -->

<svg
   xmlns:dc="http://purl.org/dc/elements/1.1/"
   xmlns:cc="http://creativecommons.org/ns#"
   xmlns:rdf="http://www.w3.org/1999/02/22-rdf-syntax-ns#"
   xmlns:svg="http://www.w3.org/2000/svg"
   xmlns="http://www.w3.org/2000/svg"
   xmlns:sodipodi="http://sodipodi.sourceforge.net/DTD/sodipodi-0.dtd"
   xmlns:inkscape="http://www.inkscape.org/namespaces/inkscape"
   width="210mm"
   height="297mm"
   viewBox="0 0 210 297"
   version="1.1"
   id="svg8"
   inkscape:version="0.92.2 2405546, 2018-03-11"
   sodipodi:docname="linuxdev-br.svg">
  <defs
     id="defs2">
    <filter
       inkscape:collect="always"
       style="color-interpolation-filters:sRGB"
       id="filter1400"
       x="-0.039873594"
       width="1.0797472"
       y="-0.041957252"
       height="1.0839145">
      <feGaussianBlur
         inkscape:collect="always"
         stdDeviation="0.52491302"
         id="feGaussianBlur1402" />
    </filter>
    <filter
       inkscape:collect="always"
       style="color-interpolation-filters:sRGB"
       id="filter1404"
       x="-0.039166303"
       width="1.0783326"
       y="-0.044049861"
       height="1.0880997">
      <feGaussianBlur
         inkscape:collect="always"
         stdDeviation="0.52491302"
         id="feGaussianBlur1406" />
    </filter>
    <filter
       inkscape:collect="always"
       style="color-interpolation-filters:sRGB"
       id="filter1408"
       x="-0.041464792"
       width="1.0829296"
       y="-0.03865209"
       height="1.0773042">
      <feGaussianBlur
         inkscape:collect="always"
         stdDeviation="0.52491302"
         id="feGaussianBlur1410" />
    </filter>
    <filter
       inkscape:collect="always"
       style="color-interpolation-filters:sRGB"
       id="filter1412"
       x="-0.042258377"
       width="1.0845168"
       y="-0.039166292"
       height="1.0783326">
      <feGaussianBlur
         inkscape:collect="always"
         stdDeviation="0.52491302"
         id="feGaussianBlur1414" />
    </filter>
  </defs>
  <sodipodi:namedview
     id="base"
     pagecolor="#ffffff"
     bordercolor="#666666"
     borderopacity="1.0"
     inkscape:pageopacity="0.0"
     inkscape:pageshadow="2"
     inkscape:zoom="3.7098214"
     inkscape:cx="166.49613"
     inkscape:cy="680.00001"
     inkscape:document-units="mm"
     inkscape:current-layer="layer1"
     showgrid="false"
     inkscape:window-width="1920"
     inkscape:window-height="1039"
     inkscape:window-x="1920"
     inkscape:window-y="0"
     inkscape:window-maximized="1"
     inkscape:object-nodes="false" />
  <metadata
     id="metadata5">
    <rdf:RDF>
      <cc:Work
         rdf:about="">
        <dc:format>image/svg+xml</dc:format>
        <dc:type
           rdf:resource="http://purl.org/dc/dcmitype/StillImage" />
        <dc:title></dc:title>
      </cc:Work>
    </rdf:RDF>
  </metadata>
  <g
     inkscape:label="Layer 1"
     inkscape:groupmode="layer"
     id="layer1">
    <path
       inkscape:connector-curvature="0"
       id="path1376"
       d="m 22.465704,120.48375 -1.569034,5.49162 4.207862,1.49771 -0.213959,5.0637 h 4.207862 l 4.279181,9.98476 -5.562936,-4.27918 9.984758,-2.42487 4.92106,1.92563 0.570555,-4.27918 -5.919533,-3.49467 1.497713,-5.77689 -3.922583,-3.85127 2.924107,-4.06522 -3.280707,-2.56751 3.209388,-0.78451 -3.352025,3.85126 3.423344,2.21091 -2.496188,3.77995 4.065222,3.6373 -0.927155,5.70557 7.274607,3.77995 -0.499237,-4.06522 3.637304,0.64187 -1.782993,-3.35202 3.993904,-0.78452 -1.141116,-1.64035 -2.424869,1.64035 -0.285279,6.13349 -19.541596,5.4203 7.559887,0.85584 -4.849738,2.21091 -1.782993,-6.20482 4.136543,-1.71167 2.852788,3.70863 -6.91801,3.06674 6.490091,-6.20481 4.065223,3.13807 2.924106,-6.70406 -5.420296,-3.92258 1.426395,-5.91953 -3.494667,-3.20939 2.781469,-3.9939 -1.711671,-1.78299 -1.569035,2.21091 3.922583,5.42029 -1.996951,5.56294 5.063699,3.35202 -0.927158,4.7071 7.773847,-0.92715 v -6.77537 l 1.925632,4.06522 -3.779943,-0.21396 0.356597,4.7071 -3.066745,-1.78299 0.356597,3.6373 -3.779943,-1.85431 -2.995427,3.35203 -3.066746,-3.28071 -5.848215,0.64188 -0.998477,-5.56294 -4.778419,-1.28375 1.069795,-5.0637 -3.922583,-3.13807 1.854312,-0.42792 1.497714,1.4264 -2.567509,2.21091 4.065222,1.71167 -0.855836,5.0637 4.707099,0.49924 -1.782992,3.2807 4.63578,-1.06979 7.27461,5.20633 4.921057,-5.13501 -2.28223,4.27918 -4.065222,-2.49619 -4.63578,7.27461 -1.497714,-8.84364 -3.565983,1.28375 -1.069796,-6.13349 -4.7071,-1.71168 1.711672,-4.27918 -3.494664,-0.49923 1.497713,-2.06828 4.77842,13.47943 6.276133,0.64187 3.280706,5.34898 -1.355074,1.56903 -6.062175,-4.13654 10.697956,-2.21091 6.133491,1.21244 -0.427916,-3.42335 4.136541,-0.0713 0.427919,-6.27613 1.497713,3.06674 -4.77842,1.64036 -4.13654,6.70405"
       style="fill:none;stroke:#000000;stroke-width:0.5;stroke-linecap:round;stroke-linejoin:round;stroke-opacity:1;stroke-miterlimit:4;stroke-dasharray:none;filter:url(#filter1400)" />
    <path
       inkscape:connector-curvature="0"
       id="path1378"
       d="m 35.945127,107.43225 4.136541,-2.56751 -0.356598,-5.063696 7.345929,-0.713198 -1.497714,3.565984 4.207862,1.0698 -1.925632,3.20938 3.993901,1.85431 -2.496187,3.56599 3.280706,1.92563 -2.924109,3.13807 3.138067,1.06979 -3.138067,0.99848 3.209388,-2.92411 -3.352027,-1.56903 2.852787,-3.06675 -3.637303,-1.92563 2.35355,-3.35203 -4.279183,-1.56903 1.711675,-3.9939 -4.207862,-0.42792 3.423343,-5.277659 4.136543,2.852788 8.914961,-1.854311 -2.13959,-5.206339 -4.635781,1.212435 4.350502,8.914966 6.561412,3.13806 -0.927155,5.34898 4.065222,3.20938 -1.141116,-4.49313 -4.493141,-1.99696 1.069795,-4.06522 -4.065222,-0.21396 -0.213958,-4.27918 -3.922583,1.141116 -1.996953,-4.564462 6.632734,-2.282229 0.998474,2.567508 -12.837544,3.565986 -5.776897,-0.998477 -3.565982,9.485518 -2.282233,-2.21091 4.279183,-1.28375 0.14264,-4.493144 3.280706,1.283754 3.637304,0.14264 -1.355074,3.70863 4.065222,1.21243 -2.210911,3.35202 3.708625,1.85432 -2.567509,3.06674 3.138067,1.85432 -2.995427,2.9241 1.711671,0.64188 1.355074,-1.42639 -2.995427,-1.35508 2.63883,-2.78147 -3.352028,-2.13959 2.424872,-3.42334 -3.779946,-1.64035 1.426396,-3.77995 -3.922583,-0.78452 0.499237,-5.562932 2.710148,2.210911 2.28223,-3.209385 2.35355,3.352025 7.773848,-4.992378 -4.350502,-2.496191 0.213958,8.914964 4.350502,-0.49924 -0.713195,4.065226 3.993901,-0.0713 -1.497714,4.56446 4.421823,1.71167 -2.424872,3.56598 2.282232,0.0713 0.784516,-1.14112 -3.637304,-0.64188 1.711672,-4.99238 -4.63578,-1.42639 0.855837,-4.56446 h -4.635781 v -9.55684 l 2.567509,6.490092 -5.634254,1.283756 -1.925633,-3.565986 -1.569034,2.995428 -1.711672,-2.995428 -0.213961,2.995428 -2.210908,-2.567509 -3.993904,5.634259 -4.564459,0.49923 -0.285279,5.4203 -1.782993,-0.85584 4.42182,-2.2109 2.924109,-7.274615 3.494664,1.996951 -5.705576,-0.356597 -2.995427,8.772321 -0.998474,-3.70862 4.635778,-1.4264"
       style="fill:none;stroke:#000000;stroke-width:0.5;stroke-linecap:round;stroke-linejoin:round;stroke-opacity:1;stroke-miterlimit:4;stroke-dasharray:none;filter:url(#filter1404)" />
    <path
       inkscape:connector-curvature="0"
       id="path1380"
       d="m 34.233453,125.04821 -2.924106,-4.92105 -4.92106,0.71319 -0.855837,-7.34593 4.421823,1.35508 0.927155,-4.20786 3.851262,1.92563 1.925632,-3.92259 3.280706,2.78147 2.068272,-3.49466 2.995427,3.06674 1.569032,-2.99542 0.998477,3.13806 -3.352025,-3.2807 -1.640353,3.13806 -2.995427,-2.85278 -2.28223,3.92258 -3.779946,-2.42487 -1.283753,4.06522 -4.421822,-1.49771 -0.855835,4.49314 -1.925632,2.28223 3.637304,-0.7132 v 3.85127 l 3.922583,-1.28376 v 3.70863 l 1.426395,-1.71168 -0.427919,-1.56903 -3.066748,2.06827 -0.713195,-4.06522 -4.065223,0.78451 1.640351,-2.78146 -3.352024,0.21396 5.634257,-6.27614 17.402005,-2.06827 -8.843642,2.28223 -15.547694,3.70863 2.496189,-2.71015 -3.352026,-0.78452 3.066747,-2.06827 -7.702527,-5.56293 3.779944,-3.49467 5.135018,4.3505 -7.06065,2.78147 -0.570557,-6.27613 4.207862,-0.42792 2.496189,5.84821 -3.494665,1.4264 4.56446,-8.558366 5.634255,-0.641879 1.569035,-4.27918 4.136541,1.640353 2.282232,-3.922583 0.356597,3.494664 -4.77842,-2.282229 -0.927155,4.13654 -4.707099,-1.355074 -0.07132,4.207864 -4.778419,0.0713 0.998476,4.13654 -7.987806,1.56903 3.993903,-5.99085 -1.640353,7.70253 3.993903,-6.4901 0.784516,6.34746 -3.494665,2.28223 3.352026,0.99847 -2.781468,2.35355 3.280706,-0.0713 -2.210911,2.92411 4.992378,-1.06979 4.065223,-5.20634 3.494667,1.85431 2.282229,-3.70862 3.423346,2.56751 1.711672,-3.06675 2.781469,3.06675 1.569032,-1.28376 -2.068272,-1.85431 -1.569032,2.92411 -3.494667,-2.56751 -1.569032,3.35202 -3.637304,-2.21091 -1.426395,3.56599 -5.206336,-0.99848 -0.998476,4.20786 -4.136543,0.92716 4.49314,0.78451 -0.213958,3.70863 3.993902,-1.0698 -0.07132,3.49467 2.353551,-0.21396 -4.421823,-0.7132 -7.417247,-9.84212 2.781468,-4.13654 -7.13197,-6.41877 9.271562,0.64188 -0.784518,-3.708625 4.279182,0.713195 1.141114,-4.921057 4.350501,1.711671 1.069798,-3.922582 2.781466,1.355074 -0.998476,1.782992 -4.635778,-1.996953 -1.497714,4.207865 -4.921059,-0.427919 0.356597,4.136539 -10.697953,3.56599 6.490092,-4.13655"
       style="fill:none;stroke:#000000;stroke-width:0.5;stroke-linecap:round;stroke-linejoin:round;stroke-opacity:1;stroke-miterlimit:4;stroke-dasharray:none;filter:url(#filter1408)" />
    <path
       inkscape:connector-curvature="0"
       id="path1382"
       d="m 47.712875,141.23779 3.209386,-4.06523 4.921059,1.35508 1.782993,-5.34898 4.921059,-0.49924 -0.427918,-5.34898 5.277657,-2.42486 2.49619,5.34897 -4.564462,2.21091 2.710148,-7.41725 v 7.20329 l -5.634254,-9.84211 2.353548,-3.35203 -4.207862,-1.85431 -3.138064,5.70557 -4.992381,-1.56903 -2.282229,3.92258 -4.92106,-2.49618 -4.350501,3.35202 0.713197,-3.35202 3.993904,3.2807 2.710149,-3.70862 4.421819,2.56751 2.210912,-4.63579 4.49314,1.49772 3.423346,-6.70405 -5.063699,-0.49924 0.14264,-3.85126 -3.565986,1.99695 -1.069795,-3.63731 2.710149,0.78452 0.427918,3.85126 4.350502,-0.92715 -1.355075,3.35202 4.350502,0.3566 -1.925632,3.85126 -5.206339,-1.14111 -1.426392,4.7071 -4.77842,-1.78299 -2.78147,3.6373 -4.207861,-2.92411 -3.138067,2.35355 2.924109,0.85584 3.851264,-3.35203 4.27918,2.28223 2.353551,-4.20786 4.849738,1.56904 0.427919,-3.99391 6.561412,3.35203 -3.066748,3.06675 4.77842,7.55988 2.852788,-3.6373 -0.713198,-2.49619 -9.128918,4.20786 -0.927159,5.63426 -4.63578,-0.42792 -2.068269,4.06522 -5.348978,-1.71167 2.28223,2.85279 1.283755,-3.49467 3.423346,1.85431 1.426393,-4.49314 4.921059,0.28528 0.499237,-5.84821 8.772324,0.28528 -7.345929,-5.63426 3.138067,-0.49924 -3.494667,-1.92563 1.996953,-3.70862 -3.993904,-0.85584 1.283756,-3.06675 -2.710148,1.64036 0.499237,-3.56599 -3.851264,1.49771 -0.570559,-3.77994 -1.283753,2.99543 6.347452,-0.14264 5.491618,8.13044 -3.138067,5.49162 1.426393,5.56294 6.276133,-3.77995 -5.206338,4.42182 0.998476,-7.41724 -4.27918,3.70862 0.427916,5.49162 h -5.348975 l 0.855837,3.49466 -4.493141,-1.21243 -1.854314,4.20786 -2.210908,-2.78147 -1.426396,2.06827 1.569032,1.28376 3.066749,-4.7071 4.707099,1.42639 2.210911,-5.84822 10.626635,-4.63578 -0.927156,4.56447 -4.207862,0.0713 -2.139592,-5.77689 3.494667,-2.21091 -3.851265,-3.35203"
       style="fill:none;stroke:#000000;stroke-width:0.5;stroke-linecap:round;stroke-linejoin:round;stroke-opacity:1;stroke-miterlimit:4;stroke-dasharray:none;filter:url(#filter1412)" />
    <path
       style="fill:none;stroke:#000000;stroke-width:0.5;stroke-linecap:round;stroke-linejoin:round;stroke-opacity:1;stroke-miterlimit:4;stroke-dasharray:none"
       d="m 22.465704,120.48375 -1.569034,5.49162 4.207862,1.49771 -0.213959,5.0637 h 4.207862 l 4.279181,9.98476 -5.562936,-4.27918 9.984758,-2.42487 4.92106,1.92563 0.570555,-4.27918 -5.919533,-3.49467 1.497713,-5.77689 -3.922583,-3.85127 2.924107,-4.06522 -3.280707,-2.56751 3.209388,-0.78451 -3.352025,3.85126 3.423344,2.21091 -2.496188,3.77995 4.065222,3.6373 -0.927155,5.70557 7.274607,3.77995 -0.499237,-4.06522 3.637304,0.64187 -1.782993,-3.35202 3.993904,-0.78452 -1.141116,-1.64035 -2.424869,1.64035 -0.285279,6.13349 -19.541596,5.4203 7.559887,0.85584 -4.849738,2.21091 -1.782993,-6.20482 4.136543,-1.71167 2.852788,3.70863 -6.91801,3.06674 6.490091,-6.20481 4.065223,3.13807 2.924106,-6.70406 -5.420296,-3.92258 1.426395,-5.91953 -3.494667,-3.20939 2.781469,-3.9939 -1.711671,-1.78299 -1.569035,2.21091 3.922583,5.42029 -1.996951,5.56294 5.063699,3.35202 -0.927158,4.7071 7.773847,-0.92715 v -6.77537 l 1.925632,4.06522 -3.779943,-0.21396 0.356597,4.7071 -3.066745,-1.78299 0.356597,3.6373 -3.779943,-1.85431 -2.995427,3.35203 -3.066746,-3.28071 -5.848215,0.64188 -0.998477,-5.56294 -4.778419,-1.28375 1.069795,-5.0637 -3.922583,-3.13807 1.854312,-0.42792 1.497714,1.4264 -2.567509,2.21091 4.065222,1.71167 -0.855836,5.0637 4.707099,0.49924 -1.782992,3.2807 4.63578,-1.06979 7.27461,5.20633 4.921057,-5.13501 -2.28223,4.27918 -4.065222,-2.49619 -4.63578,7.27461 -1.497714,-8.84364 -3.565983,1.28375 -1.069796,-6.13349 -4.7071,-1.71168 1.711672,-4.27918 -3.494664,-0.49923 1.497713,-2.06828 4.77842,13.47943 6.276133,0.64187 3.280706,5.34898 -1.355074,1.56903 -6.062175,-4.13654 10.697956,-2.21091 6.133491,1.21244 -0.427916,-3.42335 4.136541,-0.0713 0.427919,-6.27613 1.497713,3.06674 -4.77842,1.64036 -4.13654,6.70405"
       id="path1349"
       inkscape:connector-curvature="0" />
    <path
       style="fill:none;stroke:#000000;stroke-width:0.5;stroke-linecap:round;stroke-linejoin:round;stroke-opacity:1;stroke-miterlimit:4;stroke-dasharray:none"
       d="m 35.945127,107.43225 4.136541,-2.56751 -0.356598,-5.063696 7.345929,-0.713198 -1.497714,3.565984 4.207862,1.0698 -1.925632,3.20938 3.993901,1.85431 -2.496187,3.56599 3.280706,1.92563 -2.924109,3.13807 3.138067,1.06979 -3.138067,0.99848 3.209388,-2.92411 -3.352027,-1.56903 2.852787,-3.06675 -3.637303,-1.92563 2.35355,-3.35203 -4.279183,-1.56903 1.711675,-3.9939 -4.207862,-0.42792 3.423343,-5.277659 4.136543,2.852788 8.914961,-1.854311 -2.13959,-5.206339 -4.635781,1.212435 4.350502,8.914966 6.561412,3.13806 -0.927155,5.34898 4.065222,3.20938 -1.141116,-4.49313 -4.493141,-1.99696 1.069795,-4.06522 -4.065222,-0.21396 -0.213958,-4.27918 -3.922583,1.141116 -1.996953,-4.564462 6.632734,-2.282229 0.998474,2.567508 -12.837544,3.565986 -5.776897,-0.998477 -3.565982,9.485518 -2.282233,-2.21091 4.279183,-1.28375 0.14264,-4.493144 3.280706,1.283754 3.637304,0.14264 -1.355074,3.70863 4.065222,1.21243 -2.210911,3.35202 3.708625,1.85432 -2.567509,3.06674 3.138067,1.85432 -2.995427,2.9241 1.711671,0.64188 1.355074,-1.42639 -2.995427,-1.35508 2.63883,-2.78147 -3.352028,-2.13959 2.424872,-3.42334 -3.779946,-1.64035 1.426396,-3.77995 -3.922583,-0.78452 0.499237,-5.562932 2.710148,2.210911 2.28223,-3.209385 2.35355,3.352025 7.773848,-4.992378 -4.350502,-2.496191 0.213958,8.914964 4.350502,-0.49924 -0.713195,4.065226 3.993901,-0.0713 -1.497714,4.56446 4.421823,1.71167 -2.424872,3.56598 2.282232,0.0713 0.784516,-1.14112 -3.637304,-0.64188 1.711672,-4.99238 -4.63578,-1.42639 0.855837,-4.56446 h -4.635781 v -9.55684 l 2.567509,6.490092 -5.634254,1.283756 -1.925633,-3.565986 -1.569034,2.995428 -1.711672,-2.995428 -0.213961,2.995428 -2.210908,-2.567509 -3.993904,5.634259 -4.564459,0.49923 -0.285279,5.4203 -1.782993,-0.85584 4.42182,-2.2109 2.924109,-7.274615 3.494664,1.996951 -5.705576,-0.356597 -2.995427,8.772321 -0.998474,-3.70862 4.635778,-1.4264"
       id="path1370"
       inkscape:connector-curvature="0" />
    <path
       style="fill:none;stroke:#000000;stroke-width:0.5;stroke-linecap:round;stroke-linejoin:round;stroke-opacity:1;stroke-miterlimit:4;stroke-dasharray:none"
       d="m 34.233453,125.04821 -2.924106,-4.92105 -4.92106,0.71319 -0.855837,-7.34593 4.421823,1.35508 0.927155,-4.20786 3.851262,1.92563 1.925632,-3.92259 3.280706,2.78147 2.068272,-3.49466 2.995427,3.06674 1.569032,-2.99542 0.998477,3.13806 -3.352025,-3.2807 -1.640353,3.13806 -2.995427,-2.85278 -2.28223,3.92258 -3.779946,-2.42487 -1.283753,4.06522 -4.421822,-1.49771 -0.855835,4.49314 -1.925632,2.28223 3.637304,-0.7132 v 3.85127 l 3.922583,-1.28376 v 3.70863 l 1.426395,-1.71168 -0.427919,-1.56903 -3.066748,2.06827 -0.713195,-4.06522 -4.065223,0.78451 1.640351,-2.78146 -3.352024,0.21396 5.634257,-6.27614 17.402005,-2.06827 -8.843642,2.28223 -15.547694,3.70863 2.496189,-2.71015 -3.352026,-0.78452 3.066747,-2.06827 -7.702527,-5.56293 3.779944,-3.49467 5.135018,4.3505 -7.06065,2.78147 -0.570557,-6.27613 4.207862,-0.42792 2.496189,5.84821 -3.494665,1.4264 4.56446,-8.558366 5.634255,-0.641879 1.569035,-4.27918 4.136541,1.640353 2.282232,-3.922583 0.356597,3.494664 -4.77842,-2.282229 -0.927155,4.13654 -4.707099,-1.355074 -0.07132,4.207864 -4.778419,0.0713 0.998476,4.13654 -7.987806,1.56903 3.993903,-5.99085 -1.640353,7.70253 3.993903,-6.4901 0.784516,6.34746 -3.494665,2.28223 3.352026,0.99847 -2.781468,2.35355 3.280706,-0.0713 -2.210911,2.92411 4.992378,-1.06979 4.065223,-5.20634 3.494667,1.85431 2.282229,-3.70862 3.423346,2.56751 1.711672,-3.06675 2.781469,3.06675 1.569032,-1.28376 -2.068272,-1.85431 -1.569032,2.92411 -3.494667,-2.56751 -1.569032,3.35202 -3.637304,-2.21091 -1.426395,3.56599 -5.206336,-0.99848 -0.998476,4.20786 -4.136543,0.92716 4.49314,0.78451 -0.213958,3.70863 3.993902,-1.0698 -0.07132,3.49467 2.353551,-0.21396 -4.421823,-0.7132 -7.417247,-9.84212 2.781468,-4.13654 -7.13197,-6.41877 9.271562,0.64188 -0.784518,-3.708625 4.279182,0.713195 1.141114,-4.921057 4.350501,1.711671 1.069798,-3.922582 2.781466,1.355074 -0.998476,1.782992 -4.635778,-1.996953 -1.497714,4.207865 -4.921059,-0.427919 0.356597,4.136539 -10.697953,3.56599 6.490092,-4.13655"
       id="path1372"
       inkscape:connector-curvature="0" />
    <path
       style="fill:none;stroke:#000000;stroke-width:0.5;stroke-linecap:round;stroke-linejoin:round;stroke-opacity:1;stroke-miterlimit:4;stroke-dasharray:none"
       d="m 47.712875,141.23779 3.209386,-4.06523 4.921059,1.35508 1.782993,-5.34898 4.921059,-0.49924 -0.427918,-5.34898 5.277657,-2.42486 2.49619,5.34897 -4.564462,2.21091 2.710148,-7.41725 v 7.20329 l -5.634254,-9.84211 2.353548,-3.35203 -4.207862,-1.85431 -3.138064,5.70557 -4.992381,-1.56903 -2.282229,3.92258 -4.92106,-2.49618 -4.350501,3.35202 0.713197,-3.35202 3.993904,3.2807 2.710149,-3.70862 4.421819,2.56751 2.210912,-4.63579 4.49314,1.49772 3.423346,-6.70405 -5.063699,-0.49924 0.14264,-3.85126 -3.565986,1.99695 -1.069795,-3.63731 2.710149,0.78452 0.427918,3.85126 4.350502,-0.92715 -1.355075,3.35202 4.350502,0.3566 -1.925632,3.85126 -5.206339,-1.14111 -1.426392,4.7071 -4.77842,-1.78299 -2.78147,3.6373 -4.207861,-2.92411 -3.138067,2.35355 2.924109,0.85584 3.851264,-3.35203 4.27918,2.28223 2.353551,-4.20786 4.849738,1.56904 0.427919,-3.99391 6.561412,3.35203 -3.066748,3.06675 4.77842,7.55988 2.852788,-3.6373 -0.713198,-2.49619 -9.128918,4.20786 -0.927159,5.63426 -4.63578,-0.42792 -2.068269,4.06522 -5.348978,-1.71167 2.28223,2.85279 1.283755,-3.49467 3.423346,1.85431 1.426393,-4.49314 4.921059,0.28528 0.499237,-5.84821 8.772324,0.28528 -7.345929,-5.63426 3.138067,-0.49924 -3.494667,-1.92563 1.996953,-3.70862 -3.993904,-0.85584 1.283756,-3.06675 -2.710148,1.64036 0.499237,-3.56599 -3.851264,1.49771 -0.570559,-3.77994 -1.283753,2.99543 6.347452,-0.14264 5.491618,8.13044 -3.138067,5.49162 1.426393,5.56294 6.276133,-3.77995 -5.206338,4.42182 0.998476,-7.41724 -4.27918,3.70862 0.427916,5.49162 h -5.348975 l 0.855837,3.49466 -4.493141,-1.21243 -1.854314,4.20786 -2.210908,-2.78147 -1.426396,2.06827 1.569032,1.28376 3.066749,-4.7071 4.707099,1.42639 2.210911,-5.84822 10.626635,-4.63578 -0.927156,4.56447 -4.207862,0.0713 -2.139592,-5.77689 3.494667,-2.21091 -3.851265,-3.35203"
       id="path1374"
       inkscape:connector-curvature="0" />
  </g>
</svg>
