<?xml version="1.0" encoding="UTF-8" standalone="no"?>
<!-- Created with Inkscape (http://www.inkscape.org/) -->

<svg
   xmlns:dc="http://purl.org/dc/elements/1.1/"
   xmlns:cc="http://creativecommons.org/ns#"
   xmlns:rdf="http://www.w3.org/1999/02/22-rdf-syntax-ns#"
   xmlns:svg="http://www.w3.org/2000/svg"
   xmlns="http://www.w3.org/2000/svg"
   xmlns:sodipodi="http://sodipodi.sourceforge.net/DTD/sodipodi-0.dtd"
   xmlns:inkscape="http://www.inkscape.org/namespaces/inkscape"
   width="210mm"
   height="297mm"
   viewBox="0 0 210 297"
   version="1.1"
   id="svg8"
   inkscape:version="0.92.2 2405546, 2018-03-11"
   sodipodi:docname="aggregation.svg">
  <defs
     id="defs2">
    <filter
       inkscape:collect="always"
       style="color-interpolation-filters:sRGB"
       id="filter906"
       x="-0.066253504"
       width="1.132507"
       y="-0.014654206"
       height="1.0293084">
      <feGaussianBlur
         inkscape:collect="always"
         stdDeviation="0.3209386"
         id="feGaussianBlur908" />
    </filter>
  </defs>
  <sodipodi:namedview
     id="base"
     pagecolor="#ffffff"
     bordercolor="#666666"
     borderopacity="1.0"
     inkscape:pageopacity="0.0"
     inkscape:pageshadow="2"
     inkscape:zoom="0.28564168"
     inkscape:cx="-21.228529"
     inkscape:cy="630.38412"
     inkscape:document-units="mm"
     inkscape:current-layer="layer1"
     showgrid="false"
     inkscape:object-nodes="false"
     inkscape:window-width="1920"
     inkscape:window-height="1039"
     inkscape:window-x="0"
     inkscape:window-y="0"
     inkscape:window-maximized="1" />
  <metadata
     id="metadata5">
    <rdf:RDF>
      <cc:Work
         rdf:about="">
        <dc:format>image/svg+xml</dc:format>
        <dc:type
           rdf:resource="http://purl.org/dc/dcmitype/StillImage" />
        <dc:title />
      </cc:Work>
    </rdf:RDF>
  </metadata>
  <g
     inkscape:label="Layer 1"
     inkscape:groupmode="layer"
     id="layer1">
    <path
       inkscape:connector-curvature="0"
       id="path892"
       d="m 107.99254,163.90495 -5.89479,0.81873 0.5731,-5.73105 -4.339224,-2.0468 4.584844,-4.91233 -3.274894,-4.01173 4.011744,-4.74858 -6.549774,-3.27489 6.713514,-4.17548 -4.339224,-3.35675 3.520504,-4.66671 -4.748584,-2.70178 4.339224,-3.60237 -1.14621,-6.63164 5.81292,1.71931 1.14621,-2.0468 -2.0468,-1.14621 -1.71932,4.42109 -6.140404,2.0468 4.257354,5.15795 -3.602384,4.01173 4.502974,3.02927 -4.339224,3.60237 3.274884,3.27488 -4.584844,2.12868 5.567304,6.05853 -4.748584,4.66671 3.602374,3.76612 -3.193014,6.38602 5.239824,-0.24561 0.32749,4.01173 2.6199,-2.86552 0.73685,2.78365 -4.58484,-0.0819 -0.24561,-5.15795 -4.748584,-0.98246 3.929864,-5.48543 -3.274894,-4.25735 4.502974,-4.66671 -5.976664,-6.4679 5.731044,-1.06433 -4.093604,-3.43863 4.011734,-4.17548 -4.830454,-2.86552 4.011734,-3.76612 -2.701784,-6.05854 6.058544,0.0819 1.63744,-3.84799 1.14621,2.53804 -4.74859,-2.04681 -0.73684,5.64918 -4.912334,2.78365 4.666714,4.25735 -3.684244,4.0936 4.502964,3.19301 -5.076074,3.43863 -0.24561,4.50297 4.339224,-0.65498 -3.111144,3.84799 3.766114,4.42109 -4.830454,4.9942 3.766114,2.9474 -1.71931,6.38602 4.9942,-1.63744 0.49123,3.84798 2.53804,-1.55556 -2.53804,-1.88306 -7.204744,-2.0468 4.257354,-9.9884 -3.684254,-4.0936 2.538044,-6.54977 -2.701784,3.43863 3.356764,-29.14647 1.1462,4.33922 h -4.912324 l 3.602374,5.81292 -3.684244,3.76612 4.994194,6.71351 -6.713514,4.33922 4.584844,0.49123 -2.210554,4.58484 4.257354,2.29242 -5.321684,7.20474 3.766114,2.70178 -2.374294,6.54977 4.257354,-1.80119"
       style="fill:none;stroke:#000000;stroke-width:0.5;stroke-linecap:round;stroke-linejoin:round;stroke-miterlimit:4;stroke-dasharray:none;stroke-opacity:1;filter:url(#filter906)" />
    <path
       style="fill:none;stroke:#000000;stroke-width:0.5;stroke-linecap:round;stroke-linejoin:round;stroke-miterlimit:4;stroke-dasharray:none;stroke-opacity:1"
       d="m 107.99254,163.90495 -5.89479,0.81873 0.5731,-5.73105 -4.339224,-2.0468 4.584844,-4.91233 -3.274894,-4.01173 4.011744,-4.74858 -6.549774,-3.27489 6.713514,-4.17548 -4.339224,-3.35675 3.520504,-4.66671 -4.748584,-2.70178 4.339224,-3.60237 -1.14621,-6.63164 5.81292,1.71931 1.14621,-2.0468 -2.0468,-1.14621 -1.71932,4.42109 -6.140404,2.0468 4.257354,5.15795 -3.602384,4.01173 4.502974,3.02927 -4.339224,3.60237 3.274884,3.27488 -4.584844,2.12868 5.567304,6.05853 -4.748584,4.66671 3.602374,3.76612 -3.193014,6.38602 5.239824,-0.24561 0.32749,4.01173 2.6199,-2.86552 0.73685,2.78365 -4.58484,-0.0819 -0.24561,-5.15795 -4.748584,-0.98246 3.929864,-5.48543 -3.274894,-4.25735 4.502974,-4.66671 -5.976664,-6.4679 5.731044,-1.06433 -4.093604,-3.43863 4.011734,-4.17548 -4.830454,-2.86552 4.011734,-3.76612 -2.701784,-6.05854 6.058544,0.0819 1.63744,-3.84799 1.14621,2.53804 -4.74859,-2.04681 -0.73684,5.64918 -4.912334,2.78365 4.666714,4.25735 -3.684244,4.0936 4.502964,3.19301 -5.076074,3.43863 -0.24561,4.50297 4.339224,-0.65498 -3.111144,3.84799 3.766114,4.42109 -4.830454,4.9942 3.766114,2.9474 -1.71931,6.38602 4.9942,-1.63744 0.49123,3.84798 2.53804,-1.55556 -2.53804,-1.88306 -7.204744,-2.0468 4.257354,-9.9884 -3.684254,-4.0936 2.538044,-6.54977 -2.701784,3.43863 3.356764,-29.14647 1.1462,4.33922 h -4.912324 l 3.602374,5.81292 -3.684244,3.76612 4.994194,6.71351 -6.713514,4.33922 4.584844,0.49123 -2.210554,4.58484 4.257354,2.29242 -5.321684,7.20474 3.766114,2.70178 -2.374294,6.54977 4.257354,-1.80119"
       id="path890"
       inkscape:connector-curvature="0" />
  </g>
</svg>
