<?xml version="1.0" encoding="UTF-8" standalone="no"?>
<!-- Created with Inkscape (http://www.inkscape.org/) -->

<svg
   xmlns:dc="http://purl.org/dc/elements/1.1/"
   xmlns:cc="http://creativecommons.org/ns#"
   xmlns:rdf="http://www.w3.org/1999/02/22-rdf-syntax-ns#"
   xmlns:svg="http://www.w3.org/2000/svg"
   xmlns="http://www.w3.org/2000/svg"
   xmlns:sodipodi="http://sodipodi.sourceforge.net/DTD/sodipodi-0.dtd"
   xmlns:inkscape="http://www.inkscape.org/namespaces/inkscape"
   width="210mm"
   height="297mm"
   viewBox="0 0 210 297"
   version="1.1"
   id="svg8"
   inkscape:version="0.92.2 2405546, 2018-03-11"
   sodipodi:docname="feed_rss.svg">
  <defs
     id="defs2">
    <filter
       inkscape:collect="always"
       style="color-interpolation-filters:sRGB"
       id="filter1415"
       x="-0.01204054"
       width="1.0240811"
       y="-0.012008087"
       height="1.0240162">
      <feGaussianBlur
         inkscape:collect="always"
         stdDeviation="0.29719572"
         id="feGaussianBlur1417" />
    </filter>
    <filter
       inkscape:collect="always"
       style="color-interpolation-filters:sRGB"
       id="filter1419"
       x="-0.017927565"
       width="1.0358551"
       y="-0.017891565"
       height="1.0357831">
      <feGaussianBlur
         inkscape:collect="always"
         stdDeviation="0.29719572"
         id="feGaussianBlur1421" />
    </filter>
    <filter
       inkscape:collect="always"
       style="color-interpolation-filters:sRGB"
       id="filter1423"
       x="-0.0405"
       width="1.081"
       y="-0.040684932"
       height="1.0813699">
      <feGaussianBlur
         inkscape:collect="always"
         stdDeviation="0.29719572"
         id="feGaussianBlur1425" />
    </filter>
  </defs>
  <sodipodi:namedview
     id="base"
     pagecolor="#ffffff"
     bordercolor="#666666"
     borderopacity="1.0"
     inkscape:pageopacity="0.0"
     inkscape:pageshadow="2"
     inkscape:zoom="0.58426708"
     inkscape:cx="126.95598"
     inkscape:cy="670.23961"
     inkscape:document-units="mm"
     inkscape:current-layer="layer1"
     showgrid="false"
     inkscape:window-width="1920"
     inkscape:window-height="1039"
     inkscape:window-x="0"
     inkscape:window-y="0"
     inkscape:window-maximized="1" />
  <metadata
     id="metadata5">
    <rdf:RDF>
      <cc:Work
         rdf:about="">
        <dc:format>image/svg+xml</dc:format>
        <dc:type
           rdf:resource="http://purl.org/dc/dcmitype/StillImage" />
        <dc:title />
      </cc:Work>
    </rdf:RDF>
  </metadata>
  <g
     inkscape:label="Layer 1"
     inkscape:groupmode="layer"
     id="layer1">
    <path
       inkscape:connector-curvature="0"
       id="path1409"
       d="m 128.55362,177.10055 12.08796,-11.28744 -16.57091,-8.40553 -1.521,-23.77566 -21.29402,1.68111 -11.687703,-16.81107 -7.204744,5.36353 5.683744,7.84517 17.691653,-9.04596 5.84385,18.97249 24.33602,10.1667 -8.08532,18.01186 10.80712,7.68506 2.72179,-2.72179 -15.04992,-11.04728 4.00264,-21.45413 -23.61555,-4.00263 -9.446222,-18.17197 -14.969858,10.72706 32.66151,-3.042 5.20343,23.05519 18.73233,8.48558 -5.20342,18.17197 -5.7638,-4.88322 5.20343,-26.09718 -23.5355,-6.48427 -7.76512,-18.65229 -19.372752,6.80449 2.72179,3.042 18.732342,-9.28612 12.0079,24.01582 21.37408,9.36617 -8.88585,20.09323 2.32152,2.16142 10.24676,-8.24543 -15.61029,-8.72574 1.12074,-22.97513 -22.25466,-0.80053 -11.047269,-17.6116 -10.807118,7.2848 12.408172,6.72443 24.496135,-2.40159 3.042,23.21529 17.21134,8.40554 -3.36222,14.96986 -8.88585,-11.12733 4.72311,-21.61423 -48.111685,-26.49745 -1.761159,2.16142 16.811072,14.00923 12.168012,-8.88586 2.72179,17.93181 14.96986,-3.12205"
       style="fill:none;stroke:#000000;stroke-width:1;stroke-linecap:round;stroke-linejoin:round;stroke-miterlimit:4;stroke-dasharray:none;stroke-opacity:1;filter:url(#filter1415)" />
    <path
       inkscape:connector-curvature="0"
       id="path1411"
       d="m 82.363203,149.88262 16.891124,-8.88585 0.800523,15.77039 15.61028,-1.76116 -7.84516,13.04859 14.00922,9.28611 -12.32811,0.16011 10.08664,-13.68902 -15.53023,-2.96195 2.08137,-16.01054 -17.371439,6.40422 -6.564323,-9.28612 5.523637,-3.92258 9.126011,16.33075 21.213964,5.04332 -2.40158,18.17197 -6.88453,-5.44358 2.80185,-22.09455 -18.652286,2.56168 -10.647014,-6.16405 11.767751,-7.04464 7.925219,19.21265 19.69297,11.60764 -3.04201,7.52496 -9.28611,-3.44227 7.4449,-17.13128 -34.582772,-8.88585 26.177242,-0.88058 -2.08137,17.29139 15.69033,9.92653 -1.68111,2.96195 -11.8478,-7.84516 -5.7638,-26.65756 -16.971173,7.68506 -3.442267,-6.48427 2.481636,-6.32416 10.486906,15.69033 18.332068,-1.04069 -0.88058,24.8964 -3.44226,-1.60106 11.52759,-9.36616 -15.61028,-3.76248 -4.16274,-20.73365 -17.371442,8.48558 -1.120738,-12.64833 5.123373,13.2087 4.322847,-12.48822 6.644376,17.21133 20.653604,5.92391 -2.40159,15.61027"
       style="fill:none;stroke:#000000;stroke-width:1;stroke-linecap:round;stroke-linejoin:round;stroke-miterlimit:4;stroke-dasharray:none;stroke-opacity:1;filter:url(#filter1419)" />
    <path
       inkscape:connector-curvature="0"
       id="path1413"
       d="m 88.367157,160.60969 4.08269,17.05123 6.244111,-4.16275 -15.530227,-0.48031 7.925218,-12.64833 7.685061,4.4029 -7.845165,12.64833 -6.164059,-2.24148 -1.761159,-9.92654 12.007905,-4.24279 4.883216,7.84517 -11.447539,8.40553 -2.641737,-15.53022 13.368803,10.08664 -16.891125,-1.84122 14.969858,-7.76511 -1.040683,14.16933 -12.408172,-2.48163 1.040685,-10.72707 14.329437,3.28216 0.320212,3.76248 -7.845169,7.60501 1.280846,-17.29139 -6.404219,15.69034 -2.64174,-12.40818 6.003954,-3.52231 9.526273,10.80711 -4.723109,5.44359 -9.846485,-13.60896"
       style="fill:none;stroke:#000000;stroke-width:1;stroke-linecap:round;stroke-linejoin:round;stroke-miterlimit:4;stroke-dasharray:none;stroke-opacity:1;filter:url(#filter1423)" />
    <path
       style="fill:none;stroke:#000000;stroke-width:1;stroke-linecap:round;stroke-linejoin:round;stroke-miterlimit:4;stroke-dasharray:none;stroke-opacity:1"
       d="m 128.55362,177.10055 12.08796,-11.28744 -16.57091,-8.40553 -1.521,-23.77566 -21.29402,1.68111 -11.687703,-16.81107 -7.204744,5.36353 5.683744,7.84517 17.691653,-9.04596 5.84385,18.97249 24.33602,10.1667 -8.08532,18.01186 10.80712,7.68506 2.72179,-2.72179 -15.04992,-11.04728 4.00264,-21.45413 -23.61555,-4.00263 -9.446222,-18.17197 -14.969858,10.72706 32.66151,-3.042 5.20343,23.05519 18.73233,8.48558 -5.20342,18.17197 -5.7638,-4.88322 5.20343,-26.09718 -23.5355,-6.48427 -7.76512,-18.65229 -19.372752,6.80449 2.72179,3.042 18.732342,-9.28612 12.0079,24.01582 21.37408,9.36617 -8.88585,20.09323 2.32152,2.16142 10.24676,-8.24543 -15.61029,-8.72574 1.12074,-22.97513 -22.25466,-0.80053 -11.047269,-17.6116 -10.807118,7.2848 12.408172,6.72443 24.496135,-2.40159 3.042,23.21529 17.21134,8.40554 -3.36222,14.96986 -8.88585,-11.12733 4.72311,-21.61423 -48.111685,-26.49745 -1.761159,2.16142 16.811072,14.00923 12.168012,-8.88586 2.72179,17.93181 14.96986,-3.12205"
       id="path1403"
       inkscape:connector-curvature="0" />
    <path
       style="fill:none;stroke:#000000;stroke-width:1;stroke-linecap:round;stroke-linejoin:round;stroke-miterlimit:4;stroke-dasharray:none;stroke-opacity:1"
       d="m 82.363203,149.88262 16.891124,-8.88585 0.800523,15.77039 15.61028,-1.76116 -7.84516,13.04859 14.00922,9.28611 -12.32811,0.16011 10.08664,-13.68902 -15.53023,-2.96195 2.08137,-16.01054 -17.371439,6.40422 -6.564323,-9.28612 5.523637,-3.92258 9.126011,16.33075 21.213964,5.04332 -2.40158,18.17197 -6.88453,-5.44358 2.80185,-22.09455 -18.652286,2.56168 -10.647014,-6.16405 11.767751,-7.04464 7.925219,19.21265 19.69297,11.60764 -3.04201,7.52496 -9.28611,-3.44227 7.4449,-17.13128 -34.582772,-8.88585 26.177242,-0.88058 -2.08137,17.29139 15.69033,9.92653 -1.68111,2.96195 -11.8478,-7.84516 -5.7638,-26.65756 -16.971173,7.68506 -3.442267,-6.48427 2.481636,-6.32416 10.486906,15.69033 18.332068,-1.04069 -0.88058,24.8964 -3.44226,-1.60106 11.52759,-9.36616 -15.61028,-3.76248 -4.16274,-20.73365 -17.371442,8.48558 -1.120738,-12.64833 5.123373,13.2087 4.322847,-12.48822 6.644376,17.21133 20.653604,5.92391 -2.40159,15.61027"
       id="path1405"
       inkscape:connector-curvature="0" />
    <path
       style="fill:none;stroke:#000000;stroke-width:1;stroke-linecap:round;stroke-linejoin:round;stroke-miterlimit:4;stroke-dasharray:none;stroke-opacity:1"
       d="m 88.367157,160.60969 4.08269,17.05123 6.244111,-4.16275 -15.530227,-0.48031 7.925218,-12.64833 7.685061,4.4029 -7.845165,12.64833 -6.164059,-2.24148 -1.761159,-9.92654 12.007905,-4.24279 4.883216,7.84517 -11.447539,8.40553 -2.641737,-15.53022 13.368803,10.08664 -16.891125,-1.84122 14.969858,-7.76511 -1.040683,14.16933 -12.408172,-2.48163 1.040685,-10.72707 14.329437,3.28216 0.320212,3.76248 -7.845169,7.60501 1.280846,-17.29139 -6.404219,15.69034 -2.64174,-12.40818 6.003954,-3.52231 9.526273,10.80711 -4.723109,5.44359 -9.846485,-13.60896"
       id="path1407"
       inkscape:connector-curvature="0" />
  </g>
</svg>
