<?xml version="1.0" encoding="UTF-8" standalone="no"?>
<!-- Created with Inkscape (http://www.inkscape.org/) -->

<svg
   xmlns:dc="http://purl.org/dc/elements/1.1/"
   xmlns:cc="http://creativecommons.org/ns#"
   xmlns:rdf="http://www.w3.org/1999/02/22-rdf-syntax-ns#"
   xmlns:svg="http://www.w3.org/2000/svg"
   xmlns="http://www.w3.org/2000/svg"
   xmlns:sodipodi="http://sodipodi.sourceforge.net/DTD/sodipodi-0.dtd"
   xmlns:inkscape="http://www.inkscape.org/namespaces/inkscape"
   width="210mm"
   height="297mm"
   viewBox="0 0 210 297"
   version="1.1"
   id="svg8"
   inkscape:version="0.92.2 2405546, 2018-03-11"
   sodipodi:docname="gift.svg">
  <defs
     id="defs2">
    <filter
       inkscape:collect="always"
       style="color-interpolation-filters:sRGB"
       id="filter913"
       x="-0.012816902"
       width="1.0256338"
       y="-0.011280991"
       height="1.022562">
      <feGaussianBlur
         inkscape:collect="always"
         stdDeviation="0.41148825"
         id="feGaussianBlur915" />
    </filter>
  </defs>
  <sodipodi:namedview
     id="base"
     pagecolor="#ffffff"
     bordercolor="#666666"
     borderopacity="1.0"
     inkscape:pageopacity="0.0"
     inkscape:pageshadow="2"
     inkscape:zoom="0.38788476"
     inkscape:cx="-218.90536"
     inkscape:cy="96.467009"
     inkscape:document-units="mm"
     inkscape:current-layer="layer1"
     showgrid="false"
     inkscape:snap-nodes="false"
     inkscape:window-width="1920"
     inkscape:window-height="1039"
     inkscape:window-x="0"
     inkscape:window-y="0"
     inkscape:window-maximized="1" />
  <metadata
     id="metadata5">
    <rdf:RDF>
      <cc:Work
         rdf:about="">
        <dc:format>image/svg+xml</dc:format>
        <dc:type
           rdf:resource="http://purl.org/dc/dcmitype/StillImage" />
        <dc:title />
      </cc:Work>
    </rdf:RDF>
  </metadata>
  <g
     inkscape:label="Layer 1"
     inkscape:groupmode="layer"
     id="layer1">
    <g
       id="g911"
       style="filter:url(#filter913)"
       transform="translate(-96.178695,-92.085985)">
      <path
         style="fill:none;stroke:#000000;stroke-width:0.69999999;stroke-linecap:round;stroke-linejoin:round;stroke-miterlimit:4;stroke-dasharray:none;stroke-opacity:1"
         d="m 202.57883,281.80659 -4.09981,-6.87321 -7.35554,2.41165 -10.12894,-15.314 7.83787,-8.68195 -9.7672,-17.00215 8.07904,-1.20583 -0.96466,-7.83787 13.98759,2.65282 3.61748,-8.3202 4.70272,9.40544 17.3639,-1.08524 -7.83787,8.56137 7.5967,4.46156 -9.52603,11.0936 8.19962,6.27029 -7.95845,10.61128 7.47612,2.41165 6.39088,-7.71728 7.47613,2.04991 -5.06448,-6.27031 5.06448,-9.28486 -4.82331,-6.63205 3.25573,-6.63204 5.06447,3.37631 -4.94389,-9.16428 4.70273,-9.52603 -11.8171,0.24117 -5.30564,-9.0437 -4.34097,9.52603 -17.12274,-16.88157 -11.0936,8.19962 7.59671,14.5905 -19.53439,-0.12059 7.83787,8.92312 -7.83787,3.97923 10.00836,15.55515 -8.19962,9.1643 5.5468,7.71729 6.99379,-2.53225 3.25573,6.63204 5.66739,-2.89398 4.8233,3.25572 2.89399,-6.39088 4.8233,3.13516 9.0437,-10.85244 -8.07904,-4.22039 8.07904,-9.0437 -10.00836,-4.70272 -4.46156,6.99379 -7.23495,-2.41165 -4.94389,3.37632 -6.2703,-7.95846 -10.24952,6.87321 7.95845,11.93767 -8.92312,5.90857 -3.13514,-6.02914 -5.18506,2.65282 -4.34097,-6.51146 5.06447,-5.66739 -4.94389,-7.95845 8.80253,-6.87321 2.53224,5.78796 8.07904,-1.92932 -7.59671,-5.66738 7.71729,-3.73806 -3.25573,-8.32021 8.80253,5.18506 0.12058,-8.56137 10.00836,3.85864 5.42622,-7.47612 5.5468,2.29107 2.65282,-6.63204 7.11437,7.71728 4.94389,-10.61127 7.71729,6.87321 1.44699,-1.08524 -6.14971,-8.56137 0.96466,-10.85243 -11.33477,-3.61748 -1.44699,6.39087 -8.19962,0.24117 v 7.59671 l -8.92311,1.68815 -8.56137,-1.68815 -4.09981,-11.45535 -9.52603,0.96466 -2.17049,-6.2703 -7.83787,11.57593 3.13515,7.95846 -5.42622,6.99379 11.93768,-6.51146 3.61748,10.24952 7.23496,-6.99379 5.42622,3.25573 -4.34098,3.01457 -6.99379,-8.07904 -8.92311,7.95845 -11.45535,-0.24116 4.70272,6.02913 -5.06447,5.30564 8.19962,10.24952 -4.94389,-1.20583 4.94389,7.11438 -4.58214,3.4969 4.46155,7.11437 -4.8233,6.2703 5.90855,-3.01456 1.92932,5.90854 4.46156,-3.13515 3.61748,6.39088 5.30563,-2.65282 5.30564,7.23495 6.39088,-2.77339 4.46156,4.82331 2.53223,-6.14972 4.46156,3.61749 2.65282,-6.02914 5.42622,2.41165 4.58213,-6.51147 6.2703,2.17051 6.75263,-8.92313 -4.58214,-5.5468 4.70272,-8.92311 -5.18505,-6.14972 -2.41165,6.14972 -3.97923,-3.61748 -10.00836,14.5905 8.3202,5.5468 -7.83787,3.3763 11.45535,4.46156 4.82331,-6.63203 4.70272,-0.7235 -4.70272,-5.78797 4.46155,-8.44078 -8.3202,-7.47613 -3.61748,6.39088 -6.99379,-2.29106 7.47612,-5.06448 -7.83787,-5.5468 8.19962,-4.09981 -21.10196,-1.44699 -6.75263,-8.3202 -5.90855,2.89398 20.13731,0.24117 -0.36175,8.56136 5.18505,-6.8732 -0.48233,7.95845 5.78797,-5.90855 3.37631,6.75263 -7.83787,6.39088 9.76719,5.90855 2.7734,-6.39089 7.11438,6.87322 -5.06447,3.13514 4.8233,6.02914 -4.8233,6.27029 4.70272,1.80873 -3.13515,3.73809 -7.59671,-2.17051 -5.18505,7.35555 -5.5468,-2.77339 -2.29107,5.66737 -4.94389,-2.89398 0.60292,4.58213 -4.46156,-3.25572 -1.32641,5.90854 -1.08524,-5.06447 -3.13515,3.97923 -3.25573,-6.39088 -6.9938,2.41165 -7.95845,-11.45535 7.83787,-9.04369 -8.07904,-6.9938 7.83787,-2.17048 3.01457,5.90855 4.82331,-2.65282 6.14971,7.71729 5.5468,-7.71729 7.59671,2.29107 2.0499,-6.02913 6.2703,2.7734 -7.95846,14.83166 7.95846,0.7235 -7.83787,3.97923 10.49069,3.49689 10.97302,-13.02293 -4.94389,-10.61127 1.44699,-8.80253 3.37632,3.61748 3.25573,-3.37631 -4.82331,-3.73806 4.94389,-4.94389 -4.94389,-3.61748 2.89399,-4.82331 2.0499,3.25573 -4.82331,3.97923 4.70273,4.58214 -8.07904,18.56973 4.70272,2.41165 -4.94389,13.98758 -4.0998,-3.01456 -2.77341,5.90854 -9.64661,-7.23495 8.3202,-9.16428 -8.19962,-4.09981 9.7672,-13.867 -6.02913,-10.49069 -5.78797,6.14971 0.36175,-8.07903 -3.73806,6.27029 3.61748,-14.83166 -6.75263,-9.0437 -0.24117,6.51146 5.66739,-1.08524 -4.34098,3.4969 5.66739,0.72349 -5.06447,2.29107 7.11437,4.22039 3.73806,-8.56136 6.14972,8.80253 4.58214,-10.49069 5.90855,6.87321 0.48233,-6.02913 -6.14972,-4.58214 3.4969,-5.66739 -6.51146,-0.60291 2.17049,-6.02913 -5.30564,-3.01457 -1.44699,6.2703 -7.95846,-1.32641 0.24117,6.39088 -6.51146,-0.36175 -3.25574,7.47613 5.30564,-2.04991 -4.82331,-3.37631 -3.25572,4.70272 -3.25574,-5.06447 -0.72349,6.02913 -6.75263,-0.96466 4.34097,3.73806 -5.66738,0.48233 5.18505,2.17049 -6.87321,5.42622 -1.32641,-8.07904 -1.80873,7.95846 -3.61748,-9.0437 -2.29107,8.92311 -3.25574,-10.24952 -2.65281,10.12894 -0.84408,-10.24952 -2.53224,11.8171 -7.11437,0.60291 4.70272,1.80874 -4.70272,0.84408 4.70272,2.17048 -4.46156,0.7235 4.58214,1.92932 -4.70272,0.84408 4.70272,2.41165 -4.8233,0.96467 1.20583,4.70272 3.49689,-3.4969 3.4969,7.11438 -4.94389,6.27029 5.06447,6.02913 -4.82331,0.60292 4.46156,3.73806 -4.34097,2.41164 2.0499,3.01458 5.30564,-2.65281 2.53223,5.66737 11.45535,-8.3202 -8.07903,-11.21418 8.56136,-4.58214 -0.12058,5.06447 3.85865,-3.61748 -0.12059,5.30564 4.46156,-3.4969 v 5.06447 l 3.85865,-3.61748 1.3264,5.42622 1.08525,-5.66739 2.89398,4.46156 1.44699,-5.90855 4.34098,3.25574 3.49689,-6.39088 8.07904,1.92932 -6.14971,-5.06447 7.83787,-7.23496 -24.84003,-14.83167 -5.42621,9.7672 -6.02914,-5.42622 0.48233,7.71729 -8.3202,-4.82331 -2.29107,3.25573 7.83787,8.44079 -8.07903,1.20582 7.95845,1.20583 -10.85244,3.73806 -3.73806,-6.63204 -4.94389,3.13515 0.24117,-21.22255 1.44699,4.2204 v -5.06448 l 3.01457,3.61748 -4.94389,-8.56136 6.51146,-5.30564 -3.37631,-6.87321 h 6.14971 l -2.41165,-4.94389 5.06447,1.32641 -2.41165,-5.06447 6.51146,0.36175 v 5.90855 l 6.2703,-1.80874 -1.80874,5.06447 6.27029,-1.56758 -1.92932,5.78797 5.90855,-1.20583 -0.84408,6.63205 -9.40544,9.64661 -3.01457,-8.3202 -5.78797,8.07903 -10.97302,-8.68195 5.30564,-2.41165 -4.70272,-3.01456 6.2703,-2.17049 -3.01457,-5.78797 5.78796,0.36175 -2.65281,-4.94389 11.33477,-0.12058 -0.48234,5.90855 6.39088,-1.80874 -2.17048,5.42622 6.14971,-1.08525 -2.41165,4.70273 10.73185,-3.13515 0.36175,5.42622 7.47613,-0.24117 -5.18506,18.0874 11.21419,-14.22875 6.51146,7.95845 1.44699,-10.49069 4.58214,10.49069 5.18505,-2.7734 -1.68815,4.34097 6.39088,-1.44699 -4.58214,3.85865 4.8233,0.12058 -4.70272,2.29107 4.58214,1.80874 -4.82331,4.8233 h 4.82331 l -8.07904,9.0437 4.82331,7.95846"
         id="path907"
         inkscape:connector-curvature="0" />
      <path
         style="fill:none;stroke:#000000;stroke-width:0.69999999;stroke-linecap:butt;stroke-linejoin:miter;stroke-miterlimit:4;stroke-dasharray:none;stroke-opacity:1"
         d="m 216.80758,224.0475 19.77555,-3.4969 -14.95224,-5.06447 -7.95846,8.19962 -8.07904,-2.0499 -14.95224,2.53223 -3.37632,-7.95845 -5.18505,8.07904 -2.04991,-9.88778 -2.41165,9.64661 -9.52603,-11.57593 6.14972,-3.01457 -2.7734,-6.14971 4.46156,2.65282 -3.13515,-5.66739 5.42622,1.20583 -2.04991,-4.94389 8.44079,-0.12058 0.48233,6.39088 8.3202,0.12058 -2.41165,5.42622 22.30778,0.7235 0.24117,-8.07904 4.22039,3.61748 0.48233,-6.9938 7.59671,2.89399 5.42622,-1.32641 -1.80874,7.23496 6.87321,2.17049 -4.70273,4.0998 5.5468,3.61748 -8.80253,7.59671 -12.78176,-6.75263 -11.21418,12.42001 -14.71108,-12.05826"
         id="path909"
         inkscape:connector-curvature="0" />
    </g>
    <g
       id="g905"
       transform="translate(-96.178695,-92.085985)">
      <path
         inkscape:connector-curvature="0"
         id="path880"
         d="m 202.57883,281.80659 -4.09981,-6.87321 -7.35554,2.41165 -10.12894,-15.314 7.83787,-8.68195 -9.7672,-17.00215 8.07904,-1.20583 -0.96466,-7.83787 13.98759,2.65282 3.61748,-8.3202 4.70272,9.40544 17.3639,-1.08524 -7.83787,8.56137 7.5967,4.46156 -9.52603,11.0936 8.19962,6.27029 -7.95845,10.61128 7.47612,2.41165 6.39088,-7.71728 7.47613,2.04991 -5.06448,-6.27031 5.06448,-9.28486 -4.82331,-6.63205 3.25573,-6.63204 5.06447,3.37631 -4.94389,-9.16428 4.70273,-9.52603 -11.8171,0.24117 -5.30564,-9.0437 -4.34097,9.52603 -17.12274,-16.88157 -11.0936,8.19962 7.59671,14.5905 -19.53439,-0.12059 7.83787,8.92312 -7.83787,3.97923 10.00836,15.55515 -8.19962,9.1643 5.5468,7.71729 6.99379,-2.53225 3.25573,6.63204 5.66739,-2.89398 4.8233,3.25572 2.89399,-6.39088 4.8233,3.13516 9.0437,-10.85244 -8.07904,-4.22039 8.07904,-9.0437 -10.00836,-4.70272 -4.46156,6.99379 -7.23495,-2.41165 -4.94389,3.37632 -6.2703,-7.95846 -10.24952,6.87321 7.95845,11.93767 -8.92312,5.90857 -3.13514,-6.02914 -5.18506,2.65282 -4.34097,-6.51146 5.06447,-5.66739 -4.94389,-7.95845 8.80253,-6.87321 2.53224,5.78796 8.07904,-1.92932 -7.59671,-5.66738 7.71729,-3.73806 -3.25573,-8.32021 8.80253,5.18506 0.12058,-8.56137 10.00836,3.85864 5.42622,-7.47612 5.5468,2.29107 2.65282,-6.63204 7.11437,7.71728 4.94389,-10.61127 7.71729,6.87321 1.44699,-1.08524 -6.14971,-8.56137 0.96466,-10.85243 -11.33477,-3.61748 -1.44699,6.39087 -8.19962,0.24117 v 7.59671 l -8.92311,1.68815 -8.56137,-1.68815 -4.09981,-11.45535 -9.52603,0.96466 -2.17049,-6.2703 -7.83787,11.57593 3.13515,7.95846 -5.42622,6.99379 11.93768,-6.51146 3.61748,10.24952 7.23496,-6.99379 5.42622,3.25573 -4.34098,3.01457 -6.99379,-8.07904 -8.92311,7.95845 -11.45535,-0.24116 4.70272,6.02913 -5.06447,5.30564 8.19962,10.24952 -4.94389,-1.20583 4.94389,7.11438 -4.58214,3.4969 4.46155,7.11437 -4.8233,6.2703 5.90855,-3.01456 1.92932,5.90854 4.46156,-3.13515 3.61748,6.39088 5.30563,-2.65282 5.30564,7.23495 6.39088,-2.77339 4.46156,4.82331 2.53223,-6.14972 4.46156,3.61749 2.65282,-6.02914 5.42622,2.41165 4.58213,-6.51147 6.2703,2.17051 6.75263,-8.92313 -4.58214,-5.5468 4.70272,-8.92311 -5.18505,-6.14972 -2.41165,6.14972 -3.97923,-3.61748 -10.00836,14.5905 8.3202,5.5468 -7.83787,3.3763 11.45535,4.46156 4.82331,-6.63203 4.70272,-0.7235 -4.70272,-5.78797 4.46155,-8.44078 -8.3202,-7.47613 -3.61748,6.39088 -6.99379,-2.29106 7.47612,-5.06448 -7.83787,-5.5468 8.19962,-4.09981 -21.10196,-1.44699 -6.75263,-8.3202 -5.90855,2.89398 20.13731,0.24117 -0.36175,8.56136 5.18505,-6.8732 -0.48233,7.95845 5.78797,-5.90855 3.37631,6.75263 -7.83787,6.39088 9.76719,5.90855 2.7734,-6.39089 7.11438,6.87322 -5.06447,3.13514 4.8233,6.02914 -4.8233,6.27029 4.70272,1.80873 -3.13515,3.73809 -7.59671,-2.17051 -5.18505,7.35555 -5.5468,-2.77339 -2.29107,5.66737 -4.94389,-2.89398 0.60292,4.58213 -4.46156,-3.25572 -1.32641,5.90854 -1.08524,-5.06447 -3.13515,3.97923 -3.25573,-6.39088 -6.9938,2.41165 -7.95845,-11.45535 7.83787,-9.04369 -8.07904,-6.9938 7.83787,-2.17048 3.01457,5.90855 4.82331,-2.65282 6.14971,7.71729 5.5468,-7.71729 7.59671,2.29107 2.0499,-6.02913 6.2703,2.7734 -7.95846,14.83166 7.95846,0.7235 -7.83787,3.97923 10.49069,3.49689 10.97302,-13.02293 -4.94389,-10.61127 1.44699,-8.80253 3.37632,3.61748 3.25573,-3.37631 -4.82331,-3.73806 4.94389,-4.94389 -4.94389,-3.61748 2.89399,-4.82331 2.0499,3.25573 -4.82331,3.97923 4.70273,4.58214 -8.07904,18.56973 4.70272,2.41165 -4.94389,13.98758 -4.0998,-3.01456 -2.77341,5.90854 -9.64661,-7.23495 8.3202,-9.16428 -8.19962,-4.09981 9.7672,-13.867 -6.02913,-10.49069 -5.78797,6.14971 0.36175,-8.07903 -3.73806,6.27029 3.61748,-14.83166 -6.75263,-9.0437 -0.24117,6.51146 5.66739,-1.08524 -4.34098,3.4969 5.66739,0.72349 -5.06447,2.29107 7.11437,4.22039 3.73806,-8.56136 6.14972,8.80253 4.58214,-10.49069 5.90855,6.87321 0.48233,-6.02913 -6.14972,-4.58214 3.4969,-5.66739 -6.51146,-0.60291 2.17049,-6.02913 -5.30564,-3.01457 -1.44699,6.2703 -7.95846,-1.32641 0.24117,6.39088 -6.51146,-0.36175 -3.25574,7.47613 5.30564,-2.04991 -4.82331,-3.37631 -3.25572,4.70272 -3.25574,-5.06447 -0.72349,6.02913 -6.75263,-0.96466 4.34097,3.73806 -5.66738,0.48233 5.18505,2.17049 -6.87321,5.42622 -1.32641,-8.07904 -1.80873,7.95846 -3.61748,-9.0437 -2.29107,8.92311 -3.25574,-10.24952 -2.65281,10.12894 -0.84408,-10.24952 -2.53224,11.8171 -7.11437,0.60291 4.70272,1.80874 -4.70272,0.84408 4.70272,2.17048 -4.46156,0.7235 4.58214,1.92932 -4.70272,0.84408 4.70272,2.41165 -4.8233,0.96467 1.20583,4.70272 3.49689,-3.4969 3.4969,7.11438 -4.94389,6.27029 5.06447,6.02913 -4.82331,0.60292 4.46156,3.73806 -4.34097,2.41164 2.0499,3.01458 5.30564,-2.65281 2.53223,5.66737 11.45535,-8.3202 -8.07903,-11.21418 8.56136,-4.58214 -0.12058,5.06447 3.85865,-3.61748 -0.12059,5.30564 4.46156,-3.4969 v 5.06447 l 3.85865,-3.61748 1.3264,5.42622 1.08525,-5.66739 2.89398,4.46156 1.44699,-5.90855 4.34098,3.25574 3.49689,-6.39088 8.07904,1.92932 -6.14971,-5.06447 7.83787,-7.23496 -24.84003,-14.83167 -5.42621,9.7672 -6.02914,-5.42622 0.48233,7.71729 -8.3202,-4.82331 -2.29107,3.25573 7.83787,8.44079 -8.07903,1.20582 7.95845,1.20583 -10.85244,3.73806 -3.73806,-6.63204 -4.94389,3.13515 0.24117,-21.22255 1.44699,4.2204 v -5.06448 l 3.01457,3.61748 -4.94389,-8.56136 6.51146,-5.30564 -3.37631,-6.87321 h 6.14971 l -2.41165,-4.94389 5.06447,1.32641 -2.41165,-5.06447 6.51146,0.36175 v 5.90855 l 6.2703,-1.80874 -1.80874,5.06447 6.27029,-1.56758 -1.92932,5.78797 5.90855,-1.20583 -0.84408,6.63205 -9.40544,9.64661 -3.01457,-8.3202 -5.78797,8.07903 -10.97302,-8.68195 5.30564,-2.41165 -4.70272,-3.01456 6.2703,-2.17049 -3.01457,-5.78797 5.78796,0.36175 -2.65281,-4.94389 11.33477,-0.12058 -0.48234,5.90855 6.39088,-1.80874 -2.17048,5.42622 6.14971,-1.08525 -2.41165,4.70273 10.73185,-3.13515 0.36175,5.42622 7.47613,-0.24117 -5.18506,18.0874 11.21419,-14.22875 6.51146,7.95845 1.44699,-10.49069 4.58214,10.49069 5.18505,-2.7734 -1.68815,4.34097 6.39088,-1.44699 -4.58214,3.85865 4.8233,0.12058 -4.70272,2.29107 4.58214,1.80874 -4.82331,4.8233 h 4.82331 l -8.07904,9.0437 4.82331,7.95846"
         style="fill:none;stroke:#000000;stroke-width:0.69999999;stroke-linecap:round;stroke-linejoin:round;stroke-miterlimit:4;stroke-dasharray:none;stroke-opacity:1" />
      <path
         inkscape:connector-curvature="0"
         id="path882"
         d="m 216.80758,224.0475 19.77555,-3.4969 -14.95224,-5.06447 -7.95846,8.19962 -8.07904,-2.0499 -14.95224,2.53223 -3.37632,-7.95845 -5.18505,8.07904 -2.04991,-9.88778 -2.41165,9.64661 -9.52603,-11.57593 6.14972,-3.01457 -2.7734,-6.14971 4.46156,2.65282 -3.13515,-5.66739 5.42622,1.20583 -2.04991,-4.94389 8.44079,-0.12058 0.48233,6.39088 8.3202,0.12058 -2.41165,5.42622 22.30778,0.7235 0.24117,-8.07904 4.22039,3.61748 0.48233,-6.9938 7.59671,2.89399 5.42622,-1.32641 -1.80874,7.23496 6.87321,2.17049 -4.70273,4.0998 5.5468,3.61748 -8.80253,7.59671 -12.78176,-6.75263 -11.21418,12.42001 -14.71108,-12.05826"
         style="fill:none;stroke:#000000;stroke-width:0.69999999;stroke-linecap:butt;stroke-linejoin:miter;stroke-miterlimit:4;stroke-dasharray:none;stroke-opacity:1" />
    </g>
  </g>
</svg>
