<?xml version="1.0" encoding="UTF-8" standalone="no"?>
<!-- Created with Inkscape (http://www.inkscape.org/) -->

<svg
   xmlns:dc="http://purl.org/dc/elements/1.1/"
   xmlns:cc="http://creativecommons.org/ns#"
   xmlns:rdf="http://www.w3.org/1999/02/22-rdf-syntax-ns#"
   xmlns:svg="http://www.w3.org/2000/svg"
   xmlns="http://www.w3.org/2000/svg"
   xmlns:sodipodi="http://sodipodi.sourceforge.net/DTD/sodipodi-0.dtd"
   xmlns:inkscape="http://www.inkscape.org/namespaces/inkscape"
   width="210mm"
   height="297mm"
   viewBox="0 0 210 297"
   version="1.1"
   id="svg8"
   inkscape:version="0.92.2 2405546, 2018-03-11"
   sodipodi:docname="inside.svg">
  <defs
     id="defs2">
    <filter
       inkscape:collect="always"
       style="color-interpolation-filters:sRGB"
       id="filter896"
       x="-0.01552941"
       width="1.0310588"
       y="-0.0097777786"
       height="1.0195556">
      <feGaussianBlur
         inkscape:collect="always"
         stdDeviation="0.23935764"
         id="feGaussianBlur898" />
    </filter>
    <filter
       inkscape:collect="always"
       style="color-interpolation-filters:sRGB"
       id="filter902"
       x="-0.0095280901"
       width="1.0190562"
       y="-0.016203821"
       height="1.0324076">
      <feGaussianBlur
         inkscape:collect="always"
         stdDeviation="0.10028423"
         id="feGaussianBlur904" />
    </filter>
  </defs>
  <sodipodi:namedview
     id="base"
     pagecolor="#ffffff"
     bordercolor="#666666"
     borderopacity="1.0"
     inkscape:pageopacity="0.0"
     inkscape:pageshadow="2"
     inkscape:zoom="0.49437982"
     inkscape:cx="179.79411"
     inkscape:cy="758.07951"
     inkscape:document-units="mm"
     inkscape:current-layer="layer1"
     showgrid="false"
     inkscape:snap-nodes="false"
     inkscape:window-width="1920"
     inkscape:window-height="1039"
     inkscape:window-x="0"
     inkscape:window-y="0"
     inkscape:window-maximized="1" />
  <metadata
     id="metadata5">
    <rdf:RDF>
      <cc:Work
         rdf:about="">
        <dc:format>image/svg+xml</dc:format>
        <dc:type
           rdf:resource="http://purl.org/dc/dcmitype/StillImage" />
        <dc:title />
      </cc:Work>
    </rdf:RDF>
  </metadata>
  <g
     inkscape:label="Layer 1"
     inkscape:groupmode="layer"
     id="layer1">
    <path
       inkscape:connector-curvature="0"
       id="path900"
       d="m 73.103072,151.0359 24.598023,-1.04068 -9.83921,5.58186 4.25735,1.51372 2.83823,-9.93382 2.74363,4.91961 -9.65,-5.01421 2.93284,-3.21667 7.37941,7.09558 -8.89313,7.47402 -1.32451,-1.13529 8.42009,-8.70392 -0.75686,5.29804 -6.71715,-10.21764 -1.2299,10.02842 -1.79755,-5.01421 -1.32451,4.16274 -1.41911,-3.50049 -1.32451,3.12206 -1.32451,-2.55441 -1.513726,1.89215 -2.175979,-1.3245 -1.135292,1.04068 -1.32451,-0.66225 2.743626,0.94607 1.797548,-1.98676 1.229903,2.4598 1.79754,-2.74362 0.94608,3.40588 1.60834,-3.87892 1.60833,4.25735 5.48725,-8.70392 2.83823,10.40686 -6.52794,-6.71715 5.39265,-2.27059 -5.58186,8.42009 5.58186,1.60833 -5.58186,-10.21763 2.17598,-2.27059 1.04068,14.75881 -3.87892,-9.83921 -1.51372,4.54118"
       style="fill:none;stroke:#000000;stroke-width:0.5;stroke-linecap:round;stroke-linejoin:round;stroke-miterlimit:4;stroke-dasharray:none;stroke-opacity:1;filter:url(#filter902)"
       inkscape:export-xdpi="144.75999"
       inkscape:export-ydpi="144.75999" />
    <path
       inkscape:connector-curvature="0"
       id="path894"
       d="m 92.403055,142.14277 -3.78431,-1.70294 3.97353,-2.83823 -3.97353,-3.12206 3.87892,-3.87891 -3.97353,-3.97353 1.04069,-1.32451 4.35195,3.87892 3.50049,-3.97353 3.784305,3.97353 3.87892,-4.35196 3.6897,4.16275 3.02745,-3.78432 3.50049,3.87892 3.59509,-3.97352 6.33872,6.81176 -21.57057,25.26027 21.47596,8.89313 -7.56862,10.9745 -15.8941,-7.37941 -3.973515,4.06814 -4.16275,-4.06814 -3.78431,3.97353 -1.04068,-8.04166 3.87892,-5.67647 -3.87892,1.60833 3.87892,1.79755 -4.06814,4.16274 3.5951,1.70295 -3.5951,3.12205 3.31128,1.41912 4.82499,-4.35196 4.541165,4.16274 24.03037,-23.46272 -21.57057,-14.19117 7.19019,44.27643 2.08137,-49.57446 9.17696,43.80339 3.12205,-47.5877 -2.27058,-1.79755 -19.39459,22.70586 21.47596,11.73136 -21.75979,19.20538 3.68971,3.78431 17.88086,-20.05685 -21.57057,-9.46077 21.949,-15.70489 -16.27253,-4.44657 -5.48725,10.40686 10.12303,36.04556 -10.02842,-3.97353 21.75978,-20.81371 -21.75978,-14.00195 3.40588,-6.43332 18.25929,11.25832 -21.57057,18.54312 16.84018,11.54215 4.54118,-6.43333 -21.8544,-18.35391 21.47597,-24.78723 -10.40686,4.35196 0.47304,48.15535 6.90637,-53.26417 3.50048,15.98871 -21.66517,19.39459 21.66517,11.16372 -0.94607,1.70294 -20.81371,-5.58186 21.66518,-19.77302 -20.34067,-13.43431 -1.13529,47.20928 1.89215,1.89215 5.96029,-51.84505 14.00195,-2.93284 -10.12303,-3.87892 -3.6897,3.87892 -3.40588,-3.5951 -2.83824,3.5951 -4.25735,-3.87892 -3.784305,3.97353 -3.87891,-3.68971 -4.73039,4.73039 3.6897,4.25735 -3.6897,3.5951 1.98676,3.21666 1.89216,-1.70294 -4.16275,-3.21666 3.87892,-0.56765 -3.59509,-1.04069 3.78431,-1.13529 -3.6897,-0.85147 3.6897,-2.36519 -3.6897,-1.60833 2.93284,-3.5951 4.06813,4.25735 3.50049,-4.16274 4.351945,4.16274 3.21667,-4.25735 3.31127,3.97353 3.12205,-3.78431 0.37844,3.6897 3.12205,-3.87892 4.63578,50.14212 -18.07008,-36.32939 21.75978,-7.47401 -22.23282,42.19506 -3.405875,-3.50048 -4.54117,3.78431 -6.1495,-3.21667 3.6897,-3.50048 -3.78431,-2.45981 3.78431,-2.83823 -2.4598,-0.75686 -1.41912,1.79754 3.97353,2.55442 -3.97353,3.97352 11.25832,4.44657 25.260265,-17.31323 -21.66517,-20.15145"
       style="fill:none;stroke:#000000;stroke-width:0.5;stroke-linecap:round;stroke-linejoin:round;stroke-miterlimit:4;stroke-dasharray:none;stroke-opacity:1;filter:url(#filter896)"
       inkscape:export-xdpi="144.75999"
       inkscape:export-ydpi="144.75999" />
    <path
       style="fill:none;stroke:#000000;stroke-width:0.5;stroke-linecap:round;stroke-linejoin:round;stroke-miterlimit:4;stroke-dasharray:none;stroke-opacity:1"
       d="m 92.403055,142.14277 -3.78431,-1.70294 3.97353,-2.83823 -3.97353,-3.12206 3.87892,-3.87891 -3.97353,-3.97353 1.04069,-1.32451 4.35195,3.87892 3.50049,-3.97353 3.784305,3.97353 3.87892,-4.35196 3.6897,4.16275 3.02745,-3.78432 3.50049,3.87892 3.59509,-3.97352 6.33872,6.81176 -21.57057,25.26027 21.47596,8.89313 -7.56862,10.9745 -15.8941,-7.37941 -3.973515,4.06814 -4.16275,-4.06814 -3.78431,3.97353 -1.04068,-8.04166 3.87892,-5.67647 -3.87892,1.60833 3.87892,1.79755 -4.06814,4.16274 3.5951,1.70295 -3.5951,3.12205 3.31128,1.41912 4.82499,-4.35196 4.541165,4.16274 24.03037,-23.46272 -21.57057,-14.19117 7.19019,44.27643 2.08137,-49.57446 9.17696,43.80339 3.12205,-47.5877 -2.27058,-1.79755 -19.39459,22.70586 21.47596,11.73136 -21.75979,19.20538 3.68971,3.78431 17.88086,-20.05685 -21.57057,-9.46077 21.949,-15.70489 -16.27253,-4.44657 -5.48725,10.40686 10.12303,36.04556 -10.02842,-3.97353 21.75978,-20.81371 -21.75978,-14.00195 3.40588,-6.43332 18.25929,11.25832 -21.57057,18.54312 16.84018,11.54215 4.54118,-6.43333 -21.8544,-18.35391 21.47597,-24.78723 -10.40686,4.35196 0.47304,48.15535 6.90637,-53.26417 3.50048,15.98871 -21.66517,19.39459 21.66517,11.16372 -0.94607,1.70294 -20.81371,-5.58186 21.66518,-19.77302 -20.34067,-13.43431 -1.13529,47.20928 1.89215,1.89215 5.96029,-51.84505 14.00195,-2.93284 -10.12303,-3.87892 -3.6897,3.87892 -3.40588,-3.5951 -2.83824,3.5951 -4.25735,-3.87892 -3.784305,3.97353 -3.87891,-3.68971 -4.73039,4.73039 3.6897,4.25735 -3.6897,3.5951 1.98676,3.21666 1.89216,-1.70294 -4.16275,-3.21666 3.87892,-0.56765 -3.59509,-1.04069 3.78431,-1.13529 -3.6897,-0.85147 3.6897,-2.36519 -3.6897,-1.60833 2.93284,-3.5951 4.06813,4.25735 3.50049,-4.16274 4.351945,4.16274 3.21667,-4.25735 3.31127,3.97353 3.12205,-3.78431 0.37844,3.6897 3.12205,-3.87892 4.63578,50.14212 -18.07008,-36.32939 21.75978,-7.47401 -22.23282,42.19506 -3.405875,-3.50048 -4.54117,3.78431 -6.1495,-3.21667 3.6897,-3.50048 -3.78431,-2.45981 3.78431,-2.83823 -2.4598,-0.75686 -1.41912,1.79754 3.97353,2.55442 -3.97353,3.97352 11.25832,4.44657 25.260265,-17.31323 -21.66517,-20.15145"
       id="path890"
       inkscape:connector-curvature="0"
       inkscape:export-xdpi="144.75999"
       inkscape:export-ydpi="144.75999" />
    <path
       style="fill:none;stroke:#000000;stroke-width:0.5;stroke-linecap:round;stroke-linejoin:round;stroke-miterlimit:4;stroke-dasharray:none;stroke-opacity:1"
       d="m 73.103072,151.0359 24.598023,-1.04068 -9.83921,5.58186 4.25735,1.51372 2.83823,-9.93382 2.74363,4.91961 -9.65,-5.01421 2.93284,-3.21667 7.37941,7.09558 -8.89313,7.47402 -1.32451,-1.13529 8.42009,-8.70392 -0.75686,5.29804 -6.71715,-10.21764 -1.2299,10.02842 -1.79755,-5.01421 -1.32451,4.16274 -1.41911,-3.50049 -1.32451,3.12206 -1.32451,-2.55441 -1.513726,1.89215 -2.175979,-1.3245 -1.135292,1.04068 -1.32451,-0.66225 2.743626,0.94607 1.797548,-1.98676 1.229903,2.4598 1.79754,-2.74362 0.94608,3.40588 1.60834,-3.87892 1.60833,4.25735 5.48725,-8.70392 2.83823,10.40686 -6.52794,-6.71715 5.39265,-2.27059 -5.58186,8.42009 5.58186,1.60833 -5.58186,-10.21763 2.17598,-2.27059 1.04068,14.75881 -3.87892,-9.83921 -1.51372,4.54118"
       id="path892"
       inkscape:connector-curvature="0"
       inkscape:export-xdpi="144.75999"
       inkscape:export-ydpi="144.75999" />
  </g>
</svg>
