<?xml version="1.0" encoding="UTF-8" standalone="no"?>
<!-- Created with Inkscape (http://www.inkscape.org/) -->

<svg
   xmlns:dc="http://purl.org/dc/elements/1.1/"
   xmlns:cc="http://creativecommons.org/ns#"
   xmlns:rdf="http://www.w3.org/1999/02/22-rdf-syntax-ns#"
   xmlns:svg="http://www.w3.org/2000/svg"
   xmlns="http://www.w3.org/2000/svg"
   xmlns:sodipodi="http://sodipodi.sourceforge.net/DTD/sodipodi-0.dtd"
   xmlns:inkscape="http://www.inkscape.org/namespaces/inkscape"
   width="210mm"
   height="297mm"
   viewBox="0 0 210 297"
   version="1.1"
   id="svg8"
   inkscape:version="0.92.2 2405546, 2018-03-11"
   sodipodi:docname="laptop.svg">
  <defs
     id="defs2">
    <filter
       inkscape:collect="always"
       style="color-interpolation-filters:sRGB"
       id="filter955"
       x="-0.021403845"
       width="1.0428077"
       y="-0.027312885"
       height="1.0546258">
      <feGaussianBlur
         inkscape:collect="always"
         stdDeviation="0.99156994"
         id="feGaussianBlur957" />
    </filter>
  </defs>
  <sodipodi:namedview
     id="base"
     pagecolor="#ffffff"
     bordercolor="#666666"
     borderopacity="1.0"
     inkscape:pageopacity="0.0"
     inkscape:pageshadow="2"
     inkscape:zoom="0.98994949"
     inkscape:cx="444.98921"
     inkscape:cy="668.43863"
     inkscape:document-units="mm"
     inkscape:current-layer="layer1"
     showgrid="false"
     inkscape:window-width="1920"
     inkscape:window-height="1039"
     inkscape:window-x="1920"
     inkscape:window-y="0"
     inkscape:window-maximized="1"
     inkscape:snap-others="false"
     inkscape:snap-nodes="false" />
  <metadata
     id="metadata5">
    <rdf:RDF>
      <cc:Work
         rdf:about="">
        <dc:format>image/svg+xml</dc:format>
        <dc:type
           rdf:resource="http://purl.org/dc/dcmitype/StillImage" />
        <dc:title></dc:title>
      </cc:Work>
    </rdf:RDF>
  </metadata>
  <g
     inkscape:label="Layer 1"
     inkscape:groupmode="layer"
     id="layer1">
    <g
       id="g961">
      <path
         style="fill:none;stroke:#000000;stroke-width:1;stroke-linecap:round;stroke-linejoin:round;stroke-opacity:1;stroke-miterlimit:4;stroke-dasharray:none;filter:url(#filter955)"
         d="m 45.569454,178.5996 29.132379,-10.28988 14.03165,7.48355 -14.967095,9.6217 -18.8425,-16.03617 11.091685,-4.27631 -1.737252,-5.21176 18.307963,-7.88445 7.483546,8.95353 8.953529,-9.08717 7.349911,9.2208 8.28536,-9.2208 8.01808,9.08717 6.94901,-9.08717 7.88445,14.03165 11.09169,4.94449 -0.93545,14.29892 -14.29892,-16.97161 -6.01356,17.10524 -11.49259,-17.37251 -3.0736,5.87993 10.82441,11.75985 5.34539,-17.23888 8.8199,17.23888 1.73725,-17.37251 15.90254,14.29892 -40.09043,-3.74178 -4.81085,6.68174 -6.81537,-6.94901 -5.879935,7.08264 -5.879927,-6.949 -6.013567,6.81537 -5.211754,-17.23888 -4.944486,16.97161 -6.548104,-17.37252 -8.018087,17.50615 -9.621702,-12.42803 11.759858,-4.67721 5.078122,16.97161 10.289876,-17.10525 13.229844,17.37252 6.280832,-6.5481 5.74629,6.41446 6.1472,-6.68173 6.01357,6.949 8.01808,-17.37251 9.08717,17.10524 3.74177,-17.10524 15.7689,16.83798 4.00905,-6.54811 -45.16855,-7.08264 -7.08264,-3.20723 -4.00905,3.34086 -4.810851,-3.60813 -30.201457,17.50615 -16.570708,-9.75534 17.773422,-7.48354 14.165286,17.37251 7.750816,-7.08264 6.147199,7.08264 6.414473,-7.08264 6.14719,6.94901 5.7463,-6.94901 6.81537,6.81537 6.5481,-16.97161 9.35444,16.97161 8.81989,-18.44159 h -6.01356 l 0.66817,-5.47903 -5.34539,1.20271 1.33635,-5.07811 -10.02261,-5.34539 -8.95353,8.81989 -8.41899,-9.08717 -8.285353,9.2208 -9.220798,-9.08716 -9.621702,8.95353 -7.617182,-9.2208 -7.884451,5.34539 -5.479026,-6.5481 5.34539,-6.81538 -5.34539,-6.1472 5.612661,-6.68173 -5.746294,-5.47903 5.746294,-5.74629 -5.746294,-6.28084 5.879927,-6.01356 -4.543581,-5.47903 3.34087,-2.672692 4.944486,5.211762 6.013564,-6.013571 4.944485,6.147201 7.349914,-6.013566 5.211754,5.879936 6.548104,-5.879936 5.479022,5.879936 6.81538,-5.879936 4.81085,5.746296 5.74629,-5.479027 5.61266,5.612667 6.41447,-6.013571 2.6727,7.082641 6.28083,2.40543 -6.01356,3.74177 5.74629,5.47903 -5.87993,3.74177 5.7463,6.01356 -5.34539,5.21176 5.61266,6.28083 -5.61266,4.54358 5.47902,5.87994 -5.87993,2.53906 0.26727,6.01356 -4.14268,-5.7463 -3.34087,9.2208 -8.81989,-8.95353 -8.68626,8.95353 -8.55262,-9.2208 -8.8199,9.08717 -7.884451,-8.68626 -10.022607,8.81989 -7.884451,-8.95353 -6.147199,4.14268 2.53906,-5.61266 -5.612659,-7.21628 5.345391,-6.01356 -5.479026,-5.61266 5.746294,-5.74629 -5.746294,-5.61266 5.479026,-5.34539 -5.479026,-5.7463 5.87993,-4.40995 3.474503,-6.280831 6.280835,6.280831 6.013564,-6.147196 6.013564,5.612656 5.746295,-5.47902 5.34539,5.61266 6.548101,-5.61266 5.87993,6.01356 6.81538,-6.147196 5.21175,5.612656 5.47903,-5.746291 4.54358,6.147201 7.75082,-4.00905 -3.34087,7.61719 5.61266,4.40994 -5.61266,3.0736 5.61266,6.41447 -5.61266,4.27631 5.74629,6.28084 -5.87993,4.40995 5.7463,6.949 -5.87993,3.47451 3.60814,8.15172 -5.07813,-3.60814 -3.0736,9.2208 -4.67721,-9.48807 -1.60362,9.08716 -3.60814,-9.08716 -3.0736,9.48807 -1.60361,-9.48807 -3.74178,9.08716 -3.4745,-9.2208 -8.28536,9.48807 -8.018084,-9.08716 -9.755336,9.08716 -6.68174,-9.2208 -11.492589,6.01357 1.870887,4.81085 -8.68626,1.60362 3.474505,3.60814 -17.105251,12.56166 4.409948,4.94449 39.55589,-12.16076 -4.142679,-5.07812 -38.620445,14.96709 9.888971,2.40542 99.156993,-4.00904 -35.68048,-13.49711 -8.55263,4.14268 30.60237,13.0962 10.15624,-10.42351 -17.63979,-6.81537 -29.26601,3.4745 -4.67722,-3.60813 -5.479025,3.60813 -4.276312,-3.4745 -42.629489,16.30344 22.584275,-16.30344 6.815373,17.50615 9.755335,-17.23888 2.806332,3.20723 2.27179,-3.74177 0.53454,4.00904 5.211755,-3.8754 4.677216,4.14267 8.8199,-4.27631 33.14142,17.50615 8.68626,-8.81989 -14.69983,-8.28535 1.87089,-5.21176 -5.34539,1.73725 0.66817,-5.21175 -5.47902,1.33634 -14.69983,-8.68625 -6.94901,8.95352 -7.75081,-9.2208 -9.488071,9.48807 -8.151719,-9.48807 -10.690781,9.35444 -6.414468,-9.48807 -6.1472,2.27179 5.345391,3.60814 4.944485,-6.01357 -0.801806,9.35444 -10.824416,-13.49711 5.612659,-6.68174 -5.211755,-6.01356 5.479023,-6.01357 -5.746294,-6.01356 5.746294,-5.3454 -5.879927,-6.14719 5.746294,-1.46998 -5.479026,-4.81086 7.082642,-6.28083 5.479026,5.7463 6.1472,-6.013571 5.078121,5.879931 6.414468,-5.879931 5.612659,5.879931 6.280831,-5.746296 5.7463,6.013566 6.5481,-5.87993 5.47903,5.61266 5.47902,-5.879931 5.21176,6.013571 7.88445,-5.479031 4.54358,6.013561 -5.61266,5.07812 6.01356,4.81086 -6.14719,3.60813 5.87993,6.1472 -6.01357,4.81085 6.01357,6.41447 -5.7463,4.00905 5.7463,6.81537 -5.7463,3.20723 4.67722,3.47451 -20.84703,7.48354"
         id="path949"
         inkscape:connector-curvature="0" />
      <path
         inkscape:connector-curvature="0"
         id="path947"
         d="m 45.569454,178.5996 29.132379,-10.28988 14.03165,7.48355 -14.967095,9.6217 -18.8425,-16.03617 11.091685,-4.27631 -1.737252,-5.21176 18.307963,-7.88445 7.483546,8.95353 8.953529,-9.08717 7.349911,9.2208 8.28536,-9.2208 8.01808,9.08717 6.94901,-9.08717 7.88445,14.03165 11.09169,4.94449 -0.93545,14.29892 -14.29892,-16.97161 -6.01356,17.10524 -11.49259,-17.37251 -3.0736,5.87993 10.82441,11.75985 5.34539,-17.23888 8.8199,17.23888 1.73725,-17.37251 15.90254,14.29892 -40.09043,-3.74178 -4.81085,6.68174 -6.81537,-6.94901 -5.879935,7.08264 -5.879927,-6.949 -6.013567,6.81537 -5.211754,-17.23888 -4.944486,16.97161 -6.548104,-17.37252 -8.018087,17.50615 -9.621702,-12.42803 11.759858,-4.67721 5.078122,16.97161 10.289876,-17.10525 13.229844,17.37252 6.280832,-6.5481 5.74629,6.41446 6.1472,-6.68173 6.01357,6.949 8.01808,-17.37251 9.08717,17.10524 3.74177,-17.10524 15.7689,16.83798 4.00905,-6.54811 -45.16855,-7.08264 -7.08264,-3.20723 -4.00905,3.34086 -4.810851,-3.60813 -30.201457,17.50615 -16.570708,-9.75534 17.773422,-7.48354 14.165286,17.37251 7.750816,-7.08264 6.147199,7.08264 6.414473,-7.08264 6.14719,6.94901 5.7463,-6.94901 6.81537,6.81537 6.5481,-16.97161 9.35444,16.97161 8.81989,-18.44159 h -6.01356 l 0.66817,-5.47903 -5.34539,1.20271 1.33635,-5.07811 -10.02261,-5.34539 -8.95353,8.81989 -8.41899,-9.08717 -8.285353,9.2208 -9.220798,-9.08716 -9.621702,8.95353 -7.617182,-9.2208 -7.884451,5.34539 -5.479026,-6.5481 5.34539,-6.81538 -5.34539,-6.1472 5.612661,-6.68173 -5.746294,-5.47903 5.746294,-5.74629 -5.746294,-6.28084 5.879927,-6.01356 -4.543581,-5.47903 3.34087,-2.672692 4.944486,5.211762 6.013564,-6.013571 4.944485,6.147201 7.349914,-6.013566 5.211754,5.879936 6.548104,-5.879936 5.479022,5.879936 6.81538,-5.879936 4.81085,5.746296 5.74629,-5.479027 5.61266,5.612667 6.41447,-6.013571 2.6727,7.082641 6.28083,2.40543 -6.01356,3.74177 5.74629,5.47903 -5.87993,3.74177 5.7463,6.01356 -5.34539,5.21176 5.61266,6.28083 -5.61266,4.54358 5.47902,5.87994 -5.87993,2.53906 0.26727,6.01356 -4.14268,-5.7463 -3.34087,9.2208 -8.81989,-8.95353 -8.68626,8.95353 -8.55262,-9.2208 -8.8199,9.08717 -7.884451,-8.68626 -10.022607,8.81989 -7.884451,-8.95353 -6.147199,4.14268 2.53906,-5.61266 -5.612659,-7.21628 5.345391,-6.01356 -5.479026,-5.61266 5.746294,-5.74629 -5.746294,-5.61266 5.479026,-5.34539 -5.479026,-5.7463 5.87993,-4.40995 3.474503,-6.280831 6.280835,6.280831 6.013564,-6.147196 6.013564,5.612656 5.746295,-5.47902 5.34539,5.61266 6.548101,-5.61266 5.87993,6.01356 6.81538,-6.147196 5.21175,5.612656 5.47903,-5.746291 4.54358,6.147201 7.75082,-4.00905 -3.34087,7.61719 5.61266,4.40994 -5.61266,3.0736 5.61266,6.41447 -5.61266,4.27631 5.74629,6.28084 -5.87993,4.40995 5.7463,6.949 -5.87993,3.47451 3.60814,8.15172 -5.07813,-3.60814 -3.0736,9.2208 -4.67721,-9.48807 -1.60362,9.08716 -3.60814,-9.08716 -3.0736,9.48807 -1.60361,-9.48807 -3.74178,9.08716 -3.4745,-9.2208 -8.28536,9.48807 -8.018084,-9.08716 -9.755336,9.08716 -6.68174,-9.2208 -11.492589,6.01357 1.870887,4.81085 -8.68626,1.60362 3.474505,3.60814 -17.105251,12.56166 4.409948,4.94449 39.55589,-12.16076 -4.142679,-5.07812 -38.620445,14.96709 9.888971,2.40542 99.156993,-4.00904 -35.68048,-13.49711 -8.55263,4.14268 30.60237,13.0962 10.15624,-10.42351 -17.63979,-6.81537 -29.26601,3.4745 -4.67722,-3.60813 -5.479025,3.60813 -4.276312,-3.4745 -42.629489,16.30344 22.584275,-16.30344 6.815373,17.50615 9.755335,-17.23888 2.806332,3.20723 2.27179,-3.74177 0.53454,4.00904 5.211755,-3.8754 4.677216,4.14267 8.8199,-4.27631 33.14142,17.50615 8.68626,-8.81989 -14.69983,-8.28535 1.87089,-5.21176 -5.34539,1.73725 0.66817,-5.21175 -5.47902,1.33634 -14.69983,-8.68625 -6.94901,8.95352 -7.75081,-9.2208 -9.488071,9.48807 -8.151719,-9.48807 -10.690781,9.35444 -6.414468,-9.48807 -6.1472,2.27179 5.345391,3.60814 4.944485,-6.01357 -0.801806,9.35444 -10.824416,-13.49711 5.612659,-6.68174 -5.211755,-6.01356 5.479023,-6.01357 -5.746294,-6.01356 5.746294,-5.3454 -5.879927,-6.14719 5.746294,-1.46998 -5.479026,-4.81086 7.082642,-6.28083 5.479026,5.7463 6.1472,-6.013571 5.078121,5.879931 6.414468,-5.879931 5.612659,5.879931 6.280831,-5.746296 5.7463,6.013566 6.5481,-5.87993 5.47903,5.61266 5.47902,-5.879931 5.21176,6.013571 7.88445,-5.479031 4.54358,6.013561 -5.61266,5.07812 6.01356,4.81086 -6.14719,3.60813 5.87993,6.1472 -6.01357,4.81085 6.01357,6.41447 -5.7463,4.00905 5.7463,6.81537 -5.7463,3.20723 4.67722,3.47451 -20.84703,7.48354"
         style="fill:none;stroke:#000000;stroke-width:1;stroke-linecap:round;stroke-linejoin:round;stroke-opacity:1;stroke-miterlimit:4;stroke-dasharray:none" />
    </g>
  </g>
</svg>
