<?xml version="1.0" encoding="UTF-8" standalone="no"?>
<!-- Created with Inkscape (http://www.inkscape.org/) -->

<svg
   xmlns:dc="http://purl.org/dc/elements/1.1/"
   xmlns:cc="http://creativecommons.org/ns#"
   xmlns:rdf="http://www.w3.org/1999/02/22-rdf-syntax-ns#"
   xmlns:svg="http://www.w3.org/2000/svg"
   xmlns="http://www.w3.org/2000/svg"
   xmlns:sodipodi="http://sodipodi.sourceforge.net/DTD/sodipodi-0.dtd"
   xmlns:inkscape="http://www.inkscape.org/namespaces/inkscape"
   width="210mm"
   height="297mm"
   viewBox="0 0 210 297"
   version="1.1"
   id="svg3072"
   sodipodi:docname="desktop_app_window.svg"
   inkscape:version="0.92.2 2405546, 2018-03-11">
  <defs
     id="defs3066">
    <filter
       height="1.0398571"
       y="-0.019928572"
       width="1.0171692"
       x="-0.0085846152"
       id="filter919"
       style="color-interpolation-filters:sRGB"
       inkscape:collect="always">
      <feGaussianBlur
         id="feGaussianBlur921"
         stdDeviation="0.49712131"
         inkscape:collect="always" />
    </filter>
  </defs>
  <sodipodi:namedview
     id="base"
     pagecolor="#ffffff"
     bordercolor="#666666"
     borderopacity="1.0"
     inkscape:pageopacity="0.0"
     inkscape:pageshadow="2"
     inkscape:zoom="2.8"
     inkscape:cx="97.897772"
     inkscape:cy="777.16435"
     inkscape:document-units="mm"
     inkscape:current-layer="layer1"
     showgrid="false"
     inkscape:window-width="1920"
     inkscape:window-height="1039"
     inkscape:window-x="1920"
     inkscape:window-y="0"
     inkscape:window-maximized="1"
     inkscape:object-nodes="false" />
  <metadata
     id="metadata3069">
    <rdf:RDF>
      <cc:Work
         rdf:about="">
        <dc:format>image/svg+xml</dc:format>
        <dc:type
           rdf:resource="http://purl.org/dc/dcmitype/StillImage" />
      </cc:Work>
    </rdf:RDF>
  </metadata>
  <g
     inkscape:label="Layer 1"
     inkscape:groupmode="layer"
     id="layer1">
    <path
       style="fill:none;stroke:#000000;stroke-width:0.3;stroke-linecap:round;stroke-linejoin:round;stroke-opacity:1;stroke-miterlimit:4;stroke-dasharray:none"
       d="m 5.4790252,77.638533 10.0226078,-8.886711 9.087163,8.886711 9.955791,-9.087162 1.069078,1.737252 -3.006783,-1.670437 -11.559407,9.153983 -13.4302934,-8.15172 -2.2717911,4.476763 6.9490075,3.875408 10.356694,-9.220798 10.557145,9.153983 2.405428,-1.737254 2.204974,1.804069 3.140416,-2.672694 -1.135896,-1.336347 0.534538,-1.06908 -1.937702,-4.075859 -1.002261,1.403165 5.879928,-1.469983 6.481286,1.202714 3.140417,-1.002263 3.474505,2.806332 -3.34087,6.080382 -1.870887,-1.670436 -1.336347,1.670436 -3.674956,-3.006783 1.603618,0.53454 -2.271792,2.472243 -1.069078,-1.536801 -1.069078,1.469983 -1.403165,-1.737251 -3.340869,-0.200454 0.200453,2.138156 2.605876,-9.220798 1.536801,1.403165 2.138156,-1.536801 2.739514,2.33861 -1.269532,1.403165 0.400905,1.5368 -2.204974,3.875408 -1.603616,-1.403165 -1.202714,1.403165 -2.806329,-2.405425 1.269529,2.472243 0.868627,-2.271792 1.403165,2.271792 1.135896,-1.403165 1.336347,1.469983 1.870887,-3.274052 -0.400905,-0.935445 0.334087,-1.269529 -1.202714,-1.202714 -1.336347,-2.539061 4.209495,1.737252 1.469982,-1.670434 1.870887,2.071338 4.276313,0.400905 -3.140417,2.271792 3.474503,2.338607 -1.469982,2.004523 -2.80633,-2.405428 -1.069078,2.472246 -1.670433,-1.536801 -1.002261,1.403165 -0.334089,-1.937705 -0.935442,1.937705 -2.204974,-1.870887 8.953529,2.004523 2.472242,-0.33409 -3.875407,-2.672693 3.808592,-0.734992 -3.274052,-1.5368 1.670434,-2.939966 -2.138156,1.870888 3.808589,1.403165 -3.474503,1.403164 3.541321,2.405428 -8.552624,1.069078 L 5.2117558,75.567195 33.67596,73.562675 8.953529,69.152727 5.6126599,71.62497 l 2.8731474,6.34765 10.6239637,-9.220798 9.822154,9.087165 4.944488,-3.073601 -28.5310225,-1.737252 28.5310225,-1.00226 -6.147199,-2.939965 -11.626225,8.819896 -3.340869,-8.953532 -7.4835468,7.684 1.8040691,1.336347 10.3566947,-9.15398 9.153981,9.087165 8.084902,-2.271792 1.00226,2.338607 2.004523,-1.670434 1.870887,1.536801 0.734992,-3.474506 -0.801809,-5.612659 1.737251,2.271792 -2.539061,-0.06682 -1.804069,-2.271792 -0.467722,1.469983 -1.002261,-1.403165 -0.935442,2.33861 -8.886712,6.815373 -11.559407,-8.953532 -7.7508161,1.603619 8.4189901,7.216277 10.891233,-9.153983 5.479024,9.354434 2.605879,-4.944486 -4.543581,-4.409948 -10.423512,9.287619 -7.817634,-9.287619 -5.6794772,6.214018 0.2672694,9.621702 -0.4677217,10.356694 0.334087,8.352172 -0.200452,7.34992 0.2672694,5.27857 -0.334087,0.13363 1.403165,0.26727 14.7666411,-0.4009 17.907059,0.0668 12.294399,0.13363 4.677214,-0.13363 0.601358,-0.40091 -0.267269,0.86863 0.200451,-10.08943 -0.200451,-11.024867 0.267269,-8.084902 -0.200454,-6.1472 0.133636,-3.073598 -4.877668,-9.020347 -7.349913,1.336347 -13.831197,-1.336347 -13.296659,9.15398 -9.0203467,-8.619442"
       id="path3628"
       inkscape:connector-curvature="0" />
    <path
       style="fill:none;stroke:#000000;stroke-width:0.3;stroke-linecap:round;stroke-linejoin:round;stroke-opacity:1;stroke-miterlimit:4;stroke-dasharray:none"
       d="m 48.664434,71.537202 1.748139,1.795386 1.27567,1.937128"
       id="path3649"
       inkscape:connector-curvature="0" />
    <path
       style="fill:none;stroke:#000000;stroke-width:0.3;stroke-linecap:round;stroke-linejoin:round;stroke-opacity:1;stroke-miterlimit:4;stroke-dasharray:none"
       d="m 51.546503,71.442706 -2.220611,2.645833 -0.708705,1.181177"
       id="path3651"
       inkscape:connector-curvature="0" />
    <path
       style="fill:none;stroke:#000000;stroke-width:0.3;stroke-linecap:round;stroke-linejoin:round;stroke-opacity:1;stroke-miterlimit:4;stroke-dasharray:none"
       d="m 41.624627,71.678941 0.04725,0.992188 -0.09449,1.181176 0.141743,1.322917 2.173361,-0.04725 1.46466,0.09449 -0.141743,-2.173365 0.04725,-1.322916 z"
       id="path3653"
       inkscape:connector-curvature="0" />
    <path
       style="fill:none;stroke:#000000;stroke-width:0.3;stroke-linecap:round;stroke-linejoin:round;stroke-opacity:1;stroke-miterlimit:4;stroke-dasharray:none"
       d="m 34.553785,73.576929 1.937129,-0.188987 h 2.173364 l 0.472469,0.188987"
       id="path3655"
       inkscape:connector-curvature="0" />
    <g
       id="g4017"
       transform="translate(39.309524,10.205357)">
      <path
         transform="matrix(0.16869043,0,0,0.1566152,-37.194118,61.272562)"
         style="fill:none;stroke:#000000;stroke-width:1.84569132;stroke-linecap:round;stroke-linejoin:round;stroke-miterlimit:4;stroke-dasharray:none;stroke-opacity:1;filter:url(#filter919)"
         d="M 46.237628,176.72871 92.475255,146.52725 80.982666,176.99598 56.39387,162.8307 l 30.735995,-22.45065 -11.49259,-1.87088 4.543581,-5.87993 21.648834,44.90128 46.23763,-50.24667 -32.33962,49.44486 -37.952269,-39.82316 3.741775,-3.20723 -20.312486,43.29766 -8.552624,-8.55263 36.348656,-24.58879 1.069078,33.14142 -21.381563,-29.39965 0.801809,28.86511 -14.967093,-10.69078 0.801809,10.95805 -5.612661,-3.74177 117.064049,-21.38157 -44.09947,-11.75985 23.25245,-15.50164 -7.48355,-4.81085 2.40543,-1.87088 22.98518,59.6011 12.56167,-12.56167 4.81085,12.56167 2.40542,-2.6727 1.60362,2.93997 -76.70635,-18.70887 52.65209,-14.43255 -31.27053,-13.89802 13.89801,-8.81989 -4.27631,-2.6727 -4.81085,57.99749 -16.57071,-30.736 -8.55263,30.46873 -9.888967,-21.11429 -5.612659,21.38156 -22.717911,-33.14142 25.390604,8.28536 9.087163,25.3906 6.41447,-24.05426 39.82316,-20.84702 -2.93997,44.09947 -28.8651,-32.87415 49.9794,13.36347 -12.82894,20.04522 -30.73599,-42.49585 30.20145,4.54358 16.57071,37.685 -0.53454,-16.83798 -58.79929,-10.15624 13.89801,26.19241 22.45064,-45.43582"
         id="path917"
         inkscape:connector-curvature="0" />
      <path
         inkscape:connector-curvature="0"
         id="path896"
         d="m -29.394273,88.950964 7.799846,-4.730007 -1.93869,4.771866 -4.147895,-2.218498 5.184868,-3.516113 -1.93869,-0.293009 0.766459,-0.920886 3.651951,7.032223 7.799846,-7.869392 -5.455385,7.743816 -6.402184,-6.236912 0.631202,-0.502301 -3.426522,6.781072 -1.442746,-1.339472 6.13167,-3.850978 0.180343,5.19045 -3.606865,-4.604432 0.135258,4.520715 -2.524806,-1.674339 0.135258,1.716197 -0.946802,-0.586018 19.7475845,-3.348679 -7.4391585,-1.841771 3.922466,-2.427792 -1.262404,-0.753453 0.405774,-0.293008 3.8773794,9.334438 2.1190335,-1.967348 0.8115444,1.967348 0.4057713,-0.418585 0.2705154,0.460444 -12.939627,-2.930094 8.881903,-2.260356 -5.275039,-2.176641 2.344462,-1.381329 -0.721373,-0.418586 -0.811544,9.083289 -2.795321,-4.813725 -1.442746,4.771866 -1.668174,-3.306818 -0.946802,3.348677 -3.832294,-5.19045 4.283151,1.297613 1.532918,3.976554 1.08206,-3.767263 6.717786,-3.26496 -0.495945,6.906647 -4.869266,-5.148591 8.4310461,2.092922 -2.1641191,3.139386 -5.184868,-6.655496 5.094696,0.711594 2.7953201,5.902044 -0.090172,-2.637084 -9.9188771,-1.590621 2.344461,4.102129 3.787208,-7.11594"
         style="fill:none;stroke:#000000;stroke-width:0.30000001;stroke-linecap:round;stroke-linejoin:round;stroke-miterlimit:4;stroke-dasharray:none;stroke-opacity:1" />
    </g>
  </g>
</svg>
