<?xml version="1.0" encoding="UTF-8" standalone="no"?>
<!-- Created with Inkscape (http://www.inkscape.org/) -->

<svg
   xmlns:dc="http://purl.org/dc/elements/1.1/"
   xmlns:cc="http://creativecommons.org/ns#"
   xmlns:rdf="http://www.w3.org/1999/02/22-rdf-syntax-ns#"
   xmlns:svg="http://www.w3.org/2000/svg"
   xmlns="http://www.w3.org/2000/svg"
   xmlns:sodipodi="http://sodipodi.sourceforge.net/DTD/sodipodi-0.dtd"
   xmlns:inkscape="http://www.inkscape.org/namespaces/inkscape"
   width="210mm"
   height="297mm"
   viewBox="0 0 744.09448819 1052.3622047"
   id="svg2"
   version="1.1"
   inkscape:version="0.91 r13725"
   sodipodi:docname="os.svg">
  <defs
     id="defs4" />
  <sodipodi:namedview
     id="base"
     pagecolor="#ffffff"
     bordercolor="#666666"
     borderopacity="1.0"
     inkscape:pageopacity="0.0"
     inkscape:pageshadow="2"
     inkscape:zoom="1"
     inkscape:cx="215.68213"
     inkscape:cy="767.56122"
     inkscape:document-units="px"
     inkscape:current-layer="layer1"
     showgrid="false"
     inkscape:window-width="1680"
     inkscape:window-height="1028"
     inkscape:window-x="1280"
     inkscape:window-y="0"
     inkscape:window-maximized="1" />
  <metadata
     id="metadata7">
    <rdf:RDF>
      <cc:Work
         rdf:about="">
        <dc:format>image/svg+xml</dc:format>
        <dc:type
           rdf:resource="http://purl.org/dc/dcmitype/StillImage" />
        <dc:title></dc:title>
      </cc:Work>
    </rdf:RDF>
  </metadata>
  <g
     inkscape:label="Layer 1"
     inkscape:groupmode="layer"
     id="layer1">
    <path
       style="fill:none;fill-rule:evenodd;stroke:#ff0000;stroke-width:1px;stroke-linecap:butt;stroke-linejoin:miter;stroke-opacity:1"
       d="m 140,283.3622 c 0,0 43.06338,-13.0945 72.05887,-31.43324 C 241.05437,233.59021 287.23082,195.50264 308,168.3622 328.76918,141.22176 338.9948,101.36741 338.9948,101.36741 385.38429,85.785761 359.57896,87.607315 430,71.362205 c 0,0 7.89316,10.228607 0,23 -7.89316,12.771395 -60,29.999995 -60,29.999995 2.53403,20.23423 -5.48682,38.50736 -11.42462,49.41942"
       id="path4268"
       inkscape:connector-curvature="0"
       sodipodi:nodetypes="czzcczcc" />
    <path
       style="fill:none;fill-rule:evenodd;stroke:#ff0000;stroke-width:1px;stroke-linecap:butt;stroke-linejoin:miter;stroke-opacity:1"
       d="m 246,248.8622 c 0,0 62.71513,-23.9914 76,-38.25 13.28487,-14.2586 13,-32.25 13,-32.25 2.08529,-2.78039 28.92354,-4.20546 43.5,-7.25 14.57646,-3.04454 82.49541,-54.75306 82.5,-54.75 37.71606,-24.469409 92.11569,-32.660893 128.5,-26.499995 l 29,5.25 c 8.42002,12.690225 7.47128,15.142015 4.5,18.249995 l -120,20 -112.25,138 c 9.15454,9.17217 18.2613,18.40705 17,41.25 62.17709,-4.56865 66.95602,0.27224 92.25,1.75 0,0 11.39897,-4.36884 30.75,-8 19.35103,-3.63116 44.05908,10.68101 50.75,19.5 -18.70662,10.92581 -38.127,18.24034 -61.5,20.5 -6.23597,6.2921 -13.18082,10.45753 -20.75,12.75 -28.9927,-1.70519 -70.75199,-0.22686 -84.25,1.25 -87.52687,38.12826 -172.85028,26.29941 -208,27 -35.14972,0.70059 -69,23 -69,23"
       id="path4270"
       inkscape:connector-curvature="0"
       sodipodi:nodetypes="czczcccccccczcccczc" />
    <path
       style="fill:none;fill-rule:evenodd;stroke:#ff0000;stroke-width:1px;stroke-linecap:butt;stroke-linejoin:miter;stroke-opacity:1"
       d="m 355.67471,188.27772 29.87006,-18.80635"
       id="path4272"
       inkscape:connector-curvature="0"
       sodipodi:nodetypes="cc" />
    <path
       style="fill:none;fill-rule:evenodd;stroke:#ff0000;stroke-width:1px;stroke-linecap:butt;stroke-linejoin:miter;stroke-opacity:1"
       d="m 458.9123,191.81325 c 0,0 66.40731,7.25764 77.78175,15.2028 11.37444,7.94517 47.44842,59.86288 42.95673,60.10407 -16.94523,13.19327 -47.97582,-1.35172 -55.68466,-25.10229 -0.61717,-2.67498 -9.19806,2.08466 -25.51904,0.80797 -29.77412,-2.32905 -75.25088,-9.63072 -75.24367,-9.6468"
       id="path4274"
       inkscape:connector-curvature="0"
       sodipodi:nodetypes="czccsc" />
    <path
       style="fill:none;fill-rule:evenodd;stroke:#ff0000;stroke-width:1px;stroke-linecap:butt;stroke-linejoin:miter;stroke-opacity:1"
       d="m 495.68185,242.72494 8.48529,37.47666 c -13.27669,5.20997 -25.5367,-4.7351 -32.88047,-14.49569 l -11.66726,-15.9099 -27.57717,-14.14214"
       id="path4276"
       inkscape:connector-curvature="0"
       sodipodi:nodetypes="ccccc" />
    <path
       style="fill:none;fill-rule:evenodd;stroke:#ff0000;stroke-width:1px;stroke-linecap:butt;stroke-linejoin:miter;stroke-opacity:1"
       d="m 583.36309,442.12905 18.73833,-8.48528 c 11.11528,0.73671 13.7439,5.02385 11.66726,9.89949 l -21.2132,11.31371 c 1.07512,9.60598 2.17692,19.1052 1.41422,36.06245 -9.30999,6.26068 -19.05839,12.79537 -43.13352,28.28427 -5.57049,16.60974 -8.35897,29.27649 -10.6066,51.6188 l 12.72792,62.57895 c -0.61627,2.1509 0.58589,9.52576 -2.74562,13.71792 -7.68379,9.66877 -12.85548,14.91276 -19.17469,21.28386 l -5.65685,-5.3033 15.55635,-25.10229 -11.31371,-58.68986 c -7.12176,-3.35052 -8.65887,-1.11639 -11.31371,0 l -14.14213,50.20458 c -1.50619,4.50413 -1.60336,8.31081 -1.23524,11.87744 l 11.84184,22.06368 -10.96016,4.94975 c 0.38131,-0.0539 -8.33487,-13.25539 -12.53519,-27.40905 -1.00496,-3.3864 -0.10243,-9.19345 0.51437,-11.12826 5.3459,-16.76928 19.30376,-67.34023 18.73834,-67.5287 -0.59399,-11.43629 -3.24992,-24.93452 -5.65686,-38.18377 -4.07845,-0.67974 -17.72362,25.70234 -19.09188,38.89087 -1.36826,13.18853 2.12132,36.06245 2.12132,36.06245 -3.25016,4.40719 -6.5814,3.15975 -9.8995,2.82842 -4.95666,-25.97801 -5.21601,-64.64915 12.72793,-86.62058 11.47676,-13.08207 26.87005,-15.9099 26.87005,-15.9099 l 2.12132,-7.77817 c -19.45753,-59.54163 52.96259,-72.74187 37.81927,-23.09215 -2.22244,7.28662 -8.75245,11.77569 -15.19185,22.03149 l 0,6.0104 15.55635,2.82843 20.5061,-10.96015 7.07106,-8.83884 z"
       id="path4278"
       inkscape:connector-curvature="0"
       sodipodi:nodetypes="ccccccccscccccccccsscczcccccscccccc" />
    <path
       style="fill:none;fill-rule:evenodd;stroke:#ff0000;stroke-width:1px;stroke-linecap:butt;stroke-linejoin:miter;stroke-opacity:1"
       d="m 587.60574,437.88641 c 2.82842,-36.06244 -3.53554,-296.27774 -3.53554,-296.27774 l -9.89949,-19.79899"
       id="path4280"
       inkscape:connector-curvature="0" />
    <path
       style="fill:none;fill-rule:evenodd;stroke:#ff0000;stroke-width:1px;stroke-linecap:butt;stroke-linejoin:miter;stroke-opacity:1"
       d="m 581.24177,137.36603 4.24264,-15.55635"
       id="path4282"
       inkscape:connector-curvature="0" />
    <path
       style="fill:none;fill-rule:evenodd;stroke:#ff0000;stroke-width:1px;stroke-linecap:butt;stroke-linejoin:miter;stroke-opacity:1"
       d="M 470.93312,572.94381 461.74073,253.33154"
       id="path4284"
       inkscape:connector-curvature="0" />
    <path
       style="fill:none;fill-rule:evenodd;stroke:#ff0000;stroke-width:1px;stroke-linecap:butt;stroke-linejoin:miter;stroke-opacity:1"
       d="m 463.5085,256.51352 c -15.68843,1.86013 -26.59636,-0.4026 -41.36575,-4.24264 l -0.70711,-7.42462 15.9099,-6.01041"
       id="path4305"
       inkscape:connector-curvature="0"
       sodipodi:nodetypes="cccc" />
    <path
       style="fill:none;fill-rule:evenodd;stroke:#000000;stroke-width:6;stroke-linecap:square;stroke-linejoin:bevel;stroke-miterlimit:4;stroke-dasharray:none;stroke-opacity:1"
       d="m 139.83036,404.47561 56.215,-140.89102 133.11284,118.61717 58.50421,-212.14093 65.55014,21.58453 -7.73528,-63.47172 86.47414,-2.70711 30.69848,-35.222975 30.1127,25.741375 16.72056,-19.959521 13.76714,14.388461 -40.05141,-19.256102 -19.88478,29.984022 -47.33326,-25.284274 -8.90317,34.476664 -36.22666,-18.08821 5.32107,50.86512 -62.59672,-9.81371 20.2561,62.8504 -74.69964,-28.20217 12.27602,186.65474 -103.9447,-132.75929 -22.09709,144.24978 -101.11626,-99.17173"
       id="path4307"
       inkscape:connector-curvature="0"
       sodipodi:nodetypes="cccccccccccccccccccccccc" />
    <path
       style="fill:none;fill-rule:evenodd;stroke:#000000;stroke-width:6;stroke-linecap:square;stroke-linejoin:bevel;stroke-miterlimit:4;stroke-dasharray:none;stroke-opacity:1"
       d="m 136.47161,325.45643 52.3259,62.93251 36.06245,-143.01235 126.39533,133.4664 53.9169,-80.25661 L 299.28294,227.16859 272.76644,386.79795 169.70563,274.19119 135.0574,382.73208"
       id="path4309"
       inkscape:connector-curvature="0"
       sodipodi:nodetypes="ccccccccc" />
    <path
       style="fill:none;fill-rule:evenodd;stroke:#000000;stroke-width:6;stroke-linecap:square;stroke-linejoin:bevel;stroke-miterlimit:4;stroke-dasharray:none;stroke-opacity:1"
       d="m 156.97771,401.11686 85.20636,-167.23075 36.59278,-1.06066 9.36916,-39.24443 41.89608,-0.7071 -4.24264,-50.20459 43.31029,-15.9099 -29.87526,-22.98097 77.07464,-1.59099 15.73312,-22.804196 -21.74353,-1.06066 -18.03123,35.708886 -41.18896,-14.849236 16.08668,46.138716 -51.08847,14.67247 -2.12132,54.44722 -51.26524,2.12132 -7.6014,26.33972 -28.28427,1.59099 -92.45421,148.13888"
       id="path4311"
       inkscape:connector-curvature="0"
       sodipodi:nodetypes="cccccccccccccccccccc" />
    <path
       style="fill:none;fill-rule:evenodd;stroke:#000000;stroke-width:6;stroke-linecap:square;stroke-linejoin:bevel;stroke-miterlimit:4;stroke-dasharray:none;stroke-opacity:1"
       d="m 250.5,250.6122 165.98589,107.53536 32.52692,-46.14392 31.42335,45.22971 37.10534,-45.83327 30.92336,27.55204 15.7028,-23.37006 12.83147,12.34925 -34.75178,-19.02387 -14.03858,35.64088 -27.57717,-29.34494 -31.3198,41.77997 -34.58758,-44.41905 -32.38046,52.49011 -122.22592,-129.00409 112.53353,31.17336 -20.10965,-88.19901 69.75357,25.87006 18.63478,-86.70269 28.11638,29.4877 4.18198,-45.89392 28.36637,27.00914 20.07044,-37.805085 38.28732,27.469935 18.84188,-25.534275 10.0245,21.520185 8.92094,-16.445438"
       id="path4313"
       inkscape:connector-curvature="0"
       sodipodi:nodetypes="ccccccccccccccccccccccccccc" />
  </g>
</svg>
