<?xml version="1.0" encoding="UTF-8" standalone="no"?>
<!-- Created with Inkscape (http://www.inkscape.org/) -->

<svg
   xmlns:dc="http://purl.org/dc/elements/1.1/"
   xmlns:cc="http://creativecommons.org/ns#"
   xmlns:rdf="http://www.w3.org/1999/02/22-rdf-syntax-ns#"
   xmlns:svg="http://www.w3.org/2000/svg"
   xmlns="http://www.w3.org/2000/svg"
   xmlns:sodipodi="http://sodipodi.sourceforge.net/DTD/sodipodi-0.dtd"
   xmlns:inkscape="http://www.inkscape.org/namespaces/inkscape"
   width="210mm"
   height="297mm"
   viewBox="0 0 210 297"
   version="1.1"
   id="svg8"
   inkscape:version="0.92.2 2405546, 2018-03-11"
   sodipodi:docname="process_abstraction_box.svg">
  <defs
     id="defs2">
    <filter
       inkscape:collect="always"
       style="color-interpolation-filters:sRGB"
       id="filter890"
       x="-0.010369851"
       width="1.0207397"
       y="-0.014238267"
       height="1.0284765">
      <feGaussianBlur
         inkscape:collect="always"
         stdDeviation="2.3048899"
         id="feGaussianBlur892" />
    </filter>
    <filter
       height="1.0595359"
       y="-0.029767958"
       width="1.3715865"
       x="-0.18579327"
       id="filter3058"
       style="color-interpolation-filters:sRGB"
       inkscape:collect="always">
      <feGaussianBlur
         id="feGaussianBlur3060"
         stdDeviation="1.2728349"
         inkscape:collect="always" />
    </filter>
  </defs>
  <sodipodi:namedview
     id="base"
     pagecolor="#ffffff"
     bordercolor="#666666"
     borderopacity="1.0"
     inkscape:pageopacity="0.0"
     inkscape:pageshadow="2"
     inkscape:zoom="0.40016971"
     inkscape:cx="-251.58372"
     inkscape:cy="693.64401"
     inkscape:document-units="mm"
     inkscape:current-layer="layer1"
     showgrid="false"
     inkscape:window-width="1920"
     inkscape:window-height="1039"
     inkscape:window-x="0"
     inkscape:window-y="0"
     inkscape:window-maximized="1"
     inkscape:snap-nodes="false" />
  <metadata
     id="metadata5">
    <rdf:RDF>
      <cc:Work
         rdf:about="">
        <dc:format>image/svg+xml</dc:format>
        <dc:type
           rdf:resource="http://purl.org/dc/dcmitype/StillImage" />
        <dc:title></dc:title>
      </cc:Work>
    </rdf:RDF>
  </metadata>
  <g
     inkscape:label="Layer 1"
     inkscape:groupmode="layer"
     id="layer1">
    <path
       inkscape:connector-curvature="0"
       id="path880"
       d="m -384.30416,161.88576 -10.2855,-36.46682 6.0778,-16.36331 -2.33762,-21.973596 9.818,-19.168457 3.27266,-25.246258 14.49321,-15.895793 4.67524,-16.363316 14.49321,-10.28551241 9.35048,-18.70093259 21.50608,-9.817988 12.62311,-16.363318 22.44111,-3.740184 14.96076,-12.623131 14.96075,0.935049 16.36331,-9.817992 21.03855,3.740187 16.36332,-5.610281 12.62312,6.077805 14.96075,-3.740187 11.22056,8.882943 18.70093,-0.467524 10.28551,10.753037 18.23341,0.467522 7.9479,12.62313 15.428268,3.272663 6.077804,12.62313 15.895791,5.610279 -2.337615,6.0778032 15.42827,6.0778029 12.623127,-5.6102797 13.558176,6.077803 11.22056,-6.5453262 10.7530358,5.6102797 9.3504661,-5.6102797 9.3504661,5.1427565 7.947896,-5.1427565 7.947897,5.1427565 8.882941,-5.6102797 8.415419,6.0778029 10.285513,-5.6102797 12.155607,7.0128497 12.155606,-6.5453265 7.947896,5.1427565 7.01285,-5.1427565 5.610276,5.6102797 7.48038,-6.0778029 7.01285,5.6102797 6.0778,-5.6102797 12.15561,9.81798939 -5.61028,12.15560541 6.0778,8.882943 -6.0778,10.753036 6.0778,10.753037 -6.0778,7.480371 6.0778,10.753037 -5.61028,9.817989 5.61028,9.817989 -6.54533,12.155606 6.54533,9.350469 -6.0778,9.81799 6.0778,8.88294 -6.0778,9.35047 5.61028,10.75303 -5.14276,10.75304 5.61028,8.88294 -5.61028,9.35047 5.61028,12.1556 -7.48037,10.28551 7.48037,7.9479 -6.0778,11.68809 6.0778,10.75303 -6.0778,9.81799 6.0778,8.41542 -6.54533,7.9479 4.67523,5.14275 1.8701,-5.14275 -12.15561,4.2077 -5.61028,-5.14275 -8.88294,6.0778 -7.48037,-5.14275 -7.947899,5.14275 -9.817989,-6.0778 -6.545326,6.0778 -7.947898,-5.61028 -5.610278,5.14276 -8.41542,-5.14276 -7.012849,5.61028 -8.41542,-5.61028 -6.077804,5.61028 -7.012848,-5.61028 -7.01285,5.14276 -8.882943,-5.14276 -6.0778031,5.61028 -6.077803,-5.14275 -7.0128496,5.14275 -7.4803733,-5.61028 -7.947896,5.61028 -9.81799,-5.14275 -8.882943,5.61028 -8.882941,-6.07781 -10.753037,4.20771 -1.870093,-2.80514 -3.272663,5.14276 h 7.01285 l -14.493222,5.61028 -2.337617,10.28551 -12.155607,0.93506 -4.207708,11.22056 -11.68809,0.93503 -4.67523,8.41542 -13.55817,1.40258 -7.9479,9.35046 -10.75304,-1.8701 -6.54532,7.01286 -8.88295,-2.33762 -3.74018,5.61027 -10.75304,-2.33762 -7.94789,6.54535 -13.09066,-5.61028 -9.81799,6.07779 -9.81798,-5.61027 -12.62313,4.20769 -11.68809,-7.48035 -14.02569,2.80514 -9.35047,-7.9479 -12.62314,0.46752 -4.2077,-7.01286 -10.28551,1.40258 -4.67524,-8.88294 h -10.75304 l -4.2077,-9.35048 -13.09065,-1.40255 -4.67524,-11.6881 h -10.28552 l -4.2077,-14.0257 -11.68807,-3.27266 -1.40258,-12.1556 -11.22056,-5.14276 -1.40258,-12.62313 -10.28549,-5.61028 -1.87011,-16.83084 -9.81799,-9.81799 0.93506,-16.83084 -8.88296,-12.1556 5.61028,-12.15561 -7.94788,-11.22056 5.14274,-9.81799 -4.67522,-14.96074 7.9479,-20.571027 -0.46754,-21.973595 14.02572,-19.635981 3.74017,-21.973594 14.0257,-9.350466 7.01286,-20.1035023 17.76587,-9.8179897 9.818,-16.83084 22.44111,-7.480371 16.36331,-15.895794 20.57104,-1.402569 10.75303,-9.817989 20.1035,1.870094 20.10351,-8.41542 14.96074,6.545326 14.0257,-5.142756 13.55818,7.947895 16.36331,-2.805139 13.09065,10.753034 15.42827,-0.467521 12.62313,13.090652 14.025703,0.935045 8.41542,13.090655 14.960745,4.675232 v 8.882943 l 14.960746,5.1427562 -2.337618,6.5453262 8.415419,-6.077803 15.42827,6.077803 13.558176,-6.077803 11.22056,6.077803 9.3504658,-6.5453262 10.7530361,5.6102797 7.4803731,-6.0778029 9.817989,7.0128494 7.480373,-6.077803 7.947895,5.1427565 9.350468,-5.1427565 11.220558,5.6102797 10.285513,-5.6102797 11.688082,5.6102797 8.41542,-6.0778029 6.545325,6.0778029 6.545331,-5.6102797 7.48037,5.6102797 6.0778,-6.0778029 7.48038,5.1427565 10.75303,-4.6752333 -4.67523,8.41541959 5.61028,12.15560601 -6.0778,11.220559 6.0778,9.350466 -7.01285,9.817989 7.48037,10.285513 -6.0778,9.350467 5.61028,9.817989 -6.54533,9.350465 7.01285,11.688082 -6.54532,11.220563 6.0778,7.48037 -5.61028,9.81799 5.14276,11.22056 -6.07781,9.35046 6.07781,8.41543 -5.14276,10.28551 5.14276,11.22056 -5.14276,9.81799 5.61028,10.28551 -5.61028,9.81799 6.0778,11.22056 -7.01285,10.28551 7.01285,11.22056 -6.54532,8.88294 6.0778,3.74019 -6.0778,6.54532 -6.07781,-5.61027 -7.01285,6.54532 -7.48037,-5.14275 -8.41542,6.0778 -7.947895,-7.01285 -7.480374,6.54533 -8.415419,-6.07781 -7.01285,5.61028 -7.947896,-5.61028 -5.61028,5.61028 -8.41542,-5.14275 -6.545325,4.67523 -8.41542,-5.61028 -6.077802,6.0778 -7.947897,-5.61028 -7.480373,4.67523 -7.4803728,-4.67523 -5.1427563,6.07781 -5.6102796,-5.61028 -9.3504663,5.61028 -7.947896,-5.61028 -8.415419,4.67523 -10.285513,-5.61028 -7.947898,5.61028 -7.480371,-5.61028 -12.155606,8.88294 0.467524,7.48038 -12.623131,1.40256 -2.805139,11.6881 -12.155606,1.87007 -5.610279,9.818 -10.75304,0.46752 -8.41542,9.35048 -11.22056,-1.40258 -6.54532,8.88293 -9.35047,-3.74017 -5.14275,7.48038 -10.28552,-3.27269 -4.67523,7.01286 -10.28551,-4.20769 -13.55818,6.54531 -8.88294,-5.14276 -11.68808,5.14276 -8.88295,-6.54531 -15.89579,3.74018 -11.22056,-8.41542 -12.62313,1.87007 -5.61028,-7.94787 -11.68807,0.93504 -4.67524,-7.9479 -11.68808,1.40256 -3.27266,-9.81798 -11.22058,1.40256 -4.67521,-11.22056 -12.62314,-1.87007 -3.27266,-10.75305 -10.75304,-2.33762 -3.7402,-14.49322 -11.22055,-3.27266 -1.40256,-12.62313 -10.75304,-5.14276 -1.8701,-14.0257 -9.81797,-8.88294 -0.46755,-17.29836 -8.88293,-10.75304 1.8701,-16.83084 -6.54534,-8.41542 4.67524,-14.49322 -6.0778,-12.62313 7.01284,-20.571023"
       style="fill:none;stroke:#000000;stroke-width:1;stroke-linecap:round;stroke-linejoin:round;stroke-opacity:1;stroke-miterlimit:4;stroke-dasharray:none;filter:url(#filter890)" />
    <path
       style="fill:none;stroke:#000000;stroke-width:1;stroke-linecap:round;stroke-linejoin:round;stroke-opacity:1;stroke-miterlimit:4;stroke-dasharray:none"
       d="m -384.30416,161.88576 -10.2855,-36.46682 6.0778,-16.36331 -2.33762,-21.973596 9.818,-19.168457 3.27266,-25.246258 14.49321,-15.895793 4.67524,-16.363316 14.49321,-10.28551241 9.35048,-18.70093259 21.50608,-9.817988 12.62311,-16.363318 22.44111,-3.740184 14.96076,-12.623131 14.96075,0.935049 16.36331,-9.817992 21.03855,3.740187 16.36332,-5.610281 12.62312,6.077805 14.96075,-3.740187 11.22056,8.882943 18.70093,-0.467524 10.28551,10.753037 18.23341,0.467522 7.9479,12.62313 15.428268,3.272663 6.077804,12.62313 15.895791,5.610279 -2.337615,6.0778032 15.42827,6.0778029 12.623127,-5.6102797 13.558176,6.077803 11.22056,-6.5453262 10.7530358,5.6102797 9.3504661,-5.6102797 9.3504661,5.1427565 7.947896,-5.1427565 7.947897,5.1427565 8.882941,-5.6102797 8.415419,6.0778029 10.285513,-5.6102797 12.155607,7.0128497 12.155606,-6.5453265 7.947896,5.1427565 7.01285,-5.1427565 5.610276,5.6102797 7.48038,-6.0778029 7.01285,5.6102797 6.0778,-5.6102797 12.15561,9.81798939 -5.61028,12.15560541 6.0778,8.882943 -6.0778,10.753036 6.0778,10.753037 -6.0778,7.480371 6.0778,10.753037 -5.61028,9.817989 5.61028,9.817989 -6.54533,12.155606 6.54533,9.350469 -6.0778,9.81799 6.0778,8.88294 -6.0778,9.35047 5.61028,10.75303 -5.14276,10.75304 5.61028,8.88294 -5.61028,9.35047 5.61028,12.1556 -7.48037,10.28551 7.48037,7.9479 -6.0778,11.68809 6.0778,10.75303 -6.0778,9.81799 6.0778,8.41542 -6.54533,7.9479 4.67523,5.14275 1.8701,-5.14275 -12.15561,4.2077 -5.61028,-5.14275 -8.88294,6.0778 -7.48037,-5.14275 -7.947899,5.14275 -9.817989,-6.0778 -6.545326,6.0778 -7.947898,-5.61028 -5.610278,5.14276 -8.41542,-5.14276 -7.012849,5.61028 -8.41542,-5.61028 -6.077804,5.61028 -7.012848,-5.61028 -7.01285,5.14276 -8.882943,-5.14276 -6.0778031,5.61028 -6.077803,-5.14275 -7.0128496,5.14275 -7.4803733,-5.61028 -7.947896,5.61028 -9.81799,-5.14275 -8.882943,5.61028 -8.882941,-6.07781 -10.753037,4.20771 -1.870093,-2.80514 -3.272663,5.14276 h 7.01285 l -14.493222,5.61028 -2.337617,10.28551 -12.155607,0.93506 -4.207708,11.22056 -11.68809,0.93503 -4.67523,8.41542 -13.55817,1.40258 -7.9479,9.35046 -10.75304,-1.8701 -6.54532,7.01286 -8.88295,-2.33762 -3.74018,5.61027 -10.75304,-2.33762 -7.94789,6.54535 -13.09066,-5.61028 -9.81799,6.07779 -9.81798,-5.61027 -12.62313,4.20769 -11.68809,-7.48035 -14.02569,2.80514 -9.35047,-7.9479 -12.62314,0.46752 -4.2077,-7.01286 -10.28551,1.40258 -4.67524,-8.88294 h -10.75304 l -4.2077,-9.35048 -13.09065,-1.40255 -4.67524,-11.6881 h -10.28552 l -4.2077,-14.0257 -11.68807,-3.27266 -1.40258,-12.1556 -11.22056,-5.14276 -1.40258,-12.62313 -10.28549,-5.61028 -1.87011,-16.83084 -9.81799,-9.81799 0.93506,-16.83084 -8.88296,-12.1556 5.61028,-12.15561 -7.94788,-11.22056 5.14274,-9.81799 -4.67522,-14.96074 7.9479,-20.571027 -0.46754,-21.973595 14.02572,-19.635981 3.74017,-21.973594 14.0257,-9.350466 7.01286,-20.1035023 17.76587,-9.8179897 9.818,-16.83084 22.44111,-7.480371 16.36331,-15.895794 20.57104,-1.402569 10.75303,-9.817989 20.1035,1.870094 20.10351,-8.41542 14.96074,6.545326 14.0257,-5.142756 13.55818,7.947895 16.36331,-2.805139 13.09065,10.753034 15.42827,-0.467521 12.62313,13.090652 14.025703,0.935045 8.41542,13.090655 14.960745,4.675232 v 8.882943 l 14.960746,5.1427562 -2.337618,6.5453262 8.415419,-6.077803 15.42827,6.077803 13.558176,-6.077803 11.22056,6.077803 9.3504658,-6.5453262 10.7530361,5.6102797 7.4803731,-6.0778029 9.817989,7.0128494 7.480373,-6.077803 7.947895,5.1427565 9.350468,-5.1427565 11.220558,5.6102797 10.285513,-5.6102797 11.688082,5.6102797 8.41542,-6.0778029 6.545325,6.0778029 6.545331,-5.6102797 7.48037,5.6102797 6.0778,-6.0778029 7.48038,5.1427565 10.75303,-4.6752333 -4.67523,8.41541959 5.61028,12.15560601 -6.0778,11.220559 6.0778,9.350466 -7.01285,9.817989 7.48037,10.285513 -6.0778,9.350467 5.61028,9.817989 -6.54533,9.350465 7.01285,11.688082 -6.54532,11.220563 6.0778,7.48037 -5.61028,9.81799 5.14276,11.22056 -6.07781,9.35046 6.07781,8.41543 -5.14276,10.28551 5.14276,11.22056 -5.14276,9.81799 5.61028,10.28551 -5.61028,9.81799 6.0778,11.22056 -7.01285,10.28551 7.01285,11.22056 -6.54532,8.88294 6.0778,3.74019 -6.0778,6.54532 -6.07781,-5.61027 -7.01285,6.54532 -7.48037,-5.14275 -8.41542,6.0778 -7.947895,-7.01285 -7.480374,6.54533 -8.415419,-6.07781 -7.01285,5.61028 -7.947896,-5.61028 -5.61028,5.61028 -8.41542,-5.14275 -6.545325,4.67523 -8.41542,-5.61028 -6.077802,6.0778 -7.947897,-5.61028 -7.480373,4.67523 -7.4803728,-4.67523 -5.1427563,6.07781 -5.6102796,-5.61028 -9.3504663,5.61028 -7.947896,-5.61028 -8.415419,4.67523 -10.285513,-5.61028 -7.947898,5.61028 -7.480371,-5.61028 -12.155606,8.88294 0.467524,7.48038 -12.623131,1.40256 -2.805139,11.6881 -12.155606,1.87007 -5.610279,9.818 -10.75304,0.46752 -8.41542,9.35048 -11.22056,-1.40258 -6.54532,8.88293 -9.35047,-3.74017 -5.14275,7.48038 -10.28552,-3.27269 -4.67523,7.01286 -10.28551,-4.20769 -13.55818,6.54531 -8.88294,-5.14276 -11.68808,5.14276 -8.88295,-6.54531 -15.89579,3.74018 -11.22056,-8.41542 -12.62313,1.87007 -5.61028,-7.94787 -11.68807,0.93504 -4.67524,-7.9479 -11.68808,1.40256 -3.27266,-9.81798 -11.22058,1.40256 -4.67521,-11.22056 -12.62314,-1.87007 -3.27266,-10.75305 -10.75304,-2.33762 -3.7402,-14.49322 -11.22055,-3.27266 -1.40256,-12.62313 -10.75304,-5.14276 -1.8701,-14.0257 -9.81797,-8.88294 -0.46755,-17.29836 -8.88293,-10.75304 1.8701,-16.83084 -6.54534,-8.41542 4.67524,-14.49322 -6.0778,-12.62313 7.01284,-20.571023"
       id="path878"
       inkscape:connector-curvature="0" />
    <g
       id="g1068">
      <path
         transform="matrix(3.1527411,0,0,2.6187995,422.50364,-10.09117)"
         id="path3030"
         style="fill:none;stroke:#000000;stroke-width:0.69604083;stroke-linecap:round;stroke-linejoin:round;stroke-miterlimit:4;stroke-dasharray:none;stroke-opacity:1;filter:url(#filter3058)"
         d="m -215.2066,52.509302 6.04761,1.32292 -3.59076,5.29166 3.77975,6.80358 -8.50446,2.83482 0.37797,7.37053 -7.37052,7.9375 6.80355,6.61459 -0.37796,7.37053 3.40177,0.37798 -9.82736,-16.81994 13.79611,-13.22917 2.45684,-6.61458 -4.15773,-13.41816 -11.15029,-8.12649 6.42559,-20.22172 9.07143,-9.44941 -10.58334,-13.0401703 9.07143,6.61458 -0.94493,15.1190503 -13.60716,11.90625 7.18156,19.27678 8.69344,5.66964 -14.93004,21.92262 m 9.26042,19.46578 -9.07145,-6.04762 3.59079,-9.44941 -1.13392,-9.82738 8.31545,-1.5119 -1.13392,-8.50447 5.29167,-4.34672 -7.18154,-5.10268 1.51189,-5.85863 -7.18154,-0.94494 2.64584,-5.48066 -6.04764,-2.07887 4.72472,-4.91369 -4.15774,-4.34672 6.2366,-1.7009 -1.32292,-5.66964 7.18156,-0.37798 -1.88989,-7.18154 5.10267,-0.56697 -5.10267,-6.6145803 2.45684,-5.66964 -7.37052,-1.70089995 0.94493,-3.21279005 3.59079,1.13393 -1.51191,5.66964 6.80358,3.96875 -4.53573,3.5907703 3.21281,6.80357 -6.04763,0.56697 1.32291,6.61458 -6.99256,-0.18899 3.02381,5.66965 -5.66965,3.59077 4.91371,3.40178 -3.4018,5.10268 6.04764,0.94494 -1.32292,5.85863 7.37052,0.94495 -3.02381,5.48065 5.48065,4.15774 -6.42559,5.48065 0.56698,7.9375 -9.82739,6.04762 4.53572,8.12649 -0.56697,8.50446 3.96875,3.2128 1.88989,-3.59077 -10.01639,-7.18155 4.53573,-5.85863 -2.64583,-7.18155 8.69344,-3.02381"
         inkscape:connector-curvature="0" />
      <path
         d="m -255.98704,127.42016 19.06655,3.46447 -11.32074,13.85779 11.91657,17.81721 -26.81236,7.42382 1.19165,19.30194 -23.23734,20.78672 21.44983,17.32229 -1.19161,19.30194 10.7249,0.98986 -30.98312,-44.04805 43.49556,-34.64455 7.74577,-17.32226 -13.10824,-35.13946 -35.15398,-21.281657 20.25823,-52.956625 28.59986,-24.74611 -33.36652,-34.149591 28.59987,17.32225864 -2.97912,39.59376136 -42.89986,31.18008 22.6416,50.482023 27.40816,14.84765 -47.07054,57.41094 m 29.19571,50.97698 -28.59994,-15.8375 11.32084,-24.74611 -3.57496,-25.73594 26.21645,-3.95937 -3.57495,-22.2715 16.68326,-11.38318 -22.64153,-13.3629 4.7666,-15.34258 -22.64154,-2.47461 8.34166,-14.352747 -19.06665,-5.44414 14.89581,-12.867971 -13.10827,-11.383188 19.66239,-4.454315 -4.17083,-14.847651 22.64159,-0.989854 -5.95832,-18.807013 16.08739,-1.484781 -16.08739,-17.3222594 7.74578,-14.8476503 -23.23734,-4.4543153 2.97912,-8.413653 11.32083,2.969535 -4.76666,14.8476496 21.44992,10.393361 -14.29998,9.4035074 10.12916,17.817185 -19.06662,1.484781 4.1708,17.322259 -22.04573,-0.494927 9.53329,14.847677 -17.87494,9.403506 15.49166,8.908577 -10.725,13.362897 19.06664,2.47461 -4.17082,15.34257 23.23734,2.47464 -9.53329,14.35272 17.27906,10.88829 -20.25821,14.35273 1.78754,20.78671 -30.98322,15.83751 14.29996,21.28165 -1.78752,22.27146 12.51244,8.41369 5.95834,-9.40351 -31.57909,-18.80704 14.29998,-15.34257 -8.34161,-18.80704 27.40817,-7.91875"
         style="fill:none;stroke:#000000;stroke-width:2;stroke-linecap:round;stroke-linejoin:round;stroke-miterlimit:4;stroke-dasharray:none;stroke-opacity:1"
         id="path3016"
         inkscape:connector-curvature="0" />
    </g>
  </g>
</svg>
