<?xml version="1.0" encoding="UTF-8" standalone="no"?>
<!-- Created with Inkscape (http://www.inkscape.org/) -->

<svg
   xmlns:dc="http://purl.org/dc/elements/1.1/"
   xmlns:cc="http://creativecommons.org/ns#"
   xmlns:rdf="http://www.w3.org/1999/02/22-rdf-syntax-ns#"
   xmlns:svg="http://www.w3.org/2000/svg"
   xmlns="http://www.w3.org/2000/svg"
   xmlns:sodipodi="http://sodipodi.sourceforge.net/DTD/sodipodi-0.dtd"
   xmlns:inkscape="http://www.inkscape.org/namespaces/inkscape"
   width="210mm"
   height="297mm"
   viewBox="0 0 210 297"
   version="1.1"
   id="svg2301"
   inkscape:version="0.92.2 2405546, 2018-03-11"
   sodipodi:docname="process_abstraction.svg">
  <defs
     id="defs2295">
    <filter
       inkscape:collect="always"
       style="color-interpolation-filters:sRGB"
       id="filter3058"
       x="-0.18579327"
       width="1.3715865"
       y="-0.029767958"
       height="1.0595359">
      <feGaussianBlur
         inkscape:collect="always"
         stdDeviation="1.2728349"
         id="feGaussianBlur3060" />
    </filter>
    <filter
       inkscape:collect="always"
       style="color-interpolation-filters:sRGB"
       id="filter3062"
       x="-0.023982192"
       width="1.0479644"
       y="-0.024017835"
       height="1.0480357">
      <feGaussianBlur
         inkscape:collect="always"
         stdDeviation="1.2728349"
         id="feGaussianBlur3064" />
    </filter>
  </defs>
  <sodipodi:namedview
     id="base"
     pagecolor="#ffffff"
     bordercolor="#666666"
     borderopacity="1.0"
     inkscape:pageopacity="0.0"
     inkscape:pageshadow="2"
     inkscape:zoom="1.4183587"
     inkscape:cx="363.29997"
     inkscape:cy="556.24055"
     inkscape:document-units="mm"
     inkscape:current-layer="layer1"
     showgrid="false"
     inkscape:window-width="1920"
     inkscape:window-height="1039"
     inkscape:window-x="1920"
     inkscape:window-y="0"
     inkscape:window-maximized="1"
     inkscape:object-nodes="false" />
  <metadata
     id="metadata2298">
    <rdf:RDF>
      <cc:Work
         rdf:about="">
        <dc:format>image/svg+xml</dc:format>
        <dc:type
           rdf:resource="http://purl.org/dc/dcmitype/StillImage" />
        <dc:title></dc:title>
      </cc:Work>
    </rdf:RDF>
  </metadata>
  <g
     inkscape:label="Layer 1"
     inkscape:groupmode="layer"
     id="layer1">
    <path
       d="m 72.193465,156.39285 6.04761,1.32292 -3.59076,5.29166 3.77975,6.80358 -8.50447,2.83482 0.37798,7.37053 -7.37052,7.9375 6.80355,6.61459 -0.37796,7.37053 3.40177,0.37798 -9.82736,-16.81994 13.79611,-13.22917 2.45684,-6.61458 -4.15774,-13.41816 -11.15028,-8.12649 6.42559,-20.22172 9.07143,-9.44941 -10.58334,-13.04017 9.07143,6.61458 -0.94493,15.11905 -13.60716,11.90625 7.18156,19.27678 8.69344,5.66964 -14.93004,21.92262 m 9.26042,19.46578 -9.07145,-6.04762 3.59079,-9.44941 -1.13392,-9.82738 8.31545,-1.5119 -1.13392,-8.50447 5.29167,-4.34672 -7.18154,-5.10268 1.51189,-5.85863 -7.18154,-0.94494 2.64584,-5.48066 -6.04764,-2.07887 4.72472,-4.91369 -4.15774,-4.34672 6.2366,-1.7009 -1.32292,-5.66964 7.18156,-0.37798 -1.88989,-7.18154 5.10267,-0.56697 -5.10267,-6.61458 2.45684,-5.66964 -7.37052,-1.7009 0.94493,-3.21279 3.59079,1.13393 -1.51191,5.66964 6.80358,3.96875 -4.53573,3.59077 3.21281,6.80357 -6.04763,0.56697 1.32291,6.61458 -6.99256,-0.18899 3.02381,5.66965 -5.66965,3.59077 4.91371,3.40178 -3.4018,5.10268 6.04764,0.94494 -1.32292,5.85863 7.37052,0.94495 -3.02381,5.48065 5.48065,4.15774 -6.42559,5.48065 0.56698,7.9375 -9.82739,6.04762 4.53572,8.12649 -0.56697,8.50446 3.96875,3.2128 1.88989,-3.59077 -10.01639,-7.18155 4.53573,-5.85863 -2.64583,-7.18155 8.69344,-3.02381"
       style="fill:none;stroke:#000000;stroke-width:0.8;stroke-linecap:round;stroke-linejoin:round;stroke-miterlimit:4;stroke-dasharray:none;stroke-opacity:1;filter:url(#filter3058)"
       id="path3030" />
    <path
       inkscape:connector-curvature="0"
       id="path3032"
       d="m 14.498518,173.63663 -6.9925999,-20.03274 4.5357999,-15.875 2.0788,-14.17411 7.5596,-7.18155 11.1502,-15.68601 10.2054,-2.834811 8.1265,-6.80357 10.0164,0.75595 8.1265,-3.77976 5.8586,3.02381 10.0163,-1.70089 4.9137,4.7247 8.6935,-0.18899 4.346702,6.04762 9.0714,2.456841 3.7798,8.12649 7.3705,4.7247 1.8899,8.88244 6.2366,7.9375 -0.189,10.01637 3.5908,11.15029 -3.4018,6.04762 0.945,10.01637 -5.2917,5.85863 v 6.61458 l -5.6697,3.77977 -2.0788,7.74851 -8.1265,3.77976 -3.0238,6.4256 -6.9926,0.94494 -1.700902,4.34671 -7.1815,-0.18898 -4.1578,4.53572 -8.1264,-1.7009 -5.2917,3.77976 -5.8586,-3.02379 -6.2366,2.45684 -5.2917,-4.15774 -7.1816,1.5119 -6.4255,-6.61458 h -7.1816 l -3.9688,-6.80357 -7.1815,-2.64584 -2.0789,-7.37053 -6.4256,-4.34673 -0.7559,-7.18155 -5.6697,-6.04762 -0.1889,-16.25297 -1.1339999,-16.81994 6.2365999,-10.77232 6.0477,-15.30804 11.7172,-7.9375 7.9375,-8.504451 9.6384,-1.32292 10.0164,-5.48066 8.6934,2.07888 7.3706,-2.45685 8.1265,4.15774 7.7485,-1.13393 5.1026,5.85863 7.370602,0.56696 5.4806,7.181541 8.3155,4.53571 2.0789,8.12649 7.5595,6.23661 0.189,9.4494 5.1027,10.96131 -1.8899,8.12649 2.0789,11.1503 -4.3468,4.15774 -0.378,10.20535 -5.4806,3.40179 -0.9449,7.18155 -5.4807,2.45684 -4.1577,8.50447 -8.6935,2.64583 -1.8899,4.91369 -5.669602,-0.18899 -3.5908,4.34674 -7.5595,-0.56697 -6.0476,3.77975 -6.2366,-1.88986 -5.2917,2.64583 -6.0476,-3.4018 -6.4256,1.7009 -6.4256,-5.66965 -6.6146,1.32292 -6.2366,-7.74851 -5.8586,-0.37798 -3.2128,-7.37053 -6.4256,-3.2128 -2.0789,-8.31548 -6.4256,-4.53571 v -9.82738 l -4.7246999,-7.37054 2.8347999,-9.07143 -2.6457999,-6.99256 3.9687999,-5.85863 -0.945,-7.9375 5.2917,-5.10268 0.3779,-7.37053 6.6146,-3.77976 3.5908,-8.50447 7.9375,-2.64583 2.8348,-5.858621 9.6384,-1.32292 8.5045,-6.42559 9.2604,1.70089 7.9375,-3.02381 6.6146,3.02381 8.8824,-0.75595 6.2366,4.7247"
       style="fill:none;stroke:#000000;stroke-width:0.7;stroke-linecap:round;stroke-linejoin:round;stroke-opacity:1;stroke-miterlimit:4;stroke-dasharray:none;filter:url(#filter3062)" />
    <path
       id="path3016"
       style="fill:none;stroke:#000000;stroke-width:0.8;stroke-linecap:round;stroke-linejoin:round;stroke-miterlimit:4;stroke-dasharray:none;stroke-opacity:1"
       d="m 72.193465,156.39285 6.04761,1.32292 -3.59076,5.29166 3.77975,6.80358 -8.50447,2.83482 0.37798,7.37053 -7.37052,7.9375 6.80355,6.61459 -0.37796,7.37053 3.40177,0.37798 -9.82736,-16.81994 13.79611,-13.22917 2.45684,-6.61458 -4.15774,-13.41816 -11.15028,-8.12649 6.42559,-20.22172 9.07143,-9.44941 -10.58334,-13.04017 9.07143,6.61458 -0.94493,15.11905 -13.60716,11.90625 7.18156,19.27678 8.69344,5.66964 -14.93004,21.92262 m 9.26042,19.46578 -9.07145,-6.04762 3.59079,-9.44941 -1.13392,-9.82738 8.31545,-1.5119 -1.13392,-8.50447 5.29167,-4.34672 -7.18154,-5.10268 1.51189,-5.85863 -7.18154,-0.94494 2.64584,-5.48066 -6.04764,-2.07887 4.72472,-4.91369 -4.15774,-4.34672 6.2366,-1.7009 -1.32292,-5.66964 7.18156,-0.37798 -1.88989,-7.18154 5.10267,-0.56697 -5.10267,-6.61458 2.45684,-5.66964 -7.37052,-1.7009 0.94493,-3.21279 3.59079,1.13393 -1.51191,5.66964 6.80358,3.96875 -4.53573,3.59077 3.21281,6.80357 -6.04763,0.56697 1.32291,6.61458 -6.99256,-0.18899 3.02381,5.66965 -5.66965,3.59077 4.91371,3.40178 -3.4018,5.10268 6.04764,0.94494 -1.32292,5.85863 7.37052,0.94495 -3.02381,5.48065 5.48065,4.15774 -6.42559,5.48065 0.56698,7.9375 -9.82739,6.04762 4.53572,8.12649 -0.56697,8.50446 3.96875,3.2128 1.88989,-3.59077 -10.01639,-7.18155 4.53573,-5.85863 -2.64583,-7.18155 8.69344,-3.02381" />
    <path
       style="fill:none;stroke:#000000;stroke-width:0.7;stroke-linecap:round;stroke-linejoin:round;stroke-opacity:1;stroke-miterlimit:4;stroke-dasharray:none"
       d="m 14.498518,173.63663 -6.9925999,-20.03274 4.5357999,-15.875 2.0788,-14.17411 7.5596,-7.18155 11.1502,-15.68601 10.2054,-2.834811 8.1265,-6.80357 10.0164,0.75595 8.1265,-3.77976 5.8586,3.02381 10.0163,-1.70089 4.9137,4.7247 8.6935,-0.18899 4.346702,6.04762 9.0714,2.456841 3.7798,8.12649 7.3705,4.7247 1.8899,8.88244 6.2366,7.9375 -0.189,10.01637 3.5908,11.15029 -3.4018,6.04762 0.945,10.01637 -5.2917,5.85863 v 6.61458 l -5.6697,3.77977 -2.0788,7.74851 -8.1265,3.77976 -3.0238,6.4256 -6.9926,0.94494 -1.700902,4.34671 -7.1815,-0.18898 -4.1578,4.53572 -8.1264,-1.7009 -5.2917,3.77976 -5.8586,-3.02379 -6.2366,2.45684 -5.2917,-4.15774 -7.1816,1.5119 -6.4255,-6.61458 h -7.1816 l -3.9688,-6.80357 -7.1815,-2.64584 -2.0789,-7.37053 -6.4256,-4.34673 -0.7559,-7.18155 -5.6697,-6.04762 -0.1889,-16.25297 -1.1339999,-16.81994 6.2365999,-10.77232 6.0477,-15.30804 11.7172,-7.9375 7.9375,-8.504451 9.6384,-1.32292 10.0164,-5.48066 8.6934,2.07888 7.3706,-2.45685 8.1265,4.15774 7.7485,-1.13393 5.1026,5.85863 7.370602,0.56696 5.4806,7.181541 8.3155,4.53571 2.0789,8.12649 7.5595,6.23661 0.189,9.4494 5.1027,10.96131 -1.8899,8.12649 2.0789,11.1503 -4.3468,4.15774 -0.378,10.20535 -5.4806,3.40179 -0.9449,7.18155 -5.4807,2.45684 -4.1577,8.50447 -8.6935,2.64583 -1.8899,4.91369 -5.669602,-0.18899 -3.5908,4.34674 -7.5595,-0.56697 -6.0476,3.77975 -6.2366,-1.88986 -5.2917,2.64583 -6.0476,-3.4018 -6.4256,1.7009 -6.4256,-5.66965 -6.6146,1.32292 -6.2366,-7.74851 -5.8586,-0.37798 -3.2128,-7.37053 -6.4256,-3.2128 -2.0789,-8.31548 -6.4256,-4.53571 v -9.82738 l -4.7246999,-7.37054 2.8347999,-9.07143 -2.6457999,-6.99256 3.9687999,-5.85863 -0.945,-7.9375 5.2917,-5.10268 0.3779,-7.37053 6.6146,-3.77976 3.5908,-8.50447 7.9375,-2.64583 2.8348,-5.858621 9.6384,-1.32292 8.5045,-6.42559 9.2604,1.70089 7.9375,-3.02381 6.6146,3.02381 8.8824,-0.75595 6.2366,4.7247"
       id="path3018"
       inkscape:connector-curvature="0" />
  </g>
</svg>
