<?xml version="1.0" encoding="UTF-8" standalone="no"?>
<!-- Created with Inkscape (http://www.inkscape.org/) -->

<svg
   xmlns:dc="http://purl.org/dc/elements/1.1/"
   xmlns:cc="http://creativecommons.org/ns#"
   xmlns:rdf="http://www.w3.org/1999/02/22-rdf-syntax-ns#"
   xmlns:svg="http://www.w3.org/2000/svg"
   xmlns="http://www.w3.org/2000/svg"
   xmlns:sodipodi="http://sodipodi.sourceforge.net/DTD/sodipodi-0.dtd"
   xmlns:inkscape="http://www.inkscape.org/namespaces/inkscape"
   width="132.73378mm"
   height="109.40754mm"
   viewBox="0 0 132.73378 109.40754"
   version="1.1"
   id="svg8"
   inkscape:version="0.92.4 5da689c313, 2019-01-14"
   sodipodi:docname="desktop.svg">
  <defs
     id="defs2">
    <filter
       inkscape:collect="always"
       style="color-interpolation-filters:sRGB"
       id="filter1105"
       x="-0.037931927"
       width="1.075864"
       y="-0.016505513"
       height="1.033011">
      <feGaussianBlur
         inkscape:collect="always"
         stdDeviation="0.59116533"
         id="feGaussianBlur1107" />
    </filter>
    <filter
       inkscape:collect="always"
       style="color-interpolation-filters:sRGB"
       id="filter1109"
       x="-0.017935509"
       width="1.035871"
       y="-0.019925091"
       height="1.0398502">
      <feGaussianBlur
         inkscape:collect="always"
         stdDeviation="0.59116533"
         id="feGaussianBlur1111" />
    </filter>
    <filter
       inkscape:collect="always"
       style="color-interpolation-filters:sRGB"
       id="filter1113"
       x="-0.013997071"
       width="1.0279942"
       y="-0.091529608"
       height="1.1830592">
      <feGaussianBlur
         inkscape:collect="always"
         stdDeviation="0.59116533"
         id="feGaussianBlur1115" />
    </filter>
  </defs>
  <sodipodi:namedview
     id="base"
     pagecolor="#ffffff"
     bordercolor="#666666"
     borderopacity="1.0"
     inkscape:pageopacity="0.0"
     inkscape:pageshadow="2"
     inkscape:zoom="0.80530071"
     inkscape:cx="67.793558"
     inkscape:cy="191.19985"
     inkscape:document-units="mm"
     inkscape:current-layer="layer1"
     showgrid="false"
     inkscape:window-width="1920"
     inkscape:window-height="1039"
     inkscape:window-x="0"
     inkscape:window-y="0"
     inkscape:window-maximized="1"
     inkscape:object-nodes="false"
     fit-margin-top="0"
     fit-margin-left="0"
     fit-margin-right="0"
     fit-margin-bottom="0" />
  <metadata
     id="metadata5">
    <rdf:RDF>
      <cc:Work
         rdf:about="">
        <dc:format>image/svg+xml</dc:format>
        <dc:type
           rdf:resource="http://purl.org/dc/dcmitype/StillImage" />
        <dc:title></dc:title>
      </cc:Work>
    </rdf:RDF>
  </metadata>
  <g
     inkscape:label="Layer 1"
     inkscape:groupmode="layer"
     id="layer1"
     transform="translate(-16.469958,-84.284797)">
    <path
       inkscape:connector-curvature="0"
       id="path1099"
       d="m 18.237238,168.75853 18.353398,-10.45447 15.449378,13.12617 2.904019,-2.90402 -36.474474,-34.49974 22.883667,-17.7726 13.474647,17.30795 -12.429199,8.13126 12.545359,12.54536 -14.868575,17.07563 -21.72206,-18.81804 13.474648,-14.86858 -1.51009,-20.90893 -11.964558,7.20196 36.474475,21.14126 -15.56554,11.96455 -5.575716,14.40394 -15.217058,-9.29286 14.403933,-16.37867 3.252502,7.08581 2.671696,-6.04036 16.146343,15.56554 -8.944377,8.82822 -11.383753,-13.47465 -16.610987,-0.23232 12.893842,-14.05545 -12.777681,-13.93929 16.494826,-13.01001 20.21197,22.65135 -15.56554,14.98473 14.752415,16.84331 1.045448,-5.34339 -18.701882,-18.3534 -17.888755,18.12108 3.13634,6.27268 33.338134,-22.65135 -16.610986,-32.75733 -3.833304,19.97965 -16.494827,6.38884 15.565541,11.8484 -14.636255,15.79786 7.085806,1.16161 28.807865,-19.86349 -13.242324,-13.01 13.358484,-20.21197 -7.434286,-9.1767 7.434286,-15.449384 -8.595894,-7.666609 -8.247415,11.15143 -12.080716,-11.03527 -8.015092,8.131254 9.525181,13.706969 2.787859,-2.55554 3.252501,2.90402 3.368662,-3.02018 3.600982,2.78786 3.368661,-2.78786 2.904019,3.48482 8.131252,-5.80803 -7.201966,-4.414112 7.201966,-9.757502 L 52.62082,86.168237 42.166352,97.087347 35.661351,85.703594 27.297777,97.31967 18.58572,88.723773 21.489739,86.052077 33.221975,97.31967 41.353226,85.935917 54.827873,98.945921 43.44412,108.23878 l -3.717145,-3.2525 -2.904019,3.48482 -3.368661,-3.2525 -3.368662,3.13634 -3.136339,-3.02018 -8.828217,6.38884 7.550448,3.36866 -7.666609,11.8484 15.217059,9.40902 11.383753,-19.63116 10.222145,9.64134 -13.126164,18.12107 13.242324,14.17161 -12.545359,12.77769 -4.762592,-12.89385 -7.550449,12.66153 -11.732235,-11.61608 16.146345,-13.01 3.368661,6.15652 16.959469,-16.49483 -14.984735,-20.09581 -21.6059,20.44429 12.313038,4.64643 -12.080717,6.96965 16.030184,5.22723 5.808038,-7.55045 14.752415,-3.71714 -36.590637,-23.81295 7.085806,-7.55045 -7.318127,-5.9242 7.201966,-5.575719 -7.550449,-7.550449 6.272681,-5.459552 11.499915,10.686787 8.363572,-10.686787 10.91911,10.802947 -6.969643,4.646433 7.318126,7.66661 -7.318126,4.41411 6.969643,9.98982 -15.100895,12.77768 -7.666612,-20.56045 -13.939288,23.46447 17.888756,32.06037 18.934202,-21.14126 -21.605901,-33.91894 -15.333218,15.91403 12.545361,7.43428 -12.4292,15.21706 13.706968,16.37867 1.742411,-14.98474 -15.333219,-10.91911 25.323044,-29.15635 11.151431,5.11107 -17.888754,14.28778 -9.873665,-19.28269 -9.176699,-1.62625 7.550449,-1.97473 -7.318127,-1.39393 7.898931,-2.32321 -7.898931,-2.20706 7.78277,-2.78786 -7.78277,-2.09089 7.318127,-1.27777 -7.201966,-2.207052 12.66152,-12.080718 9.29286,10.686787 8.712057,-10.802947 6.040358,4.530269 -9.29286,6.388841 -7.085803,-11.383753 -8.015094,11.03527 -10.686788,-10.105985 -1.742411,9.060537 7.78277,6.272681 -7.550449,3.8333 8.131253,2.6717 5.343395,-3.48482 3.600982,3.02018 2.555536,-2.78786 1.161609,2.6717 2.439376,-2.78786 3.949464,3.02018 0.696966,-3.36866 8.479734,6.27268 -6.388841,1.27777 6.737324,1.97473 -8.479735,1.74241 -7.782771,19.63117 16.146343,-29.04019 -14.984735,-21.025096 -21.6059,14.868576 9.292861,70.16109 -9.525182,-6.38884 36.706796,-8.24741 -14.403932,-10.10599"
       style="fill:none;stroke:#000000;stroke-width:1;stroke-linecap:round;stroke-linejoin:round;stroke-miterlimit:4;stroke-dasharray:none;stroke-opacity:1;filter:url(#filter1105)" />
    <path
       inkscape:connector-curvature="0"
       id="path1101"
       d="m 77.130737,171.43023 26.136173,-11.38376 17.19179,11.15144 -33.918943,-9.1767 -2.207054,9.40902 -4.181787,-4.87875 29.853314,-4.87876 2.09089,9.87367 4.53027,-5.22724 2.0909,5.22724 0.81312,-2.20706 -15.79786,2.20706 -20.560455,-7.43429 -4.530267,4.99491 2.671696,2.32322 8.363575,-10.33831 2.904019,10.22215 1.74241,-11.2676 2.904019,11.2676 4.994913,-19.16653 3.02018,4.64643 2.43937,-4.41411 3.13634,4.7626 2.78786,-5.3434 3.02018,4.87875 2.78786,-4.76259 2.6717,4.87875 2.20705,-4.99491 3.36866,5.22723 2.55554,-5.11107 3.13634,4.76259 0.5808,-6.38884 4.06563,-1.74241 -4.53027,-3.13634 4.76259,-3.48482 -4.76259,-3.48483 4.64643,-3.71714 -4.53027,-3.60098 4.41411,-4.41411 -4.29795,-4.41411 4.18179,-3.8333 -4.29795,-3.36867 4.53027,-4.53027 -4.29795,-2.32321 4.06563,-5.11107 -2.20706,-2.55554 -4.53027,5.22723 -5.80803,-4.99491 -5.11108,4.64643 -5.45955,-4.64643 -4.87875,4.53027 -5.69188,-4.53027 -4.994912,4.53027 -7.782769,-4.64643 -6.15652,4.76259 -5.691876,-4.76259 -3.600984,4.53027 -4.64643,-4.41411 -4.181787,4.76259 -6.737324,-3.94946 3.484825,8.71205 -4.53027,6.85349 4.181787,6.04036 -4.181787,5.22723 4.414107,5.45956 -4.530267,5.57571 4.530267,4.76259 -4.414107,5.11107 5.459555,2.0909 1.161608,5.34339 4.297948,-4.87875 3.600981,4.76259 3.368662,-4.53027 3.484824,4.87875 4.181785,-5.11107 3.949467,4.76259 3.368662,-4.99491 9.292855,19.63117 11.2676,-7.78277 3.13634,7.78277 2.67169,-3.02018 -3.60098,-3.71715 -6.15652,6.50501 -2.32321,-10.33831 -7.318132,10.22214 -7.550449,-10.3383 -3.484821,10.45447 -5.575716,-5.80804 -3.252501,6.27268 -1.277769,-1.51009 6.737324,-6.73733 5.459555,8.0151 2.439377,-11.15144 1.85857,11.15144 3.368662,-19.28269 2.6717,19.16653 2.55554,-10.80296 2.32321,10.80296 2.20705,-9.98983 2.32322,9.87367 5.69188,-5.57572 1.39393,5.80804 -5.3434,-8.47974 -7.78277,8.36358 -9.873664,-11.49992 8.944374,-0.23232 -9.060534,-1.62625 9.292864,-1.04545 -8.131256,-4.53027 -3.600985,4.53027 -3.949464,-4.76259 -3.600984,4.99491 -3.833305,-4.76259 -2.671696,4.64643 -3.717145,-4.53027 -3.600984,4.53027 -2.904016,-4.29794 -5.111076,3.71714 -2.671696,-2.43938 4.297947,-3.94946 -4.297947,-5.22724 4.065627,-4.64643 -4.297947,-6.27268 4.64643,-4.53026 -4.64643,-5.11108 4.414107,-5.34339 -4.297947,-7.89893 4.64643,-3.13634 1.045445,-7.20197 6.156521,5.22723 4.414107,-4.99491 5.575718,4.99491 4.76259,-5.22723 5.808038,4.99491 5.111073,-4.76259 8.015095,4.53027 5.11107,-4.64643 5.11107,4.99491 5.11107,-4.64643 5.69188,4.76259 4.76259,-4.76259 7.20197,5.9242 -3.94947,4.29795 4.18179,3.94946 -4.41411,4.06563 4.41411,3.60098 -4.29795,3.60099 4.29795,4.87875 -4.18179,2.78786 4.41411,4.76259 -4.64643,3.13634 4.41411,3.48482 -4.18179,2.32322 3.71715,4.99491 -4.53027,-1.27777 -2.6717,5.11107 -3.48482,-4.76259 -1.97473,4.76259 -3.25251,-4.41411 -3.13634,4.64643 -2.32321,-5.11107 -2.6717,4.41411 -3.71714,-3.94947 -2.55554,4.41411 -2.20705,-4.53027 -1.85857,4.41411 -3.25251,-4.18179 -5.343389,4.41411 -4.29795,-4.29794 -4.530267,4.64643 -3.949467,-4.7626 -2.787856,4.18179 -4.181788,-4.53027 -3.252501,4.87875 -3.020179,-4.18178 -4.76259,4.06562 1.161605,-4.76259 -4.994912,3.94947 4.181787,-4.99491 -4.530267,0.23232 4.065624,-3.71715 -3.949464,-0.46464 3.717144,-4.64643 -4.065627,-0.69696 4.065627,-4.18179 -3.833304,-6.27268 3.833304,-5.3434 -3.717144,-4.06562 3.949464,-7.08581 -4.181787,-7.89893 3.136342,-6.15652 6.38884,4.87875 4.64643,-4.87875 4.53027,4.87875 4.994913,-4.64643 5.111072,4.53027 5.459556,-4.53027 1.858571,4.64643 5.111073,-5.22723 6.62116,5.11107 5.22724,-4.99491 5.45955,5.11107 4.64643,-4.99491 5.80804,4.87875 4.53027,-4.29795 4.87875,4.06563 -5.11107,1.27777 5.11107,2.09089 -4.29795,4.64643 4.18179,3.36866 -4.29795,4.18179 4.53027,4.18179 -4.53027,3.71714 4.41411,4.18179 -4.06563,3.60098 4.06563,3.94947 -3.94947,2.90402 3.71715,3.8333 -3.60099,1.97473 4.06563,1.97474 -1.62625,5.22723 -5.11107,-4.76259 -1.97474,5.11107 -3.71714,-4.53027 -2.32321,4.53027 -3.13634,-4.53027 -2.78786,4.76259 -2.55554,-4.87875 -2.55553,4.64643 -3.60099,-4.06562 -2.20705,4.06562 -3.36866,-4.41411 -1.62626,18.70188 -23.115985,-2.09089 35.429025,-4.87875 -19.398842,-4.64643 8.944382,-1.62625 -10.686792,-5.3434"
       style="fill:none;stroke:#000000;stroke-width:1;stroke-linecap:round;stroke-linejoin:round;stroke-miterlimit:4;stroke-dasharray:none;stroke-opacity:1;filter:url(#filter1109)" />
    <path
       inkscape:connector-curvature="0"
       id="path1103"
       d="m 58.502714,176.77262 1.519688,2.73546 7.978408,-2.50751 3.267368,2.35553 5.850832,-2.27954 3.723262,2.43152 6.078785,-2.43152 4.93901,2.35553 5.090987,-2.43152 4.103186,2.43152 4.78706,-2.43152 17.02061,6.53471 -11.01782,8.66227 -4.0272,-4.17917 -4.02719,3.95122 -4.483116,-4.40712 1.291756,-0.91182 -1.899625,-2.20356 -2.811436,1.44371 -2.355529,-1.59569 1.519688,-0.9878 -2.279552,-1.82363 -1.747641,0.91181 -1.671664,-1.13977 -2.88743,1.36773 -1.975601,-1.36773 -3.875238,1.29174 -1.747661,-1.13977 -3.495302,1.21576 -1.367726,-1.29174 -1.975601,1.44371 0.455907,0.83583 -1.823639,0.68386 2.051598,1.67167 2.811436,-1.36772 1.975601,1.36772 0.987817,-1.36772 0.227953,1.21575 1.063775,-1.36772 0.379935,1.44371 1.139773,-1.5197 1.367732,2.35553 -1.747661,0.68387 2.887434,4.40712 4.787037,-4.25515 -0.987797,-0.98781 1.899614,-1.82364 1.063795,1.13978 1.899623,-1.5197 2.355529,2.05159 -1.671663,0.53189 1.823639,0.83584 -5.166972,4.10318 -2.735456,-4.25515 1.823636,-1.36773 -1.13977,-1.89962 1.595683,-1.06379 -2.583499,-1.9756 -2.279532,1.36772 -2.279553,-1.29174 -3.571299,1.36773 -1.291735,-1.36773 -3.191364,0.9878 -2.203555,-1.21576 -2.65948,1.36773 -2.127576,-1.29174 -2.963411,1.29174 -0.987804,-1.21575 -2.203567,1.59568 v 0.91181 l -1.899623,0.60789 0.759844,1.44371 3.571306,-1.29174 1.823638,1.51969 -1.823638,0.68387 2.431507,5.09098 5.622891,-4.0272 2.811443,4.10319 4.483099,-4.10319 2.735458,4.17917 3.723263,-4.17917 2.65946,4.25516 3.571297,-4.17917 3.267349,4.25515 2.88742,-4.4831 3.11539,4.33113 3.11538,-4.17917 4.4831,4.33114 2.88744,-4.71106 3.4953,4.48311 9.42213,-5.92682 1.06378,-1.5197 1.74766,1.29174 1.74764,-1.82364 -1.21576,-0.37992 0.45592,-0.9878 0.15197,-1.29174 1.29174,1.29174 0.75984,-1.21576 1.44373,1.06379 0.98779,-0.9878 1.89963,1.13977 1.06379,-1.13977 8.73825,4.4831 -1.06378,6.23076 -3.79925,-4.17917 -2.05158,3.95122 -3.79925,-4.10319 -2.96342,4.0272 -3.11538,-3.95121 -2.81143,4.10318 -9.95402,-14.96902 -5.62288,3.11538 16.03281,7.44652 2.58348,4.33114 1.9756,-4.17917 3.26737,4.17917 2.58348,-4.0272 3.4193,4.17917 2.20358,-4.17917 4.86303,3.64728 1.74764,-1.82364 -6.38272,-2.81145 0.83584,-3.26734 -7.0666,-3.19137 0.37993,-3.49531 2.50751,1.89963 -2.27956,3.57129 -1.59568,-1.13977 -1.67167,1.9756 1.67167,0.22796 -0.60788,0.9878 2.58348,1.21576 0.30395,-1.29174 1.13977,1.29174 0.60787,-1.21576 1.21576,1.29174 1.21577,-4.25515 -6.99061,-2.12758 -0.98781,-2.43152 -0.98781,2.50751 -2.12757,-2.50751 -0.75984,2.35553 -2.0516,-2.12757 -2.27954,2.81144 1.74764,0.83583 -1.29174,1.59569 -1.89961,-0.9878 -4.93904,10.18197 -7.44651,-7.06659 -0.68387,1.29174 -1.67166,-1.29174 -0.91182,1.21575 -2.20356,-1.59568 0.9878,-0.75985 -2.43152,-2.12757 -0.83583,1.06378 -1.5197,-0.9878 -2.27955,1.29174 -1.671663,-1.36772 -1.291735,1.29174 -0.987817,-1.21576 -1.21575,1.36773 -2.203554,-1.36773 -1.519708,1.13977 -2.203551,-1.13977 -2.12759,1.06379 -0.151955,-0.83584 -2.58349,1.44371 0.531891,0.75985 -2.735459,2.12758 -0.53189,-1.36772 -0.759844,1.06378 -0.683867,-1.29174 -0.607881,1.29174 -1.519708,-1.5197 1.21577,-0.60787 -0.683866,-0.5319 3.115374,-1.82364 3.723262,1.97561 -1.899624,0.91182 0.759845,2.05159 0.987817,-1.59568 0.53189,1.29174 0.91182,-1.36772 0.455913,1.44371 1.139772,-1.44371 0.379916,1.44371 1.975611,-1.67167 0.227953,1.44371 1.063782,-1.06378 1.519701,1.21575 0.911826,-1.13977 1.747641,1.44371 0.835842,-1.51969 0.987797,1.21575 0.835841,-1.21575 0.531891,1.21575 2.431517,-1.97561 -1.671673,-2.43151 -1.519688,0.9878 -1.291754,-0.9878 -1.063775,1.44371 -1.823639,-1.59568 1.595679,-0.83583 -1.063795,-0.60788 5.698876,-2.73546 5.698859,2.88742 -1.13978,0.75985 1.51971,0.83584 -0.75984,1.21576 1.59568,1.29174 -1.13978,1.89962 1.44371,1.29174 -1.5197,0.5319 -2.65946,4.25515 -1.67167,-4.33113 -3.039392,4.33113 -1.747661,-4.10318 -2.963411,4.17917 -2.811443,-4.17917 -3.951212,4.0272 -2.431508,-4.0272 -3.5713,4.25515 -2.65946,-4.33114 -4.255166,4.10319 -0.683866,-4.10319 -1.291735,4.0272 -0.987797,-4.33113 -2.507505,4.17916 -0.759844,-3.95121 -1.367732,4.10318 -1.139773,-4.10318 -1.139772,4.17917 -1.215757,-4.17917 -1.063795,4.48311 -1.215757,-4.78705 -3.495302,4.55909 -1.823639,-4.10318 -3.951215,4.10318 -3.419324,-3.19136 4.635081,-1.13977 -5.470922,3.11538 6.45872,-3.0394 1.291747,4.33114 1.975601,-4.33114 1.671683,-0.076 -0.53191,-0.98781 1.519708,-0.076 -1.291755,-2.12758 -2.507498,1.06379 -2.735445,-2.88743 5.242943,-1.36772 0.455913,1.06378 2.431527,-0.91181 0.531891,1.06378 2.051592,-1.36773 -0.379929,-0.60787 1.519701,-0.68387 -2.355529,-2.96341 -5.622892,1.74765 2.583503,1.5197 -4.787057,0.91182 2.051592,2.20356 -5.546894,1.67167 2.203554,1.89962 -3.875217,0.30394 -1.139779,4.55909 6.002813,-3.72326 1.747641,3.87523 2.583483,-4.17916 0.987817,4.40712 2.279532,-4.40712 1.063795,4.33113 0.379928,-4.63507 1.747648,-0.37993 -0.303938,-1.13977 2.507505,-1.29174 0.07599,1.29174 1.595678,-1.59569 0.531891,1.5197 1.671664,-1.29174 0.53191,1.67166 -2.127596,1.21577 1.215777,4.63507 3.647257,-4.25515 1.519708,4.33114 1.291748,-4.55909 -0.987817,-1.21577 1.519708,-0.4559 -0.607888,-1.59569 1.595685,-1.06379 -0.607882,-2.27954 1.747661,-0.83584 -4.711059,-3.11538 -5.926829,2.65948 0.379929,0.68386 -1.519701,0.60788 0.30395,1.74765 -2.051598,0.91182 0.759844,0.68386 -3.647278,1.59569 -1.747641,-1.36773 -2.811442,1.5197 -2.12759,-1.44371 -1.975601,1.13977 -0.987797,-3.79925 4.027193,0.68387 -2.051592,-2.73546 4.179168,-0.15197 -1.899623,-2.05159 2.35553,-0.60788 2.583482,2.43152 2.35553,-2.58349 0.835841,2.58349 2.35553,-2.50751 0.151975,2.58349 1.975601,-2.65947 0.607882,2.58349 1.671663,-2.65948 0.835842,2.73546 2.279551,-2.65947 0.303932,2.58349 2.659467,-2.43152 1.519707,2.65947 0.759844,-2.81144 1.443704,2.43151 1.063802,-2.35553 1.519701,2.58349 0.607868,-2.65947 0.835842,2.65947 0.835822,-2.43152 0.835841,2.27955 0.987795,-2.5075 1.063801,2.58349 0.835822,-2.35554 1.063795,2.12758 0.911819,-2.35553 2.127576,2.73546 0.607882,-2.81145 1.291735,2.58349 1.291748,-2.20356 2.051596,2.88742 2.05159,-3.19136 1.21575,2.65947 2.43152,-2.58349 1.21575,2.65948 2.35554,-2.65948 3.79925,14.96903 0.30394,-15.04501 2.65947,14.96902 0.22796,-14.96902 3.41931,15.19698 -1.29175,-15.27297 4.40713,14.89304 2.12758,-4.02719 1.06378,4.02719 2.35553,-3.72326 3.41932,3.87523 2.73547,-4.0272 0.98779,4.10319 1.74765,-4.55909 -1.82363,-0.37993 0.37992,-0.83584 -3.26735,-1.67166 -0.68385,1.44371 -1.89963,-1.59568 -0.91183,2.20356 1.74766,0.60788 -1.13977,0.5319 4.40712,4.17916 3.95122,-4.17916 2.9634,4.40712 4.63508,-4.71106 -5.015,-1.44372 0.83584,-3.19136 -2.65948,1.13977 0.22796,-3.95122 -5.09099,-3.11538 -1.44371,2.73546 -1.44372,-2.58349 -2.05159,2.73546 2.35554,1.13977 -1.21577,1.89963 -0.91182,-1.29174 -0.53189,1.13977 -1.59568,-1.59569 -0.91182,1.44372 -1.13978,-1.29175 -1.59567,1.44372 -1.74766,-1.21576 -0.83583,10.33394 -11.47371,-10.40992 2.73545,-4.40713 8.0544,2.5075 0.68386,-2.43152 1.67167,2.27955 1.36772,-2.5075 2.50751,2.88743 1.74764,-2.81145 2.0516,2.73546 -0.076,1.21576 3.64728,2.05159 -0.5319,3.0394 -1.82363,-1.59568 -0.9878,1.59568 -2.58349,-1.44371 -0.30394,1.51969 -1.21576,-1.51969 -0.5319,1.29174 -2.50749,-1.29174 -1.5197,7.06659 -13.14539,-11.92963 -0.53189,-2.58349 -2.20356,2.43152 -2.12758,-2.35553 -5.090987,2.65947 1.291748,1.29174 -0.607881,2.58349 1.74765,2.12758 0.53189,-1.36773 0.60789,1.44371 0.60787,-1.21575 0.60788,1.06378 0.68387,-1.21575 0.68386,1.44371 1.89962,0.076 -1.21576,0.9878 1.51971,0.83584 -1.51971,4.10318 -3.41931,-3.79924 -3.039398,3.79924 -2.051592,-3.95121 -0.607882,4.10318 -3.495302,-4.17917 -1.823638,3.95122 -4.711063,-4.0272 -3.571287,4.10318 -2.811443,-4.10318 -3.039396,4.10318 -1.899623,-4.40712 1.823639,-0.68386 -0.531897,-2.27955 -1.367726,1.44371 -1.519701,-1.51969 -1.519695,1.67166 -0.455913,-2.73545 1.519701,-0.45591 -0.987803,-1.36773 -1.215757,0.83583 -1.595686,-1.21576 -0.835835,1.29175 -1.44371,-1.06379 -1.291741,1.06379 -0.835835,-1.29175 -2.051592,1.5197 -1.595685,-1.21575 -1.215757,1.13977 -1.443711,-1.13977 -0.987803,1.06378 -5.850838,1.44371 1.899623,2.12758 h -3.875231 l 3.343333,5.92682 2.58349,-4.10318 2.20356,3.87523 2.735458,-3.87523 4.255153,4.10318 1.063788,-4.17917 3.267349,3.87523 2.887427,-3.87523 0.379922,4.17917 4.78705,-4.25515 1.595685,4.17917 3.723255,-4.25515 2.659475,4.17916 4.25515,-3.95121 4.559096,3.87523 2.735452,-4.17917 3.191364,4.10318 1.06379,-4.25515 6.23076,4.63508 2.12758,-4.0272 0.45591,3.72326 11.0178,-10.86584 -9.95401,-3.72326 -1.44371,5.39493 -1.36773,-1.44372 -1.44372,1.29175 -0.91182,-1.29175 -1.06378,1.89962 2.20356,-1.82363 1.67167,1.44371 10.63787,-5.24295 6.30675,2.20356 -16.79266,-0.30394"
       style="fill:none;stroke:#000000;stroke-width:0.69999999;stroke-linecap:round;stroke-linejoin:round;stroke-miterlimit:4;stroke-dasharray:none;stroke-opacity:1;filter:url(#filter1113)" />
    <path
       style="fill:none;stroke:#000000;stroke-width:1;stroke-linecap:round;stroke-linejoin:round;stroke-miterlimit:4;stroke-dasharray:none;stroke-opacity:1"
       d="m 18.237238,168.75853 18.353398,-10.45447 15.449378,13.12617 2.904019,-2.90402 -36.474474,-34.49974 22.883667,-17.7726 13.474647,17.30795 -12.429199,8.13126 12.545359,12.54536 -14.868575,17.07563 -21.72206,-18.81804 13.474648,-14.86858 -1.51009,-20.90893 -11.964558,7.20196 36.474475,21.14126 -15.56554,11.96455 -5.575716,14.40394 -15.217058,-9.29286 14.403933,-16.37867 3.252502,7.08581 2.671696,-6.04036 16.146343,15.56554 -8.944377,8.82822 -11.383753,-13.47465 -16.610987,-0.23232 12.893842,-14.05545 -12.777681,-13.93929 16.494826,-13.01001 20.21197,22.65135 -15.56554,14.98473 14.752415,16.84331 1.045448,-5.34339 -18.701882,-18.3534 -17.888755,18.12108 3.13634,6.27268 33.338134,-22.65135 -16.610986,-32.75733 -3.833304,19.97965 -16.494827,6.38884 15.565541,11.8484 -14.636255,15.79786 7.085806,1.16161 28.807865,-19.86349 -13.242324,-13.01 13.358484,-20.21197 -7.434286,-9.1767 7.434286,-15.449384 -8.595894,-7.666609 -8.247415,11.15143 -12.080716,-11.03527 -8.015092,8.131254 9.525181,13.706969 2.787859,-2.55554 3.252501,2.90402 3.368662,-3.02018 3.600982,2.78786 3.368661,-2.78786 2.904019,3.48482 8.131252,-5.80803 -7.201966,-4.414112 7.201966,-9.757502 L 52.62082,86.168237 42.166352,97.087347 35.661351,85.703594 27.297777,97.31967 18.58572,88.723773 21.489739,86.052077 33.221975,97.31967 41.353226,85.935917 54.827873,98.945921 43.44412,108.23878 l -3.717145,-3.2525 -2.904019,3.48482 -3.368661,-3.2525 -3.368662,3.13634 -3.136339,-3.02018 -8.828217,6.38884 7.550448,3.36866 -7.666609,11.8484 15.217059,9.40902 11.383753,-19.63116 10.222145,9.64134 -13.126164,18.12107 13.242324,14.17161 -12.545359,12.77769 -4.762592,-12.89385 -7.550449,12.66153 -11.732235,-11.61608 16.146345,-13.01 3.368661,6.15652 16.959469,-16.49483 -14.984735,-20.09581 -21.6059,20.44429 12.313038,4.64643 -12.080717,6.96965 16.030184,5.22723 5.808038,-7.55045 14.752415,-3.71714 -36.590637,-23.81295 7.085806,-7.55045 -7.318127,-5.9242 7.201966,-5.575719 -7.550449,-7.550449 6.272681,-5.459552 11.499915,10.686787 8.363572,-10.686787 10.91911,10.802947 -6.969643,4.646433 7.318126,7.66661 -7.318126,4.41411 6.969643,9.98982 -15.100895,12.77768 -7.666612,-20.56045 -13.939288,23.46447 17.888756,32.06037 18.934202,-21.14126 -21.605901,-33.91894 -15.333218,15.91403 12.545361,7.43428 -12.4292,15.21706 13.706968,16.37867 1.742411,-14.98474 -15.333219,-10.91911 25.323044,-29.15635 11.151431,5.11107 -17.888754,14.28778 -9.873665,-19.28269 -9.176699,-1.62625 7.550449,-1.97473 -7.318127,-1.39393 7.898931,-2.32321 -7.898931,-2.20706 7.78277,-2.78786 -7.78277,-2.09089 7.318127,-1.27777 -7.201966,-2.207052 12.66152,-12.080718 9.29286,10.686787 8.712057,-10.802947 6.040358,4.530269 -9.29286,6.388841 -7.085803,-11.383753 -8.015094,11.03527 -10.686788,-10.105985 -1.742411,9.060537 7.78277,6.272681 -7.550449,3.8333 8.131253,2.6717 5.343395,-3.48482 3.600982,3.02018 2.555536,-2.78786 1.161609,2.6717 2.439376,-2.78786 3.949464,3.02018 0.696966,-3.36866 8.479734,6.27268 -6.388841,1.27777 6.737324,1.97473 -8.479735,1.74241 -7.782771,19.63117 16.146343,-29.04019 -14.984735,-21.025096 -21.6059,14.868576 9.292861,70.16109 -9.525182,-6.38884 36.706796,-8.24741 -14.403932,-10.10599"
       id="path896"
       inkscape:connector-curvature="0" />
    <path
       style="fill:none;stroke:#000000;stroke-width:1;stroke-linecap:round;stroke-linejoin:round;stroke-miterlimit:4;stroke-dasharray:none;stroke-opacity:1"
       d="m 77.130737,171.43023 26.136173,-11.38376 17.19179,11.15144 -33.918943,-9.1767 -2.207054,9.40902 -4.181787,-4.87875 29.853314,-4.87876 2.09089,9.87367 4.53027,-5.22724 2.0909,5.22724 0.81312,-2.20706 -15.79786,2.20706 -20.560455,-7.43429 -4.530267,4.99491 2.671696,2.32322 8.363575,-10.33831 2.904019,10.22215 1.74241,-11.2676 2.904019,11.2676 4.994913,-19.16653 3.02018,4.64643 2.43937,-4.41411 3.13634,4.7626 2.78786,-5.3434 3.02018,4.87875 2.78786,-4.76259 2.6717,4.87875 2.20705,-4.99491 3.36866,5.22723 2.55554,-5.11107 3.13634,4.76259 0.5808,-6.38884 4.06563,-1.74241 -4.53027,-3.13634 4.76259,-3.48482 -4.76259,-3.48483 4.64643,-3.71714 -4.53027,-3.60098 4.41411,-4.41411 -4.29795,-4.41411 4.18179,-3.8333 -4.29795,-3.36867 4.53027,-4.53027 -4.29795,-2.32321 4.06563,-5.11107 -2.20706,-2.55554 -4.53027,5.22723 -5.80803,-4.99491 -5.11108,4.64643 -5.45955,-4.64643 -4.87875,4.53027 -5.69188,-4.53027 -4.994912,4.53027 -7.782769,-4.64643 -6.15652,4.76259 -5.691876,-4.76259 -3.600984,4.53027 -4.64643,-4.41411 -4.181787,4.76259 -6.737324,-3.94946 3.484825,8.71205 -4.53027,6.85349 4.181787,6.04036 -4.181787,5.22723 4.414107,5.45956 -4.530267,5.57571 4.530267,4.76259 -4.414107,5.11107 5.459555,2.0909 1.161608,5.34339 4.297948,-4.87875 3.600981,4.76259 3.368662,-4.53027 3.484824,4.87875 4.181785,-5.11107 3.949467,4.76259 3.368662,-4.99491 9.292855,19.63117 11.2676,-7.78277 3.13634,7.78277 2.67169,-3.02018 -3.60098,-3.71715 -6.15652,6.50501 -2.32321,-10.33831 -7.318132,10.22214 -7.550449,-10.3383 -3.484821,10.45447 -5.575716,-5.80804 -3.252501,6.27268 -1.277769,-1.51009 6.737324,-6.73733 5.459555,8.0151 2.439377,-11.15144 1.85857,11.15144 3.368662,-19.28269 2.6717,19.16653 2.55554,-10.80296 2.32321,10.80296 2.20705,-9.98983 2.32322,9.87367 5.69188,-5.57572 1.39393,5.80804 -5.3434,-8.47974 -7.78277,8.36358 -9.873664,-11.49992 8.944374,-0.23232 -9.060534,-1.62625 9.292864,-1.04545 -8.131256,-4.53027 -3.600985,4.53027 -3.949464,-4.76259 -3.600984,4.99491 -3.833305,-4.76259 -2.671696,4.64643 -3.717145,-4.53027 -3.600984,4.53027 -2.904016,-4.29794 -5.111076,3.71714 -2.671696,-2.43938 4.297947,-3.94946 -4.297947,-5.22724 4.065627,-4.64643 -4.297947,-6.27268 4.64643,-4.53026 -4.64643,-5.11108 4.414107,-5.34339 -4.297947,-7.89893 4.64643,-3.13634 1.045445,-7.20197 6.156521,5.22723 4.414107,-4.99491 5.575718,4.99491 4.76259,-5.22723 5.808038,4.99491 5.111073,-4.76259 8.015095,4.53027 5.11107,-4.64643 5.11107,4.99491 5.11107,-4.64643 5.69188,4.76259 4.76259,-4.76259 7.20197,5.9242 -3.94947,4.29795 4.18179,3.94946 -4.41411,4.06563 4.41411,3.60098 -4.29795,3.60099 4.29795,4.87875 -4.18179,2.78786 4.41411,4.76259 -4.64643,3.13634 4.41411,3.48482 -4.18179,2.32322 3.71715,4.99491 -4.53027,-1.27777 -2.6717,5.11107 -3.48482,-4.76259 -1.97473,4.76259 -3.25251,-4.41411 -3.13634,4.64643 -2.32321,-5.11107 -2.6717,4.41411 -3.71714,-3.94947 -2.55554,4.41411 -2.20705,-4.53027 -1.85857,4.41411 -3.25251,-4.18179 -5.343389,4.41411 -4.29795,-4.29794 -4.530267,4.64643 -3.949467,-4.7626 -2.787856,4.18179 -4.181788,-4.53027 -3.252501,4.87875 -3.020179,-4.18178 -4.76259,4.06562 1.161605,-4.76259 -4.994912,3.94947 4.181787,-4.99491 -4.530267,0.23232 4.065624,-3.71715 -3.949464,-0.46464 3.717144,-4.64643 -4.065627,-0.69696 4.065627,-4.18179 -3.833304,-6.27268 3.833304,-5.3434 -3.717144,-4.06562 3.949464,-7.08581 -4.181787,-7.89893 3.136342,-6.15652 6.38884,4.87875 4.64643,-4.87875 4.53027,4.87875 4.994913,-4.64643 5.111072,4.53027 5.459556,-4.53027 1.858571,4.64643 5.111073,-5.22723 6.62116,5.11107 5.22724,-4.99491 5.45955,5.11107 4.64643,-4.99491 5.80804,4.87875 4.53027,-4.29795 4.87875,4.06563 -5.11107,1.27777 5.11107,2.09089 -4.29795,4.64643 4.18179,3.36866 -4.29795,4.18179 4.53027,4.18179 -4.53027,3.71714 4.41411,4.18179 -4.06563,3.60098 4.06563,3.94947 -3.94947,2.90402 3.71715,3.8333 -3.60099,1.97473 4.06563,1.97474 -1.62625,5.22723 -5.11107,-4.76259 -1.97474,5.11107 -3.71714,-4.53027 -2.32321,4.53027 -3.13634,-4.53027 -2.78786,4.76259 -2.55554,-4.87875 -2.55553,4.64643 -3.60099,-4.06562 -2.20705,4.06562 -3.36866,-4.41411 -1.62626,18.70188 -23.115985,-2.09089 35.429025,-4.87875 -19.398842,-4.64643 8.944382,-1.62625 -10.686792,-5.3434"
       id="path917"
       inkscape:connector-curvature="0" />
    <path
       style="fill:none;stroke:#000000;stroke-width:0.69999999;stroke-linecap:round;stroke-linejoin:round;stroke-miterlimit:4;stroke-dasharray:none;stroke-opacity:1"
       d="m 58.502714,176.77262 1.519688,2.73546 7.978408,-2.50751 3.267368,2.35553 5.850832,-2.27954 3.723262,2.43152 6.078785,-2.43152 4.93901,2.35553 5.090987,-2.43152 4.103186,2.43152 4.78706,-2.43152 17.02061,6.53471 -11.01782,8.66227 -4.0272,-4.17917 -4.02719,3.95122 -4.483116,-4.40712 1.291756,-0.91182 -1.899625,-2.20356 -2.811436,1.44371 -2.355529,-1.59569 1.519688,-0.9878 -2.279552,-1.82363 -1.747641,0.91181 -1.671664,-1.13977 -2.88743,1.36773 -1.975601,-1.36773 -3.875238,1.29174 -1.747661,-1.13977 -3.495302,1.21576 -1.367726,-1.29174 -1.975601,1.44371 0.455907,0.83583 -1.823639,0.68386 2.051598,1.67167 2.811436,-1.36772 1.975601,1.36772 0.987817,-1.36772 0.227953,1.21575 1.063775,-1.36772 0.379935,1.44371 1.139773,-1.5197 1.367732,2.35553 -1.747661,0.68387 2.887434,4.40712 4.787037,-4.25515 -0.987797,-0.98781 1.899614,-1.82364 1.063795,1.13978 1.899623,-1.5197 2.355529,2.05159 -1.671663,0.53189 1.823639,0.83584 -5.166972,4.10318 -2.735456,-4.25515 1.823636,-1.36773 -1.13977,-1.89962 1.595683,-1.06379 -2.583499,-1.9756 -2.279532,1.36772 -2.279553,-1.29174 -3.571299,1.36773 -1.291735,-1.36773 -3.191364,0.9878 -2.203555,-1.21576 -2.65948,1.36773 -2.127576,-1.29174 -2.963411,1.29174 -0.987804,-1.21575 -2.203567,1.59568 v 0.91181 l -1.899623,0.60789 0.759844,1.44371 3.571306,-1.29174 1.823638,1.51969 -1.823638,0.68387 2.431507,5.09098 5.622891,-4.0272 2.811443,4.10319 4.483099,-4.10319 2.735458,4.17917 3.723263,-4.17917 2.65946,4.25516 3.571297,-4.17917 3.267349,4.25515 2.88742,-4.4831 3.11539,4.33113 3.11538,-4.17917 4.4831,4.33114 2.88744,-4.71106 3.4953,4.48311 9.42213,-5.92682 1.06378,-1.5197 1.74766,1.29174 1.74764,-1.82364 -1.21576,-0.37992 0.45592,-0.9878 0.15197,-1.29174 1.29174,1.29174 0.75984,-1.21576 1.44373,1.06379 0.98779,-0.9878 1.89963,1.13977 1.06379,-1.13977 8.73825,4.4831 -1.06378,6.23076 -3.79925,-4.17917 -2.05158,3.95122 -3.79925,-4.10319 -2.96342,4.0272 -3.11538,-3.95121 -2.81143,4.10318 -9.95402,-14.96902 -5.62288,3.11538 16.03281,7.44652 2.58348,4.33114 1.9756,-4.17917 3.26737,4.17917 2.58348,-4.0272 3.4193,4.17917 2.20358,-4.17917 4.86303,3.64728 1.74764,-1.82364 -6.38272,-2.81145 0.83584,-3.26734 -7.0666,-3.19137 0.37993,-3.49531 2.50751,1.89963 -2.27956,3.57129 -1.59568,-1.13977 -1.67167,1.9756 1.67167,0.22796 -0.60788,0.9878 2.58348,1.21576 0.30395,-1.29174 1.13977,1.29174 0.60787,-1.21576 1.21576,1.29174 1.21577,-4.25515 -6.99061,-2.12758 -0.98781,-2.43152 -0.98781,2.50751 -2.12757,-2.50751 -0.75984,2.35553 -2.0516,-2.12757 -2.27954,2.81144 1.74764,0.83583 -1.29174,1.59569 -1.89961,-0.9878 -4.93904,10.18197 -7.44651,-7.06659 -0.68387,1.29174 -1.67166,-1.29174 -0.91182,1.21575 -2.20356,-1.59568 0.9878,-0.75985 -2.43152,-2.12757 -0.83583,1.06378 -1.5197,-0.9878 -2.27955,1.29174 -1.671663,-1.36772 -1.291735,1.29174 -0.987817,-1.21576 -1.21575,1.36773 -2.203554,-1.36773 -1.519708,1.13977 -2.203551,-1.13977 -2.12759,1.06379 -0.151955,-0.83584 -2.58349,1.44371 0.531891,0.75985 -2.735459,2.12758 -0.53189,-1.36772 -0.759844,1.06378 -0.683867,-1.29174 -0.607881,1.29174 -1.519708,-1.5197 1.21577,-0.60787 -0.683866,-0.5319 3.115374,-1.82364 3.723262,1.97561 -1.899624,0.91182 0.759845,2.05159 0.987817,-1.59568 0.53189,1.29174 0.91182,-1.36772 0.455913,1.44371 1.139772,-1.44371 0.379916,1.44371 1.975611,-1.67167 0.227953,1.44371 1.063782,-1.06378 1.519701,1.21575 0.911826,-1.13977 1.747641,1.44371 0.835842,-1.51969 0.987797,1.21575 0.835841,-1.21575 0.531891,1.21575 2.431517,-1.97561 -1.671673,-2.43151 -1.519688,0.9878 -1.291754,-0.9878 -1.063775,1.44371 -1.823639,-1.59568 1.595679,-0.83583 -1.063795,-0.60788 5.698876,-2.73546 5.698859,2.88742 -1.13978,0.75985 1.51971,0.83584 -0.75984,1.21576 1.59568,1.29174 -1.13978,1.89962 1.44371,1.29174 -1.5197,0.5319 -2.65946,4.25515 -1.67167,-4.33113 -3.039392,4.33113 -1.747661,-4.10318 -2.963411,4.17917 -2.811443,-4.17917 -3.951212,4.0272 -2.431508,-4.0272 -3.5713,4.25515 -2.65946,-4.33114 -4.255166,4.10319 -0.683866,-4.10319 -1.291735,4.0272 -0.987797,-4.33113 -2.507505,4.17916 -0.759844,-3.95121 -1.367732,4.10318 -1.139773,-4.10318 -1.139772,4.17917 -1.215757,-4.17917 -1.063795,4.48311 -1.215757,-4.78705 -3.495302,4.55909 -1.823639,-4.10318 -3.951215,4.10318 -3.419324,-3.19136 4.635081,-1.13977 -5.470922,3.11538 6.45872,-3.0394 1.291747,4.33114 1.975601,-4.33114 1.671683,-0.076 -0.53191,-0.98781 1.519708,-0.076 -1.291755,-2.12758 -2.507498,1.06379 -2.735445,-2.88743 5.242943,-1.36772 0.455913,1.06378 2.431527,-0.91181 0.531891,1.06378 2.051592,-1.36773 -0.379929,-0.60787 1.519701,-0.68387 -2.355529,-2.96341 -5.622892,1.74765 2.583503,1.5197 -4.787057,0.91182 2.051592,2.20356 -5.546894,1.67167 2.203554,1.89962 -3.875217,0.30394 -1.139779,4.55909 6.002813,-3.72326 1.747641,3.87523 2.583483,-4.17916 0.987817,4.40712 2.279532,-4.40712 1.063795,4.33113 0.379928,-4.63507 1.747648,-0.37993 -0.303938,-1.13977 2.507505,-1.29174 0.07599,1.29174 1.595678,-1.59569 0.531891,1.5197 1.671664,-1.29174 0.53191,1.67166 -2.127596,1.21577 1.215777,4.63507 3.647257,-4.25515 1.519708,4.33114 1.291748,-4.55909 -0.987817,-1.21577 1.519708,-0.4559 -0.607888,-1.59569 1.595685,-1.06379 -0.607882,-2.27954 1.747661,-0.83584 -4.711059,-3.11538 -5.926829,2.65948 0.379929,0.68386 -1.519701,0.60788 0.30395,1.74765 -2.051598,0.91182 0.759844,0.68386 -3.647278,1.59569 -1.747641,-1.36773 -2.811442,1.5197 -2.12759,-1.44371 -1.975601,1.13977 -0.987797,-3.79925 4.027193,0.68387 -2.051592,-2.73546 4.179168,-0.15197 -1.899623,-2.05159 2.35553,-0.60788 2.583482,2.43152 2.35553,-2.58349 0.835841,2.58349 2.35553,-2.50751 0.151975,2.58349 1.975601,-2.65947 0.607882,2.58349 1.671663,-2.65948 0.835842,2.73546 2.279551,-2.65947 0.303932,2.58349 2.659467,-2.43152 1.519707,2.65947 0.759844,-2.81144 1.443704,2.43151 1.063802,-2.35553 1.519701,2.58349 0.607868,-2.65947 0.835842,2.65947 0.835822,-2.43152 0.835841,2.27955 0.987795,-2.5075 1.063801,2.58349 0.835822,-2.35554 1.063795,2.12758 0.911819,-2.35553 2.127576,2.73546 0.607882,-2.81145 1.291735,2.58349 1.291748,-2.20356 2.051596,2.88742 2.05159,-3.19136 1.21575,2.65947 2.43152,-2.58349 1.21575,2.65948 2.35554,-2.65948 3.79925,14.96903 0.30394,-15.04501 2.65947,14.96902 0.22796,-14.96902 3.41931,15.19698 -1.29175,-15.27297 4.40713,14.89304 2.12758,-4.02719 1.06378,4.02719 2.35553,-3.72326 3.41932,3.87523 2.73547,-4.0272 0.98779,4.10319 1.74765,-4.55909 -1.82363,-0.37993 0.37992,-0.83584 -3.26735,-1.67166 -0.68385,1.44371 -1.89963,-1.59568 -0.91183,2.20356 1.74766,0.60788 -1.13977,0.5319 4.40712,4.17916 3.95122,-4.17916 2.9634,4.40712 4.63508,-4.71106 -5.015,-1.44372 0.83584,-3.19136 -2.65948,1.13977 0.22796,-3.95122 -5.09099,-3.11538 -1.44371,2.73546 -1.44372,-2.58349 -2.05159,2.73546 2.35554,1.13977 -1.21577,1.89963 -0.91182,-1.29174 -0.53189,1.13977 -1.59568,-1.59569 -0.91182,1.44372 -1.13978,-1.29175 -1.59567,1.44372 -1.74766,-1.21576 -0.83583,10.33394 -11.47371,-10.40992 2.73545,-4.40713 8.0544,2.5075 0.68386,-2.43152 1.67167,2.27955 1.36772,-2.5075 2.50751,2.88743 1.74764,-2.81145 2.0516,2.73546 -0.076,1.21576 3.64728,2.05159 -0.5319,3.0394 -1.82363,-1.59568 -0.9878,1.59568 -2.58349,-1.44371 -0.30394,1.51969 -1.21576,-1.51969 -0.5319,1.29174 -2.50749,-1.29174 -1.5197,7.06659 -13.14539,-11.92963 -0.53189,-2.58349 -2.20356,2.43152 -2.12758,-2.35553 -5.090987,2.65947 1.291748,1.29174 -0.607881,2.58349 1.74765,2.12758 0.53189,-1.36773 0.60789,1.44371 0.60787,-1.21575 0.60788,1.06378 0.68387,-1.21575 0.68386,1.44371 1.89962,0.076 -1.21576,0.9878 1.51971,0.83584 -1.51971,4.10318 -3.41931,-3.79924 -3.039398,3.79924 -2.051592,-3.95121 -0.607882,4.10318 -3.495302,-4.17917 -1.823638,3.95122 -4.711063,-4.0272 -3.571287,4.10318 -2.811443,-4.10318 -3.039396,4.10318 -1.899623,-4.40712 1.823639,-0.68386 -0.531897,-2.27955 -1.367726,1.44371 -1.519701,-1.51969 -1.519695,1.67166 -0.455913,-2.73545 1.519701,-0.45591 -0.987803,-1.36773 -1.215757,0.83583 -1.595686,-1.21576 -0.835835,1.29175 -1.44371,-1.06379 -1.291741,1.06379 -0.835835,-1.29175 -2.051592,1.5197 -1.595685,-1.21575 -1.215757,1.13977 -1.443711,-1.13977 -0.987803,1.06378 -5.850838,1.44371 1.899623,2.12758 h -3.875231 l 3.343333,5.92682 2.58349,-4.10318 2.20356,3.87523 2.735458,-3.87523 4.255153,4.10318 1.063788,-4.17917 3.267349,3.87523 2.887427,-3.87523 0.379922,4.17917 4.78705,-4.25515 1.595685,4.17917 3.723255,-4.25515 2.659475,4.17916 4.25515,-3.95121 4.559096,3.87523 2.735452,-4.17917 3.191364,4.10318 1.06379,-4.25515 6.23076,4.63508 2.12758,-4.0272 0.45591,3.72326 11.0178,-10.86584 -9.95401,-3.72326 -1.44371,5.39493 -1.36773,-1.44372 -1.44372,1.29175 -0.91182,-1.29175 -1.06378,1.89962 2.20356,-1.82363 1.67167,1.44371 10.63787,-5.24295 6.30675,2.20356 -16.79266,-0.30394"
       id="path1097"
       inkscape:connector-curvature="0" />
  </g>
</svg>
