<?xml version="1.0" encoding="UTF-8" standalone="no"?>
<!-- Created with Inkscape (http://www.inkscape.org/) -->

<svg
   xmlns:dc="http://purl.org/dc/elements/1.1/"
   xmlns:cc="http://creativecommons.org/ns#"
   xmlns:rdf="http://www.w3.org/1999/02/22-rdf-syntax-ns#"
   xmlns:svg="http://www.w3.org/2000/svg"
   xmlns="http://www.w3.org/2000/svg"
   xmlns:sodipodi="http://sodipodi.sourceforge.net/DTD/sodipodi-0.dtd"
   xmlns:inkscape="http://www.inkscape.org/namespaces/inkscape"
   width="210mm"
   height="297mm"
   viewBox="0 0 210 297"
   version="1.1"
   id="svg1050"
   inkscape:version="0.92.2 2405546, 2018-03-11"
   sodipodi:docname="paper.svg">
  <defs
     id="defs1044">
    <filter
       inkscape:collect="always"
       style="color-interpolation-filters:sRGB"
       id="filter3075"
       x="-0.014145455"
       width="1.0282909"
       y="-0.010419643"
       height="1.0208393">
      <feGaussianBlur
         inkscape:collect="always"
         stdDeviation="0.55137275"
         id="feGaussianBlur3077" />
    </filter>
  </defs>
  <sodipodi:namedview
     id="base"
     pagecolor="#ffffff"
     bordercolor="#666666"
     borderopacity="1.0"
     inkscape:pageopacity="0.0"
     inkscape:pageshadow="2"
     inkscape:zoom="1.4"
     inkscape:cx="353.15445"
     inkscape:cy="641.31823"
     inkscape:document-units="mm"
     inkscape:current-layer="layer1"
     showgrid="false"
     inkscape:window-width="1920"
     inkscape:window-height="1039"
     inkscape:window-x="0"
     inkscape:window-y="0"
     inkscape:window-maximized="1" />
  <metadata
     id="metadata1047">
    <rdf:RDF>
      <cc:Work
         rdf:about="">
        <dc:format>image/svg+xml</dc:format>
        <dc:type
           rdf:resource="http://purl.org/dc/dcmitype/StillImage" />
        <dc:title></dc:title>
      </cc:Work>
    </rdf:RDF>
  </metadata>
  <g
     inkscape:label="Layer 1"
     inkscape:groupmode="layer"
     id="layer1">
    <g
       id="g3081">
      <path
         style="fill:none;stroke:#000000;stroke-width:1;stroke-linecap:round;stroke-linejoin:round;stroke-opacity:1;stroke-miterlimit:4;stroke-dasharray:none;filter:url(#filter3075)"
         d="m 104.51042,158.09375 26.64732,7.18154 -29.29316,8.31548 9.07143,12.28423 -8.69345,2.45684 v 6.04762 l -6.425596,-3.77976 -5.291667,3.77976 -6.047621,-4.15774 -4.724701,4.15774 -5.102678,-4.34672 -3.96875,4.15773 -3.968749,-3.59077 -3.96875,3.59077 -3.590775,-3.59077 -3.590774,3.77976 -2.267857,-4.7247 -4.913691,-1.32292 3.401788,-5.10268 -3.96875,-5.85863 3.96875,-6.04762 -3.590775,-6.2366 3.779761,-8.12649 -4.157736,-7.74851 3.96875,-7.18155 -3.590775,-8.12649 3.590775,-6.23661 -3.779764,-6.80357 3.96875,-7.74851 -3.779761,-6.99256 3.779761,-5.48065 -3.96875,-8.315477 4.346726,-5.858632 -3.96875,-4.535715 3.590774,-4.724702 -2.267857,-6.614583 6.047621,1.700893 2.834819,-3.590774 3.590775,3.968749 4.724701,-4.346725 3.212798,3.77976 3.779761,-3.77976 3.590774,4.157739 5.480656,-4.157739 3.779761,4.157739 6.236607,-4.157739 6.236608,3.96875 6.425591,-3.96875 4.53572,4.157739 5.66964,-4.157739 5.10268,3.590774 5.48065,-3.590774 4.91369,3.96875 5.29167,-3.212799 4.34673,6.425597 -3.40179,4.346726 3.77976,6.992559 -3.77976,4.346726 3.59078,6.803572 -3.77977,6.803565 3.96875,6.04763 -4.15773,7.18154 4.15773,6.80357 -3.77976,4.15774 3.40179,6.04762 -3.2128,3.59078 3.40179,5.29166 -3.96875,5.48066 3.96875,5.85863 -39.6875,11.1503 15.49702,12.28422 -14.74107,6.23661 3.77976,6.04762 -3.59077,-29.48215 5.48065,-5.85863 25.89137,6.80358 -32.12798,7.74851 20.03274,3.59077 2.26786,-18.89881 3.59077,13.98512 4.7247,-13.60714 4.34673,4.15773 0.75595,-6.04761 3.59078,-4.9137 -3.77976,-5.66964 3.96875,-3.59077 -3.96875,-5.29167 3.59077,-3.77976 -3.77976,-5.85863 3.96875,-5.85863 -3.96875,-7.55952 4.15774,-6.61459 -3.59078,-5.669643 3.40179,-6.425594 -3.59078,-5.669642 3.77977,-5.669642 -3.96875,-5.669643 2.07886,-4.913691 -4.34672,2.456844 -4.15774,-4.724701 -5.10268,4.535715 -4.91369,-4.346729 -5.29167,4.346729 -5.85863,-3.96875 -5.10267,3.590771 -5.291671,-3.590771 -6.425594,3.96875 -4.157739,-4.157739 -5.858632,3.77976 -3.779761,-3.77976 -5.480656,3.96875 -3.401785,-4.15774 -3.590774,4.346729 -3.023809,-4.913691 -4.157739,4.535712 -6.425594,-3.023809 0.188989,4.346726 -5.291666,1.511906 4.535712,6.614583 -4.535712,4.913691 4.157736,7.181548 -4.157736,6.425591 4.346725,6.99256 -3.779763,6.04762 3.212798,7.9375 -3.401785,7.55952 3.779761,5.29167 -3.96875,7.55953 3.96875,8.88244 -3.590774,7.9375 3.401788,6.61458 -3.96875,6.99256 3.96875,5.85863 -3.779764,5.48065 4.157739,4.34673 -0.566965,5.85863 4.15774,-3.2128 3.590771,3.96875 4.346728,-3.40178 3.779761,3.77976 3.96875,-4.91369 4.913691,4.7247 3.401785,-3.77976 5.669642,3.59077 5.291667,-3.96875 5.669642,4.15774 4.157744,-3.96875 3.40178,1.32292 12.85119,-36.85268 3.2128,21.73363 8.50446,-22.1116 6.99256,5.66964 -33.45089,18.14285 11.33929,4.91369 7.55952,-27.78125 4.7247,14.55209 -22.86756,-10.39435 15.68601,17.76488 -16.25297,-1.13393 10.20536,-21.16666"
         id="path3073"
         inkscape:connector-curvature="0" />
      <path
         inkscape:connector-curvature="0"
         id="path3071"
         d="m 104.51042,158.09375 26.64732,7.18154 -29.29316,8.31548 9.07143,12.28423 -8.69345,2.45684 v 6.04762 l -6.425596,-3.77976 -5.291667,3.77976 -6.047621,-4.15774 -4.724701,4.15774 -5.102678,-4.34672 -3.96875,4.15773 -3.968749,-3.59077 -3.96875,3.59077 -3.590775,-3.59077 -3.590774,3.77976 -2.267857,-4.7247 -4.913691,-1.32292 3.401788,-5.10268 -3.96875,-5.85863 3.96875,-6.04762 -3.590775,-6.2366 3.779761,-8.12649 -4.157736,-7.74851 3.96875,-7.18155 -3.590775,-8.12649 3.590775,-6.23661 -3.779764,-6.80357 3.96875,-7.74851 -3.779761,-6.99256 3.779761,-5.48065 -3.96875,-8.315477 4.346726,-5.858632 -3.96875,-4.535715 3.590774,-4.724702 -2.267857,-6.614583 6.047621,1.700893 2.834819,-3.590774 3.590775,3.968749 4.724701,-4.346725 3.212798,3.77976 3.779761,-3.77976 3.590774,4.157739 5.480656,-4.157739 3.779761,4.157739 6.236607,-4.157739 6.236608,3.96875 6.425591,-3.96875 4.53572,4.157739 5.66964,-4.157739 5.10268,3.590774 5.48065,-3.590774 4.91369,3.96875 5.29167,-3.212799 4.34673,6.425597 -3.40179,4.346726 3.77976,6.992559 -3.77976,4.346726 3.59078,6.803572 -3.77977,6.803565 3.96875,6.04763 -4.15773,7.18154 4.15773,6.80357 -3.77976,4.15774 3.40179,6.04762 -3.2128,3.59078 3.40179,5.29166 -3.96875,5.48066 3.96875,5.85863 -39.6875,11.1503 15.49702,12.28422 -14.74107,6.23661 3.77976,6.04762 -3.59077,-29.48215 5.48065,-5.85863 25.89137,6.80358 -32.12798,7.74851 20.03274,3.59077 2.26786,-18.89881 3.59077,13.98512 4.7247,-13.60714 4.34673,4.15773 0.75595,-6.04761 3.59078,-4.9137 -3.77976,-5.66964 3.96875,-3.59077 -3.96875,-5.29167 3.59077,-3.77976 -3.77976,-5.85863 3.96875,-5.85863 -3.96875,-7.55952 4.15774,-6.61459 -3.59078,-5.669643 3.40179,-6.425594 -3.59078,-5.669642 3.77977,-5.669642 -3.96875,-5.669643 2.07886,-4.913691 -4.34672,2.456844 -4.15774,-4.724701 -5.10268,4.535715 -4.91369,-4.346729 -5.29167,4.346729 -5.85863,-3.96875 -5.10267,3.590771 -5.291671,-3.590771 -6.425594,3.96875 -4.157739,-4.157739 -5.858632,3.77976 -3.779761,-3.77976 -5.480656,3.96875 -3.401785,-4.15774 -3.590774,4.346729 -3.023809,-4.913691 -4.157739,4.535712 -6.425594,-3.023809 0.188989,4.346726 -5.291666,1.511906 4.535712,6.614583 -4.535712,4.913691 4.157736,7.181548 -4.157736,6.425591 4.346725,6.99256 -3.779763,6.04762 3.212798,7.9375 -3.401785,7.55952 3.779761,5.29167 -3.96875,7.55953 3.96875,8.88244 -3.590774,7.9375 3.401788,6.61458 -3.96875,6.99256 3.96875,5.85863 -3.779764,5.48065 4.157739,4.34673 -0.566965,5.85863 4.15774,-3.2128 3.590771,3.96875 4.346728,-3.40178 3.779761,3.77976 3.96875,-4.91369 4.913691,4.7247 3.401785,-3.77976 5.669642,3.59077 5.291667,-3.96875 5.669642,4.15774 4.157744,-3.96875 3.40178,1.32292 12.85119,-36.85268 3.2128,21.73363 8.50446,-22.1116 6.99256,5.66964 -33.45089,18.14285 11.33929,4.91369 7.55952,-27.78125 4.7247,14.55209 -22.86756,-10.39435 15.68601,17.76488 -16.25297,-1.13393 10.20536,-21.16666"
         style="fill:none;stroke:#000000;stroke-width:1;stroke-linecap:round;stroke-linejoin:round;stroke-opacity:1;stroke-miterlimit:4;stroke-dasharray:none" />
    </g>
  </g>
</svg>
