<?xml version="1.0" encoding="UTF-8" standalone="no"?>
<!-- Created with Inkscape (http://www.inkscape.org/) -->

<svg
   xmlns:dc="http://purl.org/dc/elements/1.1/"
   xmlns:cc="http://creativecommons.org/ns#"
   xmlns:rdf="http://www.w3.org/1999/02/22-rdf-syntax-ns#"
   xmlns:svg="http://www.w3.org/2000/svg"
   xmlns="http://www.w3.org/2000/svg"
   xmlns:sodipodi="http://sodipodi.sourceforge.net/DTD/sodipodi-0.dtd"
   xmlns:inkscape="http://www.inkscape.org/namespaces/inkscape"
   width="210mm"
   height="297mm"
   viewBox="0 0 210 297"
   version="1.1"
   id="svg1659"
   inkscape:version="0.92.2 2405546, 2018-03-11"
   sodipodi:docname="arrow.svg">
  <defs
     id="defs1653">
    <filter
       inkscape:collect="always"
       style="color-interpolation-filters:sRGB"
       id="filter2292"
       x="-0.0075158408"
       width="1.0150317"
       y="-0.029749196"
       height="1.0594984">
      <feGaussianBlur
         inkscape:collect="always"
         stdDeviation="0.36427456"
         id="feGaussianBlur2294" />
    </filter>
  </defs>
  <sodipodi:namedview
     id="base"
     pagecolor="#ffffff"
     bordercolor="#666666"
     borderopacity="1.0"
     inkscape:pageopacity="0.0"
     inkscape:pageshadow="2"
     inkscape:zoom="1"
     inkscape:cx="-505.33697"
     inkscape:cy="1331.3622"
     inkscape:document-units="mm"
     inkscape:current-layer="layer1"
     showgrid="false"
     inkscape:window-width="1920"
     inkscape:window-height="1039"
     inkscape:window-x="1920"
     inkscape:window-y="0"
     inkscape:window-maximized="1" />
  <metadata
     id="metadata1656">
    <rdf:RDF>
      <cc:Work
         rdf:about="">
        <dc:format>image/svg+xml</dc:format>
        <dc:type
           rdf:resource="http://purl.org/dc/dcmitype/StillImage" />
        <dc:title></dc:title>
      </cc:Work>
    </rdf:RDF>
  </metadata>
  <g
     inkscape:label="Layer 1"
     inkscape:groupmode="layer"
     id="layer1">
    <g
       id="g2298">
      <path
         style="fill:none;stroke:#000000;stroke-width:1;stroke-linecap:round;stroke-linejoin:round;stroke-opacity:1;stroke-miterlimit:4;stroke-dasharray:none;filter:url(#filter2292)"
         d="m -77.390624,-57.919643 -6.992559,-4.819195 -6.331101,4.913688 -7.559524,-5.008184 -6.236612,4.819198 -8.22098,-4.819198 -6.3311,4.819198 -7.27604,-4.724702 -6.14211,4.913688 -6.04762,-4.724701 -4.91369,4.630208 -5.66965,-4.724702 -5.29166,4.441219 -4.91369,-4.252232 -5.00819,4.346728 -5.76413,-4.630208 -15.78051,8.22098 -3.59077,-9.827379 14.83556,11.717261 -4.63021,3.685267 -4.15774,-19.560267 8.88245,-3.96875 -1.03944,-1.511903 -7.27604,22.111604 8.40997,-5.764136 -11.33929,-8.504465 -4.6302,7.559525 -3.11831,-2.83482 18.80432,-1.795389 -10.48884,-4.252232 10.67783,-0.283483 -4.06325,-3.874254 4.15774,-2.834822 -0.56696,29.387649 -12.85119,-20.410715 -4.15774,5.669642 18.70982,1.700895 5.38616,-4.630208 2.74033,4.724702 2.55134,-4.724702 3.40178,4.913688 3.68527,-4.913688 2.83482,4.724702 5.38616,-4.913691 2.83482,4.819197 2.45685,-4.535715 3.1183,5.008184 3.59078,-5.197173 4.7247,5.008184 4.15774,-4.724701 3.21279,4.724701 2.17337,-5.19717 1.79538,5.19717 1.88988,-5.008184 2.55134,4.913691 1.98438,-4.724702 2.55134,4.724702 1.22842,-4.913691 3.1183,4.630208 1.22843,-4.724701 2.36235,4.913691 2.36235,-4.630209 2.36235,4.724702 1.889882,-4.630208 2.929313,4.630208 1.889882,-4.819195 3.212798,4.819195 1.795386,-4.913691 1.889882,4.819198 2.645833,-4.724702 2.456844,4.630208 1.322917,-4.535715 0.377978,2.929316 -3.874256,1.889879 -6.614584,-4.819195 -3.496281,4.535715 -2.551337,-4.91369 -1.606399,5.008184 -3.023809,-4.819198 -1.228424,4.724704 -2.834825,-4.535715 -1.70089,4.724702 -2.55134,-4.630208 -1.5119,4.630208 -2.26786,-4.535715 -1.70089,4.724704 -2.55134,-4.724704 -1.88988,4.157739 -2.64584,-4.063243 -1.88988,4.252232 -2.83482,-4.630208 -2.64583,4.913688 -3.49628,-4.913688 -3.2128,4.724702 -3.59077,-4.535715 -3.77977,4.630208 -3.30729,-4.913691 -3.49628,4.724704 -3.68526,-4.535715 -4.63021,4.441219 -4.91369,-4.346725 -1.88988,4.441221 -2.55134,-4.441221 -4.15774,4.441221 -3.02381,-4.252232 -11.71726,9.35491 9.4494,-12.567708 -11.24479,-0.944941 -2.17336,9.732888 13.32366,-13.701638"
         id="path2290"
         inkscape:connector-curvature="0" />
      <path
         inkscape:connector-curvature="0"
         id="path2269"
         d="m -77.390624,-57.919643 -6.992559,-4.819195 -6.331101,4.913688 -7.559524,-5.008184 -6.236612,4.819198 -8.22098,-4.819198 -6.3311,4.819198 -7.27604,-4.724702 -6.14211,4.913688 -6.04762,-4.724701 -4.91369,4.630208 -5.66965,-4.724702 -5.29166,4.441219 -4.91369,-4.252232 -5.00819,4.346728 -5.76413,-4.630208 -15.78051,8.22098 -3.59077,-9.827379 14.83556,11.717261 -4.63021,3.685267 -4.15774,-19.560267 8.88245,-3.96875 -1.03944,-1.511903 -7.27604,22.111604 8.40997,-5.764136 -11.33929,-8.504465 -4.6302,7.559525 -3.11831,-2.83482 18.80432,-1.795389 -10.48884,-4.252232 10.67783,-0.283483 -4.06325,-3.874254 4.15774,-2.834822 -0.56696,29.387649 -12.85119,-20.410715 -4.15774,5.669642 18.70982,1.700895 5.38616,-4.630208 2.74033,4.724702 2.55134,-4.724702 3.40178,4.913688 3.68527,-4.913688 2.83482,4.724702 5.38616,-4.913691 2.83482,4.819197 2.45685,-4.535715 3.1183,5.008184 3.59078,-5.197173 4.7247,5.008184 4.15774,-4.724701 3.21279,4.724701 2.17337,-5.19717 1.79538,5.19717 1.88988,-5.008184 2.55134,4.913691 1.98438,-4.724702 2.55134,4.724702 1.22842,-4.913691 3.1183,4.630208 1.22843,-4.724701 2.36235,4.913691 2.36235,-4.630209 2.36235,4.724702 1.889882,-4.630208 2.929313,4.630208 1.889882,-4.819195 3.212798,4.819195 1.795386,-4.913691 1.889882,4.819198 2.645833,-4.724702 2.456844,4.630208 1.322917,-4.535715 0.377978,2.929316 -3.874256,1.889879 -6.614584,-4.819195 -3.496281,4.535715 -2.551337,-4.91369 -1.606399,5.008184 -3.023809,-4.819198 -1.228424,4.724704 -2.834825,-4.535715 -1.70089,4.724702 -2.55134,-4.630208 -1.5119,4.630208 -2.26786,-4.535715 -1.70089,4.724704 -2.55134,-4.724704 -1.88988,4.157739 -2.64584,-4.063243 -1.88988,4.252232 -2.83482,-4.630208 -2.64583,4.913688 -3.49628,-4.913688 -3.2128,4.724702 -3.59077,-4.535715 -3.77977,4.630208 -3.30729,-4.913691 -3.49628,4.724704 -3.68526,-4.535715 -4.63021,4.441219 -4.91369,-4.346725 -1.88988,4.441221 -2.55134,-4.441221 -4.15774,4.441221 -3.02381,-4.252232 -11.71726,9.35491 9.4494,-12.567708 -11.24479,-0.944941 -2.17336,9.732888 13.32366,-13.701638"
         style="fill:none;stroke:#000000;stroke-width:1;stroke-linecap:round;stroke-linejoin:round;stroke-opacity:1;stroke-miterlimit:4;stroke-dasharray:none" />
    </g>
  </g>
</svg>
