<?xml version="1.0" encoding="UTF-8" standalone="no"?>
<!-- Created with Inkscape (http://www.inkscape.org/) -->

<svg
   xmlns:dc="http://purl.org/dc/elements/1.1/"
   xmlns:cc="http://creativecommons.org/ns#"
   xmlns:rdf="http://www.w3.org/1999/02/22-rdf-syntax-ns#"
   xmlns:svg="http://www.w3.org/2000/svg"
   xmlns="http://www.w3.org/2000/svg"
   xmlns:sodipodi="http://sodipodi.sourceforge.net/DTD/sodipodi-0.dtd"
   xmlns:inkscape="http://www.inkscape.org/namespaces/inkscape"
   width="210mm"
   height="297mm"
   viewBox="0 0 210 297"
   version="1.1"
   id="svg2306"
   inkscape:version="0.92.2 2405546, 2018-03-11"
   sodipodi:docname="curved_arrow_double.svg">
  <defs
     id="defs2300">
    <filter
       inkscape:collect="always"
       style="color-interpolation-filters:sRGB"
       id="filter2977"
       x="-0.016807568"
       width="1.0336151"
       y="-0.0094300895"
       height="1.0188602">
      <feGaussianBlur
         inkscape:collect="always"
         stdDeviation="0.2097768"
         id="feGaussianBlur2979" />
    </filter>
    <filter
       inkscape:collect="always"
       style="color-interpolation-filters:sRGB"
       id="filter2981"
       x="-0.01724272"
       width="1.0344854"
       y="-0.0094804284"
       height="1.0189609">
      <feGaussianBlur
         inkscape:collect="always"
         stdDeviation="0.2097768"
         id="feGaussianBlur2983" />
    </filter>
  </defs>
  <sodipodi:namedview
     id="base"
     pagecolor="#ffffff"
     bordercolor="#666666"
     borderopacity="1.0"
     inkscape:pageopacity="0.0"
     inkscape:pageshadow="2"
     inkscape:zoom="2.8"
     inkscape:cx="-527.67881"
     inkscape:cy="882.5414"
     inkscape:document-units="mm"
     inkscape:current-layer="layer1"
     showgrid="false"
     inkscape:snap-nodes="true"
     inkscape:object-nodes="false"
     inkscape:window-width="1920"
     inkscape:window-height="1039"
     inkscape:window-x="1920"
     inkscape:window-y="0"
     inkscape:window-maximized="1" />
  <metadata
     id="metadata2303">
    <rdf:RDF>
      <cc:Work
         rdf:about="">
        <dc:format>image/svg+xml</dc:format>
        <dc:type
           rdf:resource="http://purl.org/dc/dcmitype/StillImage" />
        <dc:title></dc:title>
      </cc:Work>
    </rdf:RDF>
  </metadata>
  <g
     inkscape:label="Layer 1"
     inkscape:groupmode="layer"
     id="layer1">
    <g
       id="g2989">
      <path
         style="fill:none;stroke:#000000;stroke-width:0.5;stroke-linecap:round;stroke-linejoin:round;stroke-opacity:1;stroke-miterlimit:4;stroke-dasharray:none;filter:url(#filter2977)"
         d="m -146.18229,70.592261 c -0.18899,0.377976 -1.6064,3.023809 -1.6064,3.023809 l 4.91369,-0.283482 -0.66146,4.441221 4.15774,-0.661458 -1.32292,3.401785 -3.96875,-0.566965 -0.28348,4.724702 -3.40178,-0.566963 1.03943,1.511903 0.56697,-3.874254 4.34672,0.944939 -0.94494,-3.874254 h 4.06325 l -5.95313,-2.267858 -6.80357,2.929316 -4.8192,-4.913691 -6.80357,-1.41741 -0.94494,-7.843006 -4.34673,-3.874257 3.49629,-6.80357 -0.75596,-6.614586 6.04762,-2.645833 3.68527,-5.858629 6.80357,1.700892 4.7247,-3.023809 4.34673,3.496278 -7.27604,2.74033 1.79538,2.645833 0.75596,-4.724704 5.76413,-3.118303 -6.04761,-2.173364 1.03943,-3.874254 -3.11831,-0.661458 0.0945,2.551337 5.48065,0.472472 -1.22842,9.35491 -4.63021,2.267857 1.32292,-3.779763 6.99256,-2.83482 -6.61458,-2.267857 -1.03944,2.55134 -3.49628,-2.834823 -1.32291,3.590774 -2.92932,-2.645833 -1.03943,4.063243 -4.15774,-1.606399 0.28348,4.063246 -3.96875,-0.661458 0.75595,4.441219 -4.34673,1.511905 2.07888,3.401785 -3.77977,2.362351 3.68527,2.645833 -2.92932,5.197174 h 3.59078 l -2.55134,4.063243 4.15774,-0.661458 -1.88988,3.779763 3.87425,-0.755954 -0.28348,4.441221 3.49628,-1.795388 v 4.252233 l 3.77976,-2.078869 0.66146,3.779761 3.40179,-2.83482 1.70089,3.212798 2.17336,-2.834822 0.85045,2.55134 4.06324,-4.724704 0.0945,6.614583 -6.4256,1.606399 1.51191,2.929316 5.95312,-9.921875 h -4.91369 l 0.56696,-4.913691 -3.30729,0.661459 1.7009,3.212798 6.99256,3.685267 -7.55953,1.228424 -2.45684,-3.118305 -6.14212,2.267857 -0.0945,-4.157736 -4.15774,2.078868 -0.0945,-4.724702 -4.06325,1.228421"
         id="path2973"
         inkscape:connector-curvature="0" />
      <path
         style="fill:none;stroke:#000000;stroke-width:0.5;stroke-linecap:round;stroke-linejoin:round;stroke-opacity:1;stroke-miterlimit:4;stroke-dasharray:none;filter:url(#filter2981)"
         d="m -146.56027,31.944196 c 0,0.472469 0.28349,4.157736 0.28349,4.157736 l 5.19717,0.755955 -0.66146,6.142111 -3.87425,-0.377976 -2.45685,2.929316 1.13393,1.795386 1.70089,-0.850445 0.56696,-5.480656 3.77977,1.322917 0.85044,-4.535713 -4.53571,0.09449 -0.75595,2.740326 -2.36236,-2.645833 -1.22842,3.401785 -3.40178,-2.740327 -1.7009,3.496281 -4.53571,-1.417412 0.37798,3.401787 -4.25224,-0.661458 0.56697,4.063243 -4.06325,0.377976 1.41741,3.779763 -3.87425,2.173362 2.64583,3.96875 -3.30729,5.291666 4.8192,3.496281 -1.7009,3.874257 5.38616,1.41741 1.7009,5.102677 3.77976,-1.889879 2.17336,4.25223 4.91369,-2.551337 1.98438,2.929315 1.41741,-2.834822 1.98437,5.858632 -5.10268,2.267857 7.84301,-8.031996 -7.27604,-5.953125"
         id="path2975"
         inkscape:connector-curvature="0" />
      <path
         inkscape:connector-curvature="0"
         id="path2916"
         d="m -146.18229,70.592261 c -0.18899,0.377976 -1.6064,3.023809 -1.6064,3.023809 l 4.91369,-0.283482 -0.66146,4.441221 4.15774,-0.661458 -1.32292,3.401785 -3.96875,-0.566965 -0.28348,4.724702 -3.40178,-0.566963 1.03943,1.511903 0.56697,-3.874254 4.34672,0.944939 -0.94494,-3.874254 h 4.06325 l -5.95313,-2.267858 -6.80357,2.929316 -4.8192,-4.913691 -6.80357,-1.41741 -0.94494,-7.843006 -4.34673,-3.874257 3.49629,-6.80357 -0.75596,-6.614586 6.04762,-2.645833 3.68527,-5.858629 6.80357,1.700892 4.7247,-3.023809 4.34673,3.496278 -7.27604,2.74033 1.79538,2.645833 0.75596,-4.724704 5.76413,-3.118303 -6.04761,-2.173364 1.03943,-3.874254 -3.11831,-0.661458 0.0945,2.551337 5.48065,0.472472 -1.22842,9.35491 -4.63021,2.267857 1.32292,-3.779763 6.99256,-2.83482 -6.61458,-2.267857 -1.03944,2.55134 -3.49628,-2.834823 -1.32291,3.590774 -2.92932,-2.645833 -1.03943,4.063243 -4.15774,-1.606399 0.28348,4.063246 -3.96875,-0.661458 0.75595,4.441219 -4.34673,1.511905 2.07888,3.401785 -3.77977,2.362351 3.68527,2.645833 -2.92932,5.197174 h 3.59078 l -2.55134,4.063243 4.15774,-0.661458 -1.88988,3.779763 3.87425,-0.755954 -0.28348,4.441221 3.49628,-1.795388 v 4.252233 l 3.77976,-2.078869 0.66146,3.779761 3.40179,-2.83482 1.70089,3.212798 2.17336,-2.834822 0.85045,2.55134 4.06324,-4.724704 0.0945,6.614583 -6.4256,1.606399 1.51191,2.929316 5.95312,-9.921875 h -4.91369 l 0.56696,-4.913691 -3.30729,0.661459 1.7009,3.212798 6.99256,3.685267 -7.55953,1.228424 -2.45684,-3.118305 -6.14212,2.267857 -0.0945,-4.157736 -4.15774,2.078868 -0.0945,-4.724702 -4.06325,1.228421"
         style="fill:none;stroke:#000000;stroke-width:0.5;stroke-linecap:round;stroke-linejoin:round;stroke-opacity:1;stroke-miterlimit:4;stroke-dasharray:none" />
      <path
         inkscape:connector-curvature="0"
         id="path2918"
         d="m -146.56027,31.944196 c 0,0.472469 0.28349,4.157736 0.28349,4.157736 l 5.19717,0.755955 -0.66146,6.142111 -3.87425,-0.377976 -2.45685,2.929316 1.13393,1.795386 1.70089,-0.850445 0.56696,-5.480656 3.77977,1.322917 0.85044,-4.535713 -4.53571,0.09449 -0.75595,2.740326 -2.36236,-2.645833 -1.22842,3.401785 -3.40178,-2.740327 -1.7009,3.496281 -4.53571,-1.417412 0.37798,3.401787 -4.25224,-0.661458 0.56697,4.063243 -4.06325,0.377976 1.41741,3.779763 -3.87425,2.173362 2.64583,3.96875 -3.30729,5.291666 4.8192,3.496281 -1.7009,3.874257 5.38616,1.41741 1.7009,5.102677 3.77976,-1.889879 2.17336,4.25223 4.91369,-2.551337 1.98438,2.929315 1.41741,-2.834822 1.98437,5.858632 -5.10268,2.267857 7.84301,-8.031996 -7.27604,-5.953125"
         style="fill:none;stroke:#000000;stroke-width:0.5;stroke-linecap:round;stroke-linejoin:round;stroke-opacity:1;stroke-miterlimit:4;stroke-dasharray:none" />
    </g>
  </g>
</svg>
