<?xml version="1.0" encoding="UTF-8" standalone="no"?>
<!-- Created with Inkscape (http://www.inkscape.org/) -->

<svg
   xmlns:dc="http://purl.org/dc/elements/1.1/"
   xmlns:cc="http://creativecommons.org/ns#"
   xmlns:rdf="http://www.w3.org/1999/02/22-rdf-syntax-ns#"
   xmlns:svg="http://www.w3.org/2000/svg"
   xmlns="http://www.w3.org/2000/svg"
   xmlns:sodipodi="http://sodipodi.sourceforge.net/DTD/sodipodi-0.dtd"
   xmlns:inkscape="http://www.inkscape.org/namespaces/inkscape"
   width="210mm"
   height="297mm"
   viewBox="0 0 210 297"
   version="1.1"
   id="svg8"
   inkscape:version="0.92.2 2405546, 2018-03-11"
   sodipodi:docname="curved_arrow2.svg">
  <defs
     id="defs2">
    <filter
       inkscape:collect="always"
       style="color-interpolation-filters:sRGB"
       id="filter963"
       x="-0.025775147"
       width="1.0515503"
       y="-0.022453609"
       height="1.0449072">
      <feGaussianBlur
         inkscape:collect="always"
         stdDeviation="1.1834993"
         id="feGaussianBlur965" />
    </filter>
  </defs>
  <sodipodi:namedview
     id="base"
     pagecolor="#ffffff"
     bordercolor="#666666"
     borderopacity="1.0"
     inkscape:pageopacity="0.0"
     inkscape:pageshadow="2"
     inkscape:zoom="1.623047"
     inkscape:cx="-271.42854"
     inkscape:cy="894.28569"
     inkscape:document-units="mm"
     inkscape:current-layer="layer1"
     showgrid="false"
     inkscape:window-width="1920"
     inkscape:window-height="1039"
     inkscape:window-x="0"
     inkscape:window-y="0"
     inkscape:window-maximized="1" />
  <metadata
     id="metadata5">
    <rdf:RDF>
      <cc:Work
         rdf:about="">
        <dc:format>image/svg+xml</dc:format>
        <dc:type
           rdf:resource="http://purl.org/dc/dcmitype/StillImage" />
        <dc:title></dc:title>
      </cc:Work>
    </rdf:RDF>
  </metadata>
  <g
     inkscape:label="Layer 1"
     inkscape:groupmode="layer"
     id="layer1">
    <path
       inkscape:connector-curvature="0"
       id="path957"
       d="m -124.87059,-2.1351628 19.56197,27.0607288 36.678702,-7.498756 -1.304134,34.23345 34.396468,20.703088 -24.289448,38.797912 -1.304131,-21.02912 14.345446,33.58138 16.464661,-33.907413 6.683673,11.574163 4.238427,-10.922098 2.445247,2.119215 -35.048533,27.223743 -14.182431,-30.158041 -7.824788,7.498757 -1.304131,-4.401444 5.216525,-2.608262 5.868591,16.62768 31.136139,5.05351 7.987806,-21.518173 6.357641,6.357639 -39.123945,16.464664 18.257842,4.89049 -10.10702,3.42334 5.705576,1.14112 -4.401444,0.65207 -9.944002,-33.09234 21.355153,25.26755 3.586361,-25.430565 7.172723,14.019415 3.912394,-13.693383 4.727477,4.238427 -51.187161,7.661776 34.559486,-13.367352 -24.778499,-7.009706 21.192135,-17.605775 -26.245645,-1.630164 16.464661,-21.355155 -28.364862,3.586363 1.304134,-31.788205 -24.289451,14.345446 -5.542553,-28.03882683 -16.46467,22.65928483 -5.70557,-4.727477 14.34545,-18.74689 9.944,27.549778 23.148332,-15.975611 -6.520656,25.756598 29.832005,-5.542561 -10.433049,27.712794 26.245645,-1.956196 -19.724989,17.116726 25.593582,9.454951 -24.452466,7.498758 29.668991,15.64958 -30.484074,-28.201845 16.138628,-27.386761 -29.668991,-2.608265 1.141113,-32.603286 -20.051021,16.301643 -3.749376,-29.016925 -16.790694,21.02912 -14.34545,-19.2359392 7.82479,-6.8466903 23.311354,31.2991565 33.581384,-4.890494 16.953709,22.007218 9.617969,67.162768 -35.048534,-12.71528 35.537584,-21.355151 -26.89771,-10.596068 15.48656,-24.289448 -33.255352,-3.260331 -6.031608,-34.23345 -23.148336,17.442758 -18.25784,-12.552265 18.09483,-12.715282 20.214033,34.7225 37.167748,0.978098 -16.464661,20.703087 29.179943,5.216528 -20.703088,14.997512 25.919613,10.433052 -25.267547,26.40866 25.267547,-22.496266"
       style="fill:none;stroke:#000000;stroke-width:1;stroke-linecap:round;stroke-linejoin:round;stroke-opacity:1;stroke-miterlimit:4;stroke-dasharray:none;filter:url(#filter963)" />
    <path
       style="fill:none;stroke:#000000;stroke-width:1;stroke-linecap:round;stroke-linejoin:round;stroke-opacity:1;stroke-miterlimit:4;stroke-dasharray:none"
       d="m -124.87059,-2.1351628 19.56197,27.0607288 36.678702,-7.498756 -1.304134,34.23345 34.396468,20.703088 -24.289448,38.797912 -1.304131,-21.02912 14.345446,33.58138 16.464661,-33.907413 6.683673,11.574163 4.238427,-10.922098 2.445247,2.119215 -35.048533,27.223743 -14.182431,-30.158041 -7.824788,7.498757 -1.304131,-4.401444 5.216525,-2.608262 5.868591,16.62768 31.136139,5.05351 7.987806,-21.518173 6.357641,6.357639 -39.123945,16.464664 18.257842,4.89049 -10.10702,3.42334 5.705576,1.14112 -4.401444,0.65207 -9.944002,-33.09234 21.355153,25.26755 3.586361,-25.430565 7.172723,14.019415 3.912394,-13.693383 4.727477,4.238427 -51.187161,7.661776 34.559486,-13.367352 -24.778499,-7.009706 21.192135,-17.605775 -26.245645,-1.630164 16.464661,-21.355155 -28.364862,3.586363 1.304134,-31.788205 -24.289451,14.345446 -5.542553,-28.03882683 -16.46467,22.65928483 -5.70557,-4.727477 14.34545,-18.74689 9.944,27.549778 23.148332,-15.975611 -6.520656,25.756598 29.832005,-5.542561 -10.433049,27.712794 26.245645,-1.956196 -19.724989,17.116726 25.593582,9.454951 -24.452466,7.498758 29.668991,15.64958 -30.484074,-28.201845 16.138628,-27.386761 -29.668991,-2.608265 1.141113,-32.603286 -20.051021,16.301643 -3.749376,-29.016925 -16.790694,21.02912 -14.34545,-19.2359392 7.82479,-6.8466903 23.311354,31.2991565 33.581384,-4.890494 16.953709,22.007218 9.617969,67.162768 -35.048534,-12.71528 35.537584,-21.355151 -26.89771,-10.596068 15.48656,-24.289448 -33.255352,-3.260331 -6.031608,-34.23345 -23.148336,17.442758 -18.25784,-12.552265 18.09483,-12.715282 20.214033,34.7225 37.167748,0.978098 -16.464661,20.703087 29.179943,5.216528 -20.703088,14.997512 25.919613,10.433052 -25.267547,26.40866 25.267547,-22.496266"
       id="path955"
       inkscape:connector-curvature="0" />
  </g>
</svg>
