<?xml version="1.0" encoding="UTF-8" standalone="no"?>
<!-- Created with Inkscape (http://www.inkscape.org/) -->

<svg
   xmlns:dc="http://purl.org/dc/elements/1.1/"
   xmlns:cc="http://creativecommons.org/ns#"
   xmlns:rdf="http://www.w3.org/1999/02/22-rdf-syntax-ns#"
   xmlns:svg="http://www.w3.org/2000/svg"
   xmlns="http://www.w3.org/2000/svg"
   xmlns:sodipodi="http://sodipodi.sourceforge.net/DTD/sodipodi-0.dtd"
   xmlns:inkscape="http://www.inkscape.org/namespaces/inkscape"
   width="210mm"
   height="297mm"
   viewBox="0 0 210 297"
   version="1.1"
   id="svg8"
   inkscape:version="0.92.2 2405546, 2018-03-11"
   sodipodi:docname="curved_arrow.svg">
  <defs
     id="defs2">
    <filter
       inkscape:collect="always"
       style="color-interpolation-filters:sRGB"
       id="filter905"
       x="-0.0076904766"
       width="1.015381"
       y="-0.02729577"
       height="1.0545915">
      <feGaussianBlur
         inkscape:collect="always"
         stdDeviation="0.4316403"
         id="feGaussianBlur907" />
    </filter>
  </defs>
  <sodipodi:namedview
     id="base"
     pagecolor="#ffffff"
     bordercolor="#666666"
     borderopacity="1.0"
     inkscape:pageopacity="0.0"
     inkscape:pageshadow="2"
     inkscape:zoom="1.4"
     inkscape:cx="334.28653"
     inkscape:cy="566.84467"
     inkscape:document-units="mm"
     inkscape:current-layer="layer1"
     showgrid="false"
     inkscape:window-width="1920"
     inkscape:window-height="1039"
     inkscape:window-x="0"
     inkscape:window-y="0"
     inkscape:window-maximized="1" />
  <metadata
     id="metadata5">
    <rdf:RDF>
      <cc:Work
         rdf:about="">
        <dc:format>image/svg+xml</dc:format>
        <dc:type
           rdf:resource="http://purl.org/dc/dcmitype/StillImage" />
        <dc:title />
      </cc:Work>
    </rdf:RDF>
  </metadata>
  <g
     inkscape:label="Layer 1"
     inkscape:groupmode="layer"
     id="layer1">
    <g
       id="g823">
      <path
         inkscape:connector-curvature="0"
         id="path903"
         d="m 39.892388,141.31157 2.539061,-7.08264 8.018084,1.33634 4.543584,-7.88445 11.759858,2.00452 5.479026,-6.81537 8.953529,4.14268 6.548102,-5.61266 9.755338,4.94448 8.8199,-4.81085 7.88445,6.28084 10.82441,-3.0736 5.61266,7.48354 8.15172,-2.80633 3.60814,7.88445 8.68626,-1.46998 2.53906,8.68626 h 8.15172 l 1.20271,8.55263 9.62171,2.27179 -5.07812,-6.1472 5.07812,-6.41447 -4.14268,-3.0736 -1.46998,2.93996 5.34539,6.1472 -6.01357,9.75534 -6.28083,-5.21176 -4.14268,5.21176 -2.93996,-2.93996 2.13815,-2.40543 5.47903,5.21176 5.47902,-8.95353 -7.34991,-0.26727 -2.00452,-9.08717 -7.88445,0.80181 -3.0736,-8.28535 -8.55263,2.13815 -4.81085,-7.88445 -8.95353,2.93997 -8.15172,-7.34991 -8.68625,4.54358 -7.750823,-5.7463 -6.414468,5.07812 -8.018084,-4.27631 -6.013567,5.34539 -10.289876,-3.74177 -8.018084,8.15172 -12.294399,-1.20271 -2.53906,8.41899 -7.349909,-0.26727 2.539056,-3.20724 12.962572,-1.33634 8.418992,-8.95353 10.824413,3.07359 6.013567,-6.01356 8.15172,4.54358 6.548104,-5.87993 8.151716,5.34539 8.68626,-4.27631 8.55263,6.68174 9.35443,-3.20723 5.7463,7.75081 9.22079,-1.87088 3.34087,8.15172 8.55263,-1.20272 1.46998,8.68626 8.15172,0.13364 v 11.75986 l -7.75081,-6.1472 -3.0736,4.94448 15.90253,0.53454 2.80633,-1.20271 -5.21175,-10.95805 3.34086,-7.08264 1.87089,6.41446 -10.15624,13.09621 -0.13364,-5.34539 10.42352,-0.80181 -5.47903,-2.40542 -6.28083,1.33634"
         style="fill:none;stroke:#000000;stroke-width:1;stroke-linecap:round;stroke-linejoin:round;stroke-miterlimit:4;stroke-dasharray:none;stroke-opacity:1;filter:url(#filter905)" />
      <path
         style="fill:none;stroke:#000000;stroke-width:1;stroke-linecap:round;stroke-linejoin:round;stroke-miterlimit:4;stroke-dasharray:none;stroke-opacity:1"
         d="m 39.892388,141.31157 2.539061,-7.08264 8.018084,1.33634 4.543584,-7.88445 11.759858,2.00452 5.479026,-6.81537 8.953529,4.14268 6.548102,-5.61266 9.755338,4.94448 8.8199,-4.81085 7.88445,6.28084 10.82441,-3.0736 5.61266,7.48354 8.15172,-2.80633 3.60814,7.88445 8.68626,-1.46998 2.53906,8.68626 h 8.15172 l 1.20271,8.55263 9.62171,2.27179 -5.07812,-6.1472 5.07812,-6.41447 -4.14268,-3.0736 -1.46998,2.93996 5.34539,6.1472 -6.01357,9.75534 -6.28083,-5.21176 -4.14268,5.21176 -2.93996,-2.93996 2.13815,-2.40543 5.47903,5.21176 5.47902,-8.95353 -7.34991,-0.26727 -2.00452,-9.08717 -7.88445,0.80181 -3.0736,-8.28535 -8.55263,2.13815 -4.81085,-7.88445 -8.95353,2.93997 -8.15172,-7.34991 -8.68625,4.54358 -7.750823,-5.7463 -6.414468,5.07812 -8.018084,-4.27631 -6.013567,5.34539 -10.289876,-3.74177 -8.018084,8.15172 -12.294399,-1.20271 -2.53906,8.41899 -7.349909,-0.26727 2.539056,-3.20724 12.962572,-1.33634 8.418992,-8.95353 10.824413,3.07359 6.013567,-6.01356 8.15172,4.54358 6.548104,-5.87993 8.151716,5.34539 8.68626,-4.27631 8.55263,6.68174 9.35443,-3.20723 5.7463,7.75081 9.22079,-1.87088 3.34087,8.15172 8.55263,-1.20272 1.46998,8.68626 8.15172,0.13364 v 11.75986 l -7.75081,-6.1472 -3.0736,4.94448 15.90253,0.53454 2.80633,-1.20271 -5.21175,-10.95805 3.34086,-7.08264 1.87089,6.41446 -10.15624,13.09621 -0.13364,-5.34539 10.42352,-0.80181 -5.47903,-2.40542 -6.28083,1.33634"
         id="path901"
         inkscape:connector-curvature="0" />
    </g>
  </g>
</svg>
