<?xml version="1.0" encoding="UTF-8" standalone="no"?>
<!-- Created with Inkscape (http://www.inkscape.org/) -->

<svg
   xmlns:dc="http://purl.org/dc/elements/1.1/"
   xmlns:cc="http://creativecommons.org/ns#"
   xmlns:rdf="http://www.w3.org/1999/02/22-rdf-syntax-ns#"
   xmlns:svg="http://www.w3.org/2000/svg"
   xmlns="http://www.w3.org/2000/svg"
   xmlns:sodipodi="http://sodipodi.sourceforge.net/DTD/sodipodi-0.dtd"
   xmlns:inkscape="http://www.inkscape.org/namespaces/inkscape"
   width="210mm"
   height="297mm"
   viewBox="0 0 210 297"
   version="1.1"
   id="svg8"
   inkscape:version="0.92.2 2405546, 2018-03-11"
   sodipodi:docname="curved_arrow_with_focus.svg">
  <defs
     id="defs2">
    <filter
       height="1.0545915"
       y="-0.02729577"
       width="1.015381"
       x="-0.0076904766"
       id="filter905"
       style="color-interpolation-filters:sRGB"
       inkscape:collect="always">
      <feGaussianBlur
         id="feGaussianBlur907"
         stdDeviation="0.4316403"
         inkscape:collect="always" />
    </filter>
    <filter
       height="1.0480357"
       y="-0.024017835"
       width="1.0479644"
       x="-0.023982192"
       id="filter3062"
       style="color-interpolation-filters:sRGB"
       inkscape:collect="always">
      <feGaussianBlur
         id="feGaussianBlur3064"
         stdDeviation="1.2728349"
         inkscape:collect="always" />
    </filter>
  </defs>
  <sodipodi:namedview
     id="base"
     pagecolor="#ffffff"
     bordercolor="#666666"
     borderopacity="1.0"
     inkscape:pageopacity="0.0"
     inkscape:pageshadow="2"
     inkscape:zoom="0.35"
     inkscape:cx="348.94487"
     inkscape:cy="522.90253"
     inkscape:document-units="mm"
     inkscape:current-layer="layer1"
     showgrid="false"
     inkscape:window-width="1920"
     inkscape:window-height="1039"
     inkscape:window-x="0"
     inkscape:window-y="0"
     inkscape:window-maximized="1"
     inkscape:object-nodes="false" />
  <metadata
     id="metadata5">
    <rdf:RDF>
      <cc:Work
         rdf:about="">
        <dc:format>image/svg+xml</dc:format>
        <dc:type
           rdf:resource="http://purl.org/dc/dcmitype/StillImage" />
        <dc:title />
      </cc:Work>
    </rdf:RDF>
  </metadata>
  <g
     inkscape:label="Layer 1"
     inkscape:groupmode="layer"
     id="layer1">
    <g
       id="layer1-3"
       inkscape:label="Layer 1"
       transform="translate(157.07569,2.0545456)">
      <g
         id="g912">
        <path
           style="fill:none;stroke:#000000;stroke-width:1;stroke-linecap:round;stroke-linejoin:round;stroke-miterlimit:4;stroke-dasharray:none;stroke-opacity:1;filter:url(#filter905)"
           d="m -99.958802,139.04371 2.539061,-7.08264 8.018084,1.33634 4.543584,-7.88445 11.759858,2.00452 5.479026,-6.81537 8.953529,4.14268 6.548102,-5.61266 9.755338,4.94448 8.819896,-4.81085 7.88445,6.28084 10.824415,-3.0736 5.6126604,7.48354 8.1517205,-2.80633 3.6081386,7.88445 8.6862595,-1.46998 2.53906,8.68626 h 8.151721 l 1.202713,8.55263 9.621704,2.27179 -5.078122,-6.1472 5.078122,-6.41447 -4.14268,-3.0736 -1.469982,2.93996 5.34539,6.1472 -6.013564,9.75534 -6.280833,-5.21176 -4.142677,5.21176 -2.939965,-2.93996 2.138156,-2.40543 5.479025,5.21176 5.479025,-8.95353 -7.349912,-0.26727 -2.004521,-9.08717 -7.884451,0.80181 -3.0735995,-8.28535 -8.5526246,2.13815 -4.8108515,-7.88445 -8.9535294,2.93997 -8.15172,-7.34991 -8.686259,4.54358 -7.750818,-5.7463 -6.414468,5.07812 -8.018084,-4.27631 -6.013567,5.34539 -10.289876,-3.74177 -8.018084,8.15172 -12.294399,-1.20271 -2.53906,8.41899 -7.349909,-0.26727 2.539056,-3.20724 12.962572,-1.33634 8.418992,-8.95353 10.824413,3.07359 6.013567,-6.01356 8.15172,4.54358 6.548104,-5.87993 8.151719,5.34539 8.68626,-4.27631 8.552625,6.68174 9.354433,-3.20723 5.7462948,7.75081 9.2207986,-1.87088 3.3408688,8.15172 8.5526248,-1.20272 1.469983,8.68626 8.15172,0.13364 v 11.75986 l -7.750816,-6.1472 -3.0736,4.94448 15.902537,0.53454 2.80633,-1.20271 -5.211755,-10.95805 3.340868,-7.08264 1.870887,6.41446 -10.156242,13.09621 -0.133635,-5.34539 10.423513,-0.80181 -5.479026,-2.40542 -6.280834,1.33634"
           id="path903"
           inkscape:connector-curvature="0" />
        <path
           style="fill:none;stroke:#000000;stroke-width:1;stroke-linecap:round;stroke-linejoin:round;stroke-miterlimit:4;stroke-dasharray:none;stroke-opacity:1"
           d="m -99.958802,139.04371 2.539061,-7.08264 8.018084,1.33634 4.543584,-7.88445 11.759858,2.00452 5.479026,-6.81537 8.953529,4.14268 6.548102,-5.61266 9.755338,4.94448 8.819896,-4.81085 7.88445,6.28084 10.824415,-3.0736 5.6126604,7.48354 8.1517205,-2.80633 3.6081386,7.88445 8.6862595,-1.46998 2.53906,8.68626 h 8.151721 l 1.202713,8.55263 9.621704,2.27179 -5.078122,-6.1472 5.078122,-6.41447 -4.14268,-3.0736 -1.469982,2.93996 5.34539,6.1472 -6.013564,9.75534 -6.280833,-5.21176 -4.142677,5.21176 -2.939965,-2.93996 2.138156,-2.40543 5.479025,5.21176 5.479025,-8.95353 -7.349912,-0.26727 -2.004521,-9.08717 -7.884451,0.80181 -3.0735995,-8.28535 -8.5526246,2.13815 -4.8108515,-7.88445 -8.9535294,2.93997 -8.15172,-7.34991 -8.686259,4.54358 -7.750818,-5.7463 -6.414468,5.07812 -8.018084,-4.27631 -6.013567,5.34539 -10.289876,-3.74177 -8.018084,8.15172 -12.294399,-1.20271 -2.53906,8.41899 -7.349909,-0.26727 2.539056,-3.20724 12.962572,-1.33634 8.418992,-8.95353 10.824413,3.07359 6.013567,-6.01356 8.15172,4.54358 6.548104,-5.87993 8.151719,5.34539 8.68626,-4.27631 8.552625,6.68174 9.354433,-3.20723 5.7462948,7.75081 9.2207986,-1.87088 3.3408688,8.15172 8.5526248,-1.20272 1.469983,8.68626 8.15172,0.13364 v 11.75986 l -7.750816,-6.1472 -3.0736,4.94448 15.902537,0.53454 2.80633,-1.20271 -5.211755,-10.95805 3.340868,-7.08264 1.870887,6.41446 -10.156242,13.09621 -0.133635,-5.34539 10.423513,-0.80181 -5.479026,-2.40542 -6.280834,1.33634"
           id="path899"
           inkscape:connector-curvature="0" />
        <path
           inkscape:connector-curvature="0"
           id="path901"
           d="m -99.958802,139.04371 2.539061,-7.08264 8.018084,1.33634 4.543584,-7.88445 11.759858,2.00452 5.479026,-6.81537 8.953529,4.14268 6.548102,-5.61266 9.755338,4.94448 8.819896,-4.81085 7.88445,6.28084 10.824415,-3.0736 5.6126604,7.48354 8.1517205,-2.80633 3.6081386,7.88445 8.6862595,-1.46998 2.53906,8.68626 h 8.151721 l 1.202713,8.55263 9.621704,2.27179 -5.078122,-6.1472 5.078122,-6.41447 -4.14268,-3.0736 -1.469982,2.93996 5.34539,6.1472 -6.013564,9.75534 -6.280833,-5.21176 -4.142677,5.21176 -2.939965,-2.93996 2.138156,-2.40543 5.479025,5.21176 5.479025,-8.95353 -7.349912,-0.26727 -2.004521,-9.08717 -7.884451,0.80181 -3.0735995,-8.28535 -8.5526246,2.13815 -4.8108515,-7.88445 -8.9535294,2.93997 -8.15172,-7.34991 -8.686259,4.54358 -7.750818,-5.7463 -6.414468,5.07812 -8.018084,-4.27631 -6.013567,5.34539 -10.289876,-3.74177 -8.018084,8.15172 -12.294399,-1.20271 -2.53906,8.41899 -7.349909,-0.26727 2.539056,-3.20724 12.962572,-1.33634 8.418992,-8.95353 10.824413,3.07359 6.013567,-6.01356 8.15172,4.54358 6.548104,-5.87993 8.151719,5.34539 8.68626,-4.27631 8.552625,6.68174 9.354433,-3.20723 5.7462948,7.75081 9.2207986,-1.87088 3.3408688,8.15172 8.5526248,-1.20272 1.469983,8.68626 8.15172,0.13364 v 11.75986 l -7.750816,-6.1472 -3.0736,4.94448 15.902537,0.53454 2.80633,-1.20271 -5.211755,-10.95805 3.340868,-7.08264 1.870887,6.41446 -10.156242,13.09621 -0.133635,-5.34539 10.423513,-0.80181 -5.479026,-2.40542 -6.280834,1.33634"
           style="fill:none;stroke:#000000;stroke-width:1;stroke-linecap:round;stroke-linejoin:round;stroke-miterlimit:4;stroke-dasharray:none;stroke-opacity:1" />
      </g>
    </g>
    <path
       inkscape:connector-curvature="0"
       id="path3032"
       d="m -206.14354,56.05362 -6.9926,-20.03274 4.5358,-15.875 2.0788,-14.17411 7.5596,-7.18155 11.1502,-15.68601 10.2054,-2.834811 8.1265,-6.80357 10.0164,0.75595 8.1265,-3.77976 5.8586,3.02381 10.0163,-1.70089 4.9137,4.7247 8.6935,-0.18899 4.3467,6.04762 9.0714,2.456841 3.7798,8.12649 7.370504,4.7247 1.8899,8.88244 6.2366,7.9375 -0.189,10.01637 3.5908,11.15029 -3.4018,6.04762 0.945,10.01637 -5.2917,5.85863 v 6.61458 l -5.6697,3.77977 -2.078804,7.74851 -8.1265,3.77976 -3.0238,6.4256 -6.9926,0.94494 -1.7009,4.34671 -7.1815,-0.18898 -4.1578,4.53572 -8.1264,-1.7009 -5.2917,3.77976 -5.8586,-3.02379 -6.2366,2.45684 -5.2917,-4.15774 -7.1816,1.5119 -6.4255,-6.61458 h -7.1816 l -3.9688,-6.80357 -7.1815,-2.64584 -2.0789,-7.37053 -6.4256,-4.34673 -0.7559,-7.18155 -5.6697,-6.04762 -0.1889,-16.25297 -1.134,-16.81994 6.2366,-10.77232 6.0477,-15.30804 11.7172,-7.9375 7.9375,-8.504451 9.6384,-1.32292 10.0164,-5.48066 8.6934,2.07888 7.3706,-2.45685 8.1265,4.15774 7.7485,-1.13393 5.1026,5.85863 7.3706,0.56696 5.4806,7.181541 8.3155,4.53571 2.078904,8.12649 7.5595,6.23661 0.189,9.4494 5.1027,10.96131 -1.8899,8.12649 2.0789,11.1503 -4.3468,4.15774 -0.378,10.20535 -5.4806,3.40179 -0.9449,7.18155 -5.480704,2.45684 -4.1577,8.50447 -8.6935,2.64583 -1.8899,4.91369 -5.6696,-0.18899 -3.5908,4.34674 -7.5595,-0.56697 -6.0476,3.77975 -6.2366,-1.88986 -5.2917,2.64583 -6.0476,-3.4018 -6.4256,1.7009 -6.4256,-5.66965 -6.6146,1.32292 -6.2366,-7.74851 -5.8586,-0.37798 -3.2128,-7.37053 -6.4256,-3.2128 -2.0789,-8.31548 -6.4256,-4.53571 V 50.006 l -4.7247,-7.37054 2.8348,-9.07143 -2.6458,-6.99256 3.9688,-5.85863 -0.945,-7.9375 5.2917,-5.10268 0.3779,-7.37053 6.6146,-3.77976 3.5908,-8.50447 7.9375,-2.64583 2.8348,-5.858621 9.6384,-1.32292 8.5045,-6.42559 9.2604,1.70089 7.9375,-3.02381 6.6146,3.02381 8.8824,-0.75595 6.2366,4.7247"
       style="fill:none;stroke:#000000;stroke-width:3.46029949;stroke-linecap:round;stroke-linejoin:round;stroke-miterlimit:4;stroke-dasharray:none;stroke-opacity:1;filter:url(#filter3062)"
       transform="matrix(0.1900793,0,0,0.21529497,74.069485,137.9504)" />
    <path
       style="fill:none;stroke:#000000;stroke-width:1;stroke-linecap:round;stroke-linejoin:round;stroke-miterlimit:4;stroke-dasharray:none;stroke-opacity:1"
       d="m 34.484959,150.1521 -1.32914,-4.31295 0.86215,-3.41781 0.39515,-3.05161 1.43692,-1.54615 2.11942,-3.37712 1.93983,-0.61032 1.54468,-1.46478 1.90391,0.16276 1.54469,-0.81377 1.11359,0.65101 1.9039,-0.36619 0.93399,1.0172 1.652453,-0.0407 0.826216,1.30202 1.724276,0.52895 0.718467,1.74959 1.400978,1.0172 0.359239,1.91235 1.185443,1.7089 -0.03594,2.15648 0.682538,2.4006 -0.646609,1.30202 0.17962,2.15647 -1.005835,1.26134 v 1.42408 l -1.077693,0.81377 -0.395144,1.66821 -1.544669,0.81377 -0.574763,1.3834 -1.329158,0.20344 -0.323298,0.93582 -1.365062,-0.0407 -0.790309,0.97652 -1.54465,-0.36619 -1.00585,0.81376 -1.11361,-0.65101 -1.18544,0.52895 -1.00585,-0.89514 -1.36507,0.3255 -1.22135,-1.42408 h -1.36507 l -0.75438,-1.46478 -1.36507,-0.56963 -0.39515,-1.58684 -1.22137,-0.93583 -0.14368,-1.54615 -1.07769,-1.30203 -0.0359,-3.49918 -0.21554,-3.62125 1.18544,-2.31922 1.14954,-3.29575 2.2272,-1.7089 1.50876,-1.83097 1.83205,-0.28481 1.90392,-1.17996 1.65243,0.44757 1.401,-0.52895 1.54468,0.89514 1.472829,-0.24413 0.969894,1.26134 1.401004,0.12206 1.041751,1.54615 1.580599,0.97651 0.395155,1.7496 1.436908,1.3427 0.03594,2.03441 0.969907,2.35992 -0.359227,1.74959 0.395156,2.4006 -0.826241,0.89515 -0.07188,2.19716 -1.041751,0.73238 -0.179608,1.54616 -1.041764,0.52894 -0.790286,1.83097 -1.652457,0.56963 -0.359239,1.0579 -1.077668,-0.0407 -0.682537,0.93583 -1.436905,-0.12206 -1.14952,0.81376 -1.18545,-0.40688 -1.00585,0.56963 -1.14952,-0.73238 -1.22138,0.36619 -1.22137,-1.22065 -1.2573,0.28482 -1.18544,-1.66821 -1.1136,-0.0814 -0.61069,-1.58684 -1.22137,-0.6917 -0.39516,-1.79028 -1.22137,-0.97652 v -2.11578 l -0.89807,-1.58684 0.53883,-1.95304 -0.50291,-1.50546 0.75439,-1.26133 -0.17962,-1.70891 1.00583,-1.09858 0.0719,-1.58684 1.2573,-0.81376 0.68253,-1.83097 1.50876,-0.56963 0.53883,-1.26134 1.83206,-0.28481 1.61653,-1.3834 1.76022,0.36619 1.50875,-0.65101 1.25731,0.65101 1.68835,-0.16275 1.185447,1.01721"
       id="path3018"
       inkscape:connector-curvature="0" />
  </g>
</svg>
