<?xml version="1.0" encoding="UTF-8" standalone="no"?>
<!-- Created with Inkscape (http://www.inkscape.org/) -->

<svg
   xmlns:dc="http://purl.org/dc/elements/1.1/"
   xmlns:cc="http://creativecommons.org/ns#"
   xmlns:rdf="http://www.w3.org/1999/02/22-rdf-syntax-ns#"
   xmlns:svg="http://www.w3.org/2000/svg"
   xmlns="http://www.w3.org/2000/svg"
   xmlns:sodipodi="http://sodipodi.sourceforge.net/DTD/sodipodi-0.dtd"
   xmlns:inkscape="http://www.inkscape.org/namespaces/inkscape"
   width="210mm"
   height="297mm"
   viewBox="0 0 210 297"
   version="1.1"
   id="svg8"
   inkscape:version="0.92.2 2405546, 2018-03-11"
   sodipodi:docname="curved_arrow.svg">
  <defs
     id="defs2">
    <filter
       inkscape:collect="always"
       style="color-interpolation-filters:sRGB"
       id="filter905"
       x="-0.0076904766"
       width="1.015381"
       y="-0.02729577"
       height="1.0545915">
      <feGaussianBlur
         inkscape:collect="always"
         stdDeviation="0.4316403"
         id="feGaussianBlur907" />
    </filter>
  </defs>
  <sodipodi:namedview
     id="base"
     pagecolor="#ffffff"
     bordercolor="#666666"
     borderopacity="1.0"
     inkscape:pageopacity="0.0"
     inkscape:pageshadow="2"
     inkscape:zoom="1.979899"
     inkscape:cx="-83.455692"
     inkscape:cy="573.83625"
     inkscape:document-units="mm"
     inkscape:current-layer="layer1"
     showgrid="false"
     inkscape:window-width="1920"
     inkscape:window-height="1039"
     inkscape:window-x="0"
     inkscape:window-y="0"
     inkscape:window-maximized="1" />
  <metadata
     id="metadata5">
    <rdf:RDF>
      <cc:Work
         rdf:about="">
        <dc:format>image/svg+xml</dc:format>
        <dc:type
           rdf:resource="http://purl.org/dc/dcmitype/StillImage" />
        <dc:title></dc:title>
      </cc:Work>
    </rdf:RDF>
  </metadata>
  <g
     inkscape:label="Layer 1"
     inkscape:groupmode="layer"
     id="layer1">
    <g
       id="g912">
      <path
         inkscape:connector-curvature="0"
         id="path903"
         d="m -99.958802,139.04371 2.539061,-7.08264 8.018084,1.33634 4.543584,-7.88445 11.759858,2.00452 5.479026,-6.81537 8.953529,4.14268 6.548102,-5.61266 9.755338,4.94448 8.819896,-4.81085 7.88445,6.28084 10.824415,-3.0736 5.6126604,7.48354 8.1517205,-2.80633 3.6081386,7.88445 8.6862595,-1.46998 2.53906,8.68626 h 8.151721 l 1.202713,8.55263 9.621704,2.27179 -5.078122,-6.1472 5.078122,-6.41447 -4.14268,-3.0736 -1.469982,2.93996 5.34539,6.1472 -6.013564,9.75534 -6.280833,-5.21176 -4.142677,5.21176 -2.939965,-2.93996 2.138156,-2.40543 5.479025,5.21176 5.479025,-8.95353 -7.349912,-0.26727 -2.004521,-9.08717 -7.884451,0.80181 -3.0735995,-8.28535 -8.5526246,2.13815 -4.8108515,-7.88445 -8.9535294,2.93997 -8.15172,-7.34991 -8.686259,4.54358 -7.750818,-5.7463 -6.414468,5.07812 -8.018084,-4.27631 -6.013567,5.34539 -10.289876,-3.74177 -8.018084,8.15172 -12.294399,-1.20271 -2.53906,8.41899 -7.349909,-0.26727 2.539056,-3.20724 12.962572,-1.33634 8.418992,-8.95353 10.824413,3.07359 6.013567,-6.01356 8.15172,4.54358 6.548104,-5.87993 8.151719,5.34539 8.68626,-4.27631 8.552625,6.68174 9.354433,-3.20723 5.7462948,7.75081 9.2207986,-1.87088 3.3408688,8.15172 8.5526248,-1.20272 1.469983,8.68626 8.15172,0.13364 v 11.75986 l -7.750816,-6.1472 -3.0736,4.94448 15.902537,0.53454 2.80633,-1.20271 -5.211755,-10.95805 3.340868,-7.08264 1.870887,6.41446 -10.156242,13.09621 -0.133635,-5.34539 10.423513,-0.80181 -5.479026,-2.40542 -6.280834,1.33634"
         style="fill:none;stroke:#000000;stroke-width:1;stroke-linecap:round;stroke-linejoin:round;stroke-opacity:1;stroke-miterlimit:4;stroke-dasharray:none;filter:url(#filter905)" />
      <path
         inkscape:connector-curvature="0"
         id="path899"
         d="m -99.958802,139.04371 2.539061,-7.08264 8.018084,1.33634 4.543584,-7.88445 11.759858,2.00452 5.479026,-6.81537 8.953529,4.14268 6.548102,-5.61266 9.755338,4.94448 8.819896,-4.81085 7.88445,6.28084 10.824415,-3.0736 5.6126604,7.48354 8.1517205,-2.80633 3.6081386,7.88445 8.6862595,-1.46998 2.53906,8.68626 h 8.151721 l 1.202713,8.55263 9.621704,2.27179 -5.078122,-6.1472 5.078122,-6.41447 -4.14268,-3.0736 -1.469982,2.93996 5.34539,6.1472 -6.013564,9.75534 -6.280833,-5.21176 -4.142677,5.21176 -2.939965,-2.93996 2.138156,-2.40543 5.479025,5.21176 5.479025,-8.95353 -7.349912,-0.26727 -2.004521,-9.08717 -7.884451,0.80181 -3.0735995,-8.28535 -8.5526246,2.13815 -4.8108515,-7.88445 -8.9535294,2.93997 -8.15172,-7.34991 -8.686259,4.54358 -7.750818,-5.7463 -6.414468,5.07812 -8.018084,-4.27631 -6.013567,5.34539 -10.289876,-3.74177 -8.018084,8.15172 -12.294399,-1.20271 -2.53906,8.41899 -7.349909,-0.26727 2.539056,-3.20724 12.962572,-1.33634 8.418992,-8.95353 10.824413,3.07359 6.013567,-6.01356 8.15172,4.54358 6.548104,-5.87993 8.151719,5.34539 8.68626,-4.27631 8.552625,6.68174 9.354433,-3.20723 5.7462948,7.75081 9.2207986,-1.87088 3.3408688,8.15172 8.5526248,-1.20272 1.469983,8.68626 8.15172,0.13364 v 11.75986 l -7.750816,-6.1472 -3.0736,4.94448 15.902537,0.53454 2.80633,-1.20271 -5.211755,-10.95805 3.340868,-7.08264 1.870887,6.41446 -10.156242,13.09621 -0.133635,-5.34539 10.423513,-0.80181 -5.479026,-2.40542 -6.280834,1.33634"
         style="fill:none;stroke:#000000;stroke-width:1;stroke-linecap:round;stroke-linejoin:round;stroke-opacity:1;stroke-miterlimit:4;stroke-dasharray:none" />
      <path
         style="fill:none;stroke:#000000;stroke-width:1;stroke-linecap:round;stroke-linejoin:round;stroke-opacity:1;stroke-miterlimit:4;stroke-dasharray:none"
         d="m -99.958802,139.04371 2.539061,-7.08264 8.018084,1.33634 4.543584,-7.88445 11.759858,2.00452 5.479026,-6.81537 8.953529,4.14268 6.548102,-5.61266 9.755338,4.94448 8.819896,-4.81085 7.88445,6.28084 10.824415,-3.0736 5.6126604,7.48354 8.1517205,-2.80633 3.6081386,7.88445 8.6862595,-1.46998 2.53906,8.68626 h 8.151721 l 1.202713,8.55263 9.621704,2.27179 -5.078122,-6.1472 5.078122,-6.41447 -4.14268,-3.0736 -1.469982,2.93996 5.34539,6.1472 -6.013564,9.75534 -6.280833,-5.21176 -4.142677,5.21176 -2.939965,-2.93996 2.138156,-2.40543 5.479025,5.21176 5.479025,-8.95353 -7.349912,-0.26727 -2.004521,-9.08717 -7.884451,0.80181 -3.0735995,-8.28535 -8.5526246,2.13815 -4.8108515,-7.88445 -8.9535294,2.93997 -8.15172,-7.34991 -8.686259,4.54358 -7.750818,-5.7463 -6.414468,5.07812 -8.018084,-4.27631 -6.013567,5.34539 -10.289876,-3.74177 -8.018084,8.15172 -12.294399,-1.20271 -2.53906,8.41899 -7.349909,-0.26727 2.539056,-3.20724 12.962572,-1.33634 8.418992,-8.95353 10.824413,3.07359 6.013567,-6.01356 8.15172,4.54358 6.548104,-5.87993 8.151719,5.34539 8.68626,-4.27631 8.552625,6.68174 9.354433,-3.20723 5.7462948,7.75081 9.2207986,-1.87088 3.3408688,8.15172 8.5526248,-1.20272 1.469983,8.68626 8.15172,0.13364 v 11.75986 l -7.750816,-6.1472 -3.0736,4.94448 15.902537,0.53454 2.80633,-1.20271 -5.211755,-10.95805 3.340868,-7.08264 1.870887,6.41446 -10.156242,13.09621 -0.133635,-5.34539 10.423513,-0.80181 -5.479026,-2.40542 -6.280834,1.33634"
         id="path901"
         inkscape:connector-curvature="0" />
    </g>
  </g>
</svg>
