<?xml version="1.0" encoding="UTF-8" standalone="no"?>
<!-- Created with Inkscape (http://www.inkscape.org/) -->

<svg
   xmlns:dc="http://purl.org/dc/elements/1.1/"
   xmlns:cc="http://creativecommons.org/ns#"
   xmlns:rdf="http://www.w3.org/1999/02/22-rdf-syntax-ns#"
   xmlns:svg="http://www.w3.org/2000/svg"
   xmlns="http://www.w3.org/2000/svg"
   xmlns:sodipodi="http://sodipodi.sourceforge.net/DTD/sodipodi-0.dtd"
   xmlns:inkscape="http://www.inkscape.org/namespaces/inkscape"
   width="210mm"
   height="297mm"
   viewBox="0 0 210 297"
   version="1.1"
   id="svg1659"
   inkscape:version="0.92.4 5da689c313, 2019-01-14"
   sodipodi:docname="arrow_short (copy 1).svg">
  <defs
     id="defs1653">
    <filter
       inkscape:collect="always"
       style="color-interpolation-filters:sRGB"
       id="filter898"
       x="-0.029577463"
       width="1.0591549"
       y="-0.020192308"
       height="1.0403846">
      <feGaussianBlur
         inkscape:collect="always"
         stdDeviation="1.1817616"
         id="feGaussianBlur900" />
    </filter>
  </defs>
  <sodipodi:namedview
     id="base"
     pagecolor="#ffffff"
     bordercolor="#666666"
     borderopacity="1.0"
     inkscape:pageopacity="0.0"
     inkscape:pageshadow="2"
     inkscape:zoom="0.61411337"
     inkscape:cx="37.214644"
     inkscape:cy="375.62272"
     inkscape:document-units="mm"
     inkscape:current-layer="layer2"
     showgrid="false"
     inkscape:window-width="1920"
     inkscape:window-height="1039"
     inkscape:window-x="0"
     inkscape:window-y="0"
     inkscape:window-maximized="1" />
  <metadata
     id="metadata1656">
    <rdf:RDF>
      <cc:Work
         rdf:about="">
        <dc:format>image/svg+xml</dc:format>
        <dc:type
           rdf:resource="http://purl.org/dc/dcmitype/StillImage" />
        <dc:title />
      </cc:Work>
    </rdf:RDF>
  </metadata>
  <g
     inkscape:label="main"
     inkscape:groupmode="layer"
     id="layer1">
    <path
       style="fill:none;stroke:#000000;stroke-width:1;stroke-linecap:round;stroke-linejoin:round;stroke-opacity:1;stroke-miterlimit:4;stroke-dasharray:none"
       d="m 55.407067,221.47393 5.852505,4.50195 5.402337,-6.30272 5.852549,4.50194 3.826639,-6.30271 6.302747,4.05174 3.151366,-7.20311 7.203096,3.60155 2.251001,-7.8784 7.203103,2.70117 2.02587,-6.75293 6.52783,0.90039 0.22509,-6.75293 6.07764,1.57569 -0.67531,-6.97802 6.30273,0.45019 -1.12546,-8.1035 6.52783,-1.35059 -1.80081,-6.07763 6.97805,-2.25097 -3.15136,-6.52784 5.8525,-1.35057 -3.60155,-6.07764 6.52782,-2.02587 -3.82664,-5.85253 5.17724,-1.3506 -3.82664,-5.62742 5.62741,-1.3506 -4.27687,-7.20311 5.17725,-2.02588 -4.27684,-5.17724 5.62743,-4.27685 -5.62743,-5.85254 5.85252,-2.92626 -4.95215,-4.95214 5.40238,-3.82665 -5.62747,-5.17725 8.10352,-7.428215 -9.00389,-5.177246 4.50193,-4.051746 -2.02588,-4.05176 -5.85251,19.808577 9.9043,-11.705071 -5.62747,-3.826654 3.37647,-2.476063 -3.15138,16.207008 -2.47605,-3.15136 9.6792,-4.051763 -2.251,6.527823 4.05178,-1.12549 v 3.15137 l 1.35059,-0.22509 -11.9302,-7.428218 6.30274,-4.95214 -4.50193,11.930158 5.62743,2.02588 -5.85256,4.27685 5.17727,5.40234 -5.62745,4.50194 5.62745,4.95216 -6.07764,4.72703 4.72705,5.62744 -4.95214,2.25098 4.50193,4.50195 -6.07761,2.25097 3.60155,5.85254 -4.27687,1.80077 3.37646,5.62745 -5.85251,1.57568 3.37646,6.52782 -6.52782,1.80078 3.82664,6.75292 -7.2031,0.90038 2.25096,6.97802 -4.95216,0.4502 1.35061,8.77881 h -7.4282 l 0.45018,7.65331 -5.62741,-2.02588 -0.22514,7.87841 -5.62743,-1.80077 -1.57568,6.97802 -5.85251,-1.80079 -1.575671,7.20313 -7.87843,-2.92628 -4.276866,8.10352 -5.402322,-4.05176 -3.376472,6.07761 -5.852549,-2.92624 -4.501913,4.72702 -4.952155,-4.95213 -5.402322,5.85254 -1.800818,-1.3506 3.601592,-3.82664 6.077611,5.17724 3.826684,-6.30274 6.077596,4.27687 4.051775,-6.07764 5.402337,3.82665 4.276866,-7.42821 6.978005,3.15136 2.476063,-7.65331 7.203129,2.92626 0.67528,-7.8784 5.85252,2.02588 0.67532,-7.20312 5.62741,1.12548 -0.90037,-6.52782 7.2031,-0.4502 -1.35059,-8.32861 5.85256,-1.12548 -1.80079,-6.30272 6.75293,-1.80079 -3.60155,-6.75291 6.52783,-1.57569 -3.15137,-5.40233 5.85251,-2.70117 -3.37646,-5.40235 4.50196,-1.80078 -3.60155,-4.95214 5.85252,-2.47607 -4.50197,-6.07763 4.72706,-2.02588 -4.72706,-1.35058 5.62747,-2.47607 -4.50197,-5.40234 6.07765,-5.62744 -5.17725,-4.27686 4.50193,-3.82665 -5.40233,-5.17725 6.07765,-3.82665 -4.27688,-18.90818 2.7012,44.79439 -6.52784,14.63133 1.1255,19.13329 -9.22901,9.45408 -1.80077,14.40624 -7.42825,1.35059 -4.95209,14.40624 -12.1553,3.60156 -2.47604,7.20311 -7.428244,-2.47608 -3.376457,6.75293 -5.402322,-3.82665 -4.727049,7.87843 -5.852519,-4.50197 -4.051775,6.30274 -4.95214,-4.95215 -5.627429,5.62743 -4.727048,-2.92628"
       id="path885"
       inkscape:connector-curvature="0" />
  </g>
  <g
     inkscape:groupmode="layer"
     id="layer2"
     inkscape:label="back">
    <path
       inkscape:connector-curvature="0"
       id="path887"
       d="m 55.407067,221.47393 5.852505,4.50195 5.402337,-6.30272 5.852549,4.50194 3.826639,-6.30271 6.302747,4.05174 3.151366,-7.20311 7.203096,3.60155 2.251001,-7.8784 7.203103,2.70117 2.02587,-6.75293 6.52783,0.90039 0.22509,-6.75293 6.07764,1.57569 -0.67531,-6.97802 6.30273,0.45019 -1.12546,-8.1035 6.52783,-1.35059 -1.80081,-6.07763 6.97805,-2.25097 -3.15136,-6.52784 5.8525,-1.35057 -3.60155,-6.07764 6.52782,-2.02587 -3.82664,-5.85253 5.17724,-1.3506 -3.82664,-5.62742 5.62741,-1.3506 -4.27687,-7.20311 5.17725,-2.02588 -4.27684,-5.17724 5.62743,-4.27685 -5.62743,-5.85254 5.85252,-2.92626 -4.95215,-4.95214 5.40238,-3.82665 -5.62747,-5.17725 8.10352,-7.428215 -9.00389,-5.177246 4.50193,-4.051746 -2.02588,-4.05176 -5.85251,19.808577 9.9043,-11.705071 -5.62747,-3.826654 3.37647,-2.476063 -3.15138,16.207008 -2.47605,-3.15136 9.6792,-4.051763 -2.251,6.527823 4.05178,-1.12549 v 3.15137 l 1.35059,-0.22509 -11.9302,-7.428218 6.30274,-4.95214 -4.50193,11.930158 5.62743,2.02588 -5.85256,4.27685 5.17727,5.40234 -5.62745,4.50194 5.62745,4.95216 -6.07764,4.72703 4.72705,5.62744 -4.95214,2.25098 4.50193,4.50195 -6.07761,2.25097 3.60155,5.85254 -4.27687,1.80077 3.37646,5.62745 -5.85251,1.57568 3.37646,6.52782 -6.52782,1.80078 3.82664,6.75292 -7.2031,0.90038 2.25096,6.97802 -4.95216,0.4502 1.35061,8.77881 h -7.4282 l 0.45018,7.65331 -5.62741,-2.02588 -0.22514,7.87841 -5.62743,-1.80077 -1.57568,6.97802 -5.85251,-1.80079 -1.575671,7.20313 -7.87843,-2.92628 -4.276866,8.10352 -5.402322,-4.05176 -3.376472,6.07761 -5.852549,-2.92624 -4.501913,4.72702 -4.952155,-4.95213 -5.402322,5.85254 -1.800818,-1.3506 3.601592,-3.82664 6.077611,5.17724 3.826684,-6.30274 6.077596,4.27687 4.051775,-6.07764 5.402337,3.82665 4.276866,-7.42821 6.978005,3.15136 2.476063,-7.65331 7.203129,2.92626 0.67528,-7.8784 5.85252,2.02588 0.67532,-7.20312 5.62741,1.12548 -0.90037,-6.52782 7.2031,-0.4502 -1.35059,-8.32861 5.85256,-1.12548 -1.80079,-6.30272 6.75293,-1.80079 -3.60155,-6.75291 6.52783,-1.57569 -3.15137,-5.40233 5.85251,-2.70117 -3.37646,-5.40235 4.50196,-1.80078 -3.60155,-4.95214 5.85252,-2.47607 -4.50197,-6.07763 4.72706,-2.02588 -4.72706,-1.35058 5.62747,-2.47607 -4.50197,-5.40234 6.07765,-5.62744 -5.17725,-4.27686 4.50193,-3.82665 -5.40233,-5.17725 6.07765,-3.82665 -4.27688,-18.90818 2.7012,44.79439 -6.52784,14.63133 1.1255,19.13329 -9.22901,9.45408 -1.80077,14.40624 -7.42825,1.35059 -4.95209,14.40624 -12.1553,3.60156 -2.47604,7.20311 -7.428244,-2.47608 -3.376457,6.75293 -5.402322,-3.82665 -4.727049,7.87843 -5.852519,-4.50197 -4.051775,6.30274 -4.95214,-4.95215 -5.627429,5.62743 -4.727048,-2.92628"
       style="fill:none;stroke:#000000;stroke-width:1;stroke-linecap:round;stroke-linejoin:round;stroke-opacity:1;stroke-miterlimit:4;stroke-dasharray:none;filter:url(#filter898)" />
  </g>
</svg>
