<?xml version="1.0" encoding="UTF-8" standalone="no"?>
<!-- Created with Inkscape (http://www.inkscape.org/) -->

<svg
   xmlns:dc="http://purl.org/dc/elements/1.1/"
   xmlns:cc="http://creativecommons.org/ns#"
   xmlns:rdf="http://www.w3.org/1999/02/22-rdf-syntax-ns#"
   xmlns:svg="http://www.w3.org/2000/svg"
   xmlns="http://www.w3.org/2000/svg"
   xmlns:sodipodi="http://sodipodi.sourceforge.net/DTD/sodipodi-0.dtd"
   xmlns:inkscape="http://www.inkscape.org/namespaces/inkscape"
   width="210mm"
   height="297mm"
   viewBox="0 0 210 297"
   version="1.1"
   id="svg8"
   inkscape:version="0.92.2 2405546, 2018-03-11"
   sodipodi:docname="curved_arrow2.svg">
  <defs
     id="defs2">
    <filter
       inkscape:collect="always"
       style="color-interpolation-filters:sRGB"
       id="filter963"
       x="-0.025775147"
       width="1.0515503"
       y="-0.022453609"
       height="1.0449072">
      <feGaussianBlur
         inkscape:collect="always"
         stdDeviation="1.1834993"
         id="feGaussianBlur965" />
    </filter>
  </defs>
  <sodipodi:namedview
     id="base"
     pagecolor="#ffffff"
     bordercolor="#666666"
     borderopacity="1.0"
     inkscape:pageopacity="0.0"
     inkscape:pageshadow="2"
     inkscape:zoom="0.20288088"
     inkscape:cx="-385.84566"
     inkscape:cy="630.83204"
     inkscape:document-units="mm"
     inkscape:current-layer="layer1"
     showgrid="false"
     inkscape:window-width="1920"
     inkscape:window-height="1039"
     inkscape:window-x="0"
     inkscape:window-y="0"
     inkscape:window-maximized="1" />
  <metadata
     id="metadata5">
    <rdf:RDF>
      <cc:Work
         rdf:about="">
        <dc:format>image/svg+xml</dc:format>
        <dc:type
           rdf:resource="http://purl.org/dc/dcmitype/StillImage" />
        <dc:title />
      </cc:Work>
    </rdf:RDF>
  </metadata>
  <g
     inkscape:label="Layer 1"
     inkscape:groupmode="layer"
     id="layer1">
    <path
       inkscape:connector-curvature="0"
       id="path957"
       d="m 56.403684,85.241645 19.56197,27.060725 36.678706,-7.49875 -1.30414,34.23345 34.39647,20.70309 -24.28945,38.79791 -1.30413,-21.02912 14.34545,33.58138 16.46466,-33.90741 6.68367,11.57416 4.23843,-10.9221 2.44524,2.11922 -35.04853,27.22374 -14.18243,-30.15804 -7.82479,7.49875 -1.30413,-4.40144 5.21653,-2.60826 5.86859,16.62768 31.13614,5.05351 7.9878,-21.51817 6.35764,6.35763 -39.12394,16.46467 18.25784,4.89049 -10.10702,3.42334 5.70558,1.14112 -4.40145,0.65207 -9.944,-33.09234 21.35515,25.26755 3.58636,-25.43057 7.17273,14.01942 3.91239,-13.69338 4.72748,4.23842 -51.18716,7.66178 34.55948,-13.36735 -24.7785,-7.00971 21.19214,-17.60577 -26.24565,-1.63017 16.46467,-21.35515 -28.36487,3.58636 1.30414,-31.78821 -24.289453,14.34545 -5.542553,-28.038827 -16.46467,22.659287 -5.70557,-4.72748 14.34545,-18.746889 9.944,27.549779 23.148336,-15.975612 -6.52066,25.756602 29.832,-5.54256 -10.43304,27.71279 26.24564,-1.9562 -19.72499,17.11673 25.59358,9.45495 -24.45246,7.49876 29.66899,15.64958 -30.48408,-28.20185 16.13863,-27.38676 -29.66899,-2.60826 1.14111,-32.60329 -20.051016,16.30164 -3.749376,-29.016921 -16.790694,21.029121 -14.34545,-19.23594 7.82479,-6.84669 23.311354,31.29916 33.581382,-4.8905 16.95371,22.00722 9.61797,67.16277 -35.04853,-12.71528 35.53758,-21.35515 -26.89771,-10.59607 15.48656,-24.28945 -33.25535,-3.26033 -6.03161,-34.23345 -23.148336,17.44276 -18.25784,-12.552267 18.09483,-12.715282 20.214033,34.722499 37.167743,0.9781 -16.46466,20.70309 29.17995,5.21652 -20.70309,14.99752 25.91961,10.43305 -25.26755,26.40866 25.26755,-22.49627"
       style="fill:none;stroke:#000000;stroke-width:1;stroke-linecap:round;stroke-linejoin:round;stroke-miterlimit:4;stroke-dasharray:none;stroke-opacity:1;filter:url(#filter963)" />
    <path
       style="fill:none;stroke:#000000;stroke-width:1;stroke-linecap:round;stroke-linejoin:round;stroke-miterlimit:4;stroke-dasharray:none;stroke-opacity:1"
       d="m 56.403684,85.241645 19.56197,27.060725 36.678706,-7.49875 -1.30414,34.23345 34.39647,20.70309 -24.28945,38.79791 -1.30413,-21.02912 14.34545,33.58138 16.46466,-33.90741 6.68367,11.57416 4.23843,-10.9221 2.44524,2.11922 -35.04853,27.22374 -14.18243,-30.15804 -7.82479,7.49875 -1.30413,-4.40144 5.21653,-2.60826 5.86859,16.62768 31.13614,5.05351 7.9878,-21.51817 6.35764,6.35763 -39.12394,16.46467 18.25784,4.89049 -10.10702,3.42334 5.70558,1.14112 -4.40145,0.65207 -9.944,-33.09234 21.35515,25.26755 3.58636,-25.43057 7.17273,14.01942 3.91239,-13.69338 4.72748,4.23842 -51.18716,7.66178 34.55948,-13.36735 -24.7785,-7.00971 21.19214,-17.60577 -26.24565,-1.63017 16.46467,-21.35515 -28.36487,3.58636 1.30414,-31.78821 -24.289453,14.34545 -5.542553,-28.038827 -16.46467,22.659287 -5.70557,-4.72748 14.34545,-18.746889 9.944,27.549779 23.148336,-15.975612 -6.52066,25.756602 29.832,-5.54256 -10.43304,27.71279 26.24564,-1.9562 -19.72499,17.11673 25.59358,9.45495 -24.45246,7.49876 29.66899,15.64958 -30.48408,-28.20185 16.13863,-27.38676 -29.66899,-2.60826 1.14111,-32.60329 -20.051016,16.30164 -3.749376,-29.016921 -16.790694,21.029121 -14.34545,-19.23594 7.82479,-6.84669 23.311354,31.29916 33.581382,-4.8905 16.95371,22.00722 9.61797,67.16277 -35.04853,-12.71528 35.53758,-21.35515 -26.89771,-10.59607 15.48656,-24.28945 -33.25535,-3.26033 -6.03161,-34.23345 -23.148336,17.44276 -18.25784,-12.552267 18.09483,-12.715282 20.214033,34.722499 37.167743,0.9781 -16.46466,20.70309 29.17995,5.21652 -20.70309,14.99752 25.91961,10.43305 -25.26755,26.40866 25.26755,-22.49627"
       id="path955"
       inkscape:connector-curvature="0" />
  </g>
</svg>
