<?xml version="1.0" encoding="UTF-8" standalone="no"?>
<!-- Created with Inkscape (http://www.inkscape.org/) -->

<svg
   xmlns:dc="http://purl.org/dc/elements/1.1/"
   xmlns:cc="http://creativecommons.org/ns#"
   xmlns:rdf="http://www.w3.org/1999/02/22-rdf-syntax-ns#"
   xmlns:svg="http://www.w3.org/2000/svg"
   xmlns="http://www.w3.org/2000/svg"
   xmlns:sodipodi="http://sodipodi.sourceforge.net/DTD/sodipodi-0.dtd"
   xmlns:inkscape="http://www.inkscape.org/namespaces/inkscape"
   width="210mm"
   height="297mm"
   viewBox="0 0 210 297"
   version="1.1"
   id="svg8"
   inkscape:version="0.92.2 2405546, 2018-03-11"
   sodipodi:docname="double_arror_flat.svg">
  <defs
     id="defs2">
    <filter
       inkscape:collect="always"
       style="color-interpolation-filters:sRGB"
       id="filter998"
       x="-0.0081085481"
       width="1.0162171"
       y="-0.023073359"
       height="1.0461467">
      <feGaussianBlur
         inkscape:collect="always"
         stdDeviation="0.94116073"
         id="feGaussianBlur1000" />
    </filter>
  </defs>
  <sodipodi:namedview
     id="base"
     pagecolor="#ffffff"
     bordercolor="#666666"
     borderopacity="1.0"
     inkscape:pageopacity="0.0"
     inkscape:pageshadow="2"
     inkscape:zoom="0.35"
     inkscape:cx="-936.96154"
     inkscape:cy="912.80259"
     inkscape:document-units="mm"
     inkscape:current-layer="layer1"
     showgrid="false"
     inkscape:window-width="1920"
     inkscape:window-height="1039"
     inkscape:window-x="0"
     inkscape:window-y="0"
     inkscape:window-maximized="1"
     inkscape:object-nodes="false" />
  <metadata
     id="metadata5">
    <rdf:RDF>
      <cc:Work
         rdf:about="">
        <dc:format>image/svg+xml</dc:format>
        <dc:type
           rdf:resource="http://purl.org/dc/dcmitype/StillImage" />
        <dc:title />
      </cc:Work>
    </rdf:RDF>
  </metadata>
  <g
     inkscape:label="Layer 1"
     inkscape:groupmode="layer"
     id="layer1">
    <g
       id="g1004"
       transform="matrix(0.72836671,0,0,0.71637922,208.30342,107.04354)"
       style="stroke-width:1.38437414">
      <path
         style="fill:none;stroke:#000000;stroke-width:1.66124892;stroke-linecap:round;stroke-linejoin:round;stroke-miterlimit:4;stroke-dasharray:none;stroke-opacity:1;filter:url(#filter998)"
         d="m -280.26934,31.660713 10.58334,-25.8913682 45.73511,-6.236607 3.59077,-15.8749998 -21.92262,-4.91369 7.9375,58.775297 20.03274,-27.214286 18.52084,27.403273 16.25297,-27.592261 14.74107,27.78125 15.875,-27.9702381 15.30804,28.1592271 13.60714,-28.1592271 11.90625,27.7812491 12.662202,-27.7812491 14.363097,27.9702381 13.418153,-27.78125 38.364582,45.546131 13.04018,-49.5148808 12.4732142,19.2767858 -5.8586308,10.01637 -41.5773814,-25.135418 40.632441,1.700893 -8.126488,33.072917 L -57.074405,10.305059 -69.925593,38.08631 -85.044641,10.494047 -95.816964,36.95238 -109.61309,9.5491066 -120.95238,37.897321 -132.48065,9.9270829 -146.0878,37.708332 l -12.85119,-27.403273 -15.30803,27.403273 -14.55209,-27.592261 -15.49702,27.592261 -18.14286,-27.403273 -36.66369,42.333334 30.99405,18.331844 8.31548,-10.772322 -3.2128,-10.016369 -44.41221,-5.669642 10.39435,-51.5937493 37.23066,-0.5669646 -9.44941,-16.6309521 -16.81994,6.614583 -26.83631,56.885416 40.06548,0.566965 -3.02381,32.505952 -16.63095,-83.532737 -23.24555,46.869046 -1.51188,-21.544642 -5.1027,8.88244 4.53572,10.96131 50.27084,10.961309 5.85863,21.922618 -10.58334,5.480656 -11.15029,-3.779761 7.55952,-92.793155 11.33929,2.456845 -5.66965,27.78125 -43.84524,4.157738 -6.80357,8.315476 11.15031,23.8125 49.89285,13.607142 -10.39435,15.686013 -20.03274,-9.638392 21.35566,-52.1607152 13.98512,28.5372022 15.68601,-28.159226 16.06399,28.348215 14.55208,-28.5372031 14.74107,27.9702381 14.3631,-27.9702381 12.85119,27.7812491 11.90625,-27.7812491 13.98512,27.9702381 10.772318,-27.9702381 15.497024,27.2142861 11.90625,-26.83631 39.687499,38.364584 -40.443451,18.331844 -1.889882,-13.985118 59.7202372,-21.355656 -20.0327382,-35.1517847 -41.010415,-5.8586309 3.401785,7.9374999 32.69494,-7.5595238 -19.65476,47.0580365 -3.023812,34.773809 14.552083,-89.202381 -17.575892,21.1666665 2.267857,-29.8601185 -9.260416,4.91369 -2.267858,14.5520832 22.111607,-15.3080352 -10.205357,28.5372017 33.072917,-5.4806546 -16.441963,60.6651769 -29.482145,-1.322917 10.394347,-18.520833 42.333332,-4.346726 -45.924106,-36.663689 -6.614583,-15.875 37.041666,7.3705359 24.1904755,24.7574401 -37.2306535,50.081845 -15.119048,3.401785 -4.346726,-22.67857 27.403274,11.528274 -15.874999,-22.300596 29.482141,8.504464 -58.586308,-37.0416662 -35.34077,27.9702372 -30.04911,-27.592261 -44.22322,27.403274 -87.31249,-24.190476 -5.66965,13.607143 46.86905,10.961309 -18.14286,21.355655 30.04911,7.181546"
         id="path996"
         inkscape:connector-curvature="0" />
      <path
         inkscape:connector-curvature="0"
         id="path994"
         d="m -280.26934,31.660713 10.58334,-25.8913682 45.73511,-6.236607 3.59077,-15.8749998 -21.92262,-4.91369 7.9375,58.775297 20.03274,-27.214286 18.52084,27.403273 16.25297,-27.592261 14.74107,27.78125 15.875,-27.9702381 15.30804,28.1592271 13.60714,-28.1592271 11.90625,27.7812491 12.662202,-27.7812491 14.363097,27.9702381 13.418153,-27.78125 38.364582,45.546131 13.04018,-49.5148808 12.4732142,19.2767858 -5.8586308,10.01637 -41.5773814,-25.135418 40.632441,1.700893 -8.126488,33.072917 L -57.074405,10.305059 -69.925593,38.08631 -85.044641,10.494047 -95.816964,36.95238 -109.61309,9.5491066 -120.95238,37.897321 -132.48065,9.9270829 -146.0878,37.708332 l -12.85119,-27.403273 -15.30803,27.403273 -14.55209,-27.592261 -15.49702,27.592261 -18.14286,-27.403273 -36.66369,42.333334 30.99405,18.331844 8.31548,-10.772322 -3.2128,-10.016369 -44.41221,-5.669642 10.39435,-51.5937493 37.23066,-0.5669646 -9.44941,-16.6309521 -16.81994,6.614583 -26.83631,56.885416 40.06548,0.566965 -3.02381,32.505952 -16.63095,-83.532737 -23.24555,46.869046 -1.51188,-21.544642 -5.1027,8.88244 4.53572,10.96131 50.27084,10.961309 5.85863,21.922618 -10.58334,5.480656 -11.15029,-3.779761 7.55952,-92.793155 11.33929,2.456845 -5.66965,27.78125 -43.84524,4.157738 -6.80357,8.315476 11.15031,23.8125 49.89285,13.607142 -10.39435,15.686013 -20.03274,-9.638392 21.35566,-52.1607152 13.98512,28.5372022 15.68601,-28.159226 16.06399,28.348215 14.55208,-28.5372031 14.74107,27.9702381 14.3631,-27.9702381 12.85119,27.7812491 11.90625,-27.7812491 13.98512,27.9702381 10.772318,-27.9702381 15.497024,27.2142861 11.90625,-26.83631 39.687499,38.364584 -40.443451,18.331844 -1.889882,-13.985118 59.7202372,-21.355656 -20.0327382,-35.1517847 -41.010415,-5.8586309 3.401785,7.9374999 32.69494,-7.5595238 -19.65476,47.0580365 -3.023812,34.773809 14.552083,-89.202381 -17.575892,21.1666665 2.267857,-29.8601185 -9.260416,4.91369 -2.267858,14.5520832 22.111607,-15.3080352 -10.205357,28.5372017 33.072917,-5.4806546 -16.441963,60.6651769 -29.482145,-1.322917 10.394347,-18.520833 42.333332,-4.346726 -45.924106,-36.663689 -6.614583,-15.875 37.041666,7.3705359 24.1904755,24.7574401 -37.2306535,50.081845 -15.119048,3.401785 -4.346726,-22.67857 27.403274,11.528274 -15.874999,-22.300596 29.482141,8.504464 -58.586308,-37.0416662 -35.34077,27.9702372 -30.04911,-27.592261 -44.22322,27.403274 -87.31249,-24.190476 -5.66965,13.607143 46.86905,10.961309 -18.14286,21.355655 30.04911,7.181546"
         style="fill:none;stroke:#000000;stroke-width:1.66124892;stroke-linecap:round;stroke-linejoin:round;stroke-miterlimit:4;stroke-dasharray:none;stroke-opacity:1" />
    </g>
  </g>
</svg>
