<?xml version="1.0" encoding="UTF-8" standalone="no"?>
<!-- Created with Inkscape (http://www.inkscape.org/) -->

<svg
   xmlns:dc="http://purl.org/dc/elements/1.1/"
   xmlns:cc="http://creativecommons.org/ns#"
   xmlns:rdf="http://www.w3.org/1999/02/22-rdf-syntax-ns#"
   xmlns:svg="http://www.w3.org/2000/svg"
   xmlns="http://www.w3.org/2000/svg"
   xmlns:sodipodi="http://sodipodi.sourceforge.net/DTD/sodipodi-0.dtd"
   xmlns:inkscape="http://www.inkscape.org/namespaces/inkscape"
   width="210mm"
   height="297mm"
   viewBox="0 0 210 297"
   version="1.1"
   id="svg8"
   inkscape:version="0.92.2 2405546, 2018-03-11"
   sodipodi:docname="tiny_arrow.svg">
  <defs
     id="defs2">
    <filter
       inkscape:collect="always"
       style="color-interpolation-filters:sRGB"
       id="filter1228"
       x="-0.01096355"
       width="1.0219271"
       y="-0.013252874"
       height="1.0265057">
      <feGaussianBlur
         inkscape:collect="always"
         stdDeviation="1.4684216"
         id="feGaussianBlur1230" />
    </filter>
  </defs>
  <sodipodi:namedview
     id="base"
     pagecolor="#ffffff"
     bordercolor="#666666"
     borderopacity="1.0"
     inkscape:pageopacity="0.0"
     inkscape:pageshadow="2"
     inkscape:zoom="0.41275709"
     inkscape:cx="-521.852"
     inkscape:cy="238.1814"
     inkscape:document-units="mm"
     inkscape:current-layer="layer1"
     showgrid="false"
     inkscape:window-width="1920"
     inkscape:window-height="1039"
     inkscape:window-x="0"
     inkscape:window-y="0"
     inkscape:window-maximized="1" />
  <metadata
     id="metadata5">
    <rdf:RDF>
      <cc:Work
         rdf:about="">
        <dc:format>image/svg+xml</dc:format>
        <dc:type
           rdf:resource="http://purl.org/dc/dcmitype/StillImage" />
        <dc:title />
      </cc:Work>
    </rdf:RDF>
  </metadata>
  <g
     inkscape:label="Layer 1"
     inkscape:groupmode="layer"
     id="layer1">
    <path
       inkscape:connector-curvature="0"
       id="path1222"
       d="M 256.24149,159.45486 18.848777,278.66065 129.39431,148.75691 220.0722,251.15163 272.54313,202.24668 210.39311,154.3606 48.395507,305.15081 112.07381,319.92419 96.791017,334.69754 62.659447,316.86762 110.54553,275.60407 -48.904934,200.7184 112.07381,125.83272 84.055357,73.871232 100.86643,70.814672 112.07381,97.814272 20.377057,123.79502 151.80907,255.73646 267.95829,177.28479 236.37384,155.88888 119.20578,259.30243 -19.358204,160.98314 111.05496,110.0405 92.206177,70.814672 -35.659844,223.64259 175.24269,151.30404 255.73206,245.03851 247.07179,157.41716 191.0349,253.69874 49.923787,95.776562 112.07381,86.097462 69.281987,84.059762 109.52668,79.474922 -10.188534,251.66103 111.56438,146.20978 206.31768,251.66103 269.48655,188.49217 222.10992,154.3606 6.1131169,265.41555 -32.093864,176.77536 110.54553,302.09426 105.96069,331.13157 76.923387,326.03731 111.05496,288.33974 -23.433614,236.37825 4.0754069,139.07781 111.56438,104.43681 96.791017,68.776965 -30.056154,230.26513 112.07381,139.58723 63.678297,87.625742 105.45127,73.361802 101.88528,332.65983 -43.810674,186.96389 264.90172,168.11511 36.678697,294.96229 152.82793,151.30404 242.48696,247.58563 268.46772,225.6803 195.61973,152.32289 -1.5282831,258.79301 -24.961894,166.58683 112.07381,117.6819 35.659847,109.02165 111.56438,90.172872 76.413957,77.437212 105.45127,75.908932 -43.810674,213.96349 138.56398,257.77415 269.99598,215.49177 183.39349,149.77576 27.509027,286.81145 110.54553,264.39669 13.754507,274.58522 10.697957,131.94584 110.0361,132.45526 -46.867234,207.85037 110.54553,311.77336"
       style="fill:none;stroke:#000000;stroke-width:1.64614069;stroke-linecap:round;stroke-linejoin:round;stroke-miterlimit:4;stroke-dasharray:none;stroke-opacity:1;filter:url(#filter1228)"
       transform="matrix(0.66897164,0,0,0.6674885,31.246162,6.8245798)" />
    <path
       style="fill:none;stroke:#000000;stroke-width:1.10000002;stroke-linecap:round;stroke-linejoin:round;stroke-miterlimit:4;stroke-dasharray:none;stroke-opacity:1"
       d="M 202.66445,113.25886 43.855459,192.82735 117.80729,106.1181 178.46822,174.4654 213.56979,141.82191 171.99319,109.8585 63.621384,210.50923 106.22036,220.37029 95.996608,230.23133 73.163555,218.33007 105.19799,190.78712 -1.4698516,140.8018 106.22036,90.816475 l -18.743548,-34.6837 11.246136,-2.04022 7.497412,18.02193 -61.342525,17.34185 87.924295,88.069385 77.70053,-52.36559 -21.1291,-14.28152 -78.38211,69.02736 -92.695377,-65.627 L 105.53878,80.275345 92.929479,54.092555 7.3907383,156.10343 148.47855,107.81828 l 53.84511,62.56668 -5.79348,-58.48624 -37.48709,64.26685 -94.39933,-105.411235 41.5766,-6.46069 -28.626514,-1.36014 26.922564,-3.06033 -80.086088,114.932245 81.449248,-70.3875 63.38727,70.3875 42.25818,-42.16449 L 179.8314,109.8585 35.335664,183.9864 9.7762773,124.82009 105.19799,208.46902 102.13086,227.85109 82.705726,224.45073 105.53878,199.28804 15.569739,164.60434 33.972494,99.657415 105.87957,76.534945 95.996608,52.732415 11.139447,160.5239 106.22036,99.997455 73.845137,65.313755 101.79007,55.792735 99.404528,228.87119 1.9380639,131.62082 208.4579,119.03948 55.78317,203.70851 133.48371,107.81828 193.46306,172.08514 210.84345,157.46358 162.11022,108.49835 30.223784,179.56593 14.547363,118.01937 106.22036,85.375895 55.101588,79.595275 105.87957,67.013935 82.364932,58.513025 101.79007,57.492915 1.9380639,149.64274 123.94154,178.88586 211.86582,150.66285 153.93121,106.79817 49.648921,198.26792 105.19799,183.30633 40.447537,190.10705 38.402792,94.896915 104.85719,95.236945 -0.10668807,145.56231 105.19799,214.92971"
       id="path1220"
       inkscape:connector-curvature="0" />
  </g>
</svg>
