<?xml version="1.0" encoding="UTF-8" standalone="no"?>
<!-- Created with Inkscape (http://www.inkscape.org/) -->

<svg
   xmlns:dc="http://purl.org/dc/elements/1.1/"
   xmlns:cc="http://creativecommons.org/ns#"
   xmlns:rdf="http://www.w3.org/1999/02/22-rdf-syntax-ns#"
   xmlns:svg="http://www.w3.org/2000/svg"
   xmlns="http://www.w3.org/2000/svg"
   xmlns:sodipodi="http://sodipodi.sourceforge.net/DTD/sodipodi-0.dtd"
   xmlns:inkscape="http://www.inkscape.org/namespaces/inkscape"
   width="210mm"
   height="297mm"
   viewBox="0 0 744.09448819 1052.3622047"
   id="svg2"
   version="1.1"
   inkscape:version="0.92.2 2405546, 2018-03-11"
   sodipodi:docname="RAM2.svg">
  <defs
     id="defs4" />
  <sodipodi:namedview
     id="base"
     pagecolor="#ffffff"
     bordercolor="#666666"
     borderopacity="1.0"
     inkscape:pageopacity="0.0"
     inkscape:pageshadow="2"
     inkscape:zoom="1.0761183"
     inkscape:cx="469.54395"
     inkscape:cy="592.98181"
     inkscape:document-units="px"
     inkscape:current-layer="layer1"
     showgrid="false"
     inkscape:window-width="1920"
     inkscape:window-height="1039"
     inkscape:window-x="1920"
     inkscape:window-y="0"
     inkscape:window-maximized="1" />
  <metadata
     id="metadata7">
    <rdf:RDF>
      <cc:Work
         rdf:about="">
        <dc:format>image/svg+xml</dc:format>
        <dc:type
           rdf:resource="http://purl.org/dc/dcmitype/StillImage" />
        <dc:title />
      </cc:Work>
    </rdf:RDF>
  </metadata>
  <g
     inkscape:label="Layer 1"
     inkscape:groupmode="layer"
     id="layer1">
    <g
       id="g1453">
      <path
         sodipodi:nodetypes="ssccccccccccsscsssscssccccccccccssscccccccccc"
         inkscape:connector-curvature="0"
         id="rect4155"
         d="m 34.434964,352.03507 c -7.345068,0 -13.257812,5.9147 -13.257812,13.25976 v 28.26563 c 0.58649,-0.0721 1.176684,-0.1099 1.767578,-0.11328 8.396528,-1.8e-4 15.203304,6.80659 15.203125,15.20312 1.85e-4,8.39653 -6.806594,15.20331 -15.203125,15.20313 -0.591084,-0.007 -1.181279,-0.0477 -1.767578,-0.12305 v 10.48828 c 0.58649,-0.0721 1.176684,-0.1099 1.767578,-0.11328 8.396531,-1.8e-4 15.20331,6.8066 15.203125,15.20313 1.79e-4,8.39653 -6.806597,15.2033 -15.203125,15.20312 -0.591084,-0.007 -1.181279,-0.0477 -1.767578,-0.12305 v 19.38868 c 0,7.34506 5.912744,13.25781 13.257812,13.25781 H 291.75333 v -23.31055 c 0,-1.95868 1.57647,-3.53516 3.53515,-3.53516 h 5.41406 c 1.95869,0 3.53711,1.57648 3.53711,3.53516 v 23.31055 h 428.67969 c 7.34507,0 13.25781,-5.91275 13.25781,-13.25781 v -19.3125 c -0.30674,0.0249 -0.61418,0.0406 -0.92187,0.0469 -8.39653,1.9e-4 -15.20331,-6.80659 -15.20313,-15.20312 -1.9e-4,-8.39653 6.8066,-15.20332 15.20313,-15.20313 0.30756,0.002 0.61499,0.0128 0.92187,0.0332 v -10.33203 c -0.30674,0.0249 -0.61418,0.0406 -0.92187,0.0469 -8.39653,1.9e-4 -15.20332,-6.8066 -15.20313,-15.20313 -1.8e-4,-8.39653 6.8066,-15.20331 15.20313,-15.20312 0.30756,0.002 0.61499,0.0128 0.92187,0.0332 v -28.18555 c 0,-7.34506 -5.91274,-13.25976 -13.25781,-13.25976 z m -1.482422,125.91211 c 3.904652,4.2e-4 7.069895,3.16566 7.070313,7.07031 -4.18e-4,3.90465 -3.165661,7.06989 -7.070313,7.07031 -3.904652,-4.2e-4 -7.069894,-3.16566 -7.070312,-7.07031 4.18e-4,-3.90465 3.16566,-7.06989 7.070312,-7.07031 z m 701.449218,0 c 3.90542,-6.6e-4 7.07185,3.16489 7.07227,7.07031 -4.2e-4,3.90542 -3.16685,7.07097 -7.07227,7.07031 -3.90465,-4.2e-4 -7.06989,-3.16566 -7.07031,-7.07031 4.2e-4,-3.90465 3.16566,-7.06989 7.07031,-7.07031 z"
         style="opacity:1;fill:#338000;fill-opacity:1;stroke:#454837;stroke-width:3.20000005;stroke-linecap:round;stroke-linejoin:miter;stroke-miterlimit:4;stroke-dasharray:none;stroke-opacity:1" />
      <g
         style="fill:#ffcc00"
         transform="translate(15.274808,190.67374)"
         id="g4358">
        <path
           style="opacity:1;fill:#ffcc00;fill-opacity:1;stroke:none;stroke-width:3.20000005;stroke-linecap:round;stroke-linejoin:miter;stroke-miterlimit:4;stroke-dasharray:none;stroke-opacity:1"
           d="m 262.49517,283.56671 c 1.63975,-0.78271 5.67037,-0.78271 7.31012,0 1.63976,0.78271 2.25875,2.79263 2.25875,2.79263 v 20.86262 h -11.82762 v -20.86262 c 0,0 0.61899,-2.00992 2.25875,-2.79263 z"
           id="rect4267"
           inkscape:connector-curvature="0"
           sodipodi:nodetypes="zzccccz" />
        <path
           sodipodi:nodetypes="zzccccz"
           inkscape:connector-curvature="0"
           id="path4283"
           d="m 245.84589,283.56671 c 1.63975,-0.78271 5.67037,-0.78271 7.31012,0 1.63976,0.78271 2.25875,2.79263 2.25875,2.79263 v 20.86262 h -11.82762 v -20.86262 c 0,0 0.61899,-2.00992 2.25875,-2.79263 z"
           style="opacity:1;fill:#ffcc00;fill-opacity:1;stroke:none;stroke-width:3.20000005;stroke-linecap:round;stroke-linejoin:miter;stroke-miterlimit:4;stroke-dasharray:none;stroke-opacity:1" />
        <path
           style="opacity:1;fill:#ffcc00;fill-opacity:1;stroke:none;stroke-width:3.20000005;stroke-linecap:round;stroke-linejoin:miter;stroke-miterlimit:4;stroke-dasharray:none;stroke-opacity:1"
           d="m 229.19663,283.56671 c 1.63975,-0.78271 5.67037,-0.78271 7.31012,0 1.63976,0.78271 2.25875,2.79263 2.25875,2.79263 v 20.86262 h -11.82762 v -20.86262 c 0,0 0.61899,-2.00992 2.25875,-2.79263 z"
           id="path4300"
           inkscape:connector-curvature="0"
           sodipodi:nodetypes="zzccccz" />
        <path
           sodipodi:nodetypes="zzccccz"
           inkscape:connector-curvature="0"
           id="path4302"
           d="m 212.54737,283.56671 c 1.63975,-0.78271 5.67037,-0.78271 7.31012,0 1.63976,0.78271 2.25875,2.79263 2.25875,2.79263 v 20.86262 h -11.82762 v -20.86262 c 0,0 0.61899,-2.00992 2.25875,-2.79263 z"
           style="opacity:1;fill:#ffcc00;fill-opacity:1;stroke:none;stroke-width:3.20000005;stroke-linecap:round;stroke-linejoin:miter;stroke-miterlimit:4;stroke-dasharray:none;stroke-opacity:1" />
        <path
           style="opacity:1;fill:#ffcc00;fill-opacity:1;stroke:none;stroke-width:3.20000005;stroke-linecap:round;stroke-linejoin:miter;stroke-miterlimit:4;stroke-dasharray:none;stroke-opacity:1"
           d="m 195.89811,283.56671 c 1.63975,-0.78271 5.67037,-0.78271 7.31012,0 1.63976,0.78271 2.25875,2.79263 2.25875,2.79263 v 20.86262 h -11.82762 v -20.86262 c 0,0 0.61899,-2.00992 2.25875,-2.79263 z"
           id="path4304"
           inkscape:connector-curvature="0"
           sodipodi:nodetypes="zzccccz" />
        <path
           sodipodi:nodetypes="zzccccz"
           inkscape:connector-curvature="0"
           id="path4306"
           d="m 179.24885,283.56671 c 1.63975,-0.78271 5.67037,-0.78271 7.31012,0 1.63976,0.78271 2.25875,2.79263 2.25875,2.79263 v 20.86262 H 176.9901 v -20.86262 c 0,0 0.61899,-2.00992 2.25875,-2.79263 z"
           style="opacity:1;fill:#ffcc00;fill-opacity:1;stroke:none;stroke-width:3.20000005;stroke-linecap:round;stroke-linejoin:miter;stroke-miterlimit:4;stroke-dasharray:none;stroke-opacity:1" />
        <path
           style="opacity:1;fill:#ffcc00;fill-opacity:1;stroke:none;stroke-width:3.20000005;stroke-linecap:round;stroke-linejoin:miter;stroke-miterlimit:4;stroke-dasharray:none;stroke-opacity:1"
           d="m 162.59959,283.56671 c 1.63975,-0.78271 5.67037,-0.78271 7.31012,0 1.63976,0.78271 2.25875,2.79263 2.25875,2.79263 v 20.86262 h -11.82762 v -20.86262 c 0,0 0.61899,-2.00992 2.25875,-2.79263 z"
           id="path4308"
           inkscape:connector-curvature="0"
           sodipodi:nodetypes="zzccccz" />
        <path
           sodipodi:nodetypes="zzccccz"
           inkscape:connector-curvature="0"
           id="path4310"
           d="m 145.95032,283.56671 c 1.63975,-0.78271 5.67037,-0.78271 7.31012,0 1.63976,0.78271 2.25875,2.79263 2.25875,2.79263 v 20.86262 h -11.82762 v -20.86262 c 0,0 0.61899,-2.00992 2.25875,-2.79263 z"
           style="opacity:1;fill:#ffcc00;fill-opacity:1;stroke:none;stroke-width:3.20000005;stroke-linecap:round;stroke-linejoin:miter;stroke-miterlimit:4;stroke-dasharray:none;stroke-opacity:1" />
        <path
           style="opacity:1;fill:#ffcc00;fill-opacity:1;stroke:none;stroke-width:3.20000005;stroke-linecap:round;stroke-linejoin:miter;stroke-miterlimit:4;stroke-dasharray:none;stroke-opacity:1"
           d="m 129.30107,283.56671 c 1.63975,-0.78271 5.67037,-0.78271 7.31012,0 1.63976,0.78271 2.25875,2.79263 2.25875,2.79263 v 20.86262 h -11.82762 v -20.86262 c 0,0 0.61899,-2.00992 2.25875,-2.79263 z"
           id="path4312"
           inkscape:connector-curvature="0"
           sodipodi:nodetypes="zzccccz" />
        <path
           sodipodi:nodetypes="zzccccz"
           inkscape:connector-curvature="0"
           id="path4314"
           d="m 112.65181,283.56671 c 1.63975,-0.78271 5.67037,-0.78271 7.31012,0 1.63976,0.78271 2.25875,2.79263 2.25875,2.79263 v 20.86262 h -11.82762 v -20.86262 c 0,0 0.61899,-2.00992 2.25875,-2.79263 z"
           style="opacity:1;fill:#ffcc00;fill-opacity:1;stroke:none;stroke-width:3.20000005;stroke-linecap:round;stroke-linejoin:miter;stroke-miterlimit:4;stroke-dasharray:none;stroke-opacity:1" />
        <path
           style="opacity:1;fill:#ffcc00;fill-opacity:1;stroke:none;stroke-width:3.20000005;stroke-linecap:round;stroke-linejoin:miter;stroke-miterlimit:4;stroke-dasharray:none;stroke-opacity:1"
           d="m 96.002547,283.56671 c 1.63975,-0.78271 5.670373,-0.78271 7.310123,0 1.63976,0.78271 2.25875,2.79263 2.25875,2.79263 v 20.86262 H 93.743797 v -20.86262 c 0,0 0.61899,-2.00992 2.25875,-2.79263 z"
           id="path4316"
           inkscape:connector-curvature="0"
           sodipodi:nodetypes="zzccccz" />
        <path
           sodipodi:nodetypes="zzccccz"
           inkscape:connector-curvature="0"
           id="path4318"
           d="m 79.353286,283.56671 c 1.63975,-0.78271 5.67037,-0.78271 7.31012,0 1.63976,0.78271 2.25875,2.79263 2.25875,2.79263 v 20.86262 h -11.82762 v -20.86262 c 0,0 0.61899,-2.00992 2.25875,-2.79263 z"
           style="opacity:1;fill:#ffcc00;fill-opacity:1;stroke:none;stroke-width:3.20000005;stroke-linecap:round;stroke-linejoin:miter;stroke-miterlimit:4;stroke-dasharray:none;stroke-opacity:1" />
        <path
           style="opacity:1;fill:#ffcc00;fill-opacity:1;stroke:none;stroke-width:3.20000005;stroke-linecap:round;stroke-linejoin:miter;stroke-miterlimit:4;stroke-dasharray:none;stroke-opacity:1"
           d="m 62.704024,283.56671 c 1.63975,-0.78271 5.67037,-0.78271 7.31012,0 1.63976,0.78271 2.25875,2.79263 2.25875,2.79263 v 20.86262 h -11.82762 v -20.86262 c 0,0 0.61899,-2.00992 2.25875,-2.79263 z"
           id="path4320"
           inkscape:connector-curvature="0"
           sodipodi:nodetypes="zzccccz" />
        <path
           sodipodi:nodetypes="zzccccz"
           inkscape:connector-curvature="0"
           id="path4322"
           d="m 46.054759,283.56671 c 1.63975,-0.78271 5.67037,-0.78271 7.31012,0 1.63976,0.78271 2.25875,2.79263 2.25875,2.79263 v 20.86262 h -11.82762 v -20.86262 c 0,0 0.61899,-2.00992 2.25875,-2.79263 z"
           style="opacity:1;fill:#ffcc00;fill-opacity:1;stroke:none;stroke-width:3.20000005;stroke-linecap:round;stroke-linejoin:miter;stroke-miterlimit:4;stroke-dasharray:none;stroke-opacity:1" />
      </g>
      <g
         style="fill:#ffcc00"
         transform="translate(15.274808,190.67374)"
         id="g4438">
        <path
           sodipodi:nodetypes="zzccccz"
           inkscape:connector-curvature="0"
           id="path4376"
           d="m 518.73403,283.56671 c 1.63975,-0.78271 5.67037,-0.78271 7.31012,0 1.63976,0.78271 2.25875,2.79263 2.25875,2.79263 v 20.86262 h -11.82762 v -20.86262 c 0,0 0.61899,-2.00992 2.25875,-2.79263 z"
           style="opacity:1;fill:#ffcc00;fill-opacity:1;stroke:none;stroke-width:3.20000005;stroke-linecap:round;stroke-linejoin:miter;stroke-miterlimit:4;stroke-dasharray:none;stroke-opacity:1" />
        <path
           style="opacity:1;fill:#ffcc00;fill-opacity:1;stroke:none;stroke-width:3.20000005;stroke-linecap:round;stroke-linejoin:miter;stroke-miterlimit:4;stroke-dasharray:none;stroke-opacity:1"
           d="m 501.63851,283.56671 c 1.63975,-0.78271 5.67037,-0.78271 7.31012,0 1.63976,0.78271 2.25875,2.79263 2.25875,2.79263 v 20.86262 h -11.82762 v -20.86262 c 0,0 0.61899,-2.00992 2.25875,-2.79263 z"
           id="path4378"
           inkscape:connector-curvature="0"
           sodipodi:nodetypes="zzccccz" />
        <path
           sodipodi:nodetypes="zzccccz"
           inkscape:connector-curvature="0"
           id="path4380"
           d="m 484.54296,283.56671 c 1.63975,-0.78271 5.67037,-0.78271 7.31012,0 1.63976,0.78271 2.25875,2.79263 2.25875,2.79263 v 20.86262 h -11.82762 v -20.86262 c 0,0 0.61899,-2.00992 2.25875,-2.79263 z"
           style="opacity:1;fill:#ffcc00;fill-opacity:1;stroke:none;stroke-width:3.20000005;stroke-linecap:round;stroke-linejoin:miter;stroke-miterlimit:4;stroke-dasharray:none;stroke-opacity:1" />
        <path
           style="opacity:1;fill:#ffcc00;fill-opacity:1;stroke:none;stroke-width:3.20000005;stroke-linecap:round;stroke-linejoin:miter;stroke-miterlimit:4;stroke-dasharray:none;stroke-opacity:1"
           d="m 467.44741,283.56671 c 1.63975,-0.78271 5.67037,-0.78271 7.31012,0 1.63976,0.78271 2.25875,2.79263 2.25875,2.79263 v 20.86262 h -11.82762 v -20.86262 c 0,0 0.61899,-2.00992 2.25875,-2.79263 z"
           id="path4382"
           inkscape:connector-curvature="0"
           sodipodi:nodetypes="zzccccz" />
        <path
           sodipodi:nodetypes="zzccccz"
           inkscape:connector-curvature="0"
           id="path4384"
           d="m 450.35186,283.56671 c 1.63975,-0.78271 5.67037,-0.78271 7.31012,0 1.63976,0.78271 2.25875,2.79263 2.25875,2.79263 v 20.86262 h -11.82762 v -20.86262 c 0,0 0.61899,-2.00992 2.25875,-2.79263 z"
           style="opacity:1;fill:#ffcc00;fill-opacity:1;stroke:none;stroke-width:3.20000005;stroke-linecap:round;stroke-linejoin:miter;stroke-miterlimit:4;stroke-dasharray:none;stroke-opacity:1" />
        <path
           style="opacity:1;fill:#ffcc00;fill-opacity:1;stroke:none;stroke-width:3.20000005;stroke-linecap:round;stroke-linejoin:miter;stroke-miterlimit:4;stroke-dasharray:none;stroke-opacity:1"
           d="m 433.25631,283.56671 c 1.63975,-0.78271 5.67037,-0.78271 7.31012,0 1.63976,0.78271 2.25875,2.79263 2.25875,2.79263 v 20.86262 h -11.82762 v -20.86262 c 0,0 0.61899,-2.00992 2.25875,-2.79263 z"
           id="path4386"
           inkscape:connector-curvature="0"
           sodipodi:nodetypes="zzccccz" />
        <path
           sodipodi:nodetypes="zzccccz"
           inkscape:connector-curvature="0"
           id="path4388"
           d="m 416.16076,283.56671 c 1.63975,-0.78271 5.67037,-0.78271 7.31012,0 1.63976,0.78271 2.25875,2.79263 2.25875,2.79263 v 20.86262 h -11.82762 v -20.86262 c 0,0 0.61899,-2.00992 2.25875,-2.79263 z"
           style="opacity:1;fill:#ffcc00;fill-opacity:1;stroke:none;stroke-width:3.20000005;stroke-linecap:round;stroke-linejoin:miter;stroke-miterlimit:4;stroke-dasharray:none;stroke-opacity:1" />
        <path
           style="opacity:1;fill:#ffcc00;fill-opacity:1;stroke:none;stroke-width:3.20000005;stroke-linecap:round;stroke-linejoin:miter;stroke-miterlimit:4;stroke-dasharray:none;stroke-opacity:1"
           d="m 399.06521,283.56671 c 1.63975,-0.78271 5.67037,-0.78271 7.31012,0 1.63976,0.78271 2.25875,2.79263 2.25875,2.79263 v 20.86262 h -11.82762 v -20.86262 c 0,0 0.61899,-2.00992 2.25875,-2.79263 z"
           id="path4390"
           inkscape:connector-curvature="0"
           sodipodi:nodetypes="zzccccz" />
        <path
           sodipodi:nodetypes="zzccccz"
           inkscape:connector-curvature="0"
           id="path4392"
           d="m 381.96966,283.56671 c 1.63975,-0.78271 5.67037,-0.78271 7.31012,0 1.63976,0.78271 2.25875,2.79263 2.25875,2.79263 v 20.86262 h -11.82762 v -20.86262 c 0,0 0.61899,-2.00992 2.25875,-2.79263 z"
           style="opacity:1;fill:#ffcc00;fill-opacity:1;stroke:none;stroke-width:3.20000005;stroke-linecap:round;stroke-linejoin:miter;stroke-miterlimit:4;stroke-dasharray:none;stroke-opacity:1" />
        <path
           style="opacity:1;fill:#ffcc00;fill-opacity:1;stroke:none;stroke-width:3.20000005;stroke-linecap:round;stroke-linejoin:miter;stroke-miterlimit:4;stroke-dasharray:none;stroke-opacity:1"
           d="m 364.87411,283.56671 c 1.63975,-0.78271 5.67037,-0.78271 7.31012,0 1.63976,0.78271 2.25875,2.79263 2.25875,2.79263 v 20.86262 h -11.82762 v -20.86262 c 0,0 0.61899,-2.00992 2.25875,-2.79263 z"
           id="path4394"
           inkscape:connector-curvature="0"
           sodipodi:nodetypes="zzccccz" />
        <path
           sodipodi:nodetypes="zzccccz"
           inkscape:connector-curvature="0"
           id="path4396"
           d="m 347.77856,283.56671 c 1.63975,-0.78271 5.67037,-0.78271 7.31012,0 1.63976,0.78271 2.25875,2.79263 2.25875,2.79263 v 20.86262 h -11.82762 v -20.86262 c 0,0 0.61899,-2.00992 2.25875,-2.79263 z"
           style="opacity:1;fill:#ffcc00;fill-opacity:1;stroke:none;stroke-width:3.20000005;stroke-linecap:round;stroke-linejoin:miter;stroke-miterlimit:4;stroke-dasharray:none;stroke-opacity:1" />
        <path
           style="opacity:1;fill:#ffcc00;fill-opacity:1;stroke:none;stroke-width:3.20000005;stroke-linecap:round;stroke-linejoin:miter;stroke-miterlimit:4;stroke-dasharray:none;stroke-opacity:1"
           d="m 330.68301,283.56671 c 1.63975,-0.78271 5.67037,-0.78271 7.31012,0 1.63976,0.78271 2.25875,2.79263 2.25875,2.79263 v 20.86262 h -11.82762 v -20.86262 c 0,0 0.61899,-2.00992 2.25875,-2.79263 z"
           id="path4398"
           inkscape:connector-curvature="0"
           sodipodi:nodetypes="zzccccz" />
        <path
           sodipodi:nodetypes="zzccccz"
           inkscape:connector-curvature="0"
           id="path4400"
           d="m 313.58745,283.56671 c 1.63975,-0.78271 5.67037,-0.78271 7.31012,0 1.63976,0.78271 2.25875,2.79263 2.25875,2.79263 v 20.86262 H 311.3287 v -20.86262 c 0,0 0.61899,-2.00992 2.25875,-2.79263 z"
           style="opacity:1;fill:#ffcc00;fill-opacity:1;stroke:none;stroke-width:3.20000005;stroke-linecap:round;stroke-linejoin:miter;stroke-miterlimit:4;stroke-dasharray:none;stroke-opacity:1" />
        <path
           style="opacity:1;fill:#ffcc00;fill-opacity:1;stroke:none;stroke-width:3.20000005;stroke-linecap:round;stroke-linejoin:miter;stroke-miterlimit:4;stroke-dasharray:none;stroke-opacity:1"
           d="m 296.4919,283.56671 c 1.63975,-0.78271 5.67037,-0.78271 7.31012,0 1.63976,0.78271 2.25875,2.79263 2.25875,2.79263 v 20.86262 h -11.82762 v -20.86262 c 0,0 0.61899,-2.00992 2.25875,-2.79263 z"
           id="path4402"
           inkscape:connector-curvature="0"
           sodipodi:nodetypes="zzccccz" />
        <path
           style="opacity:1;fill:#ffcc00;fill-opacity:1;stroke:none;stroke-width:3.20000005;stroke-linecap:round;stroke-linejoin:miter;stroke-miterlimit:4;stroke-dasharray:none;stroke-opacity:1"
           d="m 535.82961,283.56671 c 1.63975,-0.78271 5.67037,-0.78271 7.31012,0 1.63976,0.78271 2.25875,2.79263 2.25875,2.79263 v 20.86262 h -11.82762 v -20.86262 c 0,0 0.61899,-2.00992 2.25875,-2.79263 z"
           id="path4418"
           inkscape:connector-curvature="0"
           sodipodi:nodetypes="zzccccz" />
        <path
           sodipodi:nodetypes="zzccccz"
           inkscape:connector-curvature="0"
           id="path4420"
           d="m 552.92519,283.56671 c 1.63975,-0.78271 5.67037,-0.78271 7.31012,0 1.63976,0.78271 2.25875,2.79263 2.25875,2.79263 v 20.86262 h -11.82762 v -20.86262 c 0,0 0.61899,-2.00992 2.25875,-2.79263 z"
           style="opacity:1;fill:#ffcc00;fill-opacity:1;stroke:none;stroke-width:3.20000005;stroke-linecap:round;stroke-linejoin:miter;stroke-miterlimit:4;stroke-dasharray:none;stroke-opacity:1" />
        <path
           style="opacity:1;fill:#ffcc00;fill-opacity:1;stroke:none;stroke-width:3.20000005;stroke-linecap:round;stroke-linejoin:miter;stroke-miterlimit:4;stroke-dasharray:none;stroke-opacity:1"
           d="m 570.02077,283.56671 c 1.63975,-0.78271 5.67037,-0.78271 7.31012,0 1.63976,0.78271 2.25875,2.79263 2.25875,2.79263 v 20.86262 h -11.82762 v -20.86262 c 0,0 0.61899,-2.00992 2.25875,-2.79263 z"
           id="path4422"
           inkscape:connector-curvature="0"
           sodipodi:nodetypes="zzccccz" />
        <path
           sodipodi:nodetypes="zzccccz"
           inkscape:connector-curvature="0"
           id="path4424"
           d="m 587.11635,283.56671 c 1.63975,-0.78271 5.67037,-0.78271 7.31012,0 1.63976,0.78271 2.25875,2.79263 2.25875,2.79263 v 20.86262 H 584.8576 v -20.86262 c 0,0 0.61899,-2.00992 2.25875,-2.79263 z"
           style="opacity:1;fill:#ffcc00;fill-opacity:1;stroke:none;stroke-width:3.20000005;stroke-linecap:round;stroke-linejoin:miter;stroke-miterlimit:4;stroke-dasharray:none;stroke-opacity:1" />
        <path
           style="opacity:1;fill:#ffcc00;fill-opacity:1;stroke:none;stroke-width:3.20000005;stroke-linecap:round;stroke-linejoin:miter;stroke-miterlimit:4;stroke-dasharray:none;stroke-opacity:1"
           d="m 604.21194,283.56671 c 1.63975,-0.78271 5.67037,-0.78271 7.31012,0 1.63976,0.78271 2.25875,2.79263 2.25875,2.79263 v 20.86262 h -11.82762 v -20.86262 c 0,0 0.61899,-2.00992 2.25875,-2.79263 z"
           id="path4426"
           inkscape:connector-curvature="0"
           sodipodi:nodetypes="zzccccz" />
        <path
           sodipodi:nodetypes="zzccccz"
           inkscape:connector-curvature="0"
           id="path4428"
           d="m 621.30752,283.56671 c 1.63975,-0.78271 5.67037,-0.78271 7.31012,0 1.63976,0.78271 2.25875,2.79263 2.25875,2.79263 v 20.86262 h -11.82762 v -20.86262 c 0,0 0.61899,-2.00992 2.25875,-2.79263 z"
           style="opacity:1;fill:#ffcc00;fill-opacity:1;stroke:none;stroke-width:3.20000005;stroke-linecap:round;stroke-linejoin:miter;stroke-miterlimit:4;stroke-dasharray:none;stroke-opacity:1" />
        <path
           style="opacity:1;fill:#ffcc00;fill-opacity:1;stroke:none;stroke-width:3.20000005;stroke-linecap:round;stroke-linejoin:miter;stroke-miterlimit:4;stroke-dasharray:none;stroke-opacity:1"
           d="m 638.4031,283.56671 c 1.63975,-0.78271 5.67037,-0.78271 7.31012,0 1.63976,0.78271 2.25875,2.79263 2.25875,2.79263 v 20.86262 h -11.82762 v -20.86262 c 0,0 0.61899,-2.00992 2.25875,-2.79263 z"
           id="path4430"
           inkscape:connector-curvature="0"
           sodipodi:nodetypes="zzccccz" />
        <path
           sodipodi:nodetypes="zzccccz"
           inkscape:connector-curvature="0"
           id="path4432"
           d="m 655.49868,283.56671 c 1.63975,-0.78271 5.67037,-0.78271 7.31012,0 1.63976,0.78271 2.25875,2.79263 2.25875,2.79263 v 20.86262 h -11.82762 v -20.86262 c 0,0 0.61899,-2.00992 2.25875,-2.79263 z"
           style="opacity:1;fill:#ffcc00;fill-opacity:1;stroke:none;stroke-width:3.20000005;stroke-linecap:round;stroke-linejoin:miter;stroke-miterlimit:4;stroke-dasharray:none;stroke-opacity:1" />
        <path
           style="opacity:1;fill:#ffcc00;fill-opacity:1;stroke:none;stroke-width:3.20000005;stroke-linecap:round;stroke-linejoin:miter;stroke-miterlimit:4;stroke-dasharray:none;stroke-opacity:1"
           d="m 672.59426,283.56671 c 1.63975,-0.78271 5.67037,-0.78271 7.31012,0 1.63976,0.78271 2.25875,2.79263 2.25875,2.79263 v 20.86262 h -11.82762 v -20.86262 c 0,0 0.61899,-2.00992 2.25875,-2.79263 z"
           id="path4434"
           inkscape:connector-curvature="0"
           sodipodi:nodetypes="zzccccz" />
        <path
           sodipodi:nodetypes="zzccccz"
           inkscape:connector-curvature="0"
           id="path4436"
           d="m 689.68984,283.56671 c 1.63975,-0.78271 5.67037,-0.78271 7.31012,0 1.63976,0.78271 2.25875,2.79263 2.25875,2.79263 v 20.86262 h -11.82762 v -20.86262 c 0,0 0.61899,-2.00992 2.25875,-2.79263 z"
           style="opacity:1;fill:#ffcc00;fill-opacity:1;stroke:none;stroke-width:3.20000005;stroke-linecap:round;stroke-linejoin:miter;stroke-miterlimit:4;stroke-dasharray:none;stroke-opacity:1" />
      </g>
      <g
         transform="translate(2.732634,190.67374)"
         id="g4189">
        <rect
           style="opacity:1;fill:#333333;fill-opacity:1;stroke:#000000;stroke-width:3.20000005;stroke-linecap:round;stroke-linejoin:miter;stroke-miterlimit:4;stroke-dasharray:none;stroke-opacity:1"
           id="rect4466"
           width="51.910126"
           height="83.992348"
           x="43.36795"
           y="181.71771" />
        <text
           xml:space="preserve"
           style="font-style:normal;font-weight:normal;line-height:0%;font-family:sans-serif;letter-spacing:0px;word-spacing:0px;fill:#808080;fill-opacity:1;stroke:none;stroke-width:1px;stroke-linecap:butt;stroke-linejoin:miter;stroke-opacity:1"
           x="-223.85489"
           y="60.514435"
           id="text4468"
           transform="rotate(-90)"><tspan
             sodipodi:role="line"
             id="tspan4470"
             x="-223.85489"
             y="60.514435"
             style="font-style:normal;font-variant:normal;font-weight:normal;font-stretch:normal;font-size:11.25px;line-height:1.25;font-family:Pixeled;-inkscape-font-specification:Pixeled;text-align:center;text-anchor:middle;fill:#808080">xptos</tspan><tspan
             sodipodi:role="line"
             x="-223.85489"
             y="74.576935"
             style="font-style:normal;font-variant:normal;font-weight:normal;font-stretch:normal;font-size:11.25px;line-height:1.25;font-family:Pixeled;-inkscape-font-specification:Pixeled;text-align:center;text-anchor:middle;fill:#808080"
             id="tspan4185">lalalas</tspan><tspan
             sodipodi:role="line"
             x="-223.85489"
             y="88.639435"
             style="font-style:normal;font-variant:normal;font-weight:normal;font-stretch:normal;font-size:11.25px;line-height:1.25;font-family:Pixeled;-inkscape-font-specification:Pixeled;text-align:center;text-anchor:middle;fill:#808080"
             id="tspan4187">huehue</tspan></text>
      </g>
      <g
         transform="translate(64.003577,190.67374)"
         id="g4196">
        <rect
           y="181.71771"
           x="43.36795"
           height="83.992348"
           width="51.910126"
           id="rect4198"
           style="opacity:1;fill:#333333;fill-opacity:1;stroke:#000000;stroke-width:3.20000005;stroke-linecap:round;stroke-linejoin:miter;stroke-miterlimit:4;stroke-dasharray:none;stroke-opacity:1" />
        <text
           transform="rotate(-90)"
           id="text4200"
           y="60.514435"
           x="-223.85489"
           style="font-style:normal;font-weight:normal;line-height:0%;font-family:sans-serif;letter-spacing:0px;word-spacing:0px;fill:#808080;fill-opacity:1;stroke:none;stroke-width:1px;stroke-linecap:butt;stroke-linejoin:miter;stroke-opacity:1"
           xml:space="preserve"><tspan
             style="font-style:normal;font-variant:normal;font-weight:normal;font-stretch:normal;font-size:11.25px;line-height:1.25;font-family:Pixeled;-inkscape-font-specification:Pixeled;text-align:center;text-anchor:middle;fill:#808080"
             y="60.514435"
             x="-223.85489"
             id="tspan4202"
             sodipodi:role="line">xptos</tspan><tspan
             id="tspan4204"
             style="font-style:normal;font-variant:normal;font-weight:normal;font-stretch:normal;font-size:11.25px;line-height:1.25;font-family:Pixeled;-inkscape-font-specification:Pixeled;text-align:center;text-anchor:middle;fill:#808080"
             y="74.576935"
             x="-223.85489"
             sodipodi:role="line">lalalas</tspan><tspan
             id="tspan4206"
             style="font-style:normal;font-variant:normal;font-weight:normal;font-stretch:normal;font-size:11.25px;line-height:1.25;font-family:Pixeled;-inkscape-font-specification:Pixeled;text-align:center;text-anchor:middle;fill:#808080"
             y="88.639435"
             x="-223.85489"
             sodipodi:role="line">huehue</tspan></text>
      </g>
      <g
         id="g4208"
         transform="translate(125.27453,190.67374)">
        <rect
           style="opacity:1;fill:#333333;fill-opacity:1;stroke:#000000;stroke-width:3.20000005;stroke-linecap:round;stroke-linejoin:miter;stroke-miterlimit:4;stroke-dasharray:none;stroke-opacity:1"
           id="rect4210"
           width="51.910126"
           height="83.992348"
           x="43.36795"
           y="181.71771" />
        <text
           xml:space="preserve"
           style="font-style:normal;font-weight:normal;line-height:0%;font-family:sans-serif;letter-spacing:0px;word-spacing:0px;fill:#808080;fill-opacity:1;stroke:none;stroke-width:1px;stroke-linecap:butt;stroke-linejoin:miter;stroke-opacity:1"
           x="-223.85489"
           y="60.514435"
           id="text4212"
           transform="rotate(-90)"><tspan
             sodipodi:role="line"
             id="tspan4214"
             x="-223.85489"
             y="60.514435"
             style="font-style:normal;font-variant:normal;font-weight:normal;font-stretch:normal;font-size:11.25px;line-height:1.25;font-family:Pixeled;-inkscape-font-specification:Pixeled;text-align:center;text-anchor:middle;fill:#808080">xptos</tspan><tspan
             sodipodi:role="line"
             x="-223.85489"
             y="74.576935"
             style="font-style:normal;font-variant:normal;font-weight:normal;font-stretch:normal;font-size:11.25px;line-height:1.25;font-family:Pixeled;-inkscape-font-specification:Pixeled;text-align:center;text-anchor:middle;fill:#808080"
             id="tspan4216">lalalas</tspan><tspan
             sodipodi:role="line"
             x="-223.85489"
             y="88.639435"
             style="font-style:normal;font-variant:normal;font-weight:normal;font-stretch:normal;font-size:11.25px;line-height:1.25;font-family:Pixeled;-inkscape-font-specification:Pixeled;text-align:center;text-anchor:middle;fill:#808080"
             id="tspan4218">huehue</tspan></text>
      </g>
      <g
         transform="translate(186.54548,190.67374)"
         id="g4220">
        <rect
           y="181.71771"
           x="43.36795"
           height="83.992348"
           width="51.910126"
           id="rect4222"
           style="opacity:1;fill:#333333;fill-opacity:1;stroke:#000000;stroke-width:3.20000005;stroke-linecap:round;stroke-linejoin:miter;stroke-miterlimit:4;stroke-dasharray:none;stroke-opacity:1" />
        <text
           transform="rotate(-90)"
           id="text4224"
           y="60.514435"
           x="-223.85489"
           style="font-style:normal;font-weight:normal;line-height:0%;font-family:sans-serif;letter-spacing:0px;word-spacing:0px;fill:#808080;fill-opacity:1;stroke:none;stroke-width:1px;stroke-linecap:butt;stroke-linejoin:miter;stroke-opacity:1"
           xml:space="preserve"><tspan
             style="font-style:normal;font-variant:normal;font-weight:normal;font-stretch:normal;font-size:11.25px;line-height:1.25;font-family:Pixeled;-inkscape-font-specification:Pixeled;text-align:center;text-anchor:middle;fill:#808080"
             y="60.514435"
             x="-223.85489"
             id="tspan4226"
             sodipodi:role="line">xptos</tspan><tspan
             id="tspan4228"
             style="font-style:normal;font-variant:normal;font-weight:normal;font-stretch:normal;font-size:11.25px;line-height:1.25;font-family:Pixeled;-inkscape-font-specification:Pixeled;text-align:center;text-anchor:middle;fill:#808080"
             y="74.576935"
             x="-223.85489"
             sodipodi:role="line">lalalas</tspan><tspan
             id="tspan4230"
             style="font-style:normal;font-variant:normal;font-weight:normal;font-stretch:normal;font-size:11.25px;line-height:1.25;font-family:Pixeled;-inkscape-font-specification:Pixeled;text-align:center;text-anchor:middle;fill:#808080"
             y="88.639435"
             x="-223.85489"
             sodipodi:role="line">huehue</tspan></text>
      </g>
      <g
         id="g4232"
         transform="translate(286.79669,190.67374)">
        <rect
           style="opacity:1;fill:#333333;fill-opacity:1;stroke:#000000;stroke-width:3.20000005;stroke-linecap:round;stroke-linejoin:miter;stroke-miterlimit:4;stroke-dasharray:none;stroke-opacity:1"
           id="rect4234"
           width="51.910126"
           height="83.992348"
           x="43.36795"
           y="181.71771" />
        <text
           xml:space="preserve"
           style="font-style:normal;font-weight:normal;line-height:0%;font-family:sans-serif;letter-spacing:0px;word-spacing:0px;fill:#808080;fill-opacity:1;stroke:none;stroke-width:1px;stroke-linecap:butt;stroke-linejoin:miter;stroke-opacity:1"
           x="-223.85489"
           y="60.514435"
           id="text4236"
           transform="rotate(-90)"><tspan
             sodipodi:role="line"
             id="tspan4238"
             x="-223.85489"
             y="60.514435"
             style="font-style:normal;font-variant:normal;font-weight:normal;font-stretch:normal;font-size:11.25px;line-height:1.25;font-family:Pixeled;-inkscape-font-specification:Pixeled;text-align:center;text-anchor:middle;fill:#808080">xptos</tspan><tspan
             sodipodi:role="line"
             x="-223.85489"
             y="74.576935"
             style="font-style:normal;font-variant:normal;font-weight:normal;font-stretch:normal;font-size:11.25px;line-height:1.25;font-family:Pixeled;-inkscape-font-specification:Pixeled;text-align:center;text-anchor:middle;fill:#808080"
             id="tspan4240">lalalas</tspan><tspan
             sodipodi:role="line"
             x="-223.85489"
             y="88.639435"
             style="font-style:normal;font-variant:normal;font-weight:normal;font-stretch:normal;font-size:11.25px;line-height:1.25;font-family:Pixeled;-inkscape-font-specification:Pixeled;text-align:center;text-anchor:middle;fill:#808080"
             id="tspan4242">huehue</tspan></text>
      </g>
      <g
         transform="translate(350.08273,190.67374)"
         id="g4244">
        <rect
           y="181.71771"
           x="43.36795"
           height="83.992348"
           width="51.910126"
           id="rect4246"
           style="opacity:1;fill:#333333;fill-opacity:1;stroke:#000000;stroke-width:3.20000005;stroke-linecap:round;stroke-linejoin:miter;stroke-miterlimit:4;stroke-dasharray:none;stroke-opacity:1" />
        <text
           transform="rotate(-90)"
           id="text4248"
           y="60.514435"
           x="-223.85489"
           style="font-style:normal;font-weight:normal;line-height:0%;font-family:sans-serif;letter-spacing:0px;word-spacing:0px;fill:#808080;fill-opacity:1;stroke:none;stroke-width:1px;stroke-linecap:butt;stroke-linejoin:miter;stroke-opacity:1"
           xml:space="preserve"><tspan
             style="font-style:normal;font-variant:normal;font-weight:normal;font-stretch:normal;font-size:11.25px;line-height:1.25;font-family:Pixeled;-inkscape-font-specification:Pixeled;text-align:center;text-anchor:middle;fill:#808080"
             y="60.514435"
             x="-223.85489"
             id="tspan4250"
             sodipodi:role="line">xptos</tspan><tspan
             id="tspan4252"
             style="font-style:normal;font-variant:normal;font-weight:normal;font-stretch:normal;font-size:11.25px;line-height:1.25;font-family:Pixeled;-inkscape-font-specification:Pixeled;text-align:center;text-anchor:middle;fill:#808080"
             y="74.576935"
             x="-223.85489"
             sodipodi:role="line">lalalas</tspan><tspan
             id="tspan4254"
             style="font-style:normal;font-variant:normal;font-weight:normal;font-stretch:normal;font-size:11.25px;line-height:1.25;font-family:Pixeled;-inkscape-font-specification:Pixeled;text-align:center;text-anchor:middle;fill:#808080"
             y="88.639435"
             x="-223.85489"
             sodipodi:role="line">huehue</tspan></text>
      </g>
      <g
         id="g4256"
         transform="translate(413.36877,190.67374)">
        <rect
           style="opacity:1;fill:#333333;fill-opacity:1;stroke:#000000;stroke-width:3.20000005;stroke-linecap:round;stroke-linejoin:miter;stroke-miterlimit:4;stroke-dasharray:none;stroke-opacity:1"
           id="rect4258"
           width="51.910126"
           height="83.992348"
           x="43.36795"
           y="181.71771" />
        <text
           xml:space="preserve"
           style="font-style:normal;font-weight:normal;line-height:0%;font-family:sans-serif;letter-spacing:0px;word-spacing:0px;fill:#808080;fill-opacity:1;stroke:none;stroke-width:1px;stroke-linecap:butt;stroke-linejoin:miter;stroke-opacity:1"
           x="-223.85489"
           y="60.514435"
           id="text4260"
           transform="rotate(-90)"><tspan
             sodipodi:role="line"
             id="tspan4262"
             x="-223.85489"
             y="60.514435"
             style="font-style:normal;font-variant:normal;font-weight:normal;font-stretch:normal;font-size:11.25px;line-height:1.25;font-family:Pixeled;-inkscape-font-specification:Pixeled;text-align:center;text-anchor:middle;fill:#808080">xptos</tspan><tspan
             sodipodi:role="line"
             x="-223.85489"
             y="74.576935"
             style="font-style:normal;font-variant:normal;font-weight:normal;font-stretch:normal;font-size:11.25px;line-height:1.25;font-family:Pixeled;-inkscape-font-specification:Pixeled;text-align:center;text-anchor:middle;fill:#808080"
             id="tspan4264">lalalas</tspan><tspan
             sodipodi:role="line"
             x="-223.85489"
             y="88.639435"
             style="font-style:normal;font-variant:normal;font-weight:normal;font-stretch:normal;font-size:11.25px;line-height:1.25;font-family:Pixeled;-inkscape-font-specification:Pixeled;text-align:center;text-anchor:middle;fill:#808080"
             id="tspan4266">huehue</tspan></text>
      </g>
      <g
         transform="translate(476.65481,190.67374)"
         id="g4268">
        <rect
           y="181.71771"
           x="43.36795"
           height="83.992348"
           width="51.910126"
           id="rect4270"
           style="opacity:1;fill:#333333;fill-opacity:1;stroke:#000000;stroke-width:3.20000005;stroke-linecap:round;stroke-linejoin:miter;stroke-miterlimit:4;stroke-dasharray:none;stroke-opacity:1" />
        <text
           transform="rotate(-90)"
           id="text4272"
           y="60.514435"
           x="-223.85489"
           style="font-style:normal;font-weight:normal;line-height:0%;font-family:sans-serif;letter-spacing:0px;word-spacing:0px;fill:#808080;fill-opacity:1;stroke:none;stroke-width:1px;stroke-linecap:butt;stroke-linejoin:miter;stroke-opacity:1"
           xml:space="preserve"><tspan
             style="font-style:normal;font-variant:normal;font-weight:normal;font-stretch:normal;font-size:11.25px;line-height:1.25;font-family:Pixeled;-inkscape-font-specification:Pixeled;text-align:center;text-anchor:middle;fill:#808080"
             y="60.514435"
             x="-223.85489"
             id="tspan4274"
             sodipodi:role="line">xptos</tspan><tspan
             id="tspan4276"
             style="font-style:normal;font-variant:normal;font-weight:normal;font-stretch:normal;font-size:11.25px;line-height:1.25;font-family:Pixeled;-inkscape-font-specification:Pixeled;text-align:center;text-anchor:middle;fill:#808080"
             y="74.576935"
             x="-223.85489"
             sodipodi:role="line">lalalas</tspan><tspan
             id="tspan4278"
             style="font-style:normal;font-variant:normal;font-weight:normal;font-stretch:normal;font-size:11.25px;line-height:1.25;font-family:Pixeled;-inkscape-font-specification:Pixeled;text-align:center;text-anchor:middle;fill:#808080"
             y="88.639435"
             x="-223.85489"
             sodipodi:role="line">huehue</tspan></text>
      </g>
      <g
         id="g4280"
         transform="translate(539.94082,190.67374)">
        <rect
           style="opacity:1;fill:#333333;fill-opacity:1;stroke:#000000;stroke-width:3.20000005;stroke-linecap:round;stroke-linejoin:miter;stroke-miterlimit:4;stroke-dasharray:none;stroke-opacity:1"
           id="rect4282"
           width="51.910126"
           height="83.992348"
           x="43.36795"
           y="181.71771" />
        <text
           xml:space="preserve"
           style="font-style:normal;font-weight:normal;line-height:0%;font-family:sans-serif;letter-spacing:0px;word-spacing:0px;fill:#808080;fill-opacity:1;stroke:none;stroke-width:1px;stroke-linecap:butt;stroke-linejoin:miter;stroke-opacity:1"
           x="-223.85489"
           y="60.514435"
           id="text4284"
           transform="rotate(-90)"><tspan
             sodipodi:role="line"
             id="tspan4286"
             x="-223.85489"
             y="60.514435"
             style="font-style:normal;font-variant:normal;font-weight:normal;font-stretch:normal;font-size:11.25px;line-height:1.25;font-family:Pixeled;-inkscape-font-specification:Pixeled;text-align:center;text-anchor:middle;fill:#808080">xptos</tspan><tspan
             sodipodi:role="line"
             x="-223.85489"
             y="74.576935"
             style="font-style:normal;font-variant:normal;font-weight:normal;font-stretch:normal;font-size:11.25px;line-height:1.25;font-family:Pixeled;-inkscape-font-specification:Pixeled;text-align:center;text-anchor:middle;fill:#808080"
             id="tspan4288">lalalas</tspan><tspan
             sodipodi:role="line"
             x="-223.85489"
             y="88.639435"
             style="font-style:normal;font-variant:normal;font-weight:normal;font-stretch:normal;font-size:11.25px;line-height:1.25;font-family:Pixeled;-inkscape-font-specification:Pixeled;text-align:center;text-anchor:middle;fill:#808080"
             id="tspan4290">huehue</tspan></text>
      </g>
      <g
         transform="translate(603.22683,190.67374)"
         id="g4292">
        <rect
           y="181.71771"
           x="43.36795"
           height="83.992348"
           width="51.910126"
           id="rect4294"
           style="opacity:1;fill:#333333;fill-opacity:1;stroke:#000000;stroke-width:3.20000005;stroke-linecap:round;stroke-linejoin:miter;stroke-miterlimit:4;stroke-dasharray:none;stroke-opacity:1" />
        <text
           transform="rotate(-90)"
           id="text4296"
           y="60.514435"
           x="-223.85489"
           style="font-style:normal;font-weight:normal;line-height:0%;font-family:sans-serif;letter-spacing:0px;word-spacing:0px;fill:#808080;fill-opacity:1;stroke:none;stroke-width:1px;stroke-linecap:butt;stroke-linejoin:miter;stroke-opacity:1"
           xml:space="preserve"><tspan
             style="font-style:normal;font-variant:normal;font-weight:normal;font-stretch:normal;font-size:11.25px;line-height:1.25;font-family:Pixeled;-inkscape-font-specification:Pixeled;text-align:center;text-anchor:middle;fill:#808080"
             y="60.514435"
             x="-223.85489"
             id="tspan4298"
             sodipodi:role="line">xptos</tspan><tspan
             id="tspan4300"
             style="font-style:normal;font-variant:normal;font-weight:normal;font-stretch:normal;font-size:11.25px;line-height:1.25;font-family:Pixeled;-inkscape-font-specification:Pixeled;text-align:center;text-anchor:middle;fill:#808080"
             y="74.576935"
             x="-223.85489"
             sodipodi:role="line">lalalas</tspan><tspan
             id="tspan4302"
             style="font-style:normal;font-variant:normal;font-weight:normal;font-stretch:normal;font-size:11.25px;line-height:1.25;font-family:Pixeled;-inkscape-font-specification:Pixeled;text-align:center;text-anchor:middle;fill:#808080"
             y="88.639435"
             x="-223.85489"
             sodipodi:role="line">huehue</tspan></text>
      </g>
    </g>
  </g>
</svg>
