<?xml version="1.0" encoding="UTF-8" standalone="no"?>
<!-- Created with Inkscape (http://www.inkscape.org/) -->

<svg
   xmlns:dc="http://purl.org/dc/elements/1.1/"
   xmlns:cc="http://creativecommons.org/ns#"
   xmlns:rdf="http://www.w3.org/1999/02/22-rdf-syntax-ns#"
   xmlns:svg="http://www.w3.org/2000/svg"
   xmlns="http://www.w3.org/2000/svg"
   xmlns:sodipodi="http://sodipodi.sourceforge.net/DTD/sodipodi-0.dtd"
   xmlns:inkscape="http://www.inkscape.org/namespaces/inkscape"
   width="885.12885mm"
   height="415.82382mm"
   viewBox="0 0 885.12885 415.82382"
   version="1.1"
   id="svg8"
   inkscape:version="0.92.4 5da689c313, 2019-01-14"
   sodipodi:docname="ci_idea.svg"
   inkscape:export-filename="/home/siqueira/Pictures/server.png"
   inkscape:export-xdpi="19.121201"
   inkscape:export-ydpi="19.121201">
  <defs
     id="defs2" />
  <sodipodi:namedview
     id="base"
     pagecolor="#ffffff"
     bordercolor="#666666"
     borderopacity="1.0"
     inkscape:pageopacity="0.0"
     inkscape:pageshadow="2"
     inkscape:zoom="0.13713942"
     inkscape:cx="2747.3552"
     inkscape:cy="198.64755"
     inkscape:document-units="mm"
     inkscape:current-layer="layer1"
     showgrid="false"
     inkscape:window-width="1920"
     inkscape:window-height="1039"
     inkscape:window-x="0"
     inkscape:window-y="0"
     inkscape:window-maximized="1"
     inkscape:object-nodes="false"
     fit-margin-top="0"
     fit-margin-left="0"
     fit-margin-right="0"
     fit-margin-bottom="0" />
  <metadata
     id="metadata5">
    <rdf:RDF>
      <cc:Work
         rdf:about="">
        <dc:format>image/svg+xml</dc:format>
        <dc:type
           rdf:resource="http://purl.org/dc/dcmitype/StillImage" />
        <dc:title></dc:title>
      </cc:Work>
    </rdf:RDF>
  </metadata>
  <g
     inkscape:label="Layer 1"
     inkscape:groupmode="layer"
     id="layer1"
     style="opacity:1"
     transform="translate(325.30956,88.776936)">
    <path
       sodipodi:nodetypes="ccccccccccccccccccc"
       style="opacity:1;fill:#aa0000;stroke:#aa0000;stroke-width:2.27612615"
       inkscape:connector-curvature="0"
       d="M 461.11807,101.04547 V -18.411148 H 174.82015 v -11.374716 h -18.20902 v 4.54634 h -4.54395 v 4.5522 h 4.54395 v 9.104466 h -4.54395 v 4.5522805 h 4.54395 v 4.55822 h 18.20902 V -13.858958 H 455.77247 V 101.04547 Z"
       id="path1364"
       inkscape:export-filename="/home/siqueira/Pictures/path1364.png"
       inkscape:export-xdpi="19.121201"
       inkscape:export-ydpi="19.121201" />
    <path
       id="path1217-6"
       d="M 26.324676,267.69886 V 41.20158 H 105.98904 V 29.812658 h 11.37472 V 11.603629 h -4.54634 V 7.0596876 h -4.5522 V 11.603629 H 99.160746 V 7.0596876 h -4.55228 v 4.5439414 h -4.55822 v 18.209029 h 11.386604 v 6.83672 H 21.772396 V 267.69886 Z"
       inkscape:connector-curvature="0"
       style="opacity:1;fill:#aa0000;stroke:#aa0000;stroke-width:2.27612615"
       sodipodi:nodetypes="ccccccccccccccccccccc"
       inkscape:export-filename="/home/siqueira/Pictures/path1364.png"
       inkscape:export-xdpi="19.121201"
       inkscape:export-ydpi="19.121201" />
    <g
       transform="matrix(4.2292985,0,0,4.2292985,-150.29243,-4238.307)"
       id="layer1-3"
       inkscape:export-filename="/home/siqueira/Pictures/path1364.png"
       inkscape:export-xdpi="19.121201"
       inkscape:export-ydpi="19.121201">
      <path
         style="color:#000000;font-style:normal;font-variant:normal;font-weight:normal;font-stretch:normal;font-size:medium;line-height:normal;font-family:sans-serif;text-indent:0;text-align:start;text-decoration:none;text-decoration-line:none;letter-spacing:normal;word-spacing:normal;text-transform:none;writing-mode:lr-tb;direction:ltr;baseline-shift:baseline;text-anchor:start;display:inline;overflow:visible;visibility:visible;fill:#000000;fill-opacity:1;fill-rule:nonzero;stroke:none;enable-background:accumulate"
         id="rect4443"
         d="m 3,1021.8622 v 1 h 2.5 c 0.27613,0 0.49997,0.2239 0.5,0.5 v 3 2 2 2 5 4 5.5 h 1 v -0.5 -2.8789 -0.2363 -1.8848 -5.8789 -0.2363 -2.627 -2.5137 -1.7441 -2 -2 -1 -1.5 H 5.5 Z m 5,3 v 1 h 1.5 c 0.18918,-2e-4 0.36227,0.1064 0.44727,0.2754 0.0348,0.07 0.0529,0.1466 0.0527,0.2246 v 2 c -10e-5,0.077 -0.0181,0.1535 -0.0527,0.2227 -0.0845,0.1697 -0.25766,0.2771 -0.44727,0.2773 H 8 v 1 h 1.5 c 0.18918,-2e-4 0.36227,0.1064 0.44727,0.2754 0.0348,0.07 0.0529,0.1466 0.0527,0.2246 v 2 c -10e-5,0.077 -0.0181,0.1535 -0.0527,0.2227 -0.0845,0.1697 -0.25766,0.2771 -0.44727,0.2773 H 8 v 2 h 1.49219 c 0.67616,-0.01 0.67616,1.0096 0,1 H 8 v 1 h 1.5 c 0.27613,0 0.49997,0.2239 0.5,0.5 v 4 c -3e-5,0.2761 -0.22387,0.5 -0.5,0.5 H 8 v 1 h 1.49219 c 0.67616,-0.01 0.67616,1.0096 0,1 H 8 v 2 h 25 v -21 z m 4.46485,1 c 0.0117,-4e-4 0.0237,-4e-4 0.0351,0 0.27614,0 0.5,0.2239 0.5,0.5 0,0.2761 -0.22386,0.5 -0.5,0.5 -0.27614,0 -0.5,-0.2239 -0.5,-0.5 -6.5e-4,-0.263 0.20252,-0.4815 0.46485,-0.5 z m 2,0 c 0.0117,-4e-4 0.0237,-4e-4 0.0351,0 0.27614,0 0.5,0.2239 0.5,0.5 0,0.2761 -0.22386,0.5 -0.5,0.5 -0.27614,0 -0.5,-0.2239 -0.5,-0.5 -6.5e-4,-0.263 0.20252,-0.4815 0.46485,-0.5 z m 2,0 c 0.0117,-4e-4 0.0237,-4e-4 0.0351,0 0.27614,0 0.5,0.2239 0.5,0.5 0,0.2761 -0.22386,0.5 -0.5,0.5 -0.27614,0 -0.5,-0.2239 -0.5,-0.5 -6.5e-4,-0.263 0.20252,-0.4815 0.46485,-0.5 z m 2,0 c 0.0117,-4e-4 0.0234,-4e-4 0.0351,0 0.27614,0 0.5,0.2239 0.5,0.5 0,0.2761 -0.22386,0.5 -0.5,0.5 -0.27614,0 -0.5,-0.2239 -0.5,-0.5 -6.5e-4,-0.263 0.20252,-0.4815 0.46485,-0.5 z m 13,0 c 0.0117,-4e-4 0.0234,-4e-4 0.0351,0 0.27614,0 0.5,0.2239 0.5,0.5 0,0.2761 -0.22386,0.5 -0.5,0.5 -0.27614,0 -0.5,-0.2239 -0.5,-0.5 -6.5e-4,-0.263 0.20252,-0.4815 0.46485,-0.5 z m -27.46485,1 v 1 h 1 v -1 z m 4,0 v 1 h 1 v -1 z m 4,1 h 1 v 7 h -1 z m 2,0 h 1 v 7 h -1 z m 2,0 h 1 v 7 h -1 z m 2,0 h 1 v 7 h -1 z m 2,0 h 11 v 1 H 20 Z m 0,2 h 11 v 1 H 20 Z m -16,1 v 1 h 1 v -1 z m 4,0 v 1 h 1 v -1 z m 18,1 h 1 v 8 h -1 z m 2,0 h 1 v 8 h -1 z m 2,0 h 1 v 6.5449 h -1 z m -9,1.5 h 3 c 0.27613,0 0.49997,0.2239 0.5,0.5 v 2 c -3e-5,0.2761 -0.22387,0.5 -0.5,0.5 h -3 c -0.27613,0 -0.49997,-0.2239 -0.5,-0.5 v -2 c 3e-5,-0.2761 0.22387,-0.5 0.5,-0.5 z m 0.5,1 v 1 h 2 v -1 z m -18.49414,0.5 v 1 h 2 v -1 z m 9.99414,2 h 1 v 1 h 1 v -1 h 1 v 1 h 0.5 c 0.0773,10e-5 0.15356,0.018 0.22266,0.053 0.16977,0.084 0.27717,0.2577 0.27734,0.4473 v 0.5 h 1 v 1 h -1 v 1 h 1 v 1 h -1 v 0.5 c -1.7e-4,0.1896 -0.10757,0.3627 -0.27734,0.4472 -0.0691,0.034 -0.14536,0.053 -0.22266,0.053 H 16 v 1 h -1 v -1 h -1 v 1 h -1 v -1 h -0.5 c -0.078,2e-4 -0.15491,-0.018 -0.22461,-0.053 -0.16901,-0.085 -0.27559,-0.258 -0.27539,-0.4472 v -0.5 h -1 v -1 h 1 v -1 h -1 v -1 h 1 v -0.5 c -2e-4,-0.1892 0.10638,-0.3623 0.27539,-0.4473 0.0697,-0.035 0.14661,-0.053 0.22461,-0.053 H 13 Z m -9,1 v 3 h 1 v -3 z m 4,0 v 3 h 1 v -3 z m 5,1 v 2 1 h 3 v -2 -1 z m 6.5,1.5 h 3 c 0.27613,0 0.49997,0.2239 0.5,0.5 v 2 c -3e-5,0.2761 -0.22387,0.5 -0.5,0.5 h -3 c -0.27613,0 -0.49997,-0.2239 -0.5,-0.5 v -2 c 3e-5,-0.2761 0.22387,-0.5 0.5,-0.5 z m 4.5,0 h 3 c 0.27613,0 0.49997,0.2239 0.5,0.5 v 2 c -3e-5,0.2761 -0.22387,0.5 -0.5,0.5 h -3 c -0.27613,0 -0.49997,-0.2239 -0.5,-0.5 v -2 c 3e-5,-0.2761 0.22387,-0.5 0.5,-0.5 z m 4.5,0 h 3 c 0.27613,0 0.49997,0.2239 0.5,0.5 v 2 c -3e-5,0.2761 -0.22387,0.5 -0.5,0.5 h -3 c -0.27613,0 -0.49997,-0.2239 -0.5,-0.5 v -2 c 3e-5,-0.2761 0.22387,-0.5 0.5,-0.5 z m -8.5,1 v 1 h 2 v -1 z m 4.5,0 v 1 h 2 v -1 z m 4.5,0 v 1 h 2 v -1 z m -25.99414,1.5 v 1 h 2 v -1 z m 28.45899,1 c 0.0117,-4e-4 0.0234,-4e-4 0.0351,0 0.27614,0 0.5,0.2239 0.5,0.5 0,0.2761 -0.22386,0.5 -0.5,0.5 -0.27614,0 -0.5,-0.2239 -0.5,-0.5 -6.5e-4,-0.263 0.20252,-0.4815 0.46485,-0.5 z"
         inkscape:connector-curvature="0" />
    </g>
    <g
       id="g1273"
       transform="translate(-130.96535,-19.099113)"
       inkscape:export-filename="/home/siqueira/Pictures/path1364.png"
       inkscape:export-xdpi="19.121201"
       inkscape:export-ydpi="19.121201">
      <g
         transform="matrix(0.26458333,0,0,0.26458333,111.71108,193.77844)"
         id="g1048">
        <g
           id="g1046">
          <path
             inkscape:connector-curvature="0"
             d="m 482.7,447 c -19.5,0 -38.9,0 -58.4,0 -44.3,0 -88.7,0 -133,0 -49.3,0 -98.7,0 -148,0 -33.4,0 -66.8,0 -100.2,0 -5.5,0 -13.9,1.4 -19,-1.3 -8.6,-4.5 -5.9,-18.2 -5.9,-26.1 0,-9.6 -0.4,-19.3 0,-28.9 0.5,-12.3 11.8,-11.4 20.5,-11.4 12.1,0 24.3,0 36.4,0 42.5,0 85,0 127.5,0 49.7,0 99.4,0 149.1,0 36.5,0 73.1,0 109.6,0 7,0 14,-0.2 20.9,0 7.9,0.2 11.7,6 11.7,13.4 0,10.9 0,21.9 0,32.8 0,8.8 1.1,21.1 -11.2,21.5 -9.6,0.4 -9.7,15.4 0,15 9.8,-0.4 19.1,-5.5 23.4,-14.5 2.3,-4.9 2.8,-9.9 2.8,-15.1 0,-11.6 0,-23.2 0,-34.8 0,-3.6 0.2,-7.3 -0.3,-10.8 -1.4,-9.6 -8.1,-17.7 -17.2,-21 -3.9,-1.4 -7.8,-1.5 -11.8,-1.5 -27.8,0 -55.6,0 -83.4,0 -49.2,0 -98.4,0 -147.6,0 -48,0 -96,0 -144,0 -24.7,0 -49.4,-0.2 -74.2,0 -10.3,0.1 -19.8,5.1 -24.5,14.5 -4.6,9.4 -2.8,22.2 -2.8,32.3 0,9.5 -1.2,19.9 0.5,29.4 2.2,12.8 13.7,21.2 26.3,21.5 23.6,0.5 47.2,0 70.8,0 47.8,0 95.5,0 143.3,0 49.5,0 99,0 148.4,0 28.7,0 57.4,0 86.2,0 1.4,0 2.7,0 4.1,0 9.6,0 9.7,-15 0,-15 z"
             id="path1044" />
        </g>
      </g>
      <g
         transform="matrix(0.26458333,0,0,0.26458333,111.71108,193.77844)"
         id="g1062">
        <g
           id="g1060">
          <path
             id="path1058"
             d="m 42.7,420.7 c 29.5,0 59.1,0 88.6,0 4.2,0 8.4,0 12.6,0 9.7,0 9.7,-15 0,-15 -29.5,0 -59.1,0 -88.6,0 -4.2,0 -8.4,0 -12.6,0 -9.6,0 -9.6,15 0,15 z"
             inkscape:connector-curvature="0" />
        </g>
      </g>
      <g
         transform="matrix(0.26458333,0,0,0.26458333,111.71108,193.77844)"
         id="g1068">
        <g
           id="g1066">
          <path
             id="path1064"
             d="m 171,420.7 c 19,0 38,0 57.1,0 9.7,0 9.7,-15 0,-15 -19,0 -38,0 -57.1,0 -9.7,0 -9.7,15 0,15 z"
             inkscape:connector-curvature="0" />
        </g>
      </g>
      <g
         transform="matrix(0.26458333,0,0,0.26458333,111.71108,193.77844)"
         id="g1074">
        <g
           id="g1072">
          <path
             id="path1070"
             d="m 256,420.7 c 9.5,0 19,0 28.5,0 9.7,0 9.7,-15 0,-15 -9.5,0 -19,0 -28.5,0 -9.7,0 -9.7,15 0,15 z"
             inkscape:connector-curvature="0" />
        </g>
      </g>
      <g
         transform="matrix(0.26458333,0,0,0.26458333,111.71108,193.77844)"
         id="g1080">
        <g
           id="g1078">
          <path
             id="path1076"
             d="m 399.6,413.2 c -0.2,7.8 -6.3,14.3 -14.3,14.3 -7.8,0 -14.3,-6.5 -14.3,-14.3 0,-7.6 6.1,-13.9 13.6,-14.3 8.3,-0.4 14.7,6.2 15,14.3 0.3,9.6 15.3,9.7 15,0 -0.5,-15.9 -13,-29.3 -29.3,-29.3 -15.9,0 -29.3,13.4 -29.3,29.3 0,15.9 13.4,29.3 29.3,29.3 16.3,0 28.8,-13.4 29.3,-29.3 0.3,-9.7 -14.7,-9.7 -15,0 z"
             inkscape:connector-curvature="0" />
        </g>
      </g>
      <g
         transform="matrix(0.26458333,0,0,0.26458333,111.71108,193.77844)"
         id="g1086">
        <g
           id="g1084">
          <path
             id="path1082"
             d="m 463.9,413.2 c -0.2,7.8 -6.3,14.3 -14.3,14.3 -7.8,0 -14.3,-6.5 -14.3,-14.3 0,-7.6 6.1,-13.9 13.6,-14.3 8.3,-0.4 14.8,6.2 15,14.3 0.3,9.6 15.3,9.7 15,0 -0.5,-15.9 -13,-29.3 -29.3,-29.3 -15.9,0 -29.3,13.4 -29.3,29.3 0,15.9 13.4,29.3 29.3,29.3 16.3,0 28.8,-13.4 29.3,-29.3 0.3,-9.7 -14.7,-9.7 -15,0 z"
             inkscape:connector-curvature="0" />
        </g>
      </g>
    </g>
    <path
       id="path1217"
       d="m 72.79838,-40.986636 v 18.21738 H 50.043076 v -31.86579 h 79.664354 v -11.38892 h 11.37472 v -18.20903 h -4.54634 v -4.54394 h -4.5522 v 4.54394 h -9.10447 v -4.54394 h -4.55228 v 4.54394 h -4.55822 v 18.20903 h 11.3866 v 6.83672 H 45.490796 v 40.97027 H 72.79838 v 29.114389 h 81.94053 v -51.884049 z m 9.11049,27.32186 h -4.55228 v -13.65676 h 4.55228 z m 22.75521,2.26783 c -5.00745,0 -9.10447,-4.07423 -9.10447,-9.10456 0,-5.00745 4.09702,-9.10447 9.10447,-9.10447 5.03033,0 9.10456,4.09702 9.10456,9.10447 0,5.03033 -4.07423,9.10456 -9.10456,9.10456 z m 29.5897,2.2761004 c -6.2594,0 -11.38066,-5.0984604 -11.38066,-11.3806604 0,-6.25931 5.12126,-11.38057 11.38066,-11.38057 6.2821,0 11.38057,5.12126 11.38057,11.38057 0,6.2822 -5.09847,11.3806604 -11.38057,11.3806604 z"
       inkscape:connector-curvature="0"
       style="stroke-width:2.27612591"
       sodipodi:nodetypes="ccccccccccccccccccccccccccccccccssssssssss"
       inkscape:export-filename="/home/siqueira/Pictures/path1364.png"
       inkscape:export-xdpi="19.121201"
       inkscape:export-ydpi="19.121201" />
    <rect
       style="opacity:1;fill:#ffffff;fill-opacity:0.99065396;stroke:#000000;stroke-width:6.12388468;stroke-linecap:round;stroke-linejoin:round;stroke-miterlimit:4;stroke-dasharray:none;stroke-dashoffset:0;stroke-opacity:1;paint-order:stroke fill markers"
       id="rect1275"
       width="104.36301"
       height="26.15976"
       x="207.68727"
       y="81.748283"
       ry="0.081934586"
       inkscape:export-filename="/home/siqueira/Pictures/path1364.png"
       inkscape:export-xdpi="19.121201"
       inkscape:export-ydpi="19.121201" />
    <text
       xml:space="preserve"
       style="font-style:normal;font-variant:normal;font-weight:bold;font-stretch:normal;font-size:42.33333206px;line-height:1.25;font-family:Hack;-inkscape-font-specification:'Hack Bold';letter-spacing:0px;word-spacing:0px;fill:#000000;fill-opacity:1;stroke:none;stroke-width:0.26458332"
       x="221.54553"
       y="104.64462"
       id="text1279"
       inkscape:export-filename="/home/siqueira/Pictures/path1364.png"
       inkscape:export-xdpi="19.121201"
       inkscape:export-ydpi="19.121201"><tspan
         sodipodi:role="line"
         id="tspan1277"
         x="221.54553"
         y="104.64462"
         style="font-size:25.39999962px;stroke-width:0.26458332">Kit 1</tspan></text>
    <rect
       ry="0.081934586"
       y="116.09338"
       x="207.68727"
       height="26.15976"
       width="104.36301"
       id="rect1281"
       style="opacity:1;fill:#ffffff;fill-opacity:0.99065396;stroke:#000000;stroke-width:6.12388468;stroke-linecap:round;stroke-linejoin:round;stroke-miterlimit:4;stroke-dasharray:none;stroke-dashoffset:0;stroke-opacity:1;paint-order:stroke fill markers"
       inkscape:export-filename="/home/siqueira/Pictures/path1364.png"
       inkscape:export-xdpi="19.121201"
       inkscape:export-ydpi="19.121201" />
    <text
       id="text1285"
       y="138.98972"
       x="221.54553"
       style="font-style:normal;font-variant:normal;font-weight:bold;font-stretch:normal;font-size:42.33333206px;line-height:1.25;font-family:Hack;-inkscape-font-specification:'Hack Bold';letter-spacing:0px;word-spacing:0px;fill:#000000;fill-opacity:1;stroke:none;stroke-width:0.26458332"
       xml:space="preserve"
       inkscape:export-filename="/home/siqueira/Pictures/path1364.png"
       inkscape:export-xdpi="19.121201"
       inkscape:export-ydpi="19.121201"><tspan
         style="font-size:25.39999962px;stroke-width:0.26458332"
         y="138.98972"
         x="221.54553"
         id="tspan1283"
         sodipodi:role="line">Kit 2</tspan></text>
    <rect
       style="opacity:1;fill:#ffffff;fill-opacity:0.99065396;stroke:#000000;stroke-width:6.12388468;stroke-linecap:round;stroke-linejoin:round;stroke-miterlimit:4;stroke-dasharray:none;stroke-dashoffset:0;stroke-opacity:1;paint-order:stroke fill markers"
       id="rect1287"
       width="104.36301"
       height="26.15976"
       x="207.68727"
       y="150.88106"
       ry="0.081934586"
       inkscape:export-filename="/home/siqueira/Pictures/path1364.png"
       inkscape:export-xdpi="19.121201"
       inkscape:export-ydpi="19.121201" />
    <text
       xml:space="preserve"
       style="font-style:normal;font-variant:normal;font-weight:bold;font-stretch:normal;font-size:42.33333206px;line-height:1.25;font-family:Hack;-inkscape-font-specification:'Hack Bold';letter-spacing:0px;word-spacing:0px;fill:#000000;fill-opacity:1;stroke:none;stroke-width:0.26458332"
       x="221.54553"
       y="173.77739"
       id="text1291"
       inkscape:export-filename="/home/siqueira/Pictures/path1364.png"
       inkscape:export-xdpi="19.121201"
       inkscape:export-ydpi="19.121201"><tspan
         sodipodi:role="line"
         id="tspan1289"
         x="221.54553"
         y="173.77739"
         style="font-size:25.39999962px;stroke-width:0.26458332">Kit 3</tspan></text>
    <rect
       ry="0.081934586"
       y="230.00595"
       x="207.68727"
       height="26.15976"
       width="104.36301"
       id="rect1293"
       style="opacity:1;fill:#ffffff;fill-opacity:0.99065396;stroke:#000000;stroke-width:6.12388468;stroke-linecap:round;stroke-linejoin:round;stroke-miterlimit:4;stroke-dasharray:none;stroke-dashoffset:0;stroke-opacity:1;paint-order:stroke fill markers"
       inkscape:export-filename="/home/siqueira/Pictures/path1364.png"
       inkscape:export-xdpi="19.121201"
       inkscape:export-ydpi="19.121201" />
    <text
       id="text1297"
       y="252.90228"
       x="221.54553"
       style="font-style:normal;font-variant:normal;font-weight:bold;font-stretch:normal;font-size:42.33333206px;line-height:1.25;font-family:Hack;-inkscape-font-specification:'Hack Bold';letter-spacing:0px;word-spacing:0px;fill:#000000;fill-opacity:1;stroke:none;stroke-width:0.26458332"
       xml:space="preserve"
       inkscape:export-filename="/home/siqueira/Pictures/path1364.png"
       inkscape:export-xdpi="19.121201"
       inkscape:export-ydpi="19.121201"><tspan
         style="font-size:25.39999962px;stroke-width:0.26458332"
         y="252.90228"
         x="221.54553"
         id="tspan1295"
         sodipodi:role="line">Kit 6</tspan></text>
    <text
       id="text1301"
       y="-262.34091"
       x="179.14682"
       style="font-style:normal;font-variant:normal;font-weight:bold;font-stretch:normal;font-size:42.33333206px;line-height:1.25;font-family:Hack;-inkscape-font-specification:'Hack Bold';letter-spacing:0px;word-spacing:0px;fill:#000000;fill-opacity:1;stroke:none;stroke-width:0.26458332"
       xml:space="preserve"
       transform="rotate(90)"
       inkscape:export-filename="/home/siqueira/Pictures/path1364.png"
       inkscape:export-xdpi="19.121201"
       inkscape:export-ydpi="19.121201"><tspan
         style="font-size:25.39999962px;stroke-width:0.26458332"
         y="-262.34091"
         x="179.14682"
         id="tspan1299"
         sodipodi:role="line">...</tspan></text>
    <path
       style="fill:none;stroke:#000000;stroke-width:5;stroke-linecap:butt;stroke-linejoin:miter;stroke-miterlimit:4;stroke-dasharray:none;stroke-opacity:1"
       d="m -39.56245,191.95488 v 87.99233 h 19.099114"
       id="path1303"
       inkscape:connector-curvature="0"
       inkscape:export-filename="/home/siqueira/Pictures/path1364.png"
       inkscape:export-xdpi="19.121201"
       inkscape:export-ydpi="19.121201" />
    <path
       inkscape:connector-curvature="0"
       id="path1305"
       d="M -57.297341,191.95488 V 324.5469 H 466.56405 V 192.63698"
       style="fill:none;stroke:#000000;stroke-width:5;stroke-linecap:butt;stroke-linejoin:miter;stroke-miterlimit:4;stroke-dasharray:none;stroke-opacity:1"
       sodipodi:nodetypes="cccc"
       inkscape:export-filename="/home/siqueira/Pictures/path1364.png"
       inkscape:export-xdpi="19.121201"
       inkscape:export-ydpi="19.121201" />
    <path
       inkscape:connector-curvature="0"
       id="path1307"
       d="M 203.26912,93.048756 H 139.15067 V 286.08621 h -20.46333"
       style="fill:none;stroke:#000000;stroke-width:5;stroke-linecap:butt;stroke-linejoin:miter;stroke-miterlimit:4;stroke-dasharray:none;stroke-opacity:1"
       sodipodi:nodetypes="cccc"
       inkscape:export-filename="/home/siqueira/Pictures/path1364.png"
       inkscape:export-xdpi="19.121201"
       inkscape:export-ydpi="19.121201" />
    <path
       style="fill:none;stroke:#000000;stroke-width:5;stroke-linecap:butt;stroke-linejoin:miter;stroke-miterlimit:4;stroke-dasharray:none;stroke-opacity:1"
       d="M 202.58702,129.88276 H 139.15068"
       id="path1309"
       inkscape:connector-curvature="0"
       inkscape:export-filename="/home/siqueira/Pictures/path1364.png"
       inkscape:export-xdpi="19.121201"
       inkscape:export-ydpi="19.121201" />
    <path
       inkscape:connector-curvature="0"
       id="path1311"
       d="M 202.58702,162.6241 H 139.15068"
       style="fill:none;stroke:#000000;stroke-width:5;stroke-linecap:butt;stroke-linejoin:miter;stroke-miterlimit:4;stroke-dasharray:none;stroke-opacity:1"
       inkscape:export-filename="/home/siqueira/Pictures/path1364.png"
       inkscape:export-xdpi="19.121201"
       inkscape:export-ydpi="19.121201" />
    <path
       style="fill:none;stroke:#000000;stroke-width:5;stroke-linecap:butt;stroke-linejoin:miter;stroke-miterlimit:4;stroke-dasharray:none;stroke-opacity:1"
       d="M 202.58702,242.43111 H 139.15068"
       id="path1313"
       inkscape:connector-curvature="0"
       inkscape:export-filename="/home/siqueira/Pictures/path1364.png"
       inkscape:export-xdpi="19.121201"
       inkscape:export-ydpi="19.121201" />
    <path
       inkscape:connector-curvature="0"
       id="path1315"
       d="m -39.56245,94.184523 0,-88.6744415 H 67.529007"
       style="fill:none;stroke:#aa0000;stroke-width:5;stroke-linecap:butt;stroke-linejoin:miter;stroke-miterlimit:4;stroke-dasharray:none;stroke-opacity:1"
       sodipodi:nodetypes="ccc"
       inkscape:export-filename="/home/siqueira/Pictures/path1364.png"
       inkscape:export-xdpi="19.121201"
       inkscape:export-ydpi="19.121201" />
    <rect
       style="opacity:1;fill:#ffffff;fill-opacity:0.99065396;stroke:#000000;stroke-width:11.97249985;stroke-linecap:round;stroke-linejoin:round;stroke-miterlimit:4;stroke-dasharray:none;stroke-dashoffset:0;stroke-opacity:1;paint-order:stroke fill markers"
       id="rect1334"
       width="129.89151"
       height="80.336922"
       x="401.43939"
       y="106.73968"
       ry="0.25162208"
       inkscape:export-filename="/home/siqueira/Pictures/path1364.png"
       inkscape:export-xdpi="19.121201"
       inkscape:export-ydpi="19.121201" />
    <text
       id="text1338"
       y="134.21494"
       x="466.9321"
       style="font-style:normal;font-variant:normal;font-weight:bold;font-stretch:normal;font-size:42.33333206px;line-height:1.25;font-family:Hack;-inkscape-font-specification:'Hack Bold';letter-spacing:0px;word-spacing:0px;fill:#000000;fill-opacity:1;stroke:none;stroke-width:0.26458332"
       xml:space="preserve"
       inkscape:export-filename="/home/siqueira/Pictures/path1364.png"
       inkscape:export-xdpi="19.121201"
       inkscape:export-ydpi="19.121201"><tspan
         style="font-size:25.39999962px;line-height:0;text-align:center;text-anchor:middle;stroke-width:0.26458332"
         y="134.21494"
         x="466.9321"
         sodipodi:role="line"
         id="tspan1344"><tspan
           dx="-1.5899999"
           id="tspan1346"
           style="font-size:25.39999962px;line-height:0;text-align:center;text-anchor:middle;stroke-width:0.26458332">Relês de</tspan></tspan></text>
    <text
       xml:space="preserve"
       style="font-style:normal;font-variant:normal;font-weight:bold;font-stretch:normal;font-size:42.33333206px;line-height:1.25;font-family:Hack;-inkscape-font-specification:'Hack Bold';letter-spacing:0px;word-spacing:0px;fill:#000000;fill-opacity:1;stroke:none;stroke-width:0.26458332"
       x="404.92532"
       y="170.8094"
       id="text1350"
       inkscape:export-filename="/home/siqueira/Pictures/path1364.png"
       inkscape:export-xdpi="19.121201"
       inkscape:export-ydpi="19.121201"><tspan
         sodipodi:role="line"
         x="404.92532"
         y="170.8094"
         style="font-size:25.39999962px;stroke-width:0.26458332"
         id="tspan1352">controle</tspan></text>
    <path
       sodipodi:nodetypes="cccc"
       style="fill:none;stroke:#000000;stroke-width:5;stroke-linecap:butt;stroke-linejoin:miter;stroke-miterlimit:4;stroke-dasharray:none;stroke-opacity:1"
       d="m 319.22803,93.048756 h 57.97945 v 55.933104 h 20.46333"
       id="path1356"
       inkscape:connector-curvature="0"
       inkscape:export-filename="/home/siqueira/Pictures/path1364.png"
       inkscape:export-xdpi="19.121201"
       inkscape:export-ydpi="19.121201" />
    <path
       inkscape:connector-curvature="0"
       id="path1358"
       d="m 319.22803,243.79532 h 57.97945 v -95.49556 h 20.46333"
       style="fill:none;stroke:#000000;stroke-width:5;stroke-linecap:butt;stroke-linejoin:miter;stroke-miterlimit:4;stroke-dasharray:none;stroke-opacity:1"
       sodipodi:nodetypes="cccc"
       inkscape:export-filename="/home/siqueira/Pictures/path1364.png"
       inkscape:export-xdpi="19.121201"
       inkscape:export-ydpi="19.121201" />
    <path
       inkscape:connector-curvature="0"
       id="path1360"
       d="M 376.60799,129.88276 H 317.93415"
       style="fill:none;stroke:#000000;stroke-width:5;stroke-linecap:butt;stroke-linejoin:miter;stroke-miterlimit:4;stroke-dasharray:none;stroke-opacity:1"
       sodipodi:nodetypes="cc"
       inkscape:export-filename="/home/siqueira/Pictures/path1364.png"
       inkscape:export-xdpi="19.121201"
       inkscape:export-ydpi="19.121201" />
    <path
       sodipodi:nodetypes="cc"
       style="fill:none;stroke:#000000;stroke-width:5;stroke-linecap:butt;stroke-linejoin:miter;stroke-miterlimit:4;stroke-dasharray:none;stroke-opacity:1"
       d="M 376.60799,163.30621 H 317.93415"
       id="path1362"
       inkscape:connector-curvature="0"
       inkscape:export-filename="/home/siqueira/Pictures/path1364.png"
       inkscape:export-xdpi="19.121201"
       inkscape:export-ydpi="19.121201" />
    <path
       sodipodi:nodetypes="cc"
       style="fill:none;stroke:#aa0000;stroke-width:5;stroke-linecap:butt;stroke-linejoin:miter;stroke-miterlimit:4;stroke-dasharray:none;stroke-opacity:1"
       d="M 259.20225,79.178077 V -15.635365"
       id="path1366"
       inkscape:connector-curvature="0"
       inkscape:export-filename="/home/siqueira/Pictures/path1364.png"
       inkscape:export-xdpi="19.121201"
       inkscape:export-ydpi="19.121201" />
    <path
       inkscape:connector-curvature="0"
       id="path1368"
       d="m -155.1803,141.8197 h -87.99233"
       style="fill:none;stroke:#000000;stroke-width:5;stroke-linecap:butt;stroke-linejoin:miter;stroke-miterlimit:4;stroke-dasharray:none;stroke-opacity:1"
       sodipodi:nodetypes="cc"
       inkscape:export-filename="/home/siqueira/Pictures/path1364.png"
       inkscape:export-xdpi="19.121201"
       inkscape:export-ydpi="19.121201" />
    <text
       xml:space="preserve"
       style="font-style:normal;font-variant:normal;font-weight:bold;font-stretch:normal;font-size:42.33333206px;line-height:1.25;font-family:Hack;-inkscape-font-specification:'Hack Bold';letter-spacing:0px;word-spacing:0px;fill:#000000;fill-opacity:1;stroke:none;stroke-width:0.26458332"
       x="-326.37616"
       y="148.71999"
       id="text1372"
       inkscape:export-filename="/home/siqueira/Pictures/path1364.png"
       inkscape:export-xdpi="19.121201"
       inkscape:export-ydpi="19.121201"><tspan
         sodipodi:role="line"
         id="tspan1370"
         x="-326.37616"
         y="148.71999"
         style="font-size:25.39999962px;stroke-width:0.26458332">Mundo</tspan></text>
    <text
       id="text1376"
       y="205.6344"
       x="-118.01157"
       style="font-style:normal;font-variant:normal;font-weight:bold;font-stretch:normal;font-size:42.33333206px;line-height:1.25;font-family:Hack;-inkscape-font-specification:'Hack Bold';letter-spacing:0px;word-spacing:0px;fill:#000000;fill-opacity:1;stroke:none;stroke-width:0.26458332"
       xml:space="preserve"
       inkscape:export-filename="/home/siqueira/Pictures/path1364.png"
       inkscape:export-xdpi="19.121201"
       inkscape:export-ydpi="19.121201"><tspan
         style="font-size:25.39999962px;stroke-width:0.26458332"
         y="205.6344"
         x="-118.01157"
         id="tspan1374"
         sodipodi:role="line">1</tspan></text>
    <text
       xml:space="preserve"
       style="font-style:normal;font-variant:normal;font-weight:bold;font-stretch:normal;font-size:42.33333206px;line-height:1.25;font-family:Hack;-inkscape-font-specification:'Hack Bold';letter-spacing:0px;word-spacing:0px;fill:#000000;fill-opacity:1;stroke:none;stroke-width:0.26458332"
       x="89.388367"
       y="263.51346"
       id="text1380"
       inkscape:export-filename="/home/siqueira/Pictures/path1364.png"
       inkscape:export-xdpi="19.121201"
       inkscape:export-ydpi="19.121201"><tspan
         sodipodi:role="line"
         id="tspan1378"
         x="89.388367"
         y="263.51346"
         style="font-size:25.39999962px;stroke-width:0.26458332">2</tspan></text>
    <text
       id="text1384"
       y="72.512581"
       x="210.93437"
       style="font-style:normal;font-variant:normal;font-weight:bold;font-stretch:normal;font-size:42.33333206px;line-height:1.25;font-family:Hack;-inkscape-font-specification:'Hack Bold';letter-spacing:0px;word-spacing:0px;fill:#000000;fill-opacity:1;stroke:none;stroke-width:0.26458332"
       xml:space="preserve"
       inkscape:export-filename="/home/siqueira/Pictures/path1364.png"
       inkscape:export-xdpi="19.121201"
       inkscape:export-ydpi="19.121201"><tspan
         style="font-size:25.39999962px;stroke-width:0.26458332"
         y="72.512581"
         x="210.93437"
         id="tspan1382"
         sodipodi:role="line">3</tspan></text>
    <text
       xml:space="preserve"
       style="font-style:normal;font-variant:normal;font-weight:bold;font-stretch:normal;font-size:42.33333206px;line-height:1.25;font-family:Hack;-inkscape-font-specification:'Hack Bold';letter-spacing:0px;word-spacing:0px;fill:#000000;fill-opacity:1;stroke:none;stroke-width:0.26458332"
       x="545.66821"
       y="158.36652"
       id="text1388"
       inkscape:export-filename="/home/siqueira/Pictures/path1364.png"
       inkscape:export-xdpi="19.121201"
       inkscape:export-ydpi="19.121201"><tspan
         sodipodi:role="line"
         id="tspan1386"
         x="545.66821"
         y="158.36652"
         style="font-size:25.39999962px;stroke-width:0.26458332">4</tspan></text>
    <text
       id="text1392"
       y="-55.78598"
       x="143.4088"
       style="font-style:normal;font-variant:normal;font-weight:bold;font-stretch:normal;font-size:42.33333206px;line-height:1.25;font-family:Hack;-inkscape-font-specification:'Hack Bold';letter-spacing:0px;word-spacing:0px;fill:#000000;fill-opacity:1;stroke:none;stroke-width:0.26458332"
       xml:space="preserve"
       inkscape:export-filename="/home/siqueira/Pictures/path1364.png"
       inkscape:export-xdpi="19.121201"
       inkscape:export-ydpi="19.121201"><tspan
         style="font-size:25.39999962px;stroke-width:0.26458332"
         y="-55.78598"
         x="143.4088"
         id="tspan1390"
         sodipodi:role="line">5</tspan></text>
    <text
       xml:space="preserve"
       style="font-style:normal;font-variant:normal;font-weight:bold;font-stretch:normal;font-size:42.33333206px;line-height:1.25;font-family:Hack;-inkscape-font-specification:'Hack Bold';letter-spacing:0px;word-spacing:0px;fill:#000000;fill-opacity:1;stroke:none;stroke-width:0.26458332"
       x="119.29253"
       y="28.138649"
       id="text1396"
       inkscape:export-filename="/home/siqueira/Pictures/path1364.png"
       inkscape:export-xdpi="19.121201"
       inkscape:export-ydpi="19.121201"><tspan
         sodipodi:role="line"
         id="tspan1394"
         x="119.29253"
         y="28.138649"
         style="font-size:19.75555611px;stroke-width:0.26458332">Fonte</tspan></text>
    <text
       id="text1400"
       y="313.67532"
       x="-4.182786"
       style="font-style:normal;font-variant:normal;font-weight:bold;font-stretch:normal;font-size:42.33333206px;line-height:1.25;font-family:Hack;-inkscape-font-specification:'Hack Bold';letter-spacing:0px;word-spacing:0px;fill:#000000;fill-opacity:1;stroke:none;stroke-width:0.26458332"
       xml:space="preserve"
       inkscape:export-filename="/home/siqueira/Pictures/path1364.png"
       inkscape:export-xdpi="19.121201"
       inkscape:export-ydpi="19.121201"><tspan
         style="font-size:19.75555611px;stroke-width:0.26458332"
         y="313.67532"
         x="-4.182786"
         id="tspan1398"
         sodipodi:role="line">Roteador</tspan></text>
    <text
       xml:space="preserve"
       style="font-style:normal;font-variant:normal;font-weight:bold;font-stretch:normal;font-size:42.33333206px;line-height:1.25;font-family:Hack;-inkscape-font-specification:'Hack Bold';letter-spacing:0px;word-spacing:0px;fill:#000000;fill-opacity:1;stroke:none;stroke-width:0.26458332"
       x="-126.50021"
       y="73.477249"
       id="text1404"
       inkscape:export-filename="/home/siqueira/Pictures/path1364.png"
       inkscape:export-xdpi="19.121201"
       inkscape:export-ydpi="19.121201"><tspan
         sodipodi:role="line"
         id="tspan1402"
         x="-126.50021"
         y="73.477249"
         style="font-size:19.75555611px;stroke-width:0.26458332">Placa</tspan></text>
    <text
       id="text1408"
       y="92.770271"
       x="-114.15298"
       style="font-style:normal;font-variant:normal;font-weight:bold;font-stretch:normal;font-size:42.33333206px;line-height:1.25;font-family:Hack;-inkscape-font-specification:'Hack Bold';letter-spacing:0px;word-spacing:0px;fill:#000000;fill-opacity:1;stroke:none;stroke-width:0.26458332"
       xml:space="preserve"
       inkscape:export-filename="/home/siqueira/Pictures/path1364.png"
       inkscape:export-xdpi="19.121201"
       inkscape:export-ydpi="19.121201"><tspan
         style="font-size:19.75555611px;stroke-width:0.26458332"
         y="92.770271"
         x="-114.15298"
         id="tspan1406"
         sodipodi:role="line">Mãe</tspan></text>
  </g>
</svg>
