<?xml version="1.0" encoding="UTF-8" standalone="no"?>
<!-- Created with Inkscape (http://www.inkscape.org/) -->

<svg
   xmlns:dc="http://purl.org/dc/elements/1.1/"
   xmlns:cc="http://creativecommons.org/ns#"
   xmlns:rdf="http://www.w3.org/1999/02/22-rdf-syntax-ns#"
   xmlns:svg="http://www.w3.org/2000/svg"
   xmlns="http://www.w3.org/2000/svg"
   xmlns:sodipodi="http://sodipodi.sourceforge.net/DTD/sodipodi-0.dtd"
   xmlns:inkscape="http://www.inkscape.org/namespaces/inkscape"
   width="210mm"
   height="297mm"
   viewBox="0 0 210 297"
   version="1.1"
   id="svg8"
   inkscape:version="0.92.2 2405546, 2018-03-11"
   sodipodi:docname="gsoc.svg">
  <defs
     id="defs2">
    <filter
       inkscape:collect="always"
       style="color-interpolation-filters:sRGB"
       id="filter946"
       x="-0.012047696"
       width="1.0240954"
       y="-0.01195268"
       height="1.0239054">
      <feGaussianBlur
         inkscape:collect="always"
         stdDeviation="0.27150827"
         id="feGaussianBlur948" />
    </filter>
    <filter
       inkscape:collect="always"
       style="color-interpolation-filters:sRGB"
       id="filter950"
       x="-0.012047696"
       width="1.0240954"
       y="-0.01195268"
       height="1.0239054">
      <feGaussianBlur
         inkscape:collect="always"
         stdDeviation="0.27150827"
         id="feGaussianBlur952" />
    </filter>
  </defs>
  <sodipodi:namedview
     id="base"
     pagecolor="#ffffff"
     bordercolor="#666666"
     borderopacity="1.0"
     inkscape:pageopacity="0.0"
     inkscape:pageshadow="2"
     inkscape:zoom="0.92333333"
     inkscape:cx="967.34864"
     inkscape:cy="365.34987"
     inkscape:document-units="mm"
     inkscape:current-layer="layer1"
     showgrid="false"
     inkscape:window-width="1920"
     inkscape:window-height="1039"
     inkscape:window-x="1920"
     inkscape:window-y="0"
     inkscape:window-maximized="1"
     inkscape:snap-nodes="false" />
  <metadata
     id="metadata5">
    <rdf:RDF>
      <cc:Work
         rdf:about="">
        <dc:format>image/svg+xml</dc:format>
        <dc:type
           rdf:resource="http://purl.org/dc/dcmitype/StillImage" />
        <dc:title></dc:title>
      </cc:Work>
    </rdf:RDF>
  </metadata>
  <g
     inkscape:label="Layer 1"
     inkscape:groupmode="layer"
     id="layer1">
    <path
       d="m 209.89959,242.12522 -4.44156,-5.80268 6.66234,4.29828 -4.5132,-7.23544 7.30709,4.87138 -4.29829,-7.95182 10.31589,7.80855 -5.22958,1.57604 3.94009,4.29828 -4.94303,2.79389 -2.22078,-3.58191 0.21492,1.93423 6.66234,0.14328 -3.5819,2.93716 2.6506,1.14621 -7.09217,8.59657 3.65355,-8.0951 -7.73692,4.36992 3.86846,-7.522 -5.01467,5.51613 0.57311,-17.76624 26.57773,-1.79095 -2.93717,8.6682 6.66235,-2.0775 -4.36993,3.86846 4.94303,1.00293 -5.15794,1.00293 2.36406,8.38166 -6.30416,-5.51613 3.08044,9.16967 -4.22664,-8.16674 2.22078,9.52786 -3.72518,-8.38165 -3.0088,10.74571 -1.79096,-13.32468 5.4445,-0.64474 1.5044,-4.72812 1.64767,2.36406 -7.09217,-3.65355 3.08044,-1.14621 -2.22078,-2.36405 2.4357,0.64474 -2.07751,-1.86259 6.73398,-6.0176 -7.02053,5.30122 -3.29535,-8.38165 -4.87139,11.24717 m -12.82309,-0.64478 -4.22678,1.71935 3.0088,3.367 -4.58483,4.44156 4.87139,0.64474 -1.93423,2.50733 2.72224,0.35819 1.5044,12.53667 -2.22078,-3.65355 4.15501,-3.15207 -0.0716,6.9489 2.93716,-4.08338 0.64475,3.86846 -2.93716,-6.08924 -4.87139,-3.0088 3.86845,9.45623 m 7.95179,-37.39508 7.45036,-9.45623 6.51907,9.0264 12.6083,4.08337 -1.43276,6.08924 2.79388,1.43276 -0.0716,13.32468 -2.00587,-0.0716 5.0863,-2.93716 -0.0716,-7.59364 h -4.36993 l 7.88019,4.01173 -7.59363,3.43863 2.43569,2.00587 -3.65354,1.93422 1.07457,3.43863 -3.51027,0.71638 -0.21491,7.522 -6.51907,-1.79095 -2.86552,3.79681 -7.45036,4.87141 -2.29242,-6.73399 -3.0088,1.14621 -1.00293,-2.4357 -5.87433,1.36113 -5.6594,-2.00587 2.50733,-7.02053 -2.36406,8.95476 5.37286,-5.4445 -2.65061,5.37286 4.94303,-3.36699 0.35819,3.43863 4.44156,-0.78802 1.57604,3.79683 9.24131,0.78801 -4.29829,4.15502 -0.21491,-7.45037 5.44449,2.14915 1.00294,-3.29536 4.72811,0.71638 8.23838,-4.79976 -1.14621,4.94303 -5.58777,-4.29828 6.73398,-2.00587 -1.93423,-3.65354 1.93423,-1.57604 -0.21491,-3.15208 6.5907,-2.93716 -6.08924,-3.79682 -0.14327,-6.0176 -2.79389,-2.0775 -0.93129,-9.0264 3.51026,1.21785 0.14328,-1.28948 -6.30415,4.51319 4.15501,-4.58483 2.0775,3.72518 h -7.16381 l -1.64767,-3.58191 8.81148,2.07751 -4.87139,3.72518 -0.50146,-5.80269 5.30121,8.09511 -3.5819,-0.85966 -2.57897,-7.16381 6.16087,1.43276 h -10.5308 l -0.5731,-1.57603 -1.5044,0.85965 -0.42983,-3.22371 -2.43569,2.29242 -4.65648,-6.80562 1.71932,-0.64475 -2.07751,7.16381 -3.22371,-2.93716 8.6682,-0.85966 -3.5819,3.9401 -3.29535,-4.79975 4.72811,-1.28949 -5.37285,6.44743 -2.50734,-2.00587 8.95476,-3.36699 -8.0951,5.65941 -2.79389,-0.42982 -1.28948,2.22078 -9.88606,0.0716 2.93716,-2.36405 2.65061,5.30121 -5.58777,0.9313 5.58777,-6.16087 1.5044,3.65354 -7.09217,-3.72518 3.08044,8.31001 -3.0088,0.28656 1.43276,2.57897 -2.14914,0.64474 0.85966,3.36699 -6.30415,6.16088 -0.0716,-4.29829 5.80268,3.36699 -3.5819,2.86552 4.15501,0.57311 -1.5044,2.29242 1.93423,-0.64475 -0.78802,1.71932 1.71931,0.21491 -1.57604,3.22372 7.02053,7.80855 2.00587,-2.4357 0.28655,2.4357 4.51321,-0.50147 2.00586,5.15795 2.4357,-4.36993 3.22371,5.22958 h -4.94303 l 6.30415,-5.65941 4.15501,0.0716 3.15208,-3.0088 8.23838,3.15208 -4.87139,-6.08924 4.5132,0.50146 -2.36406,-3.08043 8.88312,-12.60831 0.78802,3.00881 -6.73398,0.21491 5.01467,-3.72518 -5.87433,-3.0088 0.50147,-4.08337 -10.31588,-9.52787 1.64767,2.79389 8.73985,3.94009 -1.36112,-6.94889 -10.45917,1.36112 -0.42982,-2.36405 -2.14915,1.5044 -0.0716,-3.51027 -2.50734,2.93716 -4.36992,-5.73105 3.15208,-0.85966 -1.5044,6.3758 -6.73398,-0.64475 -0.85966,2.65061 -2.07751,-1.64767 -0.5731,2.93716 -2.00587,-2.86552 -6.37579,3.72517 4.01174,3.15208 -4.01174,0.28655 1.93423,2.4357 -1.93423,1.28948 0.85966,1.93423 -3.0088,0.21491 1.93423,3.72519 -5.30122,5.15794 0.21492,-5.4445 4.87139,1.86259 -7.59364,0.78802 7.80855,2.50734 -2.22078,3.0088 2.79388,-0.14328 -1.07457,2.00587 1.57604,-0.21492 -0.85966,2.4357 2.07751,-0.0716 -2.07751,4.01173 1.5044,5.65941 4.87139,-4.5132 -0.93129,4.44156 2.93716,-2.79388 0.21491,2.86552 1.57604,-1.64768 1.64768,2.50734 2.72225,-0.9313 0.42982,3.9401 5.94596,-3.72518 3.9401,2.22078 -7.88019,-2.22078 -4.01173,1.79094 11.89192,-2.29241 13.39632,-1.21785 -2.50733,1.71932 -3.15208,-5.30122 5.80269,-2.14915 -1.79095,-3.43862 2.14914,-0.9313 -0.21492,-5.22958 5.51614,-4.5132 -5.94596,-2.22078 2.72224,-0.93129 m -30.01649,-9.16968 8.02347,10.74571 -7.30708,5.15795 v -2.72225 l 5.0863,7.59364 -9.09804,6.23251 1.57604,-9.95769 -6.66234,0.50146 4.44156,-3.51026 -3.72518,-5.30122 10.88899,-0.42983 6.94889,-10.45916 5.73105,12.39339 9.09804,2.57897 -4.36993,2.43569 -2.43569,13.10977 -9.67114,-8.59657 5.6594,-8.02346 1.86259,4.15501 -6.08923,-3.43863 3.22371,-1.5044 -2.29242,-2.22078 10.60244,-4.65648 -3.15208,8.09511 6.44743,-1.43277 -4.15501,3.22372 3.86846,5.65941 -7.66528,-1.43276 -3.15207,12.39338 -6.23251,-7.30708 -5.94597,6.87725 -0.93129,-11.46209 -7.37872,3.0088 2.6506,-6.37579 -4.36992,-2.22078 7.45036,-1.36112 -2.86552,-8.52493 13.18141,2.72224 5.65941,-7.09217 2.0775,12.17848 6.9489,-2.86553 -12.46503,-1.86259 7.02053,-5.15794 -0.9313,10.38752 6.73399,-2.43569 -3.51027,17.04986 -12.75158,-4.44156 5.30122,-3.65354 -3.9401,-2.57897 3.79682,-5.58777 -2.00586,-2.29242 9.02639,-5.01467 -5.65941,6.51907 7.73692,-4.08337 -5.58777,5.73104 6.5907,-3.94009 -3.51026,6.44743 5.22958,-1.36113 -16.33349,19.5572 -5.37285,-10.74571 -3.79682,8.16674 5.80268,-5.87432 -0.14327,8.02346 1.5044,-7.80855 1.28948,8.23838 6.0176,-32.7386 2.29242,11.82028 8.81149,3.51027 -6.44743,2.65061 -2.57898,13.10976 -8.45329,-7.09217 5.58777,-3.5819 -4.29828,-2.00587 6.94889,-4.01173 1.86259,1.5044 -8.52493,1.93423 4.15501,3.94009 -9.95769,10.24425 -1.79096,-11.1039 -7.23545,4.44156 2.57898,-8.02347 -5.58777,-0.42982 4.51319,-1.07458 -4.155,-3.43863 8.95476,-0.78802 -1.43277,-9.95769 -5.30121,5.65941 3.51026,6.73398 -4.5132,-5.0863 3.79682,5.80268 -4.94303,-1.28948 4.29829,3.08043 2.00586,12.67994 8.23839,-9.67114 -4.29829,-6.0176 -2.0775,3.0088 -0.78802,-1.07457 -0.35819,0.57311 8.16674,0.64474 -3.94009,-4.08337 -1.14621,5.58777 5.44449,-3.43863 -3.86846,-2.36406 5.30122,-3.51026 -4.08337,-9.52787 -2.93716,11.4621 -9.67114,0.50146 0.35819,10.17261 12.96649,1.64768 -2.00586,-1.71932 2.50733,-0.85965 -2.65061,-1.14621 3.51026,-1.57604 -3.29535,-7.02053 5.51614,-2.79389 -1.86259,-9.09803 -3.72518,10.96062 5.01466,0.64474 -4.79975,1.36113 4.01173,2.00586 -8.52493,2.07751 7.37872,2.65061 -2.86552,1.93423 1.71931,3.15207 -9.67114,3.29535 1.86259,-9.24131 -6.30415,-1.93423 11.39046,-15.76038 7.66527,7.30709 6.5907,-6.0176 2.29242,12.67994 6.0176,0.71638 -4.58483,1.28949 4.44156,1.79095 -7.522,1.14621 2.0775,9.45622 -5.15794,-7.09216 -2.57897,11.03226 -3.65354,-10.60244 6.73398,-8.0951 1.64767,3.08044 0.57311,-1.43276 -2.50734,2.93716 -5.0863,-2.93716 4.08337,-2.72225 0.14328,6.23251 -3.22372,-6.87725 2.79389,-2.50734 -0.9313,-10.10097 -9.02639,11.17554 4.29828,2.4357 -4.87139,6.08924 6.0176,-20.1303 5.0863,11.17553 11.17555,6.30416 -1.93423,7.80855 -7.522,-3.72518 -0.71638,10.96062 -8.4533,1.43277 -0.5731,-8.38166 -5.30122,6.23251 -1.28949,-11.53373 -7.59363,0.64475 4.87139,-3.0088"
       style="fill:none;stroke:#000000;stroke-width:0.26458332px;stroke-linecap:round;stroke-linejoin:round;stroke-opacity:1;filter:url(#filter946)"
       id="path942" />
    <path
       id="path944"
       style="fill:none;stroke:#000000;stroke-width:0.6;stroke-linecap:round;stroke-linejoin:round;stroke-opacity:1;stroke-miterlimit:4;stroke-dasharray:none;filter:url(#filter950)"
       d="m 209.89959,242.12522 -4.44156,-5.80268 6.66234,4.29828 -4.5132,-7.23544 7.30709,4.87138 -4.29829,-7.95182 10.31589,7.80855 -5.22958,1.57604 3.94009,4.29828 -4.94303,2.79389 -2.22078,-3.58191 0.21492,1.93423 6.66234,0.14328 -3.5819,2.93716 2.6506,1.14621 -7.09217,8.59657 3.65355,-8.0951 -7.73692,4.36992 3.86846,-7.522 -5.01467,5.51613 0.57311,-17.76624 26.57773,-1.79095 -2.93717,8.6682 6.66235,-2.0775 -4.36993,3.86846 4.94303,1.00293 -5.15794,1.00293 2.36406,8.38166 -6.30416,-5.51613 3.08044,9.16967 -4.22664,-8.16674 2.22078,9.52786 -3.72518,-8.38165 -3.0088,10.74571 -1.79096,-13.32468 5.4445,-0.64474 1.5044,-4.72812 1.64767,2.36406 -7.09217,-3.65355 3.08044,-1.14621 -2.22078,-2.36405 2.4357,0.64474 -2.07751,-1.86259 6.73398,-6.0176 -7.02053,5.30122 -3.29535,-8.38165 -4.87139,11.24717 m -12.82309,-0.64478 -4.22678,1.71935 3.0088,3.367 -4.58483,4.44156 4.87139,0.64474 -1.93423,2.50733 2.72224,0.35819 1.5044,12.53667 -2.22078,-3.65355 4.15501,-3.15207 -0.0716,6.9489 2.93716,-4.08338 0.64475,3.86846 -2.93716,-6.08924 -4.87139,-3.0088 3.86845,9.45623 m 7.95179,-37.39508 7.45036,-9.45623 6.51907,9.0264 12.6083,4.08337 -1.43276,6.08924 2.79388,1.43276 -0.0716,13.32468 -2.00587,-0.0716 5.0863,-2.93716 -0.0716,-7.59364 h -4.36993 l 7.88019,4.01173 -7.59363,3.43863 2.43569,2.00587 -3.65354,1.93422 1.07457,3.43863 -3.51027,0.71638 -0.21491,7.522 -6.51907,-1.79095 -2.86552,3.79681 -7.45036,4.87141 -2.29242,-6.73399 -3.0088,1.14621 -1.00293,-2.4357 -5.87433,1.36113 -5.6594,-2.00587 2.50733,-7.02053 -2.36406,8.95476 5.37286,-5.4445 -2.65061,5.37286 4.94303,-3.36699 0.35819,3.43863 4.44156,-0.78802 1.57604,3.79683 9.24131,0.78801 -4.29829,4.15502 -0.21491,-7.45037 5.44449,2.14915 1.00294,-3.29536 4.72811,0.71638 8.23838,-4.79976 -1.14621,4.94303 -5.58777,-4.29828 6.73398,-2.00587 -1.93423,-3.65354 1.93423,-1.57604 -0.21491,-3.15208 6.5907,-2.93716 -6.08924,-3.79682 -0.14327,-6.0176 -2.79389,-2.0775 -0.93129,-9.0264 3.51026,1.21785 0.14328,-1.28948 -6.30415,4.51319 4.15501,-4.58483 2.0775,3.72518 h -7.16381 l -1.64767,-3.58191 8.81148,2.07751 -4.87139,3.72518 -0.50146,-5.80269 5.30121,8.09511 -3.5819,-0.85966 -2.57897,-7.16381 6.16087,1.43276 h -10.5308 l -0.5731,-1.57603 -1.5044,0.85965 -0.42983,-3.22371 -2.43569,2.29242 -4.65648,-6.80562 1.71932,-0.64475 -2.07751,7.16381 -3.22371,-2.93716 8.6682,-0.85966 -3.5819,3.9401 -3.29535,-4.79975 4.72811,-1.28949 -5.37285,6.44743 -2.50734,-2.00587 8.95476,-3.36699 -8.0951,5.65941 -2.79389,-0.42982 -1.28948,2.22078 -9.88606,0.0716 2.93716,-2.36405 2.65061,5.30121 -5.58777,0.9313 5.58777,-6.16087 1.5044,3.65354 -7.09217,-3.72518 3.08044,8.31001 -3.0088,0.28656 1.43276,2.57897 -2.14914,0.64474 0.85966,3.36699 -6.30415,6.16088 -0.0716,-4.29829 5.80268,3.36699 -3.5819,2.86552 4.15501,0.57311 -1.5044,2.29242 1.93423,-0.64475 -0.78802,1.71932 1.71931,0.21491 -1.57604,3.22372 7.02053,7.80855 2.00587,-2.4357 0.28655,2.4357 4.51321,-0.50147 2.00586,5.15795 2.4357,-4.36993 3.22371,5.22958 h -4.94303 l 6.30415,-5.65941 4.15501,0.0716 3.15208,-3.0088 8.23838,3.15208 -4.87139,-6.08924 4.5132,0.50146 -2.36406,-3.08043 8.88312,-12.60831 0.78802,3.00881 -6.73398,0.21491 5.01467,-3.72518 -5.87433,-3.0088 0.50147,-4.08337 -10.31588,-9.52787 1.64767,2.79389 8.73985,3.94009 -1.36112,-6.94889 -10.45917,1.36112 -0.42982,-2.36405 -2.14915,1.5044 -0.0716,-3.51027 -2.50734,2.93716 -4.36992,-5.73105 3.15208,-0.85966 -1.5044,6.3758 -6.73398,-0.64475 -0.85966,2.65061 -2.07751,-1.64767 -0.5731,2.93716 -2.00587,-2.86552 -6.37579,3.72517 4.01174,3.15208 -4.01174,0.28655 1.93423,2.4357 -1.93423,1.28948 0.85966,1.93423 -3.0088,0.21491 1.93423,3.72519 -5.30122,5.15794 0.21492,-5.4445 4.87139,1.86259 -7.59364,0.78802 7.80855,2.50734 -2.22078,3.0088 2.79388,-0.14328 -1.07457,2.00587 1.57604,-0.21492 -0.85966,2.4357 2.07751,-0.0716 -2.07751,4.01173 1.5044,5.65941 4.87139,-4.5132 -0.93129,4.44156 2.93716,-2.79388 0.21491,2.86552 1.57604,-1.64768 1.64768,2.50734 2.72225,-0.9313 0.42982,3.9401 5.94596,-3.72518 3.9401,2.22078 -7.88019,-2.22078 -4.01173,1.79094 11.89192,-2.29241 13.39632,-1.21785 -2.50733,1.71932 -3.15208,-5.30122 5.80269,-2.14915 -1.79095,-3.43862 2.14914,-0.9313 -0.21492,-5.22958 5.51614,-4.5132 -5.94596,-2.22078 2.72224,-0.93129 m -30.01649,-9.16968 8.02347,10.74571 -7.30708,5.15795 v -2.72225 l 5.0863,7.59364 -9.09804,6.23251 1.57604,-9.95769 -6.66234,0.50146 4.44156,-3.51026 -3.72518,-5.30122 10.88899,-0.42983 6.94889,-10.45916 5.73105,12.39339 9.09804,2.57897 -4.36993,2.43569 -2.43569,13.10977 -9.67114,-8.59657 5.6594,-8.02346 1.86259,4.15501 -6.08923,-3.43863 3.22371,-1.5044 -2.29242,-2.22078 10.60244,-4.65648 -3.15208,8.09511 6.44743,-1.43277 -4.15501,3.22372 3.86846,5.65941 -7.66528,-1.43276 -3.15207,12.39338 -6.23251,-7.30708 -5.94597,6.87725 -0.93129,-11.46209 -7.37872,3.0088 2.6506,-6.37579 -4.36992,-2.22078 7.45036,-1.36112 -2.86552,-8.52493 13.18141,2.72224 5.65941,-7.09217 2.0775,12.17848 6.9489,-2.86553 -12.46503,-1.86259 7.02053,-5.15794 -0.9313,10.38752 6.73399,-2.43569 -3.51027,17.04986 -12.75158,-4.44156 5.30122,-3.65354 -3.9401,-2.57897 3.79682,-5.58777 -2.00586,-2.29242 9.02639,-5.01467 -5.65941,6.51907 7.73692,-4.08337 -5.58777,5.73104 6.5907,-3.94009 -3.51026,6.44743 5.22958,-1.36113 -16.33349,19.5572 -5.37285,-10.74571 -3.79682,8.16674 5.80268,-5.87432 -0.14327,8.02346 1.5044,-7.80855 1.28948,8.23838 6.0176,-32.7386 2.29242,11.82028 8.81149,3.51027 -6.44743,2.65061 -2.57898,13.10976 -8.45329,-7.09217 5.58777,-3.5819 -4.29828,-2.00587 6.94889,-4.01173 1.86259,1.5044 -8.52493,1.93423 4.15501,3.94009 -9.95769,10.24425 -1.79096,-11.1039 -7.23545,4.44156 2.57898,-8.02347 -5.58777,-0.42982 4.51319,-1.07458 -4.155,-3.43863 8.95476,-0.78802 -1.43277,-9.95769 -5.30121,5.65941 3.51026,6.73398 -4.5132,-5.0863 3.79682,5.80268 -4.94303,-1.28948 4.29829,3.08043 2.00586,12.67994 8.23839,-9.67114 -4.29829,-6.0176 -2.0775,3.0088 -0.78802,-1.07457 -0.35819,0.57311 8.16674,0.64474 -3.94009,-4.08337 -1.14621,5.58777 5.44449,-3.43863 -3.86846,-2.36406 5.30122,-3.51026 -4.08337,-9.52787 -2.93716,11.4621 -9.67114,0.50146 0.35819,10.17261 12.96649,1.64768 -2.00586,-1.71932 2.50733,-0.85965 -2.65061,-1.14621 3.51026,-1.57604 -3.29535,-7.02053 5.51614,-2.79389 -1.86259,-9.09803 -3.72518,10.96062 5.01466,0.64474 -4.79975,1.36113 4.01173,2.00586 -8.52493,2.07751 7.37872,2.65061 -2.86552,1.93423 1.71931,3.15207 -9.67114,3.29535 1.86259,-9.24131 -6.30415,-1.93423 11.39046,-15.76038 7.66527,7.30709 6.5907,-6.0176 2.29242,12.67994 6.0176,0.71638 -4.58483,1.28949 4.44156,1.79095 -7.522,1.14621 2.0775,9.45622 -5.15794,-7.09216 -2.57897,11.03226 -3.65354,-10.60244 6.73398,-8.0951 1.64767,3.08044 0.57311,-1.43276 -2.50734,2.93716 -5.0863,-2.93716 4.08337,-2.72225 0.14328,6.23251 -3.22372,-6.87725 2.79389,-2.50734 -0.9313,-10.10097 -9.02639,11.17554 4.29828,2.4357 -4.87139,6.08924 6.0176,-20.1303 5.0863,11.17553 11.17555,6.30416 -1.93423,7.80855 -7.522,-3.72518 -0.71638,10.96062 -8.4533,1.43277 -0.5731,-8.38166 -5.30122,6.23251 -1.28949,-11.53373 -7.59363,0.64475 4.87139,-3.0088" />
    <path
       id="path923"
       style="fill:none;stroke:#000000;stroke-width:0.26458332px;stroke-linecap:round;stroke-linejoin:round;stroke-opacity:1"
       d="m 209.89959,242.12522 -4.44156,-5.80268 6.66234,4.29828 -4.5132,-7.23544 7.30709,4.87138 -4.29829,-7.95182 10.31589,7.80855 -5.22958,1.57604 3.94009,4.29828 -4.94303,2.79389 -2.22078,-3.58191 0.21492,1.93423 6.66234,0.14328 -3.5819,2.93716 2.6506,1.14621 -7.09217,8.59657 3.65355,-8.0951 -7.73692,4.36992 3.86846,-7.522 -5.01467,5.51613 0.57311,-17.76624 26.57773,-1.79095 -2.93717,8.6682 6.66235,-2.0775 -4.36993,3.86846 4.94303,1.00293 -5.15794,1.00293 2.36406,8.38166 -6.30416,-5.51613 3.08044,9.16967 -4.22664,-8.16674 2.22078,9.52786 -3.72518,-8.38165 -3.0088,10.74571 -1.79096,-13.32468 5.4445,-0.64474 1.5044,-4.72812 1.64767,2.36406 -7.09217,-3.65355 3.08044,-1.14621 -2.22078,-2.36405 2.4357,0.64474 -2.07751,-1.86259 6.73398,-6.0176 -7.02053,5.30122 -3.29535,-8.38165 -4.87139,11.24717 m -12.82309,-0.64478 -4.22678,1.71935 3.0088,3.367 -4.58483,4.44156 4.87139,0.64474 -1.93423,2.50733 2.72224,0.35819 1.5044,12.53667 -2.22078,-3.65355 4.15501,-3.15207 -0.0716,6.9489 2.93716,-4.08338 0.64475,3.86846 -2.93716,-6.08924 -4.87139,-3.0088 3.86845,9.45623 m 7.95179,-37.39508 7.45036,-9.45623 6.51907,9.0264 12.6083,4.08337 -1.43276,6.08924 2.79388,1.43276 -0.0716,13.32468 -2.00587,-0.0716 5.0863,-2.93716 -0.0716,-7.59364 h -4.36993 l 7.88019,4.01173 -7.59363,3.43863 2.43569,2.00587 -3.65354,1.93422 1.07457,3.43863 -3.51027,0.71638 -0.21491,7.522 -6.51907,-1.79095 -2.86552,3.79681 -7.45036,4.87141 -2.29242,-6.73399 -3.0088,1.14621 -1.00293,-2.4357 -5.87433,1.36113 -5.6594,-2.00587 2.50733,-7.02053 -2.36406,8.95476 5.37286,-5.4445 -2.65061,5.37286 4.94303,-3.36699 0.35819,3.43863 4.44156,-0.78802 1.57604,3.79683 9.24131,0.78801 -4.29829,4.15502 -0.21491,-7.45037 5.44449,2.14915 1.00294,-3.29536 4.72811,0.71638 8.23838,-4.79976 -1.14621,4.94303 -5.58777,-4.29828 6.73398,-2.00587 -1.93423,-3.65354 1.93423,-1.57604 -0.21491,-3.15208 6.5907,-2.93716 -6.08924,-3.79682 -0.14327,-6.0176 -2.79389,-2.0775 -0.93129,-9.0264 3.51026,1.21785 0.14328,-1.28948 -6.30415,4.51319 4.15501,-4.58483 2.0775,3.72518 h -7.16381 l -1.64767,-3.58191 8.81148,2.07751 -4.87139,3.72518 -0.50146,-5.80269 5.30121,8.09511 -3.5819,-0.85966 -2.57897,-7.16381 6.16087,1.43276 h -10.5308 l -0.5731,-1.57603 -1.5044,0.85965 -0.42983,-3.22371 -2.43569,2.29242 -4.65648,-6.80562 1.71932,-0.64475 -2.07751,7.16381 -3.22371,-2.93716 8.6682,-0.85966 -3.5819,3.9401 -3.29535,-4.79975 4.72811,-1.28949 -5.37285,6.44743 -2.50734,-2.00587 8.95476,-3.36699 -8.0951,5.65941 -2.79389,-0.42982 -1.28948,2.22078 -9.88606,0.0716 2.93716,-2.36405 2.65061,5.30121 -5.58777,0.9313 5.58777,-6.16087 1.5044,3.65354 -7.09217,-3.72518 3.08044,8.31001 -3.0088,0.28656 1.43276,2.57897 -2.14914,0.64474 0.85966,3.36699 -6.30415,6.16088 -0.0716,-4.29829 5.80268,3.36699 -3.5819,2.86552 4.15501,0.57311 -1.5044,2.29242 1.93423,-0.64475 -0.78802,1.71932 1.71931,0.21491 -1.57604,3.22372 7.02053,7.80855 2.00587,-2.4357 0.28655,2.4357 4.51321,-0.50147 2.00586,5.15795 2.4357,-4.36993 3.22371,5.22958 h -4.94303 l 6.30415,-5.65941 4.15501,0.0716 3.15208,-3.0088 8.23838,3.15208 -4.87139,-6.08924 4.5132,0.50146 -2.36406,-3.08043 8.88312,-12.60831 0.78802,3.00881 -6.73398,0.21491 5.01467,-3.72518 -5.87433,-3.0088 0.50147,-4.08337 -10.31588,-9.52787 1.64767,2.79389 8.73985,3.94009 -1.36112,-6.94889 -10.45917,1.36112 -0.42982,-2.36405 -2.14915,1.5044 -0.0716,-3.51027 -2.50734,2.93716 -4.36992,-5.73105 3.15208,-0.85966 -1.5044,6.3758 -6.73398,-0.64475 -0.85966,2.65061 -2.07751,-1.64767 -0.5731,2.93716 -2.00587,-2.86552 -6.37579,3.72517 4.01174,3.15208 -4.01174,0.28655 1.93423,2.4357 -1.93423,1.28948 0.85966,1.93423 -3.0088,0.21491 1.93423,3.72519 -5.30122,5.15794 0.21492,-5.4445 4.87139,1.86259 -7.59364,0.78802 7.80855,2.50734 -2.22078,3.0088 2.79388,-0.14328 -1.07457,2.00587 1.57604,-0.21492 -0.85966,2.4357 2.07751,-0.0716 -2.07751,4.01173 1.5044,5.65941 4.87139,-4.5132 -0.93129,4.44156 2.93716,-2.79388 0.21491,2.86552 1.57604,-1.64768 1.64768,2.50734 2.72225,-0.9313 0.42982,3.9401 5.94596,-3.72518 3.9401,2.22078 -7.88019,-2.22078 -4.01173,1.79094 11.89192,-2.29241 13.39632,-1.21785 -2.50733,1.71932 -3.15208,-5.30122 5.80269,-2.14915 -1.79095,-3.43862 2.14914,-0.9313 -0.21492,-5.22958 5.51614,-4.5132 -5.94596,-2.22078 2.72224,-0.93129 m -30.01649,-9.16968 8.02347,10.74571 -7.30708,5.15795 v -2.72225 l 5.0863,7.59364 -9.09804,6.23251 1.57604,-9.95769 -6.66234,0.50146 4.44156,-3.51026 -3.72518,-5.30122 10.88899,-0.42983 6.94889,-10.45916 5.73105,12.39339 9.09804,2.57897 -4.36993,2.43569 -2.43569,13.10977 -9.67114,-8.59657 5.6594,-8.02346 1.86259,4.15501 -6.08923,-3.43863 3.22371,-1.5044 -2.29242,-2.22078 10.60244,-4.65648 -3.15208,8.09511 6.44743,-1.43277 -4.15501,3.22372 3.86846,5.65941 -7.66528,-1.43276 -3.15207,12.39338 -6.23251,-7.30708 -5.94597,6.87725 -0.93129,-11.46209 -7.37872,3.0088 2.6506,-6.37579 -4.36992,-2.22078 7.45036,-1.36112 -2.86552,-8.52493 13.18141,2.72224 5.65941,-7.09217 2.0775,12.17848 6.9489,-2.86553 -12.46503,-1.86259 7.02053,-5.15794 -0.9313,10.38752 6.73399,-2.43569 -3.51027,17.04986 -12.75158,-4.44156 5.30122,-3.65354 -3.9401,-2.57897 3.79682,-5.58777 -2.00586,-2.29242 9.02639,-5.01467 -5.65941,6.51907 7.73692,-4.08337 -5.58777,5.73104 6.5907,-3.94009 -3.51026,6.44743 5.22958,-1.36113 -16.33349,19.5572 -5.37285,-10.74571 -3.79682,8.16674 5.80268,-5.87432 -0.14327,8.02346 1.5044,-7.80855 1.28948,8.23838 6.0176,-32.7386 2.29242,11.82028 8.81149,3.51027 -6.44743,2.65061 -2.57898,13.10976 -8.45329,-7.09217 5.58777,-3.5819 -4.29828,-2.00587 6.94889,-4.01173 1.86259,1.5044 -8.52493,1.93423 4.15501,3.94009 -9.95769,10.24425 -1.79096,-11.1039 -7.23545,4.44156 2.57898,-8.02347 -5.58777,-0.42982 4.51319,-1.07458 -4.155,-3.43863 8.95476,-0.78802 -1.43277,-9.95769 -5.30121,5.65941 3.51026,6.73398 -4.5132,-5.0863 3.79682,5.80268 -4.94303,-1.28948 4.29829,3.08043 2.00586,12.67994 8.23839,-9.67114 -4.29829,-6.0176 -2.0775,3.0088 -0.78802,-1.07457 -0.35819,0.57311 8.16674,0.64474 -3.94009,-4.08337 -1.14621,5.58777 5.44449,-3.43863 -3.86846,-2.36406 5.30122,-3.51026 -4.08337,-9.52787 -2.93716,11.4621 -9.67114,0.50146 0.35819,10.17261 12.96649,1.64768 -2.00586,-1.71932 2.50733,-0.85965 -2.65061,-1.14621 3.51026,-1.57604 -3.29535,-7.02053 5.51614,-2.79389 -1.86259,-9.09803 -3.72518,10.96062 5.01466,0.64474 -4.79975,1.36113 4.01173,2.00586 -8.52493,2.07751 7.37872,2.65061 -2.86552,1.93423 1.71931,3.15207 -9.67114,3.29535 1.86259,-9.24131 -6.30415,-1.93423 11.39046,-15.76038 7.66527,7.30709 6.5907,-6.0176 2.29242,12.67994 6.0176,0.71638 -4.58483,1.28949 4.44156,1.79095 -7.522,1.14621 2.0775,9.45622 -5.15794,-7.09216 -2.57897,11.03226 -3.65354,-10.60244 6.73398,-8.0951 1.64767,3.08044 0.57311,-1.43276 -2.50734,2.93716 -5.0863,-2.93716 4.08337,-2.72225 0.14328,6.23251 -3.22372,-6.87725 2.79389,-2.50734 -0.9313,-10.10097 -9.02639,11.17554 4.29828,2.4357 -4.87139,6.08924 6.0176,-20.1303 5.0863,11.17553 11.17555,6.30416 -1.93423,7.80855 -7.522,-3.72518 -0.71638,10.96062 -8.4533,1.43277 -0.5731,-8.38166 -5.30122,6.23251 -1.28949,-11.53373 -7.59363,0.64475 4.87139,-3.0088" />
    <path
       d="m 209.89959,242.12522 -4.44156,-5.80268 6.66234,4.29828 -4.5132,-7.23544 7.30709,4.87138 -4.29829,-7.95182 10.31589,7.80855 -5.22958,1.57604 3.94009,4.29828 -4.94303,2.79389 -2.22078,-3.58191 0.21492,1.93423 6.66234,0.14328 -3.5819,2.93716 2.6506,1.14621 -7.09217,8.59657 3.65355,-8.0951 -7.73692,4.36992 3.86846,-7.522 -5.01467,5.51613 0.57311,-17.76624 26.57773,-1.79095 -2.93717,8.6682 6.66235,-2.0775 -4.36993,3.86846 4.94303,1.00293 -5.15794,1.00293 2.36406,8.38166 -6.30416,-5.51613 3.08044,9.16967 -4.22664,-8.16674 2.22078,9.52786 -3.72518,-8.38165 -3.0088,10.74571 -1.79096,-13.32468 5.4445,-0.64474 1.5044,-4.72812 1.64767,2.36406 -7.09217,-3.65355 3.08044,-1.14621 -2.22078,-2.36405 2.4357,0.64474 -2.07751,-1.86259 6.73398,-6.0176 -7.02053,5.30122 -3.29535,-8.38165 -4.87139,11.24717 m -12.82309,-0.64478 -4.22678,1.71935 3.0088,3.367 -4.58483,4.44156 4.87139,0.64474 -1.93423,2.50733 2.72224,0.35819 1.5044,12.53667 -2.22078,-3.65355 4.15501,-3.15207 -0.0716,6.9489 2.93716,-4.08338 0.64475,3.86846 -2.93716,-6.08924 -4.87139,-3.0088 3.86845,9.45623 m 7.95179,-37.39508 7.45036,-9.45623 6.51907,9.0264 12.6083,4.08337 -1.43276,6.08924 2.79388,1.43276 -0.0716,13.32468 -2.00587,-0.0716 5.0863,-2.93716 -0.0716,-7.59364 h -4.36993 l 7.88019,4.01173 -7.59363,3.43863 2.43569,2.00587 -3.65354,1.93422 1.07457,3.43863 -3.51027,0.71638 -0.21491,7.522 -6.51907,-1.79095 -2.86552,3.79681 -7.45036,4.87141 -2.29242,-6.73399 -3.0088,1.14621 -1.00293,-2.4357 -5.87433,1.36113 -5.6594,-2.00587 2.50733,-7.02053 -2.36406,8.95476 5.37286,-5.4445 -2.65061,5.37286 4.94303,-3.36699 0.35819,3.43863 4.44156,-0.78802 1.57604,3.79683 9.24131,0.78801 -4.29829,4.15502 -0.21491,-7.45037 5.44449,2.14915 1.00294,-3.29536 4.72811,0.71638 8.23838,-4.79976 -1.14621,4.94303 -5.58777,-4.29828 6.73398,-2.00587 -1.93423,-3.65354 1.93423,-1.57604 -0.21491,-3.15208 6.5907,-2.93716 -6.08924,-3.79682 -0.14327,-6.0176 -2.79389,-2.0775 -0.93129,-9.0264 3.51026,1.21785 0.14328,-1.28948 -6.30415,4.51319 4.15501,-4.58483 2.0775,3.72518 h -7.16381 l -1.64767,-3.58191 8.81148,2.07751 -4.87139,3.72518 -0.50146,-5.80269 5.30121,8.09511 -3.5819,-0.85966 -2.57897,-7.16381 6.16087,1.43276 h -10.5308 l -0.5731,-1.57603 -1.5044,0.85965 -0.42983,-3.22371 -2.43569,2.29242 -4.65648,-6.80562 1.71932,-0.64475 -2.07751,7.16381 -3.22371,-2.93716 8.6682,-0.85966 -3.5819,3.9401 -3.29535,-4.79975 4.72811,-1.28949 -5.37285,6.44743 -2.50734,-2.00587 8.95476,-3.36699 -8.0951,5.65941 -2.79389,-0.42982 -1.28948,2.22078 -9.88606,0.0716 2.93716,-2.36405 2.65061,5.30121 -5.58777,0.9313 5.58777,-6.16087 1.5044,3.65354 -7.09217,-3.72518 3.08044,8.31001 -3.0088,0.28656 1.43276,2.57897 -2.14914,0.64474 0.85966,3.36699 -6.30415,6.16088 -0.0716,-4.29829 5.80268,3.36699 -3.5819,2.86552 4.15501,0.57311 -1.5044,2.29242 1.93423,-0.64475 -0.78802,1.71932 1.71931,0.21491 -1.57604,3.22372 7.02053,7.80855 2.00587,-2.4357 0.28655,2.4357 4.51321,-0.50147 2.00586,5.15795 2.4357,-4.36993 3.22371,5.22958 h -4.94303 l 6.30415,-5.65941 4.15501,0.0716 3.15208,-3.0088 8.23838,3.15208 -4.87139,-6.08924 4.5132,0.50146 -2.36406,-3.08043 8.88312,-12.60831 0.78802,3.00881 -6.73398,0.21491 5.01467,-3.72518 -5.87433,-3.0088 0.50147,-4.08337 -10.31588,-9.52787 1.64767,2.79389 8.73985,3.94009 -1.36112,-6.94889 -10.45917,1.36112 -0.42982,-2.36405 -2.14915,1.5044 -0.0716,-3.51027 -2.50734,2.93716 -4.36992,-5.73105 3.15208,-0.85966 -1.5044,6.3758 -6.73398,-0.64475 -0.85966,2.65061 -2.07751,-1.64767 -0.5731,2.93716 -2.00587,-2.86552 -6.37579,3.72517 4.01174,3.15208 -4.01174,0.28655 1.93423,2.4357 -1.93423,1.28948 0.85966,1.93423 -3.0088,0.21491 1.93423,3.72519 -5.30122,5.15794 0.21492,-5.4445 4.87139,1.86259 -7.59364,0.78802 7.80855,2.50734 -2.22078,3.0088 2.79388,-0.14328 -1.07457,2.00587 1.57604,-0.21492 -0.85966,2.4357 2.07751,-0.0716 -2.07751,4.01173 1.5044,5.65941 4.87139,-4.5132 -0.93129,4.44156 2.93716,-2.79388 0.21491,2.86552 1.57604,-1.64768 1.64768,2.50734 2.72225,-0.9313 0.42982,3.9401 5.94596,-3.72518 3.9401,2.22078 -7.88019,-2.22078 -4.01173,1.79094 11.89192,-2.29241 13.39632,-1.21785 -2.50733,1.71932 -3.15208,-5.30122 5.80269,-2.14915 -1.79095,-3.43862 2.14914,-0.9313 -0.21492,-5.22958 5.51614,-4.5132 -5.94596,-2.22078 2.72224,-0.93129 m -30.01649,-9.16968 8.02347,10.74571 -7.30708,5.15795 v -2.72225 l 5.0863,7.59364 -9.09804,6.23251 1.57604,-9.95769 -6.66234,0.50146 4.44156,-3.51026 -3.72518,-5.30122 10.88899,-0.42983 6.94889,-10.45916 5.73105,12.39339 9.09804,2.57897 -4.36993,2.43569 -2.43569,13.10977 -9.67114,-8.59657 5.6594,-8.02346 1.86259,4.15501 -6.08923,-3.43863 3.22371,-1.5044 -2.29242,-2.22078 10.60244,-4.65648 -3.15208,8.09511 6.44743,-1.43277 -4.15501,3.22372 3.86846,5.65941 -7.66528,-1.43276 -3.15207,12.39338 -6.23251,-7.30708 -5.94597,6.87725 -0.93129,-11.46209 -7.37872,3.0088 2.6506,-6.37579 -4.36992,-2.22078 7.45036,-1.36112 -2.86552,-8.52493 13.18141,2.72224 5.65941,-7.09217 2.0775,12.17848 6.9489,-2.86553 -12.46503,-1.86259 7.02053,-5.15794 -0.9313,10.38752 6.73399,-2.43569 -3.51027,17.04986 -12.75158,-4.44156 5.30122,-3.65354 -3.9401,-2.57897 3.79682,-5.58777 -2.00586,-2.29242 9.02639,-5.01467 -5.65941,6.51907 7.73692,-4.08337 -5.58777,5.73104 6.5907,-3.94009 -3.51026,6.44743 5.22958,-1.36113 -16.33349,19.5572 -5.37285,-10.74571 -3.79682,8.16674 5.80268,-5.87432 -0.14327,8.02346 1.5044,-7.80855 1.28948,8.23838 6.0176,-32.7386 2.29242,11.82028 8.81149,3.51027 -6.44743,2.65061 -2.57898,13.10976 -8.45329,-7.09217 5.58777,-3.5819 -4.29828,-2.00587 6.94889,-4.01173 1.86259,1.5044 -8.52493,1.93423 4.15501,3.94009 -9.95769,10.24425 -1.79096,-11.1039 -7.23545,4.44156 2.57898,-8.02347 -5.58777,-0.42982 4.51319,-1.07458 -4.155,-3.43863 8.95476,-0.78802 -1.43277,-9.95769 -5.30121,5.65941 3.51026,6.73398 -4.5132,-5.0863 3.79682,5.80268 -4.94303,-1.28948 4.29829,3.08043 2.00586,12.67994 8.23839,-9.67114 -4.29829,-6.0176 -2.0775,3.0088 -0.78802,-1.07457 -0.35819,0.57311 8.16674,0.64474 -3.94009,-4.08337 -1.14621,5.58777 5.44449,-3.43863 -3.86846,-2.36406 5.30122,-3.51026 -4.08337,-9.52787 -2.93716,11.4621 -9.67114,0.50146 0.35819,10.17261 12.96649,1.64768 -2.00586,-1.71932 2.50733,-0.85965 -2.65061,-1.14621 3.51026,-1.57604 -3.29535,-7.02053 5.51614,-2.79389 -1.86259,-9.09803 -3.72518,10.96062 5.01466,0.64474 -4.79975,1.36113 4.01173,2.00586 -8.52493,2.07751 7.37872,2.65061 -2.86552,1.93423 1.71931,3.15207 -9.67114,3.29535 1.86259,-9.24131 -6.30415,-1.93423 11.39046,-15.76038 7.66527,7.30709 6.5907,-6.0176 2.29242,12.67994 6.0176,0.71638 -4.58483,1.28949 4.44156,1.79095 -7.522,1.14621 2.0775,9.45622 -5.15794,-7.09216 -2.57897,11.03226 -3.65354,-10.60244 6.73398,-8.0951 1.64767,3.08044 0.57311,-1.43276 -2.50734,2.93716 -5.0863,-2.93716 4.08337,-2.72225 0.14328,6.23251 -3.22372,-6.87725 2.79389,-2.50734 -0.9313,-10.10097 -9.02639,11.17554 4.29828,2.4357 -4.87139,6.08924 6.0176,-20.1303 5.0863,11.17553 11.17555,6.30416 -1.93423,7.80855 -7.522,-3.72518 -0.71638,10.96062 -8.4533,1.43277 -0.5731,-8.38166 -5.30122,6.23251 -1.28949,-11.53373 -7.59363,0.64475 4.87139,-3.0088"
       style="fill:none;stroke:#000000;stroke-width:0.6;stroke-linecap:round;stroke-linejoin:round;stroke-opacity:1;stroke-miterlimit:4;stroke-dasharray:none"
       id="path926" />
  </g>
</svg>
