<?xml version="1.0" encoding="UTF-8" standalone="no"?>
<!-- Created with Inkscape (http://www.inkscape.org/) -->

<svg
   xmlns:dc="http://purl.org/dc/elements/1.1/"
   xmlns:cc="http://creativecommons.org/ns#"
   xmlns:rdf="http://www.w3.org/1999/02/22-rdf-syntax-ns#"
   xmlns:svg="http://www.w3.org/2000/svg"
   xmlns="http://www.w3.org/2000/svg"
   xmlns:sodipodi="http://sodipodi.sourceforge.net/DTD/sodipodi-0.dtd"
   xmlns:inkscape="http://www.inkscape.org/namespaces/inkscape"
   width="210mm"
   height="297mm"
   viewBox="0 0 210 297"
   version="1.1"
   id="svg8"
   inkscape:version="0.92.3 (2405546, 2018-03-11)"
   sodipodi:docname="debian.svg">
  <defs
     id="defs2">
    <filter
       inkscape:collect="always"
       style="color-interpolation-filters:sRGB"
       id="filter1624"
       x="-0.013471042"
       width="1.0269421"
       y="-0.010818605"
       height="1.0216372">
      <feGaussianBlur
         inkscape:collect="always"
         stdDeviation="0.29140729"
         id="feGaussianBlur1626" />
    </filter>
  </defs>
  <sodipodi:namedview
     id="base"
     pagecolor="#ffffff"
     bordercolor="#666666"
     borderopacity="1.0"
     inkscape:pageopacity="0.0"
     inkscape:pageshadow="2"
     inkscape:zoom="0.24748738"
     inkscape:cx="-852.59776"
     inkscape:cy="211.47297"
     inkscape:document-units="mm"
     inkscape:current-layer="layer1"
     showgrid="false"
     inkscape:window-width="1920"
     inkscape:window-height="1039"
     inkscape:window-x="0"
     inkscape:window-y="0"
     inkscape:window-maximized="1" />
  <metadata
     id="metadata5">
    <rdf:RDF>
      <cc:Work
         rdf:about="">
        <dc:format>image/svg+xml</dc:format>
        <dc:type
           rdf:resource="http://purl.org/dc/dcmitype/StillImage" />
        <dc:title />
      </cc:Work>
    </rdf:RDF>
  </metadata>
  <g
     inkscape:label="Layer 1"
     inkscape:groupmode="layer"
     id="layer1">
    <path
       d="m 134.00226,130.82517 -1.1359,-4.77744 -1.10248,-1.67043 0.33408,-2.07135 -8.01808,-0.66817 -0.005,-7.12804 -6.00037,2.31511 -2.62221,-5.74052 -4.18135,4.3231 -3.46155,-4.86134 -1.921,5.06142 -1.9377,-5.51243 c 0,0 -0.68488,6.74855 -0.91874,6.66503 -0.23386,-0.0835 -5.545837,-3.77518 -5.545837,-3.77518 l 1.11919,5.79641 -7.316502,-1.73725 9.838849,1.31964 0.90204,-0.50113 -2.071337,0.60136 0.835217,-7.11606 7.684,3.97564 10.99146,-2.43883 10.82441,6.74855 -2.3052,10.55715 4.07586,5.07812 -3.94222,1.90429 1.60361,4.2095 -3.57473,0.63476 -0.23386,1.67044 1.06908,1.67043 -2.23838,-0.53454 -0.10023,2.73952 -2.37199,-0.70159 0.63474,1.93771 -2.7061,-0.90204 -1.20272,2.50565 -1.36975,-1.5368 -0.7684,1.93771 -2.07134,-1.43657 -1.46998,1.40316 -2.07132,-2.03793 -2.73953,0.40091 -2.27179,-4.00905 -3.40769,-2.27179 0.66817,-4.14268 -0.60135,-4.84426 2.20497,-1.50339 1.1693,-3.30746 3.87541,-0.46772 2.63929,-1.67043 1.97111,1.33634 m -5.74585,-19.10977 2.60587,-0.13364 m -2.07133,0.96886 0.93544,0.0334 m -28.063301,18.0741 -0.06681,0.73499 -0.267272,0.4009 0.06682,0.50114 m 2.004516,-6.71515 -0.267272,0.53454 0.133636,0.56794 -0.501131,0.3675 m 48.987204,13.96284 0.0709,0.92132 -0.33073,0.23623 0.16536,0.96857 -1.15755,2.6222 m -10.25263,-7.98474 -0.16537,1.15755 m -0.94494,3.75614 -0.99219,1.46466 -0.51971,-0.0945 -0.23624,-0.56696 1.03944,-1.18118 m -6.26024,3.75614 1.81901,0.49609 0.80321,-0.73233 -1.46466,0.63784 m -11.00856,2.45685 1.6064,2.03162 1.77176,1.03943 3.89788,2.14974 5.85863,0.73233 m -13.70163,-8.3391 0.85044,1.39379 m -1.96075,-0.4016 -0.0473,0.73233 0.85045,0.54334 0.96856,1.74814 -1.15755,-1.25205 -0.25986,-1.22842 m 8.76489,28.15132 c -0.33409,0 -8.15172,-1.26953 -8.15172,-1.26953 l -1.60362,-2.87314 h -3.474497 v -3.40769 l 0.86862,0.60136 0.46772,3.54132 4.343127,0.46772 1.60362,1.06908 -3.87541,-0.13364 -4.476757,-5.54584 -3.942232,-1.00226 -0.26727,-5.34539 -5.278571,-1.87089 1.269532,-5.94674 1.937699,0.8018 0.20046,1.26953 -1.20272,-2.07133 0.80181,10.22305 5.211762,1.80407 -0.13364,-1.00226 -0.93544,3.87541 2.47224,-0.93544 -0.46772,2.47224 3.40769,0.20045 -0.0668,-1.06908 -4.54358,0.13364 -1.20271,-5.7463 -5.345398,-1.87088 -0.734992,-9.08717 -4.075858,-2.73951 2.138156,-6.88219 -2.873148,-3.74177 5.813118,-8.68626 -5.7463,4.34313 3.207234,3.74177 -3.140416,5.87993 3.741772,3.40769 -2.472243,4.94448 3.674957,0.46773 -5.011304,-6.48129 3.474503,-11.22532 -0.801809,-8.15172 1.00226,-1.00226 2.873146,1.87088 -0.46772,-5.87992 8.285362,0.13363 -7.349922,-2.00452 2.00453,5.27857 -7.21628,2.80633 2.53906,4.94449 c 0,0 -4.744034,2.07134 -4.34313,1.26953 0.400905,-0.80181 11.225322,-18.70887 11.225322,-18.70887 l 3.34087,5.27857 1.60362,-7.61718 5.746287,3.87541 1.67044,-5.81312 3.34087,5.14495 4.14267,-4.87768 2.93997,5.7463 5.61266,-3.54132 v 6.88219 l 6.88219,-1.73725 -2.33861,8.15172 5.14494,7.55036 -4.07586,6.21402 -1.60362,6.28083 -4.87767,1.26954 -5.47902,3.67495 -4.67722,-2.27179 -4.94449,-1.20271 -1.40316,-4.54358 -2.80633,-2.80633 1.40316,-3.67496 0.13364,-3.74177 2.47224,-1.67044 1.9377,-3.34087 3.47451,0.46772 2.47224,-1.06907 3.87541,2.20497 -6.68174,-2.20497 -2.73951,2.20497 -3.67496,1.40317 -0.20045,2.60587 -2.53906,3.0736 1.73725,4.2095 0.20045,4.40994 3.47451,1.26953 3.4745,4.14268 5.01131,-1.13589 4.54358,0.80181 1.80407,-3.27406 5.47902,-2.47224 -0.13363,-3.74177 3.40768,-2.60588 -2.93996,-4.40995 3.27405,-6.94901 0.86863,3.20724 -6.61492,-6.01357 -0.0668,-9.22079 -6.21402,2.80633 -2.40542,-5.94675 -4.2095,3.87541 -2.93996,-4.47677 -2.53906,4.47677 -5.01131,-4.67722 -0.86862,6.74856 -5.612657,-3.74178 0.93544,6.28084 -6.815372,-1.80407 2.939962,4.6104 -5.679478,0.33408 1.00226,4.94449"
       style="fill:none;stroke:#1a1a1a;stroke-width:0.69999999;stroke-linecap:round;stroke-linejoin:miter;stroke-miterlimit:4;stroke-dasharray:none;stroke-opacity:1;filter:url(#filter1624)"
       id="path1622"
       inkscape:export-filename="/home/siqueira/Documents/Repositories/siqueira.xyz/images/icons/debian.png"
       inkscape:export-xdpi="144.75999"
       inkscape:export-ydpi="144.75999"
       inkscape:connector-curvature="0" />
    <path
       id="path955"
       style="fill:none;stroke:#1a1a1a;stroke-width:0.69999999;stroke-linecap:round;stroke-linejoin:miter;stroke-miterlimit:4;stroke-dasharray:none;stroke-opacity:1"
       d="m 134.00226,130.82517 -1.1359,-4.77744 -1.10248,-1.67043 0.33408,-2.07135 -8.01808,-0.66817 -0.005,-7.12804 -6.00037,2.31511 -2.62221,-5.74052 -4.18135,4.3231 -3.46155,-4.86134 -1.921,5.06142 -1.9377,-5.51243 c 0,0 -0.68488,6.74855 -0.91874,6.66503 -0.23386,-0.0835 -5.545837,-3.77518 -5.545837,-3.77518 l 1.11919,5.79641 -7.316502,-1.73725 9.838849,1.31964 0.90204,-0.50113 -2.071337,0.60136 0.835217,-7.11606 7.684,3.97564 10.99146,-2.43883 10.82441,6.74855 -2.3052,10.55715 4.07586,5.07812 -3.94222,1.90429 1.60361,4.2095 -3.57473,0.63476 -0.23386,1.67044 1.06908,1.67043 -2.23838,-0.53454 -0.10023,2.73952 -2.37199,-0.70159 0.63474,1.93771 -2.7061,-0.90204 -1.20272,2.50565 -1.36975,-1.5368 -0.7684,1.93771 -2.07134,-1.43657 -1.46998,1.40316 -2.07132,-2.03793 -2.73953,0.40091 -2.27179,-4.00905 -3.40769,-2.27179 0.66817,-4.14268 -0.60135,-4.84426 2.20497,-1.50339 1.1693,-3.30746 3.87541,-0.46772 2.63929,-1.67043 1.97111,1.33634 m -5.74585,-19.10977 2.60587,-0.13364 m -2.07133,0.96886 0.93544,0.0334 m -28.063301,18.0741 -0.06681,0.73499 -0.267272,0.4009 0.06682,0.50114 m 2.004516,-6.71515 -0.267272,0.53454 0.133636,0.56794 -0.501131,0.3675 m 48.987204,13.96284 0.0709,0.92132 -0.33073,0.23623 0.16536,0.96857 -1.15755,2.6222 m -10.25263,-7.98474 -0.16537,1.15755 m -0.94494,3.75614 -0.99219,1.46466 -0.51971,-0.0945 -0.23624,-0.56696 1.03944,-1.18118 m -6.26024,3.75614 1.81901,0.49609 0.80321,-0.73233 -1.46466,0.63784 m -11.00856,2.45685 1.6064,2.03162 1.77176,1.03943 3.89788,2.14974 5.85863,0.73233 m -13.70163,-8.3391 0.85044,1.39379 m -1.96075,-0.4016 -0.0473,0.73233 0.85045,0.54334 0.96856,1.74814 -1.15755,-1.25205 -0.25986,-1.22842 m 8.76489,28.15132 c -0.33409,0 -8.15172,-1.26953 -8.15172,-1.26953 l -1.60362,-2.87314 h -3.474497 v -3.40769 l 0.86862,0.60136 0.46772,3.54132 4.343127,0.46772 1.60362,1.06908 -3.87541,-0.13364 -4.476757,-5.54584 -3.942232,-1.00226 -0.26727,-5.34539 -5.278571,-1.87089 1.269532,-5.94674 1.937699,0.8018 0.20046,1.26953 -1.20272,-2.07133 0.80181,10.22305 5.211762,1.80407 -0.13364,-1.00226 -0.93544,3.87541 2.47224,-0.93544 -0.46772,2.47224 3.40769,0.20045 -0.0668,-1.06908 -4.54358,0.13364 -1.20271,-5.7463 -5.345398,-1.87088 -0.734992,-9.08717 -4.075858,-2.73951 2.138156,-6.88219 -2.873148,-3.74177 5.813118,-8.68626 -5.7463,4.34313 3.207234,3.74177 -3.140416,5.87993 3.741772,3.40769 -2.472243,4.94448 3.674957,0.46773 -5.011304,-6.48129 3.474503,-11.22532 -0.801809,-8.15172 1.00226,-1.00226 2.873146,1.87088 -0.46772,-5.87992 8.285362,0.13363 -7.349922,-2.00452 2.00453,5.27857 -7.21628,2.80633 2.53906,4.94449 c 0,0 -4.744034,2.07134 -4.34313,1.26953 0.400905,-0.80181 11.225322,-18.70887 11.225322,-18.70887 l 3.34087,5.27857 1.60362,-7.61718 5.746287,3.87541 1.67044,-5.81312 3.34087,5.14495 4.14267,-4.87768 2.93997,5.7463 5.61266,-3.54132 v 6.88219 l 6.88219,-1.73725 -2.33861,8.15172 5.14494,7.55036 -4.07586,6.21402 -1.60362,6.28083 -4.87767,1.26954 -5.47902,3.67495 -4.67722,-2.27179 -4.94449,-1.20271 -1.40316,-4.54358 -2.80633,-2.80633 1.40316,-3.67496 0.13364,-3.74177 2.47224,-1.67044 1.9377,-3.34087 3.47451,0.46772 2.47224,-1.06907 3.87541,2.20497 -6.68174,-2.20497 -2.73951,2.20497 -3.67496,1.40317 -0.20045,2.60587 -2.53906,3.0736 1.73725,4.2095 0.20045,4.40994 3.47451,1.26953 3.4745,4.14268 5.01131,-1.13589 4.54358,0.80181 1.80407,-3.27406 5.47902,-2.47224 -0.13363,-3.74177 3.40768,-2.60588 -2.93996,-4.40995 3.27405,-6.94901 0.86863,3.20724 -6.61492,-6.01357 -0.0668,-9.22079 -6.21402,2.80633 -2.40542,-5.94675 -4.2095,3.87541 -2.93996,-4.47677 -2.53906,4.47677 -5.01131,-4.67722 -0.86862,6.74856 -5.612657,-3.74178 0.93544,6.28084 -6.815372,-1.80407 2.939962,4.6104 -5.679478,0.33408 1.00226,4.94449"
       inkscape:export-filename="/home/siqueira/Documents/Repositories/siqueira.xyz/images/icons/debian.png"
       inkscape:export-xdpi="144.75999"
       inkscape:export-ydpi="144.75999"
       inkscape:connector-curvature="0" />
  </g>
</svg>
