<?xml version="1.0" encoding="UTF-8" standalone="no"?>
<!-- Created with Inkscape (http://www.inkscape.org/) -->

<svg
   xmlns:dc="http://purl.org/dc/elements/1.1/"
   xmlns:cc="http://creativecommons.org/ns#"
   xmlns:rdf="http://www.w3.org/1999/02/22-rdf-syntax-ns#"
   xmlns:svg="http://www.w3.org/2000/svg"
   xmlns="http://www.w3.org/2000/svg"
   xmlns:sodipodi="http://sodipodi.sourceforge.net/DTD/sodipodi-0.dtd"
   xmlns:inkscape="http://www.inkscape.org/namespaces/inkscape"
   width="210mm"
   height="297mm"
   viewBox="0 0 210 297"
   version="1.1"
   id="svg8"
   inkscape:version="0.92.3 (2405546, 2018-03-11)"
   sodipodi:docname="linuxdev-br.svg">
  <defs
     id="defs2">
    <filter
       inkscape:collect="always"
       style="color-interpolation-filters:sRGB"
       id="filter1400"
       x="-0.039873594"
       width="1.0797472"
       y="-0.041957252"
       height="1.0839145">
      <feGaussianBlur
         inkscape:collect="always"
         stdDeviation="0.52491302"
         id="feGaussianBlur1402" />
    </filter>
    <filter
       inkscape:collect="always"
       style="color-interpolation-filters:sRGB"
       id="filter1404"
       x="-0.039166303"
       width="1.0783326"
       y="-0.044049861"
       height="1.0880997">
      <feGaussianBlur
         inkscape:collect="always"
         stdDeviation="0.52491302"
         id="feGaussianBlur1406" />
    </filter>
    <filter
       inkscape:collect="always"
       style="color-interpolation-filters:sRGB"
       id="filter1408"
       x="-0.041464792"
       width="1.0829296"
       y="-0.03865209"
       height="1.0773042">
      <feGaussianBlur
         inkscape:collect="always"
         stdDeviation="0.52491302"
         id="feGaussianBlur1410" />
    </filter>
    <filter
       inkscape:collect="always"
       style="color-interpolation-filters:sRGB"
       id="filter1412"
       x="-0.042258377"
       width="1.0845168"
       y="-0.039166292"
       height="1.0783326">
      <feGaussianBlur
         inkscape:collect="always"
         stdDeviation="0.52491302"
         id="feGaussianBlur1414" />
    </filter>
  </defs>
  <sodipodi:namedview
     id="base"
     pagecolor="#ffffff"
     bordercolor="#666666"
     borderopacity="1.0"
     inkscape:pageopacity="0.0"
     inkscape:pageshadow="2"
     inkscape:zoom="0.32790498"
     inkscape:cx="-156.30644"
     inkscape:cy="715.7478"
     inkscape:document-units="mm"
     inkscape:current-layer="layer1"
     showgrid="false"
     inkscape:window-width="1920"
     inkscape:window-height="1039"
     inkscape:window-x="0"
     inkscape:window-y="0"
     inkscape:window-maximized="1"
     inkscape:object-nodes="false" />
  <metadata
     id="metadata5">
    <rdf:RDF>
      <cc:Work
         rdf:about="">
        <dc:format>image/svg+xml</dc:format>
        <dc:type
           rdf:resource="http://purl.org/dc/dcmitype/StillImage" />
        <dc:title />
      </cc:Work>
    </rdf:RDF>
  </metadata>
  <g
     inkscape:label="Layer 1"
     inkscape:groupmode="layer"
     id="layer1">
    <path
       inkscape:connector-curvature="0"
       id="path1376"
       d="m 89.437594,153.56625 -1.569034,5.49162 4.207862,1.49771 -0.213959,5.0637 h 4.207862 l 4.279185,9.98476 -5.56294,-4.27918 9.98476,-2.42487 4.92106,1.92563 0.57055,-4.27918 -5.91953,-3.49467 1.49771,-5.77689 -3.92258,-3.85127 2.92411,-4.06522 -3.28071,-2.56751 3.20939,-0.78451 -3.35203,3.85126 3.42335,2.21091 -2.49619,3.77995 4.06522,3.6373 -0.92715,5.70557 7.2746,3.77995 -0.49923,-4.06522 3.6373,0.64187 -1.78299,-3.35202 3.9939,-0.78452 -1.14111,-1.64035 -2.42487,1.64035 -0.28528,6.13349 -19.541599,5.4203 7.559889,0.85584 -4.84974,2.21091 -1.782993,-6.20482 4.136543,-1.71167 2.85279,3.70863 -6.918012,3.06674 6.490092,-6.20481 4.06522,3.13807 2.92411,-6.70406 -5.4203,-3.92258 1.4264,-5.91953 -3.49467,-3.20939 2.78147,-3.9939 -1.71167,-1.78299 -1.56904,2.21091 3.92259,5.42029 -1.99695,5.56294 5.06369,3.35202 -0.92715,4.7071 7.77384,-0.92715 v -6.77537 l 1.92564,4.06522 -3.77995,-0.21396 0.3566,4.7071 -3.06675,-1.78299 0.3566,3.6373 -3.77994,-1.85431 -2.99543,3.35203 -3.06674,-3.28071 -5.84822,0.64188 -0.998477,-5.56294 -4.778419,-1.28375 1.069795,-5.0637 -3.922583,-3.13807 1.854312,-0.42792 1.497714,1.4264 -2.567509,2.21091 4.065222,1.71167 -0.855836,5.0637 4.707099,0.49924 -1.782992,3.2807 4.63578,-1.06979 7.274614,5.20633 4.92105,-5.13501 -2.28223,4.27918 -4.06522,-2.49619 -4.635779,7.27461 -1.497714,-8.84364 -3.565983,1.28375 -1.069796,-6.13349 -4.7071,-1.71168 1.711672,-4.27918 -3.494664,-0.49923 1.497713,-2.06828 4.77842,13.47943 6.276133,0.64187 3.280708,5.34898 -1.35508,1.56903 -6.062171,-4.13654 10.697961,-2.21091 6.13349,1.21244 -0.42792,-3.42335 4.13654,-0.0713 0.42792,-6.27613 1.49771,3.06674 -4.77842,1.64036 -4.13654,6.70405"
       style="fill:none;stroke:#000000;stroke-width:0.5;stroke-linecap:round;stroke-linejoin:round;stroke-miterlimit:4;stroke-dasharray:none;stroke-opacity:1;filter:url(#filter1400)" />
    <path
       inkscape:connector-curvature="0"
       id="path1378"
       d="m 102.91702,140.51475 4.13654,-2.56751 -0.3566,-5.0637 7.34593,-0.71319 -1.49771,3.56598 4.20786,1.0698 -1.92563,3.20938 3.9939,1.85431 -2.49619,3.56599 3.28071,1.92563 -2.92411,3.13807 3.13806,1.06979 -3.13806,0.99848 3.20938,-2.92411 -3.35202,-1.56903 2.85278,-3.06675 -3.6373,-1.92563 2.35355,-3.35203 -4.27918,-1.56903 1.71167,-3.9939 -4.20786,-0.42792 3.42334,-5.27766 4.13655,2.85279 8.91496,-1.85431 -2.13959,-5.20634 -4.63578,1.21243 4.3505,8.91497 6.56141,3.13806 -0.92715,5.34898 4.06522,3.20938 -1.14112,-4.49313 -4.49314,-1.99696 1.0698,-4.06522 -4.06523,-0.21396 -0.21395,-4.27918 -3.92259,1.14112 -1.99695,-4.56447 6.63273,-2.28222 0.99848,2.5675 -12.83755,3.56599 -5.77689,-0.99848 -3.56598,9.48552 -2.28224,-2.21091 4.27919,-1.28375 0.14264,-4.49314 3.2807,1.28375 3.63731,0.14264 -1.35508,3.70863 4.06522,1.21243 -2.21091,3.35202 3.70863,1.85432 -2.56751,3.06674 3.13807,1.85432 -2.99543,2.9241 1.71167,0.64188 1.35507,-1.42639 -2.99542,-1.35508 2.63883,-2.78147 -3.35203,-2.13959 2.42487,-3.42334 -3.77995,-1.64035 1.4264,-3.77995 -3.92258,-0.78452 0.49923,-5.56293 2.71015,2.21091 2.28223,-3.20939 2.35355,3.35203 7.77385,-4.99238 -4.3505,-2.49619 0.21396,8.91496 4.3505,-0.49924 -0.7132,4.06523 3.9939,-0.0713 -1.49771,4.56446 4.42182,1.71167 -2.42487,3.56598 2.28223,0.0713 0.78452,-1.14112 -3.6373,-0.64188 1.71167,-4.99238 -4.63578,-1.42639 0.85583,-4.56446 h -4.63578 v -9.55684 l 2.56751,6.49009 -5.63425,1.28376 -1.92563,-3.56599 -1.56904,2.99543 -1.71167,-2.99543 -0.21396,2.99543 -2.21091,-2.56751 -3.9939,5.63426 -4.56446,0.49923 -0.28528,5.4203 -1.78299,-0.85584 4.42182,-2.2109 2.9241,-7.27461 3.49467,1.99695 -5.70558,-0.3566 -2.99542,8.77232 -0.99848,-3.70862 4.63578,-1.4264"
       style="fill:none;stroke:#000000;stroke-width:0.5;stroke-linecap:round;stroke-linejoin:round;stroke-miterlimit:4;stroke-dasharray:none;stroke-opacity:1;filter:url(#filter1404)" />
    <path
       inkscape:connector-curvature="0"
       id="path1380"
       d="m 101.20534,158.13071 -2.924103,-4.92105 -4.92106,0.71319 -0.855837,-7.34593 4.421823,1.35508 0.927155,-4.20786 3.851262,1.92563 1.92563,-3.92259 3.28071,2.78147 2.06827,-3.49466 2.99543,3.06674 1.56903,-2.99542 0.99848,3.13806 -3.35203,-3.2807 -1.64035,3.13806 -2.99543,-2.85278 -2.28223,3.92258 -3.77994,-2.42487 -1.283758,4.06522 -4.421822,-1.49771 -0.855835,4.49314 -1.925632,2.28223 3.637304,-0.7132 v 3.85127 l 3.922583,-1.28376 v 3.70863 l 1.4264,-1.71168 -0.42792,-1.56903 -3.066752,2.06827 -0.713195,-4.06522 -4.065223,0.78451 1.640351,-2.78146 -3.352024,0.21396 5.634257,-6.27614 17.402006,-2.06827 -8.84364,2.28223 -15.547697,3.70863 2.496189,-2.71015 -3.352026,-0.78452 3.066747,-2.06827 -7.702527,-5.56293 3.779944,-3.49467 5.135018,4.3505 -7.06065,2.78147 -0.570557,-6.27613 4.207862,-0.42792 2.496189,5.84821 -3.494665,1.4264 4.56446,-8.55837 5.634255,-0.64187 1.569038,-4.27918 4.13654,1.64035 2.28223,-3.92258 0.3566,3.49466 -4.77842,-2.28223 -0.92716,4.13654 -4.707097,-1.35507 -0.07132,4.20786 -4.778419,0.0713 0.998476,4.13654 -7.987806,1.56903 3.993903,-5.99085 -1.640353,7.70253 3.993903,-6.4901 0.784516,6.34746 -3.494665,2.28223 3.352026,0.99847 -2.781468,2.35355 3.280706,-0.0713 -2.210911,2.92411 4.992378,-1.06979 4.065223,-5.20634 3.494668,1.85431 2.28223,-3.70862 3.42334,2.56751 1.71168,-3.06675 2.78147,3.06675 1.56903,-1.28376 -2.06827,-1.85431 -1.56904,2.92411 -3.49466,-2.56751 -1.56904,3.35202 -3.6373,-2.21091 -1.42639,3.56599 -5.206341,-0.99848 -0.998476,4.20786 -4.136543,0.92716 4.49314,0.78451 -0.213958,3.70863 3.993902,-1.0698 -0.07132,3.49467 2.353556,-0.21396 -4.421828,-0.7132 -7.417247,-9.84212 2.781468,-4.13654 -7.13197,-6.41877 9.271562,0.64188 -0.784518,-3.70862 4.279182,0.71319 1.141114,-4.92106 4.350497,1.71167 1.0698,-3.92258 2.78147,1.35508 -0.99848,1.78299 -4.63578,-1.99695 -1.49771,4.20786 -4.921059,-0.42792 0.356597,4.13654 -10.697953,3.56599 6.490092,-4.13655"
       style="fill:none;stroke:#000000;stroke-width:0.5;stroke-linecap:round;stroke-linejoin:round;stroke-miterlimit:4;stroke-dasharray:none;stroke-opacity:1;filter:url(#filter1408)" />
    <path
       inkscape:connector-curvature="0"
       id="path1382"
       d="m 114.68477,174.32029 3.20938,-4.06523 4.92106,1.35508 1.78299,-5.34898 4.92106,-0.49924 -0.42792,-5.34898 5.27766,-2.42486 2.49619,5.34897 -4.56446,2.21091 2.71015,-7.41725 v 7.20329 l -5.63426,-9.84211 2.35355,-3.35203 -4.20786,-1.85431 -3.13806,5.70557 -4.99239,-1.56903 -2.28222,3.92258 -4.92106,-2.49618 -4.35051,3.35202 0.7132,-3.35202 3.99391,3.2807 2.71014,-3.70862 4.42182,2.56751 2.21092,-4.63579 4.49314,1.49772 3.42334,-6.70405 -5.0637,-0.49924 0.14264,-3.85126 -3.56598,1.99695 -1.0698,-3.63731 2.71015,0.78452 0.42792,3.85126 4.3505,-0.92715 -1.35507,3.35202 4.3505,0.3566 -1.92563,3.85126 -5.20634,-1.14111 -1.4264,4.7071 -4.77842,-1.78299 -2.78147,3.6373 -4.20786,-2.92411 -3.13806,2.35355 2.92411,0.85584 3.85126,-3.35203 4.27918,2.28223 2.35355,-4.20786 4.84974,1.56904 0.42792,-3.99391 6.56141,3.35203 -3.06675,3.06675 4.77842,7.55988 2.85279,-3.6373 -0.7132,-2.49619 -9.12892,4.20786 -0.92716,5.63426 -4.63578,-0.42792 -2.06826,4.06522 -5.34898,-1.71167 2.28223,2.85279 1.28375,-3.49467 3.42335,1.85431 1.42639,-4.49314 4.92106,0.28528 0.49924,-5.84821 8.77232,0.28528 -7.34593,-5.63426 3.13807,-0.49924 -3.49467,-1.92563 1.99696,-3.70862 -3.99391,-0.85584 1.28376,-3.06675 -2.71015,1.64036 0.49924,-3.56599 -3.85127,1.49771 -0.57056,-3.77994 -1.28375,2.99543 6.34745,-0.14264 5.49162,8.13044 -3.13807,5.49162 1.4264,5.56294 6.27613,-3.77995 -5.20634,4.42182 0.99848,-7.41724 -4.27918,3.70862 0.42791,5.49162 h -5.34897 l 0.85584,3.49466 -4.49315,-1.21243 -1.85431,4.20786 -2.21091,-2.78147 -1.42639,2.06827 1.56903,1.28376 3.06675,-4.7071 4.7071,1.42639 2.21091,-5.84822 10.62663,-4.63578 -0.92715,4.56447 -4.20787,0.0713 -2.13959,-5.77689 3.49467,-2.21091 -3.85127,-3.35203"
       style="fill:none;stroke:#000000;stroke-width:0.5;stroke-linecap:round;stroke-linejoin:round;stroke-miterlimit:4;stroke-dasharray:none;stroke-opacity:1;filter:url(#filter1412)" />
    <path
       style="fill:none;stroke:#000000;stroke-width:0.5;stroke-linecap:round;stroke-linejoin:round;stroke-miterlimit:4;stroke-dasharray:none;stroke-opacity:1"
       d="m 89.437594,153.56625 -1.569034,5.49162 4.207862,1.49771 -0.213959,5.0637 h 4.207862 l 4.279185,9.98476 -5.56294,-4.27918 9.98476,-2.42487 4.92106,1.92563 0.57055,-4.27918 -5.91953,-3.49467 1.49771,-5.77689 -3.92258,-3.85127 2.92411,-4.06522 -3.28071,-2.56751 3.20939,-0.78451 -3.35203,3.85126 3.42335,2.21091 -2.49619,3.77995 4.06522,3.6373 -0.92715,5.70557 7.2746,3.77995 -0.49923,-4.06522 3.6373,0.64187 -1.78299,-3.35202 3.9939,-0.78452 -1.14111,-1.64035 -2.42487,1.64035 -0.28528,6.13349 -19.541599,5.4203 7.559889,0.85584 -4.84974,2.21091 -1.782993,-6.20482 4.136543,-1.71167 2.85279,3.70863 -6.918012,3.06674 6.490092,-6.20481 4.06522,3.13807 2.92411,-6.70406 -5.4203,-3.92258 1.4264,-5.91953 -3.49467,-3.20939 2.78147,-3.9939 -1.71167,-1.78299 -1.56904,2.21091 3.92259,5.42029 -1.99695,5.56294 5.06369,3.35202 -0.92715,4.7071 7.77384,-0.92715 v -6.77537 l 1.92564,4.06522 -3.77995,-0.21396 0.3566,4.7071 -3.06675,-1.78299 0.3566,3.6373 -3.77994,-1.85431 -2.99543,3.35203 -3.06674,-3.28071 -5.84822,0.64188 -0.998477,-5.56294 -4.778419,-1.28375 1.069795,-5.0637 -3.922583,-3.13807 1.854312,-0.42792 1.497714,1.4264 -2.567509,2.21091 4.065222,1.71167 -0.855836,5.0637 4.707099,0.49924 -1.782992,3.2807 4.63578,-1.06979 7.274614,5.20633 4.92105,-5.13501 -2.28223,4.27918 -4.06522,-2.49619 -4.635779,7.27461 -1.497714,-8.84364 -3.565983,1.28375 -1.069796,-6.13349 -4.7071,-1.71168 1.711672,-4.27918 -3.494664,-0.49923 1.497713,-2.06828 4.77842,13.47943 6.276133,0.64187 3.280708,5.34898 -1.35508,1.56903 -6.062171,-4.13654 10.697961,-2.21091 6.13349,1.21244 -0.42792,-3.42335 4.13654,-0.0713 0.42792,-6.27613 1.49771,3.06674 -4.77842,1.64036 -4.13654,6.70405"
       id="path1349"
       inkscape:connector-curvature="0" />
    <path
       style="fill:none;stroke:#000000;stroke-width:0.5;stroke-linecap:round;stroke-linejoin:round;stroke-miterlimit:4;stroke-dasharray:none;stroke-opacity:1"
       d="m 102.91702,140.51475 4.13654,-2.56751 -0.3566,-5.0637 7.34593,-0.71319 -1.49771,3.56598 4.20786,1.0698 -1.92563,3.20938 3.9939,1.85431 -2.49619,3.56599 3.28071,1.92563 -2.92411,3.13807 3.13806,1.06979 -3.13806,0.99848 3.20938,-2.92411 -3.35202,-1.56903 2.85278,-3.06675 -3.6373,-1.92563 2.35355,-3.35203 -4.27918,-1.56903 1.71167,-3.9939 -4.20786,-0.42792 3.42334,-5.27766 4.13655,2.85279 8.91496,-1.85431 -2.13959,-5.20634 -4.63578,1.21243 4.3505,8.91497 6.56141,3.13806 -0.92715,5.34898 4.06522,3.20938 -1.14112,-4.49313 -4.49314,-1.99696 1.0698,-4.06522 -4.06523,-0.21396 -0.21395,-4.27918 -3.92259,1.14112 -1.99695,-4.56447 6.63273,-2.28222 0.99848,2.5675 -12.83755,3.56599 -5.77689,-0.99848 -3.56598,9.48552 -2.28224,-2.21091 4.27919,-1.28375 0.14264,-4.49314 3.2807,1.28375 3.63731,0.14264 -1.35508,3.70863 4.06522,1.21243 -2.21091,3.35202 3.70863,1.85432 -2.56751,3.06674 3.13807,1.85432 -2.99543,2.9241 1.71167,0.64188 1.35507,-1.42639 -2.99542,-1.35508 2.63883,-2.78147 -3.35203,-2.13959 2.42487,-3.42334 -3.77995,-1.64035 1.4264,-3.77995 -3.92258,-0.78452 0.49923,-5.56293 2.71015,2.21091 2.28223,-3.20939 2.35355,3.35203 7.77385,-4.99238 -4.3505,-2.49619 0.21396,8.91496 4.3505,-0.49924 -0.7132,4.06523 3.9939,-0.0713 -1.49771,4.56446 4.42182,1.71167 -2.42487,3.56598 2.28223,0.0713 0.78452,-1.14112 -3.6373,-0.64188 1.71167,-4.99238 -4.63578,-1.42639 0.85583,-4.56446 h -4.63578 v -9.55684 l 2.56751,6.49009 -5.63425,1.28376 -1.92563,-3.56599 -1.56904,2.99543 -1.71167,-2.99543 -0.21396,2.99543 -2.21091,-2.56751 -3.9939,5.63426 -4.56446,0.49923 -0.28528,5.4203 -1.78299,-0.85584 4.42182,-2.2109 2.9241,-7.27461 3.49467,1.99695 -5.70558,-0.3566 -2.99542,8.77232 -0.99848,-3.70862 4.63578,-1.4264"
       id="path1370"
       inkscape:connector-curvature="0" />
    <path
       style="fill:none;stroke:#000000;stroke-width:0.5;stroke-linecap:round;stroke-linejoin:round;stroke-miterlimit:4;stroke-dasharray:none;stroke-opacity:1"
       d="m 101.20534,158.13071 -2.924103,-4.92105 -4.92106,0.71319 -0.855837,-7.34593 4.421823,1.35508 0.927155,-4.20786 3.851262,1.92563 1.92563,-3.92259 3.28071,2.78147 2.06827,-3.49466 2.99543,3.06674 1.56903,-2.99542 0.99848,3.13806 -3.35203,-3.2807 -1.64035,3.13806 -2.99543,-2.85278 -2.28223,3.92258 -3.77994,-2.42487 -1.283758,4.06522 -4.421822,-1.49771 -0.855835,4.49314 -1.925632,2.28223 3.637304,-0.7132 v 3.85127 l 3.922583,-1.28376 v 3.70863 l 1.4264,-1.71168 -0.42792,-1.56903 -3.066752,2.06827 -0.713195,-4.06522 -4.065223,0.78451 1.640351,-2.78146 -3.352024,0.21396 5.634257,-6.27614 17.402006,-2.06827 -8.84364,2.28223 -15.547697,3.70863 2.496189,-2.71015 -3.352026,-0.78452 3.066747,-2.06827 -7.702527,-5.56293 3.779944,-3.49467 5.135018,4.3505 -7.06065,2.78147 -0.570557,-6.27613 4.207862,-0.42792 2.496189,5.84821 -3.494665,1.4264 4.56446,-8.55837 5.634255,-0.64187 1.569038,-4.27918 4.13654,1.64035 2.28223,-3.92258 0.3566,3.49466 -4.77842,-2.28223 -0.92716,4.13654 -4.707097,-1.35507 -0.07132,4.20786 -4.778419,0.0713 0.998476,4.13654 -7.987806,1.56903 3.993903,-5.99085 -1.640353,7.70253 3.993903,-6.4901 0.784516,6.34746 -3.494665,2.28223 3.352026,0.99847 -2.781468,2.35355 3.280706,-0.0713 -2.210911,2.92411 4.992378,-1.06979 4.065223,-5.20634 3.494668,1.85431 2.28223,-3.70862 3.42334,2.56751 1.71168,-3.06675 2.78147,3.06675 1.56903,-1.28376 -2.06827,-1.85431 -1.56904,2.92411 -3.49466,-2.56751 -1.56904,3.35202 -3.6373,-2.21091 -1.42639,3.56599 -5.206341,-0.99848 -0.998476,4.20786 -4.136543,0.92716 4.49314,0.78451 -0.213958,3.70863 3.993902,-1.0698 -0.07132,3.49467 2.353556,-0.21396 -4.421828,-0.7132 -7.417247,-9.84212 2.781468,-4.13654 -7.13197,-6.41877 9.271562,0.64188 -0.784518,-3.70862 4.279182,0.71319 1.141114,-4.92106 4.350497,1.71167 1.0698,-3.92258 2.78147,1.35508 -0.99848,1.78299 -4.63578,-1.99695 -1.49771,4.20786 -4.921059,-0.42792 0.356597,4.13654 -10.697953,3.56599 6.490092,-4.13655"
       id="path1372"
       inkscape:connector-curvature="0" />
    <path
       style="fill:none;stroke:#000000;stroke-width:0.5;stroke-linecap:round;stroke-linejoin:round;stroke-miterlimit:4;stroke-dasharray:none;stroke-opacity:1"
       d="m 114.68477,174.32029 3.20938,-4.06523 4.92106,1.35508 1.78299,-5.34898 4.92106,-0.49924 -0.42792,-5.34898 5.27766,-2.42486 2.49619,5.34897 -4.56446,2.21091 2.71015,-7.41725 v 7.20329 l -5.63426,-9.84211 2.35355,-3.35203 -4.20786,-1.85431 -3.13806,5.70557 -4.99239,-1.56903 -2.28222,3.92258 -4.92106,-2.49618 -4.35051,3.35202 0.7132,-3.35202 3.99391,3.2807 2.71014,-3.70862 4.42182,2.56751 2.21092,-4.63579 4.49314,1.49772 3.42334,-6.70405 -5.0637,-0.49924 0.14264,-3.85126 -3.56598,1.99695 -1.0698,-3.63731 2.71015,0.78452 0.42792,3.85126 4.3505,-0.92715 -1.35507,3.35202 4.3505,0.3566 -1.92563,3.85126 -5.20634,-1.14111 -1.4264,4.7071 -4.77842,-1.78299 -2.78147,3.6373 -4.20786,-2.92411 -3.13806,2.35355 2.92411,0.85584 3.85126,-3.35203 4.27918,2.28223 2.35355,-4.20786 4.84974,1.56904 0.42792,-3.99391 6.56141,3.35203 -3.06675,3.06675 4.77842,7.55988 2.85279,-3.6373 -0.7132,-2.49619 -9.12892,4.20786 -0.92716,5.63426 -4.63578,-0.42792 -2.06826,4.06522 -5.34898,-1.71167 2.28223,2.85279 1.28375,-3.49467 3.42335,1.85431 1.42639,-4.49314 4.92106,0.28528 0.49924,-5.84821 8.77232,0.28528 -7.34593,-5.63426 3.13807,-0.49924 -3.49467,-1.92563 1.99696,-3.70862 -3.99391,-0.85584 1.28376,-3.06675 -2.71015,1.64036 0.49924,-3.56599 -3.85127,1.49771 -0.57056,-3.77994 -1.28375,2.99543 6.34745,-0.14264 5.49162,8.13044 -3.13807,5.49162 1.4264,5.56294 6.27613,-3.77995 -5.20634,4.42182 0.99848,-7.41724 -4.27918,3.70862 0.42791,5.49162 h -5.34897 l 0.85584,3.49466 -4.49315,-1.21243 -1.85431,4.20786 -2.21091,-2.78147 -1.42639,2.06827 1.56903,1.28376 3.06675,-4.7071 4.7071,1.42639 2.21091,-5.84822 10.62663,-4.63578 -0.92715,4.56447 -4.20787,0.0713 -2.13959,-5.77689 3.49467,-2.21091 -3.85127,-3.35203"
       id="path1374"
       inkscape:connector-curvature="0" />
  </g>
</svg>
