<?xml version="1.0" encoding="UTF-8" standalone="no"?>
<!-- Created with Inkscape (http://www.inkscape.org/) -->

<svg
   xmlns:dc="http://purl.org/dc/elements/1.1/"
   xmlns:cc="http://creativecommons.org/ns#"
   xmlns:rdf="http://www.w3.org/1999/02/22-rdf-syntax-ns#"
   xmlns:svg="http://www.w3.org/2000/svg"
   xmlns="http://www.w3.org/2000/svg"
   xmlns:sodipodi="http://sodipodi.sourceforge.net/DTD/sodipodi-0.dtd"
   xmlns:inkscape="http://www.inkscape.org/namespaces/inkscape"
   width="210mm"
   height="297mm"
   viewBox="0 0 210 297"
   version="1.1"
   id="svg8"
   inkscape:version="0.92.3 (2405546, 2018-03-11)"
   sodipodi:docname="x.svg">
  <defs
     id="defs2">
    <filter
       inkscape:collect="always"
       style="color-interpolation-filters:sRGB"
       id="filter934"
       x="-0.012280057"
       width="1.0245601"
       y="-0.011732432"
       height="1.0234649">
      <feGaussianBlur
         inkscape:collect="always"
         stdDeviation="1.1068618"
         id="feGaussianBlur936" />
    </filter>
    <filter
       inkscape:collect="always"
       style="color-interpolation-filters:sRGB"
       id="filter944"
       x="-0.0097508651"
       width="1.0195017"
       y="-0.015597786"
       height="1.0311956">
      <feGaussianBlur
         inkscape:collect="always"
         stdDeviation="1.0777942"
         id="feGaussianBlur946" />
    </filter>
    <filter
       inkscape:collect="always"
       style="color-interpolation-filters:sRGB"
       id="filter955"
       x="-0.019592417"
       width="1.0391848"
       y="-0.030966291"
       height="1.0619326">
      <feGaussianBlur
         inkscape:collect="always"
         stdDeviation="0.5270406"
         id="feGaussianBlur957" />
    </filter>
  </defs>
  <sodipodi:namedview
     id="base"
     pagecolor="#ffffff"
     bordercolor="#666666"
     borderopacity="1.0"
     inkscape:pageopacity="0.0"
     inkscape:pageshadow="2"
     inkscape:zoom="0.30572619"
     inkscape:cx="701.658"
     inkscape:cy="398.42971"
     inkscape:document-units="mm"
     inkscape:current-layer="layer1"
     showgrid="false"
     inkscape:window-width="1920"
     inkscape:window-height="1039"
     inkscape:window-x="0"
     inkscape:window-y="0"
     inkscape:window-maximized="1"
     inkscape:snap-nodes="false" />
  <metadata
     id="metadata5">
    <rdf:RDF>
      <cc:Work
         rdf:about="">
        <dc:format>image/svg+xml</dc:format>
        <dc:type
           rdf:resource="http://purl.org/dc/dcmitype/StillImage" />
        <dc:title />
      </cc:Work>
    </rdf:RDF>
  </metadata>
  <g
     inkscape:label="Layer 1"
     inkscape:groupmode="layer"
     id="layer1">
    <path
       d="m 103.1285,109.72589 -7.955328,-6.42546 -3.05974,-15.145723 11.780008,6.73143 -14.533778,1.2239 20.041308,-8.4143 m 4.58962,40.847563 -26.772748,-40.082623 -0.76493,3.97766 14.686758,4.7426 4.89559,-9.33221 8.56728,4.7426 5.50753,-4.43662 5.50754,5.04857 5.66052,-3.97767 3.5187,4.58962 7.0374,-2.90676 2.6008,4.7426 6.57844,-2.75376 -2.29481,3.5187 -2.60077,-4.58961 -6.27248,3.05974 -3.67169,-4.89559 -5.66052,3.82468 -5.04858,-5.20156 -5.50753,4.13065 -5.9665,-4.89559 -6.88442,5.81351 -9.026238,-5.81351 -7.1904,9.79118 8.56728,3.212733 -1.52987,6.27247 5.201558,2.60078 0.45896,4.7426 2.75377,1.37688"
       style="fill:none;stroke:#000000;stroke-width:0.69999999;stroke-linecap:butt;stroke-linejoin:miter;stroke-miterlimit:4;stroke-dasharray:none;stroke-opacity:1;filter:url(#filter955)"
       id="path949"
       inkscape:connector-curvature="0" />
    <path
       inkscape:connector-curvature="0"
       id="path938"
       d="m 31.530532,100.69965 -3.05974,18.9704 -27.2317104,-1.22389 4.58962,28.4556 -33.3511936,11.01507 29.9854736,29.98547 -8.56728,38.55276 41.9184704,2.75376 13.15689,28.45561 30.59742,-10.40312 19.58236,18.05247 27.843648,-14.68676 18.66442,10.09716 13.46288,-17.13457 19.58234,5.81353 7.34338,-16.82859 17.44054,2.75376 5.20157,-21.72417 21.11222,-9.17922 -5.20158,-20.80625 11.32105,-18.05248 -13.76884,-15.29872 1.52987,-13.76884 -11.933,-3.36571 -4.28363,-13.15689 -11.933,-2.75377 -3.97766,-7.64936 -10.70909,-1.52987 -9.79117,-8.567283 -2.4478,3.059753 14.0748,1.83584 6.73145,9.17923 10.70909,1.22389 4.58962,11.01508 11.93298,2.75376 0.61195,13.46287 14.07483,8.56728 -4.89559,15.91066 9.17922,21.11223 -16.82858,11.62701 -4.28363,25.39587 h -17.44054 l -6.11947,17.7465 -17.13458,-3.97766 -8.87325,16.82858 -19.58234,-7.64937 -18.97041,16.82859 -23.56001,-14.0748 -28.455608,13.15688 -14.68676,-21.41821 -30.9034,5.81353 -6.11948,-28.45562 -36.41093,-1.52987 13.46285962,-46.81405 -14.38078962,-34.88106 29.06756,-3.05974 0.61194,-24.17197 23.56002,2.4478 -46.5080804,15.29871 -21.4181996,56.91121 40.69457,22.03014 3.36572,37.32887 33.04522,-7.34341 15.91066,25.39588 28.14963,-11.01508 20.194298,15.29871 23.86598,-16.21663 20.1943,8.56728 11.32104,-16.52262 18.0525,3.36572 5.20155,-14.68676 18.35846,-1.22388 4.58962,-20.1943 18.66442,-12.85092 -5.81351,-22.94808"
       style="fill:none;stroke:#000000;stroke-width:0.69999999;stroke-linecap:butt;stroke-linejoin:miter;stroke-miterlimit:4;stroke-dasharray:none;stroke-opacity:1;filter:url(#filter944)" />
    <path
       d="m 150.5545,259.34729 18.20548,10.40313 7.80235,-19.27638 19.73532,19.12339 8.10831,-10.09716 -16.06364,-14.83974 -9.02624,24.7839 -13.76883,-14.68676 -8.41431,15.14573 0.30599,-12.39195 16.21663,12.08598 8.10832,-21.57118 29.37353,21.41818 -40.5416,-16.36962 -7.49636,16.82859 -9.17924,-3.97767 7.34341,-10.09713 25.54882,13.76883 12.85092,-16.82858 -7.49636,-9.94418 v 26.61976 l -7.64934,-22.79508 -7.95533,22.48911 -12.85092,-13.15688 -7.80235,11.933 3.51869,1.68285 46.20212,-7.95533 -4.13064,7.49636 -28.91457,-17.59352 -6.42546,17.89949 -11.47405,-11.16804 -2.90674,3.51869 13.15688,7.80235 43.60132,-4.28365 -3.67167,3.97766 -8.2613,-20.50026 -6.73145,-4.89558 -6.11947,25.39584 -14.68678,-15.60467 -8.72027,15.75766 m -143.807868,-25.39585 -0.91793,25.54885 -6.5784404,-15.91066 18.0524804,-4.89559 0.91792,3.97767 -22.1831304,5.35453 -5.04857998,11.32105 20.80625038,-23.40703 0.45896,14.83976 -12.8509204,8.41428 -1.68286,-13.76883 22.4891104,-5.04857 -25.7018304,19.12339 -3.82467998,-5.04859 23.71300038,-6.73142 -12.54494,-8.10832 12.69793,-2.29481 2.2948,7.80235 -23.7130004,5.96649 9.3322104,8.2613 6.42546,-3.5187 -7.34338,-14.53377 7.95533,-5.96649 1.2239,18.05247 -13.6158504,6.11949 -5.35455,-6.42546 15.6046804,3.82466 -19.4293604,2.4478 20.8062504,-24.47793 0.76493,19.73535 m 122.695678,-16.82859 10.09713,-61.8068 -56.605218,-2.75377 14.992728,-31.20937 27.53768,-13.46287 5.50755,-31.20937 23.86597,-6.73143 -2.75375,-20.194303 22.33612,-5.20156 -2.14183,-20.80625 24.47793,-9.4852 -18.05247,0.30598 5.20155,16.82858 -19.8883,3.05974 3.05972,18.9704 -18.66443,1.2239 1.52988,21.724173 -22.94805,5.50754 0.91791,22.64209 -20.50027,2.44779 7.64935,14.68676 -26.61976,11.01508 39.77665,7.64935 -22.03014,44.67225 51.09769,-4.89559 -6.42546,31.82131 -32.73924,-7.95533 14.99273,-56.29925 -50.791708,-7.34339 -3.97767,5.20156 94.546048,55.99328 -74.04577,-26.61975 23.25404,-44.06029 -30.59743,-2.75377 -11.321038,20.80625 38.246778,-21.72417 -26.00781,39.16469 55.68731,2.75378 -22.94807,41.91847 14.38078,3.97767 24.17197,-25.70184 -51.40367,5.20155 30.9034,-32.12727 -54.46341,-2.14183 27.53768,-36.10496 -22.94807,0.61195 59.35901,49.26185 9.17922,33.04521 -45.59016,-8.26129 -13.46287,-85.97877 h 18.05248 l -4.28364,-18.9704 21.11222,-1.2239 -1.52987,-21.41819 21.41821,-6.425463 0.30596,-23.25404 20.50029,-3.67169 -3.05975,-19.58236 11.62701,-4.28363 3.6717,8.87325 -22.94808,5.81351 3.05975,20.1943 -15.60468,-2.4478 8.2613,11.62703 -20.50029,2.44779 v 23.254043 l -20.80623,4.58961 1.83584,22.03015 -12.23897,-7.95533 5.50754,17.44053 -16.52261,-2.14182 23.86599,17.13456 -1.83584,72.51588 22.33611,5.81353 7.34338,-39.47068 -55.99328,-3.36573 22.64209,-41.61249 -33.351178,7.95533 81.083158,56.9112 0.91792,10.70912 -57.52315,-13.46288 20.80626,-48.03795 -46.508088,-4.58962 0.61195,17.13456 70.374068,54.15744 5.50754,-23.25405 -70.68005,-56.60523 28.76157,-13.46286 0.61195,-25.39586 20.50028,-1.83585 V 96.721987 l 20.19429,-4.28365 0.61196,-24.47793 19.58234,-2.14182 -3.67168,-18.35846 4.5896,-3.97766 5.81353,14.68676 -31.82133,17.74651 m -173.1814084,-31.51535 79.2473204,35.18704 -19.27638,49.567823 60.276928,7.64936 -36.410938,27.23171 -14.68676,41.30652 -25.70183,10.09714 -2.4478,13.46287 13.76884,-4.58962 5.20156,-29.98547 24.78391,-9.4852 26.619758,-60.88887 -60.276918,-7.64936 19.88833,-48.955873 -47.42601,-22.94807 -11.0150704,18.35845 61.8067904,10.40313 -18.9704,50.791723 60.888868,7.03741 -70.068098,100.66551 4.58962,-26.0078 27.84365,-12.54493 22.64209,-83.83695 -64.56056,-13.462873 22.6421,-44.36626 -19.58236,-6.73143 -17.13455,32.12729 66.09043,15.91066 -13.15689,58.441083 30.903398,4.89559 -0.91793,-39.47068 -60.888868,-9.4852 19.88833,-48.037953 -56.2992604,-2.75377 46.2021104,-11.01507 -24.17197,42.22444 64.56057,14.380793 -14.07482,55.38133 20.1943,4.58962 -17.44053,-75.575643 -64.86654,-15.29871 14.38079,-26.61976 27.84366,10.09715 -20.1943,46.814063 69.762118,49.26185 -64.866538,-106.479033 -18.66442,38.55275 86.896678,44.978213 1.22389,18.05248 -44.978208,-3.36571 13.46287,-56.299263 -78.94135038,-34.26912 3.05973998,-7.34338 14.0748204,30.59743 82.91901,84.448883 -6.73143,-54.76938 -82.9190204,-60.276933 -4.28364,14.68677 106.7850084,82.613043 -52.627568,-5.81351 16.52261,-53.239523 -63.03069,-38.55275 -2.75377,22.33612 88.12058,46.814053 -4.58962,53.54549 -21.41819,3.67169 3.36572,19.58236 -13.76884,-6.73144 8.2613,14.38078 -13.76884,-6.73142 7.03741,16.21663 -15.60469,-6.11949 8.2613,15.91066 -16.21663,-6.42546 7.34338,16.82859 -13.76884,-6.73143 9.4852,12.54493 -11.93299,-7.95533 21.72417,-4.89559 -1.52987,-22.64209 16.82858,3.05975 -7.64935,-13.76884 14.07481,4.58963 -7.64936,-14.07483 14.68677,4.58961 -6.73144,-14.38079 13.46287,7.03741 -2.14182,-78.941353"
       style="fill:none;stroke:#000000;stroke-width:1.5;stroke-linecap:round;stroke-linejoin:round;stroke-miterlimit:4;stroke-dasharray:none;stroke-opacity:1;filter:url(#filter934)"
       id="path916"
       inkscape:connector-curvature="0" />
    <path
       id="path905"
       style="fill:none;stroke:#000000;stroke-width:1.5;stroke-linecap:round;stroke-linejoin:round;stroke-miterlimit:4;stroke-dasharray:none;stroke-opacity:1"
       d="m 150.5545,259.34729 18.20548,10.40313 7.80235,-19.27638 19.73532,19.12339 8.10831,-10.09716 -16.06364,-14.83974 -9.02624,24.7839 -13.76883,-14.68676 -8.41431,15.14573 0.30599,-12.39195 16.21663,12.08598 8.10832,-21.57118 29.37353,21.41818 -40.5416,-16.36962 -7.49636,16.82859 -9.17924,-3.97767 7.34341,-10.09713 25.54882,13.76883 12.85092,-16.82858 -7.49636,-9.94418 v 26.61976 l -7.64934,-22.79508 -7.95533,22.48911 -12.85092,-13.15688 -7.80235,11.933 3.51869,1.68285 46.20212,-7.95533 -4.13064,7.49636 -28.91457,-17.59352 -6.42546,17.89949 -11.47405,-11.16804 -2.90674,3.51869 13.15688,7.80235 43.60132,-4.28365 -3.67167,3.97766 -8.2613,-20.50026 -6.73145,-4.89558 -6.11947,25.39584 -14.68678,-15.60467 -8.72027,15.75766 m -143.807868,-25.39585 -0.91793,25.54885 -6.5784404,-15.91066 18.0524804,-4.89559 0.91792,3.97767 -22.1831304,5.35453 -5.04857998,11.32105 20.80625038,-23.40703 0.45896,14.83976 -12.8509204,8.41428 -1.68286,-13.76883 22.4891104,-5.04857 -25.7018304,19.12339 -3.82467998,-5.04859 23.71300038,-6.73142 -12.54494,-8.10832 12.69793,-2.29481 2.2948,7.80235 -23.7130004,5.96649 9.3322104,8.2613 6.42546,-3.5187 -7.34338,-14.53377 7.95533,-5.96649 1.2239,18.05247 -13.6158504,6.11949 -5.35455,-6.42546 15.6046804,3.82466 -19.4293604,2.4478 20.8062504,-24.47793 0.76493,19.73535 m 122.695678,-16.82859 10.09713,-61.8068 -56.605218,-2.75377 14.992728,-31.20937 27.53768,-13.46287 5.50755,-31.20937 23.86597,-6.73143 -2.75375,-20.194303 22.33612,-5.20156 -2.14183,-20.80625 24.47793,-9.4852 -18.05247,0.30598 5.20155,16.82858 -19.8883,3.05974 3.05972,18.9704 -18.66443,1.2239 1.52988,21.724173 -22.94805,5.50754 0.91791,22.64209 -20.50027,2.44779 7.64935,14.68676 -26.61976,11.01508 39.77665,7.64935 -22.03014,44.67225 51.09769,-4.89559 -6.42546,31.82131 -32.73924,-7.95533 14.99273,-56.29925 -50.791708,-7.34339 -3.97767,5.20156 94.546048,55.99328 -74.04577,-26.61975 23.25404,-44.06029 -30.59743,-2.75377 -11.321038,20.80625 38.246778,-21.72417 -26.00781,39.16469 55.68731,2.75378 -22.94807,41.91847 14.38078,3.97767 24.17197,-25.70184 -51.40367,5.20155 30.9034,-32.12727 -54.46341,-2.14183 27.53768,-36.10496 -22.94807,0.61195 59.35901,49.26185 9.17922,33.04521 -45.59016,-8.26129 -13.46287,-85.97877 h 18.05248 l -4.28364,-18.9704 21.11222,-1.2239 -1.52987,-21.41819 21.41821,-6.425463 0.30596,-23.25404 20.50029,-3.67169 -3.05975,-19.58236 11.62701,-4.28363 3.6717,8.87325 -22.94808,5.81351 3.05975,20.1943 -15.60468,-2.4478 8.2613,11.62703 -20.50029,2.44779 v 23.254043 l -20.80623,4.58961 1.83584,22.03015 -12.23897,-7.95533 5.50754,17.44053 -16.52261,-2.14182 23.86599,17.13456 -1.83584,72.51588 22.33611,5.81353 7.34338,-39.47068 -55.99328,-3.36573 22.64209,-41.61249 -33.351178,7.95533 81.083158,56.9112 0.91792,10.70912 -57.52315,-13.46288 20.80626,-48.03795 -46.508088,-4.58962 0.61195,17.13456 70.374068,54.15744 5.50754,-23.25405 -70.68005,-56.60523 28.76157,-13.46286 0.61195,-25.39586 20.50028,-1.83585 V 96.721987 l 20.19429,-4.28365 0.61196,-24.47793 19.58234,-2.14182 -3.67168,-18.35846 4.5896,-3.97766 5.81353,14.68676 -31.82133,17.74651 m -173.1814084,-31.51535 79.2473204,35.18704 -19.27638,49.567823 60.276928,7.64936 -36.410938,27.23171 -14.68676,41.30652 -25.70183,10.09714 -2.4478,13.46287 13.76884,-4.58962 5.20156,-29.98547 24.78391,-9.4852 26.619758,-60.88887 -60.276918,-7.64936 19.88833,-48.955873 -47.42601,-22.94807 -11.0150704,18.35845 61.8067904,10.40313 -18.9704,50.791723 60.888868,7.03741 -70.068098,100.66551 4.58962,-26.0078 27.84365,-12.54493 22.64209,-83.83695 -64.56056,-13.462873 22.6421,-44.36626 -19.58236,-6.73143 -17.13455,32.12729 66.09043,15.91066 -13.15689,58.441083 30.903398,4.89559 -0.91793,-39.47068 -60.888868,-9.4852 19.88833,-48.037953 -56.2992604,-2.75377 46.2021104,-11.01507 -24.17197,42.22444 64.56057,14.380793 -14.07482,55.38133 20.1943,4.58962 -17.44053,-75.575643 -64.86654,-15.29871 14.38079,-26.61976 27.84366,10.09715 -20.1943,46.814063 69.762118,49.26185 -64.866538,-106.479033 -18.66442,38.55275 86.896678,44.978213 1.22389,18.05248 -44.978208,-3.36571 13.46287,-56.299263 -78.94135038,-34.26912 3.05973998,-7.34338 14.0748204,30.59743 82.91901,84.448883 -6.73143,-54.76938 -82.9190204,-60.276933 -4.28364,14.68677 106.7850084,82.613043 -52.627568,-5.81351 16.52261,-53.239523 -63.03069,-38.55275 -2.75377,22.33612 88.12058,46.814053 -4.58962,53.54549 -21.41819,3.67169 3.36572,19.58236 -13.76884,-6.73144 8.2613,14.38078 -13.76884,-6.73142 7.03741,16.21663 -15.60469,-6.11949 8.2613,15.91066 -16.21663,-6.42546 7.34338,16.82859 -13.76884,-6.73143 9.4852,12.54493 -11.93299,-7.95533 21.72417,-4.89559 -1.52987,-22.64209 16.82858,3.05975 -7.64935,-13.76884 14.07481,4.58963 -7.64936,-14.07483 14.68677,4.58961 -6.73144,-14.38079 13.46287,7.03741 -2.14182,-78.941353"
       inkscape:connector-curvature="0" />
    <path
       style="fill:none;stroke:#000000;stroke-width:0.69999999;stroke-linecap:butt;stroke-linejoin:miter;stroke-miterlimit:4;stroke-dasharray:none;stroke-opacity:1"
       d="m 31.530532,100.69965 -3.05974,18.9704 -27.2317104,-1.22389 4.58962,28.4556 -33.3511936,11.01507 29.9854736,29.98547 -8.56728,38.55276 41.9184704,2.75376 13.15689,28.45561 30.59742,-10.40312 19.58236,18.05247 27.843648,-14.68676 18.66442,10.09716 13.46288,-17.13457 19.58234,5.81353 7.34338,-16.82859 17.44054,2.75376 5.20157,-21.72417 21.11222,-9.17922 -5.20158,-20.80625 11.32105,-18.05248 -13.76884,-15.29872 1.52987,-13.76884 -11.933,-3.36571 -4.28363,-13.15689 -11.933,-2.75377 -3.97766,-7.64936 -10.70909,-1.52987 -9.79117,-8.567283 -2.4478,3.059753 14.0748,1.83584 6.73145,9.17923 10.70909,1.22389 4.58962,11.01508 11.93298,2.75376 0.61195,13.46287 14.07483,8.56728 -4.89559,15.91066 9.17922,21.11223 -16.82858,11.62701 -4.28363,25.39587 h -17.44054 l -6.11947,17.7465 -17.13458,-3.97766 -8.87325,16.82858 -19.58234,-7.64937 -18.97041,16.82859 -23.56001,-14.0748 -28.455608,13.15688 -14.68676,-21.41821 -30.9034,5.81353 -6.11948,-28.45562 -36.41093,-1.52987 13.46285962,-46.81405 -14.38078962,-34.88106 29.06756,-3.05974 0.61194,-24.17197 23.56002,2.4478 -46.5080804,15.29871 -21.4181996,56.91121 40.69457,22.03014 3.36572,37.32887 33.04522,-7.34341 15.91066,25.39588 28.14963,-11.01508 20.194298,15.29871 23.86598,-16.21663 20.1943,8.56728 11.32104,-16.52262 18.0525,3.36572 5.20155,-14.68676 18.35846,-1.22388 4.58962,-20.1943 18.66442,-12.85092 -5.81351,-22.94808"
       id="path907"
       inkscape:connector-curvature="0" />
    <path
       style="fill:none;stroke:#000000;stroke-width:0.26458332px;stroke-linecap:butt;stroke-linejoin:miter;stroke-opacity:1"
       d="M 103.43448,109.72589 Z"
       id="path911"
       inkscape:connector-curvature="0" />
    <path
       id="path913"
       style="fill:none;stroke:#000000;stroke-width:0.69999999;stroke-linecap:butt;stroke-linejoin:miter;stroke-miterlimit:4;stroke-dasharray:none;stroke-opacity:1"
       d="m 103.1285,109.72589 -7.955328,-6.42546 -3.05974,-15.145723 11.780008,6.73143 -14.533778,1.2239 20.041308,-8.4143 m 4.58962,40.847563 -26.772748,-40.082623 -0.76493,3.97766 14.686758,4.7426 4.89559,-9.33221 8.56728,4.7426 5.50753,-4.43662 5.50754,5.04857 5.66052,-3.97767 3.5187,4.58962 7.0374,-2.90676 2.6008,4.7426 6.57844,-2.75376 -2.29481,3.5187 -2.60077,-4.58961 -6.27248,3.05974 -3.67169,-4.89559 -5.66052,3.82468 -5.04858,-5.20156 -5.50753,4.13065 -5.9665,-4.89559 -6.88442,5.81351 -9.026238,-5.81351 -7.1904,9.79118 8.56728,3.212733 -1.52987,6.27247 5.201558,2.60078 0.45896,4.7426 2.75377,1.37688"
       inkscape:connector-curvature="0" />
  </g>
</svg>
